M48
; DRILL file KiCad 10.0.4-10.0.4~ubuntu24.04.1 date 2026-06-26T07:17:36
; FORMAT={-:-/ absolute / metric / decimal}
; #@! TF.CreationDate,2026-06-26T07:17:36+02:00
; #@! TF.GenerationSoftware,Kicad,Pcbnew,10.0.4-10.0.4~ubuntu24.04.1
; #@! TF.FileFunction,Plated,1,2,PTH
FMAT,2
METRIC
; #@! TA.AperFunction,Plated,PTH,ViaDrill
T1C0.300
; #@! TA.AperFunction,Plated,PTH,ComponentDrill
T2C0.800
; #@! TA.AperFunction,Plated,PTH,ComponentDrill
T3C0.950
; #@! TA.AperFunction,Plated,PTH,ComponentDrill
T4C1.000
; #@! TA.AperFunction,Plated,PTH,ComponentDrill
T5C1.200
%
G90
G05
T1
X170.9Y-94.6
X171.6Y-68.2
X171.6Y-125.3
X174.8Y-104.8
X175.1Y-111.3
X175.75Y-56.75
X176.5Y-120.2
X177.5Y-104.7
X177.5Y-110.6
X179.25Y-62.0
X179.4Y-96.7
X179.5Y-73.75
X180.5Y-111.1
X181.9Y-128.1
X183.0Y-63.75
X183.0Y-73.5
X183.1Y-78.35
X183.1Y-102.5
X183.5Y-110.4
X183.6Y-118.2
X184.75Y-57.0
X185.0Y-50.0
X186.8Y-102.1
X187.951Y-127.486
X188.4Y-128.6
X189.25Y-72.25
X189.5Y-59.75
X189.5Y-125.1
X189.6Y-106.3
X190.1Y-77.7
X190.3Y-43.35
X192.6Y-97.2
X192.8Y-75.2
X195.6Y-56.7
X195.7Y-45.9
X196.3Y-41.5
X196.629Y-102.864
X197.76Y-114.706
X202.1Y-97.2
X202.8Y-111.7
X206.5Y-97.1
X206.5Y-107.3
X208.2Y-101.6
X208.6Y-123.7
X208.7Y-99.1
X208.8Y-114.4
X210.6Y-128.0
X211.2Y-94.1
X211.6Y-69.9
X212.5Y-48.1
X214.3Y-114.6
X216.8Y-98.1
X217.0Y-74.6
X217.3Y-62.93
X218.0Y-80.8
X218.7Y-58.1
X219.5Y-100.5
X219.5Y-119.1
X220.8Y-90.9
X220.9Y-84.5
X222.2Y-88.8
X224.0Y-55.25
X227.05Y-41.8
X227.4Y-118.1
X227.5Y-57.5
X227.5Y-69.25
X227.6Y-99.6
X227.7Y-87.0
X227.7Y-126.9
T2
X210.69Y-123.25
X210.79Y-116.85
X213.75Y-96.19
X213.75Y-103.81
X218.31Y-123.25
X218.41Y-116.85
T3
X223.0Y-76.75
X223.0Y-79.25
X223.0Y-81.75
X223.0Y-84.25
X223.0Y-91.75
X223.0Y-94.25
X223.0Y-96.75
X223.0Y-104.25
X223.0Y-106.75
X223.0Y-109.25
X223.0Y-111.75
T4
X172.5Y-107.8
X172.5Y-110.34
X172.5Y-112.88
X172.5Y-115.42
X172.5Y-117.96
X172.5Y-120.5
X172.7Y-43.12
X172.7Y-45.66
X172.7Y-48.2
X173.05Y-53.79
X173.05Y-76.65
X175.59Y-53.79
X175.59Y-76.65
X180.4Y-102.56
X180.4Y-105.1
X185.71Y-76.65
X185.75Y-53.79
X186.5Y-111.88
X186.5Y-114.42
X186.5Y-116.96
X186.5Y-119.5
X186.5Y-122.04
X186.5Y-124.58
X188.25Y-76.65
X188.29Y-53.79
X190.795Y-101.305
X191.26Y-112.01
X191.26Y-114.55
X191.26Y-117.09
X191.26Y-119.63
X191.26Y-122.17
X191.26Y-124.71
X191.26Y-127.25
X193.335Y-101.305
X193.4Y-42.46
X193.4Y-45.0
X193.4Y-52.6
X193.4Y-55.14
X195.875Y-101.305
X198.3Y-76.6
X198.415Y-101.305
X200.84Y-76.6
X200.955Y-101.305
X203.38Y-67.71
X203.38Y-76.6
X203.495Y-101.305
X205.92Y-67.71
X205.92Y-76.6
X206.5Y-112.01
X206.5Y-114.55
X206.5Y-117.09
X206.5Y-119.63
X206.5Y-122.17
X206.5Y-124.71
X206.5Y-127.25
X208.46Y-76.6
X211.0Y-76.6
X216.25Y-42.45
X216.25Y-55.15
X224.25Y-58.67
X224.25Y-61.21
X224.25Y-63.75
X224.25Y-66.29
T5
X174.6Y-85.0
X174.6Y-87.54
X174.6Y-98.16
X174.6Y-100.7
X184.015Y-44.325
X186.555Y-44.325
M30
