%TF.GenerationSoftware,KiCad,Pcbnew,10.0.4-10.0.4~ubuntu24.04.1*%
%TF.CreationDate,2026-06-26T07:17:34+02:00*%
%TF.ProjectId,_V0_4-Scale_Module,5f56305f-342d-4536-9361-6c655f4d6f64,rev?*%
%TF.SameCoordinates,Original*%
%TF.FileFunction,Soldermask,Top*%
%TF.FilePolarity,Negative*%
%FSLAX46Y46*%
G04 Gerber Fmt 4.6, Leading zero omitted, Abs format (unit mm)*
G04 Created by KiCad (PCBNEW 10.0.4-10.0.4~ubuntu24.04.1) date 2026-06-26 07:17:34*
%MOMM*%
%LPD*%
G01*
G04 APERTURE LIST*
G04 Aperture macros list*
%AMRoundRect*
0 Rectangle with rounded corners*
0 $1 Rounding radius*
0 $2 $3 $4 $5 $6 $7 $8 $9 X,Y pos of 4 corners*
0 Add a 4 corners polygon primitive as box body*
4,1,4,$2,$3,$4,$5,$6,$7,$8,$9,$2,$3,0*
0 Add four circle primitives for the rounded corners*
1,1,$1+$1,$2,$3*
1,1,$1+$1,$4,$5*
1,1,$1+$1,$6,$7*
1,1,$1+$1,$8,$9*
0 Add four rect primitives between the rounded corners*
20,1,$1+$1,$2,$3,$4,$5,0*
20,1,$1+$1,$4,$5,$6,$7,0*
20,1,$1+$1,$6,$7,$8,$9,0*
20,1,$1+$1,$8,$9,$2,$3,0*%
G04 Aperture macros list end*
%ADD10C,1.700000*%
%ADD11R,1.700000X1.700000*%
%ADD12RoundRect,0.250000X0.750000X0.750000X-0.750000X0.750000X-0.750000X-0.750000X0.750000X-0.750000X0*%
%ADD13C,2.000000*%
%ADD14RoundRect,0.250000X-0.725000X0.600000X-0.725000X-0.600000X0.725000X-0.600000X0.725000X0.600000X0*%
%ADD15O,1.950000X1.700000*%
%ADD16RoundRect,0.250000X-0.750000X0.750000X-0.750000X-0.750000X0.750000X-0.750000X0.750000X0.750000X0*%
%ADD17C,3.200000*%
%ADD18C,1.600000*%
%ADD19RoundRect,0.102000X-0.800000X-0.800000X0.800000X-0.800000X0.800000X0.800000X-0.800000X0.800000X0*%
%ADD20C,1.804000*%
G04 APERTURE END LIST*
D10*
%TO.C,J20*%
X175590000Y-53790000D03*
D11*
X173050000Y-53790000D03*
%TD*%
%TO.C,J3*%
X172700000Y-48200000D03*
D10*
X172700000Y-45660000D03*
X172700000Y-43120000D03*
%TD*%
D12*
%TO.C,J12*%
X186555000Y-44325000D03*
D13*
X184015000Y-44325000D03*
%TD*%
D11*
%TO.C,MAX17048*%
X203380000Y-67710000D03*
D10*
X205920000Y-67710000D03*
%TD*%
D11*
%TO.C,J2*%
X216250000Y-55150000D03*
%TD*%
%TO.C,J1*%
X216250000Y-42450000D03*
%TD*%
D10*
%TO.C,J22*%
X211000000Y-76600000D03*
X208460000Y-76600000D03*
X205920000Y-76600000D03*
X203380000Y-76600000D03*
X200840000Y-76600000D03*
D11*
X198300000Y-76600000D03*
%TD*%
%TO.C,J18*%
X185710000Y-76650000D03*
D10*
X188250000Y-76650000D03*
%TD*%
%TO.C,TP4056-1*%
X193400000Y-42460000D03*
D11*
X193400000Y-45000000D03*
%TD*%
D10*
%TO.C,TP4056+1*%
X193400000Y-52600000D03*
D11*
X193400000Y-55140000D03*
%TD*%
D14*
%TO.C,J13*%
X223000000Y-91750000D03*
D15*
X223000000Y-94250000D03*
X223000000Y-96750000D03*
%TD*%
D16*
%TO.C,J10*%
X174600000Y-98160000D03*
D13*
X174600000Y-100700000D03*
%TD*%
D17*
%TO.C,H6*%
X207300000Y-83500000D03*
%TD*%
D14*
%TO.C,J15*%
X223000000Y-76750000D03*
D15*
X223000000Y-79250000D03*
X223000000Y-81750000D03*
X223000000Y-84250000D03*
%TD*%
D11*
%TO.C,J5*%
X224250000Y-66290000D03*
D10*
X224250000Y-63750000D03*
X224250000Y-61210000D03*
X224250000Y-58670000D03*
%TD*%
D14*
%TO.C,i2c1*%
X223000000Y-104250000D03*
D15*
X223000000Y-106750000D03*
X223000000Y-109250000D03*
X223000000Y-111750000D03*
%TD*%
D11*
%TO.C,J9*%
X186500000Y-124580000D03*
D10*
X186500000Y-122040000D03*
X186500000Y-119500000D03*
X186500000Y-116960000D03*
X186500000Y-114420000D03*
X186500000Y-111880000D03*
%TD*%
D18*
%TO.C,SCL-4.7k1*%
X210790000Y-116850000D03*
X218410000Y-116850000D03*
%TD*%
D17*
%TO.C,H2*%
X223000000Y-45000000D03*
%TD*%
D18*
%TO.C,1W-4.7k1*%
X213750000Y-103810000D03*
X213750000Y-96190000D03*
%TD*%
D11*
%TO.C,J6*%
X185750000Y-53790000D03*
D10*
X188290000Y-53790000D03*
%TD*%
D17*
%TO.C,H3*%
X178000000Y-125000000D03*
%TD*%
D11*
%TO.C,J21*%
X190795000Y-101305000D03*
D10*
X193335000Y-101305000D03*
X195875000Y-101305000D03*
X198415000Y-101305000D03*
X200955000Y-101305000D03*
X203495000Y-101305000D03*
%TD*%
D11*
%TO.C,J23*%
X173050000Y-76650000D03*
D10*
X175590000Y-76650000D03*
%TD*%
D17*
%TO.C,H1*%
X178000000Y-45000000D03*
%TD*%
%TO.C,H8*%
X187000000Y-83500000D03*
%TD*%
D11*
%TO.C,SW1*%
X180400000Y-102560000D03*
D10*
X180400000Y-105100000D03*
%TD*%
D17*
%TO.C,H4*%
X223000000Y-125000000D03*
%TD*%
D19*
%TO.C,U1*%
X191260000Y-112010000D03*
D20*
X191260000Y-114550000D03*
X191260000Y-117090000D03*
X191260000Y-119630000D03*
X191260000Y-122170000D03*
X191260000Y-124710000D03*
X191260000Y-127250000D03*
X206500000Y-127250000D03*
X206500000Y-124710000D03*
X206500000Y-122170000D03*
X206500000Y-119630000D03*
X206500000Y-117090000D03*
X206500000Y-114550000D03*
X206500000Y-112010000D03*
%TD*%
D18*
%TO.C,SDA-4.7k1*%
X210690000Y-123250000D03*
X218310000Y-123250000D03*
%TD*%
D11*
%TO.C,J19*%
X172500000Y-107800000D03*
D10*
X172500000Y-110340000D03*
X172500000Y-112880000D03*
X172500000Y-115420000D03*
X172500000Y-117960000D03*
X172500000Y-120500000D03*
%TD*%
D16*
%TO.C,J11*%
X174600000Y-85000000D03*
D13*
X174600000Y-87540000D03*
%TD*%
M02*
