%TF.GenerationSoftware,KiCad,Pcbnew,10.0.4-10.0.4~ubuntu24.04.1*%
%TF.CreationDate,2026-06-26T07:17:33+02:00*%
%TF.ProjectId,_V0_4-Scale_Module,5f56305f-342d-4536-9361-6c655f4d6f64,rev?*%
%TF.SameCoordinates,Original*%
%TF.FileFunction,Legend,Top*%
%TF.FilePolarity,Positive*%
%FSLAX46Y46*%
G04 Gerber Fmt 4.6, Leading zero omitted, Abs format (unit mm)*
G04 Created by KiCad (PCBNEW 10.0.4-10.0.4~ubuntu24.04.1) date 2026-06-26 07:17:33*
%MOMM*%
%LPD*%
G01*
G04 APERTURE LIST*
%ADD10C,0.100000*%
%ADD11C,0.150000*%
%ADD12C,0.120000*%
%ADD13C,0.127000*%
%ADD14C,0.200000*%
G04 APERTURE END LIST*
D10*
X170572419Y-50296115D02*
X169572419Y-50296115D01*
X169572419Y-50296115D02*
X169572419Y-49915163D01*
X169572419Y-49915163D02*
X169620038Y-49819925D01*
X169620038Y-49819925D02*
X169667657Y-49772306D01*
X169667657Y-49772306D02*
X169762895Y-49724687D01*
X169762895Y-49724687D02*
X169905752Y-49724687D01*
X169905752Y-49724687D02*
X170000990Y-49772306D01*
X170000990Y-49772306D02*
X170048609Y-49819925D01*
X170048609Y-49819925D02*
X170096228Y-49915163D01*
X170096228Y-49915163D02*
X170096228Y-50296115D01*
X170572419Y-49153258D02*
X170524800Y-49248496D01*
X170524800Y-49248496D02*
X170477180Y-49296115D01*
X170477180Y-49296115D02*
X170381942Y-49343734D01*
X170381942Y-49343734D02*
X170096228Y-49343734D01*
X170096228Y-49343734D02*
X170000990Y-49296115D01*
X170000990Y-49296115D02*
X169953371Y-49248496D01*
X169953371Y-49248496D02*
X169905752Y-49153258D01*
X169905752Y-49153258D02*
X169905752Y-49010401D01*
X169905752Y-49010401D02*
X169953371Y-48915163D01*
X169953371Y-48915163D02*
X170000990Y-48867544D01*
X170000990Y-48867544D02*
X170096228Y-48819925D01*
X170096228Y-48819925D02*
X170381942Y-48819925D01*
X170381942Y-48819925D02*
X170477180Y-48867544D01*
X170477180Y-48867544D02*
X170524800Y-48915163D01*
X170524800Y-48915163D02*
X170572419Y-49010401D01*
X170572419Y-49010401D02*
X170572419Y-49153258D01*
X169905752Y-48486591D02*
X170572419Y-48296115D01*
X170572419Y-48296115D02*
X170096228Y-48105639D01*
X170096228Y-48105639D02*
X170572419Y-47915163D01*
X170572419Y-47915163D02*
X169905752Y-47724687D01*
X170524800Y-46962782D02*
X170572419Y-47058020D01*
X170572419Y-47058020D02*
X170572419Y-47248496D01*
X170572419Y-47248496D02*
X170524800Y-47343734D01*
X170524800Y-47343734D02*
X170429561Y-47391353D01*
X170429561Y-47391353D02*
X170048609Y-47391353D01*
X170048609Y-47391353D02*
X169953371Y-47343734D01*
X169953371Y-47343734D02*
X169905752Y-47248496D01*
X169905752Y-47248496D02*
X169905752Y-47058020D01*
X169905752Y-47058020D02*
X169953371Y-46962782D01*
X169953371Y-46962782D02*
X170048609Y-46915163D01*
X170048609Y-46915163D02*
X170143847Y-46915163D01*
X170143847Y-46915163D02*
X170239085Y-47391353D01*
X170572419Y-46486591D02*
X169905752Y-46486591D01*
X170096228Y-46486591D02*
X170000990Y-46438972D01*
X170000990Y-46438972D02*
X169953371Y-46391353D01*
X169953371Y-46391353D02*
X169905752Y-46296115D01*
X169905752Y-46296115D02*
X169905752Y-46200877D01*
X170524800Y-45153257D02*
X170572419Y-45058019D01*
X170572419Y-45058019D02*
X170572419Y-44867543D01*
X170572419Y-44867543D02*
X170524800Y-44772305D01*
X170524800Y-44772305D02*
X170429561Y-44724686D01*
X170429561Y-44724686D02*
X170381942Y-44724686D01*
X170381942Y-44724686D02*
X170286704Y-44772305D01*
X170286704Y-44772305D02*
X170239085Y-44867543D01*
X170239085Y-44867543D02*
X170239085Y-45010400D01*
X170239085Y-45010400D02*
X170191466Y-45105638D01*
X170191466Y-45105638D02*
X170096228Y-45153257D01*
X170096228Y-45153257D02*
X170048609Y-45153257D01*
X170048609Y-45153257D02*
X169953371Y-45105638D01*
X169953371Y-45105638D02*
X169905752Y-45010400D01*
X169905752Y-45010400D02*
X169905752Y-44867543D01*
X169905752Y-44867543D02*
X169953371Y-44772305D01*
X170524800Y-43915162D02*
X170572419Y-44010400D01*
X170572419Y-44010400D02*
X170572419Y-44200876D01*
X170572419Y-44200876D02*
X170524800Y-44296114D01*
X170524800Y-44296114D02*
X170429561Y-44343733D01*
X170429561Y-44343733D02*
X170048609Y-44343733D01*
X170048609Y-44343733D02*
X169953371Y-44296114D01*
X169953371Y-44296114D02*
X169905752Y-44200876D01*
X169905752Y-44200876D02*
X169905752Y-44010400D01*
X169905752Y-44010400D02*
X169953371Y-43915162D01*
X169953371Y-43915162D02*
X170048609Y-43867543D01*
X170048609Y-43867543D02*
X170143847Y-43867543D01*
X170143847Y-43867543D02*
X170239085Y-44343733D01*
X170572419Y-43296114D02*
X170524800Y-43391352D01*
X170524800Y-43391352D02*
X170429561Y-43438971D01*
X170429561Y-43438971D02*
X169572419Y-43438971D01*
X170524800Y-42534209D02*
X170572419Y-42629447D01*
X170572419Y-42629447D02*
X170572419Y-42819923D01*
X170572419Y-42819923D02*
X170524800Y-42915161D01*
X170524800Y-42915161D02*
X170429561Y-42962780D01*
X170429561Y-42962780D02*
X170048609Y-42962780D01*
X170048609Y-42962780D02*
X169953371Y-42915161D01*
X169953371Y-42915161D02*
X169905752Y-42819923D01*
X169905752Y-42819923D02*
X169905752Y-42629447D01*
X169905752Y-42629447D02*
X169953371Y-42534209D01*
X169953371Y-42534209D02*
X170048609Y-42486590D01*
X170048609Y-42486590D02*
X170143847Y-42486590D01*
X170143847Y-42486590D02*
X170239085Y-42962780D01*
X170524800Y-41629447D02*
X170572419Y-41724685D01*
X170572419Y-41724685D02*
X170572419Y-41915161D01*
X170572419Y-41915161D02*
X170524800Y-42010399D01*
X170524800Y-42010399D02*
X170477180Y-42058018D01*
X170477180Y-42058018D02*
X170381942Y-42105637D01*
X170381942Y-42105637D02*
X170096228Y-42105637D01*
X170096228Y-42105637D02*
X170000990Y-42058018D01*
X170000990Y-42058018D02*
X169953371Y-42010399D01*
X169953371Y-42010399D02*
X169905752Y-41915161D01*
X169905752Y-41915161D02*
X169905752Y-41724685D01*
X169905752Y-41724685D02*
X169953371Y-41629447D01*
X169905752Y-41343732D02*
X169905752Y-40962780D01*
X169572419Y-41200875D02*
X170429561Y-41200875D01*
X170429561Y-41200875D02*
X170524800Y-41153256D01*
X170524800Y-41153256D02*
X170572419Y-41058018D01*
X170572419Y-41058018D02*
X170572419Y-40962780D01*
X171108646Y-50405752D02*
X171346741Y-51072419D01*
X171346741Y-51072419D02*
X171584836Y-50405752D01*
X171727694Y-51167657D02*
X172489598Y-51167657D01*
X172727694Y-51072419D02*
X172727694Y-50072419D01*
X173203884Y-51072419D02*
X173203884Y-50072419D01*
X173203884Y-50072419D02*
X173775312Y-51072419D01*
X173775312Y-51072419D02*
X173775312Y-50072419D01*
X174013408Y-51167657D02*
X174775312Y-51167657D01*
X175537217Y-51072419D02*
X174965789Y-51072419D01*
X175251503Y-51072419D02*
X175251503Y-50072419D01*
X175251503Y-50072419D02*
X175156265Y-50215276D01*
X175156265Y-50215276D02*
X175061027Y-50310514D01*
X175061027Y-50310514D02*
X174965789Y-50358133D01*
X175965789Y-50977180D02*
X176013408Y-51024800D01*
X176013408Y-51024800D02*
X175965789Y-51072419D01*
X175965789Y-51072419D02*
X175918170Y-51024800D01*
X175918170Y-51024800D02*
X175965789Y-50977180D01*
X175965789Y-50977180D02*
X175965789Y-51072419D01*
X176584836Y-50500990D02*
X176489598Y-50453371D01*
X176489598Y-50453371D02*
X176441979Y-50405752D01*
X176441979Y-50405752D02*
X176394360Y-50310514D01*
X176394360Y-50310514D02*
X176394360Y-50262895D01*
X176394360Y-50262895D02*
X176441979Y-50167657D01*
X176441979Y-50167657D02*
X176489598Y-50120038D01*
X176489598Y-50120038D02*
X176584836Y-50072419D01*
X176584836Y-50072419D02*
X176775312Y-50072419D01*
X176775312Y-50072419D02*
X176870550Y-50120038D01*
X176870550Y-50120038D02*
X176918169Y-50167657D01*
X176918169Y-50167657D02*
X176965788Y-50262895D01*
X176965788Y-50262895D02*
X176965788Y-50310514D01*
X176965788Y-50310514D02*
X176918169Y-50405752D01*
X176918169Y-50405752D02*
X176870550Y-50453371D01*
X176870550Y-50453371D02*
X176775312Y-50500990D01*
X176775312Y-50500990D02*
X176584836Y-50500990D01*
X176584836Y-50500990D02*
X176489598Y-50548609D01*
X176489598Y-50548609D02*
X176441979Y-50596228D01*
X176441979Y-50596228D02*
X176394360Y-50691466D01*
X176394360Y-50691466D02*
X176394360Y-50881942D01*
X176394360Y-50881942D02*
X176441979Y-50977180D01*
X176441979Y-50977180D02*
X176489598Y-51024800D01*
X176489598Y-51024800D02*
X176584836Y-51072419D01*
X176584836Y-51072419D02*
X176775312Y-51072419D01*
X176775312Y-51072419D02*
X176870550Y-51024800D01*
X176870550Y-51024800D02*
X176918169Y-50977180D01*
X176918169Y-50977180D02*
X176965788Y-50881942D01*
X176965788Y-50881942D02*
X176965788Y-50691466D01*
X176965788Y-50691466D02*
X176918169Y-50596228D01*
X176918169Y-50596228D02*
X176870550Y-50548609D01*
X176870550Y-50548609D02*
X176775312Y-50500990D01*
X177394360Y-50691466D02*
X178156265Y-50691466D01*
X179108645Y-50072419D02*
X178632455Y-50072419D01*
X178632455Y-50072419D02*
X178584836Y-50548609D01*
X178584836Y-50548609D02*
X178632455Y-50500990D01*
X178632455Y-50500990D02*
X178727693Y-50453371D01*
X178727693Y-50453371D02*
X178965788Y-50453371D01*
X178965788Y-50453371D02*
X179061026Y-50500990D01*
X179061026Y-50500990D02*
X179108645Y-50548609D01*
X179108645Y-50548609D02*
X179156264Y-50643847D01*
X179156264Y-50643847D02*
X179156264Y-50881942D01*
X179156264Y-50881942D02*
X179108645Y-50977180D01*
X179108645Y-50977180D02*
X179061026Y-51024800D01*
X179061026Y-51024800D02*
X178965788Y-51072419D01*
X178965788Y-51072419D02*
X178727693Y-51072419D01*
X178727693Y-51072419D02*
X178632455Y-51024800D01*
X178632455Y-51024800D02*
X178584836Y-50977180D01*
X179584836Y-50977180D02*
X179632455Y-51024800D01*
X179632455Y-51024800D02*
X179584836Y-51072419D01*
X179584836Y-51072419D02*
X179537217Y-51024800D01*
X179537217Y-51024800D02*
X179584836Y-50977180D01*
X179584836Y-50977180D02*
X179584836Y-51072419D01*
X180537216Y-50072419D02*
X180061026Y-50072419D01*
X180061026Y-50072419D02*
X180013407Y-50548609D01*
X180013407Y-50548609D02*
X180061026Y-50500990D01*
X180061026Y-50500990D02*
X180156264Y-50453371D01*
X180156264Y-50453371D02*
X180394359Y-50453371D01*
X180394359Y-50453371D02*
X180489597Y-50500990D01*
X180489597Y-50500990D02*
X180537216Y-50548609D01*
X180537216Y-50548609D02*
X180584835Y-50643847D01*
X180584835Y-50643847D02*
X180584835Y-50881942D01*
X180584835Y-50881942D02*
X180537216Y-50977180D01*
X180537216Y-50977180D02*
X180489597Y-51024800D01*
X180489597Y-51024800D02*
X180394359Y-51072419D01*
X180394359Y-51072419D02*
X180156264Y-51072419D01*
X180156264Y-51072419D02*
X180061026Y-51024800D01*
X180061026Y-51024800D02*
X180013407Y-50977180D01*
X171337217Y-40648609D02*
X171480074Y-40696228D01*
X171480074Y-40696228D02*
X171527693Y-40743847D01*
X171527693Y-40743847D02*
X171575312Y-40839085D01*
X171575312Y-40839085D02*
X171575312Y-40981942D01*
X171575312Y-40981942D02*
X171527693Y-41077180D01*
X171527693Y-41077180D02*
X171480074Y-41124800D01*
X171480074Y-41124800D02*
X171384836Y-41172419D01*
X171384836Y-41172419D02*
X171003884Y-41172419D01*
X171003884Y-41172419D02*
X171003884Y-40172419D01*
X171003884Y-40172419D02*
X171337217Y-40172419D01*
X171337217Y-40172419D02*
X171432455Y-40220038D01*
X171432455Y-40220038D02*
X171480074Y-40267657D01*
X171480074Y-40267657D02*
X171527693Y-40362895D01*
X171527693Y-40362895D02*
X171527693Y-40458133D01*
X171527693Y-40458133D02*
X171480074Y-40553371D01*
X171480074Y-40553371D02*
X171432455Y-40600990D01*
X171432455Y-40600990D02*
X171337217Y-40648609D01*
X171337217Y-40648609D02*
X171003884Y-40648609D01*
X171956265Y-40886704D02*
X172432455Y-40886704D01*
X171861027Y-41172419D02*
X172194360Y-40172419D01*
X172194360Y-40172419D02*
X172527693Y-41172419D01*
X172718170Y-40172419D02*
X173289598Y-40172419D01*
X173003884Y-41172419D02*
X173003884Y-40172419D01*
X180998609Y-45012782D02*
X181046228Y-44869925D01*
X181046228Y-44869925D02*
X181093847Y-44822306D01*
X181093847Y-44822306D02*
X181189085Y-44774687D01*
X181189085Y-44774687D02*
X181331942Y-44774687D01*
X181331942Y-44774687D02*
X181427180Y-44822306D01*
X181427180Y-44822306D02*
X181474800Y-44869925D01*
X181474800Y-44869925D02*
X181522419Y-44965163D01*
X181522419Y-44965163D02*
X181522419Y-45346115D01*
X181522419Y-45346115D02*
X180522419Y-45346115D01*
X180522419Y-45346115D02*
X180522419Y-45012782D01*
X180522419Y-45012782D02*
X180570038Y-44917544D01*
X180570038Y-44917544D02*
X180617657Y-44869925D01*
X180617657Y-44869925D02*
X180712895Y-44822306D01*
X180712895Y-44822306D02*
X180808133Y-44822306D01*
X180808133Y-44822306D02*
X180903371Y-44869925D01*
X180903371Y-44869925D02*
X180950990Y-44917544D01*
X180950990Y-44917544D02*
X180998609Y-45012782D01*
X180998609Y-45012782D02*
X180998609Y-45346115D01*
X181236704Y-44393734D02*
X181236704Y-43917544D01*
X181522419Y-44488972D02*
X180522419Y-44155639D01*
X180522419Y-44155639D02*
X181522419Y-43822306D01*
X180522419Y-43631829D02*
X180522419Y-43060401D01*
X181522419Y-43346115D02*
X180522419Y-43346115D01*
X181141466Y-42727067D02*
X181141466Y-41965163D01*
X181522419Y-42346115D02*
X180760514Y-42346115D01*
X188720038Y-44472306D02*
X188672419Y-44567544D01*
X188672419Y-44567544D02*
X188672419Y-44710401D01*
X188672419Y-44710401D02*
X188720038Y-44853258D01*
X188720038Y-44853258D02*
X188815276Y-44948496D01*
X188815276Y-44948496D02*
X188910514Y-44996115D01*
X188910514Y-44996115D02*
X189100990Y-45043734D01*
X189100990Y-45043734D02*
X189243847Y-45043734D01*
X189243847Y-45043734D02*
X189434323Y-44996115D01*
X189434323Y-44996115D02*
X189529561Y-44948496D01*
X189529561Y-44948496D02*
X189624800Y-44853258D01*
X189624800Y-44853258D02*
X189672419Y-44710401D01*
X189672419Y-44710401D02*
X189672419Y-44615163D01*
X189672419Y-44615163D02*
X189624800Y-44472306D01*
X189624800Y-44472306D02*
X189577180Y-44424687D01*
X189577180Y-44424687D02*
X189243847Y-44424687D01*
X189243847Y-44424687D02*
X189243847Y-44615163D01*
X189672419Y-43996115D02*
X188672419Y-43996115D01*
X188672419Y-43996115D02*
X189672419Y-43424687D01*
X189672419Y-43424687D02*
X188672419Y-43424687D01*
X189672419Y-42948496D02*
X188672419Y-42948496D01*
X188672419Y-42948496D02*
X188672419Y-42710401D01*
X188672419Y-42710401D02*
X188720038Y-42567544D01*
X188720038Y-42567544D02*
X188815276Y-42472306D01*
X188815276Y-42472306D02*
X188910514Y-42424687D01*
X188910514Y-42424687D02*
X189100990Y-42377068D01*
X189100990Y-42377068D02*
X189243847Y-42377068D01*
X189243847Y-42377068D02*
X189434323Y-42424687D01*
X189434323Y-42424687D02*
X189529561Y-42472306D01*
X189529561Y-42472306D02*
X189624800Y-42567544D01*
X189624800Y-42567544D02*
X189672419Y-42710401D01*
X189672419Y-42710401D02*
X189672419Y-42948496D01*
X197422419Y-74541353D02*
X197422419Y-73922306D01*
X197422419Y-73922306D02*
X197803371Y-74255639D01*
X197803371Y-74255639D02*
X197803371Y-74112782D01*
X197803371Y-74112782D02*
X197850990Y-74017544D01*
X197850990Y-74017544D02*
X197898609Y-73969925D01*
X197898609Y-73969925D02*
X197993847Y-73922306D01*
X197993847Y-73922306D02*
X198231942Y-73922306D01*
X198231942Y-73922306D02*
X198327180Y-73969925D01*
X198327180Y-73969925D02*
X198374800Y-74017544D01*
X198374800Y-74017544D02*
X198422419Y-74112782D01*
X198422419Y-74112782D02*
X198422419Y-74398496D01*
X198422419Y-74398496D02*
X198374800Y-74493734D01*
X198374800Y-74493734D02*
X198327180Y-74541353D01*
X198327180Y-73493734D02*
X198374800Y-73446115D01*
X198374800Y-73446115D02*
X198422419Y-73493734D01*
X198422419Y-73493734D02*
X198374800Y-73541353D01*
X198374800Y-73541353D02*
X198327180Y-73493734D01*
X198327180Y-73493734D02*
X198422419Y-73493734D01*
X197422419Y-73112782D02*
X197422419Y-72493735D01*
X197422419Y-72493735D02*
X197803371Y-72827068D01*
X197803371Y-72827068D02*
X197803371Y-72684211D01*
X197803371Y-72684211D02*
X197850990Y-72588973D01*
X197850990Y-72588973D02*
X197898609Y-72541354D01*
X197898609Y-72541354D02*
X197993847Y-72493735D01*
X197993847Y-72493735D02*
X198231942Y-72493735D01*
X198231942Y-72493735D02*
X198327180Y-72541354D01*
X198327180Y-72541354D02*
X198374800Y-72588973D01*
X198374800Y-72588973D02*
X198422419Y-72684211D01*
X198422419Y-72684211D02*
X198422419Y-72969925D01*
X198422419Y-72969925D02*
X198374800Y-73065163D01*
X198374800Y-73065163D02*
X198327180Y-73112782D01*
X197422419Y-72208020D02*
X198422419Y-71874687D01*
X198422419Y-71874687D02*
X197422419Y-71541354D01*
X206224800Y-74543734D02*
X206272419Y-74400877D01*
X206272419Y-74400877D02*
X206272419Y-74162782D01*
X206272419Y-74162782D02*
X206224800Y-74067544D01*
X206224800Y-74067544D02*
X206177180Y-74019925D01*
X206177180Y-74019925D02*
X206081942Y-73972306D01*
X206081942Y-73972306D02*
X205986704Y-73972306D01*
X205986704Y-73972306D02*
X205891466Y-74019925D01*
X205891466Y-74019925D02*
X205843847Y-74067544D01*
X205843847Y-74067544D02*
X205796228Y-74162782D01*
X205796228Y-74162782D02*
X205748609Y-74353258D01*
X205748609Y-74353258D02*
X205700990Y-74448496D01*
X205700990Y-74448496D02*
X205653371Y-74496115D01*
X205653371Y-74496115D02*
X205558133Y-74543734D01*
X205558133Y-74543734D02*
X205462895Y-74543734D01*
X205462895Y-74543734D02*
X205367657Y-74496115D01*
X205367657Y-74496115D02*
X205320038Y-74448496D01*
X205320038Y-74448496D02*
X205272419Y-74353258D01*
X205272419Y-74353258D02*
X205272419Y-74115163D01*
X205272419Y-74115163D02*
X205320038Y-73972306D01*
X206272419Y-73543734D02*
X205272419Y-73543734D01*
X205272419Y-73543734D02*
X205272419Y-73305639D01*
X205272419Y-73305639D02*
X205320038Y-73162782D01*
X205320038Y-73162782D02*
X205415276Y-73067544D01*
X205415276Y-73067544D02*
X205510514Y-73019925D01*
X205510514Y-73019925D02*
X205700990Y-72972306D01*
X205700990Y-72972306D02*
X205843847Y-72972306D01*
X205843847Y-72972306D02*
X206034323Y-73019925D01*
X206034323Y-73019925D02*
X206129561Y-73067544D01*
X206129561Y-73067544D02*
X206224800Y-73162782D01*
X206224800Y-73162782D02*
X206272419Y-73305639D01*
X206272419Y-73305639D02*
X206272419Y-73543734D01*
X205986704Y-72591353D02*
X205986704Y-72115163D01*
X206272419Y-72686591D02*
X205272419Y-72353258D01*
X205272419Y-72353258D02*
X206272419Y-72019925D01*
X199925038Y-73922306D02*
X199877419Y-74017544D01*
X199877419Y-74017544D02*
X199877419Y-74160401D01*
X199877419Y-74160401D02*
X199925038Y-74303258D01*
X199925038Y-74303258D02*
X200020276Y-74398496D01*
X200020276Y-74398496D02*
X200115514Y-74446115D01*
X200115514Y-74446115D02*
X200305990Y-74493734D01*
X200305990Y-74493734D02*
X200448847Y-74493734D01*
X200448847Y-74493734D02*
X200639323Y-74446115D01*
X200639323Y-74446115D02*
X200734561Y-74398496D01*
X200734561Y-74398496D02*
X200829800Y-74303258D01*
X200829800Y-74303258D02*
X200877419Y-74160401D01*
X200877419Y-74160401D02*
X200877419Y-74065163D01*
X200877419Y-74065163D02*
X200829800Y-73922306D01*
X200829800Y-73922306D02*
X200782180Y-73874687D01*
X200782180Y-73874687D02*
X200448847Y-73874687D01*
X200448847Y-73874687D02*
X200448847Y-74065163D01*
X200877419Y-73446115D02*
X199877419Y-73446115D01*
X199877419Y-73446115D02*
X200877419Y-72874687D01*
X200877419Y-72874687D02*
X199877419Y-72874687D01*
X200877419Y-72398496D02*
X199877419Y-72398496D01*
X199877419Y-72398496D02*
X199877419Y-72160401D01*
X199877419Y-72160401D02*
X199925038Y-72017544D01*
X199925038Y-72017544D02*
X200020276Y-71922306D01*
X200020276Y-71922306D02*
X200115514Y-71874687D01*
X200115514Y-71874687D02*
X200305990Y-71827068D01*
X200305990Y-71827068D02*
X200448847Y-71827068D01*
X200448847Y-71827068D02*
X200639323Y-71874687D01*
X200639323Y-71874687D02*
X200734561Y-71922306D01*
X200734561Y-71922306D02*
X200829800Y-72017544D01*
X200829800Y-72017544D02*
X200877419Y-72160401D01*
X200877419Y-72160401D02*
X200877419Y-72398496D01*
X203774800Y-74443734D02*
X203822419Y-74300877D01*
X203822419Y-74300877D02*
X203822419Y-74062782D01*
X203822419Y-74062782D02*
X203774800Y-73967544D01*
X203774800Y-73967544D02*
X203727180Y-73919925D01*
X203727180Y-73919925D02*
X203631942Y-73872306D01*
X203631942Y-73872306D02*
X203536704Y-73872306D01*
X203536704Y-73872306D02*
X203441466Y-73919925D01*
X203441466Y-73919925D02*
X203393847Y-73967544D01*
X203393847Y-73967544D02*
X203346228Y-74062782D01*
X203346228Y-74062782D02*
X203298609Y-74253258D01*
X203298609Y-74253258D02*
X203250990Y-74348496D01*
X203250990Y-74348496D02*
X203203371Y-74396115D01*
X203203371Y-74396115D02*
X203108133Y-74443734D01*
X203108133Y-74443734D02*
X203012895Y-74443734D01*
X203012895Y-74443734D02*
X202917657Y-74396115D01*
X202917657Y-74396115D02*
X202870038Y-74348496D01*
X202870038Y-74348496D02*
X202822419Y-74253258D01*
X202822419Y-74253258D02*
X202822419Y-74015163D01*
X202822419Y-74015163D02*
X202870038Y-73872306D01*
X203727180Y-72872306D02*
X203774800Y-72919925D01*
X203774800Y-72919925D02*
X203822419Y-73062782D01*
X203822419Y-73062782D02*
X203822419Y-73158020D01*
X203822419Y-73158020D02*
X203774800Y-73300877D01*
X203774800Y-73300877D02*
X203679561Y-73396115D01*
X203679561Y-73396115D02*
X203584323Y-73443734D01*
X203584323Y-73443734D02*
X203393847Y-73491353D01*
X203393847Y-73491353D02*
X203250990Y-73491353D01*
X203250990Y-73491353D02*
X203060514Y-73443734D01*
X203060514Y-73443734D02*
X202965276Y-73396115D01*
X202965276Y-73396115D02*
X202870038Y-73300877D01*
X202870038Y-73300877D02*
X202822419Y-73158020D01*
X202822419Y-73158020D02*
X202822419Y-73062782D01*
X202822419Y-73062782D02*
X202870038Y-72919925D01*
X202870038Y-72919925D02*
X202917657Y-72872306D01*
X203822419Y-71967544D02*
X203822419Y-72443734D01*
X203822419Y-72443734D02*
X202822419Y-72443734D01*
X191400000Y-40500000D02*
X217900000Y-40500000D01*
X217900000Y-57500000D01*
X191400000Y-57500000D01*
X191400000Y-40500000D01*
X201561027Y-48122419D02*
X202132455Y-48122419D01*
X201846741Y-49122419D02*
X201846741Y-48122419D01*
X202465789Y-49122419D02*
X202465789Y-48122419D01*
X202465789Y-48122419D02*
X202846741Y-48122419D01*
X202846741Y-48122419D02*
X202941979Y-48170038D01*
X202941979Y-48170038D02*
X202989598Y-48217657D01*
X202989598Y-48217657D02*
X203037217Y-48312895D01*
X203037217Y-48312895D02*
X203037217Y-48455752D01*
X203037217Y-48455752D02*
X202989598Y-48550990D01*
X202989598Y-48550990D02*
X202941979Y-48598609D01*
X202941979Y-48598609D02*
X202846741Y-48646228D01*
X202846741Y-48646228D02*
X202465789Y-48646228D01*
X203894360Y-48455752D02*
X203894360Y-49122419D01*
X203656265Y-48074800D02*
X203418170Y-48789085D01*
X203418170Y-48789085D02*
X204037217Y-48789085D01*
X204608646Y-48122419D02*
X204703884Y-48122419D01*
X204703884Y-48122419D02*
X204799122Y-48170038D01*
X204799122Y-48170038D02*
X204846741Y-48217657D01*
X204846741Y-48217657D02*
X204894360Y-48312895D01*
X204894360Y-48312895D02*
X204941979Y-48503371D01*
X204941979Y-48503371D02*
X204941979Y-48741466D01*
X204941979Y-48741466D02*
X204894360Y-48931942D01*
X204894360Y-48931942D02*
X204846741Y-49027180D01*
X204846741Y-49027180D02*
X204799122Y-49074800D01*
X204799122Y-49074800D02*
X204703884Y-49122419D01*
X204703884Y-49122419D02*
X204608646Y-49122419D01*
X204608646Y-49122419D02*
X204513408Y-49074800D01*
X204513408Y-49074800D02*
X204465789Y-49027180D01*
X204465789Y-49027180D02*
X204418170Y-48931942D01*
X204418170Y-48931942D02*
X204370551Y-48741466D01*
X204370551Y-48741466D02*
X204370551Y-48503371D01*
X204370551Y-48503371D02*
X204418170Y-48312895D01*
X204418170Y-48312895D02*
X204465789Y-48217657D01*
X204465789Y-48217657D02*
X204513408Y-48170038D01*
X204513408Y-48170038D02*
X204608646Y-48122419D01*
X205846741Y-48122419D02*
X205370551Y-48122419D01*
X205370551Y-48122419D02*
X205322932Y-48598609D01*
X205322932Y-48598609D02*
X205370551Y-48550990D01*
X205370551Y-48550990D02*
X205465789Y-48503371D01*
X205465789Y-48503371D02*
X205703884Y-48503371D01*
X205703884Y-48503371D02*
X205799122Y-48550990D01*
X205799122Y-48550990D02*
X205846741Y-48598609D01*
X205846741Y-48598609D02*
X205894360Y-48693847D01*
X205894360Y-48693847D02*
X205894360Y-48931942D01*
X205894360Y-48931942D02*
X205846741Y-49027180D01*
X205846741Y-49027180D02*
X205799122Y-49074800D01*
X205799122Y-49074800D02*
X205703884Y-49122419D01*
X205703884Y-49122419D02*
X205465789Y-49122419D01*
X205465789Y-49122419D02*
X205370551Y-49074800D01*
X205370551Y-49074800D02*
X205322932Y-49027180D01*
X206751503Y-48122419D02*
X206561027Y-48122419D01*
X206561027Y-48122419D02*
X206465789Y-48170038D01*
X206465789Y-48170038D02*
X206418170Y-48217657D01*
X206418170Y-48217657D02*
X206322932Y-48360514D01*
X206322932Y-48360514D02*
X206275313Y-48550990D01*
X206275313Y-48550990D02*
X206275313Y-48931942D01*
X206275313Y-48931942D02*
X206322932Y-49027180D01*
X206322932Y-49027180D02*
X206370551Y-49074800D01*
X206370551Y-49074800D02*
X206465789Y-49122419D01*
X206465789Y-49122419D02*
X206656265Y-49122419D01*
X206656265Y-49122419D02*
X206751503Y-49074800D01*
X206751503Y-49074800D02*
X206799122Y-49027180D01*
X206799122Y-49027180D02*
X206846741Y-48931942D01*
X206846741Y-48931942D02*
X206846741Y-48693847D01*
X206846741Y-48693847D02*
X206799122Y-48598609D01*
X206799122Y-48598609D02*
X206751503Y-48550990D01*
X206751503Y-48550990D02*
X206656265Y-48503371D01*
X206656265Y-48503371D02*
X206465789Y-48503371D01*
X206465789Y-48503371D02*
X206370551Y-48550990D01*
X206370551Y-48550990D02*
X206322932Y-48598609D01*
X206322932Y-48598609D02*
X206275313Y-48693847D01*
X203298609Y-63372782D02*
X203346228Y-63229925D01*
X203346228Y-63229925D02*
X203393847Y-63182306D01*
X203393847Y-63182306D02*
X203489085Y-63134687D01*
X203489085Y-63134687D02*
X203631942Y-63134687D01*
X203631942Y-63134687D02*
X203727180Y-63182306D01*
X203727180Y-63182306D02*
X203774800Y-63229925D01*
X203774800Y-63229925D02*
X203822419Y-63325163D01*
X203822419Y-63325163D02*
X203822419Y-63706115D01*
X203822419Y-63706115D02*
X202822419Y-63706115D01*
X202822419Y-63706115D02*
X202822419Y-63372782D01*
X202822419Y-63372782D02*
X202870038Y-63277544D01*
X202870038Y-63277544D02*
X202917657Y-63229925D01*
X202917657Y-63229925D02*
X203012895Y-63182306D01*
X203012895Y-63182306D02*
X203108133Y-63182306D01*
X203108133Y-63182306D02*
X203203371Y-63229925D01*
X203203371Y-63229925D02*
X203250990Y-63277544D01*
X203250990Y-63277544D02*
X203298609Y-63372782D01*
X203298609Y-63372782D02*
X203298609Y-63706115D01*
X203536704Y-62753734D02*
X203536704Y-62277544D01*
X203822419Y-62848972D02*
X202822419Y-62515639D01*
X202822419Y-62515639D02*
X203822419Y-62182306D01*
X202822419Y-61991829D02*
X202822419Y-61420401D01*
X203822419Y-61706115D02*
X202822419Y-61706115D01*
X203441466Y-61087067D02*
X203441466Y-60325163D01*
X203822419Y-60706115D02*
X203060514Y-60706115D01*
X205798609Y-63372782D02*
X205846228Y-63229925D01*
X205846228Y-63229925D02*
X205893847Y-63182306D01*
X205893847Y-63182306D02*
X205989085Y-63134687D01*
X205989085Y-63134687D02*
X206131942Y-63134687D01*
X206131942Y-63134687D02*
X206227180Y-63182306D01*
X206227180Y-63182306D02*
X206274800Y-63229925D01*
X206274800Y-63229925D02*
X206322419Y-63325163D01*
X206322419Y-63325163D02*
X206322419Y-63706115D01*
X206322419Y-63706115D02*
X205322419Y-63706115D01*
X205322419Y-63706115D02*
X205322419Y-63372782D01*
X205322419Y-63372782D02*
X205370038Y-63277544D01*
X205370038Y-63277544D02*
X205417657Y-63229925D01*
X205417657Y-63229925D02*
X205512895Y-63182306D01*
X205512895Y-63182306D02*
X205608133Y-63182306D01*
X205608133Y-63182306D02*
X205703371Y-63229925D01*
X205703371Y-63229925D02*
X205750990Y-63277544D01*
X205750990Y-63277544D02*
X205798609Y-63372782D01*
X205798609Y-63372782D02*
X205798609Y-63706115D01*
X206036704Y-62753734D02*
X206036704Y-62277544D01*
X206322419Y-62848972D02*
X205322419Y-62515639D01*
X205322419Y-62515639D02*
X206322419Y-62182306D01*
X205322419Y-61991829D02*
X205322419Y-61420401D01*
X206322419Y-61706115D02*
X205322419Y-61706115D01*
X205941466Y-61087067D02*
X205941466Y-60325163D01*
X191950000Y-58190000D02*
X217350000Y-58190000D01*
X217350000Y-78510000D01*
X191950000Y-78510000D01*
X191950000Y-58190000D01*
X170400000Y-51600000D02*
X190700000Y-51600000D01*
X190700000Y-78650000D01*
X170400000Y-78650000D01*
X170400000Y-51600000D01*
X184350000Y-80950000D02*
X209850000Y-80950000D01*
X209850000Y-103950000D01*
X184350000Y-103950000D01*
X184350000Y-80950000D01*
X169911027Y-89872419D02*
X170244360Y-90872419D01*
X170244360Y-90872419D02*
X170577693Y-89872419D01*
X170911027Y-90872419D02*
X170911027Y-89872419D01*
X171387217Y-90872419D02*
X171387217Y-89872419D01*
X171387217Y-89872419D02*
X171958645Y-90872419D01*
X171958645Y-90872419D02*
X171958645Y-89872419D01*
X172196741Y-90967657D02*
X172958645Y-90967657D01*
X173720550Y-90872419D02*
X173149122Y-90872419D01*
X173434836Y-90872419D02*
X173434836Y-89872419D01*
X173434836Y-89872419D02*
X173339598Y-90015276D01*
X173339598Y-90015276D02*
X173244360Y-90110514D01*
X173244360Y-90110514D02*
X173149122Y-90158133D01*
X174149122Y-90777180D02*
X174196741Y-90824800D01*
X174196741Y-90824800D02*
X174149122Y-90872419D01*
X174149122Y-90872419D02*
X174101503Y-90824800D01*
X174101503Y-90824800D02*
X174149122Y-90777180D01*
X174149122Y-90777180D02*
X174149122Y-90872419D01*
X174768169Y-90300990D02*
X174672931Y-90253371D01*
X174672931Y-90253371D02*
X174625312Y-90205752D01*
X174625312Y-90205752D02*
X174577693Y-90110514D01*
X174577693Y-90110514D02*
X174577693Y-90062895D01*
X174577693Y-90062895D02*
X174625312Y-89967657D01*
X174625312Y-89967657D02*
X174672931Y-89920038D01*
X174672931Y-89920038D02*
X174768169Y-89872419D01*
X174768169Y-89872419D02*
X174958645Y-89872419D01*
X174958645Y-89872419D02*
X175053883Y-89920038D01*
X175053883Y-89920038D02*
X175101502Y-89967657D01*
X175101502Y-89967657D02*
X175149121Y-90062895D01*
X175149121Y-90062895D02*
X175149121Y-90110514D01*
X175149121Y-90110514D02*
X175101502Y-90205752D01*
X175101502Y-90205752D02*
X175053883Y-90253371D01*
X175053883Y-90253371D02*
X174958645Y-90300990D01*
X174958645Y-90300990D02*
X174768169Y-90300990D01*
X174768169Y-90300990D02*
X174672931Y-90348609D01*
X174672931Y-90348609D02*
X174625312Y-90396228D01*
X174625312Y-90396228D02*
X174577693Y-90491466D01*
X174577693Y-90491466D02*
X174577693Y-90681942D01*
X174577693Y-90681942D02*
X174625312Y-90777180D01*
X174625312Y-90777180D02*
X174672931Y-90824800D01*
X174672931Y-90824800D02*
X174768169Y-90872419D01*
X174768169Y-90872419D02*
X174958645Y-90872419D01*
X174958645Y-90872419D02*
X175053883Y-90824800D01*
X175053883Y-90824800D02*
X175101502Y-90777180D01*
X175101502Y-90777180D02*
X175149121Y-90681942D01*
X175149121Y-90681942D02*
X175149121Y-90491466D01*
X175149121Y-90491466D02*
X175101502Y-90396228D01*
X175101502Y-90396228D02*
X175053883Y-90348609D01*
X175053883Y-90348609D02*
X174958645Y-90300990D01*
X175577693Y-90491466D02*
X176339598Y-90491466D01*
X177291978Y-89872419D02*
X176815788Y-89872419D01*
X176815788Y-89872419D02*
X176768169Y-90348609D01*
X176768169Y-90348609D02*
X176815788Y-90300990D01*
X176815788Y-90300990D02*
X176911026Y-90253371D01*
X176911026Y-90253371D02*
X177149121Y-90253371D01*
X177149121Y-90253371D02*
X177244359Y-90300990D01*
X177244359Y-90300990D02*
X177291978Y-90348609D01*
X177291978Y-90348609D02*
X177339597Y-90443847D01*
X177339597Y-90443847D02*
X177339597Y-90681942D01*
X177339597Y-90681942D02*
X177291978Y-90777180D01*
X177291978Y-90777180D02*
X177244359Y-90824800D01*
X177244359Y-90824800D02*
X177149121Y-90872419D01*
X177149121Y-90872419D02*
X176911026Y-90872419D01*
X176911026Y-90872419D02*
X176815788Y-90824800D01*
X176815788Y-90824800D02*
X176768169Y-90777180D01*
X177768169Y-90777180D02*
X177815788Y-90824800D01*
X177815788Y-90824800D02*
X177768169Y-90872419D01*
X177768169Y-90872419D02*
X177720550Y-90824800D01*
X177720550Y-90824800D02*
X177768169Y-90777180D01*
X177768169Y-90777180D02*
X177768169Y-90872419D01*
X178720549Y-89872419D02*
X178244359Y-89872419D01*
X178244359Y-89872419D02*
X178196740Y-90348609D01*
X178196740Y-90348609D02*
X178244359Y-90300990D01*
X178244359Y-90300990D02*
X178339597Y-90253371D01*
X178339597Y-90253371D02*
X178577692Y-90253371D01*
X178577692Y-90253371D02*
X178672930Y-90300990D01*
X178672930Y-90300990D02*
X178720549Y-90348609D01*
X178720549Y-90348609D02*
X178768168Y-90443847D01*
X178768168Y-90443847D02*
X178768168Y-90681942D01*
X178768168Y-90681942D02*
X178720549Y-90777180D01*
X178720549Y-90777180D02*
X178672930Y-90824800D01*
X178672930Y-90824800D02*
X178577692Y-90872419D01*
X178577692Y-90872419D02*
X178339597Y-90872419D01*
X178339597Y-90872419D02*
X178244359Y-90824800D01*
X178244359Y-90824800D02*
X178196740Y-90777180D01*
X179053883Y-89872419D02*
X179387216Y-90872419D01*
X179387216Y-90872419D02*
X179720549Y-89872419D01*
X172308646Y-103072419D02*
X172927693Y-103072419D01*
X172927693Y-103072419D02*
X172594360Y-103453371D01*
X172594360Y-103453371D02*
X172737217Y-103453371D01*
X172737217Y-103453371D02*
X172832455Y-103500990D01*
X172832455Y-103500990D02*
X172880074Y-103548609D01*
X172880074Y-103548609D02*
X172927693Y-103643847D01*
X172927693Y-103643847D02*
X172927693Y-103881942D01*
X172927693Y-103881942D02*
X172880074Y-103977180D01*
X172880074Y-103977180D02*
X172832455Y-104024800D01*
X172832455Y-104024800D02*
X172737217Y-104072419D01*
X172737217Y-104072419D02*
X172451503Y-104072419D01*
X172451503Y-104072419D02*
X172356265Y-104024800D01*
X172356265Y-104024800D02*
X172308646Y-103977180D01*
X173356265Y-103977180D02*
X173403884Y-104024800D01*
X173403884Y-104024800D02*
X173356265Y-104072419D01*
X173356265Y-104072419D02*
X173308646Y-104024800D01*
X173308646Y-104024800D02*
X173356265Y-103977180D01*
X173356265Y-103977180D02*
X173356265Y-104072419D01*
X173737217Y-103072419D02*
X174356264Y-103072419D01*
X174356264Y-103072419D02*
X174022931Y-103453371D01*
X174022931Y-103453371D02*
X174165788Y-103453371D01*
X174165788Y-103453371D02*
X174261026Y-103500990D01*
X174261026Y-103500990D02*
X174308645Y-103548609D01*
X174308645Y-103548609D02*
X174356264Y-103643847D01*
X174356264Y-103643847D02*
X174356264Y-103881942D01*
X174356264Y-103881942D02*
X174308645Y-103977180D01*
X174308645Y-103977180D02*
X174261026Y-104024800D01*
X174261026Y-104024800D02*
X174165788Y-104072419D01*
X174165788Y-104072419D02*
X173880074Y-104072419D01*
X173880074Y-104072419D02*
X173784836Y-104024800D01*
X173784836Y-104024800D02*
X173737217Y-103977180D01*
X174641979Y-103072419D02*
X174975312Y-104072419D01*
X174975312Y-104072419D02*
X175308645Y-103072419D01*
X175403884Y-104167657D02*
X176165788Y-104167657D01*
X176403884Y-104072419D02*
X176403884Y-103072419D01*
X176880074Y-104072419D02*
X176880074Y-103072419D01*
X176880074Y-103072419D02*
X177451502Y-104072419D01*
X177451502Y-104072419D02*
X177451502Y-103072419D01*
X173077693Y-81710038D02*
X172982455Y-81662419D01*
X172982455Y-81662419D02*
X172839598Y-81662419D01*
X172839598Y-81662419D02*
X172696741Y-81710038D01*
X172696741Y-81710038D02*
X172601503Y-81805276D01*
X172601503Y-81805276D02*
X172553884Y-81900514D01*
X172553884Y-81900514D02*
X172506265Y-82090990D01*
X172506265Y-82090990D02*
X172506265Y-82233847D01*
X172506265Y-82233847D02*
X172553884Y-82424323D01*
X172553884Y-82424323D02*
X172601503Y-82519561D01*
X172601503Y-82519561D02*
X172696741Y-82614800D01*
X172696741Y-82614800D02*
X172839598Y-82662419D01*
X172839598Y-82662419D02*
X172934836Y-82662419D01*
X172934836Y-82662419D02*
X173077693Y-82614800D01*
X173077693Y-82614800D02*
X173125312Y-82567180D01*
X173125312Y-82567180D02*
X173125312Y-82233847D01*
X173125312Y-82233847D02*
X172934836Y-82233847D01*
X173553884Y-82662419D02*
X173553884Y-81662419D01*
X173553884Y-81662419D02*
X174125312Y-82662419D01*
X174125312Y-82662419D02*
X174125312Y-81662419D01*
X174601503Y-82662419D02*
X174601503Y-81662419D01*
X174601503Y-81662419D02*
X174839598Y-81662419D01*
X174839598Y-81662419D02*
X174982455Y-81710038D01*
X174982455Y-81710038D02*
X175077693Y-81805276D01*
X175077693Y-81805276D02*
X175125312Y-81900514D01*
X175125312Y-81900514D02*
X175172931Y-82090990D01*
X175172931Y-82090990D02*
X175172931Y-82233847D01*
X175172931Y-82233847D02*
X175125312Y-82424323D01*
X175125312Y-82424323D02*
X175077693Y-82519561D01*
X175077693Y-82519561D02*
X174982455Y-82614800D01*
X174982455Y-82614800D02*
X174839598Y-82662419D01*
X174839598Y-82662419D02*
X174601503Y-82662419D01*
X172761027Y-56172419D02*
X173094360Y-57172419D01*
X173094360Y-57172419D02*
X173427693Y-56172419D01*
X173761027Y-57172419D02*
X173761027Y-56172419D01*
X174237217Y-57172419D02*
X174237217Y-56172419D01*
X174237217Y-56172419D02*
X174808645Y-57172419D01*
X174808645Y-57172419D02*
X174808645Y-56172419D01*
X173427693Y-94820038D02*
X173332455Y-94772419D01*
X173332455Y-94772419D02*
X173189598Y-94772419D01*
X173189598Y-94772419D02*
X173046741Y-94820038D01*
X173046741Y-94820038D02*
X172951503Y-94915276D01*
X172951503Y-94915276D02*
X172903884Y-95010514D01*
X172903884Y-95010514D02*
X172856265Y-95200990D01*
X172856265Y-95200990D02*
X172856265Y-95343847D01*
X172856265Y-95343847D02*
X172903884Y-95534323D01*
X172903884Y-95534323D02*
X172951503Y-95629561D01*
X172951503Y-95629561D02*
X173046741Y-95724800D01*
X173046741Y-95724800D02*
X173189598Y-95772419D01*
X173189598Y-95772419D02*
X173284836Y-95772419D01*
X173284836Y-95772419D02*
X173427693Y-95724800D01*
X173427693Y-95724800D02*
X173475312Y-95677180D01*
X173475312Y-95677180D02*
X173475312Y-95343847D01*
X173475312Y-95343847D02*
X173284836Y-95343847D01*
X173903884Y-95772419D02*
X173903884Y-94772419D01*
X173903884Y-94772419D02*
X174475312Y-95772419D01*
X174475312Y-95772419D02*
X174475312Y-94772419D01*
X174951503Y-95772419D02*
X174951503Y-94772419D01*
X174951503Y-94772419D02*
X175189598Y-94772419D01*
X175189598Y-94772419D02*
X175332455Y-94820038D01*
X175332455Y-94820038D02*
X175427693Y-94915276D01*
X175427693Y-94915276D02*
X175475312Y-95010514D01*
X175475312Y-95010514D02*
X175522931Y-95200990D01*
X175522931Y-95200990D02*
X175522931Y-95343847D01*
X175522931Y-95343847D02*
X175475312Y-95534323D01*
X175475312Y-95534323D02*
X175427693Y-95629561D01*
X175427693Y-95629561D02*
X175332455Y-95724800D01*
X175332455Y-95724800D02*
X175189598Y-95772419D01*
X175189598Y-95772419D02*
X174951503Y-95772419D01*
X173008646Y-73272419D02*
X173627693Y-73272419D01*
X173627693Y-73272419D02*
X173294360Y-73653371D01*
X173294360Y-73653371D02*
X173437217Y-73653371D01*
X173437217Y-73653371D02*
X173532455Y-73700990D01*
X173532455Y-73700990D02*
X173580074Y-73748609D01*
X173580074Y-73748609D02*
X173627693Y-73843847D01*
X173627693Y-73843847D02*
X173627693Y-74081942D01*
X173627693Y-74081942D02*
X173580074Y-74177180D01*
X173580074Y-74177180D02*
X173532455Y-74224800D01*
X173532455Y-74224800D02*
X173437217Y-74272419D01*
X173437217Y-74272419D02*
X173151503Y-74272419D01*
X173151503Y-74272419D02*
X173056265Y-74224800D01*
X173056265Y-74224800D02*
X173008646Y-74177180D01*
X174056265Y-74177180D02*
X174103884Y-74224800D01*
X174103884Y-74224800D02*
X174056265Y-74272419D01*
X174056265Y-74272419D02*
X174008646Y-74224800D01*
X174008646Y-74224800D02*
X174056265Y-74177180D01*
X174056265Y-74177180D02*
X174056265Y-74272419D01*
X174437217Y-73272419D02*
X175056264Y-73272419D01*
X175056264Y-73272419D02*
X174722931Y-73653371D01*
X174722931Y-73653371D02*
X174865788Y-73653371D01*
X174865788Y-73653371D02*
X174961026Y-73700990D01*
X174961026Y-73700990D02*
X175008645Y-73748609D01*
X175008645Y-73748609D02*
X175056264Y-73843847D01*
X175056264Y-73843847D02*
X175056264Y-74081942D01*
X175056264Y-74081942D02*
X175008645Y-74177180D01*
X175008645Y-74177180D02*
X174961026Y-74224800D01*
X174961026Y-74224800D02*
X174865788Y-74272419D01*
X174865788Y-74272419D02*
X174580074Y-74272419D01*
X174580074Y-74272419D02*
X174484836Y-74224800D01*
X174484836Y-74224800D02*
X174437217Y-74177180D01*
X175341979Y-73272419D02*
X175675312Y-74272419D01*
X175675312Y-74272419D02*
X176008645Y-73272419D01*
X186527693Y-56320038D02*
X186432455Y-56272419D01*
X186432455Y-56272419D02*
X186289598Y-56272419D01*
X186289598Y-56272419D02*
X186146741Y-56320038D01*
X186146741Y-56320038D02*
X186051503Y-56415276D01*
X186051503Y-56415276D02*
X186003884Y-56510514D01*
X186003884Y-56510514D02*
X185956265Y-56700990D01*
X185956265Y-56700990D02*
X185956265Y-56843847D01*
X185956265Y-56843847D02*
X186003884Y-57034323D01*
X186003884Y-57034323D02*
X186051503Y-57129561D01*
X186051503Y-57129561D02*
X186146741Y-57224800D01*
X186146741Y-57224800D02*
X186289598Y-57272419D01*
X186289598Y-57272419D02*
X186384836Y-57272419D01*
X186384836Y-57272419D02*
X186527693Y-57224800D01*
X186527693Y-57224800D02*
X186575312Y-57177180D01*
X186575312Y-57177180D02*
X186575312Y-56843847D01*
X186575312Y-56843847D02*
X186384836Y-56843847D01*
X187003884Y-57272419D02*
X187003884Y-56272419D01*
X187003884Y-56272419D02*
X187575312Y-57272419D01*
X187575312Y-57272419D02*
X187575312Y-56272419D01*
X188051503Y-57272419D02*
X188051503Y-56272419D01*
X188051503Y-56272419D02*
X188289598Y-56272419D01*
X188289598Y-56272419D02*
X188432455Y-56320038D01*
X188432455Y-56320038D02*
X188527693Y-56415276D01*
X188527693Y-56415276D02*
X188575312Y-56510514D01*
X188575312Y-56510514D02*
X188622931Y-56700990D01*
X188622931Y-56700990D02*
X188622931Y-56843847D01*
X188622931Y-56843847D02*
X188575312Y-57034323D01*
X188575312Y-57034323D02*
X188527693Y-57129561D01*
X188527693Y-57129561D02*
X188432455Y-57224800D01*
X188432455Y-57224800D02*
X188289598Y-57272419D01*
X188289598Y-57272419D02*
X188051503Y-57272419D01*
X186527693Y-73220038D02*
X186432455Y-73172419D01*
X186432455Y-73172419D02*
X186289598Y-73172419D01*
X186289598Y-73172419D02*
X186146741Y-73220038D01*
X186146741Y-73220038D02*
X186051503Y-73315276D01*
X186051503Y-73315276D02*
X186003884Y-73410514D01*
X186003884Y-73410514D02*
X185956265Y-73600990D01*
X185956265Y-73600990D02*
X185956265Y-73743847D01*
X185956265Y-73743847D02*
X186003884Y-73934323D01*
X186003884Y-73934323D02*
X186051503Y-74029561D01*
X186051503Y-74029561D02*
X186146741Y-74124800D01*
X186146741Y-74124800D02*
X186289598Y-74172419D01*
X186289598Y-74172419D02*
X186384836Y-74172419D01*
X186384836Y-74172419D02*
X186527693Y-74124800D01*
X186527693Y-74124800D02*
X186575312Y-74077180D01*
X186575312Y-74077180D02*
X186575312Y-73743847D01*
X186575312Y-73743847D02*
X186384836Y-73743847D01*
X187003884Y-74172419D02*
X187003884Y-73172419D01*
X187003884Y-73172419D02*
X187575312Y-74172419D01*
X187575312Y-74172419D02*
X187575312Y-73172419D01*
X188051503Y-74172419D02*
X188051503Y-73172419D01*
X188051503Y-73172419D02*
X188289598Y-73172419D01*
X188289598Y-73172419D02*
X188432455Y-73220038D01*
X188432455Y-73220038D02*
X188527693Y-73315276D01*
X188527693Y-73315276D02*
X188575312Y-73410514D01*
X188575312Y-73410514D02*
X188622931Y-73600990D01*
X188622931Y-73600990D02*
X188622931Y-73743847D01*
X188622931Y-73743847D02*
X188575312Y-73934323D01*
X188575312Y-73934323D02*
X188527693Y-74029561D01*
X188527693Y-74029561D02*
X188432455Y-74124800D01*
X188432455Y-74124800D02*
X188289598Y-74172419D01*
X188289598Y-74172419D02*
X188051503Y-74172419D01*
X215758646Y-91172419D02*
X216377693Y-91172419D01*
X216377693Y-91172419D02*
X216044360Y-91553371D01*
X216044360Y-91553371D02*
X216187217Y-91553371D01*
X216187217Y-91553371D02*
X216282455Y-91600990D01*
X216282455Y-91600990D02*
X216330074Y-91648609D01*
X216330074Y-91648609D02*
X216377693Y-91743847D01*
X216377693Y-91743847D02*
X216377693Y-91981942D01*
X216377693Y-91981942D02*
X216330074Y-92077180D01*
X216330074Y-92077180D02*
X216282455Y-92124800D01*
X216282455Y-92124800D02*
X216187217Y-92172419D01*
X216187217Y-92172419D02*
X215901503Y-92172419D01*
X215901503Y-92172419D02*
X215806265Y-92124800D01*
X215806265Y-92124800D02*
X215758646Y-92077180D01*
X216806265Y-92077180D02*
X216853884Y-92124800D01*
X216853884Y-92124800D02*
X216806265Y-92172419D01*
X216806265Y-92172419D02*
X216758646Y-92124800D01*
X216758646Y-92124800D02*
X216806265Y-92077180D01*
X216806265Y-92077180D02*
X216806265Y-92172419D01*
X217187217Y-91172419D02*
X217806264Y-91172419D01*
X217806264Y-91172419D02*
X217472931Y-91553371D01*
X217472931Y-91553371D02*
X217615788Y-91553371D01*
X217615788Y-91553371D02*
X217711026Y-91600990D01*
X217711026Y-91600990D02*
X217758645Y-91648609D01*
X217758645Y-91648609D02*
X217806264Y-91743847D01*
X217806264Y-91743847D02*
X217806264Y-91981942D01*
X217806264Y-91981942D02*
X217758645Y-92077180D01*
X217758645Y-92077180D02*
X217711026Y-92124800D01*
X217711026Y-92124800D02*
X217615788Y-92172419D01*
X217615788Y-92172419D02*
X217330074Y-92172419D01*
X217330074Y-92172419D02*
X217234836Y-92124800D01*
X217234836Y-92124800D02*
X217187217Y-92077180D01*
X218091979Y-91172419D02*
X218425312Y-92172419D01*
X218425312Y-92172419D02*
X218758645Y-91172419D01*
X216108646Y-76472419D02*
X216727693Y-76472419D01*
X216727693Y-76472419D02*
X216394360Y-76853371D01*
X216394360Y-76853371D02*
X216537217Y-76853371D01*
X216537217Y-76853371D02*
X216632455Y-76900990D01*
X216632455Y-76900990D02*
X216680074Y-76948609D01*
X216680074Y-76948609D02*
X216727693Y-77043847D01*
X216727693Y-77043847D02*
X216727693Y-77281942D01*
X216727693Y-77281942D02*
X216680074Y-77377180D01*
X216680074Y-77377180D02*
X216632455Y-77424800D01*
X216632455Y-77424800D02*
X216537217Y-77472419D01*
X216537217Y-77472419D02*
X216251503Y-77472419D01*
X216251503Y-77472419D02*
X216156265Y-77424800D01*
X216156265Y-77424800D02*
X216108646Y-77377180D01*
X217156265Y-77377180D02*
X217203884Y-77424800D01*
X217203884Y-77424800D02*
X217156265Y-77472419D01*
X217156265Y-77472419D02*
X217108646Y-77424800D01*
X217108646Y-77424800D02*
X217156265Y-77377180D01*
X217156265Y-77377180D02*
X217156265Y-77472419D01*
X217537217Y-76472419D02*
X218156264Y-76472419D01*
X218156264Y-76472419D02*
X217822931Y-76853371D01*
X217822931Y-76853371D02*
X217965788Y-76853371D01*
X217965788Y-76853371D02*
X218061026Y-76900990D01*
X218061026Y-76900990D02*
X218108645Y-76948609D01*
X218108645Y-76948609D02*
X218156264Y-77043847D01*
X218156264Y-77043847D02*
X218156264Y-77281942D01*
X218156264Y-77281942D02*
X218108645Y-77377180D01*
X218108645Y-77377180D02*
X218061026Y-77424800D01*
X218061026Y-77424800D02*
X217965788Y-77472419D01*
X217965788Y-77472419D02*
X217680074Y-77472419D01*
X217680074Y-77472419D02*
X217584836Y-77424800D01*
X217584836Y-77424800D02*
X217537217Y-77377180D01*
X218441979Y-76472419D02*
X218775312Y-77472419D01*
X218775312Y-77472419D02*
X219108645Y-76472419D01*
X216577693Y-78875038D02*
X216482455Y-78827419D01*
X216482455Y-78827419D02*
X216339598Y-78827419D01*
X216339598Y-78827419D02*
X216196741Y-78875038D01*
X216196741Y-78875038D02*
X216101503Y-78970276D01*
X216101503Y-78970276D02*
X216053884Y-79065514D01*
X216053884Y-79065514D02*
X216006265Y-79255990D01*
X216006265Y-79255990D02*
X216006265Y-79398847D01*
X216006265Y-79398847D02*
X216053884Y-79589323D01*
X216053884Y-79589323D02*
X216101503Y-79684561D01*
X216101503Y-79684561D02*
X216196741Y-79779800D01*
X216196741Y-79779800D02*
X216339598Y-79827419D01*
X216339598Y-79827419D02*
X216434836Y-79827419D01*
X216434836Y-79827419D02*
X216577693Y-79779800D01*
X216577693Y-79779800D02*
X216625312Y-79732180D01*
X216625312Y-79732180D02*
X216625312Y-79398847D01*
X216625312Y-79398847D02*
X216434836Y-79398847D01*
X217053884Y-79827419D02*
X217053884Y-78827419D01*
X217053884Y-78827419D02*
X217625312Y-79827419D01*
X217625312Y-79827419D02*
X217625312Y-78827419D01*
X218101503Y-79827419D02*
X218101503Y-78827419D01*
X218101503Y-78827419D02*
X218339598Y-78827419D01*
X218339598Y-78827419D02*
X218482455Y-78875038D01*
X218482455Y-78875038D02*
X218577693Y-78970276D01*
X218577693Y-78970276D02*
X218625312Y-79065514D01*
X218625312Y-79065514D02*
X218672931Y-79255990D01*
X218672931Y-79255990D02*
X218672931Y-79398847D01*
X218672931Y-79398847D02*
X218625312Y-79589323D01*
X218625312Y-79589323D02*
X218577693Y-79684561D01*
X218577693Y-79684561D02*
X218482455Y-79779800D01*
X218482455Y-79779800D02*
X218339598Y-79827419D01*
X218339598Y-79827419D02*
X218101503Y-79827419D01*
X216006265Y-82779800D02*
X216149122Y-82827419D01*
X216149122Y-82827419D02*
X216387217Y-82827419D01*
X216387217Y-82827419D02*
X216482455Y-82779800D01*
X216482455Y-82779800D02*
X216530074Y-82732180D01*
X216530074Y-82732180D02*
X216577693Y-82636942D01*
X216577693Y-82636942D02*
X216577693Y-82541704D01*
X216577693Y-82541704D02*
X216530074Y-82446466D01*
X216530074Y-82446466D02*
X216482455Y-82398847D01*
X216482455Y-82398847D02*
X216387217Y-82351228D01*
X216387217Y-82351228D02*
X216196741Y-82303609D01*
X216196741Y-82303609D02*
X216101503Y-82255990D01*
X216101503Y-82255990D02*
X216053884Y-82208371D01*
X216053884Y-82208371D02*
X216006265Y-82113133D01*
X216006265Y-82113133D02*
X216006265Y-82017895D01*
X216006265Y-82017895D02*
X216053884Y-81922657D01*
X216053884Y-81922657D02*
X216101503Y-81875038D01*
X216101503Y-81875038D02*
X216196741Y-81827419D01*
X216196741Y-81827419D02*
X216434836Y-81827419D01*
X216434836Y-81827419D02*
X216577693Y-81875038D01*
X217006265Y-82827419D02*
X217006265Y-81827419D01*
X217006265Y-81827419D02*
X217244360Y-81827419D01*
X217244360Y-81827419D02*
X217387217Y-81875038D01*
X217387217Y-81875038D02*
X217482455Y-81970276D01*
X217482455Y-81970276D02*
X217530074Y-82065514D01*
X217530074Y-82065514D02*
X217577693Y-82255990D01*
X217577693Y-82255990D02*
X217577693Y-82398847D01*
X217577693Y-82398847D02*
X217530074Y-82589323D01*
X217530074Y-82589323D02*
X217482455Y-82684561D01*
X217482455Y-82684561D02*
X217387217Y-82779800D01*
X217387217Y-82779800D02*
X217244360Y-82827419D01*
X217244360Y-82827419D02*
X217006265Y-82827419D01*
X217958646Y-82541704D02*
X218434836Y-82541704D01*
X217863408Y-82827419D02*
X218196741Y-81827419D01*
X218196741Y-81827419D02*
X218530074Y-82827419D01*
X216006265Y-84824800D02*
X216149122Y-84872419D01*
X216149122Y-84872419D02*
X216387217Y-84872419D01*
X216387217Y-84872419D02*
X216482455Y-84824800D01*
X216482455Y-84824800D02*
X216530074Y-84777180D01*
X216530074Y-84777180D02*
X216577693Y-84681942D01*
X216577693Y-84681942D02*
X216577693Y-84586704D01*
X216577693Y-84586704D02*
X216530074Y-84491466D01*
X216530074Y-84491466D02*
X216482455Y-84443847D01*
X216482455Y-84443847D02*
X216387217Y-84396228D01*
X216387217Y-84396228D02*
X216196741Y-84348609D01*
X216196741Y-84348609D02*
X216101503Y-84300990D01*
X216101503Y-84300990D02*
X216053884Y-84253371D01*
X216053884Y-84253371D02*
X216006265Y-84158133D01*
X216006265Y-84158133D02*
X216006265Y-84062895D01*
X216006265Y-84062895D02*
X216053884Y-83967657D01*
X216053884Y-83967657D02*
X216101503Y-83920038D01*
X216101503Y-83920038D02*
X216196741Y-83872419D01*
X216196741Y-83872419D02*
X216434836Y-83872419D01*
X216434836Y-83872419D02*
X216577693Y-83920038D01*
X217577693Y-84777180D02*
X217530074Y-84824800D01*
X217530074Y-84824800D02*
X217387217Y-84872419D01*
X217387217Y-84872419D02*
X217291979Y-84872419D01*
X217291979Y-84872419D02*
X217149122Y-84824800D01*
X217149122Y-84824800D02*
X217053884Y-84729561D01*
X217053884Y-84729561D02*
X217006265Y-84634323D01*
X217006265Y-84634323D02*
X216958646Y-84443847D01*
X216958646Y-84443847D02*
X216958646Y-84300990D01*
X216958646Y-84300990D02*
X217006265Y-84110514D01*
X217006265Y-84110514D02*
X217053884Y-84015276D01*
X217053884Y-84015276D02*
X217149122Y-83920038D01*
X217149122Y-83920038D02*
X217291979Y-83872419D01*
X217291979Y-83872419D02*
X217387217Y-83872419D01*
X217387217Y-83872419D02*
X217530074Y-83920038D01*
X217530074Y-83920038D02*
X217577693Y-83967657D01*
X218482455Y-84872419D02*
X218006265Y-84872419D01*
X218006265Y-84872419D02*
X218006265Y-83872419D01*
X216577693Y-93670038D02*
X216482455Y-93622419D01*
X216482455Y-93622419D02*
X216339598Y-93622419D01*
X216339598Y-93622419D02*
X216196741Y-93670038D01*
X216196741Y-93670038D02*
X216101503Y-93765276D01*
X216101503Y-93765276D02*
X216053884Y-93860514D01*
X216053884Y-93860514D02*
X216006265Y-94050990D01*
X216006265Y-94050990D02*
X216006265Y-94193847D01*
X216006265Y-94193847D02*
X216053884Y-94384323D01*
X216053884Y-94384323D02*
X216101503Y-94479561D01*
X216101503Y-94479561D02*
X216196741Y-94574800D01*
X216196741Y-94574800D02*
X216339598Y-94622419D01*
X216339598Y-94622419D02*
X216434836Y-94622419D01*
X216434836Y-94622419D02*
X216577693Y-94574800D01*
X216577693Y-94574800D02*
X216625312Y-94527180D01*
X216625312Y-94527180D02*
X216625312Y-94193847D01*
X216625312Y-94193847D02*
X216434836Y-94193847D01*
X217053884Y-94622419D02*
X217053884Y-93622419D01*
X217053884Y-93622419D02*
X217625312Y-94622419D01*
X217625312Y-94622419D02*
X217625312Y-93622419D01*
X218101503Y-94622419D02*
X218101503Y-93622419D01*
X218101503Y-93622419D02*
X218339598Y-93622419D01*
X218339598Y-93622419D02*
X218482455Y-93670038D01*
X218482455Y-93670038D02*
X218577693Y-93765276D01*
X218577693Y-93765276D02*
X218625312Y-93860514D01*
X218625312Y-93860514D02*
X218672931Y-94050990D01*
X218672931Y-94050990D02*
X218672931Y-94193847D01*
X218672931Y-94193847D02*
X218625312Y-94384323D01*
X218625312Y-94384323D02*
X218577693Y-94479561D01*
X218577693Y-94479561D02*
X218482455Y-94574800D01*
X218482455Y-94574800D02*
X218339598Y-94622419D01*
X218339598Y-94622419D02*
X218101503Y-94622419D01*
X215958646Y-103667419D02*
X216577693Y-103667419D01*
X216577693Y-103667419D02*
X216244360Y-104048371D01*
X216244360Y-104048371D02*
X216387217Y-104048371D01*
X216387217Y-104048371D02*
X216482455Y-104095990D01*
X216482455Y-104095990D02*
X216530074Y-104143609D01*
X216530074Y-104143609D02*
X216577693Y-104238847D01*
X216577693Y-104238847D02*
X216577693Y-104476942D01*
X216577693Y-104476942D02*
X216530074Y-104572180D01*
X216530074Y-104572180D02*
X216482455Y-104619800D01*
X216482455Y-104619800D02*
X216387217Y-104667419D01*
X216387217Y-104667419D02*
X216101503Y-104667419D01*
X216101503Y-104667419D02*
X216006265Y-104619800D01*
X216006265Y-104619800D02*
X215958646Y-104572180D01*
X217006265Y-104572180D02*
X217053884Y-104619800D01*
X217053884Y-104619800D02*
X217006265Y-104667419D01*
X217006265Y-104667419D02*
X216958646Y-104619800D01*
X216958646Y-104619800D02*
X217006265Y-104572180D01*
X217006265Y-104572180D02*
X217006265Y-104667419D01*
X217387217Y-103667419D02*
X218006264Y-103667419D01*
X218006264Y-103667419D02*
X217672931Y-104048371D01*
X217672931Y-104048371D02*
X217815788Y-104048371D01*
X217815788Y-104048371D02*
X217911026Y-104095990D01*
X217911026Y-104095990D02*
X217958645Y-104143609D01*
X217958645Y-104143609D02*
X218006264Y-104238847D01*
X218006264Y-104238847D02*
X218006264Y-104476942D01*
X218006264Y-104476942D02*
X217958645Y-104572180D01*
X217958645Y-104572180D02*
X217911026Y-104619800D01*
X217911026Y-104619800D02*
X217815788Y-104667419D01*
X217815788Y-104667419D02*
X217530074Y-104667419D01*
X217530074Y-104667419D02*
X217434836Y-104619800D01*
X217434836Y-104619800D02*
X217387217Y-104572180D01*
X218291979Y-103667419D02*
X218625312Y-104667419D01*
X218625312Y-104667419D02*
X218958645Y-103667419D01*
X216577693Y-106170038D02*
X216482455Y-106122419D01*
X216482455Y-106122419D02*
X216339598Y-106122419D01*
X216339598Y-106122419D02*
X216196741Y-106170038D01*
X216196741Y-106170038D02*
X216101503Y-106265276D01*
X216101503Y-106265276D02*
X216053884Y-106360514D01*
X216053884Y-106360514D02*
X216006265Y-106550990D01*
X216006265Y-106550990D02*
X216006265Y-106693847D01*
X216006265Y-106693847D02*
X216053884Y-106884323D01*
X216053884Y-106884323D02*
X216101503Y-106979561D01*
X216101503Y-106979561D02*
X216196741Y-107074800D01*
X216196741Y-107074800D02*
X216339598Y-107122419D01*
X216339598Y-107122419D02*
X216434836Y-107122419D01*
X216434836Y-107122419D02*
X216577693Y-107074800D01*
X216577693Y-107074800D02*
X216625312Y-107027180D01*
X216625312Y-107027180D02*
X216625312Y-106693847D01*
X216625312Y-106693847D02*
X216434836Y-106693847D01*
X217053884Y-107122419D02*
X217053884Y-106122419D01*
X217053884Y-106122419D02*
X217625312Y-107122419D01*
X217625312Y-107122419D02*
X217625312Y-106122419D01*
X218101503Y-107122419D02*
X218101503Y-106122419D01*
X218101503Y-106122419D02*
X218339598Y-106122419D01*
X218339598Y-106122419D02*
X218482455Y-106170038D01*
X218482455Y-106170038D02*
X218577693Y-106265276D01*
X218577693Y-106265276D02*
X218625312Y-106360514D01*
X218625312Y-106360514D02*
X218672931Y-106550990D01*
X218672931Y-106550990D02*
X218672931Y-106693847D01*
X218672931Y-106693847D02*
X218625312Y-106884323D01*
X218625312Y-106884323D02*
X218577693Y-106979561D01*
X218577693Y-106979561D02*
X218482455Y-107074800D01*
X218482455Y-107074800D02*
X218339598Y-107122419D01*
X218339598Y-107122419D02*
X218101503Y-107122419D01*
X216006265Y-110074800D02*
X216149122Y-110122419D01*
X216149122Y-110122419D02*
X216387217Y-110122419D01*
X216387217Y-110122419D02*
X216482455Y-110074800D01*
X216482455Y-110074800D02*
X216530074Y-110027180D01*
X216530074Y-110027180D02*
X216577693Y-109931942D01*
X216577693Y-109931942D02*
X216577693Y-109836704D01*
X216577693Y-109836704D02*
X216530074Y-109741466D01*
X216530074Y-109741466D02*
X216482455Y-109693847D01*
X216482455Y-109693847D02*
X216387217Y-109646228D01*
X216387217Y-109646228D02*
X216196741Y-109598609D01*
X216196741Y-109598609D02*
X216101503Y-109550990D01*
X216101503Y-109550990D02*
X216053884Y-109503371D01*
X216053884Y-109503371D02*
X216006265Y-109408133D01*
X216006265Y-109408133D02*
X216006265Y-109312895D01*
X216006265Y-109312895D02*
X216053884Y-109217657D01*
X216053884Y-109217657D02*
X216101503Y-109170038D01*
X216101503Y-109170038D02*
X216196741Y-109122419D01*
X216196741Y-109122419D02*
X216434836Y-109122419D01*
X216434836Y-109122419D02*
X216577693Y-109170038D01*
X217006265Y-110122419D02*
X217006265Y-109122419D01*
X217006265Y-109122419D02*
X217244360Y-109122419D01*
X217244360Y-109122419D02*
X217387217Y-109170038D01*
X217387217Y-109170038D02*
X217482455Y-109265276D01*
X217482455Y-109265276D02*
X217530074Y-109360514D01*
X217530074Y-109360514D02*
X217577693Y-109550990D01*
X217577693Y-109550990D02*
X217577693Y-109693847D01*
X217577693Y-109693847D02*
X217530074Y-109884323D01*
X217530074Y-109884323D02*
X217482455Y-109979561D01*
X217482455Y-109979561D02*
X217387217Y-110074800D01*
X217387217Y-110074800D02*
X217244360Y-110122419D01*
X217244360Y-110122419D02*
X217006265Y-110122419D01*
X217958646Y-109836704D02*
X218434836Y-109836704D01*
X217863408Y-110122419D02*
X218196741Y-109122419D01*
X218196741Y-109122419D02*
X218530074Y-110122419D01*
X216006265Y-112119800D02*
X216149122Y-112167419D01*
X216149122Y-112167419D02*
X216387217Y-112167419D01*
X216387217Y-112167419D02*
X216482455Y-112119800D01*
X216482455Y-112119800D02*
X216530074Y-112072180D01*
X216530074Y-112072180D02*
X216577693Y-111976942D01*
X216577693Y-111976942D02*
X216577693Y-111881704D01*
X216577693Y-111881704D02*
X216530074Y-111786466D01*
X216530074Y-111786466D02*
X216482455Y-111738847D01*
X216482455Y-111738847D02*
X216387217Y-111691228D01*
X216387217Y-111691228D02*
X216196741Y-111643609D01*
X216196741Y-111643609D02*
X216101503Y-111595990D01*
X216101503Y-111595990D02*
X216053884Y-111548371D01*
X216053884Y-111548371D02*
X216006265Y-111453133D01*
X216006265Y-111453133D02*
X216006265Y-111357895D01*
X216006265Y-111357895D02*
X216053884Y-111262657D01*
X216053884Y-111262657D02*
X216101503Y-111215038D01*
X216101503Y-111215038D02*
X216196741Y-111167419D01*
X216196741Y-111167419D02*
X216434836Y-111167419D01*
X216434836Y-111167419D02*
X216577693Y-111215038D01*
X217577693Y-112072180D02*
X217530074Y-112119800D01*
X217530074Y-112119800D02*
X217387217Y-112167419D01*
X217387217Y-112167419D02*
X217291979Y-112167419D01*
X217291979Y-112167419D02*
X217149122Y-112119800D01*
X217149122Y-112119800D02*
X217053884Y-112024561D01*
X217053884Y-112024561D02*
X217006265Y-111929323D01*
X217006265Y-111929323D02*
X216958646Y-111738847D01*
X216958646Y-111738847D02*
X216958646Y-111595990D01*
X216958646Y-111595990D02*
X217006265Y-111405514D01*
X217006265Y-111405514D02*
X217053884Y-111310276D01*
X217053884Y-111310276D02*
X217149122Y-111215038D01*
X217149122Y-111215038D02*
X217291979Y-111167419D01*
X217291979Y-111167419D02*
X217387217Y-111167419D01*
X217387217Y-111167419D02*
X217530074Y-111215038D01*
X217530074Y-111215038D02*
X217577693Y-111262657D01*
X218482455Y-112167419D02*
X218006265Y-112167419D01*
X218006265Y-112167419D02*
X218006265Y-111167419D01*
X216853884Y-96922419D02*
X216853884Y-95922419D01*
X216853884Y-95922419D02*
X217091979Y-95922419D01*
X217091979Y-95922419D02*
X217234836Y-95970038D01*
X217234836Y-95970038D02*
X217330074Y-96065276D01*
X217330074Y-96065276D02*
X217377693Y-96160514D01*
X217377693Y-96160514D02*
X217425312Y-96350990D01*
X217425312Y-96350990D02*
X217425312Y-96493847D01*
X217425312Y-96493847D02*
X217377693Y-96684323D01*
X217377693Y-96684323D02*
X217330074Y-96779561D01*
X217330074Y-96779561D02*
X217234836Y-96874800D01*
X217234836Y-96874800D02*
X217091979Y-96922419D01*
X217091979Y-96922419D02*
X216853884Y-96922419D01*
X218377693Y-96922419D02*
X217806265Y-96922419D01*
X218091979Y-96922419D02*
X218091979Y-95922419D01*
X218091979Y-95922419D02*
X217996741Y-96065276D01*
X217996741Y-96065276D02*
X217901503Y-96160514D01*
X217901503Y-96160514D02*
X217806265Y-96208133D01*
X219208646Y-60977419D02*
X219827693Y-60977419D01*
X219827693Y-60977419D02*
X219494360Y-61358371D01*
X219494360Y-61358371D02*
X219637217Y-61358371D01*
X219637217Y-61358371D02*
X219732455Y-61405990D01*
X219732455Y-61405990D02*
X219780074Y-61453609D01*
X219780074Y-61453609D02*
X219827693Y-61548847D01*
X219827693Y-61548847D02*
X219827693Y-61786942D01*
X219827693Y-61786942D02*
X219780074Y-61882180D01*
X219780074Y-61882180D02*
X219732455Y-61929800D01*
X219732455Y-61929800D02*
X219637217Y-61977419D01*
X219637217Y-61977419D02*
X219351503Y-61977419D01*
X219351503Y-61977419D02*
X219256265Y-61929800D01*
X219256265Y-61929800D02*
X219208646Y-61882180D01*
X220256265Y-61882180D02*
X220303884Y-61929800D01*
X220303884Y-61929800D02*
X220256265Y-61977419D01*
X220256265Y-61977419D02*
X220208646Y-61929800D01*
X220208646Y-61929800D02*
X220256265Y-61882180D01*
X220256265Y-61882180D02*
X220256265Y-61977419D01*
X220637217Y-60977419D02*
X221256264Y-60977419D01*
X221256264Y-60977419D02*
X220922931Y-61358371D01*
X220922931Y-61358371D02*
X221065788Y-61358371D01*
X221065788Y-61358371D02*
X221161026Y-61405990D01*
X221161026Y-61405990D02*
X221208645Y-61453609D01*
X221208645Y-61453609D02*
X221256264Y-61548847D01*
X221256264Y-61548847D02*
X221256264Y-61786942D01*
X221256264Y-61786942D02*
X221208645Y-61882180D01*
X221208645Y-61882180D02*
X221161026Y-61929800D01*
X221161026Y-61929800D02*
X221065788Y-61977419D01*
X221065788Y-61977419D02*
X220780074Y-61977419D01*
X220780074Y-61977419D02*
X220684836Y-61929800D01*
X220684836Y-61929800D02*
X220637217Y-61882180D01*
X221541979Y-60977419D02*
X221875312Y-61977419D01*
X221875312Y-61977419D02*
X222208645Y-60977419D01*
X219303884Y-66622419D02*
X219303884Y-65622419D01*
X219303884Y-65622419D02*
X219541979Y-65622419D01*
X219541979Y-65622419D02*
X219684836Y-65670038D01*
X219684836Y-65670038D02*
X219780074Y-65765276D01*
X219780074Y-65765276D02*
X219827693Y-65860514D01*
X219827693Y-65860514D02*
X219875312Y-66050990D01*
X219875312Y-66050990D02*
X219875312Y-66193847D01*
X219875312Y-66193847D02*
X219827693Y-66384323D01*
X219827693Y-66384323D02*
X219780074Y-66479561D01*
X219780074Y-66479561D02*
X219684836Y-66574800D01*
X219684836Y-66574800D02*
X219541979Y-66622419D01*
X219541979Y-66622419D02*
X219303884Y-66622419D01*
X220780074Y-65622419D02*
X220303884Y-65622419D01*
X220303884Y-65622419D02*
X220256265Y-66098609D01*
X220256265Y-66098609D02*
X220303884Y-66050990D01*
X220303884Y-66050990D02*
X220399122Y-66003371D01*
X220399122Y-66003371D02*
X220637217Y-66003371D01*
X220637217Y-66003371D02*
X220732455Y-66050990D01*
X220732455Y-66050990D02*
X220780074Y-66098609D01*
X220780074Y-66098609D02*
X220827693Y-66193847D01*
X220827693Y-66193847D02*
X220827693Y-66431942D01*
X220827693Y-66431942D02*
X220780074Y-66527180D01*
X220780074Y-66527180D02*
X220732455Y-66574800D01*
X220732455Y-66574800D02*
X220637217Y-66622419D01*
X220637217Y-66622419D02*
X220399122Y-66622419D01*
X220399122Y-66622419D02*
X220303884Y-66574800D01*
X220303884Y-66574800D02*
X220256265Y-66527180D01*
X220077693Y-58170038D02*
X219982455Y-58122419D01*
X219982455Y-58122419D02*
X219839598Y-58122419D01*
X219839598Y-58122419D02*
X219696741Y-58170038D01*
X219696741Y-58170038D02*
X219601503Y-58265276D01*
X219601503Y-58265276D02*
X219553884Y-58360514D01*
X219553884Y-58360514D02*
X219506265Y-58550990D01*
X219506265Y-58550990D02*
X219506265Y-58693847D01*
X219506265Y-58693847D02*
X219553884Y-58884323D01*
X219553884Y-58884323D02*
X219601503Y-58979561D01*
X219601503Y-58979561D02*
X219696741Y-59074800D01*
X219696741Y-59074800D02*
X219839598Y-59122419D01*
X219839598Y-59122419D02*
X219934836Y-59122419D01*
X219934836Y-59122419D02*
X220077693Y-59074800D01*
X220077693Y-59074800D02*
X220125312Y-59027180D01*
X220125312Y-59027180D02*
X220125312Y-58693847D01*
X220125312Y-58693847D02*
X219934836Y-58693847D01*
X220553884Y-59122419D02*
X220553884Y-58122419D01*
X220553884Y-58122419D02*
X221125312Y-59122419D01*
X221125312Y-59122419D02*
X221125312Y-58122419D01*
X221601503Y-59122419D02*
X221601503Y-58122419D01*
X221601503Y-58122419D02*
X221839598Y-58122419D01*
X221839598Y-58122419D02*
X221982455Y-58170038D01*
X221982455Y-58170038D02*
X222077693Y-58265276D01*
X222077693Y-58265276D02*
X222125312Y-58360514D01*
X222125312Y-58360514D02*
X222172931Y-58550990D01*
X222172931Y-58550990D02*
X222172931Y-58693847D01*
X222172931Y-58693847D02*
X222125312Y-58884323D01*
X222125312Y-58884323D02*
X222077693Y-58979561D01*
X222077693Y-58979561D02*
X221982455Y-59074800D01*
X221982455Y-59074800D02*
X221839598Y-59122419D01*
X221839598Y-59122419D02*
X221601503Y-59122419D01*
X219553884Y-63872419D02*
X219553884Y-62872419D01*
X219553884Y-62872419D02*
X219791979Y-62872419D01*
X219791979Y-62872419D02*
X219934836Y-62920038D01*
X219934836Y-62920038D02*
X220030074Y-63015276D01*
X220030074Y-63015276D02*
X220077693Y-63110514D01*
X220077693Y-63110514D02*
X220125312Y-63300990D01*
X220125312Y-63300990D02*
X220125312Y-63443847D01*
X220125312Y-63443847D02*
X220077693Y-63634323D01*
X220077693Y-63634323D02*
X220030074Y-63729561D01*
X220030074Y-63729561D02*
X219934836Y-63824800D01*
X219934836Y-63824800D02*
X219791979Y-63872419D01*
X219791979Y-63872419D02*
X219553884Y-63872419D01*
X220982455Y-63205752D02*
X220982455Y-63872419D01*
X220744360Y-62824800D02*
X220506265Y-63539085D01*
X220506265Y-63539085D02*
X221125312Y-63539085D01*
X176907143Y-64522419D02*
X177478571Y-64522419D01*
X177192857Y-65522419D02*
X177192857Y-64522419D01*
X177811905Y-65522419D02*
X177811905Y-64522419D01*
X177811905Y-64522419D02*
X178192857Y-64522419D01*
X178192857Y-64522419D02*
X178288095Y-64570038D01*
X178288095Y-64570038D02*
X178335714Y-64617657D01*
X178335714Y-64617657D02*
X178383333Y-64712895D01*
X178383333Y-64712895D02*
X178383333Y-64855752D01*
X178383333Y-64855752D02*
X178335714Y-64950990D01*
X178335714Y-64950990D02*
X178288095Y-64998609D01*
X178288095Y-64998609D02*
X178192857Y-65046228D01*
X178192857Y-65046228D02*
X177811905Y-65046228D01*
X178764286Y-65474800D02*
X178907143Y-65522419D01*
X178907143Y-65522419D02*
X179145238Y-65522419D01*
X179145238Y-65522419D02*
X179240476Y-65474800D01*
X179240476Y-65474800D02*
X179288095Y-65427180D01*
X179288095Y-65427180D02*
X179335714Y-65331942D01*
X179335714Y-65331942D02*
X179335714Y-65236704D01*
X179335714Y-65236704D02*
X179288095Y-65141466D01*
X179288095Y-65141466D02*
X179240476Y-65093847D01*
X179240476Y-65093847D02*
X179145238Y-65046228D01*
X179145238Y-65046228D02*
X178954762Y-64998609D01*
X178954762Y-64998609D02*
X178859524Y-64950990D01*
X178859524Y-64950990D02*
X178811905Y-64903371D01*
X178811905Y-64903371D02*
X178764286Y-64808133D01*
X178764286Y-64808133D02*
X178764286Y-64712895D01*
X178764286Y-64712895D02*
X178811905Y-64617657D01*
X178811905Y-64617657D02*
X178859524Y-64570038D01*
X178859524Y-64570038D02*
X178954762Y-64522419D01*
X178954762Y-64522419D02*
X179192857Y-64522419D01*
X179192857Y-64522419D02*
X179335714Y-64570038D01*
X180192857Y-64522419D02*
X180002381Y-64522419D01*
X180002381Y-64522419D02*
X179907143Y-64570038D01*
X179907143Y-64570038D02*
X179859524Y-64617657D01*
X179859524Y-64617657D02*
X179764286Y-64760514D01*
X179764286Y-64760514D02*
X179716667Y-64950990D01*
X179716667Y-64950990D02*
X179716667Y-65331942D01*
X179716667Y-65331942D02*
X179764286Y-65427180D01*
X179764286Y-65427180D02*
X179811905Y-65474800D01*
X179811905Y-65474800D02*
X179907143Y-65522419D01*
X179907143Y-65522419D02*
X180097619Y-65522419D01*
X180097619Y-65522419D02*
X180192857Y-65474800D01*
X180192857Y-65474800D02*
X180240476Y-65427180D01*
X180240476Y-65427180D02*
X180288095Y-65331942D01*
X180288095Y-65331942D02*
X180288095Y-65093847D01*
X180288095Y-65093847D02*
X180240476Y-64998609D01*
X180240476Y-64998609D02*
X180192857Y-64950990D01*
X180192857Y-64950990D02*
X180097619Y-64903371D01*
X180097619Y-64903371D02*
X179907143Y-64903371D01*
X179907143Y-64903371D02*
X179811905Y-64950990D01*
X179811905Y-64950990D02*
X179764286Y-64998609D01*
X179764286Y-64998609D02*
X179716667Y-65093847D01*
X180621429Y-64522419D02*
X181240476Y-64522419D01*
X181240476Y-64522419D02*
X180907143Y-64903371D01*
X180907143Y-64903371D02*
X181050000Y-64903371D01*
X181050000Y-64903371D02*
X181145238Y-64950990D01*
X181145238Y-64950990D02*
X181192857Y-64998609D01*
X181192857Y-64998609D02*
X181240476Y-65093847D01*
X181240476Y-65093847D02*
X181240476Y-65331942D01*
X181240476Y-65331942D02*
X181192857Y-65427180D01*
X181192857Y-65427180D02*
X181145238Y-65474800D01*
X181145238Y-65474800D02*
X181050000Y-65522419D01*
X181050000Y-65522419D02*
X180764286Y-65522419D01*
X180764286Y-65522419D02*
X180669048Y-65474800D01*
X180669048Y-65474800D02*
X180621429Y-65427180D01*
X181859524Y-64522419D02*
X181954762Y-64522419D01*
X181954762Y-64522419D02*
X182050000Y-64570038D01*
X182050000Y-64570038D02*
X182097619Y-64617657D01*
X182097619Y-64617657D02*
X182145238Y-64712895D01*
X182145238Y-64712895D02*
X182192857Y-64903371D01*
X182192857Y-64903371D02*
X182192857Y-65141466D01*
X182192857Y-65141466D02*
X182145238Y-65331942D01*
X182145238Y-65331942D02*
X182097619Y-65427180D01*
X182097619Y-65427180D02*
X182050000Y-65474800D01*
X182050000Y-65474800D02*
X181954762Y-65522419D01*
X181954762Y-65522419D02*
X181859524Y-65522419D01*
X181859524Y-65522419D02*
X181764286Y-65474800D01*
X181764286Y-65474800D02*
X181716667Y-65427180D01*
X181716667Y-65427180D02*
X181669048Y-65331942D01*
X181669048Y-65331942D02*
X181621429Y-65141466D01*
X181621429Y-65141466D02*
X181621429Y-64903371D01*
X181621429Y-64903371D02*
X181669048Y-64712895D01*
X181669048Y-64712895D02*
X181716667Y-64617657D01*
X181716667Y-64617657D02*
X181764286Y-64570038D01*
X181764286Y-64570038D02*
X181859524Y-64522419D01*
X182573810Y-64617657D02*
X182621429Y-64570038D01*
X182621429Y-64570038D02*
X182716667Y-64522419D01*
X182716667Y-64522419D02*
X182954762Y-64522419D01*
X182954762Y-64522419D02*
X183050000Y-64570038D01*
X183050000Y-64570038D02*
X183097619Y-64617657D01*
X183097619Y-64617657D02*
X183145238Y-64712895D01*
X183145238Y-64712895D02*
X183145238Y-64808133D01*
X183145238Y-64808133D02*
X183097619Y-64950990D01*
X183097619Y-64950990D02*
X182526191Y-65522419D01*
X182526191Y-65522419D02*
X183145238Y-65522419D01*
X183764286Y-64522419D02*
X183859524Y-64522419D01*
X183859524Y-64522419D02*
X183954762Y-64570038D01*
X183954762Y-64570038D02*
X184002381Y-64617657D01*
X184002381Y-64617657D02*
X184050000Y-64712895D01*
X184050000Y-64712895D02*
X184097619Y-64903371D01*
X184097619Y-64903371D02*
X184097619Y-65141466D01*
X184097619Y-65141466D02*
X184050000Y-65331942D01*
X184050000Y-65331942D02*
X184002381Y-65427180D01*
X184002381Y-65427180D02*
X183954762Y-65474800D01*
X183954762Y-65474800D02*
X183859524Y-65522419D01*
X183859524Y-65522419D02*
X183764286Y-65522419D01*
X183764286Y-65522419D02*
X183669048Y-65474800D01*
X183669048Y-65474800D02*
X183621429Y-65427180D01*
X183621429Y-65427180D02*
X183573810Y-65331942D01*
X183573810Y-65331942D02*
X183526191Y-65141466D01*
X183526191Y-65141466D02*
X183526191Y-64903371D01*
X183526191Y-64903371D02*
X183573810Y-64712895D01*
X183573810Y-64712895D02*
X183621429Y-64617657D01*
X183621429Y-64617657D02*
X183669048Y-64570038D01*
X183669048Y-64570038D02*
X183764286Y-64522419D01*
X181588973Y-124412419D02*
X182208020Y-124412419D01*
X182208020Y-124412419D02*
X181874687Y-124793371D01*
X181874687Y-124793371D02*
X182017544Y-124793371D01*
X182017544Y-124793371D02*
X182112782Y-124840990D01*
X182112782Y-124840990D02*
X182160401Y-124888609D01*
X182160401Y-124888609D02*
X182208020Y-124983847D01*
X182208020Y-124983847D02*
X182208020Y-125221942D01*
X182208020Y-125221942D02*
X182160401Y-125317180D01*
X182160401Y-125317180D02*
X182112782Y-125364800D01*
X182112782Y-125364800D02*
X182017544Y-125412419D01*
X182017544Y-125412419D02*
X181731830Y-125412419D01*
X181731830Y-125412419D02*
X181636592Y-125364800D01*
X181636592Y-125364800D02*
X181588973Y-125317180D01*
X182636592Y-125317180D02*
X182684211Y-125364800D01*
X182684211Y-125364800D02*
X182636592Y-125412419D01*
X182636592Y-125412419D02*
X182588973Y-125364800D01*
X182588973Y-125364800D02*
X182636592Y-125317180D01*
X182636592Y-125317180D02*
X182636592Y-125412419D01*
X183017544Y-124412419D02*
X183636591Y-124412419D01*
X183636591Y-124412419D02*
X183303258Y-124793371D01*
X183303258Y-124793371D02*
X183446115Y-124793371D01*
X183446115Y-124793371D02*
X183541353Y-124840990D01*
X183541353Y-124840990D02*
X183588972Y-124888609D01*
X183588972Y-124888609D02*
X183636591Y-124983847D01*
X183636591Y-124983847D02*
X183636591Y-125221942D01*
X183636591Y-125221942D02*
X183588972Y-125317180D01*
X183588972Y-125317180D02*
X183541353Y-125364800D01*
X183541353Y-125364800D02*
X183446115Y-125412419D01*
X183446115Y-125412419D02*
X183160401Y-125412419D01*
X183160401Y-125412419D02*
X183065163Y-125364800D01*
X183065163Y-125364800D02*
X183017544Y-125317180D01*
X183922306Y-124412419D02*
X184255639Y-125412419D01*
X184255639Y-125412419D02*
X184588972Y-124412419D01*
X182448496Y-111520038D02*
X182353258Y-111472419D01*
X182353258Y-111472419D02*
X182210401Y-111472419D01*
X182210401Y-111472419D02*
X182067544Y-111520038D01*
X182067544Y-111520038D02*
X181972306Y-111615276D01*
X181972306Y-111615276D02*
X181924687Y-111710514D01*
X181924687Y-111710514D02*
X181877068Y-111900990D01*
X181877068Y-111900990D02*
X181877068Y-112043847D01*
X181877068Y-112043847D02*
X181924687Y-112234323D01*
X181924687Y-112234323D02*
X181972306Y-112329561D01*
X181972306Y-112329561D02*
X182067544Y-112424800D01*
X182067544Y-112424800D02*
X182210401Y-112472419D01*
X182210401Y-112472419D02*
X182305639Y-112472419D01*
X182305639Y-112472419D02*
X182448496Y-112424800D01*
X182448496Y-112424800D02*
X182496115Y-112377180D01*
X182496115Y-112377180D02*
X182496115Y-112043847D01*
X182496115Y-112043847D02*
X182305639Y-112043847D01*
X182924687Y-112472419D02*
X182924687Y-111472419D01*
X182924687Y-111472419D02*
X183496115Y-112472419D01*
X183496115Y-112472419D02*
X183496115Y-111472419D01*
X183972306Y-112472419D02*
X183972306Y-111472419D01*
X183972306Y-111472419D02*
X184210401Y-111472419D01*
X184210401Y-111472419D02*
X184353258Y-111520038D01*
X184353258Y-111520038D02*
X184448496Y-111615276D01*
X184448496Y-111615276D02*
X184496115Y-111710514D01*
X184496115Y-111710514D02*
X184543734Y-111900990D01*
X184543734Y-111900990D02*
X184543734Y-112043847D01*
X184543734Y-112043847D02*
X184496115Y-112234323D01*
X184496115Y-112234323D02*
X184448496Y-112329561D01*
X184448496Y-112329561D02*
X184353258Y-112424800D01*
X184353258Y-112424800D02*
X184210401Y-112472419D01*
X184210401Y-112472419D02*
X183972306Y-112472419D01*
X178638973Y-114972419D02*
X178638973Y-113972419D01*
X178638973Y-113972419D02*
X178972306Y-114686704D01*
X178972306Y-114686704D02*
X179305639Y-113972419D01*
X179305639Y-113972419D02*
X179305639Y-114972419D01*
X179781830Y-114972419D02*
X179781830Y-113972419D01*
X180210401Y-114924800D02*
X180353258Y-114972419D01*
X180353258Y-114972419D02*
X180591353Y-114972419D01*
X180591353Y-114972419D02*
X180686591Y-114924800D01*
X180686591Y-114924800D02*
X180734210Y-114877180D01*
X180734210Y-114877180D02*
X180781829Y-114781942D01*
X180781829Y-114781942D02*
X180781829Y-114686704D01*
X180781829Y-114686704D02*
X180734210Y-114591466D01*
X180734210Y-114591466D02*
X180686591Y-114543847D01*
X180686591Y-114543847D02*
X180591353Y-114496228D01*
X180591353Y-114496228D02*
X180400877Y-114448609D01*
X180400877Y-114448609D02*
X180305639Y-114400990D01*
X180305639Y-114400990D02*
X180258020Y-114353371D01*
X180258020Y-114353371D02*
X180210401Y-114258133D01*
X180210401Y-114258133D02*
X180210401Y-114162895D01*
X180210401Y-114162895D02*
X180258020Y-114067657D01*
X180258020Y-114067657D02*
X180305639Y-114020038D01*
X180305639Y-114020038D02*
X180400877Y-113972419D01*
X180400877Y-113972419D02*
X180638972Y-113972419D01*
X180638972Y-113972419D02*
X180781829Y-114020038D01*
X181400877Y-113972419D02*
X181591353Y-113972419D01*
X181591353Y-113972419D02*
X181686591Y-114020038D01*
X181686591Y-114020038D02*
X181781829Y-114115276D01*
X181781829Y-114115276D02*
X181829448Y-114305752D01*
X181829448Y-114305752D02*
X181829448Y-114639085D01*
X181829448Y-114639085D02*
X181781829Y-114829561D01*
X181781829Y-114829561D02*
X181686591Y-114924800D01*
X181686591Y-114924800D02*
X181591353Y-114972419D01*
X181591353Y-114972419D02*
X181400877Y-114972419D01*
X181400877Y-114972419D02*
X181305639Y-114924800D01*
X181305639Y-114924800D02*
X181210401Y-114829561D01*
X181210401Y-114829561D02*
X181162782Y-114639085D01*
X181162782Y-114639085D02*
X181162782Y-114305752D01*
X181162782Y-114305752D02*
X181210401Y-114115276D01*
X181210401Y-114115276D02*
X181305639Y-114020038D01*
X181305639Y-114020038D02*
X181400877Y-113972419D01*
X183019925Y-114972419D02*
X183019925Y-113972419D01*
X183019925Y-113972419D02*
X183258020Y-113972419D01*
X183258020Y-113972419D02*
X183400877Y-114020038D01*
X183400877Y-114020038D02*
X183496115Y-114115276D01*
X183496115Y-114115276D02*
X183543734Y-114210514D01*
X183543734Y-114210514D02*
X183591353Y-114400990D01*
X183591353Y-114400990D02*
X183591353Y-114543847D01*
X183591353Y-114543847D02*
X183543734Y-114734323D01*
X183543734Y-114734323D02*
X183496115Y-114829561D01*
X183496115Y-114829561D02*
X183400877Y-114924800D01*
X183400877Y-114924800D02*
X183258020Y-114972419D01*
X183258020Y-114972419D02*
X183019925Y-114972419D01*
X184067544Y-114972419D02*
X184258020Y-114972419D01*
X184258020Y-114972419D02*
X184353258Y-114924800D01*
X184353258Y-114924800D02*
X184400877Y-114877180D01*
X184400877Y-114877180D02*
X184496115Y-114734323D01*
X184496115Y-114734323D02*
X184543734Y-114543847D01*
X184543734Y-114543847D02*
X184543734Y-114162895D01*
X184543734Y-114162895D02*
X184496115Y-114067657D01*
X184496115Y-114067657D02*
X184448496Y-114020038D01*
X184448496Y-114020038D02*
X184353258Y-113972419D01*
X184353258Y-113972419D02*
X184162782Y-113972419D01*
X184162782Y-113972419D02*
X184067544Y-114020038D01*
X184067544Y-114020038D02*
X184019925Y-114067657D01*
X184019925Y-114067657D02*
X183972306Y-114162895D01*
X183972306Y-114162895D02*
X183972306Y-114400990D01*
X183972306Y-114400990D02*
X184019925Y-114496228D01*
X184019925Y-114496228D02*
X184067544Y-114543847D01*
X184067544Y-114543847D02*
X184162782Y-114591466D01*
X184162782Y-114591466D02*
X184353258Y-114591466D01*
X184353258Y-114591466D02*
X184448496Y-114543847D01*
X184448496Y-114543847D02*
X184496115Y-114496228D01*
X184496115Y-114496228D02*
X184543734Y-114400990D01*
X179258020Y-117424800D02*
X179400877Y-117472419D01*
X179400877Y-117472419D02*
X179638972Y-117472419D01*
X179638972Y-117472419D02*
X179734210Y-117424800D01*
X179734210Y-117424800D02*
X179781829Y-117377180D01*
X179781829Y-117377180D02*
X179829448Y-117281942D01*
X179829448Y-117281942D02*
X179829448Y-117186704D01*
X179829448Y-117186704D02*
X179781829Y-117091466D01*
X179781829Y-117091466D02*
X179734210Y-117043847D01*
X179734210Y-117043847D02*
X179638972Y-116996228D01*
X179638972Y-116996228D02*
X179448496Y-116948609D01*
X179448496Y-116948609D02*
X179353258Y-116900990D01*
X179353258Y-116900990D02*
X179305639Y-116853371D01*
X179305639Y-116853371D02*
X179258020Y-116758133D01*
X179258020Y-116758133D02*
X179258020Y-116662895D01*
X179258020Y-116662895D02*
X179305639Y-116567657D01*
X179305639Y-116567657D02*
X179353258Y-116520038D01*
X179353258Y-116520038D02*
X179448496Y-116472419D01*
X179448496Y-116472419D02*
X179686591Y-116472419D01*
X179686591Y-116472419D02*
X179829448Y-116520038D01*
X180829448Y-117377180D02*
X180781829Y-117424800D01*
X180781829Y-117424800D02*
X180638972Y-117472419D01*
X180638972Y-117472419D02*
X180543734Y-117472419D01*
X180543734Y-117472419D02*
X180400877Y-117424800D01*
X180400877Y-117424800D02*
X180305639Y-117329561D01*
X180305639Y-117329561D02*
X180258020Y-117234323D01*
X180258020Y-117234323D02*
X180210401Y-117043847D01*
X180210401Y-117043847D02*
X180210401Y-116900990D01*
X180210401Y-116900990D02*
X180258020Y-116710514D01*
X180258020Y-116710514D02*
X180305639Y-116615276D01*
X180305639Y-116615276D02*
X180400877Y-116520038D01*
X180400877Y-116520038D02*
X180543734Y-116472419D01*
X180543734Y-116472419D02*
X180638972Y-116472419D01*
X180638972Y-116472419D02*
X180781829Y-116520038D01*
X180781829Y-116520038D02*
X180829448Y-116567657D01*
X181258020Y-117472419D02*
X181258020Y-116472419D01*
X181829448Y-117472419D02*
X181400877Y-116900990D01*
X181829448Y-116472419D02*
X181258020Y-117043847D01*
X183019925Y-117472419D02*
X183019925Y-116472419D01*
X183019925Y-116472419D02*
X183258020Y-116472419D01*
X183258020Y-116472419D02*
X183400877Y-116520038D01*
X183400877Y-116520038D02*
X183496115Y-116615276D01*
X183496115Y-116615276D02*
X183543734Y-116710514D01*
X183543734Y-116710514D02*
X183591353Y-116900990D01*
X183591353Y-116900990D02*
X183591353Y-117043847D01*
X183591353Y-117043847D02*
X183543734Y-117234323D01*
X183543734Y-117234323D02*
X183496115Y-117329561D01*
X183496115Y-117329561D02*
X183400877Y-117424800D01*
X183400877Y-117424800D02*
X183258020Y-117472419D01*
X183258020Y-117472419D02*
X183019925Y-117472419D01*
X184162782Y-116900990D02*
X184067544Y-116853371D01*
X184067544Y-116853371D02*
X184019925Y-116805752D01*
X184019925Y-116805752D02*
X183972306Y-116710514D01*
X183972306Y-116710514D02*
X183972306Y-116662895D01*
X183972306Y-116662895D02*
X184019925Y-116567657D01*
X184019925Y-116567657D02*
X184067544Y-116520038D01*
X184067544Y-116520038D02*
X184162782Y-116472419D01*
X184162782Y-116472419D02*
X184353258Y-116472419D01*
X184353258Y-116472419D02*
X184448496Y-116520038D01*
X184448496Y-116520038D02*
X184496115Y-116567657D01*
X184496115Y-116567657D02*
X184543734Y-116662895D01*
X184543734Y-116662895D02*
X184543734Y-116710514D01*
X184543734Y-116710514D02*
X184496115Y-116805752D01*
X184496115Y-116805752D02*
X184448496Y-116853371D01*
X184448496Y-116853371D02*
X184353258Y-116900990D01*
X184353258Y-116900990D02*
X184162782Y-116900990D01*
X184162782Y-116900990D02*
X184067544Y-116948609D01*
X184067544Y-116948609D02*
X184019925Y-116996228D01*
X184019925Y-116996228D02*
X183972306Y-117091466D01*
X183972306Y-117091466D02*
X183972306Y-117281942D01*
X183972306Y-117281942D02*
X184019925Y-117377180D01*
X184019925Y-117377180D02*
X184067544Y-117424800D01*
X184067544Y-117424800D02*
X184162782Y-117472419D01*
X184162782Y-117472419D02*
X184353258Y-117472419D01*
X184353258Y-117472419D02*
X184448496Y-117424800D01*
X184448496Y-117424800D02*
X184496115Y-117377180D01*
X184496115Y-117377180D02*
X184543734Y-117281942D01*
X184543734Y-117281942D02*
X184543734Y-117091466D01*
X184543734Y-117091466D02*
X184496115Y-116996228D01*
X184496115Y-116996228D02*
X184448496Y-116948609D01*
X184448496Y-116948609D02*
X184353258Y-116900990D01*
X178686592Y-119972419D02*
X178686592Y-118972419D01*
X178686592Y-118972419D02*
X179019925Y-119686704D01*
X179019925Y-119686704D02*
X179353258Y-118972419D01*
X179353258Y-118972419D02*
X179353258Y-119972419D01*
X180019925Y-118972419D02*
X180210401Y-118972419D01*
X180210401Y-118972419D02*
X180305639Y-119020038D01*
X180305639Y-119020038D02*
X180400877Y-119115276D01*
X180400877Y-119115276D02*
X180448496Y-119305752D01*
X180448496Y-119305752D02*
X180448496Y-119639085D01*
X180448496Y-119639085D02*
X180400877Y-119829561D01*
X180400877Y-119829561D02*
X180305639Y-119924800D01*
X180305639Y-119924800D02*
X180210401Y-119972419D01*
X180210401Y-119972419D02*
X180019925Y-119972419D01*
X180019925Y-119972419D02*
X179924687Y-119924800D01*
X179924687Y-119924800D02*
X179829449Y-119829561D01*
X179829449Y-119829561D02*
X179781830Y-119639085D01*
X179781830Y-119639085D02*
X179781830Y-119305752D01*
X179781830Y-119305752D02*
X179829449Y-119115276D01*
X179829449Y-119115276D02*
X179924687Y-119020038D01*
X179924687Y-119020038D02*
X180019925Y-118972419D01*
X180829449Y-119924800D02*
X180972306Y-119972419D01*
X180972306Y-119972419D02*
X181210401Y-119972419D01*
X181210401Y-119972419D02*
X181305639Y-119924800D01*
X181305639Y-119924800D02*
X181353258Y-119877180D01*
X181353258Y-119877180D02*
X181400877Y-119781942D01*
X181400877Y-119781942D02*
X181400877Y-119686704D01*
X181400877Y-119686704D02*
X181353258Y-119591466D01*
X181353258Y-119591466D02*
X181305639Y-119543847D01*
X181305639Y-119543847D02*
X181210401Y-119496228D01*
X181210401Y-119496228D02*
X181019925Y-119448609D01*
X181019925Y-119448609D02*
X180924687Y-119400990D01*
X180924687Y-119400990D02*
X180877068Y-119353371D01*
X180877068Y-119353371D02*
X180829449Y-119258133D01*
X180829449Y-119258133D02*
X180829449Y-119162895D01*
X180829449Y-119162895D02*
X180877068Y-119067657D01*
X180877068Y-119067657D02*
X180924687Y-119020038D01*
X180924687Y-119020038D02*
X181019925Y-118972419D01*
X181019925Y-118972419D02*
X181258020Y-118972419D01*
X181258020Y-118972419D02*
X181400877Y-119020038D01*
X181829449Y-119972419D02*
X181829449Y-118972419D01*
X183591353Y-119972419D02*
X183019925Y-119972419D01*
X183305639Y-119972419D02*
X183305639Y-118972419D01*
X183305639Y-118972419D02*
X183210401Y-119115276D01*
X183210401Y-119115276D02*
X183115163Y-119210514D01*
X183115163Y-119210514D02*
X183019925Y-119258133D01*
X184210401Y-118972419D02*
X184305639Y-118972419D01*
X184305639Y-118972419D02*
X184400877Y-119020038D01*
X184400877Y-119020038D02*
X184448496Y-119067657D01*
X184448496Y-119067657D02*
X184496115Y-119162895D01*
X184496115Y-119162895D02*
X184543734Y-119353371D01*
X184543734Y-119353371D02*
X184543734Y-119591466D01*
X184543734Y-119591466D02*
X184496115Y-119781942D01*
X184496115Y-119781942D02*
X184448496Y-119877180D01*
X184448496Y-119877180D02*
X184400877Y-119924800D01*
X184400877Y-119924800D02*
X184305639Y-119972419D01*
X184305639Y-119972419D02*
X184210401Y-119972419D01*
X184210401Y-119972419D02*
X184115163Y-119924800D01*
X184115163Y-119924800D02*
X184067544Y-119877180D01*
X184067544Y-119877180D02*
X184019925Y-119781942D01*
X184019925Y-119781942D02*
X183972306Y-119591466D01*
X183972306Y-119591466D02*
X183972306Y-119353371D01*
X183972306Y-119353371D02*
X184019925Y-119162895D01*
X184019925Y-119162895D02*
X184067544Y-119067657D01*
X184067544Y-119067657D02*
X184115163Y-119020038D01*
X184115163Y-119020038D02*
X184210401Y-118972419D01*
X180877067Y-122377180D02*
X180829448Y-122424800D01*
X180829448Y-122424800D02*
X180686591Y-122472419D01*
X180686591Y-122472419D02*
X180591353Y-122472419D01*
X180591353Y-122472419D02*
X180448496Y-122424800D01*
X180448496Y-122424800D02*
X180353258Y-122329561D01*
X180353258Y-122329561D02*
X180305639Y-122234323D01*
X180305639Y-122234323D02*
X180258020Y-122043847D01*
X180258020Y-122043847D02*
X180258020Y-121900990D01*
X180258020Y-121900990D02*
X180305639Y-121710514D01*
X180305639Y-121710514D02*
X180353258Y-121615276D01*
X180353258Y-121615276D02*
X180448496Y-121520038D01*
X180448496Y-121520038D02*
X180591353Y-121472419D01*
X180591353Y-121472419D02*
X180686591Y-121472419D01*
X180686591Y-121472419D02*
X180829448Y-121520038D01*
X180829448Y-121520038D02*
X180877067Y-121567657D01*
X181258020Y-122424800D02*
X181400877Y-122472419D01*
X181400877Y-122472419D02*
X181638972Y-122472419D01*
X181638972Y-122472419D02*
X181734210Y-122424800D01*
X181734210Y-122424800D02*
X181781829Y-122377180D01*
X181781829Y-122377180D02*
X181829448Y-122281942D01*
X181829448Y-122281942D02*
X181829448Y-122186704D01*
X181829448Y-122186704D02*
X181781829Y-122091466D01*
X181781829Y-122091466D02*
X181734210Y-122043847D01*
X181734210Y-122043847D02*
X181638972Y-121996228D01*
X181638972Y-121996228D02*
X181448496Y-121948609D01*
X181448496Y-121948609D02*
X181353258Y-121900990D01*
X181353258Y-121900990D02*
X181305639Y-121853371D01*
X181305639Y-121853371D02*
X181258020Y-121758133D01*
X181258020Y-121758133D02*
X181258020Y-121662895D01*
X181258020Y-121662895D02*
X181305639Y-121567657D01*
X181305639Y-121567657D02*
X181353258Y-121520038D01*
X181353258Y-121520038D02*
X181448496Y-121472419D01*
X181448496Y-121472419D02*
X181686591Y-121472419D01*
X181686591Y-121472419D02*
X181829448Y-121520038D01*
X183019925Y-122472419D02*
X183019925Y-121472419D01*
X183019925Y-121472419D02*
X183258020Y-121472419D01*
X183258020Y-121472419D02*
X183400877Y-121520038D01*
X183400877Y-121520038D02*
X183496115Y-121615276D01*
X183496115Y-121615276D02*
X183543734Y-121710514D01*
X183543734Y-121710514D02*
X183591353Y-121900990D01*
X183591353Y-121900990D02*
X183591353Y-122043847D01*
X183591353Y-122043847D02*
X183543734Y-122234323D01*
X183543734Y-122234323D02*
X183496115Y-122329561D01*
X183496115Y-122329561D02*
X183400877Y-122424800D01*
X183400877Y-122424800D02*
X183258020Y-122472419D01*
X183258020Y-122472419D02*
X183019925Y-122472419D01*
X183924687Y-121472419D02*
X184543734Y-121472419D01*
X184543734Y-121472419D02*
X184210401Y-121853371D01*
X184210401Y-121853371D02*
X184353258Y-121853371D01*
X184353258Y-121853371D02*
X184448496Y-121900990D01*
X184448496Y-121900990D02*
X184496115Y-121948609D01*
X184496115Y-121948609D02*
X184543734Y-122043847D01*
X184543734Y-122043847D02*
X184543734Y-122281942D01*
X184543734Y-122281942D02*
X184496115Y-122377180D01*
X184496115Y-122377180D02*
X184448496Y-122424800D01*
X184448496Y-122424800D02*
X184353258Y-122472419D01*
X184353258Y-122472419D02*
X184067544Y-122472419D01*
X184067544Y-122472419D02*
X183972306Y-122424800D01*
X183972306Y-122424800D02*
X183924687Y-122377180D01*
X174420038Y-109672306D02*
X174372419Y-109767544D01*
X174372419Y-109767544D02*
X174372419Y-109910401D01*
X174372419Y-109910401D02*
X174420038Y-110053258D01*
X174420038Y-110053258D02*
X174515276Y-110148496D01*
X174515276Y-110148496D02*
X174610514Y-110196115D01*
X174610514Y-110196115D02*
X174800990Y-110243734D01*
X174800990Y-110243734D02*
X174943847Y-110243734D01*
X174943847Y-110243734D02*
X175134323Y-110196115D01*
X175134323Y-110196115D02*
X175229561Y-110148496D01*
X175229561Y-110148496D02*
X175324800Y-110053258D01*
X175324800Y-110053258D02*
X175372419Y-109910401D01*
X175372419Y-109910401D02*
X175372419Y-109815163D01*
X175372419Y-109815163D02*
X175324800Y-109672306D01*
X175324800Y-109672306D02*
X175277180Y-109624687D01*
X175277180Y-109624687D02*
X174943847Y-109624687D01*
X174943847Y-109624687D02*
X174943847Y-109815163D01*
X175372419Y-109196115D02*
X174372419Y-109196115D01*
X174372419Y-109196115D02*
X175372419Y-108624687D01*
X175372419Y-108624687D02*
X174372419Y-108624687D01*
X175372419Y-108148496D02*
X174372419Y-108148496D01*
X174372419Y-108148496D02*
X174372419Y-107910401D01*
X174372419Y-107910401D02*
X174420038Y-107767544D01*
X174420038Y-107767544D02*
X174515276Y-107672306D01*
X174515276Y-107672306D02*
X174610514Y-107624687D01*
X174610514Y-107624687D02*
X174800990Y-107577068D01*
X174800990Y-107577068D02*
X174943847Y-107577068D01*
X174943847Y-107577068D02*
X175134323Y-107624687D01*
X175134323Y-107624687D02*
X175229561Y-107672306D01*
X175229561Y-107672306D02*
X175324800Y-107767544D01*
X175324800Y-107767544D02*
X175372419Y-107910401D01*
X175372419Y-107910401D02*
X175372419Y-108148496D01*
X174372419Y-115791353D02*
X174372419Y-115172306D01*
X174372419Y-115172306D02*
X174753371Y-115505639D01*
X174753371Y-115505639D02*
X174753371Y-115362782D01*
X174753371Y-115362782D02*
X174800990Y-115267544D01*
X174800990Y-115267544D02*
X174848609Y-115219925D01*
X174848609Y-115219925D02*
X174943847Y-115172306D01*
X174943847Y-115172306D02*
X175181942Y-115172306D01*
X175181942Y-115172306D02*
X175277180Y-115219925D01*
X175277180Y-115219925D02*
X175324800Y-115267544D01*
X175324800Y-115267544D02*
X175372419Y-115362782D01*
X175372419Y-115362782D02*
X175372419Y-115648496D01*
X175372419Y-115648496D02*
X175324800Y-115743734D01*
X175324800Y-115743734D02*
X175277180Y-115791353D01*
X175277180Y-114743734D02*
X175324800Y-114696115D01*
X175324800Y-114696115D02*
X175372419Y-114743734D01*
X175372419Y-114743734D02*
X175324800Y-114791353D01*
X175324800Y-114791353D02*
X175277180Y-114743734D01*
X175277180Y-114743734D02*
X175372419Y-114743734D01*
X174372419Y-114362782D02*
X174372419Y-113743735D01*
X174372419Y-113743735D02*
X174753371Y-114077068D01*
X174753371Y-114077068D02*
X174753371Y-113934211D01*
X174753371Y-113934211D02*
X174800990Y-113838973D01*
X174800990Y-113838973D02*
X174848609Y-113791354D01*
X174848609Y-113791354D02*
X174943847Y-113743735D01*
X174943847Y-113743735D02*
X175181942Y-113743735D01*
X175181942Y-113743735D02*
X175277180Y-113791354D01*
X175277180Y-113791354D02*
X175324800Y-113838973D01*
X175324800Y-113838973D02*
X175372419Y-113934211D01*
X175372419Y-113934211D02*
X175372419Y-114219925D01*
X175372419Y-114219925D02*
X175324800Y-114315163D01*
X175324800Y-114315163D02*
X175277180Y-114362782D01*
X174372419Y-113458020D02*
X175372419Y-113124687D01*
X175372419Y-113124687D02*
X174372419Y-112791354D01*
X175324800Y-119243734D02*
X175372419Y-119100877D01*
X175372419Y-119100877D02*
X175372419Y-118862782D01*
X175372419Y-118862782D02*
X175324800Y-118767544D01*
X175324800Y-118767544D02*
X175277180Y-118719925D01*
X175277180Y-118719925D02*
X175181942Y-118672306D01*
X175181942Y-118672306D02*
X175086704Y-118672306D01*
X175086704Y-118672306D02*
X174991466Y-118719925D01*
X174991466Y-118719925D02*
X174943847Y-118767544D01*
X174943847Y-118767544D02*
X174896228Y-118862782D01*
X174896228Y-118862782D02*
X174848609Y-119053258D01*
X174848609Y-119053258D02*
X174800990Y-119148496D01*
X174800990Y-119148496D02*
X174753371Y-119196115D01*
X174753371Y-119196115D02*
X174658133Y-119243734D01*
X174658133Y-119243734D02*
X174562895Y-119243734D01*
X174562895Y-119243734D02*
X174467657Y-119196115D01*
X174467657Y-119196115D02*
X174420038Y-119148496D01*
X174420038Y-119148496D02*
X174372419Y-119053258D01*
X174372419Y-119053258D02*
X174372419Y-118815163D01*
X174372419Y-118815163D02*
X174420038Y-118672306D01*
X175372419Y-118243734D02*
X174372419Y-118243734D01*
X174372419Y-118243734D02*
X174372419Y-118005639D01*
X174372419Y-118005639D02*
X174420038Y-117862782D01*
X174420038Y-117862782D02*
X174515276Y-117767544D01*
X174515276Y-117767544D02*
X174610514Y-117719925D01*
X174610514Y-117719925D02*
X174800990Y-117672306D01*
X174800990Y-117672306D02*
X174943847Y-117672306D01*
X174943847Y-117672306D02*
X175134323Y-117719925D01*
X175134323Y-117719925D02*
X175229561Y-117767544D01*
X175229561Y-117767544D02*
X175324800Y-117862782D01*
X175324800Y-117862782D02*
X175372419Y-118005639D01*
X175372419Y-118005639D02*
X175372419Y-118243734D01*
X175086704Y-117291353D02*
X175086704Y-116815163D01*
X175372419Y-117386591D02*
X174372419Y-117053258D01*
X174372419Y-117053258D02*
X175372419Y-116719925D01*
X175324800Y-122243734D02*
X175372419Y-122100877D01*
X175372419Y-122100877D02*
X175372419Y-121862782D01*
X175372419Y-121862782D02*
X175324800Y-121767544D01*
X175324800Y-121767544D02*
X175277180Y-121719925D01*
X175277180Y-121719925D02*
X175181942Y-121672306D01*
X175181942Y-121672306D02*
X175086704Y-121672306D01*
X175086704Y-121672306D02*
X174991466Y-121719925D01*
X174991466Y-121719925D02*
X174943847Y-121767544D01*
X174943847Y-121767544D02*
X174896228Y-121862782D01*
X174896228Y-121862782D02*
X174848609Y-122053258D01*
X174848609Y-122053258D02*
X174800990Y-122148496D01*
X174800990Y-122148496D02*
X174753371Y-122196115D01*
X174753371Y-122196115D02*
X174658133Y-122243734D01*
X174658133Y-122243734D02*
X174562895Y-122243734D01*
X174562895Y-122243734D02*
X174467657Y-122196115D01*
X174467657Y-122196115D02*
X174420038Y-122148496D01*
X174420038Y-122148496D02*
X174372419Y-122053258D01*
X174372419Y-122053258D02*
X174372419Y-121815163D01*
X174372419Y-121815163D02*
X174420038Y-121672306D01*
X175277180Y-120672306D02*
X175324800Y-120719925D01*
X175324800Y-120719925D02*
X175372419Y-120862782D01*
X175372419Y-120862782D02*
X175372419Y-120958020D01*
X175372419Y-120958020D02*
X175324800Y-121100877D01*
X175324800Y-121100877D02*
X175229561Y-121196115D01*
X175229561Y-121196115D02*
X175134323Y-121243734D01*
X175134323Y-121243734D02*
X174943847Y-121291353D01*
X174943847Y-121291353D02*
X174800990Y-121291353D01*
X174800990Y-121291353D02*
X174610514Y-121243734D01*
X174610514Y-121243734D02*
X174515276Y-121196115D01*
X174515276Y-121196115D02*
X174420038Y-121100877D01*
X174420038Y-121100877D02*
X174372419Y-120958020D01*
X174372419Y-120958020D02*
X174372419Y-120862782D01*
X174372419Y-120862782D02*
X174420038Y-120719925D01*
X174420038Y-120719925D02*
X174467657Y-120672306D01*
X175372419Y-119767544D02*
X175372419Y-120243734D01*
X175372419Y-120243734D02*
X174372419Y-120243734D01*
X176872419Y-117696115D02*
X175872419Y-117696115D01*
X175872419Y-117696115D02*
X175872419Y-117315163D01*
X175872419Y-117315163D02*
X175920038Y-117219925D01*
X175920038Y-117219925D02*
X175967657Y-117172306D01*
X175967657Y-117172306D02*
X176062895Y-117124687D01*
X176062895Y-117124687D02*
X176205752Y-117124687D01*
X176205752Y-117124687D02*
X176300990Y-117172306D01*
X176300990Y-117172306D02*
X176348609Y-117219925D01*
X176348609Y-117219925D02*
X176396228Y-117315163D01*
X176396228Y-117315163D02*
X176396228Y-117696115D01*
X176872419Y-116553258D02*
X176824800Y-116648496D01*
X176824800Y-116648496D02*
X176777180Y-116696115D01*
X176777180Y-116696115D02*
X176681942Y-116743734D01*
X176681942Y-116743734D02*
X176396228Y-116743734D01*
X176396228Y-116743734D02*
X176300990Y-116696115D01*
X176300990Y-116696115D02*
X176253371Y-116648496D01*
X176253371Y-116648496D02*
X176205752Y-116553258D01*
X176205752Y-116553258D02*
X176205752Y-116410401D01*
X176205752Y-116410401D02*
X176253371Y-116315163D01*
X176253371Y-116315163D02*
X176300990Y-116267544D01*
X176300990Y-116267544D02*
X176396228Y-116219925D01*
X176396228Y-116219925D02*
X176681942Y-116219925D01*
X176681942Y-116219925D02*
X176777180Y-116267544D01*
X176777180Y-116267544D02*
X176824800Y-116315163D01*
X176824800Y-116315163D02*
X176872419Y-116410401D01*
X176872419Y-116410401D02*
X176872419Y-116553258D01*
X176205752Y-115886591D02*
X176872419Y-115696115D01*
X176872419Y-115696115D02*
X176396228Y-115505639D01*
X176396228Y-115505639D02*
X176872419Y-115315163D01*
X176872419Y-115315163D02*
X176205752Y-115124687D01*
X176824800Y-114362782D02*
X176872419Y-114458020D01*
X176872419Y-114458020D02*
X176872419Y-114648496D01*
X176872419Y-114648496D02*
X176824800Y-114743734D01*
X176824800Y-114743734D02*
X176729561Y-114791353D01*
X176729561Y-114791353D02*
X176348609Y-114791353D01*
X176348609Y-114791353D02*
X176253371Y-114743734D01*
X176253371Y-114743734D02*
X176205752Y-114648496D01*
X176205752Y-114648496D02*
X176205752Y-114458020D01*
X176205752Y-114458020D02*
X176253371Y-114362782D01*
X176253371Y-114362782D02*
X176348609Y-114315163D01*
X176348609Y-114315163D02*
X176443847Y-114315163D01*
X176443847Y-114315163D02*
X176539085Y-114791353D01*
X176872419Y-113886591D02*
X176205752Y-113886591D01*
X176396228Y-113886591D02*
X176300990Y-113838972D01*
X176300990Y-113838972D02*
X176253371Y-113791353D01*
X176253371Y-113791353D02*
X176205752Y-113696115D01*
X176205752Y-113696115D02*
X176205752Y-113600877D01*
X176872419Y-113267543D02*
X175872419Y-113267543D01*
X175872419Y-113267543D02*
X176586704Y-112934210D01*
X176586704Y-112934210D02*
X175872419Y-112600877D01*
X175872419Y-112600877D02*
X176872419Y-112600877D01*
X176872419Y-111981829D02*
X176824800Y-112077067D01*
X176824800Y-112077067D02*
X176777180Y-112124686D01*
X176777180Y-112124686D02*
X176681942Y-112172305D01*
X176681942Y-112172305D02*
X176396228Y-112172305D01*
X176396228Y-112172305D02*
X176300990Y-112124686D01*
X176300990Y-112124686D02*
X176253371Y-112077067D01*
X176253371Y-112077067D02*
X176205752Y-111981829D01*
X176205752Y-111981829D02*
X176205752Y-111838972D01*
X176205752Y-111838972D02*
X176253371Y-111743734D01*
X176253371Y-111743734D02*
X176300990Y-111696115D01*
X176300990Y-111696115D02*
X176396228Y-111648496D01*
X176396228Y-111648496D02*
X176681942Y-111648496D01*
X176681942Y-111648496D02*
X176777180Y-111696115D01*
X176777180Y-111696115D02*
X176824800Y-111743734D01*
X176824800Y-111743734D02*
X176872419Y-111838972D01*
X176872419Y-111838972D02*
X176872419Y-111981829D01*
X176872419Y-110791353D02*
X175872419Y-110791353D01*
X176824800Y-110791353D02*
X176872419Y-110886591D01*
X176872419Y-110886591D02*
X176872419Y-111077067D01*
X176872419Y-111077067D02*
X176824800Y-111172305D01*
X176824800Y-111172305D02*
X176777180Y-111219924D01*
X176777180Y-111219924D02*
X176681942Y-111267543D01*
X176681942Y-111267543D02*
X176396228Y-111267543D01*
X176396228Y-111267543D02*
X176300990Y-111219924D01*
X176300990Y-111219924D02*
X176253371Y-111172305D01*
X176253371Y-111172305D02*
X176205752Y-111077067D01*
X176205752Y-111077067D02*
X176205752Y-110886591D01*
X176205752Y-110886591D02*
X176253371Y-110791353D01*
X176205752Y-109886591D02*
X176872419Y-109886591D01*
X176205752Y-110315162D02*
X176729561Y-110315162D01*
X176729561Y-110315162D02*
X176824800Y-110267543D01*
X176824800Y-110267543D02*
X176872419Y-110172305D01*
X176872419Y-110172305D02*
X176872419Y-110029448D01*
X176872419Y-110029448D02*
X176824800Y-109934210D01*
X176824800Y-109934210D02*
X176777180Y-109886591D01*
X176872419Y-109267543D02*
X176824800Y-109362781D01*
X176824800Y-109362781D02*
X176729561Y-109410400D01*
X176729561Y-109410400D02*
X175872419Y-109410400D01*
X176824800Y-108505638D02*
X176872419Y-108600876D01*
X176872419Y-108600876D02*
X176872419Y-108791352D01*
X176872419Y-108791352D02*
X176824800Y-108886590D01*
X176824800Y-108886590D02*
X176729561Y-108934209D01*
X176729561Y-108934209D02*
X176348609Y-108934209D01*
X176348609Y-108934209D02*
X176253371Y-108886590D01*
X176253371Y-108886590D02*
X176205752Y-108791352D01*
X176205752Y-108791352D02*
X176205752Y-108600876D01*
X176205752Y-108600876D02*
X176253371Y-108505638D01*
X176253371Y-108505638D02*
X176348609Y-108458019D01*
X176348609Y-108458019D02*
X176443847Y-108458019D01*
X176443847Y-108458019D02*
X176539085Y-108934209D01*
D11*
X170554819Y-54409523D02*
X171269104Y-54409523D01*
X171269104Y-54409523D02*
X171411961Y-54457142D01*
X171411961Y-54457142D02*
X171507200Y-54552380D01*
X171507200Y-54552380D02*
X171554819Y-54695237D01*
X171554819Y-54695237D02*
X171554819Y-54790475D01*
X170650057Y-53980951D02*
X170602438Y-53933332D01*
X170602438Y-53933332D02*
X170554819Y-53838094D01*
X170554819Y-53838094D02*
X170554819Y-53599999D01*
X170554819Y-53599999D02*
X170602438Y-53504761D01*
X170602438Y-53504761D02*
X170650057Y-53457142D01*
X170650057Y-53457142D02*
X170745295Y-53409523D01*
X170745295Y-53409523D02*
X170840533Y-53409523D01*
X170840533Y-53409523D02*
X170983390Y-53457142D01*
X170983390Y-53457142D02*
X171554819Y-54028570D01*
X171554819Y-54028570D02*
X171554819Y-53409523D01*
X170554819Y-52790475D02*
X170554819Y-52695237D01*
X170554819Y-52695237D02*
X170602438Y-52599999D01*
X170602438Y-52599999D02*
X170650057Y-52552380D01*
X170650057Y-52552380D02*
X170745295Y-52504761D01*
X170745295Y-52504761D02*
X170935771Y-52457142D01*
X170935771Y-52457142D02*
X171173866Y-52457142D01*
X171173866Y-52457142D02*
X171364342Y-52504761D01*
X171364342Y-52504761D02*
X171459580Y-52552380D01*
X171459580Y-52552380D02*
X171507200Y-52599999D01*
X171507200Y-52599999D02*
X171554819Y-52695237D01*
X171554819Y-52695237D02*
X171554819Y-52790475D01*
X171554819Y-52790475D02*
X171507200Y-52885713D01*
X171507200Y-52885713D02*
X171459580Y-52933332D01*
X171459580Y-52933332D02*
X171364342Y-52980951D01*
X171364342Y-52980951D02*
X171173866Y-53028570D01*
X171173866Y-53028570D02*
X170935771Y-53028570D01*
X170935771Y-53028570D02*
X170745295Y-52980951D01*
X170745295Y-52980951D02*
X170650057Y-52933332D01*
X170650057Y-52933332D02*
X170602438Y-52885713D01*
X170602438Y-52885713D02*
X170554819Y-52790475D01*
X184475476Y-47999819D02*
X184475476Y-48714104D01*
X184475476Y-48714104D02*
X184427857Y-48856961D01*
X184427857Y-48856961D02*
X184332619Y-48952200D01*
X184332619Y-48952200D02*
X184189762Y-48999819D01*
X184189762Y-48999819D02*
X184094524Y-48999819D01*
X185475476Y-48999819D02*
X184904048Y-48999819D01*
X185189762Y-48999819D02*
X185189762Y-47999819D01*
X185189762Y-47999819D02*
X185094524Y-48142676D01*
X185094524Y-48142676D02*
X184999286Y-48237914D01*
X184999286Y-48237914D02*
X184904048Y-48285533D01*
X185856429Y-48095057D02*
X185904048Y-48047438D01*
X185904048Y-48047438D02*
X185999286Y-47999819D01*
X185999286Y-47999819D02*
X186237381Y-47999819D01*
X186237381Y-47999819D02*
X186332619Y-48047438D01*
X186332619Y-48047438D02*
X186380238Y-48095057D01*
X186380238Y-48095057D02*
X186427857Y-48190295D01*
X186427857Y-48190295D02*
X186427857Y-48285533D01*
X186427857Y-48285533D02*
X186380238Y-48428390D01*
X186380238Y-48428390D02*
X185808810Y-48999819D01*
X185808810Y-48999819D02*
X186427857Y-48999819D01*
X192880952Y-68054819D02*
X192880952Y-67054819D01*
X192880952Y-67054819D02*
X193214285Y-67769104D01*
X193214285Y-67769104D02*
X193547618Y-67054819D01*
X193547618Y-67054819D02*
X193547618Y-68054819D01*
X193976190Y-67769104D02*
X194452380Y-67769104D01*
X193880952Y-68054819D02*
X194214285Y-67054819D01*
X194214285Y-67054819D02*
X194547618Y-68054819D01*
X194785714Y-67054819D02*
X195452380Y-68054819D01*
X195452380Y-67054819D02*
X194785714Y-68054819D01*
X196357142Y-68054819D02*
X195785714Y-68054819D01*
X196071428Y-68054819D02*
X196071428Y-67054819D01*
X196071428Y-67054819D02*
X195976190Y-67197676D01*
X195976190Y-67197676D02*
X195880952Y-67292914D01*
X195880952Y-67292914D02*
X195785714Y-67340533D01*
X196690476Y-67054819D02*
X197357142Y-67054819D01*
X197357142Y-67054819D02*
X196928571Y-68054819D01*
X197928571Y-67054819D02*
X198023809Y-67054819D01*
X198023809Y-67054819D02*
X198119047Y-67102438D01*
X198119047Y-67102438D02*
X198166666Y-67150057D01*
X198166666Y-67150057D02*
X198214285Y-67245295D01*
X198214285Y-67245295D02*
X198261904Y-67435771D01*
X198261904Y-67435771D02*
X198261904Y-67673866D01*
X198261904Y-67673866D02*
X198214285Y-67864342D01*
X198214285Y-67864342D02*
X198166666Y-67959580D01*
X198166666Y-67959580D02*
X198119047Y-68007200D01*
X198119047Y-68007200D02*
X198023809Y-68054819D01*
X198023809Y-68054819D02*
X197928571Y-68054819D01*
X197928571Y-68054819D02*
X197833333Y-68007200D01*
X197833333Y-68007200D02*
X197785714Y-67959580D01*
X197785714Y-67959580D02*
X197738095Y-67864342D01*
X197738095Y-67864342D02*
X197690476Y-67673866D01*
X197690476Y-67673866D02*
X197690476Y-67435771D01*
X197690476Y-67435771D02*
X197738095Y-67245295D01*
X197738095Y-67245295D02*
X197785714Y-67150057D01*
X197785714Y-67150057D02*
X197833333Y-67102438D01*
X197833333Y-67102438D02*
X197928571Y-67054819D01*
X199119047Y-67388152D02*
X199119047Y-68054819D01*
X198880952Y-67007200D02*
X198642857Y-67721485D01*
X198642857Y-67721485D02*
X199261904Y-67721485D01*
X199785714Y-67483390D02*
X199690476Y-67435771D01*
X199690476Y-67435771D02*
X199642857Y-67388152D01*
X199642857Y-67388152D02*
X199595238Y-67292914D01*
X199595238Y-67292914D02*
X199595238Y-67245295D01*
X199595238Y-67245295D02*
X199642857Y-67150057D01*
X199642857Y-67150057D02*
X199690476Y-67102438D01*
X199690476Y-67102438D02*
X199785714Y-67054819D01*
X199785714Y-67054819D02*
X199976190Y-67054819D01*
X199976190Y-67054819D02*
X200071428Y-67102438D01*
X200071428Y-67102438D02*
X200119047Y-67150057D01*
X200119047Y-67150057D02*
X200166666Y-67245295D01*
X200166666Y-67245295D02*
X200166666Y-67292914D01*
X200166666Y-67292914D02*
X200119047Y-67388152D01*
X200119047Y-67388152D02*
X200071428Y-67435771D01*
X200071428Y-67435771D02*
X199976190Y-67483390D01*
X199976190Y-67483390D02*
X199785714Y-67483390D01*
X199785714Y-67483390D02*
X199690476Y-67531009D01*
X199690476Y-67531009D02*
X199642857Y-67578628D01*
X199642857Y-67578628D02*
X199595238Y-67673866D01*
X199595238Y-67673866D02*
X199595238Y-67864342D01*
X199595238Y-67864342D02*
X199642857Y-67959580D01*
X199642857Y-67959580D02*
X199690476Y-68007200D01*
X199690476Y-68007200D02*
X199785714Y-68054819D01*
X199785714Y-68054819D02*
X199976190Y-68054819D01*
X199976190Y-68054819D02*
X200071428Y-68007200D01*
X200071428Y-68007200D02*
X200119047Y-67959580D01*
X200119047Y-67959580D02*
X200166666Y-67864342D01*
X200166666Y-67864342D02*
X200166666Y-67673866D01*
X200166666Y-67673866D02*
X200119047Y-67578628D01*
X200119047Y-67578628D02*
X200071428Y-67531009D01*
X200071428Y-67531009D02*
X199976190Y-67483390D01*
X215916666Y-51834819D02*
X215916666Y-52549104D01*
X215916666Y-52549104D02*
X215869047Y-52691961D01*
X215869047Y-52691961D02*
X215773809Y-52787200D01*
X215773809Y-52787200D02*
X215630952Y-52834819D01*
X215630952Y-52834819D02*
X215535714Y-52834819D01*
X216345238Y-51930057D02*
X216392857Y-51882438D01*
X216392857Y-51882438D02*
X216488095Y-51834819D01*
X216488095Y-51834819D02*
X216726190Y-51834819D01*
X216726190Y-51834819D02*
X216821428Y-51882438D01*
X216821428Y-51882438D02*
X216869047Y-51930057D01*
X216869047Y-51930057D02*
X216916666Y-52025295D01*
X216916666Y-52025295D02*
X216916666Y-52120533D01*
X216916666Y-52120533D02*
X216869047Y-52263390D01*
X216869047Y-52263390D02*
X216297619Y-52834819D01*
X216297619Y-52834819D02*
X216916666Y-52834819D01*
X212366666Y-42104819D02*
X212366666Y-42819104D01*
X212366666Y-42819104D02*
X212319047Y-42961961D01*
X212319047Y-42961961D02*
X212223809Y-43057200D01*
X212223809Y-43057200D02*
X212080952Y-43104819D01*
X212080952Y-43104819D02*
X211985714Y-43104819D01*
X213366666Y-43104819D02*
X212795238Y-43104819D01*
X213080952Y-43104819D02*
X213080952Y-42104819D01*
X213080952Y-42104819D02*
X212985714Y-42247676D01*
X212985714Y-42247676D02*
X212890476Y-42342914D01*
X212890476Y-42342914D02*
X212795238Y-42390533D01*
X194984819Y-77409523D02*
X195699104Y-77409523D01*
X195699104Y-77409523D02*
X195841961Y-77457142D01*
X195841961Y-77457142D02*
X195937200Y-77552380D01*
X195937200Y-77552380D02*
X195984819Y-77695237D01*
X195984819Y-77695237D02*
X195984819Y-77790475D01*
X195080057Y-76980951D02*
X195032438Y-76933332D01*
X195032438Y-76933332D02*
X194984819Y-76838094D01*
X194984819Y-76838094D02*
X194984819Y-76599999D01*
X194984819Y-76599999D02*
X195032438Y-76504761D01*
X195032438Y-76504761D02*
X195080057Y-76457142D01*
X195080057Y-76457142D02*
X195175295Y-76409523D01*
X195175295Y-76409523D02*
X195270533Y-76409523D01*
X195270533Y-76409523D02*
X195413390Y-76457142D01*
X195413390Y-76457142D02*
X195984819Y-77028570D01*
X195984819Y-77028570D02*
X195984819Y-76409523D01*
X195080057Y-76028570D02*
X195032438Y-75980951D01*
X195032438Y-75980951D02*
X194984819Y-75885713D01*
X194984819Y-75885713D02*
X194984819Y-75647618D01*
X194984819Y-75647618D02*
X195032438Y-75552380D01*
X195032438Y-75552380D02*
X195080057Y-75504761D01*
X195080057Y-75504761D02*
X195175295Y-75457142D01*
X195175295Y-75457142D02*
X195270533Y-75457142D01*
X195270533Y-75457142D02*
X195413390Y-75504761D01*
X195413390Y-75504761D02*
X195984819Y-76076189D01*
X195984819Y-76076189D02*
X195984819Y-75457142D01*
X182394819Y-77459523D02*
X183109104Y-77459523D01*
X183109104Y-77459523D02*
X183251961Y-77507142D01*
X183251961Y-77507142D02*
X183347200Y-77602380D01*
X183347200Y-77602380D02*
X183394819Y-77745237D01*
X183394819Y-77745237D02*
X183394819Y-77840475D01*
X183394819Y-76459523D02*
X183394819Y-77030951D01*
X183394819Y-76745237D02*
X182394819Y-76745237D01*
X182394819Y-76745237D02*
X182537676Y-76840475D01*
X182537676Y-76840475D02*
X182632914Y-76935713D01*
X182632914Y-76935713D02*
X182680533Y-77030951D01*
X182823390Y-75888094D02*
X182775771Y-75983332D01*
X182775771Y-75983332D02*
X182728152Y-76030951D01*
X182728152Y-76030951D02*
X182632914Y-76078570D01*
X182632914Y-76078570D02*
X182585295Y-76078570D01*
X182585295Y-76078570D02*
X182490057Y-76030951D01*
X182490057Y-76030951D02*
X182442438Y-75983332D01*
X182442438Y-75983332D02*
X182394819Y-75888094D01*
X182394819Y-75888094D02*
X182394819Y-75697618D01*
X182394819Y-75697618D02*
X182442438Y-75602380D01*
X182442438Y-75602380D02*
X182490057Y-75554761D01*
X182490057Y-75554761D02*
X182585295Y-75507142D01*
X182585295Y-75507142D02*
X182632914Y-75507142D01*
X182632914Y-75507142D02*
X182728152Y-75554761D01*
X182728152Y-75554761D02*
X182775771Y-75602380D01*
X182775771Y-75602380D02*
X182823390Y-75697618D01*
X182823390Y-75697618D02*
X182823390Y-75888094D01*
X182823390Y-75888094D02*
X182871009Y-75983332D01*
X182871009Y-75983332D02*
X182918628Y-76030951D01*
X182918628Y-76030951D02*
X183013866Y-76078570D01*
X183013866Y-76078570D02*
X183204342Y-76078570D01*
X183204342Y-76078570D02*
X183299580Y-76030951D01*
X183299580Y-76030951D02*
X183347200Y-75983332D01*
X183347200Y-75983332D02*
X183394819Y-75888094D01*
X183394819Y-75888094D02*
X183394819Y-75697618D01*
X183394819Y-75697618D02*
X183347200Y-75602380D01*
X183347200Y-75602380D02*
X183299580Y-75554761D01*
X183299580Y-75554761D02*
X183204342Y-75507142D01*
X183204342Y-75507142D02*
X183013866Y-75507142D01*
X183013866Y-75507142D02*
X182918628Y-75554761D01*
X182918628Y-75554761D02*
X182871009Y-75602380D01*
X182871009Y-75602380D02*
X182823390Y-75697618D01*
X227254819Y-97442856D02*
X226254819Y-97442856D01*
X226254819Y-97442856D02*
X226254819Y-97204761D01*
X226254819Y-97204761D02*
X226302438Y-97061904D01*
X226302438Y-97061904D02*
X226397676Y-96966666D01*
X226397676Y-96966666D02*
X226492914Y-96919047D01*
X226492914Y-96919047D02*
X226683390Y-96871428D01*
X226683390Y-96871428D02*
X226826247Y-96871428D01*
X226826247Y-96871428D02*
X227016723Y-96919047D01*
X227016723Y-96919047D02*
X227111961Y-96966666D01*
X227111961Y-96966666D02*
X227207200Y-97061904D01*
X227207200Y-97061904D02*
X227254819Y-97204761D01*
X227254819Y-97204761D02*
X227254819Y-97442856D01*
X227207200Y-96490475D02*
X227254819Y-96347618D01*
X227254819Y-96347618D02*
X227254819Y-96109523D01*
X227254819Y-96109523D02*
X227207200Y-96014285D01*
X227207200Y-96014285D02*
X227159580Y-95966666D01*
X227159580Y-95966666D02*
X227064342Y-95919047D01*
X227064342Y-95919047D02*
X226969104Y-95919047D01*
X226969104Y-95919047D02*
X226873866Y-95966666D01*
X226873866Y-95966666D02*
X226826247Y-96014285D01*
X226826247Y-96014285D02*
X226778628Y-96109523D01*
X226778628Y-96109523D02*
X226731009Y-96299999D01*
X226731009Y-96299999D02*
X226683390Y-96395237D01*
X226683390Y-96395237D02*
X226635771Y-96442856D01*
X226635771Y-96442856D02*
X226540533Y-96490475D01*
X226540533Y-96490475D02*
X226445295Y-96490475D01*
X226445295Y-96490475D02*
X226350057Y-96442856D01*
X226350057Y-96442856D02*
X226302438Y-96395237D01*
X226302438Y-96395237D02*
X226254819Y-96299999D01*
X226254819Y-96299999D02*
X226254819Y-96061904D01*
X226254819Y-96061904D02*
X226302438Y-95919047D01*
X227254819Y-94966666D02*
X227254819Y-95538094D01*
X227254819Y-95252380D02*
X226254819Y-95252380D01*
X226254819Y-95252380D02*
X226397676Y-95347618D01*
X226397676Y-95347618D02*
X226492914Y-95442856D01*
X226492914Y-95442856D02*
X226540533Y-95538094D01*
X226683390Y-94395237D02*
X226635771Y-94490475D01*
X226635771Y-94490475D02*
X226588152Y-94538094D01*
X226588152Y-94538094D02*
X226492914Y-94585713D01*
X226492914Y-94585713D02*
X226445295Y-94585713D01*
X226445295Y-94585713D02*
X226350057Y-94538094D01*
X226350057Y-94538094D02*
X226302438Y-94490475D01*
X226302438Y-94490475D02*
X226254819Y-94395237D01*
X226254819Y-94395237D02*
X226254819Y-94204761D01*
X226254819Y-94204761D02*
X226302438Y-94109523D01*
X226302438Y-94109523D02*
X226350057Y-94061904D01*
X226350057Y-94061904D02*
X226445295Y-94014285D01*
X226445295Y-94014285D02*
X226492914Y-94014285D01*
X226492914Y-94014285D02*
X226588152Y-94061904D01*
X226588152Y-94061904D02*
X226635771Y-94109523D01*
X226635771Y-94109523D02*
X226683390Y-94204761D01*
X226683390Y-94204761D02*
X226683390Y-94395237D01*
X226683390Y-94395237D02*
X226731009Y-94490475D01*
X226731009Y-94490475D02*
X226778628Y-94538094D01*
X226778628Y-94538094D02*
X226873866Y-94585713D01*
X226873866Y-94585713D02*
X227064342Y-94585713D01*
X227064342Y-94585713D02*
X227159580Y-94538094D01*
X227159580Y-94538094D02*
X227207200Y-94490475D01*
X227207200Y-94490475D02*
X227254819Y-94395237D01*
X227254819Y-94395237D02*
X227254819Y-94204761D01*
X227254819Y-94204761D02*
X227207200Y-94109523D01*
X227207200Y-94109523D02*
X227159580Y-94061904D01*
X227159580Y-94061904D02*
X227064342Y-94014285D01*
X227064342Y-94014285D02*
X226873866Y-94014285D01*
X226873866Y-94014285D02*
X226778628Y-94061904D01*
X226778628Y-94061904D02*
X226731009Y-94109523D01*
X226731009Y-94109523D02*
X226683390Y-94204761D01*
X226731009Y-93252380D02*
X226778628Y-93109523D01*
X226778628Y-93109523D02*
X226826247Y-93061904D01*
X226826247Y-93061904D02*
X226921485Y-93014285D01*
X226921485Y-93014285D02*
X227064342Y-93014285D01*
X227064342Y-93014285D02*
X227159580Y-93061904D01*
X227159580Y-93061904D02*
X227207200Y-93109523D01*
X227207200Y-93109523D02*
X227254819Y-93204761D01*
X227254819Y-93204761D02*
X227254819Y-93585713D01*
X227254819Y-93585713D02*
X226254819Y-93585713D01*
X226254819Y-93585713D02*
X226254819Y-93252380D01*
X226254819Y-93252380D02*
X226302438Y-93157142D01*
X226302438Y-93157142D02*
X226350057Y-93109523D01*
X226350057Y-93109523D02*
X226445295Y-93061904D01*
X226445295Y-93061904D02*
X226540533Y-93061904D01*
X226540533Y-93061904D02*
X226635771Y-93109523D01*
X226635771Y-93109523D02*
X226683390Y-93157142D01*
X226683390Y-93157142D02*
X226731009Y-93252380D01*
X226731009Y-93252380D02*
X226731009Y-93585713D01*
X226350057Y-92633332D02*
X226302438Y-92585713D01*
X226302438Y-92585713D02*
X226254819Y-92490475D01*
X226254819Y-92490475D02*
X226254819Y-92252380D01*
X226254819Y-92252380D02*
X226302438Y-92157142D01*
X226302438Y-92157142D02*
X226350057Y-92109523D01*
X226350057Y-92109523D02*
X226445295Y-92061904D01*
X226445295Y-92061904D02*
X226540533Y-92061904D01*
X226540533Y-92061904D02*
X226683390Y-92109523D01*
X226683390Y-92109523D02*
X227254819Y-92680951D01*
X227254819Y-92680951D02*
X227254819Y-92061904D01*
X226254819Y-91442856D02*
X226254819Y-91347618D01*
X226254819Y-91347618D02*
X226302438Y-91252380D01*
X226302438Y-91252380D02*
X226350057Y-91204761D01*
X226350057Y-91204761D02*
X226445295Y-91157142D01*
X226445295Y-91157142D02*
X226635771Y-91109523D01*
X226635771Y-91109523D02*
X226873866Y-91109523D01*
X226873866Y-91109523D02*
X227064342Y-91157142D01*
X227064342Y-91157142D02*
X227159580Y-91204761D01*
X227159580Y-91204761D02*
X227207200Y-91252380D01*
X227207200Y-91252380D02*
X227254819Y-91347618D01*
X227254819Y-91347618D02*
X227254819Y-91442856D01*
X227254819Y-91442856D02*
X227207200Y-91538094D01*
X227207200Y-91538094D02*
X227159580Y-91585713D01*
X227159580Y-91585713D02*
X227064342Y-91633332D01*
X227064342Y-91633332D02*
X226873866Y-91680951D01*
X226873866Y-91680951D02*
X226635771Y-91680951D01*
X226635771Y-91680951D02*
X226445295Y-91633332D01*
X226445295Y-91633332D02*
X226350057Y-91585713D01*
X226350057Y-91585713D02*
X226302438Y-91538094D01*
X226302438Y-91538094D02*
X226254819Y-91442856D01*
X176354819Y-100109523D02*
X177069104Y-100109523D01*
X177069104Y-100109523D02*
X177211961Y-100157142D01*
X177211961Y-100157142D02*
X177307200Y-100252380D01*
X177307200Y-100252380D02*
X177354819Y-100395237D01*
X177354819Y-100395237D02*
X177354819Y-100490475D01*
X177354819Y-99109523D02*
X177354819Y-99680951D01*
X177354819Y-99395237D02*
X176354819Y-99395237D01*
X176354819Y-99395237D02*
X176497676Y-99490475D01*
X176497676Y-99490475D02*
X176592914Y-99585713D01*
X176592914Y-99585713D02*
X176640533Y-99680951D01*
X176354819Y-98490475D02*
X176354819Y-98395237D01*
X176354819Y-98395237D02*
X176402438Y-98299999D01*
X176402438Y-98299999D02*
X176450057Y-98252380D01*
X176450057Y-98252380D02*
X176545295Y-98204761D01*
X176545295Y-98204761D02*
X176735771Y-98157142D01*
X176735771Y-98157142D02*
X176973866Y-98157142D01*
X176973866Y-98157142D02*
X177164342Y-98204761D01*
X177164342Y-98204761D02*
X177259580Y-98252380D01*
X177259580Y-98252380D02*
X177307200Y-98299999D01*
X177307200Y-98299999D02*
X177354819Y-98395237D01*
X177354819Y-98395237D02*
X177354819Y-98490475D01*
X177354819Y-98490475D02*
X177307200Y-98585713D01*
X177307200Y-98585713D02*
X177259580Y-98633332D01*
X177259580Y-98633332D02*
X177164342Y-98680951D01*
X177164342Y-98680951D02*
X176973866Y-98728570D01*
X176973866Y-98728570D02*
X176735771Y-98728570D01*
X176735771Y-98728570D02*
X176545295Y-98680951D01*
X176545295Y-98680951D02*
X176450057Y-98633332D01*
X176450057Y-98633332D02*
X176402438Y-98585713D01*
X176402438Y-98585713D02*
X176354819Y-98490475D01*
X207799819Y-88766904D02*
X206799819Y-88766904D01*
X207276009Y-88766904D02*
X207276009Y-88195476D01*
X207799819Y-88195476D02*
X206799819Y-88195476D01*
X206799819Y-87290714D02*
X206799819Y-87481190D01*
X206799819Y-87481190D02*
X206847438Y-87576428D01*
X206847438Y-87576428D02*
X206895057Y-87624047D01*
X206895057Y-87624047D02*
X207037914Y-87719285D01*
X207037914Y-87719285D02*
X207228390Y-87766904D01*
X207228390Y-87766904D02*
X207609342Y-87766904D01*
X207609342Y-87766904D02*
X207704580Y-87719285D01*
X207704580Y-87719285D02*
X207752200Y-87671666D01*
X207752200Y-87671666D02*
X207799819Y-87576428D01*
X207799819Y-87576428D02*
X207799819Y-87385952D01*
X207799819Y-87385952D02*
X207752200Y-87290714D01*
X207752200Y-87290714D02*
X207704580Y-87243095D01*
X207704580Y-87243095D02*
X207609342Y-87195476D01*
X207609342Y-87195476D02*
X207371247Y-87195476D01*
X207371247Y-87195476D02*
X207276009Y-87243095D01*
X207276009Y-87243095D02*
X207228390Y-87290714D01*
X207228390Y-87290714D02*
X207180771Y-87385952D01*
X207180771Y-87385952D02*
X207180771Y-87576428D01*
X207180771Y-87576428D02*
X207228390Y-87671666D01*
X207228390Y-87671666D02*
X207276009Y-87719285D01*
X207276009Y-87719285D02*
X207371247Y-87766904D01*
X227407200Y-86076190D02*
X227454819Y-85933333D01*
X227454819Y-85933333D02*
X227454819Y-85695238D01*
X227454819Y-85695238D02*
X227407200Y-85600000D01*
X227407200Y-85600000D02*
X227359580Y-85552381D01*
X227359580Y-85552381D02*
X227264342Y-85504762D01*
X227264342Y-85504762D02*
X227169104Y-85504762D01*
X227169104Y-85504762D02*
X227073866Y-85552381D01*
X227073866Y-85552381D02*
X227026247Y-85600000D01*
X227026247Y-85600000D02*
X226978628Y-85695238D01*
X226978628Y-85695238D02*
X226931009Y-85885714D01*
X226931009Y-85885714D02*
X226883390Y-85980952D01*
X226883390Y-85980952D02*
X226835771Y-86028571D01*
X226835771Y-86028571D02*
X226740533Y-86076190D01*
X226740533Y-86076190D02*
X226645295Y-86076190D01*
X226645295Y-86076190D02*
X226550057Y-86028571D01*
X226550057Y-86028571D02*
X226502438Y-85980952D01*
X226502438Y-85980952D02*
X226454819Y-85885714D01*
X226454819Y-85885714D02*
X226454819Y-85647619D01*
X226454819Y-85647619D02*
X226502438Y-85504762D01*
X227454819Y-85076190D02*
X226454819Y-85076190D01*
X226931009Y-85076190D02*
X226931009Y-84504762D01*
X227454819Y-84504762D02*
X226454819Y-84504762D01*
X226454819Y-84171428D02*
X226454819Y-83600000D01*
X227454819Y-83885714D02*
X226454819Y-83885714D01*
X226788152Y-82838095D02*
X227454819Y-82838095D01*
X226407200Y-83076190D02*
X227121485Y-83314285D01*
X227121485Y-83314285D02*
X227121485Y-82695238D01*
X226454819Y-82123809D02*
X226454819Y-82028571D01*
X226454819Y-82028571D02*
X226502438Y-81933333D01*
X226502438Y-81933333D02*
X226550057Y-81885714D01*
X226550057Y-81885714D02*
X226645295Y-81838095D01*
X226645295Y-81838095D02*
X226835771Y-81790476D01*
X226835771Y-81790476D02*
X227073866Y-81790476D01*
X227073866Y-81790476D02*
X227264342Y-81838095D01*
X227264342Y-81838095D02*
X227359580Y-81885714D01*
X227359580Y-81885714D02*
X227407200Y-81933333D01*
X227407200Y-81933333D02*
X227454819Y-82028571D01*
X227454819Y-82028571D02*
X227454819Y-82123809D01*
X227454819Y-82123809D02*
X227407200Y-82219047D01*
X227407200Y-82219047D02*
X227359580Y-82266666D01*
X227359580Y-82266666D02*
X227264342Y-82314285D01*
X227264342Y-82314285D02*
X227073866Y-82361904D01*
X227073866Y-82361904D02*
X226835771Y-82361904D01*
X226835771Y-82361904D02*
X226645295Y-82314285D01*
X226645295Y-82314285D02*
X226550057Y-82266666D01*
X226550057Y-82266666D02*
X226502438Y-82219047D01*
X226502438Y-82219047D02*
X226454819Y-82123809D01*
X227169104Y-80647618D02*
X227169104Y-80171428D01*
X227454819Y-80742856D02*
X226454819Y-80409523D01*
X226454819Y-80409523D02*
X227454819Y-80076190D01*
X227454819Y-79742856D02*
X226788152Y-79742856D01*
X226883390Y-79742856D02*
X226835771Y-79695237D01*
X226835771Y-79695237D02*
X226788152Y-79599999D01*
X226788152Y-79599999D02*
X226788152Y-79457142D01*
X226788152Y-79457142D02*
X226835771Y-79361904D01*
X226835771Y-79361904D02*
X226931009Y-79314285D01*
X226931009Y-79314285D02*
X227454819Y-79314285D01*
X226931009Y-79314285D02*
X226835771Y-79266666D01*
X226835771Y-79266666D02*
X226788152Y-79171428D01*
X226788152Y-79171428D02*
X226788152Y-79028571D01*
X226788152Y-79028571D02*
X226835771Y-78933332D01*
X226835771Y-78933332D02*
X226931009Y-78885713D01*
X226931009Y-78885713D02*
X227454819Y-78885713D01*
X227454819Y-78409523D02*
X226454819Y-78409523D01*
X226835771Y-78409523D02*
X226788152Y-78314285D01*
X226788152Y-78314285D02*
X226788152Y-78123809D01*
X226788152Y-78123809D02*
X226835771Y-78028571D01*
X226835771Y-78028571D02*
X226883390Y-77980952D01*
X226883390Y-77980952D02*
X226978628Y-77933333D01*
X226978628Y-77933333D02*
X227264342Y-77933333D01*
X227264342Y-77933333D02*
X227359580Y-77980952D01*
X227359580Y-77980952D02*
X227407200Y-78028571D01*
X227407200Y-78028571D02*
X227454819Y-78123809D01*
X227454819Y-78123809D02*
X227454819Y-78314285D01*
X227454819Y-78314285D02*
X227407200Y-78409523D01*
X227454819Y-77504761D02*
X226788152Y-77504761D01*
X226454819Y-77504761D02*
X226502438Y-77552380D01*
X226502438Y-77552380D02*
X226550057Y-77504761D01*
X226550057Y-77504761D02*
X226502438Y-77457142D01*
X226502438Y-77457142D02*
X226454819Y-77504761D01*
X226454819Y-77504761D02*
X226550057Y-77504761D01*
X227407200Y-76647619D02*
X227454819Y-76742857D01*
X227454819Y-76742857D02*
X227454819Y-76933333D01*
X227454819Y-76933333D02*
X227407200Y-77028571D01*
X227407200Y-77028571D02*
X227311961Y-77076190D01*
X227311961Y-77076190D02*
X226931009Y-77076190D01*
X226931009Y-77076190D02*
X226835771Y-77028571D01*
X226835771Y-77028571D02*
X226788152Y-76933333D01*
X226788152Y-76933333D02*
X226788152Y-76742857D01*
X226788152Y-76742857D02*
X226835771Y-76647619D01*
X226835771Y-76647619D02*
X226931009Y-76600000D01*
X226931009Y-76600000D02*
X227026247Y-76600000D01*
X227026247Y-76600000D02*
X227121485Y-77076190D01*
X226788152Y-76171428D02*
X227454819Y-76171428D01*
X226883390Y-76171428D02*
X226835771Y-76123809D01*
X226835771Y-76123809D02*
X226788152Y-76028571D01*
X226788152Y-76028571D02*
X226788152Y-75885714D01*
X226788152Y-75885714D02*
X226835771Y-75790476D01*
X226835771Y-75790476D02*
X226931009Y-75742857D01*
X226931009Y-75742857D02*
X227454819Y-75742857D01*
X226788152Y-75409523D02*
X226788152Y-75028571D01*
X226454819Y-75266666D02*
X227311961Y-75266666D01*
X227311961Y-75266666D02*
X227407200Y-75219047D01*
X227407200Y-75219047D02*
X227454819Y-75123809D01*
X227454819Y-75123809D02*
X227454819Y-75028571D01*
X227204819Y-63571428D02*
X226728628Y-63904761D01*
X227204819Y-64142856D02*
X226204819Y-64142856D01*
X226204819Y-64142856D02*
X226204819Y-63761904D01*
X226204819Y-63761904D02*
X226252438Y-63666666D01*
X226252438Y-63666666D02*
X226300057Y-63619047D01*
X226300057Y-63619047D02*
X226395295Y-63571428D01*
X226395295Y-63571428D02*
X226538152Y-63571428D01*
X226538152Y-63571428D02*
X226633390Y-63619047D01*
X226633390Y-63619047D02*
X226681009Y-63666666D01*
X226681009Y-63666666D02*
X226728628Y-63761904D01*
X226728628Y-63761904D02*
X226728628Y-64142856D01*
X226204819Y-63285713D02*
X226204819Y-62714285D01*
X227204819Y-62999999D02*
X226204819Y-62999999D01*
X227109580Y-61809523D02*
X227157200Y-61857142D01*
X227157200Y-61857142D02*
X227204819Y-61999999D01*
X227204819Y-61999999D02*
X227204819Y-62095237D01*
X227204819Y-62095237D02*
X227157200Y-62238094D01*
X227157200Y-62238094D02*
X227061961Y-62333332D01*
X227061961Y-62333332D02*
X226966723Y-62380951D01*
X226966723Y-62380951D02*
X226776247Y-62428570D01*
X226776247Y-62428570D02*
X226633390Y-62428570D01*
X226633390Y-62428570D02*
X226442914Y-62380951D01*
X226442914Y-62380951D02*
X226347676Y-62333332D01*
X226347676Y-62333332D02*
X226252438Y-62238094D01*
X226252438Y-62238094D02*
X226204819Y-62095237D01*
X226204819Y-62095237D02*
X226204819Y-61999999D01*
X226204819Y-61999999D02*
X226252438Y-61857142D01*
X226252438Y-61857142D02*
X226300057Y-61809523D01*
X227154819Y-109880951D02*
X226488152Y-109880951D01*
X226154819Y-109880951D02*
X226202438Y-109928570D01*
X226202438Y-109928570D02*
X226250057Y-109880951D01*
X226250057Y-109880951D02*
X226202438Y-109833332D01*
X226202438Y-109833332D02*
X226154819Y-109880951D01*
X226154819Y-109880951D02*
X226250057Y-109880951D01*
X226250057Y-109452380D02*
X226202438Y-109404761D01*
X226202438Y-109404761D02*
X226154819Y-109309523D01*
X226154819Y-109309523D02*
X226154819Y-109071428D01*
X226154819Y-109071428D02*
X226202438Y-108976190D01*
X226202438Y-108976190D02*
X226250057Y-108928571D01*
X226250057Y-108928571D02*
X226345295Y-108880952D01*
X226345295Y-108880952D02*
X226440533Y-108880952D01*
X226440533Y-108880952D02*
X226583390Y-108928571D01*
X226583390Y-108928571D02*
X227154819Y-109499999D01*
X227154819Y-109499999D02*
X227154819Y-108880952D01*
X227107200Y-108023809D02*
X227154819Y-108119047D01*
X227154819Y-108119047D02*
X227154819Y-108309523D01*
X227154819Y-108309523D02*
X227107200Y-108404761D01*
X227107200Y-108404761D02*
X227059580Y-108452380D01*
X227059580Y-108452380D02*
X226964342Y-108499999D01*
X226964342Y-108499999D02*
X226678628Y-108499999D01*
X226678628Y-108499999D02*
X226583390Y-108452380D01*
X226583390Y-108452380D02*
X226535771Y-108404761D01*
X226535771Y-108404761D02*
X226488152Y-108309523D01*
X226488152Y-108309523D02*
X226488152Y-108119047D01*
X226488152Y-108119047D02*
X226535771Y-108023809D01*
X227154819Y-107071428D02*
X227154819Y-107642856D01*
X227154819Y-107357142D02*
X226154819Y-107357142D01*
X226154819Y-107357142D02*
X226297676Y-107452380D01*
X226297676Y-107452380D02*
X226392914Y-107547618D01*
X226392914Y-107547618D02*
X226440533Y-107642856D01*
X186166666Y-126804819D02*
X186166666Y-127519104D01*
X186166666Y-127519104D02*
X186119047Y-127661961D01*
X186119047Y-127661961D02*
X186023809Y-127757200D01*
X186023809Y-127757200D02*
X185880952Y-127804819D01*
X185880952Y-127804819D02*
X185785714Y-127804819D01*
X186690476Y-127804819D02*
X186880952Y-127804819D01*
X186880952Y-127804819D02*
X186976190Y-127757200D01*
X186976190Y-127757200D02*
X187023809Y-127709580D01*
X187023809Y-127709580D02*
X187119047Y-127566723D01*
X187119047Y-127566723D02*
X187166666Y-127376247D01*
X187166666Y-127376247D02*
X187166666Y-126995295D01*
X187166666Y-126995295D02*
X187119047Y-126900057D01*
X187119047Y-126900057D02*
X187071428Y-126852438D01*
X187071428Y-126852438D02*
X186976190Y-126804819D01*
X186976190Y-126804819D02*
X186785714Y-126804819D01*
X186785714Y-126804819D02*
X186690476Y-126852438D01*
X186690476Y-126852438D02*
X186642857Y-126900057D01*
X186642857Y-126900057D02*
X186595238Y-126995295D01*
X186595238Y-126995295D02*
X186595238Y-127233390D01*
X186595238Y-127233390D02*
X186642857Y-127328628D01*
X186642857Y-127328628D02*
X186690476Y-127376247D01*
X186690476Y-127376247D02*
X186785714Y-127423866D01*
X186785714Y-127423866D02*
X186976190Y-127423866D01*
X186976190Y-127423866D02*
X187071428Y-127376247D01*
X187071428Y-127376247D02*
X187119047Y-127328628D01*
X187119047Y-127328628D02*
X187166666Y-127233390D01*
X180476190Y-109407200D02*
X180619047Y-109454819D01*
X180619047Y-109454819D02*
X180857142Y-109454819D01*
X180857142Y-109454819D02*
X180952380Y-109407200D01*
X180952380Y-109407200D02*
X180999999Y-109359580D01*
X180999999Y-109359580D02*
X181047618Y-109264342D01*
X181047618Y-109264342D02*
X181047618Y-109169104D01*
X181047618Y-109169104D02*
X180999999Y-109073866D01*
X180999999Y-109073866D02*
X180952380Y-109026247D01*
X180952380Y-109026247D02*
X180857142Y-108978628D01*
X180857142Y-108978628D02*
X180666666Y-108931009D01*
X180666666Y-108931009D02*
X180571428Y-108883390D01*
X180571428Y-108883390D02*
X180523809Y-108835771D01*
X180523809Y-108835771D02*
X180476190Y-108740533D01*
X180476190Y-108740533D02*
X180476190Y-108645295D01*
X180476190Y-108645295D02*
X180523809Y-108550057D01*
X180523809Y-108550057D02*
X180571428Y-108502438D01*
X180571428Y-108502438D02*
X180666666Y-108454819D01*
X180666666Y-108454819D02*
X180904761Y-108454819D01*
X180904761Y-108454819D02*
X181047618Y-108502438D01*
X181476190Y-109454819D02*
X181476190Y-108454819D01*
X181476190Y-108454819D02*
X181714285Y-108454819D01*
X181714285Y-108454819D02*
X181857142Y-108502438D01*
X181857142Y-108502438D02*
X181952380Y-108597676D01*
X181952380Y-108597676D02*
X181999999Y-108692914D01*
X181999999Y-108692914D02*
X182047618Y-108883390D01*
X182047618Y-108883390D02*
X182047618Y-109026247D01*
X182047618Y-109026247D02*
X181999999Y-109216723D01*
X181999999Y-109216723D02*
X181952380Y-109311961D01*
X181952380Y-109311961D02*
X181857142Y-109407200D01*
X181857142Y-109407200D02*
X181714285Y-109454819D01*
X181714285Y-109454819D02*
X181476190Y-109454819D01*
X182476190Y-109073866D02*
X183238095Y-109073866D01*
X183714285Y-109454819D02*
X183714285Y-108454819D01*
X183714285Y-108454819D02*
X184047618Y-109169104D01*
X184047618Y-109169104D02*
X184380951Y-108454819D01*
X184380951Y-108454819D02*
X184380951Y-109454819D01*
X184999999Y-109454819D02*
X184904761Y-109407200D01*
X184904761Y-109407200D02*
X184857142Y-109359580D01*
X184857142Y-109359580D02*
X184809523Y-109264342D01*
X184809523Y-109264342D02*
X184809523Y-108978628D01*
X184809523Y-108978628D02*
X184857142Y-108883390D01*
X184857142Y-108883390D02*
X184904761Y-108835771D01*
X184904761Y-108835771D02*
X184999999Y-108788152D01*
X184999999Y-108788152D02*
X185142856Y-108788152D01*
X185142856Y-108788152D02*
X185238094Y-108835771D01*
X185238094Y-108835771D02*
X185285713Y-108883390D01*
X185285713Y-108883390D02*
X185333332Y-108978628D01*
X185333332Y-108978628D02*
X185333332Y-109264342D01*
X185333332Y-109264342D02*
X185285713Y-109359580D01*
X185285713Y-109359580D02*
X185238094Y-109407200D01*
X185238094Y-109407200D02*
X185142856Y-109454819D01*
X185142856Y-109454819D02*
X184999999Y-109454819D01*
X186190475Y-109454819D02*
X186190475Y-108454819D01*
X186190475Y-109407200D02*
X186095237Y-109454819D01*
X186095237Y-109454819D02*
X185904761Y-109454819D01*
X185904761Y-109454819D02*
X185809523Y-109407200D01*
X185809523Y-109407200D02*
X185761904Y-109359580D01*
X185761904Y-109359580D02*
X185714285Y-109264342D01*
X185714285Y-109264342D02*
X185714285Y-108978628D01*
X185714285Y-108978628D02*
X185761904Y-108883390D01*
X185761904Y-108883390D02*
X185809523Y-108835771D01*
X185809523Y-108835771D02*
X185904761Y-108788152D01*
X185904761Y-108788152D02*
X186095237Y-108788152D01*
X186095237Y-108788152D02*
X186190475Y-108835771D01*
X187095237Y-108788152D02*
X187095237Y-109454819D01*
X186666666Y-108788152D02*
X186666666Y-109311961D01*
X186666666Y-109311961D02*
X186714285Y-109407200D01*
X186714285Y-109407200D02*
X186809523Y-109454819D01*
X186809523Y-109454819D02*
X186952380Y-109454819D01*
X186952380Y-109454819D02*
X187047618Y-109407200D01*
X187047618Y-109407200D02*
X187095237Y-109359580D01*
X187714285Y-109454819D02*
X187619047Y-109407200D01*
X187619047Y-109407200D02*
X187571428Y-109311961D01*
X187571428Y-109311961D02*
X187571428Y-108454819D01*
X188476190Y-109407200D02*
X188380952Y-109454819D01*
X188380952Y-109454819D02*
X188190476Y-109454819D01*
X188190476Y-109454819D02*
X188095238Y-109407200D01*
X188095238Y-109407200D02*
X188047619Y-109311961D01*
X188047619Y-109311961D02*
X188047619Y-108931009D01*
X188047619Y-108931009D02*
X188095238Y-108835771D01*
X188095238Y-108835771D02*
X188190476Y-108788152D01*
X188190476Y-108788152D02*
X188380952Y-108788152D01*
X188380952Y-108788152D02*
X188476190Y-108835771D01*
X188476190Y-108835771D02*
X188523809Y-108931009D01*
X188523809Y-108931009D02*
X188523809Y-109026247D01*
X188523809Y-109026247D02*
X188047619Y-109121485D01*
X210719048Y-119682200D02*
X210861905Y-119729819D01*
X210861905Y-119729819D02*
X211100000Y-119729819D01*
X211100000Y-119729819D02*
X211195238Y-119682200D01*
X211195238Y-119682200D02*
X211242857Y-119634580D01*
X211242857Y-119634580D02*
X211290476Y-119539342D01*
X211290476Y-119539342D02*
X211290476Y-119444104D01*
X211290476Y-119444104D02*
X211242857Y-119348866D01*
X211242857Y-119348866D02*
X211195238Y-119301247D01*
X211195238Y-119301247D02*
X211100000Y-119253628D01*
X211100000Y-119253628D02*
X210909524Y-119206009D01*
X210909524Y-119206009D02*
X210814286Y-119158390D01*
X210814286Y-119158390D02*
X210766667Y-119110771D01*
X210766667Y-119110771D02*
X210719048Y-119015533D01*
X210719048Y-119015533D02*
X210719048Y-118920295D01*
X210719048Y-118920295D02*
X210766667Y-118825057D01*
X210766667Y-118825057D02*
X210814286Y-118777438D01*
X210814286Y-118777438D02*
X210909524Y-118729819D01*
X210909524Y-118729819D02*
X211147619Y-118729819D01*
X211147619Y-118729819D02*
X211290476Y-118777438D01*
X212290476Y-119634580D02*
X212242857Y-119682200D01*
X212242857Y-119682200D02*
X212100000Y-119729819D01*
X212100000Y-119729819D02*
X212004762Y-119729819D01*
X212004762Y-119729819D02*
X211861905Y-119682200D01*
X211861905Y-119682200D02*
X211766667Y-119586961D01*
X211766667Y-119586961D02*
X211719048Y-119491723D01*
X211719048Y-119491723D02*
X211671429Y-119301247D01*
X211671429Y-119301247D02*
X211671429Y-119158390D01*
X211671429Y-119158390D02*
X211719048Y-118967914D01*
X211719048Y-118967914D02*
X211766667Y-118872676D01*
X211766667Y-118872676D02*
X211861905Y-118777438D01*
X211861905Y-118777438D02*
X212004762Y-118729819D01*
X212004762Y-118729819D02*
X212100000Y-118729819D01*
X212100000Y-118729819D02*
X212242857Y-118777438D01*
X212242857Y-118777438D02*
X212290476Y-118825057D01*
X213195238Y-119729819D02*
X212719048Y-119729819D01*
X212719048Y-119729819D02*
X212719048Y-118729819D01*
X213528572Y-119348866D02*
X214290477Y-119348866D01*
X215195238Y-119063152D02*
X215195238Y-119729819D01*
X214957143Y-118682200D02*
X214719048Y-119396485D01*
X214719048Y-119396485D02*
X215338095Y-119396485D01*
X215719048Y-119634580D02*
X215766667Y-119682200D01*
X215766667Y-119682200D02*
X215719048Y-119729819D01*
X215719048Y-119729819D02*
X215671429Y-119682200D01*
X215671429Y-119682200D02*
X215719048Y-119634580D01*
X215719048Y-119634580D02*
X215719048Y-119729819D01*
X216100000Y-118729819D02*
X216766666Y-118729819D01*
X216766666Y-118729819D02*
X216338095Y-119729819D01*
X217147619Y-119729819D02*
X217147619Y-118729819D01*
X217242857Y-119348866D02*
X217528571Y-119729819D01*
X217528571Y-119063152D02*
X217147619Y-119444104D01*
X218480952Y-119729819D02*
X217909524Y-119729819D01*
X218195238Y-119729819D02*
X218195238Y-118729819D01*
X218195238Y-118729819D02*
X218100000Y-118872676D01*
X218100000Y-118872676D02*
X218004762Y-118967914D01*
X218004762Y-118967914D02*
X217909524Y-119015533D01*
X222238095Y-41304819D02*
X222238095Y-40304819D01*
X222238095Y-40781009D02*
X222809523Y-40781009D01*
X222809523Y-41304819D02*
X222809523Y-40304819D01*
X223238095Y-40400057D02*
X223285714Y-40352438D01*
X223285714Y-40352438D02*
X223380952Y-40304819D01*
X223380952Y-40304819D02*
X223619047Y-40304819D01*
X223619047Y-40304819D02*
X223714285Y-40352438D01*
X223714285Y-40352438D02*
X223761904Y-40400057D01*
X223761904Y-40400057D02*
X223809523Y-40495295D01*
X223809523Y-40495295D02*
X223809523Y-40590533D01*
X223809523Y-40590533D02*
X223761904Y-40733390D01*
X223761904Y-40733390D02*
X223190476Y-41304819D01*
X223190476Y-41304819D02*
X223809523Y-41304819D01*
X211834819Y-102976190D02*
X211834819Y-103547618D01*
X211834819Y-103261904D02*
X210834819Y-103261904D01*
X210834819Y-103261904D02*
X210977676Y-103357142D01*
X210977676Y-103357142D02*
X211072914Y-103452380D01*
X211072914Y-103452380D02*
X211120533Y-103547618D01*
X210834819Y-102642856D02*
X211834819Y-102404761D01*
X211834819Y-102404761D02*
X211120533Y-102214285D01*
X211120533Y-102214285D02*
X211834819Y-102023809D01*
X211834819Y-102023809D02*
X210834819Y-101785714D01*
X211453866Y-101404761D02*
X211453866Y-100642857D01*
X211168152Y-99738095D02*
X211834819Y-99738095D01*
X210787200Y-99976190D02*
X211501485Y-100214285D01*
X211501485Y-100214285D02*
X211501485Y-99595238D01*
X211739580Y-99214285D02*
X211787200Y-99166666D01*
X211787200Y-99166666D02*
X211834819Y-99214285D01*
X211834819Y-99214285D02*
X211787200Y-99261904D01*
X211787200Y-99261904D02*
X211739580Y-99214285D01*
X211739580Y-99214285D02*
X211834819Y-99214285D01*
X210834819Y-98833333D02*
X210834819Y-98166667D01*
X210834819Y-98166667D02*
X211834819Y-98595238D01*
X211834819Y-97785714D02*
X210834819Y-97785714D01*
X211453866Y-97690476D02*
X211834819Y-97404762D01*
X211168152Y-97404762D02*
X211549104Y-97785714D01*
X211834819Y-96452381D02*
X211834819Y-97023809D01*
X211834819Y-96738095D02*
X210834819Y-96738095D01*
X210834819Y-96738095D02*
X210977676Y-96833333D01*
X210977676Y-96833333D02*
X211072914Y-96928571D01*
X211072914Y-96928571D02*
X211120533Y-97023809D01*
X182434819Y-54123333D02*
X183149104Y-54123333D01*
X183149104Y-54123333D02*
X183291961Y-54170952D01*
X183291961Y-54170952D02*
X183387200Y-54266190D01*
X183387200Y-54266190D02*
X183434819Y-54409047D01*
X183434819Y-54409047D02*
X183434819Y-54504285D01*
X182434819Y-53218571D02*
X182434819Y-53409047D01*
X182434819Y-53409047D02*
X182482438Y-53504285D01*
X182482438Y-53504285D02*
X182530057Y-53551904D01*
X182530057Y-53551904D02*
X182672914Y-53647142D01*
X182672914Y-53647142D02*
X182863390Y-53694761D01*
X182863390Y-53694761D02*
X183244342Y-53694761D01*
X183244342Y-53694761D02*
X183339580Y-53647142D01*
X183339580Y-53647142D02*
X183387200Y-53599523D01*
X183387200Y-53599523D02*
X183434819Y-53504285D01*
X183434819Y-53504285D02*
X183434819Y-53313809D01*
X183434819Y-53313809D02*
X183387200Y-53218571D01*
X183387200Y-53218571D02*
X183339580Y-53170952D01*
X183339580Y-53170952D02*
X183244342Y-53123333D01*
X183244342Y-53123333D02*
X183006247Y-53123333D01*
X183006247Y-53123333D02*
X182911009Y-53170952D01*
X182911009Y-53170952D02*
X182863390Y-53218571D01*
X182863390Y-53218571D02*
X182815771Y-53313809D01*
X182815771Y-53313809D02*
X182815771Y-53504285D01*
X182815771Y-53504285D02*
X182863390Y-53599523D01*
X182863390Y-53599523D02*
X182911009Y-53647142D01*
X182911009Y-53647142D02*
X183006247Y-53694761D01*
X172638095Y-127054819D02*
X172638095Y-126054819D01*
X172638095Y-126531009D02*
X173209523Y-126531009D01*
X173209523Y-127054819D02*
X173209523Y-126054819D01*
X173590476Y-126054819D02*
X174209523Y-126054819D01*
X174209523Y-126054819D02*
X173876190Y-126435771D01*
X173876190Y-126435771D02*
X174019047Y-126435771D01*
X174019047Y-126435771D02*
X174114285Y-126483390D01*
X174114285Y-126483390D02*
X174161904Y-126531009D01*
X174161904Y-126531009D02*
X174209523Y-126626247D01*
X174209523Y-126626247D02*
X174209523Y-126864342D01*
X174209523Y-126864342D02*
X174161904Y-126959580D01*
X174161904Y-126959580D02*
X174114285Y-127007200D01*
X174114285Y-127007200D02*
X174019047Y-127054819D01*
X174019047Y-127054819D02*
X173733333Y-127054819D01*
X173733333Y-127054819D02*
X173638095Y-127007200D01*
X173638095Y-127007200D02*
X173590476Y-126959580D01*
X187479819Y-102114523D02*
X188194104Y-102114523D01*
X188194104Y-102114523D02*
X188336961Y-102162142D01*
X188336961Y-102162142D02*
X188432200Y-102257380D01*
X188432200Y-102257380D02*
X188479819Y-102400237D01*
X188479819Y-102400237D02*
X188479819Y-102495475D01*
X187575057Y-101685951D02*
X187527438Y-101638332D01*
X187527438Y-101638332D02*
X187479819Y-101543094D01*
X187479819Y-101543094D02*
X187479819Y-101304999D01*
X187479819Y-101304999D02*
X187527438Y-101209761D01*
X187527438Y-101209761D02*
X187575057Y-101162142D01*
X187575057Y-101162142D02*
X187670295Y-101114523D01*
X187670295Y-101114523D02*
X187765533Y-101114523D01*
X187765533Y-101114523D02*
X187908390Y-101162142D01*
X187908390Y-101162142D02*
X188479819Y-101733570D01*
X188479819Y-101733570D02*
X188479819Y-101114523D01*
X188479819Y-100162142D02*
X188479819Y-100733570D01*
X188479819Y-100447856D02*
X187479819Y-100447856D01*
X187479819Y-100447856D02*
X187622676Y-100543094D01*
X187622676Y-100543094D02*
X187717914Y-100638332D01*
X187717914Y-100638332D02*
X187765533Y-100733570D01*
X177238095Y-41304819D02*
X177238095Y-40304819D01*
X177238095Y-40781009D02*
X177809523Y-40781009D01*
X177809523Y-41304819D02*
X177809523Y-40304819D01*
X178809523Y-41304819D02*
X178238095Y-41304819D01*
X178523809Y-41304819D02*
X178523809Y-40304819D01*
X178523809Y-40304819D02*
X178428571Y-40447676D01*
X178428571Y-40447676D02*
X178333333Y-40542914D01*
X178333333Y-40542914D02*
X178238095Y-40590533D01*
X187299819Y-88866904D02*
X186299819Y-88866904D01*
X186776009Y-88866904D02*
X186776009Y-88295476D01*
X187299819Y-88295476D02*
X186299819Y-88295476D01*
X186728390Y-87676428D02*
X186680771Y-87771666D01*
X186680771Y-87771666D02*
X186633152Y-87819285D01*
X186633152Y-87819285D02*
X186537914Y-87866904D01*
X186537914Y-87866904D02*
X186490295Y-87866904D01*
X186490295Y-87866904D02*
X186395057Y-87819285D01*
X186395057Y-87819285D02*
X186347438Y-87771666D01*
X186347438Y-87771666D02*
X186299819Y-87676428D01*
X186299819Y-87676428D02*
X186299819Y-87485952D01*
X186299819Y-87485952D02*
X186347438Y-87390714D01*
X186347438Y-87390714D02*
X186395057Y-87343095D01*
X186395057Y-87343095D02*
X186490295Y-87295476D01*
X186490295Y-87295476D02*
X186537914Y-87295476D01*
X186537914Y-87295476D02*
X186633152Y-87343095D01*
X186633152Y-87343095D02*
X186680771Y-87390714D01*
X186680771Y-87390714D02*
X186728390Y-87485952D01*
X186728390Y-87485952D02*
X186728390Y-87676428D01*
X186728390Y-87676428D02*
X186776009Y-87771666D01*
X186776009Y-87771666D02*
X186823628Y-87819285D01*
X186823628Y-87819285D02*
X186918866Y-87866904D01*
X186918866Y-87866904D02*
X187109342Y-87866904D01*
X187109342Y-87866904D02*
X187204580Y-87819285D01*
X187204580Y-87819285D02*
X187252200Y-87771666D01*
X187252200Y-87771666D02*
X187299819Y-87676428D01*
X187299819Y-87676428D02*
X187299819Y-87485952D01*
X187299819Y-87485952D02*
X187252200Y-87390714D01*
X187252200Y-87390714D02*
X187204580Y-87343095D01*
X187204580Y-87343095D02*
X187109342Y-87295476D01*
X187109342Y-87295476D02*
X186918866Y-87295476D01*
X186918866Y-87295476D02*
X186823628Y-87343095D01*
X186823628Y-87343095D02*
X186776009Y-87390714D01*
X186776009Y-87390714D02*
X186728390Y-87485952D01*
X179066667Y-100197200D02*
X179209524Y-100244819D01*
X179209524Y-100244819D02*
X179447619Y-100244819D01*
X179447619Y-100244819D02*
X179542857Y-100197200D01*
X179542857Y-100197200D02*
X179590476Y-100149580D01*
X179590476Y-100149580D02*
X179638095Y-100054342D01*
X179638095Y-100054342D02*
X179638095Y-99959104D01*
X179638095Y-99959104D02*
X179590476Y-99863866D01*
X179590476Y-99863866D02*
X179542857Y-99816247D01*
X179542857Y-99816247D02*
X179447619Y-99768628D01*
X179447619Y-99768628D02*
X179257143Y-99721009D01*
X179257143Y-99721009D02*
X179161905Y-99673390D01*
X179161905Y-99673390D02*
X179114286Y-99625771D01*
X179114286Y-99625771D02*
X179066667Y-99530533D01*
X179066667Y-99530533D02*
X179066667Y-99435295D01*
X179066667Y-99435295D02*
X179114286Y-99340057D01*
X179114286Y-99340057D02*
X179161905Y-99292438D01*
X179161905Y-99292438D02*
X179257143Y-99244819D01*
X179257143Y-99244819D02*
X179495238Y-99244819D01*
X179495238Y-99244819D02*
X179638095Y-99292438D01*
X179971429Y-99244819D02*
X180209524Y-100244819D01*
X180209524Y-100244819D02*
X180400000Y-99530533D01*
X180400000Y-99530533D02*
X180590476Y-100244819D01*
X180590476Y-100244819D02*
X180828572Y-99244819D01*
X181733333Y-100244819D02*
X181161905Y-100244819D01*
X181447619Y-100244819D02*
X181447619Y-99244819D01*
X181447619Y-99244819D02*
X181352381Y-99387676D01*
X181352381Y-99387676D02*
X181257143Y-99482914D01*
X181257143Y-99482914D02*
X181161905Y-99530533D01*
X222238095Y-121304819D02*
X222238095Y-120304819D01*
X222238095Y-120781009D02*
X222809523Y-120781009D01*
X222809523Y-121304819D02*
X222809523Y-120304819D01*
X223714285Y-120638152D02*
X223714285Y-121304819D01*
X223476190Y-120257200D02*
X223238095Y-120971485D01*
X223238095Y-120971485D02*
X223857142Y-120971485D01*
X199998095Y-109204819D02*
X199998095Y-110014342D01*
X199998095Y-110014342D02*
X200045714Y-110109580D01*
X200045714Y-110109580D02*
X200093333Y-110157200D01*
X200093333Y-110157200D02*
X200188571Y-110204819D01*
X200188571Y-110204819D02*
X200379047Y-110204819D01*
X200379047Y-110204819D02*
X200474285Y-110157200D01*
X200474285Y-110157200D02*
X200521904Y-110109580D01*
X200521904Y-110109580D02*
X200569523Y-110014342D01*
X200569523Y-110014342D02*
X200569523Y-109204819D01*
X201569523Y-110204819D02*
X200998095Y-110204819D01*
X201283809Y-110204819D02*
X201283809Y-109204819D01*
X201283809Y-109204819D02*
X201188571Y-109347676D01*
X201188571Y-109347676D02*
X201093333Y-109442914D01*
X201093333Y-109442914D02*
X200998095Y-109490533D01*
X210595238Y-121287200D02*
X210738095Y-121334819D01*
X210738095Y-121334819D02*
X210976190Y-121334819D01*
X210976190Y-121334819D02*
X211071428Y-121287200D01*
X211071428Y-121287200D02*
X211119047Y-121239580D01*
X211119047Y-121239580D02*
X211166666Y-121144342D01*
X211166666Y-121144342D02*
X211166666Y-121049104D01*
X211166666Y-121049104D02*
X211119047Y-120953866D01*
X211119047Y-120953866D02*
X211071428Y-120906247D01*
X211071428Y-120906247D02*
X210976190Y-120858628D01*
X210976190Y-120858628D02*
X210785714Y-120811009D01*
X210785714Y-120811009D02*
X210690476Y-120763390D01*
X210690476Y-120763390D02*
X210642857Y-120715771D01*
X210642857Y-120715771D02*
X210595238Y-120620533D01*
X210595238Y-120620533D02*
X210595238Y-120525295D01*
X210595238Y-120525295D02*
X210642857Y-120430057D01*
X210642857Y-120430057D02*
X210690476Y-120382438D01*
X210690476Y-120382438D02*
X210785714Y-120334819D01*
X210785714Y-120334819D02*
X211023809Y-120334819D01*
X211023809Y-120334819D02*
X211166666Y-120382438D01*
X211595238Y-121334819D02*
X211595238Y-120334819D01*
X211595238Y-120334819D02*
X211833333Y-120334819D01*
X211833333Y-120334819D02*
X211976190Y-120382438D01*
X211976190Y-120382438D02*
X212071428Y-120477676D01*
X212071428Y-120477676D02*
X212119047Y-120572914D01*
X212119047Y-120572914D02*
X212166666Y-120763390D01*
X212166666Y-120763390D02*
X212166666Y-120906247D01*
X212166666Y-120906247D02*
X212119047Y-121096723D01*
X212119047Y-121096723D02*
X212071428Y-121191961D01*
X212071428Y-121191961D02*
X211976190Y-121287200D01*
X211976190Y-121287200D02*
X211833333Y-121334819D01*
X211833333Y-121334819D02*
X211595238Y-121334819D01*
X212547619Y-121049104D02*
X213023809Y-121049104D01*
X212452381Y-121334819D02*
X212785714Y-120334819D01*
X212785714Y-120334819D02*
X213119047Y-121334819D01*
X213452381Y-120953866D02*
X214214286Y-120953866D01*
X215119047Y-120668152D02*
X215119047Y-121334819D01*
X214880952Y-120287200D02*
X214642857Y-121001485D01*
X214642857Y-121001485D02*
X215261904Y-121001485D01*
X215642857Y-121239580D02*
X215690476Y-121287200D01*
X215690476Y-121287200D02*
X215642857Y-121334819D01*
X215642857Y-121334819D02*
X215595238Y-121287200D01*
X215595238Y-121287200D02*
X215642857Y-121239580D01*
X215642857Y-121239580D02*
X215642857Y-121334819D01*
X216023809Y-120334819D02*
X216690475Y-120334819D01*
X216690475Y-120334819D02*
X216261904Y-121334819D01*
X217071428Y-121334819D02*
X217071428Y-120334819D01*
X217166666Y-120953866D02*
X217452380Y-121334819D01*
X217452380Y-120668152D02*
X217071428Y-121049104D01*
X218404761Y-121334819D02*
X217833333Y-121334819D01*
X218119047Y-121334819D02*
X218119047Y-120334819D01*
X218119047Y-120334819D02*
X218023809Y-120477676D01*
X218023809Y-120477676D02*
X217928571Y-120572914D01*
X217928571Y-120572914D02*
X217833333Y-120620533D01*
X171690476Y-104484819D02*
X171690476Y-105199104D01*
X171690476Y-105199104D02*
X171642857Y-105341961D01*
X171642857Y-105341961D02*
X171547619Y-105437200D01*
X171547619Y-105437200D02*
X171404762Y-105484819D01*
X171404762Y-105484819D02*
X171309524Y-105484819D01*
X172690476Y-105484819D02*
X172119048Y-105484819D01*
X172404762Y-105484819D02*
X172404762Y-104484819D01*
X172404762Y-104484819D02*
X172309524Y-104627676D01*
X172309524Y-104627676D02*
X172214286Y-104722914D01*
X172214286Y-104722914D02*
X172119048Y-104770533D01*
X173166667Y-105484819D02*
X173357143Y-105484819D01*
X173357143Y-105484819D02*
X173452381Y-105437200D01*
X173452381Y-105437200D02*
X173500000Y-105389580D01*
X173500000Y-105389580D02*
X173595238Y-105246723D01*
X173595238Y-105246723D02*
X173642857Y-105056247D01*
X173642857Y-105056247D02*
X173642857Y-104675295D01*
X173642857Y-104675295D02*
X173595238Y-104580057D01*
X173595238Y-104580057D02*
X173547619Y-104532438D01*
X173547619Y-104532438D02*
X173452381Y-104484819D01*
X173452381Y-104484819D02*
X173261905Y-104484819D01*
X173261905Y-104484819D02*
X173166667Y-104532438D01*
X173166667Y-104532438D02*
X173119048Y-104580057D01*
X173119048Y-104580057D02*
X173071429Y-104675295D01*
X173071429Y-104675295D02*
X173071429Y-104913390D01*
X173071429Y-104913390D02*
X173119048Y-105008628D01*
X173119048Y-105008628D02*
X173166667Y-105056247D01*
X173166667Y-105056247D02*
X173261905Y-105103866D01*
X173261905Y-105103866D02*
X173452381Y-105103866D01*
X173452381Y-105103866D02*
X173547619Y-105056247D01*
X173547619Y-105056247D02*
X173595238Y-105008628D01*
X173595238Y-105008628D02*
X173642857Y-104913390D01*
X178274819Y-87079523D02*
X178989104Y-87079523D01*
X178989104Y-87079523D02*
X179131961Y-87127142D01*
X179131961Y-87127142D02*
X179227200Y-87222380D01*
X179227200Y-87222380D02*
X179274819Y-87365237D01*
X179274819Y-87365237D02*
X179274819Y-87460475D01*
X179274819Y-86079523D02*
X179274819Y-86650951D01*
X179274819Y-86365237D02*
X178274819Y-86365237D01*
X178274819Y-86365237D02*
X178417676Y-86460475D01*
X178417676Y-86460475D02*
X178512914Y-86555713D01*
X178512914Y-86555713D02*
X178560533Y-86650951D01*
X179274819Y-85127142D02*
X179274819Y-85698570D01*
X179274819Y-85412856D02*
X178274819Y-85412856D01*
X178274819Y-85412856D02*
X178417676Y-85508094D01*
X178417676Y-85508094D02*
X178512914Y-85603332D01*
X178512914Y-85603332D02*
X178560533Y-85698570D01*
%TO.C,J20*%
D12*
X176920000Y-55120000D02*
X176920000Y-52460000D01*
X174320000Y-55120000D02*
X176920000Y-55120000D01*
X174320000Y-55120000D02*
X174320000Y-52460000D01*
X174320000Y-52460000D02*
X176920000Y-52460000D01*
X171720000Y-53790000D02*
X171720000Y-52460000D01*
X171720000Y-52460000D02*
X173050000Y-52460000D01*
%TO.C,J3*%
X174080000Y-49580000D02*
X172700000Y-49580000D01*
X174080000Y-48200000D02*
X174080000Y-49580000D01*
X174080000Y-46930000D02*
X174080000Y-41740000D01*
X174080000Y-46930000D02*
X171320000Y-46930000D01*
X174080000Y-41740000D02*
X171320000Y-41740000D01*
X171320000Y-46930000D02*
X171320000Y-41740000D01*
%TO.C,J12*%
X188195000Y-47545000D02*
X182375000Y-47545000D01*
X188195000Y-45825000D02*
X182375000Y-45825000D01*
X188195000Y-42725000D02*
X182375000Y-42725000D01*
X188195000Y-41725000D02*
X182375000Y-41725000D01*
X188195000Y-40805000D02*
X188195000Y-47545000D01*
X186855000Y-40805000D02*
X188195000Y-40805000D01*
X182375000Y-47545000D02*
X182375000Y-40805000D01*
X182375000Y-40805000D02*
X186255000Y-40805000D01*
X186555000Y-40805000D02*
X186115000Y-40195000D01*
X186995000Y-40195000D01*
X186555000Y-40805000D01*
G36*
X186555000Y-40805000D02*
G01*
X186115000Y-40195000D01*
X186995000Y-40195000D01*
X186555000Y-40805000D01*
G37*
%TO.C,MAX17048*%
X204650000Y-69040000D02*
X207250000Y-69040000D01*
X204650000Y-69040000D02*
X204650000Y-66380000D01*
X207250000Y-69040000D02*
X207250000Y-66380000D01*
X202050000Y-67710000D02*
X202050000Y-66380000D01*
X202050000Y-66380000D02*
X203380000Y-66380000D01*
X204650000Y-66380000D02*
X207250000Y-66380000D01*
%TO.C,J2*%
X214920000Y-56360000D02*
X214920000Y-56480000D01*
X214920000Y-56480000D02*
X217580000Y-56480000D01*
X216250000Y-53820000D02*
X217580000Y-53820000D01*
X217580000Y-53820000D02*
X217580000Y-55150000D01*
X217580000Y-56360000D02*
X217580000Y-56480000D01*
%TO.C,J1*%
X214920000Y-43660000D02*
X214920000Y-43780000D01*
X214920000Y-43780000D02*
X217580000Y-43780000D01*
X216250000Y-41120000D02*
X217580000Y-41120000D01*
X217580000Y-41120000D02*
X217580000Y-42450000D01*
X217580000Y-43660000D02*
X217580000Y-43780000D01*
%TO.C,J22*%
X199570000Y-75270000D02*
X212330000Y-75270000D01*
X196970000Y-75270000D02*
X198300000Y-75270000D01*
X196970000Y-76600000D02*
X196970000Y-75270000D01*
X212330000Y-77930000D02*
X212330000Y-75270000D01*
X199570000Y-77930000D02*
X199570000Y-75270000D01*
X199570000Y-77930000D02*
X212330000Y-77930000D01*
%TO.C,J18*%
X184380000Y-75320000D02*
X185710000Y-75320000D01*
X184380000Y-76650000D02*
X184380000Y-75320000D01*
X186980000Y-75320000D02*
X189580000Y-75320000D01*
X186980000Y-77980000D02*
X186980000Y-75320000D01*
X186980000Y-77980000D02*
X189580000Y-77980000D01*
X189580000Y-77980000D02*
X189580000Y-75320000D01*
%TO.C,TP4056-1*%
X192070000Y-43730000D02*
X192070000Y-41130000D01*
X192070000Y-46330000D02*
X192070000Y-45000000D01*
X193400000Y-46330000D02*
X192070000Y-46330000D01*
X194730000Y-41130000D02*
X192070000Y-41130000D01*
X194730000Y-43730000D02*
X192070000Y-43730000D01*
X194730000Y-43730000D02*
X194730000Y-41130000D01*
%TO.C,TP4056+1*%
X192070000Y-53870000D02*
X192070000Y-51270000D01*
X192070000Y-56470000D02*
X192070000Y-55140000D01*
X193400000Y-56470000D02*
X192070000Y-56470000D01*
X194730000Y-51270000D02*
X192070000Y-51270000D01*
X194730000Y-53870000D02*
X192070000Y-53870000D01*
X194730000Y-53870000D02*
X194730000Y-51270000D01*
%TO.C,J13*%
X220250000Y-89950000D02*
X220250000Y-94250000D01*
X220250000Y-98550000D02*
X220250000Y-94250000D01*
X223200000Y-89200000D02*
X223200000Y-89950000D01*
X223200000Y-89950000D02*
X220250000Y-89950000D01*
X223200000Y-98550000D02*
X220250000Y-98550000D01*
X223200000Y-99300000D02*
X223200000Y-98550000D01*
X225750000Y-88900000D02*
X224500000Y-88900000D01*
X225750000Y-90150000D02*
X225750000Y-88900000D01*
X224700000Y-89200000D02*
X225450000Y-89200000D01*
X225450000Y-91000000D01*
X224700000Y-91000000D01*
X224700000Y-89200000D01*
X224700000Y-92500000D02*
X225450000Y-92500000D01*
X225450000Y-96000000D01*
X224700000Y-96000000D01*
X224700000Y-92500000D01*
X224700000Y-97500000D02*
X225450000Y-97500000D01*
X225450000Y-99300000D01*
X224700000Y-99300000D01*
X224700000Y-97500000D01*
X219490000Y-89190000D02*
X225460000Y-89190000D01*
X225460000Y-99310000D01*
X219490000Y-99310000D01*
X219490000Y-89190000D01*
%TO.C,J10*%
X171080000Y-96520000D02*
X177820000Y-96520000D01*
X171080000Y-97860000D02*
X171080000Y-96520000D01*
X171080000Y-102340000D02*
X171080000Y-98460000D01*
X172000000Y-96520000D02*
X172000000Y-102340000D01*
X173000000Y-96520000D02*
X173000000Y-102340000D01*
X176100000Y-96520000D02*
X176100000Y-102340000D01*
X177820000Y-96520000D02*
X177820000Y-102340000D01*
X177820000Y-102340000D02*
X171080000Y-102340000D01*
X171080000Y-98160000D02*
X170470000Y-98600000D01*
X170470000Y-97720000D01*
X171080000Y-98160000D01*
G36*
X171080000Y-98160000D02*
G01*
X170470000Y-98600000D01*
X170470000Y-97720000D01*
X171080000Y-98160000D01*
G37*
%TO.C,J15*%
X220250000Y-74950000D02*
X220250000Y-80500000D01*
X220250000Y-86050000D02*
X220250000Y-80500000D01*
X223200000Y-74200000D02*
X223200000Y-74950000D01*
X223200000Y-74950000D02*
X220250000Y-74950000D01*
X223200000Y-86050000D02*
X220250000Y-86050000D01*
X223200000Y-86800000D02*
X223200000Y-86050000D01*
X225750000Y-73900000D02*
X224500000Y-73900000D01*
X225750000Y-75150000D02*
X225750000Y-73900000D01*
X224700000Y-74200000D02*
X225450000Y-74200000D01*
X225450000Y-76000000D01*
X224700000Y-76000000D01*
X224700000Y-74200000D01*
X224700000Y-77500000D02*
X225450000Y-77500000D01*
X225450000Y-83500000D01*
X224700000Y-83500000D01*
X224700000Y-77500000D01*
X224700000Y-85000000D02*
X225450000Y-85000000D01*
X225450000Y-86800000D01*
X224700000Y-86800000D01*
X224700000Y-85000000D01*
X219490000Y-74190000D02*
X225460000Y-74190000D01*
X225460000Y-86810000D01*
X219490000Y-86810000D01*
X219490000Y-74190000D01*
%TO.C,J5*%
X222920000Y-65020000D02*
X222920000Y-57340000D01*
X222920000Y-67620000D02*
X222920000Y-66290000D01*
X224250000Y-67620000D02*
X222920000Y-67620000D01*
X225580000Y-57340000D02*
X222920000Y-57340000D01*
X225580000Y-65020000D02*
X222920000Y-65020000D01*
X225580000Y-65020000D02*
X225580000Y-57340000D01*
%TO.C,i2c1*%
X220250000Y-102450000D02*
X220250000Y-108000000D01*
X220250000Y-113550000D02*
X220250000Y-108000000D01*
X223200000Y-101700000D02*
X223200000Y-102450000D01*
X223200000Y-102450000D02*
X220250000Y-102450000D01*
X223200000Y-113550000D02*
X220250000Y-113550000D01*
X223200000Y-114300000D02*
X223200000Y-113550000D01*
X225750000Y-101400000D02*
X224500000Y-101400000D01*
X225750000Y-102650000D02*
X225750000Y-101400000D01*
X224700000Y-101700000D02*
X225450000Y-101700000D01*
X225450000Y-103500000D01*
X224700000Y-103500000D01*
X224700000Y-101700000D01*
X224700000Y-105000000D02*
X225450000Y-105000000D01*
X225450000Y-111000000D01*
X224700000Y-111000000D01*
X224700000Y-105000000D01*
X224700000Y-112500000D02*
X225450000Y-112500000D01*
X225450000Y-114300000D01*
X224700000Y-114300000D01*
X224700000Y-112500000D01*
X219490000Y-101690000D02*
X225460000Y-101690000D01*
X225460000Y-114310000D01*
X219490000Y-114310000D01*
X219490000Y-101690000D01*
%TO.C,J9*%
X185170000Y-123310000D02*
X185170000Y-110550000D01*
X185170000Y-125910000D02*
X185170000Y-124580000D01*
X186500000Y-125910000D02*
X185170000Y-125910000D01*
X187830000Y-110550000D02*
X185170000Y-110550000D01*
X187830000Y-123310000D02*
X185170000Y-123310000D01*
X187830000Y-123310000D02*
X187830000Y-110550000D01*
%TO.C,SCL-4.7k1*%
X211330000Y-115480000D02*
X217870000Y-115480000D01*
X211330000Y-115810000D02*
X211330000Y-115480000D01*
X211330000Y-117890000D02*
X211330000Y-118220000D01*
X211330000Y-118220000D02*
X217870000Y-118220000D01*
X217870000Y-115480000D02*
X217870000Y-115810000D01*
X217870000Y-118220000D02*
X217870000Y-117890000D01*
%TO.C,1W-4.7k1*%
X212380000Y-96730000D02*
X212710000Y-96730000D01*
X212380000Y-103270000D02*
X212380000Y-96730000D01*
X212710000Y-103270000D02*
X212380000Y-103270000D01*
X214790000Y-103270000D02*
X215120000Y-103270000D01*
X215120000Y-96730000D02*
X214790000Y-96730000D01*
X215120000Y-103270000D02*
X215120000Y-96730000D01*
%TO.C,J6*%
X184420000Y-52460000D02*
X185750000Y-52460000D01*
X184420000Y-53790000D02*
X184420000Y-52460000D01*
X187020000Y-52460000D02*
X189620000Y-52460000D01*
X187020000Y-55120000D02*
X187020000Y-52460000D01*
X187020000Y-55120000D02*
X189620000Y-55120000D01*
X189620000Y-55120000D02*
X189620000Y-52460000D01*
%TO.C,J21*%
X189465000Y-99975000D02*
X190795000Y-99975000D01*
X189465000Y-101305000D02*
X189465000Y-99975000D01*
X192065000Y-99975000D02*
X204825000Y-99975000D01*
X192065000Y-102635000D02*
X192065000Y-99975000D01*
X192065000Y-102635000D02*
X204825000Y-102635000D01*
X204825000Y-102635000D02*
X204825000Y-99975000D01*
%TO.C,J23*%
X171720000Y-75320000D02*
X173050000Y-75320000D01*
X171720000Y-76650000D02*
X171720000Y-75320000D01*
X174320000Y-75320000D02*
X176920000Y-75320000D01*
X174320000Y-77980000D02*
X174320000Y-75320000D01*
X174320000Y-77980000D02*
X176920000Y-77980000D01*
X176920000Y-77980000D02*
X176920000Y-75320000D01*
%TO.C,SW1*%
X179070000Y-103830000D02*
X179070000Y-106430000D01*
X179070000Y-103830000D02*
X181730000Y-103830000D01*
X179070000Y-106430000D02*
X181730000Y-106430000D01*
X180400000Y-101230000D02*
X181730000Y-101230000D01*
X181730000Y-101230000D02*
X181730000Y-102560000D01*
X181730000Y-103830000D02*
X181730000Y-106430000D01*
%TO.C,U1*%
D13*
X189990000Y-109130000D02*
X189990000Y-130130000D01*
X189990000Y-130130000D02*
X207770000Y-130130000D01*
X194380000Y-107590000D02*
X203380000Y-107590000D01*
X194380000Y-109130000D02*
X189990000Y-109130000D01*
X194380000Y-109130000D02*
X194380000Y-107590000D01*
X203380000Y-107590000D02*
X203380000Y-109130000D01*
X207770000Y-109130000D02*
X203380000Y-109130000D01*
X207770000Y-130130000D02*
X207770000Y-109130000D01*
D14*
X189380000Y-112030000D02*
G75*
G02*
X189180000Y-112030000I-100000J0D01*
G01*
X189180000Y-112030000D02*
G75*
G02*
X189380000Y-112030000I100000J0D01*
G01*
%TO.C,SDA-4.7k1*%
D12*
X211230000Y-121880000D02*
X217770000Y-121880000D01*
X211230000Y-122210000D02*
X211230000Y-121880000D01*
X211230000Y-124290000D02*
X211230000Y-124620000D01*
X211230000Y-124620000D02*
X217770000Y-124620000D01*
X217770000Y-121880000D02*
X217770000Y-122210000D01*
X217770000Y-124620000D02*
X217770000Y-124290000D01*
%TO.C,J19*%
X171170000Y-109070000D02*
X171170000Y-121830000D01*
X171170000Y-109070000D02*
X173830000Y-109070000D01*
X171170000Y-121830000D02*
X173830000Y-121830000D01*
X172500000Y-106470000D02*
X173830000Y-106470000D01*
X173830000Y-106470000D02*
X173830000Y-107800000D01*
X173830000Y-109070000D02*
X173830000Y-121830000D01*
%TO.C,J11*%
X171080000Y-83360000D02*
X177820000Y-83360000D01*
X171080000Y-84700000D02*
X171080000Y-83360000D01*
X171080000Y-89180000D02*
X171080000Y-85300000D01*
X172000000Y-83360000D02*
X172000000Y-89180000D01*
X173000000Y-83360000D02*
X173000000Y-89180000D01*
X176100000Y-83360000D02*
X176100000Y-89180000D01*
X177820000Y-83360000D02*
X177820000Y-89180000D01*
X177820000Y-89180000D02*
X171080000Y-89180000D01*
X171080000Y-85000000D02*
X170470000Y-85440000D01*
X170470000Y-84560000D01*
X171080000Y-85000000D01*
G36*
X171080000Y-85000000D02*
G01*
X170470000Y-85440000D01*
X170470000Y-84560000D01*
X171080000Y-85000000D01*
G37*
%TD*%
M02*
