%TF.GenerationSoftware,KiCad,Pcbnew,10.0.3-10.0.3~ubuntu24.04.1*%
%TF.CreationDate,2026-06-23T10:51:45+02:00*%
%TF.ProjectId,_V0_3-Scale_Module,5f56305f-332d-4536-9361-6c655f4d6f64,rev?*%
%TF.SameCoordinates,Original*%
%TF.FileFunction,Copper,L2,Bot*%
%TF.FilePolarity,Positive*%
%FSLAX46Y46*%
G04 Gerber Fmt 4.6, Leading zero omitted, Abs format (unit mm)*
G04 Created by KiCad (PCBNEW 10.0.3-10.0.3~ubuntu24.04.1) date 2026-06-23 10:51:45*
%MOMM*%
%LPD*%
G01*
G04 APERTURE LIST*
G04 Aperture macros list*
%AMRoundRect*
0 Rectangle with rounded corners*
0 $1 Rounding radius*
0 $2 $3 $4 $5 $6 $7 $8 $9 X,Y pos of 4 corners*
0 Add a 4 corners polygon primitive as box body*
4,1,4,$2,$3,$4,$5,$6,$7,$8,$9,$2,$3,0*
0 Add four circle primitives for the rounded corners*
1,1,$1+$1,$2,$3*
1,1,$1+$1,$4,$5*
1,1,$1+$1,$6,$7*
1,1,$1+$1,$8,$9*
0 Add four rect primitives between the rounded corners*
20,1,$1+$1,$2,$3,$4,$5,0*
20,1,$1+$1,$4,$5,$6,$7,0*
20,1,$1+$1,$6,$7,$8,$9,0*
20,1,$1+$1,$8,$9,$2,$3,0*%
G04 Aperture macros list end*
%TA.AperFunction,ComponentPad*%
%ADD10O,1.950000X1.700000*%
%TD*%
%TA.AperFunction,ComponentPad*%
%ADD11RoundRect,0.250000X-0.725000X0.600000X-0.725000X-0.600000X0.725000X-0.600000X0.725000X0.600000X0*%
%TD*%
%TA.AperFunction,ComponentPad*%
%ADD12O,1.700000X1.950000*%
%TD*%
%TA.AperFunction,ComponentPad*%
%ADD13RoundRect,0.250000X0.600000X0.725000X-0.600000X0.725000X-0.600000X-0.725000X0.600000X-0.725000X0*%
%TD*%
%TA.AperFunction,ComponentPad*%
%ADD14R,1.700000X1.700000*%
%TD*%
%TA.AperFunction,ComponentPad*%
%ADD15C,1.700000*%
%TD*%
%TA.AperFunction,ComponentPad*%
%ADD16RoundRect,0.250000X-0.750000X0.750000X-0.750000X-0.750000X0.750000X-0.750000X0.750000X0.750000X0*%
%TD*%
%TA.AperFunction,ComponentPad*%
%ADD17C,2.000000*%
%TD*%
%TA.AperFunction,ComponentPad*%
%ADD18C,1.600000*%
%TD*%
%TA.AperFunction,ComponentPad*%
%ADD19RoundRect,0.250000X0.725000X-0.600000X0.725000X0.600000X-0.725000X0.600000X-0.725000X-0.600000X0*%
%TD*%
%TA.AperFunction,ComponentPad*%
%ADD20R,1.600000X1.600000*%
%TD*%
%TA.AperFunction,ViaPad*%
%ADD21C,0.600000*%
%TD*%
%TA.AperFunction,ViaPad*%
%ADD22C,0.400000*%
%TD*%
%TA.AperFunction,ViaPad*%
%ADD23C,1.200000*%
%TD*%
%TA.AperFunction,Conductor*%
%ADD24C,0.250000*%
%TD*%
%TA.AperFunction,Conductor*%
%ADD25C,1.500000*%
%TD*%
G04 APERTURE END LIST*
D10*
%TO.P,J15,4,Pin_4_4*%
%TO.N,/GPIO22*%
X236500000Y-127000000D03*
%TO.P,J15,3,Pin_3_3*%
%TO.N,/GPIO21*%
X236500000Y-124500000D03*
%TO.P,J15,2,Pin_2_2*%
%TO.N,GND*%
X236500000Y-122000000D03*
D11*
%TO.P,J15,1,Pin_1_1*%
%TO.N,/3.3V*%
X236500000Y-119500000D03*
%TD*%
D12*
%TO.P,J20,4,Pin_4_4*%
%TO.N,/GPIO22*%
X217500000Y-135550000D03*
%TO.P,J20,3,Pin_3_3*%
%TO.N,/GPIO21*%
X220000000Y-135550000D03*
%TO.P,J20,2,Pin_2_2*%
%TO.N,GND*%
X222500000Y-135550000D03*
D13*
%TO.P,J20,1,Pin_1_1*%
%TO.N,/3.3V*%
X225000000Y-135550000D03*
%TD*%
D11*
%TO.P,J12,1,Pin_1_1*%
%TO.N,GND*%
X236500000Y-72500000D03*
D10*
%TO.P,J12,2,Pin_2_2*%
%TO.N,Net-(J12-Pin_2)*%
X236500000Y-75000000D03*
%TO.P,J12,3,Pin_3_3*%
%TO.N,Net-(J12-Pin_3)*%
X236500000Y-77500000D03*
%TO.P,J12,4,Pin_4_4*%
%TO.N,Net-(J12-Pin_4)*%
X236500000Y-80000000D03*
%TO.P,J12,5,Pin_5_5*%
%TO.N,Net-(J12-Pin_5)*%
X236500000Y-82500000D03*
%TD*%
D14*
%TO.P,J1,1,Pin_1_1*%
%TO.N,/3.3V*%
X184700000Y-100700000D03*
D15*
%TO.P,J1,2,Pin_2_2*%
%TO.N,GND*%
X184700000Y-103240000D03*
%TO.P,J1,3,Pin_3_3*%
%TO.N,/GPIO15*%
X184700000Y-105780000D03*
%TO.P,J1,4,Pin_4_4*%
%TO.N,/GPIO2*%
X184700000Y-108320000D03*
%TO.P,J1,5,Pin_5_5*%
%TO.N,/GPIO4*%
X184700000Y-110860000D03*
%TO.P,J1,6,Pin_6_6*%
%TO.N,/GPIO16*%
X184700000Y-113400000D03*
%TO.P,J1,7,Pin_7_7*%
%TO.N,/GPIO17*%
X184700000Y-115940000D03*
%TO.P,J1,8,Pin_8_8*%
%TO.N,/GPIO5*%
X184700000Y-118480000D03*
%TO.P,J1,9,Pin_9_9*%
%TO.N,/GPIO18*%
X184700000Y-121020000D03*
%TO.P,J1,10,Pin_10_10*%
%TO.N,/GPIO19*%
X184700000Y-123560000D03*
%TO.P,J1,11,Pin_11_11*%
%TO.N,/GPIO21*%
X184700000Y-126100000D03*
%TO.P,J1,12,Pin_12_12*%
%TO.N,/ESP32-RX0*%
X184700000Y-128640000D03*
%TO.P,J1,13,Pin_13_13*%
%TO.N,/ESP32-TX0*%
X184700000Y-131180000D03*
%TO.P,J1,14,Pin_14_14*%
%TO.N,/GPIO22*%
X184700000Y-133720000D03*
%TO.P,J1,15,Pin_15_15*%
%TO.N,/GPIO23*%
X184700000Y-136260000D03*
%TD*%
D16*
%TO.P,J10,1,Pin_1_1*%
%TO.N,GND*%
X166500000Y-85960000D03*
D17*
%TO.P,J10,2,Pin_2_2*%
%TO.N,/3.3V*%
X166500000Y-88500000D03*
%TD*%
D14*
%TO.P,J9,1,Pin_1_1*%
%TO.N,/3.3V*%
X175000000Y-96500000D03*
D15*
%TO.P,J9,2,Pin_2_2*%
%TO.N,/GPIO5*%
X175000000Y-93960000D03*
%TO.P,J9,3,Pin_3_3*%
%TO.N,/GPIO19*%
X175000000Y-91420000D03*
%TO.P,J9,4,Pin_4_4*%
%TO.N,/GPIO18*%
X175000000Y-88880000D03*
%TO.P,J9,5,Pin_5_5*%
%TO.N,/GPIO23*%
X175000000Y-86340000D03*
%TO.P,J9,6,Pin_6_6*%
%TO.N,GND*%
X175000000Y-83800000D03*
%TD*%
D18*
%TO.P,SCL-4.7k1,1*%
%TO.N,/3.3V*%
X192880000Y-131050000D03*
%TO.P,SCL-4.7k1,2*%
%TO.N,/GPIO22*%
X200500000Y-131050000D03*
%TD*%
D14*
%TO.P,J5,1,Pin_1_1*%
%TO.N,/GPIO22*%
X228000000Y-99120000D03*
D15*
%TO.P,J5,2,Pin_2_2*%
%TO.N,/GPIO21*%
X228000000Y-96580000D03*
%TO.P,J5,3,Pin_3_3*%
%TO.N,/3.3V*%
X228000000Y-94040000D03*
%TO.P,J5,4,Pin_4_4*%
%TO.N,GND*%
X228000000Y-91500000D03*
%TD*%
D11*
%TO.P,J11,1,Pin_1_1*%
%TO.N,GND*%
X236500000Y-50000000D03*
D10*
%TO.P,J11,2,Pin_2_2*%
%TO.N,Net-(J11-Pin_2)*%
X236500000Y-52500000D03*
%TO.P,J11,3,Pin_3_3*%
%TO.N,Net-(J11-Pin_3)*%
X236500000Y-55000000D03*
%TO.P,J11,4,Pin_4_4*%
%TO.N,Net-(J11-Pin_4)*%
X236500000Y-57500000D03*
%TO.P,J11,5,Pin_5_5*%
%TO.N,Net-(J11-Pin_5)*%
X236500000Y-60000000D03*
%TD*%
D19*
%TO.P,J16,1,Pin_1_1*%
%TO.N,/3.3V*%
X165500000Y-78000000D03*
D10*
%TO.P,J16,2,Pin_2_2*%
X165500000Y-75500000D03*
%TO.P,J16,3,Pin_3_3*%
%TO.N,GND*%
X165500000Y-73000000D03*
%TO.P,J16,4,Pin_4_4*%
%TO.N,/GPIO14*%
X165500000Y-70500000D03*
%TO.P,J16,5,Pin_5_5*%
%TO.N,/GPIO13*%
X165500000Y-68000000D03*
%TO.P,J16,6,Pin_6_6*%
%TO.N,/GPIO34*%
X165500000Y-65500000D03*
%TD*%
D11*
%TO.P,J13,1,Pin_1_1*%
%TO.N,/3.3V*%
X236500000Y-106500000D03*
D10*
%TO.P,J13,2,Pin_2_2*%
%TO.N,GND*%
X236500000Y-109000000D03*
%TO.P,J13,3,Pin_3_3*%
%TO.N,/GPIO4*%
X236500000Y-111500000D03*
%TD*%
D16*
%TO.P,J17,1,Pin_1_1*%
%TO.N,/GPIO21*%
X166500000Y-96000000D03*
D17*
%TO.P,J17,2,Pin_2_2*%
%TO.N,/GPIO22*%
X166500000Y-98540000D03*
%TD*%
D18*
%TO.P,1W-4.7k1,1*%
%TO.N,/3.3V*%
X217190000Y-109500000D03*
%TO.P,1W-4.7k1,2*%
%TO.N,/GPIO4*%
X224810000Y-109500000D03*
%TD*%
D20*
%TO.P,U1,1,D0_1*%
%TO.N,/GPIO32*%
X204500000Y-134740000D03*
D18*
%TO.P,U1,2,D1_2*%
%TO.N,/GPIO33*%
X204500000Y-132200000D03*
%TO.P,U1,3,D2_3*%
%TO.N,/GPIO27*%
X204500000Y-129660000D03*
%TO.P,U1,4,D3_4*%
%TO.N,/GPIO5*%
X204500000Y-127120000D03*
%TO.P,U1,5,D4_5*%
%TO.N,/GPIO21*%
X204500000Y-124580000D03*
%TO.P,U1,6,D5_6*%
%TO.N,/GPIO22*%
X204500000Y-122040000D03*
%TO.P,U1,7,TX/D6_7*%
%TO.N,/GPIO16*%
X204500000Y-119500000D03*
%TO.P,U1,8,RX/D7_8*%
%TO.N,/GPIO17*%
X189260000Y-119500000D03*
%TO.P,U1,9,D8_9*%
%TO.N,/GPIO18*%
X189260000Y-122040000D03*
%TO.P,U1,10,D9_10*%
%TO.N,/GPIO23*%
X189260000Y-124580000D03*
%TO.P,U1,11,D10_11*%
%TO.N,/GPIO19*%
X189260000Y-127120000D03*
%TO.P,U1,12,3V3_12*%
%TO.N,/3.3V*%
X189260000Y-129660000D03*
%TO.P,U1,13,GND_13*%
%TO.N,GND*%
X189260000Y-132200000D03*
%TO.P,U1,14,5V_14*%
%TO.N,unconnected-(U1-5V-Pad14)*%
X189260000Y-134740000D03*
%TD*%
D14*
%TO.P,J8,1,Pin_1_1*%
%TO.N,Net-(J12-Pin_5)*%
X213500000Y-80500000D03*
D15*
%TO.P,J8,2,Pin_2_2*%
%TO.N,Net-(J12-Pin_4)*%
X213500000Y-77960000D03*
%TO.P,J8,3,Pin_3_3*%
%TO.N,Net-(J12-Pin_3)*%
X213500000Y-75420000D03*
%TO.P,J8,4,Pin_4_4*%
%TO.N,Net-(J12-Pin_2)*%
X213500000Y-72880000D03*
%TO.P,J8,5,Pin_5_5*%
%TO.N,unconnected-(J8-Pin_5-Pad5)*%
X213500000Y-70340000D03*
%TO.P,J8,6,Pin_6_6*%
%TO.N,unconnected-(J8-Pin_6-Pad6)*%
X213500000Y-67800000D03*
%TD*%
D14*
%TO.P,J4,1,Pin_1_1*%
%TO.N,/3.3V*%
X187625000Y-47415000D03*
D15*
%TO.P,J4,2,Pin_2_2*%
%TO.N,/GPIO17*%
X187625000Y-49955000D03*
%TO.P,J4,3,Pin_3_3*%
%TO.N,/GPIO16*%
X187625000Y-52495000D03*
%TO.P,J4,4,Pin_4_4*%
%TO.N,GND*%
X187625000Y-55035000D03*
%TD*%
D18*
%TO.P,SDA-4.7k1,1*%
%TO.N,/3.3V*%
X192880000Y-127000000D03*
%TO.P,SDA-4.7k1,2*%
%TO.N,/GPIO21*%
X200500000Y-127000000D03*
%TD*%
D14*
%TO.P,J7,1,Pin_1_1*%
%TO.N,Net-(J11-Pin_5)*%
X213025000Y-57575000D03*
D15*
%TO.P,J7,2,Pin_2_2*%
%TO.N,Net-(J11-Pin_4)*%
X213025000Y-55035000D03*
%TO.P,J7,3,Pin_3_3*%
%TO.N,Net-(J11-Pin_3)*%
X213025000Y-52495000D03*
%TO.P,J7,4,Pin_4_4*%
%TO.N,Net-(J11-Pin_2)*%
X213025000Y-49955000D03*
%TO.P,J7,5,Pin_5_5*%
%TO.N,unconnected-(J7-Pin_5-Pad5)*%
X213025000Y-47415000D03*
%TO.P,J7,6,Pin_6_6*%
%TO.N,unconnected-(J7-Pin_6-Pad6)*%
X213025000Y-44875000D03*
%TD*%
D14*
%TO.P,J18,1,Pin_1_1*%
%TO.N,/3.3V*%
X176620000Y-134960000D03*
D15*
%TO.P,J18,2,Pin_2_2*%
%TO.N,GND*%
X176620000Y-137500000D03*
%TO.P,J18,3,Pin_3_3*%
%TO.N,/GPIO2*%
X174080000Y-134960000D03*
%TO.P,J18,4,Pin_4_4*%
%TO.N,/GPIO12*%
X174080000Y-137500000D03*
%TO.P,J18,5,Pin_5_5*%
%TO.N,/GPIO22*%
X171540000Y-134960000D03*
%TO.P,J18,6,Pin_6_6*%
%TO.N,/GPIO15*%
X171540000Y-137500000D03*
%TO.P,J18,7,Pin_7_7*%
%TO.N,/GPIO26*%
X169000000Y-134960000D03*
%TO.P,J18,8,Pin_8_8*%
%TO.N,/GPIO25*%
X169000000Y-137500000D03*
%TO.P,J18,9,Pin_9_9*%
%TO.N,/ESP32-TX0*%
X166460000Y-134960000D03*
%TO.P,J18,10,Pin_10_10*%
%TO.N,/GPIO35*%
X166460000Y-137500000D03*
%TO.P,J18,11,Pin_11_11*%
%TO.N,/ESP32-RX0*%
X163920000Y-134960000D03*
%TO.P,J18,12,Pin_12_12*%
%TO.N,/EN_ESP32*%
X163920000Y-137500000D03*
%TD*%
D14*
%TO.P,J19,1,Pin_1_1*%
%TO.N,GND*%
X164500000Y-107800000D03*
D15*
%TO.P,J19,2,Pin_2_2*%
X164500000Y-110340000D03*
%TO.P,J19,3,Pin_3_3*%
%TO.N,/3.3V*%
X164500000Y-112880000D03*
%TO.P,J19,4,Pin_4_4*%
X164500000Y-115420000D03*
%TO.P,J19,5,Pin_5_5*%
%TO.N,/GPIO21*%
X164500000Y-117960000D03*
%TO.P,J19,6,Pin_6_6*%
%TO.N,/GPIO22*%
X164500000Y-120500000D03*
%TD*%
D19*
%TO.P,J6,1,Pin_1_1*%
%TO.N,/3.3V*%
X165500000Y-58000000D03*
D10*
%TO.P,J6,2,Pin_2_2*%
%TO.N,GND*%
X165500000Y-55500000D03*
%TO.P,J6,3,Pin_3_3*%
X165500000Y-53000000D03*
%TO.P,J6,4,Pin_4_4*%
%TO.N,/GPIO14*%
X165500000Y-50500000D03*
%TO.P,J6,5,Pin_5_5*%
%TO.N,/GPIO13*%
X165500000Y-48000000D03*
%TO.P,J6,6,Pin_6_6*%
%TO.N,/GPIO34*%
X165500000Y-45500000D03*
%TD*%
D14*
%TO.P,J3,1,Pin_1_1*%
%TO.N,/3.3V*%
X188100000Y-70340000D03*
D15*
%TO.P,J3,2,Pin_2_2*%
%TO.N,/GPIO33*%
X188100000Y-72880000D03*
%TO.P,J3,3,Pin_3_3*%
%TO.N,/GPIO32*%
X188100000Y-75420000D03*
%TO.P,J3,4,Pin_4_4*%
%TO.N,GND*%
X188100000Y-77960000D03*
%TD*%
D14*
%TO.P,J2,1,Pin_1_1*%
%TO.N,unconnected-(J2-Pin_1-Pad1)*%
X210100000Y-100700000D03*
D15*
%TO.P,J2,2,Pin_2_2*%
%TO.N,GND*%
X210100000Y-103240000D03*
%TO.P,J2,3,Pin_3_3*%
%TO.N,/GPIO13*%
X210100000Y-105780000D03*
%TO.P,J2,4,Pin_4_4*%
%TO.N,/GPIO12*%
X210100000Y-108320000D03*
%TO.P,J2,5,Pin_5_5*%
%TO.N,/GPIO14*%
X210100000Y-110860000D03*
%TO.P,J2,6,Pin_6_6*%
%TO.N,/GPIO27*%
X210100000Y-113400000D03*
%TO.P,J2,7,Pin_7_7*%
%TO.N,/GPIO26*%
X210100000Y-115940000D03*
%TO.P,J2,8,Pin_8_8*%
%TO.N,/GPIO25*%
X210100000Y-118480000D03*
%TO.P,J2,9,Pin_9_9*%
%TO.N,/GPIO33*%
X210100000Y-121020000D03*
%TO.P,J2,10,Pin_10_10*%
%TO.N,/GPIO32*%
X210100000Y-123560000D03*
%TO.P,J2,11,Pin_11_11*%
%TO.N,/GPIO35*%
X210100000Y-126100000D03*
%TO.P,J2,12,Pin_12_12*%
%TO.N,/GPIO34*%
X210100000Y-128640000D03*
%TO.P,J2,13,Pin_13_13*%
%TO.N,unconnected-(J2-Pin_13-Pad13)*%
X210100000Y-131180000D03*
%TO.P,J2,14,Pin_14_14*%
%TO.N,unconnected-(J2-Pin_14-Pad14)*%
X210100000Y-133720000D03*
%TO.P,J2,15,Pin_15_15*%
%TO.N,/EN_ESP32*%
X210100000Y-136260000D03*
%TD*%
D14*
%TO.P,SW1,1,1_1*%
%TO.N,GND*%
X223000000Y-114500000D03*
D15*
%TO.P,SW1,2,2_2*%
%TO.N,/GPIO27*%
X220460000Y-114500000D03*
%TD*%
D21*
%TO.N,/EN_ESP32*%
X208500000Y-138500000D03*
X170865000Y-129750000D03*
X183650000Y-129750000D03*
%TO.N,GND*%
X214000000Y-99500000D03*
X214500000Y-110000000D03*
X221750000Y-109250000D03*
X224500000Y-111750000D03*
X213500000Y-113500000D03*
X225750000Y-117500000D03*
X214500000Y-119500000D03*
X213000000Y-130250000D03*
X215250000Y-126000000D03*
X236000000Y-136500000D03*
X239000000Y-132000000D03*
X230000000Y-130000000D03*
X234250000Y-127250000D03*
X234500000Y-120000000D03*
X234250000Y-118500000D03*
X232000000Y-117500000D03*
X231250000Y-113500000D03*
X231250000Y-115000000D03*
X236500000Y-115500000D03*
X234750000Y-108250000D03*
X234750000Y-110250000D03*
X231000000Y-110250000D03*
X230750000Y-108500000D03*
X231250000Y-104500000D03*
X231500000Y-101250000D03*
X225250000Y-103500000D03*
X225000000Y-97000000D03*
X224250000Y-83000000D03*
X237000000Y-86750000D03*
X236250000Y-67500000D03*
X230000000Y-71000000D03*
X202250000Y-87250000D03*
X192750000Y-86250000D03*
X207500000Y-98500000D03*
X210250000Y-87500000D03*
X198500000Y-74500000D03*
X192250000Y-74000000D03*
X216750000Y-71250000D03*
X216500000Y-61750000D03*
X216000000Y-51000000D03*
X215750000Y-43250000D03*
X190500000Y-45750000D03*
X209500000Y-46500000D03*
X210250000Y-60500000D03*
X209750000Y-68500000D03*
X191000000Y-68000000D03*
X181500000Y-75250000D03*
X181000000Y-60000000D03*
X181250000Y-56500000D03*
X174750000Y-51750000D03*
X162000000Y-41250000D03*
X183500000Y-42000000D03*
X175750000Y-55500000D03*
X180500000Y-66500000D03*
X167250000Y-66750000D03*
X162000000Y-58250000D03*
X162000000Y-70750000D03*
X167750000Y-75250000D03*
X171250000Y-74000000D03*
X175250000Y-77500000D03*
X162250000Y-75750000D03*
X162250000Y-78500000D03*
X162250000Y-81750000D03*
X168500000Y-81750000D03*
X178750000Y-82250000D03*
X181000000Y-83250000D03*
X181500000Y-85000000D03*
X171750000Y-86500000D03*
X172000000Y-90750000D03*
X172750000Y-88750000D03*
X162000000Y-91500000D03*
X162250000Y-94750000D03*
X164250000Y-93250000D03*
X168750000Y-93250000D03*
X169000000Y-95500000D03*
X169000000Y-96750000D03*
X166500000Y-106500000D03*
X166500000Y-111250000D03*
D22*
X175750000Y-113000000D03*
X176750000Y-114000000D03*
X178500000Y-115750000D03*
X180000000Y-117250000D03*
D21*
X166000000Y-104500000D03*
X165000000Y-103000000D03*
X164500000Y-101500000D03*
X181500000Y-119000000D03*
X181000000Y-118500000D03*
X176000000Y-116500000D03*
X177500000Y-117500000D03*
X179000000Y-119000000D03*
X180000000Y-120000000D03*
X181000000Y-121000000D03*
X192000000Y-135000000D03*
X192000000Y-136000000D03*
%TO.N,/GPIO25*%
X169750000Y-139000000D03*
%TO.N,/GPIO26*%
X180421100Y-138666300D03*
%TO.N,/GPIO12*%
X205939400Y-107198500D03*
X162076200Y-100502600D03*
%TO.N,/GPIO32*%
X208000000Y-124000000D03*
X204301300Y-114719100D03*
%TO.N,/GPIO34*%
X203767900Y-76940200D03*
%TO.N,/GPIO23*%
X176957800Y-102932900D03*
X180186500Y-98066400D03*
%TO.N,/GPIO21*%
X201008300Y-133108100D03*
%TO.N,/GPIO18*%
X173189100Y-98045300D03*
%TO.N,/GPIO5*%
X202500000Y-125500000D03*
%TO.N,/GPIO4*%
X198364000Y-108821500D03*
%TO.N,/GPIO2*%
X174799300Y-106208300D03*
D23*
%TO.N,/3.3V*%
X191000000Y-129660000D03*
%TD*%
%TO.N,/EN_ESP32*%
D24*
X208500000Y-138500000D02*
X208500000Y-137860000D01*
X170865000Y-129750000D02*
X183650000Y-129750000D01*
X208500000Y-137860000D02*
X210100000Y-136260000D01*
%TO.N,/GPIO25*%
X169750000Y-139000000D02*
X170125000Y-139375000D01*
X170125000Y-139375000D02*
X208745100Y-139375000D01*
X208745100Y-139375000D02*
X211870500Y-136249600D01*
X211870500Y-136249600D02*
X211870500Y-120250500D01*
X211870500Y-120250500D02*
X210100000Y-118480000D01*
%TO.N,GND*%
D25*
X192000000Y-134940000D02*
X192000000Y-136000000D01*
X189260000Y-132200000D02*
X190000000Y-132940000D01*
X190000000Y-132940000D02*
X190005585Y-132940000D01*
X191060000Y-134000000D02*
X192000000Y-134940000D01*
X190005585Y-132940000D02*
X191060000Y-133994415D01*
X191060000Y-133994415D02*
X191060000Y-134000000D01*
X192000000Y-134940000D02*
X192000000Y-135000000D01*
%TO.N,/GPIO35*%
D24*
X167730000Y-136230000D02*
X166460000Y-137500000D01*
X169474700Y-136230000D02*
X167730000Y-136230000D01*
X170270000Y-137025300D02*
X169474700Y-136230000D01*
X170270000Y-138024200D02*
X170270000Y-137025300D01*
X170985000Y-138739200D02*
X170270000Y-138024200D01*
X178821000Y-138739200D02*
X170985000Y-138739200D01*
X179827400Y-137732800D02*
X178821000Y-138739200D01*
X206729000Y-137732800D02*
X179827400Y-137732800D01*
X207960400Y-136501400D02*
X206729000Y-137732800D01*
X207960400Y-128239600D02*
X207960400Y-136501400D01*
X210100000Y-126100000D02*
X207960400Y-128239600D01*
%TO.N,/GPIO26*%
X206584100Y-138666300D02*
X180421100Y-138666300D01*
X208873300Y-136377100D02*
X206584100Y-138666300D01*
X208873300Y-130585100D02*
X208873300Y-136377100D01*
X209591700Y-129866700D02*
X208873300Y-130585100D01*
X210608100Y-129866700D02*
X209591700Y-129866700D01*
X211368800Y-129106000D02*
X210608100Y-129866700D01*
X211368800Y-120462300D02*
X211368800Y-129106000D01*
X210699800Y-119793300D02*
X211368800Y-120462300D01*
X209620300Y-119793300D02*
X210699800Y-119793300D01*
X208823100Y-118996100D02*
X209620300Y-119793300D01*
X208823100Y-117216900D02*
X208823100Y-118996100D01*
X210100000Y-115940000D02*
X208823100Y-117216900D01*
%TO.N,/GPIO12*%
X162076200Y-98005500D02*
X162076200Y-100502600D01*
X172471700Y-87610000D02*
X162076200Y-98005500D01*
X186350900Y-87610000D02*
X172471700Y-87610000D01*
X205939400Y-107198500D02*
X186350900Y-87610000D01*
%TO.N,/GPIO27*%
X211200000Y-114500000D02*
X210100000Y-113400000D01*
X220460000Y-114500000D02*
X211200000Y-114500000D01*
%TO.N,/GPIO32*%
X209660000Y-124000000D02*
X210100000Y-123560000D01*
X209660000Y-124000000D02*
X210100000Y-123560000D01*
X208000000Y-124000000D02*
X209660000Y-124000000D01*
X207691700Y-121151700D02*
X210100000Y-123560000D01*
X207691700Y-118109500D02*
X207691700Y-121151700D01*
X204301300Y-114719100D02*
X207691700Y-118109500D01*
%TO.N,/GPIO34*%
X198437600Y-71609900D02*
X203767900Y-76940200D01*
X187137200Y-71609900D02*
X198437600Y-71609900D01*
X181027300Y-65500000D02*
X187137200Y-71609900D01*
X165500000Y-65500000D02*
X181027300Y-65500000D01*
%TO.N,/GPIO13*%
X172320000Y-68000000D02*
X210100000Y-105780000D01*
X165500000Y-68000000D02*
X172320000Y-68000000D01*
%TO.N,/GPIO14*%
X170198000Y-70500000D02*
X165500000Y-70500000D01*
X210100000Y-110402000D02*
X170198000Y-70500000D01*
X210100000Y-110860000D02*
X210100000Y-110402000D01*
%TO.N,Net-(J11-Pin_5)*%
X215450000Y-60000000D02*
X236500000Y-60000000D01*
X213025000Y-57575000D02*
X215450000Y-60000000D01*
%TO.N,Net-(J11-Pin_4)*%
X215490000Y-57500000D02*
X236500000Y-57500000D01*
X213025000Y-55035000D02*
X215490000Y-57500000D01*
%TO.N,Net-(J11-Pin_3)*%
X215530000Y-55000000D02*
X236500000Y-55000000D01*
X213025000Y-52495000D02*
X215530000Y-55000000D01*
%TO.N,Net-(J11-Pin_2)*%
X215570000Y-52500000D02*
X236500000Y-52500000D01*
X213025000Y-49955000D02*
X215570000Y-52500000D01*
%TO.N,/GPIO23*%
X176957800Y-101295100D02*
X180186500Y-98066400D01*
X176957800Y-102932900D02*
X176957800Y-101295100D01*
%TO.N,/GPIO22*%
X172780000Y-133720000D02*
X184700000Y-133720000D01*
X171540000Y-134960000D02*
X172780000Y-133720000D01*
X163267400Y-119267400D02*
X164500000Y-120500000D01*
X163267400Y-101772600D02*
X163267400Y-119267400D01*
X166500000Y-98540000D02*
X163267400Y-101772600D01*
%TO.N,/ESP32-TX0*%
X170240000Y-131180000D02*
X184700000Y-131180000D01*
X166460000Y-134960000D02*
X170240000Y-131180000D01*
%TO.N,/ESP32-RX0*%
X170240000Y-128640000D02*
X184700000Y-128640000D01*
X163920000Y-134960000D02*
X170240000Y-128640000D01*
%TO.N,/GPIO21*%
X176560000Y-117960000D02*
X184700000Y-126100000D01*
X164500000Y-117960000D02*
X176560000Y-117960000D01*
X231050000Y-124500000D02*
X236500000Y-124500000D01*
X220000000Y-135550000D02*
X231050000Y-124500000D01*
X201722700Y-132393700D02*
X201008300Y-133108100D01*
X201722700Y-128222700D02*
X201722700Y-132393700D01*
X200500000Y-127000000D02*
X201722700Y-128222700D01*
%TO.N,/GPIO19*%
X173767500Y-92652500D02*
X175000000Y-91420000D01*
X173767500Y-97574800D02*
X173767500Y-92652500D01*
X173865800Y-97673100D02*
X173767500Y-97574800D01*
X173865800Y-112138000D02*
X173865800Y-97673100D01*
X179929100Y-118201300D02*
X173865800Y-112138000D01*
X179929100Y-118789100D02*
X179929100Y-118201300D01*
X184700000Y-123560000D02*
X179929100Y-118789100D01*
%TO.N,/GPIO18*%
X173189100Y-90690900D02*
X175000000Y-88880000D01*
X173189100Y-98045300D02*
X173189100Y-90690900D01*
%TO.N,/GPIO5*%
X184855000Y-118325000D02*
X184700000Y-118480000D01*
X184855000Y-118325000D02*
X184700000Y-118480000D01*
X195325000Y-118325000D02*
X184855000Y-118325000D01*
X202500000Y-125500000D02*
X195325000Y-118325000D01*
%TO.N,/GPIO4*%
X226810000Y-111500000D02*
X224810000Y-109500000D01*
X236500000Y-111500000D02*
X226810000Y-111500000D01*
X201672500Y-112130000D02*
X198364000Y-108821500D01*
X222180000Y-112130000D02*
X201672500Y-112130000D01*
X224810000Y-109500000D02*
X222180000Y-112130000D01*
%TO.N,/GPIO2*%
X186014800Y-107005200D02*
X184700000Y-108320000D01*
X186014800Y-102791000D02*
X186014800Y-107005200D01*
X185237100Y-102013300D02*
X186014800Y-102791000D01*
X178994300Y-102013300D02*
X185237100Y-102013300D01*
X174799300Y-106208300D02*
X178994300Y-102013300D01*
%TO.N,/GPIO15*%
X172810000Y-136230000D02*
X171540000Y-137500000D01*
X177663100Y-136230000D02*
X172810000Y-136230000D01*
X178903100Y-134990000D02*
X177663100Y-136230000D01*
X185175100Y-134990000D02*
X178903100Y-134990000D01*
X185973100Y-134192000D02*
X185175100Y-134990000D01*
X185973100Y-123098200D02*
X185973100Y-134192000D01*
X185164900Y-122290000D02*
X185973100Y-123098200D01*
X184187400Y-122290000D02*
X185164900Y-122290000D01*
X183420700Y-121523300D02*
X184187400Y-122290000D01*
X183420700Y-107059300D02*
X183420700Y-121523300D01*
X184700000Y-105780000D02*
X183420700Y-107059300D01*
%TO.N,/3.3V*%
D25*
X188246000Y-100700000D02*
X184700000Y-100700000D01*
X206300000Y-118754000D02*
X188246000Y-100700000D01*
X206300000Y-136540000D02*
X206300000Y-118754000D01*
X197880000Y-136540000D02*
X206300000Y-136540000D01*
X191000000Y-129660000D02*
X197880000Y-136540000D01*
X180500000Y-96500000D02*
X175000000Y-96500000D01*
X184700000Y-100700000D02*
X180500000Y-96500000D01*
X187545000Y-47415000D02*
X176360000Y-58600000D01*
X187625000Y-47415000D02*
X187545000Y-47415000D01*
X188100000Y-70340000D02*
X176360000Y-58600000D01*
X175760000Y-58000000D02*
X165500000Y-58000000D01*
X176360000Y-58600000D02*
X175760000Y-58000000D01*
X165246600Y-75500000D02*
X165500000Y-75500000D01*
X163490600Y-73744000D02*
X165246600Y-75500000D01*
X163490600Y-60009400D02*
X163490600Y-73744000D01*
X165500000Y-58000000D02*
X163490600Y-60009400D01*
X220190000Y-106500000D02*
X236500000Y-106500000D01*
X217190000Y-109500000D02*
X220190000Y-106500000D01*
X230713500Y-135550000D02*
X225000000Y-135550000D01*
X238487800Y-127775700D02*
X230713500Y-135550000D01*
X238487800Y-121225800D02*
X238487800Y-127775700D01*
X236762000Y-119500000D02*
X238487800Y-121225800D01*
X236500000Y-119500000D02*
X236762000Y-119500000D01*
X199969800Y-70340000D02*
X188100000Y-70340000D01*
X223669800Y-94040000D02*
X199969800Y-70340000D01*
X228000000Y-94040000D02*
X223669800Y-94040000D01*
%TO.N,Net-(J12-Pin_5)*%
D24*
X234500000Y-80500000D02*
X236500000Y-82500000D01*
X213500000Y-80500000D02*
X234500000Y-80500000D01*
%TO.N,Net-(J12-Pin_4)*%
X234460000Y-77960000D02*
X236500000Y-80000000D01*
X213500000Y-77960000D02*
X234460000Y-77960000D01*
%TO.N,Net-(J12-Pin_3)*%
X234420000Y-75420000D02*
X236500000Y-77500000D01*
X213500000Y-75420000D02*
X234420000Y-75420000D01*
%TO.N,Net-(J12-Pin_2)*%
X234380000Y-72880000D02*
X236500000Y-75000000D01*
X213500000Y-72880000D02*
X234380000Y-72880000D01*
%TD*%
%TA.AperFunction,Conductor*%
%TO.N,GND*%
G36*
X235291618Y-124945185D02*
G01*
X235335062Y-124993203D01*
X235387880Y-125096864D01*
X235391006Y-125102998D01*
X235497441Y-125249494D01*
X235497445Y-125249499D01*
X235625500Y-125377554D01*
X235625505Y-125377558D01*
X235727268Y-125451492D01*
X235772006Y-125483996D01*
X235877484Y-125537740D01*
X235933360Y-125566211D01*
X235933363Y-125566212D01*
X236019476Y-125594191D01*
X236105591Y-125622171D01*
X236130291Y-125626083D01*
X236139406Y-125627527D01*
X236202540Y-125657457D01*
X236239471Y-125716768D01*
X236238473Y-125786631D01*
X236199863Y-125844863D01*
X236139406Y-125872473D01*
X236105589Y-125877829D01*
X235933363Y-125933787D01*
X235933360Y-125933788D01*
X235772002Y-126016006D01*
X235625505Y-126122441D01*
X235625500Y-126122445D01*
X235497445Y-126250500D01*
X235497441Y-126250505D01*
X235391006Y-126397002D01*
X235308788Y-126558360D01*
X235308787Y-126558363D01*
X235252829Y-126730589D01*
X235224500Y-126909448D01*
X235224500Y-127090551D01*
X235252829Y-127269410D01*
X235308787Y-127441636D01*
X235308788Y-127441639D01*
X235364664Y-127551300D01*
X235377651Y-127576788D01*
X235391006Y-127602997D01*
X235497441Y-127749494D01*
X235497445Y-127749499D01*
X235625500Y-127877554D01*
X235625505Y-127877558D01*
X235740956Y-127961437D01*
X235772006Y-127983996D01*
X235844497Y-128020932D01*
X235933360Y-128066211D01*
X235933363Y-128066212D01*
X235998578Y-128087401D01*
X236105591Y-128122171D01*
X236188429Y-128135291D01*
X236284449Y-128150500D01*
X236284454Y-128150500D01*
X236328007Y-128150500D01*
X236395046Y-128170185D01*
X236440801Y-128222989D01*
X236450745Y-128292147D01*
X236421720Y-128355703D01*
X236415688Y-128362181D01*
X230314688Y-134463181D01*
X230253365Y-134496666D01*
X230227007Y-134499500D01*
X226105640Y-134499500D01*
X226038601Y-134479815D01*
X226006837Y-134450427D01*
X225992921Y-134432077D01*
X225872343Y-134340639D01*
X225731561Y-134285122D01*
X225685926Y-134279642D01*
X225643102Y-134274500D01*
X224356898Y-134274500D01*
X224317853Y-134279188D01*
X224268438Y-134285122D01*
X224127656Y-134340639D01*
X224007077Y-134432077D01*
X223915638Y-134552658D01*
X223864566Y-134682166D01*
X223821660Y-134737309D01*
X223755752Y-134760502D01*
X223687768Y-134744381D01*
X223648894Y-134709560D01*
X223529727Y-134545540D01*
X223529723Y-134545535D01*
X223379464Y-134395276D01*
X223379459Y-134395272D01*
X223207557Y-134270379D01*
X223018215Y-134173903D01*
X222816124Y-134108241D01*
X222750000Y-134097768D01*
X222750000Y-135145854D01*
X222683343Y-135107370D01*
X222562535Y-135075000D01*
X222437465Y-135075000D01*
X222316657Y-135107370D01*
X222250000Y-135145854D01*
X222250000Y-134097767D01*
X222246277Y-134094588D01*
X222208084Y-134036081D01*
X222207586Y-133966213D01*
X222239124Y-133912622D01*
X231189929Y-124961819D01*
X231251252Y-124928334D01*
X231277610Y-124925500D01*
X235224579Y-124925500D01*
X235291618Y-124945185D01*
G37*
%TD.AperFunction*%
%TA.AperFunction,Conductor*%
G36*
X240442539Y-40520185D02*
G01*
X240488294Y-40572989D01*
X240499500Y-40624500D01*
X240499500Y-139375500D01*
X240479815Y-139442539D01*
X240427011Y-139488294D01*
X240375500Y-139499500D01*
X212124000Y-139499500D01*
X212056961Y-139479815D01*
X212011206Y-139427011D01*
X212000000Y-139375500D01*
X212000000Y-136773210D01*
X212019685Y-136706171D01*
X212036319Y-136685529D01*
X212121349Y-136600499D01*
X212210985Y-136510863D01*
X212267003Y-136413837D01*
X212296000Y-136305618D01*
X212296000Y-136193582D01*
X212296000Y-135334448D01*
X216349500Y-135334448D01*
X216349500Y-135765551D01*
X216377829Y-135944410D01*
X216433787Y-136116636D01*
X216433788Y-136116639D01*
X216474617Y-136196768D01*
X216510836Y-136267852D01*
X216516006Y-136277997D01*
X216622441Y-136424494D01*
X216622445Y-136424499D01*
X216750500Y-136552554D01*
X216750505Y-136552558D01*
X216846700Y-136622447D01*
X216897006Y-136658996D01*
X216974945Y-136698708D01*
X217058360Y-136741211D01*
X217058363Y-136741212D01*
X217128192Y-136763900D01*
X217230591Y-136797171D01*
X217313429Y-136810291D01*
X217409449Y-136825500D01*
X217409454Y-136825500D01*
X217590551Y-136825500D01*
X217677259Y-136811765D01*
X217769409Y-136797171D01*
X217941639Y-136741211D01*
X218102994Y-136658996D01*
X218249501Y-136552553D01*
X218377553Y-136424501D01*
X218483996Y-136277994D01*
X218566211Y-136116639D01*
X218622171Y-135944409D01*
X218627527Y-135910594D01*
X218657456Y-135847459D01*
X218716768Y-135810528D01*
X218786630Y-135811526D01*
X218844863Y-135850136D01*
X218872473Y-135910594D01*
X218877829Y-135944410D01*
X218933787Y-136116636D01*
X218933788Y-136116639D01*
X218974617Y-136196768D01*
X219010836Y-136267852D01*
X219016006Y-136277997D01*
X219122441Y-136424494D01*
X219122445Y-136424499D01*
X219250500Y-136552554D01*
X219250505Y-136552558D01*
X219346700Y-136622447D01*
X219397006Y-136658996D01*
X219474945Y-136698708D01*
X219558360Y-136741211D01*
X219558363Y-136741212D01*
X219628192Y-136763900D01*
X219730591Y-136797171D01*
X219813429Y-136810291D01*
X219909449Y-136825500D01*
X219909454Y-136825500D01*
X220090551Y-136825500D01*
X220177259Y-136811765D01*
X220269409Y-136797171D01*
X220441639Y-136741211D01*
X220602994Y-136658996D01*
X220749501Y-136552553D01*
X220877553Y-136424501D01*
X220983996Y-136277994D01*
X221027563Y-136192488D01*
X221075537Y-136141692D01*
X221143358Y-136124897D01*
X221209493Y-136147434D01*
X221248533Y-136192488D01*
X221345379Y-136382557D01*
X221470272Y-136554459D01*
X221470276Y-136554464D01*
X221620535Y-136704723D01*
X221620540Y-136704727D01*
X221792442Y-136829620D01*
X221981782Y-136926095D01*
X222183871Y-136991757D01*
X222250000Y-137002231D01*
X222250000Y-135954145D01*
X222316657Y-135992630D01*
X222437465Y-136025000D01*
X222562535Y-136025000D01*
X222683343Y-135992630D01*
X222750000Y-135954145D01*
X222750000Y-137002230D01*
X222816126Y-136991757D01*
X222816129Y-136991757D01*
X223018217Y-136926095D01*
X223207557Y-136829620D01*
X223379459Y-136704727D01*
X223379464Y-136704723D01*
X223529721Y-136554466D01*
X223648893Y-136390439D01*
X223704223Y-136347773D01*
X223773836Y-136341794D01*
X223835632Y-136374399D01*
X223864566Y-136417833D01*
X223915638Y-136547341D01*
X224007077Y-136667922D01*
X224127656Y-136759360D01*
X224127657Y-136759360D01*
X224127658Y-136759361D01*
X224268436Y-136814877D01*
X224356898Y-136825500D01*
X224356903Y-136825500D01*
X225643097Y-136825500D01*
X225643102Y-136825500D01*
X225731564Y-136814877D01*
X225872342Y-136759361D01*
X225992922Y-136667922D01*
X226006837Y-136649573D01*
X226063030Y-136608051D01*
X226105640Y-136600500D01*
X230816966Y-136600500D01*
X230816967Y-136600499D01*
X231019920Y-136560130D01*
X231211098Y-136480941D01*
X231383155Y-136365977D01*
X231529477Y-136219655D01*
X231529478Y-136219653D01*
X231536544Y-136212587D01*
X231536547Y-136212583D01*
X239157451Y-128591679D01*
X239157455Y-128591677D01*
X239303777Y-128445355D01*
X239418741Y-128273298D01*
X239497930Y-128082120D01*
X239536197Y-127889737D01*
X239538300Y-127879166D01*
X239538300Y-127672235D01*
X239538300Y-121335399D01*
X239538301Y-121335378D01*
X239538301Y-121122332D01*
X239497931Y-120919385D01*
X239497930Y-120919384D01*
X239497930Y-120919380D01*
X239435811Y-120769410D01*
X239418745Y-120728208D01*
X239418738Y-120728195D01*
X239303777Y-120556145D01*
X239303774Y-120556141D01*
X237811819Y-119064186D01*
X237778334Y-119002863D01*
X237775500Y-118976505D01*
X237775500Y-118856903D01*
X237775500Y-118856898D01*
X237764877Y-118768436D01*
X237709361Y-118627658D01*
X237709360Y-118627657D01*
X237709360Y-118627656D01*
X237617922Y-118507077D01*
X237497343Y-118415639D01*
X237356561Y-118360122D01*
X237310926Y-118354642D01*
X237268102Y-118349500D01*
X235731898Y-118349500D01*
X235692853Y-118354188D01*
X235643438Y-118360122D01*
X235502656Y-118415639D01*
X235382077Y-118507077D01*
X235290639Y-118627656D01*
X235235122Y-118768438D01*
X235229188Y-118817853D01*
X235224500Y-118856898D01*
X235224500Y-120143102D01*
X235230126Y-120189954D01*
X235235122Y-120231561D01*
X235290639Y-120372343D01*
X235382077Y-120492922D01*
X235502658Y-120584361D01*
X235502660Y-120584362D01*
X235632165Y-120635433D01*
X235687309Y-120678338D01*
X235710502Y-120744246D01*
X235694381Y-120812231D01*
X235659560Y-120851105D01*
X235495540Y-120970272D01*
X235495535Y-120970276D01*
X235345276Y-121120535D01*
X235345272Y-121120540D01*
X235220379Y-121292442D01*
X235123904Y-121481782D01*
X235058242Y-121683870D01*
X235058242Y-121683873D01*
X235047769Y-121750000D01*
X236095854Y-121750000D01*
X236057370Y-121816657D01*
X236025000Y-121937465D01*
X236025000Y-122062535D01*
X236057370Y-122183343D01*
X236095854Y-122250000D01*
X235047769Y-122250000D01*
X235058242Y-122316126D01*
X235058242Y-122316129D01*
X235123904Y-122518217D01*
X235220379Y-122707557D01*
X235345272Y-122879459D01*
X235345276Y-122879464D01*
X235495535Y-123029723D01*
X235495540Y-123029727D01*
X235667442Y-123154620D01*
X235857511Y-123251466D01*
X235908307Y-123299441D01*
X235925102Y-123367262D01*
X235902565Y-123433397D01*
X235857512Y-123472435D01*
X235772004Y-123516004D01*
X235625505Y-123622441D01*
X235625500Y-123622445D01*
X235497445Y-123750500D01*
X235497441Y-123750505D01*
X235391006Y-123897001D01*
X235378807Y-123920943D01*
X235335062Y-124006796D01*
X235287090Y-124057591D01*
X235224579Y-124074500D01*
X230993982Y-124074500D01*
X230885763Y-124103497D01*
X230885760Y-124103498D01*
X230788740Y-124159513D01*
X230788734Y-124159517D01*
X220603270Y-134344980D01*
X220541947Y-134378465D01*
X220472255Y-134373481D01*
X220459296Y-134367785D01*
X220441640Y-134358789D01*
X220441636Y-134358787D01*
X220269410Y-134302829D01*
X220090551Y-134274500D01*
X220090546Y-134274500D01*
X219909454Y-134274500D01*
X219909449Y-134274500D01*
X219730589Y-134302829D01*
X219558363Y-134358787D01*
X219558360Y-134358788D01*
X219397002Y-134441006D01*
X219250505Y-134547441D01*
X219250500Y-134547445D01*
X219122445Y-134675500D01*
X219122441Y-134675505D01*
X219016006Y-134822002D01*
X218933788Y-134983360D01*
X218933787Y-134983363D01*
X218877829Y-135155589D01*
X218872473Y-135189406D01*
X218842543Y-135252540D01*
X218783232Y-135289471D01*
X218713369Y-135288473D01*
X218655137Y-135249863D01*
X218627527Y-135189406D01*
X218624438Y-135169905D01*
X218622171Y-135155591D01*
X218571182Y-134998661D01*
X218566212Y-134983363D01*
X218566211Y-134983360D01*
X218529410Y-134911136D01*
X218483996Y-134822006D01*
X218439311Y-134760502D01*
X218377558Y-134675505D01*
X218377554Y-134675500D01*
X218249499Y-134547445D01*
X218249494Y-134547441D01*
X218102997Y-134441006D01*
X218102996Y-134441005D01*
X218102994Y-134441004D01*
X218039565Y-134408685D01*
X217941639Y-134358788D01*
X217941636Y-134358787D01*
X217769410Y-134302829D01*
X217590551Y-134274500D01*
X217590546Y-134274500D01*
X217409454Y-134274500D01*
X217409449Y-134274500D01*
X217230589Y-134302829D01*
X217058363Y-134358787D01*
X217058360Y-134358788D01*
X216897002Y-134441006D01*
X216750505Y-134547441D01*
X216750500Y-134547445D01*
X216622445Y-134675500D01*
X216622441Y-134675505D01*
X216516006Y-134822002D01*
X216433788Y-134983360D01*
X216433787Y-134983363D01*
X216377829Y-135155589D01*
X216349500Y-135334448D01*
X212296000Y-135334448D01*
X212296000Y-124878711D01*
X221149500Y-124878711D01*
X221149500Y-125121288D01*
X221181161Y-125361785D01*
X221243947Y-125596104D01*
X221293928Y-125716768D01*
X221336776Y-125820212D01*
X221458064Y-126030289D01*
X221458066Y-126030292D01*
X221458067Y-126030293D01*
X221605733Y-126222736D01*
X221605739Y-126222743D01*
X221777256Y-126394260D01*
X221777263Y-126394266D01*
X221890321Y-126481018D01*
X221969711Y-126541936D01*
X222179788Y-126663224D01*
X222403900Y-126756054D01*
X222638211Y-126818838D01*
X222818586Y-126842584D01*
X222878711Y-126850500D01*
X222878712Y-126850500D01*
X223121289Y-126850500D01*
X223169388Y-126844167D01*
X223361789Y-126818838D01*
X223596100Y-126756054D01*
X223820212Y-126663224D01*
X224030289Y-126541936D01*
X224222738Y-126394265D01*
X224394265Y-126222738D01*
X224541936Y-126030289D01*
X224663224Y-125820212D01*
X224756054Y-125596100D01*
X224818838Y-125361789D01*
X224850500Y-125121288D01*
X224850500Y-124878712D01*
X224818838Y-124638211D01*
X224756054Y-124403900D01*
X224663224Y-124179788D01*
X224541936Y-123969711D01*
X224394265Y-123777262D01*
X224394260Y-123777256D01*
X224222743Y-123605739D01*
X224222736Y-123605733D01*
X224030293Y-123458067D01*
X224030292Y-123458066D01*
X224030289Y-123458064D01*
X223820212Y-123336776D01*
X223820205Y-123336773D01*
X223596104Y-123243947D01*
X223361785Y-123181161D01*
X223121289Y-123149500D01*
X223121288Y-123149500D01*
X222878712Y-123149500D01*
X222878711Y-123149500D01*
X222638214Y-123181161D01*
X222403895Y-123243947D01*
X222179794Y-123336773D01*
X222179785Y-123336777D01*
X221969706Y-123458067D01*
X221777263Y-123605733D01*
X221777256Y-123605739D01*
X221605739Y-123777256D01*
X221605733Y-123777263D01*
X221458067Y-123969706D01*
X221336777Y-124179785D01*
X221336773Y-124179794D01*
X221243947Y-124403895D01*
X221181161Y-124638214D01*
X221149500Y-124878711D01*
X212296000Y-124878711D01*
X212296000Y-120194482D01*
X212267003Y-120086263D01*
X212210985Y-119989237D01*
X212131763Y-119910015D01*
X211214344Y-118992596D01*
X211180859Y-118931273D01*
X211184093Y-118866600D01*
X211222171Y-118749409D01*
X211238047Y-118649171D01*
X211250500Y-118570551D01*
X211250500Y-118389448D01*
X211233930Y-118284837D01*
X211222171Y-118210591D01*
X211166211Y-118038361D01*
X211166211Y-118038360D01*
X211118773Y-117945260D01*
X211083996Y-117877006D01*
X211063092Y-117848234D01*
X210977558Y-117730505D01*
X210977554Y-117730500D01*
X210849499Y-117602445D01*
X210849494Y-117602441D01*
X210702997Y-117496006D01*
X210702996Y-117496005D01*
X210702994Y-117496004D01*
X210651300Y-117469664D01*
X210541639Y-117413788D01*
X210541636Y-117413787D01*
X210369410Y-117357829D01*
X210209321Y-117332473D01*
X210146186Y-117302544D01*
X210109255Y-117243232D01*
X210110253Y-117173370D01*
X210148863Y-117115137D01*
X210209321Y-117087527D01*
X210279425Y-117076422D01*
X210369409Y-117062171D01*
X210541639Y-117006211D01*
X210702994Y-116923996D01*
X210849501Y-116817553D01*
X210977553Y-116689501D01*
X211083996Y-116542994D01*
X211166211Y-116381639D01*
X211222171Y-116209409D01*
X211236765Y-116117259D01*
X211250500Y-116030551D01*
X211250500Y-115849448D01*
X211234019Y-115745397D01*
X211222171Y-115670591D01*
X211188257Y-115566212D01*
X211166212Y-115498363D01*
X211166211Y-115498360D01*
X211137740Y-115442484D01*
X211083996Y-115337006D01*
X211070396Y-115318287D01*
X210977558Y-115190505D01*
X210977554Y-115190500D01*
X210874167Y-115087113D01*
X210849501Y-115062447D01*
X210702997Y-114956006D01*
X210702996Y-114956005D01*
X210541639Y-114873788D01*
X210541636Y-114873787D01*
X210369410Y-114817829D01*
X210209321Y-114792473D01*
X210146186Y-114762544D01*
X210109255Y-114703232D01*
X210110253Y-114633370D01*
X210148863Y-114575137D01*
X210209321Y-114547527D01*
X210317259Y-114530430D01*
X210369409Y-114522171D01*
X210486600Y-114484093D01*
X210556438Y-114482099D01*
X210612596Y-114514344D01*
X210859515Y-114761263D01*
X210938737Y-114840485D01*
X211035763Y-114896503D01*
X211143982Y-114925500D01*
X219309579Y-114925500D01*
X219376618Y-114945185D01*
X219420062Y-114993203D01*
X219455341Y-115062441D01*
X219476006Y-115102998D01*
X219582441Y-115249494D01*
X219582445Y-115249499D01*
X219710500Y-115377554D01*
X219710505Y-115377558D01*
X219738427Y-115397844D01*
X219857006Y-115483996D01*
X219962484Y-115537740D01*
X220018360Y-115566211D01*
X220018363Y-115566212D01*
X220097997Y-115592086D01*
X220190591Y-115622171D01*
X220273429Y-115635291D01*
X220369449Y-115650500D01*
X220369454Y-115650500D01*
X220550551Y-115650500D01*
X220637259Y-115636765D01*
X220729409Y-115622171D01*
X220901639Y-115566211D01*
X221062994Y-115483996D01*
X221209501Y-115377553D01*
X221337553Y-115249501D01*
X221337555Y-115249497D01*
X221337558Y-115249495D01*
X221425682Y-115128202D01*
X221481011Y-115085536D01*
X221550625Y-115079557D01*
X221612420Y-115112162D01*
X221646777Y-115173001D01*
X221650000Y-115201087D01*
X221650000Y-115397844D01*
X221656401Y-115457372D01*
X221656403Y-115457379D01*
X221706645Y-115592086D01*
X221706649Y-115592093D01*
X221792809Y-115707187D01*
X221792812Y-115707190D01*
X221907906Y-115793350D01*
X221907913Y-115793354D01*
X222042620Y-115843596D01*
X222042627Y-115843598D01*
X222102155Y-115849999D01*
X222102172Y-115850000D01*
X222750000Y-115850000D01*
X222750000Y-114933012D01*
X222807007Y-114965925D01*
X222934174Y-115000000D01*
X223065826Y-115000000D01*
X223192993Y-114965925D01*
X223250000Y-114933012D01*
X223250000Y-115850000D01*
X223897828Y-115850000D01*
X223897844Y-115849999D01*
X223957372Y-115843598D01*
X223957379Y-115843596D01*
X224092086Y-115793354D01*
X224092093Y-115793350D01*
X224207187Y-115707190D01*
X224207190Y-115707187D01*
X224293350Y-115592093D01*
X224293354Y-115592086D01*
X224343596Y-115457379D01*
X224343598Y-115457372D01*
X224349999Y-115397844D01*
X224350000Y-115397827D01*
X224350000Y-114750000D01*
X223433012Y-114750000D01*
X223465925Y-114692993D01*
X223500000Y-114565826D01*
X223500000Y-114434174D01*
X223465925Y-114307007D01*
X223433012Y-114250000D01*
X224350000Y-114250000D01*
X224350000Y-113602172D01*
X224349999Y-113602155D01*
X224343598Y-113542627D01*
X224343596Y-113542620D01*
X224293354Y-113407913D01*
X224293350Y-113407906D01*
X224207190Y-113292812D01*
X224207187Y-113292809D01*
X224092093Y-113206649D01*
X224092086Y-113206645D01*
X223957379Y-113156403D01*
X223957372Y-113156401D01*
X223897844Y-113150000D01*
X223250000Y-113150000D01*
X223250000Y-114066988D01*
X223192993Y-114034075D01*
X223065826Y-114000000D01*
X222934174Y-114000000D01*
X222807007Y-114034075D01*
X222750000Y-114066988D01*
X222750000Y-113150000D01*
X222102155Y-113150000D01*
X222042627Y-113156401D01*
X222042620Y-113156403D01*
X221907913Y-113206645D01*
X221907906Y-113206649D01*
X221792812Y-113292809D01*
X221792809Y-113292812D01*
X221706649Y-113407906D01*
X221706645Y-113407913D01*
X221656403Y-113542620D01*
X221656401Y-113542627D01*
X221650000Y-113602155D01*
X221650000Y-113798912D01*
X221630315Y-113865951D01*
X221577511Y-113911706D01*
X221508353Y-113921650D01*
X221444797Y-113892625D01*
X221425682Y-113871797D01*
X221337558Y-113750505D01*
X221337554Y-113750500D01*
X221209499Y-113622445D01*
X221209494Y-113622441D01*
X221062997Y-113516006D01*
X221062996Y-113516005D01*
X221062994Y-113516004D01*
X220998209Y-113482994D01*
X220901639Y-113433788D01*
X220901636Y-113433787D01*
X220729410Y-113377829D01*
X220550551Y-113349500D01*
X220550546Y-113349500D01*
X220369454Y-113349500D01*
X220369449Y-113349500D01*
X220190589Y-113377829D01*
X220018363Y-113433787D01*
X220018360Y-113433788D01*
X219857002Y-113516006D01*
X219710505Y-113622441D01*
X219710500Y-113622445D01*
X219582445Y-113750500D01*
X219582441Y-113750505D01*
X219476006Y-113897001D01*
X219468514Y-113911706D01*
X219420062Y-114006796D01*
X219372090Y-114057591D01*
X219309579Y-114074500D01*
X211427610Y-114074500D01*
X211398169Y-114065855D01*
X211368183Y-114059332D01*
X211363167Y-114055577D01*
X211360571Y-114054815D01*
X211339929Y-114038181D01*
X211214344Y-113912596D01*
X211180859Y-113851273D01*
X211184093Y-113786600D01*
X211222171Y-113669409D01*
X211232823Y-113602155D01*
X211250500Y-113490551D01*
X211250500Y-113309448D01*
X211226259Y-113156403D01*
X211222171Y-113130591D01*
X211166211Y-112958361D01*
X211166211Y-112958360D01*
X211137740Y-112902484D01*
X211083996Y-112797006D01*
X211078505Y-112789448D01*
X211051578Y-112752385D01*
X211028098Y-112686578D01*
X211043924Y-112618525D01*
X211094030Y-112569830D01*
X211151896Y-112555500D01*
X222236016Y-112555500D01*
X222236018Y-112555500D01*
X222344237Y-112526503D01*
X222441263Y-112470485D01*
X224337085Y-110574661D01*
X224398406Y-110541178D01*
X224463081Y-110544412D01*
X224552299Y-110573402D01*
X224723389Y-110600500D01*
X224723390Y-110600500D01*
X224896610Y-110600500D01*
X224896611Y-110600500D01*
X225067701Y-110573402D01*
X225156918Y-110544412D01*
X225226756Y-110542418D01*
X225282915Y-110574663D01*
X226548737Y-111840485D01*
X226645763Y-111896503D01*
X226753981Y-111925500D01*
X226753982Y-111925500D01*
X235224579Y-111925500D01*
X235291618Y-111945185D01*
X235335062Y-111993203D01*
X235342361Y-112007527D01*
X235391006Y-112102998D01*
X235497441Y-112249494D01*
X235497445Y-112249499D01*
X235625500Y-112377554D01*
X235625505Y-112377558D01*
X235742876Y-112462832D01*
X235772006Y-112483996D01*
X235877484Y-112537740D01*
X235933360Y-112566211D01*
X235933363Y-112566212D01*
X235990259Y-112584698D01*
X236105591Y-112622171D01*
X236188429Y-112635291D01*
X236284449Y-112650500D01*
X236284454Y-112650500D01*
X236715551Y-112650500D01*
X236802259Y-112636765D01*
X236894409Y-112622171D01*
X237066639Y-112566211D01*
X237227994Y-112483996D01*
X237374501Y-112377553D01*
X237502553Y-112249501D01*
X237608996Y-112102994D01*
X237691211Y-111941639D01*
X237747171Y-111769409D01*
X237772498Y-111609501D01*
X237775500Y-111590551D01*
X237775500Y-111409448D01*
X237758423Y-111301636D01*
X237747171Y-111230591D01*
X237691211Y-111058361D01*
X237691211Y-111058360D01*
X237662740Y-111002484D01*
X237608996Y-110897006D01*
X237516325Y-110769454D01*
X237502558Y-110750505D01*
X237502554Y-110750500D01*
X237374499Y-110622445D01*
X237374494Y-110622441D01*
X237227993Y-110516003D01*
X237227992Y-110516002D01*
X237142488Y-110472435D01*
X237091692Y-110424461D01*
X237074897Y-110356640D01*
X237097435Y-110290505D01*
X237142488Y-110251466D01*
X237332558Y-110154620D01*
X237504459Y-110029727D01*
X237504464Y-110029723D01*
X237654723Y-109879464D01*
X237654727Y-109879459D01*
X237779620Y-109707557D01*
X237876095Y-109518217D01*
X237941757Y-109316129D01*
X237941757Y-109316126D01*
X237952231Y-109250000D01*
X236904146Y-109250000D01*
X236942630Y-109183343D01*
X236975000Y-109062535D01*
X236975000Y-108937465D01*
X236942630Y-108816657D01*
X236904146Y-108750000D01*
X237952231Y-108750000D01*
X237941757Y-108683873D01*
X237941757Y-108683870D01*
X237876095Y-108481782D01*
X237779620Y-108292442D01*
X237654727Y-108120540D01*
X237654723Y-108120535D01*
X237504464Y-107970276D01*
X237504459Y-107970272D01*
X237340439Y-107851105D01*
X237297773Y-107795775D01*
X237291794Y-107726162D01*
X237324399Y-107664367D01*
X237367831Y-107635433D01*
X237497342Y-107584361D01*
X237617922Y-107492922D01*
X237709361Y-107372342D01*
X237764877Y-107231564D01*
X237775500Y-107143102D01*
X237775500Y-105856898D01*
X237764877Y-105768436D01*
X237709361Y-105627658D01*
X237709360Y-105627657D01*
X237709360Y-105627656D01*
X237617922Y-105507077D01*
X237497343Y-105415639D01*
X237356561Y-105360122D01*
X237310926Y-105354642D01*
X237268102Y-105349500D01*
X235731898Y-105349500D01*
X235692853Y-105354188D01*
X235643438Y-105360122D01*
X235559047Y-105393402D01*
X235502658Y-105415639D01*
X235491233Y-105424302D01*
X235425924Y-105449127D01*
X235416307Y-105449500D01*
X220299599Y-105449500D01*
X220299579Y-105449499D01*
X220293465Y-105449499D01*
X220086535Y-105449499D01*
X220086533Y-105449499D01*
X219883585Y-105489868D01*
X219883575Y-105489871D01*
X219692408Y-105569054D01*
X219692395Y-105569061D01*
X219520345Y-105684022D01*
X219520341Y-105684025D01*
X216693133Y-108511234D01*
X216661747Y-108534038D01*
X216613211Y-108558768D01*
X216554668Y-108601303D01*
X216473072Y-108660586D01*
X216473070Y-108660588D01*
X216473069Y-108660588D01*
X216350588Y-108783069D01*
X216350588Y-108783070D01*
X216350586Y-108783072D01*
X216341740Y-108795248D01*
X216248768Y-108923211D01*
X216170128Y-109077552D01*
X216116597Y-109242302D01*
X216089500Y-109413389D01*
X216089500Y-109586610D01*
X216113450Y-109737829D01*
X216116598Y-109757701D01*
X216170127Y-109922445D01*
X216248768Y-110076788D01*
X216350586Y-110216928D01*
X216473072Y-110339414D01*
X216613212Y-110441232D01*
X216767555Y-110519873D01*
X216932299Y-110573402D01*
X217103389Y-110600500D01*
X217103390Y-110600500D01*
X217276610Y-110600500D01*
X217276611Y-110600500D01*
X217447701Y-110573402D01*
X217612445Y-110519873D01*
X217766788Y-110441232D01*
X217906928Y-110339414D01*
X218029414Y-110216928D01*
X218131232Y-110076788D01*
X218155962Y-110028250D01*
X218178764Y-109996865D01*
X220588813Y-107586819D01*
X220650136Y-107553334D01*
X220676494Y-107550500D01*
X235416307Y-107550500D01*
X235466983Y-107561328D01*
X235479929Y-107567124D01*
X235502658Y-107584361D01*
X235634774Y-107636461D01*
X235637351Y-107637615D01*
X235661867Y-107658543D01*
X235687309Y-107678338D01*
X235688276Y-107681086D01*
X235690492Y-107682978D01*
X235699804Y-107713846D01*
X235710502Y-107744246D01*
X235709830Y-107747079D01*
X235710672Y-107749870D01*
X235701816Y-107780873D01*
X235694381Y-107812231D01*
X235692148Y-107814723D01*
X235691483Y-107817053D01*
X235684784Y-107822944D01*
X235659560Y-107851105D01*
X235495540Y-107970272D01*
X235495535Y-107970276D01*
X235345276Y-108120535D01*
X235345272Y-108120540D01*
X235220379Y-108292442D01*
X235123904Y-108481782D01*
X235058242Y-108683870D01*
X235058242Y-108683873D01*
X235047769Y-108750000D01*
X236095854Y-108750000D01*
X236057370Y-108816657D01*
X236025000Y-108937465D01*
X236025000Y-109062535D01*
X236057370Y-109183343D01*
X236095854Y-109250000D01*
X235047769Y-109250000D01*
X235058242Y-109316126D01*
X235058242Y-109316129D01*
X235123904Y-109518217D01*
X235220379Y-109707557D01*
X235345272Y-109879459D01*
X235345276Y-109879464D01*
X235495535Y-110029723D01*
X235495540Y-110029727D01*
X235667442Y-110154620D01*
X235857511Y-110251466D01*
X235908307Y-110299441D01*
X235925102Y-110367262D01*
X235902565Y-110433397D01*
X235857512Y-110472435D01*
X235772004Y-110516004D01*
X235625505Y-110622441D01*
X235625500Y-110622445D01*
X235497445Y-110750500D01*
X235497441Y-110750505D01*
X235391006Y-110897001D01*
X235365299Y-110947453D01*
X235335062Y-111006796D01*
X235287090Y-111057591D01*
X235224579Y-111074500D01*
X227037610Y-111074500D01*
X226970571Y-111054815D01*
X226949929Y-111038181D01*
X225884663Y-109972915D01*
X225851178Y-109911592D01*
X225854412Y-109846918D01*
X225883402Y-109757701D01*
X225910500Y-109586611D01*
X225910500Y-109413389D01*
X225883402Y-109242299D01*
X225829873Y-109077555D01*
X225751232Y-108923212D01*
X225649414Y-108783072D01*
X225526928Y-108660586D01*
X225386788Y-108558768D01*
X225232445Y-108480127D01*
X225067701Y-108426598D01*
X225067699Y-108426597D01*
X225067698Y-108426597D01*
X224936271Y-108405781D01*
X224896611Y-108399500D01*
X224723389Y-108399500D01*
X224683728Y-108405781D01*
X224552302Y-108426597D01*
X224387552Y-108480128D01*
X224233211Y-108558768D01*
X224174668Y-108601303D01*
X224093072Y-108660586D01*
X224093070Y-108660588D01*
X224093069Y-108660588D01*
X223970588Y-108783069D01*
X223970588Y-108783070D01*
X223970586Y-108783072D01*
X223961740Y-108795248D01*
X223868768Y-108923211D01*
X223790128Y-109077552D01*
X223736597Y-109242302D01*
X223709500Y-109413389D01*
X223709500Y-109586610D01*
X223736598Y-109757702D01*
X223736598Y-109757705D01*
X223765585Y-109846916D01*
X223767580Y-109916757D01*
X223735335Y-109972915D01*
X222040071Y-111668181D01*
X221978748Y-111701666D01*
X221952390Y-111704500D01*
X211151896Y-111704500D01*
X211084857Y-111684815D01*
X211039102Y-111632011D01*
X211029158Y-111562853D01*
X211051578Y-111507615D01*
X211068369Y-111484502D01*
X211083996Y-111462994D01*
X211166211Y-111301639D01*
X211222171Y-111129409D01*
X211241591Y-111006795D01*
X211250500Y-110950551D01*
X211250500Y-110769448D01*
X211227216Y-110622445D01*
X211222171Y-110590591D01*
X211184108Y-110473442D01*
X211166212Y-110418363D01*
X211166211Y-110418360D01*
X211125984Y-110339411D01*
X211083996Y-110257006D01*
X211046407Y-110205269D01*
X210977558Y-110110505D01*
X210977554Y-110110500D01*
X210849499Y-109982445D01*
X210849494Y-109982441D01*
X210702997Y-109876006D01*
X210702996Y-109876005D01*
X210702994Y-109876004D01*
X210632333Y-109840000D01*
X210541639Y-109793788D01*
X210541636Y-109793787D01*
X210369410Y-109737829D01*
X210209321Y-109712473D01*
X210146186Y-109682544D01*
X210109255Y-109623232D01*
X210110253Y-109553370D01*
X210148863Y-109495137D01*
X210209321Y-109467527D01*
X210279425Y-109456422D01*
X210369409Y-109442171D01*
X210541639Y-109386211D01*
X210702994Y-109303996D01*
X210849501Y-109197553D01*
X210977553Y-109069501D01*
X211083996Y-108922994D01*
X211166211Y-108761639D01*
X211222171Y-108589409D01*
X211236765Y-108497259D01*
X211250500Y-108410551D01*
X211250500Y-108229448D01*
X211231106Y-108107007D01*
X211222171Y-108050591D01*
X211166211Y-107878361D01*
X211166211Y-107878360D01*
X211116538Y-107780873D01*
X211083996Y-107717006D01*
X211045752Y-107664367D01*
X210977558Y-107570505D01*
X210977554Y-107570500D01*
X210849499Y-107442445D01*
X210849494Y-107442441D01*
X210702997Y-107336006D01*
X210702996Y-107336005D01*
X210702994Y-107336004D01*
X210632333Y-107300000D01*
X210541639Y-107253788D01*
X210541636Y-107253787D01*
X210369410Y-107197829D01*
X210209321Y-107172473D01*
X210146186Y-107142544D01*
X210109255Y-107083232D01*
X210110253Y-107013370D01*
X210148863Y-106955137D01*
X210209321Y-106927527D01*
X210279425Y-106916422D01*
X210369409Y-106902171D01*
X210541639Y-106846211D01*
X210702994Y-106763996D01*
X210849501Y-106657553D01*
X210977553Y-106529501D01*
X211083996Y-106382994D01*
X211166211Y-106221639D01*
X211222171Y-106049409D01*
X211236765Y-105957259D01*
X211250500Y-105870551D01*
X211250500Y-105689448D01*
X211231431Y-105569058D01*
X211222171Y-105510591D01*
X211173282Y-105360123D01*
X211166212Y-105338363D01*
X211166211Y-105338360D01*
X211130056Y-105267403D01*
X211083996Y-105177006D01*
X210989300Y-105046667D01*
X210977558Y-105030505D01*
X210977554Y-105030500D01*
X210849499Y-104902445D01*
X210849494Y-104902441D01*
X210702995Y-104796004D01*
X210571314Y-104728908D01*
X210520519Y-104680934D01*
X210503724Y-104613113D01*
X210526262Y-104546978D01*
X210580977Y-104503527D01*
X210589295Y-104500492D01*
X210618217Y-104491095D01*
X210807554Y-104394622D01*
X210861716Y-104355270D01*
X210861717Y-104355270D01*
X210229408Y-103722962D01*
X210292993Y-103705925D01*
X210407007Y-103640099D01*
X210500099Y-103547007D01*
X210565925Y-103432993D01*
X210582962Y-103369408D01*
X211215270Y-104001717D01*
X211215270Y-104001716D01*
X211254622Y-103947554D01*
X211351095Y-103758217D01*
X211416757Y-103556130D01*
X211416757Y-103556127D01*
X211450000Y-103346246D01*
X211450000Y-103133753D01*
X211416757Y-102923872D01*
X211416757Y-102923869D01*
X211351095Y-102721782D01*
X211254624Y-102532449D01*
X211215270Y-102478282D01*
X211215269Y-102478282D01*
X210582962Y-103110590D01*
X210565925Y-103047007D01*
X210500099Y-102932993D01*
X210407007Y-102839901D01*
X210292993Y-102774075D01*
X210229409Y-102757037D01*
X210861716Y-102124728D01*
X210807550Y-102085375D01*
X210806786Y-102084986D01*
X210806546Y-102084759D01*
X210803396Y-102082829D01*
X210803801Y-102082167D01*
X210755988Y-102037013D01*
X210739191Y-101969192D01*
X210761726Y-101903057D01*
X210816440Y-101859604D01*
X210863076Y-101850499D01*
X210994864Y-101850499D01*
X210994879Y-101850497D01*
X210994882Y-101850497D01*
X211019987Y-101847586D01*
X211019988Y-101847585D01*
X211019991Y-101847585D01*
X211122765Y-101802206D01*
X211202206Y-101722765D01*
X211247585Y-101619991D01*
X211250500Y-101594865D01*
X211250499Y-99805136D01*
X211250497Y-99805117D01*
X211247586Y-99780012D01*
X211247585Y-99780010D01*
X211247585Y-99780009D01*
X211202206Y-99677235D01*
X211122765Y-99597794D01*
X211122763Y-99597793D01*
X211019992Y-99552415D01*
X210994865Y-99549500D01*
X209205143Y-99549500D01*
X209205117Y-99549502D01*
X209180012Y-99552413D01*
X209180008Y-99552415D01*
X209077235Y-99597793D01*
X208997794Y-99677234D01*
X208952415Y-99780006D01*
X208952415Y-99780008D01*
X208949500Y-99805131D01*
X208949500Y-101594856D01*
X208949502Y-101594882D01*
X208952413Y-101619987D01*
X208952415Y-101619991D01*
X208997793Y-101722764D01*
X208997794Y-101722765D01*
X209077235Y-101802206D01*
X209180009Y-101847585D01*
X209205135Y-101850500D01*
X209336923Y-101850499D01*
X209403960Y-101870183D01*
X209449715Y-101922987D01*
X209459659Y-101992145D01*
X209430635Y-102055701D01*
X209396387Y-102082507D01*
X209396590Y-102082838D01*
X209393715Y-102084599D01*
X209393239Y-102084972D01*
X209392451Y-102085373D01*
X209392440Y-102085380D01*
X209338282Y-102124727D01*
X209338282Y-102124728D01*
X209970591Y-102757037D01*
X209907007Y-102774075D01*
X209792993Y-102839901D01*
X209699901Y-102932993D01*
X209634075Y-103047007D01*
X209617037Y-103110591D01*
X208984728Y-102478282D01*
X208984727Y-102478282D01*
X208945380Y-102532439D01*
X208848904Y-102721782D01*
X208783242Y-102923869D01*
X208783242Y-102923872D01*
X208750000Y-103133753D01*
X208750000Y-103346247D01*
X208749999Y-103346247D01*
X208781008Y-103542028D01*
X208772053Y-103611321D01*
X208727057Y-103664773D01*
X208660305Y-103685412D01*
X208592992Y-103666687D01*
X208570854Y-103649106D01*
X172581265Y-67659517D01*
X172581263Y-67659515D01*
X172484237Y-67603497D01*
X172376018Y-67574500D01*
X172376017Y-67574500D01*
X166775421Y-67574500D01*
X166708382Y-67554815D01*
X166664937Y-67506796D01*
X166608996Y-67397006D01*
X166608994Y-67397003D01*
X166608993Y-67397001D01*
X166502558Y-67250505D01*
X166502554Y-67250500D01*
X166374499Y-67122445D01*
X166374494Y-67122441D01*
X166227997Y-67016006D01*
X166227996Y-67016005D01*
X166227994Y-67016004D01*
X166176300Y-66989664D01*
X166066639Y-66933788D01*
X166066636Y-66933787D01*
X165894410Y-66877829D01*
X165860594Y-66872473D01*
X165797459Y-66842544D01*
X165760528Y-66783232D01*
X165761526Y-66713370D01*
X165800136Y-66655137D01*
X165860594Y-66627527D01*
X165868388Y-66626292D01*
X165894409Y-66622171D01*
X166066639Y-66566211D01*
X166227994Y-66483996D01*
X166374501Y-66377553D01*
X166502553Y-66249501D01*
X166608996Y-66102994D01*
X166664937Y-65993203D01*
X166712910Y-65942409D01*
X166775421Y-65925500D01*
X180799690Y-65925500D01*
X180866729Y-65945185D01*
X180887371Y-65961819D01*
X186796715Y-71871163D01*
X186875937Y-71950385D01*
X186966111Y-72002447D01*
X186972963Y-72006403D01*
X187081181Y-72035400D01*
X187081182Y-72035400D01*
X187081787Y-72035400D01*
X187087847Y-72037292D01*
X187114895Y-72055332D01*
X187142648Y-72072248D01*
X187143793Y-72074605D01*
X187145974Y-72076060D01*
X187158973Y-72105856D01*
X187173177Y-72135095D01*
X187172865Y-72137697D01*
X187173914Y-72140100D01*
X187168741Y-72172194D01*
X187164882Y-72204470D01*
X187163006Y-72207772D01*
X187162796Y-72209080D01*
X187161346Y-72210696D01*
X187151214Y-72228541D01*
X187116005Y-72277004D01*
X187033788Y-72438360D01*
X187033787Y-72438363D01*
X186977829Y-72610589D01*
X186949500Y-72789448D01*
X186949500Y-72970551D01*
X186977829Y-73149410D01*
X187033787Y-73321636D01*
X187033788Y-73321639D01*
X187116006Y-73482997D01*
X187222441Y-73629494D01*
X187222445Y-73629499D01*
X187350500Y-73757554D01*
X187350505Y-73757558D01*
X187463298Y-73839506D01*
X187497006Y-73863996D01*
X187584803Y-73908731D01*
X187658360Y-73946211D01*
X187658363Y-73946212D01*
X187744476Y-73974191D01*
X187830591Y-74002171D01*
X187903639Y-74013740D01*
X187990678Y-74027527D01*
X188053813Y-74057456D01*
X188090744Y-74116768D01*
X188089746Y-74186631D01*
X188051136Y-74244863D01*
X187990678Y-74272473D01*
X187830589Y-74297829D01*
X187658363Y-74353787D01*
X187658360Y-74353788D01*
X187497002Y-74436006D01*
X187350505Y-74542441D01*
X187350500Y-74542445D01*
X187222445Y-74670500D01*
X187222441Y-74670505D01*
X187116006Y-74817002D01*
X187033788Y-74978360D01*
X187033787Y-74978363D01*
X186977829Y-75150589D01*
X186949500Y-75329448D01*
X186949500Y-75510551D01*
X186977829Y-75689410D01*
X187033787Y-75861636D01*
X187033788Y-75861639D01*
X187074551Y-75941639D01*
X187096133Y-75983996D01*
X187116006Y-76022997D01*
X187222441Y-76169494D01*
X187222445Y-76169499D01*
X187350500Y-76297554D01*
X187350505Y-76297558D01*
X187460617Y-76377558D01*
X187497006Y-76403996D01*
X187555478Y-76433789D01*
X187628684Y-76471090D01*
X187679480Y-76519065D01*
X187696275Y-76586886D01*
X187673737Y-76653021D01*
X187619022Y-76696472D01*
X187610708Y-76699506D01*
X187581781Y-76708905D01*
X187392439Y-76805380D01*
X187338282Y-76844727D01*
X187338282Y-76844728D01*
X187970591Y-77477037D01*
X187907007Y-77494075D01*
X187792993Y-77559901D01*
X187699901Y-77652993D01*
X187634075Y-77767007D01*
X187617037Y-77830591D01*
X186984728Y-77198282D01*
X186984727Y-77198282D01*
X186945380Y-77252439D01*
X186848904Y-77441782D01*
X186783242Y-77643869D01*
X186783242Y-77643872D01*
X186750000Y-77853753D01*
X186750000Y-78066246D01*
X186783242Y-78276127D01*
X186783242Y-78276130D01*
X186848904Y-78478217D01*
X186945375Y-78667550D01*
X186984728Y-78721716D01*
X187617037Y-78089408D01*
X187634075Y-78152993D01*
X187699901Y-78267007D01*
X187792993Y-78360099D01*
X187907007Y-78425925D01*
X187970590Y-78442962D01*
X187338282Y-79075269D01*
X187338282Y-79075270D01*
X187392449Y-79114624D01*
X187581782Y-79211095D01*
X187783870Y-79276757D01*
X187993754Y-79310000D01*
X188206246Y-79310000D01*
X188416127Y-79276757D01*
X188416130Y-79276757D01*
X188618217Y-79211095D01*
X188807554Y-79114622D01*
X188861716Y-79075270D01*
X188861717Y-79075270D01*
X188229408Y-78442962D01*
X188292993Y-78425925D01*
X188407007Y-78360099D01*
X188500099Y-78267007D01*
X188565925Y-78152993D01*
X188582962Y-78089409D01*
X189215270Y-78721717D01*
X189215270Y-78721716D01*
X189254622Y-78667554D01*
X189351095Y-78478217D01*
X189416757Y-78276130D01*
X189416757Y-78276127D01*
X189450000Y-78066246D01*
X189450000Y-77853753D01*
X189416757Y-77643872D01*
X189416757Y-77643869D01*
X189351095Y-77441782D01*
X189254624Y-77252449D01*
X189215270Y-77198282D01*
X189215269Y-77198282D01*
X188582962Y-77830590D01*
X188565925Y-77767007D01*
X188500099Y-77652993D01*
X188407007Y-77559901D01*
X188292993Y-77494075D01*
X188229409Y-77477037D01*
X188861716Y-76844728D01*
X188807550Y-76805375D01*
X188618217Y-76708904D01*
X188589292Y-76699506D01*
X188531616Y-76660068D01*
X188504418Y-76595710D01*
X188516333Y-76526863D01*
X188563577Y-76475388D01*
X188571315Y-76471090D01*
X188702994Y-76403996D01*
X188849501Y-76297553D01*
X188977553Y-76169501D01*
X189083996Y-76022994D01*
X189166211Y-75861639D01*
X189222171Y-75689409D01*
X189237829Y-75590546D01*
X189250500Y-75510551D01*
X189250500Y-75329448D01*
X189234019Y-75225397D01*
X189222171Y-75150591D01*
X189180877Y-75023498D01*
X189166212Y-74978363D01*
X189166211Y-74978360D01*
X189124756Y-74897002D01*
X189083996Y-74817006D01*
X189070396Y-74798287D01*
X188977558Y-74670505D01*
X188977554Y-74670500D01*
X188849499Y-74542445D01*
X188849494Y-74542441D01*
X188702997Y-74436006D01*
X188702996Y-74436005D01*
X188702994Y-74436004D01*
X188625913Y-74396729D01*
X188541639Y-74353788D01*
X188541636Y-74353787D01*
X188369410Y-74297829D01*
X188209321Y-74272473D01*
X188146186Y-74242544D01*
X188109255Y-74183232D01*
X188110253Y-74113370D01*
X188148863Y-74055137D01*
X188209321Y-74027527D01*
X188279425Y-74016422D01*
X188369409Y-74002171D01*
X188541639Y-73946211D01*
X188702994Y-73863996D01*
X188849501Y-73757553D01*
X188977553Y-73629501D01*
X189083996Y-73482994D01*
X189166211Y-73321639D01*
X189222171Y-73149409D01*
X189249795Y-72975000D01*
X189250500Y-72970551D01*
X189250500Y-72789448D01*
X189223646Y-72619905D01*
X189222171Y-72610591D01*
X189180877Y-72483498D01*
X189166212Y-72438363D01*
X189166211Y-72438360D01*
X189104199Y-72316657D01*
X189083996Y-72277006D01*
X189064375Y-72250000D01*
X189051505Y-72232285D01*
X189028025Y-72166479D01*
X189043850Y-72098425D01*
X189093956Y-72049730D01*
X189151823Y-72035400D01*
X198209990Y-72035400D01*
X198277029Y-72055085D01*
X198297671Y-72071719D01*
X203131081Y-76905129D01*
X203164566Y-76966452D01*
X203167400Y-76992810D01*
X203167400Y-77019257D01*
X203196446Y-77127656D01*
X203208323Y-77171983D01*
X203208326Y-77171990D01*
X203287375Y-77308909D01*
X203287379Y-77308914D01*
X203287380Y-77308916D01*
X203399184Y-77420720D01*
X203399186Y-77420721D01*
X203399190Y-77420724D01*
X203478989Y-77466795D01*
X203536116Y-77499777D01*
X203688843Y-77540700D01*
X203688845Y-77540700D01*
X203846955Y-77540700D01*
X203846957Y-77540700D01*
X203999684Y-77499777D01*
X204136616Y-77420720D01*
X204248420Y-77308916D01*
X204327477Y-77171984D01*
X204368400Y-77019257D01*
X204368400Y-76861143D01*
X204327477Y-76708416D01*
X204299564Y-76660068D01*
X204248424Y-76571490D01*
X204248418Y-76571482D01*
X204136617Y-76459681D01*
X204136609Y-76459675D01*
X203999690Y-76380626D01*
X203999686Y-76380624D01*
X203999684Y-76380623D01*
X203846957Y-76339700D01*
X203846956Y-76339700D01*
X203820510Y-76339700D01*
X203753471Y-76320015D01*
X203732829Y-76303381D01*
X199031629Y-71602181D01*
X198998144Y-71540858D01*
X199003128Y-71471166D01*
X199045000Y-71415233D01*
X199110464Y-71390816D01*
X199119310Y-71390500D01*
X199483307Y-71390500D01*
X199550346Y-71410185D01*
X199570988Y-71426819D01*
X222850697Y-94706528D01*
X222850726Y-94706559D01*
X223000142Y-94855975D01*
X223000145Y-94855977D01*
X223172202Y-94970941D01*
X223363380Y-95050130D01*
X223524462Y-95082171D01*
X223552376Y-95087723D01*
X223566333Y-95090500D01*
X223566334Y-95090500D01*
X223566335Y-95090500D01*
X227497758Y-95090500D01*
X227554052Y-95104015D01*
X227558361Y-95106211D01*
X227730591Y-95162171D01*
X227803639Y-95173740D01*
X227890678Y-95187527D01*
X227953813Y-95217456D01*
X227990744Y-95276768D01*
X227989746Y-95346631D01*
X227951136Y-95404863D01*
X227890678Y-95432473D01*
X227730589Y-95457829D01*
X227558363Y-95513787D01*
X227558360Y-95513788D01*
X227397002Y-95596006D01*
X227250505Y-95702441D01*
X227250500Y-95702445D01*
X227122445Y-95830500D01*
X227122441Y-95830505D01*
X227016006Y-95977002D01*
X226933788Y-96138360D01*
X226933787Y-96138363D01*
X226877829Y-96310589D01*
X226849500Y-96489448D01*
X226849500Y-96670551D01*
X226877829Y-96849410D01*
X226933787Y-97021636D01*
X226933788Y-97021639D01*
X227016006Y-97182997D01*
X227122441Y-97329494D01*
X227122445Y-97329499D01*
X227250500Y-97457554D01*
X227250505Y-97457558D01*
X227375028Y-97548028D01*
X227397006Y-97563996D01*
X227471995Y-97602205D01*
X227558360Y-97646211D01*
X227558363Y-97646212D01*
X227644476Y-97674191D01*
X227730591Y-97702171D01*
X227834716Y-97718662D01*
X227862270Y-97723027D01*
X227925405Y-97752956D01*
X227962336Y-97812268D01*
X227961338Y-97882130D01*
X227922728Y-97940363D01*
X227858765Y-97968477D01*
X227842872Y-97969500D01*
X227105143Y-97969500D01*
X227105117Y-97969502D01*
X227080012Y-97972413D01*
X227080008Y-97972415D01*
X226977235Y-98017793D01*
X226897794Y-98097234D01*
X226852415Y-98200006D01*
X226852415Y-98200008D01*
X226849500Y-98225131D01*
X226849500Y-100014856D01*
X226849502Y-100014882D01*
X226852413Y-100039987D01*
X226852415Y-100039991D01*
X226897793Y-100142764D01*
X226897794Y-100142765D01*
X226977235Y-100222206D01*
X227080009Y-100267585D01*
X227105135Y-100270500D01*
X228894864Y-100270499D01*
X228894879Y-100270497D01*
X228894882Y-100270497D01*
X228919987Y-100267586D01*
X228919988Y-100267585D01*
X228919991Y-100267585D01*
X229022765Y-100222206D01*
X229102206Y-100142765D01*
X229147585Y-100039991D01*
X229150500Y-100014865D01*
X229150499Y-98225136D01*
X229150497Y-98225117D01*
X229147586Y-98200012D01*
X229147585Y-98200010D01*
X229147585Y-98200009D01*
X229102206Y-98097235D01*
X229022765Y-98017794D01*
X228953800Y-97987343D01*
X228919992Y-97972415D01*
X228894868Y-97969500D01*
X228157128Y-97969500D01*
X228090089Y-97949815D01*
X228044334Y-97897011D01*
X228034390Y-97827853D01*
X228063415Y-97764297D01*
X228122193Y-97726523D01*
X228137730Y-97723027D01*
X228161014Y-97719338D01*
X228269409Y-97702171D01*
X228441639Y-97646211D01*
X228602994Y-97563996D01*
X228749501Y-97457553D01*
X228877553Y-97329501D01*
X228983996Y-97182994D01*
X229066211Y-97021639D01*
X229122171Y-96849409D01*
X229136765Y-96757259D01*
X229150500Y-96670551D01*
X229150500Y-96489448D01*
X229134019Y-96385397D01*
X229122171Y-96310591D01*
X229066211Y-96138361D01*
X229066211Y-96138360D01*
X229037740Y-96082484D01*
X228983996Y-95977006D01*
X228970396Y-95958287D01*
X228877558Y-95830505D01*
X228877554Y-95830500D01*
X228749499Y-95702445D01*
X228749494Y-95702441D01*
X228602997Y-95596006D01*
X228602996Y-95596005D01*
X228602994Y-95596004D01*
X228550110Y-95569058D01*
X228441639Y-95513788D01*
X228441636Y-95513787D01*
X228269410Y-95457829D01*
X228109321Y-95432473D01*
X228046186Y-95402544D01*
X228009255Y-95343232D01*
X228010253Y-95273370D01*
X228048863Y-95215137D01*
X228109321Y-95187527D01*
X228179425Y-95176422D01*
X228269409Y-95162171D01*
X228441639Y-95106211D01*
X228602994Y-95023996D01*
X228749501Y-94917553D01*
X228877553Y-94789501D01*
X228983996Y-94642994D01*
X229066211Y-94481639D01*
X229122171Y-94309409D01*
X229136765Y-94217259D01*
X229150500Y-94130551D01*
X229150500Y-93949448D01*
X229134019Y-93845397D01*
X229122171Y-93770591D01*
X229066211Y-93598361D01*
X229066211Y-93598360D01*
X229025450Y-93518363D01*
X228983996Y-93437006D01*
X228925870Y-93357002D01*
X228877558Y-93290505D01*
X228877554Y-93290500D01*
X228749499Y-93162445D01*
X228749494Y-93162441D01*
X228602995Y-93056004D01*
X228471314Y-92988908D01*
X228420519Y-92940934D01*
X228403724Y-92873113D01*
X228426262Y-92806978D01*
X228480977Y-92763527D01*
X228489295Y-92760492D01*
X228518217Y-92751095D01*
X228707554Y-92654622D01*
X228761716Y-92615270D01*
X228761717Y-92615270D01*
X228129408Y-91982962D01*
X228192993Y-91965925D01*
X228307007Y-91900099D01*
X228400099Y-91807007D01*
X228465925Y-91692993D01*
X228482962Y-91629408D01*
X229115270Y-92261717D01*
X229115270Y-92261716D01*
X229154622Y-92207554D01*
X229251095Y-92018217D01*
X229316757Y-91816130D01*
X229316757Y-91816127D01*
X229350000Y-91606246D01*
X229350000Y-91393753D01*
X229316757Y-91183872D01*
X229316757Y-91183869D01*
X229251095Y-90981782D01*
X229154624Y-90792449D01*
X229115270Y-90738282D01*
X229115269Y-90738282D01*
X228482962Y-91370590D01*
X228465925Y-91307007D01*
X228400099Y-91192993D01*
X228307007Y-91099901D01*
X228192993Y-91034075D01*
X228129409Y-91017037D01*
X228761716Y-90384728D01*
X228707550Y-90345375D01*
X228518217Y-90248904D01*
X228316129Y-90183242D01*
X228106246Y-90150000D01*
X227893754Y-90150000D01*
X227683872Y-90183242D01*
X227683869Y-90183242D01*
X227481782Y-90248904D01*
X227292439Y-90345380D01*
X227238282Y-90384727D01*
X227238282Y-90384728D01*
X227870591Y-91017037D01*
X227807007Y-91034075D01*
X227692993Y-91099901D01*
X227599901Y-91192993D01*
X227534075Y-91307007D01*
X227517037Y-91370591D01*
X226884728Y-90738282D01*
X226884727Y-90738282D01*
X226845380Y-90792439D01*
X226748904Y-90981782D01*
X226683242Y-91183869D01*
X226683242Y-91183872D01*
X226650000Y-91393753D01*
X226650000Y-91606246D01*
X226683242Y-91816127D01*
X226683242Y-91816130D01*
X226748904Y-92018217D01*
X226845375Y-92207550D01*
X226884728Y-92261716D01*
X227517037Y-91629408D01*
X227534075Y-91692993D01*
X227599901Y-91807007D01*
X227692993Y-91900099D01*
X227807007Y-91965925D01*
X227870590Y-91982962D01*
X227238282Y-92615269D01*
X227238282Y-92615270D01*
X227292449Y-92654624D01*
X227486121Y-92753306D01*
X227485603Y-92754321D01*
X227535808Y-92794779D01*
X227557873Y-92861073D01*
X227540594Y-92928772D01*
X227489458Y-92976383D01*
X227433952Y-92989500D01*
X224156293Y-92989500D01*
X224089254Y-92969815D01*
X224068612Y-92953181D01*
X212977611Y-81862180D01*
X212944126Y-81800857D01*
X212949110Y-81731165D01*
X212990982Y-81675232D01*
X213056446Y-81650815D01*
X213065292Y-81650499D01*
X214394856Y-81650499D01*
X214394864Y-81650499D01*
X214394879Y-81650497D01*
X214394882Y-81650497D01*
X214419987Y-81647586D01*
X214419988Y-81647585D01*
X214419991Y-81647585D01*
X214522765Y-81602206D01*
X214602206Y-81522765D01*
X214647585Y-81419991D01*
X214650500Y-81394865D01*
X214650500Y-81049500D01*
X214670185Y-80982461D01*
X214722989Y-80936706D01*
X214774500Y-80925500D01*
X234272390Y-80925500D01*
X234339429Y-80945185D01*
X234360071Y-80961819D01*
X235294981Y-81896729D01*
X235328466Y-81958052D01*
X235323482Y-82027744D01*
X235317786Y-82040703D01*
X235308787Y-82058364D01*
X235252829Y-82230589D01*
X235224500Y-82409448D01*
X235224500Y-82590551D01*
X235252829Y-82769410D01*
X235308787Y-82941636D01*
X235308788Y-82941639D01*
X235391006Y-83102997D01*
X235497441Y-83249494D01*
X235497445Y-83249499D01*
X235625500Y-83377554D01*
X235625505Y-83377558D01*
X235753287Y-83470396D01*
X235772006Y-83483996D01*
X235877484Y-83537740D01*
X235933360Y-83566211D01*
X235933363Y-83566212D01*
X236019476Y-83594191D01*
X236105591Y-83622171D01*
X236188429Y-83635291D01*
X236284449Y-83650500D01*
X236284454Y-83650500D01*
X236715551Y-83650500D01*
X236802259Y-83636765D01*
X236894409Y-83622171D01*
X237066639Y-83566211D01*
X237227994Y-83483996D01*
X237374501Y-83377553D01*
X237502553Y-83249501D01*
X237608996Y-83102994D01*
X237691211Y-82941639D01*
X237747171Y-82769409D01*
X237766816Y-82645375D01*
X237775500Y-82590551D01*
X237775500Y-82409448D01*
X237759019Y-82305397D01*
X237747171Y-82230591D01*
X237691211Y-82058361D01*
X237691211Y-82058360D01*
X237662740Y-82002484D01*
X237608996Y-81897006D01*
X237539140Y-81800857D01*
X237502558Y-81750505D01*
X237502554Y-81750500D01*
X237374499Y-81622445D01*
X237374494Y-81622441D01*
X237227997Y-81516006D01*
X237227996Y-81516005D01*
X237227994Y-81516004D01*
X237176300Y-81489664D01*
X237066639Y-81433788D01*
X237066636Y-81433787D01*
X236894410Y-81377829D01*
X236860594Y-81372473D01*
X236797459Y-81342544D01*
X236760528Y-81283232D01*
X236761526Y-81213370D01*
X236800136Y-81155137D01*
X236860594Y-81127527D01*
X236868388Y-81126292D01*
X236894409Y-81122171D01*
X237066639Y-81066211D01*
X237227994Y-80983996D01*
X237374501Y-80877553D01*
X237502553Y-80749501D01*
X237608996Y-80602994D01*
X237691211Y-80441639D01*
X237747171Y-80269409D01*
X237764576Y-80159517D01*
X237775500Y-80090551D01*
X237775500Y-79909448D01*
X237759019Y-79805397D01*
X237747171Y-79730591D01*
X237698245Y-79580009D01*
X237691212Y-79558363D01*
X237691211Y-79558360D01*
X237649874Y-79477234D01*
X237608996Y-79397006D01*
X237576599Y-79352415D01*
X237502558Y-79250505D01*
X237502554Y-79250500D01*
X237374499Y-79122445D01*
X237374494Y-79122441D01*
X237227997Y-79016006D01*
X237227996Y-79016005D01*
X237227994Y-79016004D01*
X237176300Y-78989664D01*
X237066639Y-78933788D01*
X237066636Y-78933787D01*
X236894410Y-78877829D01*
X236860594Y-78872473D01*
X236797459Y-78842544D01*
X236760528Y-78783232D01*
X236761526Y-78713370D01*
X236800136Y-78655137D01*
X236860594Y-78627527D01*
X236868388Y-78626292D01*
X236894409Y-78622171D01*
X237066639Y-78566211D01*
X237227994Y-78483996D01*
X237374501Y-78377553D01*
X237502553Y-78249501D01*
X237608996Y-78102994D01*
X237691211Y-77941639D01*
X237747171Y-77769409D01*
X237761765Y-77677259D01*
X237775500Y-77590551D01*
X237775500Y-77409448D01*
X237753165Y-77268436D01*
X237747171Y-77230591D01*
X237691211Y-77058361D01*
X237691211Y-77058360D01*
X237649248Y-76976004D01*
X237608996Y-76897006D01*
X237545420Y-76809500D01*
X237502558Y-76750505D01*
X237502554Y-76750500D01*
X237374499Y-76622445D01*
X237374494Y-76622441D01*
X237227997Y-76516006D01*
X237227996Y-76516005D01*
X237227994Y-76516004D01*
X237165169Y-76483993D01*
X237066639Y-76433788D01*
X237066636Y-76433787D01*
X236894410Y-76377829D01*
X236860594Y-76372473D01*
X236797459Y-76342544D01*
X236760528Y-76283232D01*
X236761526Y-76213370D01*
X236800136Y-76155137D01*
X236860594Y-76127527D01*
X236868388Y-76126292D01*
X236894409Y-76122171D01*
X237066639Y-76066211D01*
X237227994Y-75983996D01*
X237374501Y-75877553D01*
X237502553Y-75749501D01*
X237608996Y-75602994D01*
X237691211Y-75441639D01*
X237747171Y-75269409D01*
X237765990Y-75150589D01*
X237775500Y-75090551D01*
X237775500Y-74909448D01*
X237750324Y-74750499D01*
X237747171Y-74730591D01*
X237719191Y-74644476D01*
X237691212Y-74558363D01*
X237691211Y-74558360D01*
X237647429Y-74472435D01*
X237608996Y-74397006D01*
X237577597Y-74353789D01*
X237502558Y-74250505D01*
X237502554Y-74250500D01*
X237374499Y-74122445D01*
X237374494Y-74122441D01*
X237295948Y-74065374D01*
X237253282Y-74010044D01*
X237247303Y-73940431D01*
X237279909Y-73878636D01*
X237340747Y-73844279D01*
X237356235Y-73841698D01*
X237377696Y-73839506D01*
X237544119Y-73784358D01*
X237544124Y-73784356D01*
X237693345Y-73692315D01*
X237817315Y-73568345D01*
X237909356Y-73419124D01*
X237909358Y-73419119D01*
X237964505Y-73252697D01*
X237964506Y-73252690D01*
X237974999Y-73149986D01*
X237975000Y-73149973D01*
X237975000Y-72750000D01*
X236904146Y-72750000D01*
X236942630Y-72683343D01*
X236975000Y-72562535D01*
X236975000Y-72437465D01*
X236942630Y-72316657D01*
X236904146Y-72250000D01*
X237974999Y-72250000D01*
X237974999Y-71850028D01*
X237974998Y-71850013D01*
X237964505Y-71747302D01*
X237909358Y-71580880D01*
X237909356Y-71580875D01*
X237817315Y-71431654D01*
X237693345Y-71307684D01*
X237544124Y-71215643D01*
X237544119Y-71215641D01*
X237377697Y-71160494D01*
X237377690Y-71160493D01*
X237274986Y-71150000D01*
X236750000Y-71150000D01*
X236750000Y-72095854D01*
X236683343Y-72057370D01*
X236562535Y-72025000D01*
X236437465Y-72025000D01*
X236316657Y-72057370D01*
X236250000Y-72095854D01*
X236250000Y-71150000D01*
X235725028Y-71150000D01*
X235725012Y-71150001D01*
X235622302Y-71160494D01*
X235455880Y-71215641D01*
X235455875Y-71215643D01*
X235306654Y-71307684D01*
X235182684Y-71431654D01*
X235090643Y-71580875D01*
X235090641Y-71580880D01*
X235035494Y-71747302D01*
X235035493Y-71747309D01*
X235025000Y-71850013D01*
X235025000Y-72250000D01*
X236095854Y-72250000D01*
X236057370Y-72316657D01*
X236025000Y-72437465D01*
X236025000Y-72562535D01*
X236057370Y-72683343D01*
X236095854Y-72750000D01*
X235024124Y-72750000D01*
X234964730Y-72782431D01*
X234895039Y-72777445D01*
X234850693Y-72748945D01*
X234641265Y-72539517D01*
X234641263Y-72539515D01*
X234544237Y-72483497D01*
X234436018Y-72454500D01*
X234436017Y-72454500D01*
X214650421Y-72454500D01*
X214583382Y-72434815D01*
X214539937Y-72386796D01*
X214483996Y-72277006D01*
X214483994Y-72277003D01*
X214483993Y-72277001D01*
X214377558Y-72130505D01*
X214377554Y-72130500D01*
X214249499Y-72002445D01*
X214249494Y-72002441D01*
X214173436Y-71947182D01*
X214102997Y-71896006D01*
X214102996Y-71896005D01*
X214102994Y-71896004D01*
X214012762Y-71850028D01*
X213941639Y-71813788D01*
X213941636Y-71813787D01*
X213769410Y-71757829D01*
X213609321Y-71732473D01*
X213546186Y-71702544D01*
X213509255Y-71643232D01*
X213510253Y-71573370D01*
X213548863Y-71515137D01*
X213609321Y-71487527D01*
X213679425Y-71476422D01*
X213769409Y-71462171D01*
X213941639Y-71406211D01*
X214102994Y-71323996D01*
X214249501Y-71217553D01*
X214377553Y-71089501D01*
X214483996Y-70942994D01*
X214566211Y-70781639D01*
X214622171Y-70609409D01*
X214636765Y-70517259D01*
X214650500Y-70430551D01*
X214650500Y-70249448D01*
X214627383Y-70103498D01*
X214622171Y-70070591D01*
X214566211Y-69898361D01*
X214566211Y-69898360D01*
X214537740Y-69842484D01*
X214483996Y-69737006D01*
X214438702Y-69674664D01*
X214377558Y-69590505D01*
X214377554Y-69590500D01*
X214249499Y-69462445D01*
X214249494Y-69462441D01*
X214102997Y-69356006D01*
X214102996Y-69356005D01*
X214102994Y-69356004D01*
X214051300Y-69329664D01*
X213941639Y-69273788D01*
X213941636Y-69273787D01*
X213769410Y-69217829D01*
X213609321Y-69192473D01*
X213546186Y-69162544D01*
X213509255Y-69103232D01*
X213510253Y-69033370D01*
X213548863Y-68975137D01*
X213609321Y-68947527D01*
X213679425Y-68936422D01*
X213769409Y-68922171D01*
X213941639Y-68866211D01*
X214102994Y-68783996D01*
X214249501Y-68677553D01*
X214377553Y-68549501D01*
X214483996Y-68402994D01*
X214566211Y-68241639D01*
X214622171Y-68069409D01*
X214636765Y-67977259D01*
X214650500Y-67890551D01*
X214650500Y-67709448D01*
X214626569Y-67558361D01*
X214622171Y-67530591D01*
X214594191Y-67444476D01*
X214566212Y-67358363D01*
X214566211Y-67358360D01*
X214511255Y-67250505D01*
X214483996Y-67197006D01*
X214429822Y-67122441D01*
X214377558Y-67050505D01*
X214377554Y-67050500D01*
X214249499Y-66922445D01*
X214249494Y-66922441D01*
X214102997Y-66816006D01*
X214102996Y-66816005D01*
X214102994Y-66816004D01*
X214038676Y-66783232D01*
X213941639Y-66733788D01*
X213941636Y-66733787D01*
X213769410Y-66677829D01*
X213590551Y-66649500D01*
X213590546Y-66649500D01*
X213409454Y-66649500D01*
X213409449Y-66649500D01*
X213230589Y-66677829D01*
X213058363Y-66733787D01*
X213058360Y-66733788D01*
X212897002Y-66816006D01*
X212750505Y-66922441D01*
X212750500Y-66922445D01*
X212622445Y-67050500D01*
X212622441Y-67050505D01*
X212516006Y-67197002D01*
X212433788Y-67358360D01*
X212433787Y-67358363D01*
X212377829Y-67530589D01*
X212349500Y-67709448D01*
X212349500Y-67890551D01*
X212377829Y-68069410D01*
X212433787Y-68241636D01*
X212433788Y-68241639D01*
X212516006Y-68402997D01*
X212622441Y-68549494D01*
X212622445Y-68549499D01*
X212750500Y-68677554D01*
X212750505Y-68677558D01*
X212849518Y-68749494D01*
X212897006Y-68783996D01*
X213002484Y-68837740D01*
X213058360Y-68866211D01*
X213058363Y-68866212D01*
X213144476Y-68894191D01*
X213230591Y-68922171D01*
X213303639Y-68933740D01*
X213390678Y-68947527D01*
X213453813Y-68977456D01*
X213490744Y-69036768D01*
X213489746Y-69106631D01*
X213451136Y-69164863D01*
X213390678Y-69192473D01*
X213230589Y-69217829D01*
X213058363Y-69273787D01*
X213058360Y-69273788D01*
X212897002Y-69356006D01*
X212750505Y-69462441D01*
X212750500Y-69462445D01*
X212622445Y-69590500D01*
X212622441Y-69590505D01*
X212516006Y-69737002D01*
X212433788Y-69898360D01*
X212433787Y-69898363D01*
X212377829Y-70070589D01*
X212349500Y-70249448D01*
X212349500Y-70430551D01*
X212377829Y-70609410D01*
X212433787Y-70781636D01*
X212433788Y-70781639D01*
X212453565Y-70820452D01*
X212507090Y-70925500D01*
X212516006Y-70942997D01*
X212622441Y-71089494D01*
X212622445Y-71089499D01*
X212750500Y-71217554D01*
X212750505Y-71217558D01*
X212854555Y-71293154D01*
X212897006Y-71323996D01*
X213002117Y-71377553D01*
X213058360Y-71406211D01*
X213058363Y-71406212D01*
X213086128Y-71415233D01*
X213230591Y-71462171D01*
X213303639Y-71473740D01*
X213390678Y-71487527D01*
X213453813Y-71517456D01*
X213490744Y-71576768D01*
X213489746Y-71646631D01*
X213451136Y-71704863D01*
X213390678Y-71732473D01*
X213230589Y-71757829D01*
X213058363Y-71813787D01*
X213058360Y-71813788D01*
X212897002Y-71896006D01*
X212750505Y-72002441D01*
X212750500Y-72002445D01*
X212622445Y-72130500D01*
X212622441Y-72130505D01*
X212516006Y-72277002D01*
X212433788Y-72438360D01*
X212433787Y-72438363D01*
X212377829Y-72610589D01*
X212349500Y-72789448D01*
X212349500Y-72970551D01*
X212377829Y-73149410D01*
X212433787Y-73321636D01*
X212433788Y-73321639D01*
X212516006Y-73482997D01*
X212622441Y-73629494D01*
X212622445Y-73629499D01*
X212750500Y-73757554D01*
X212750505Y-73757558D01*
X212863298Y-73839506D01*
X212897006Y-73863996D01*
X212984803Y-73908731D01*
X213058360Y-73946211D01*
X213058363Y-73946212D01*
X213144476Y-73974191D01*
X213230591Y-74002171D01*
X213303639Y-74013740D01*
X213390678Y-74027527D01*
X213453813Y-74057456D01*
X213490744Y-74116768D01*
X213489746Y-74186631D01*
X213451136Y-74244863D01*
X213390678Y-74272473D01*
X213230589Y-74297829D01*
X213058363Y-74353787D01*
X213058360Y-74353788D01*
X212897002Y-74436006D01*
X212750505Y-74542441D01*
X212750500Y-74542445D01*
X212622445Y-74670500D01*
X212622441Y-74670505D01*
X212516006Y-74817002D01*
X212433788Y-74978360D01*
X212433787Y-74978363D01*
X212377829Y-75150589D01*
X212349500Y-75329448D01*
X212349500Y-75510551D01*
X212377829Y-75689410D01*
X212433787Y-75861636D01*
X212433788Y-75861639D01*
X212474551Y-75941639D01*
X212496133Y-75983996D01*
X212516006Y-76022997D01*
X212622441Y-76169494D01*
X212622445Y-76169499D01*
X212750500Y-76297554D01*
X212750505Y-76297558D01*
X212860617Y-76377558D01*
X212897006Y-76403996D01*
X213002484Y-76457740D01*
X213058360Y-76486211D01*
X213058363Y-76486212D01*
X213144476Y-76514191D01*
X213230591Y-76542171D01*
X213303639Y-76553740D01*
X213390678Y-76567527D01*
X213453813Y-76597456D01*
X213490744Y-76656768D01*
X213489746Y-76726631D01*
X213451136Y-76784863D01*
X213390678Y-76812473D01*
X213230589Y-76837829D01*
X213058363Y-76893787D01*
X213058360Y-76893788D01*
X212897002Y-76976006D01*
X212750505Y-77082441D01*
X212750500Y-77082445D01*
X212622445Y-77210500D01*
X212622441Y-77210505D01*
X212516006Y-77357002D01*
X212433788Y-77518360D01*
X212433787Y-77518363D01*
X212377829Y-77690589D01*
X212349500Y-77869448D01*
X212349500Y-78050551D01*
X212377829Y-78229410D01*
X212433787Y-78401636D01*
X212433788Y-78401639D01*
X212516006Y-78562997D01*
X212622441Y-78709494D01*
X212622445Y-78709499D01*
X212750500Y-78837554D01*
X212750505Y-78837558D01*
X212878287Y-78930396D01*
X212897006Y-78943996D01*
X212993028Y-78992922D01*
X213058360Y-79026211D01*
X213058363Y-79026212D01*
X213144476Y-79054191D01*
X213230591Y-79082171D01*
X213334716Y-79098662D01*
X213362270Y-79103027D01*
X213425405Y-79132956D01*
X213462336Y-79192268D01*
X213461338Y-79262130D01*
X213422728Y-79320363D01*
X213358765Y-79348477D01*
X213342872Y-79349500D01*
X212605143Y-79349500D01*
X212605117Y-79349502D01*
X212580012Y-79352413D01*
X212580008Y-79352415D01*
X212477235Y-79397793D01*
X212397794Y-79477234D01*
X212352415Y-79580006D01*
X212352415Y-79580008D01*
X212349500Y-79605131D01*
X212349500Y-80934707D01*
X212329815Y-81001746D01*
X212277011Y-81047501D01*
X212207853Y-81057445D01*
X212144297Y-81028420D01*
X212137819Y-81022388D01*
X200790117Y-69674686D01*
X200790097Y-69674664D01*
X200639457Y-69524024D01*
X200504406Y-69433787D01*
X200467398Y-69409059D01*
X200276220Y-69329870D01*
X200276212Y-69329868D01*
X200073269Y-69289500D01*
X200073265Y-69289500D01*
X189225833Y-69289500D01*
X189158794Y-69269815D01*
X189138152Y-69253181D01*
X189122765Y-69237794D01*
X189019992Y-69192415D01*
X188994868Y-69189500D01*
X188994865Y-69189500D01*
X188486493Y-69189500D01*
X188419454Y-69169815D01*
X188398812Y-69153181D01*
X177933312Y-58687681D01*
X177899827Y-58626358D01*
X177904811Y-58556666D01*
X177933312Y-58512319D01*
X181609431Y-54836200D01*
X183920631Y-52525000D01*
X186292243Y-50153387D01*
X186353564Y-50119904D01*
X186423256Y-50124888D01*
X186479189Y-50166760D01*
X186501566Y-50219708D01*
X186501693Y-50219678D01*
X186501875Y-50220440D01*
X186502394Y-50221666D01*
X186502828Y-50224408D01*
X186558787Y-50396636D01*
X186558788Y-50396639D01*
X186641006Y-50557997D01*
X186747441Y-50704494D01*
X186747445Y-50704499D01*
X186875500Y-50832554D01*
X186875505Y-50832558D01*
X186994654Y-50919124D01*
X187022006Y-50938996D01*
X187127484Y-50992740D01*
X187183360Y-51021211D01*
X187183363Y-51021212D01*
X187232260Y-51037099D01*
X187355591Y-51077171D01*
X187428639Y-51088740D01*
X187515678Y-51102527D01*
X187578813Y-51132456D01*
X187615744Y-51191768D01*
X187614746Y-51261631D01*
X187576136Y-51319863D01*
X187515678Y-51347473D01*
X187355589Y-51372829D01*
X187183363Y-51428787D01*
X187183360Y-51428788D01*
X187022002Y-51511006D01*
X186875505Y-51617441D01*
X186875500Y-51617445D01*
X186747445Y-51745500D01*
X186747441Y-51745505D01*
X186641006Y-51892002D01*
X186558788Y-52053360D01*
X186558787Y-52053363D01*
X186502829Y-52225589D01*
X186474500Y-52404448D01*
X186474500Y-52585551D01*
X186502829Y-52764410D01*
X186558787Y-52936636D01*
X186558788Y-52936639D01*
X186641006Y-53097997D01*
X186747441Y-53244494D01*
X186747445Y-53244499D01*
X186875500Y-53372554D01*
X186875505Y-53372558D01*
X186971952Y-53442630D01*
X187022006Y-53478996D01*
X187123780Y-53530853D01*
X187153684Y-53546090D01*
X187204480Y-53594065D01*
X187221275Y-53661886D01*
X187198737Y-53728021D01*
X187144022Y-53771472D01*
X187135708Y-53774506D01*
X187106781Y-53783905D01*
X186917439Y-53880380D01*
X186863282Y-53919727D01*
X186863282Y-53919728D01*
X187495591Y-54552037D01*
X187432007Y-54569075D01*
X187317993Y-54634901D01*
X187224901Y-54727993D01*
X187159075Y-54842007D01*
X187142037Y-54905591D01*
X186509728Y-54273282D01*
X186509727Y-54273282D01*
X186470380Y-54327439D01*
X186373904Y-54516782D01*
X186308242Y-54718869D01*
X186308242Y-54718872D01*
X186275000Y-54928753D01*
X186275000Y-55141246D01*
X186308242Y-55351127D01*
X186308242Y-55351130D01*
X186373904Y-55553217D01*
X186470375Y-55742550D01*
X186509728Y-55796716D01*
X187142037Y-55164408D01*
X187159075Y-55227993D01*
X187224901Y-55342007D01*
X187317993Y-55435099D01*
X187432007Y-55500925D01*
X187495590Y-55517962D01*
X186863282Y-56150269D01*
X186863282Y-56150270D01*
X186917449Y-56189624D01*
X187106782Y-56286095D01*
X187308870Y-56351757D01*
X187518754Y-56385000D01*
X187731246Y-56385000D01*
X187941127Y-56351757D01*
X187941130Y-56351757D01*
X188143217Y-56286095D01*
X188332554Y-56189622D01*
X188386716Y-56150270D01*
X188386717Y-56150270D01*
X187754408Y-55517962D01*
X187817993Y-55500925D01*
X187932007Y-55435099D01*
X188025099Y-55342007D01*
X188090925Y-55227993D01*
X188107962Y-55164409D01*
X188740270Y-55796717D01*
X188740270Y-55796716D01*
X188779622Y-55742554D01*
X188876095Y-55553217D01*
X188941757Y-55351130D01*
X188941757Y-55351127D01*
X188975000Y-55141246D01*
X188975000Y-54928753D01*
X188941757Y-54718872D01*
X188941757Y-54718869D01*
X188876095Y-54516782D01*
X188779624Y-54327449D01*
X188740270Y-54273282D01*
X188740269Y-54273282D01*
X188107962Y-54905590D01*
X188090925Y-54842007D01*
X188025099Y-54727993D01*
X187932007Y-54634901D01*
X187817993Y-54569075D01*
X187754409Y-54552037D01*
X188386716Y-53919728D01*
X188332550Y-53880375D01*
X188143217Y-53783904D01*
X188114292Y-53774506D01*
X188056616Y-53735068D01*
X188029418Y-53670710D01*
X188041333Y-53601863D01*
X188088577Y-53550388D01*
X188096315Y-53546090D01*
X188227994Y-53478996D01*
X188374501Y-53372553D01*
X188502553Y-53244501D01*
X188608996Y-53097994D01*
X188691211Y-52936639D01*
X188747171Y-52764409D01*
X188761765Y-52672259D01*
X188775500Y-52585551D01*
X188775500Y-52404448D01*
X188757759Y-52292442D01*
X188747171Y-52225591D01*
X188713037Y-52120535D01*
X188691212Y-52053363D01*
X188691211Y-52053360D01*
X188648875Y-51970272D01*
X188608996Y-51892006D01*
X188554022Y-51816340D01*
X188502558Y-51745505D01*
X188502554Y-51745500D01*
X188374499Y-51617445D01*
X188374494Y-51617441D01*
X188227997Y-51511006D01*
X188227996Y-51511005D01*
X188227994Y-51511004D01*
X188174982Y-51483993D01*
X188066639Y-51428788D01*
X188066636Y-51428787D01*
X187894410Y-51372829D01*
X187734321Y-51347473D01*
X187671186Y-51317544D01*
X187634255Y-51258232D01*
X187635253Y-51188370D01*
X187673863Y-51130137D01*
X187734321Y-51102527D01*
X187804425Y-51091422D01*
X187894409Y-51077171D01*
X188066639Y-51021211D01*
X188227994Y-50938996D01*
X188374501Y-50832553D01*
X188502553Y-50704501D01*
X188608996Y-50557994D01*
X188691211Y-50396639D01*
X188747171Y-50224409D01*
X188763723Y-50119904D01*
X188775500Y-50045551D01*
X188775500Y-49864448D01*
X188757452Y-49750505D01*
X188747171Y-49685591D01*
X188694993Y-49525000D01*
X188691212Y-49513363D01*
X188691211Y-49513360D01*
X188650666Y-49433787D01*
X188608996Y-49352006D01*
X188532930Y-49247309D01*
X188502558Y-49205505D01*
X188502554Y-49205500D01*
X188374499Y-49077445D01*
X188374494Y-49077441D01*
X188227997Y-48971006D01*
X188227996Y-48971005D01*
X188227994Y-48971004D01*
X188150766Y-48931654D01*
X188066639Y-48888788D01*
X188066636Y-48888787D01*
X187894407Y-48832828D01*
X187894409Y-48832828D01*
X187891666Y-48832394D01*
X187890709Y-48831940D01*
X187889678Y-48831693D01*
X187889730Y-48831476D01*
X187880291Y-48827001D01*
X187867734Y-48826103D01*
X187849318Y-48812316D01*
X187828533Y-48802462D01*
X187821879Y-48791774D01*
X187811801Y-48784230D01*
X187803762Y-48762676D01*
X187791605Y-48743149D01*
X187791785Y-48730561D01*
X187787386Y-48718765D01*
X187792276Y-48696285D01*
X187792606Y-48673286D01*
X187799917Y-48661161D01*
X187802239Y-48650492D01*
X187823387Y-48622243D01*
X187843815Y-48601815D01*
X187905139Y-48568332D01*
X187931494Y-48565499D01*
X188519856Y-48565499D01*
X188519864Y-48565499D01*
X188519879Y-48565497D01*
X188519882Y-48565497D01*
X188544987Y-48562586D01*
X188544988Y-48562585D01*
X188544991Y-48562585D01*
X188647765Y-48517206D01*
X188727206Y-48437765D01*
X188772585Y-48334991D01*
X188775500Y-48309865D01*
X188775499Y-46520136D01*
X188775497Y-46520117D01*
X188772586Y-46495012D01*
X188772585Y-46495010D01*
X188772585Y-46495009D01*
X188727206Y-46392235D01*
X188647765Y-46312794D01*
X188647763Y-46312793D01*
X188544992Y-46267415D01*
X188519865Y-46264500D01*
X186730143Y-46264500D01*
X186730117Y-46264502D01*
X186705012Y-46267413D01*
X186705008Y-46267415D01*
X186602235Y-46312793D01*
X186522794Y-46392234D01*
X186477415Y-46495006D01*
X186477415Y-46495008D01*
X186474500Y-46520131D01*
X186474500Y-46948505D01*
X186454815Y-47015544D01*
X186438181Y-47036186D01*
X176418102Y-57056265D01*
X176356779Y-57089750D01*
X176287087Y-57084766D01*
X176261534Y-57071689D01*
X176257598Y-57069059D01*
X176257597Y-57069058D01*
X176257595Y-57069057D01*
X176066420Y-56989870D01*
X176066412Y-56989868D01*
X175863469Y-56949500D01*
X175863465Y-56949500D01*
X166583693Y-56949500D01*
X166533017Y-56938672D01*
X166520070Y-56932874D01*
X166497342Y-56915639D01*
X166365235Y-56863542D01*
X166362648Y-56862384D01*
X166338128Y-56841453D01*
X166312690Y-56821660D01*
X166311723Y-56818912D01*
X166309507Y-56817021D01*
X166300192Y-56786145D01*
X166289497Y-56755752D01*
X166290168Y-56752919D01*
X166289327Y-56750129D01*
X166298182Y-56719124D01*
X166305618Y-56687768D01*
X166307850Y-56685275D01*
X166308516Y-56682945D01*
X166315217Y-56677050D01*
X166340439Y-56648893D01*
X166504466Y-56529721D01*
X166654723Y-56379464D01*
X166654727Y-56379459D01*
X166779620Y-56207557D01*
X166876095Y-56018217D01*
X166941757Y-55816129D01*
X166941757Y-55816126D01*
X166952231Y-55750000D01*
X165904146Y-55750000D01*
X165942630Y-55683343D01*
X165975000Y-55562535D01*
X165975000Y-55437465D01*
X165942630Y-55316657D01*
X165904146Y-55250000D01*
X166952231Y-55250000D01*
X166941757Y-55183873D01*
X166941757Y-55183870D01*
X166876095Y-54981782D01*
X166779620Y-54792442D01*
X166654727Y-54620540D01*
X166654723Y-54620535D01*
X166504460Y-54470272D01*
X166339355Y-54350318D01*
X166296689Y-54294989D01*
X166290710Y-54225375D01*
X166323315Y-54163580D01*
X166339355Y-54149682D01*
X166504460Y-54029727D01*
X166654723Y-53879464D01*
X166654727Y-53879459D01*
X166779620Y-53707557D01*
X166876095Y-53518217D01*
X166941757Y-53316129D01*
X166941757Y-53316126D01*
X166952231Y-53250000D01*
X165904146Y-53250000D01*
X165942630Y-53183343D01*
X165975000Y-53062535D01*
X165975000Y-52937465D01*
X165942630Y-52816657D01*
X165904146Y-52750000D01*
X166952231Y-52750000D01*
X166941757Y-52683873D01*
X166941757Y-52683870D01*
X166876095Y-52481782D01*
X166779620Y-52292442D01*
X166654727Y-52120540D01*
X166654723Y-52120535D01*
X166504464Y-51970276D01*
X166504459Y-51970272D01*
X166332557Y-51845379D01*
X166142488Y-51748533D01*
X166091692Y-51700558D01*
X166074897Y-51632737D01*
X166097435Y-51566602D01*
X166142489Y-51527563D01*
X166144222Y-51526680D01*
X166227994Y-51483996D01*
X166374501Y-51377553D01*
X166502553Y-51249501D01*
X166608996Y-51102994D01*
X166691211Y-50941639D01*
X166747171Y-50769409D01*
X166766088Y-50649973D01*
X166775500Y-50590551D01*
X166775500Y-50409448D01*
X166750245Y-50250000D01*
X166747171Y-50230591D01*
X166711207Y-50119904D01*
X166691212Y-50058363D01*
X166691211Y-50058360D01*
X166646765Y-49971131D01*
X166608996Y-49897006D01*
X166585341Y-49864448D01*
X166502558Y-49750505D01*
X166502554Y-49750500D01*
X166374499Y-49622445D01*
X166374494Y-49622441D01*
X166227997Y-49516006D01*
X166227996Y-49516005D01*
X166227994Y-49516004D01*
X166176300Y-49489664D01*
X166066639Y-49433788D01*
X166066636Y-49433787D01*
X165894410Y-49377829D01*
X165860594Y-49372473D01*
X165797459Y-49342544D01*
X165760528Y-49283232D01*
X165761526Y-49213370D01*
X165800136Y-49155137D01*
X165860594Y-49127527D01*
X165868388Y-49126292D01*
X165894409Y-49122171D01*
X166066639Y-49066211D01*
X166227994Y-48983996D01*
X166374501Y-48877553D01*
X166502553Y-48749501D01*
X166608996Y-48602994D01*
X166691211Y-48441639D01*
X166747171Y-48269409D01*
X166763788Y-48164494D01*
X166775500Y-48090551D01*
X166775500Y-47909448D01*
X166759019Y-47805397D01*
X166747171Y-47730591D01*
X166691211Y-47558361D01*
X166691211Y-47558360D01*
X166662740Y-47502484D01*
X166608996Y-47397006D01*
X166556280Y-47324448D01*
X166502558Y-47250505D01*
X166502554Y-47250500D01*
X166374499Y-47122445D01*
X166374494Y-47122441D01*
X166227997Y-47016006D01*
X166227996Y-47016005D01*
X166227994Y-47016004D01*
X166144307Y-46973363D01*
X166066639Y-46933788D01*
X166066636Y-46933787D01*
X165894410Y-46877829D01*
X165860594Y-46872473D01*
X165797459Y-46842544D01*
X165760528Y-46783232D01*
X165761526Y-46713370D01*
X165800136Y-46655137D01*
X165860594Y-46627527D01*
X165868388Y-46626292D01*
X165894409Y-46622171D01*
X166066639Y-46566211D01*
X166227994Y-46483996D01*
X166374501Y-46377553D01*
X166502553Y-46249501D01*
X166608996Y-46102994D01*
X166691211Y-45941639D01*
X166747171Y-45769409D01*
X166761765Y-45677259D01*
X166775500Y-45590551D01*
X166775500Y-45409448D01*
X166759019Y-45305397D01*
X166747171Y-45230591D01*
X166691211Y-45058361D01*
X166691206Y-45058350D01*
X166626291Y-44930948D01*
X166626290Y-44930947D01*
X166608995Y-44897004D01*
X166595704Y-44878711D01*
X176149500Y-44878711D01*
X176149500Y-45121288D01*
X176181161Y-45361785D01*
X176243947Y-45596104D01*
X176308751Y-45752553D01*
X176336776Y-45820212D01*
X176458064Y-46030289D01*
X176458066Y-46030292D01*
X176458067Y-46030293D01*
X176605733Y-46222736D01*
X176605739Y-46222743D01*
X176777256Y-46394260D01*
X176777262Y-46394265D01*
X176969711Y-46541936D01*
X177179788Y-46663224D01*
X177403900Y-46756054D01*
X177638211Y-46818838D01*
X177818279Y-46842544D01*
X177878711Y-46850500D01*
X177878712Y-46850500D01*
X178121289Y-46850500D01*
X178181721Y-46842544D01*
X178361789Y-46818838D01*
X178596100Y-46756054D01*
X178820212Y-46663224D01*
X179030289Y-46541936D01*
X179222738Y-46394265D01*
X179394265Y-46222738D01*
X179541936Y-46030289D01*
X179663224Y-45820212D01*
X179756054Y-45596100D01*
X179818838Y-45361789D01*
X179850500Y-45121288D01*
X179850500Y-44878712D01*
X179838090Y-44784448D01*
X211874500Y-44784448D01*
X211874500Y-44965551D01*
X211902829Y-45144410D01*
X211958787Y-45316636D01*
X211958788Y-45316639D01*
X212041006Y-45477997D01*
X212147441Y-45624494D01*
X212147445Y-45624499D01*
X212275500Y-45752554D01*
X212275505Y-45752558D01*
X212368614Y-45820205D01*
X212422006Y-45858996D01*
X212527484Y-45912740D01*
X212583360Y-45941211D01*
X212583363Y-45941212D01*
X212669476Y-45969191D01*
X212755591Y-45997171D01*
X212828639Y-46008740D01*
X212915678Y-46022527D01*
X212978813Y-46052456D01*
X213015744Y-46111768D01*
X213014746Y-46181631D01*
X212976136Y-46239863D01*
X212915678Y-46267473D01*
X212755589Y-46292829D01*
X212583363Y-46348787D01*
X212583360Y-46348788D01*
X212422002Y-46431006D01*
X212275505Y-46537441D01*
X212275500Y-46537445D01*
X212147445Y-46665500D01*
X212147441Y-46665505D01*
X212041006Y-46812002D01*
X211958788Y-46973360D01*
X211958787Y-46973363D01*
X211902829Y-47145589D01*
X211874500Y-47324448D01*
X211874500Y-47505551D01*
X211902829Y-47684410D01*
X211958787Y-47856636D01*
X211958788Y-47856639D01*
X212041006Y-48017997D01*
X212147441Y-48164494D01*
X212147445Y-48164499D01*
X212275500Y-48292554D01*
X212275505Y-48292558D01*
X212403287Y-48385396D01*
X212422006Y-48398996D01*
X212505697Y-48441639D01*
X212583360Y-48481211D01*
X212583363Y-48481212D01*
X212669476Y-48509191D01*
X212755591Y-48537171D01*
X212828639Y-48548740D01*
X212915678Y-48562527D01*
X212978813Y-48592456D01*
X213015744Y-48651768D01*
X213014746Y-48721631D01*
X212976136Y-48779863D01*
X212915678Y-48807473D01*
X212755589Y-48832829D01*
X212583363Y-48888787D01*
X212583360Y-48888788D01*
X212422002Y-48971006D01*
X212275505Y-49077441D01*
X212275500Y-49077445D01*
X212147445Y-49205500D01*
X212147441Y-49205505D01*
X212041006Y-49352002D01*
X211958788Y-49513360D01*
X211958787Y-49513363D01*
X211902829Y-49685589D01*
X211874500Y-49864448D01*
X211874500Y-50045551D01*
X211902829Y-50224410D01*
X211958787Y-50396636D01*
X211958788Y-50396639D01*
X212041006Y-50557997D01*
X212147441Y-50704494D01*
X212147445Y-50704499D01*
X212275500Y-50832554D01*
X212275505Y-50832558D01*
X212394654Y-50919124D01*
X212422006Y-50938996D01*
X212527484Y-50992740D01*
X212583360Y-51021211D01*
X212583363Y-51021212D01*
X212632260Y-51037099D01*
X212755591Y-51077171D01*
X212828639Y-51088740D01*
X212915678Y-51102527D01*
X212978813Y-51132456D01*
X213015744Y-51191768D01*
X213014746Y-51261631D01*
X212976136Y-51319863D01*
X212915678Y-51347473D01*
X212755589Y-51372829D01*
X212583363Y-51428787D01*
X212583360Y-51428788D01*
X212422002Y-51511006D01*
X212275505Y-51617441D01*
X212275500Y-51617445D01*
X212147445Y-51745500D01*
X212147441Y-51745505D01*
X212041006Y-51892002D01*
X211958788Y-52053360D01*
X211958787Y-52053363D01*
X211902829Y-52225589D01*
X211874500Y-52404448D01*
X211874500Y-52585551D01*
X211902829Y-52764410D01*
X211958787Y-52936636D01*
X211958788Y-52936639D01*
X212041006Y-53097997D01*
X212147441Y-53244494D01*
X212147445Y-53244499D01*
X212275500Y-53372554D01*
X212275505Y-53372558D01*
X212371952Y-53442630D01*
X212422006Y-53478996D01*
X212527484Y-53532740D01*
X212583360Y-53561211D01*
X212583363Y-53561212D01*
X212632260Y-53577099D01*
X212755591Y-53617171D01*
X212828639Y-53628740D01*
X212915678Y-53642527D01*
X212978813Y-53672456D01*
X213015744Y-53731768D01*
X213014746Y-53801631D01*
X212976136Y-53859863D01*
X212915678Y-53887473D01*
X212755589Y-53912829D01*
X212583363Y-53968787D01*
X212583360Y-53968788D01*
X212422002Y-54051006D01*
X212275505Y-54157441D01*
X212275500Y-54157445D01*
X212147445Y-54285500D01*
X212147441Y-54285505D01*
X212041006Y-54432002D01*
X211958788Y-54593360D01*
X211958787Y-54593363D01*
X211902829Y-54765589D01*
X211874500Y-54944448D01*
X211874500Y-55125551D01*
X211902829Y-55304410D01*
X211958787Y-55476636D01*
X211958788Y-55476639D01*
X212002555Y-55562535D01*
X212023170Y-55602994D01*
X212041006Y-55637997D01*
X212147441Y-55784494D01*
X212147445Y-55784499D01*
X212275500Y-55912554D01*
X212275505Y-55912558D01*
X212361450Y-55975000D01*
X212422006Y-56018996D01*
X212514670Y-56066211D01*
X212583360Y-56101211D01*
X212583363Y-56101212D01*
X212632260Y-56117099D01*
X212755591Y-56157171D01*
X212859716Y-56173662D01*
X212887270Y-56178027D01*
X212950405Y-56207956D01*
X212987336Y-56267268D01*
X212986338Y-56337130D01*
X212947728Y-56395363D01*
X212883765Y-56423477D01*
X212867872Y-56424500D01*
X212130143Y-56424500D01*
X212130117Y-56424502D01*
X212105012Y-56427413D01*
X212105008Y-56427415D01*
X212002235Y-56472793D01*
X211922794Y-56552234D01*
X211877415Y-56655006D01*
X211877415Y-56655008D01*
X211874500Y-56680131D01*
X211874500Y-58469856D01*
X211874502Y-58469882D01*
X211877413Y-58494987D01*
X211877415Y-58494991D01*
X211922793Y-58597764D01*
X211922794Y-58597765D01*
X212002235Y-58677206D01*
X212105009Y-58722585D01*
X212130135Y-58725500D01*
X213522389Y-58725499D01*
X213589428Y-58745184D01*
X213610070Y-58761818D01*
X215188737Y-60340485D01*
X215285763Y-60396503D01*
X215393982Y-60425500D01*
X215506018Y-60425500D01*
X235224579Y-60425500D01*
X235291618Y-60445185D01*
X235335062Y-60493203D01*
X235387880Y-60596864D01*
X235391006Y-60602998D01*
X235497441Y-60749494D01*
X235497445Y-60749499D01*
X235625500Y-60877554D01*
X235625505Y-60877558D01*
X235753287Y-60970396D01*
X235772006Y-60983996D01*
X235877484Y-61037740D01*
X235933360Y-61066211D01*
X235933363Y-61066212D01*
X236019476Y-61094191D01*
X236105591Y-61122171D01*
X236188429Y-61135291D01*
X236284449Y-61150500D01*
X236284454Y-61150500D01*
X236715551Y-61150500D01*
X236802259Y-61136765D01*
X236894409Y-61122171D01*
X237066639Y-61066211D01*
X237227994Y-60983996D01*
X237374501Y-60877553D01*
X237502553Y-60749501D01*
X237608996Y-60602994D01*
X237691211Y-60441639D01*
X237747171Y-60269409D01*
X237761765Y-60177259D01*
X237775500Y-60090551D01*
X237775500Y-59909448D01*
X237759019Y-59805397D01*
X237747171Y-59730591D01*
X237691211Y-59558361D01*
X237691211Y-59558360D01*
X237662740Y-59502484D01*
X237608996Y-59397006D01*
X237516471Y-59269655D01*
X237502558Y-59250505D01*
X237502554Y-59250500D01*
X237374499Y-59122445D01*
X237374494Y-59122441D01*
X237227997Y-59016006D01*
X237227996Y-59016005D01*
X237227994Y-59016004D01*
X237176300Y-58989664D01*
X237066639Y-58933788D01*
X237066636Y-58933787D01*
X236894410Y-58877829D01*
X236860594Y-58872473D01*
X236797459Y-58842544D01*
X236760528Y-58783232D01*
X236761526Y-58713370D01*
X236800136Y-58655137D01*
X236860594Y-58627527D01*
X236868388Y-58626292D01*
X236894409Y-58622171D01*
X237066639Y-58566211D01*
X237227994Y-58483996D01*
X237374501Y-58377553D01*
X237502553Y-58249501D01*
X237608996Y-58102994D01*
X237691211Y-57941639D01*
X237747171Y-57769409D01*
X237761765Y-57677259D01*
X237775500Y-57590551D01*
X237775500Y-57409448D01*
X237753165Y-57268436D01*
X237747171Y-57230591D01*
X237700389Y-57086609D01*
X237691212Y-57058363D01*
X237691211Y-57058360D01*
X237648132Y-56973815D01*
X237608996Y-56897006D01*
X237568635Y-56841453D01*
X237502558Y-56750505D01*
X237502554Y-56750500D01*
X237374499Y-56622445D01*
X237374494Y-56622441D01*
X237227997Y-56516006D01*
X237227996Y-56516005D01*
X237227994Y-56516004D01*
X237176300Y-56489664D01*
X237066639Y-56433788D01*
X237066636Y-56433787D01*
X236894410Y-56377829D01*
X236860594Y-56372473D01*
X236797459Y-56342544D01*
X236760528Y-56283232D01*
X236761526Y-56213370D01*
X236800136Y-56155137D01*
X236860594Y-56127527D01*
X236868388Y-56126292D01*
X236894409Y-56122171D01*
X237066639Y-56066211D01*
X237227994Y-55983996D01*
X237374501Y-55877553D01*
X237502553Y-55749501D01*
X237608996Y-55602994D01*
X237691211Y-55441639D01*
X237747171Y-55269409D01*
X237769957Y-55125546D01*
X237775500Y-55090551D01*
X237775500Y-54909448D01*
X237752714Y-54765589D01*
X237747171Y-54730591D01*
X237691211Y-54558361D01*
X237691211Y-54558360D01*
X237646327Y-54470272D01*
X237608996Y-54397006D01*
X237579451Y-54356340D01*
X237502558Y-54250505D01*
X237502554Y-54250500D01*
X237374499Y-54122445D01*
X237374494Y-54122441D01*
X237227997Y-54016006D01*
X237227996Y-54016005D01*
X237227994Y-54016004D01*
X237176300Y-53989664D01*
X237066639Y-53933788D01*
X237066636Y-53933787D01*
X236894410Y-53877829D01*
X236860594Y-53872473D01*
X236797459Y-53842544D01*
X236760528Y-53783232D01*
X236761526Y-53713370D01*
X236800136Y-53655137D01*
X236860594Y-53627527D01*
X236868388Y-53626292D01*
X236894409Y-53622171D01*
X237066639Y-53566211D01*
X237227994Y-53483996D01*
X237374501Y-53377553D01*
X237502553Y-53249501D01*
X237608996Y-53102994D01*
X237691211Y-52941639D01*
X237747171Y-52769409D01*
X237761765Y-52677259D01*
X237775500Y-52590551D01*
X237775500Y-52409448D01*
X237756967Y-52292442D01*
X237747171Y-52230591D01*
X237691211Y-52058361D01*
X237691211Y-52058360D01*
X237646327Y-51970272D01*
X237608996Y-51897006D01*
X237550389Y-51816340D01*
X237502558Y-51750505D01*
X237502554Y-51750500D01*
X237374499Y-51622445D01*
X237374494Y-51622441D01*
X237295948Y-51565374D01*
X237253282Y-51510044D01*
X237247303Y-51440431D01*
X237279909Y-51378636D01*
X237340747Y-51344279D01*
X237356235Y-51341698D01*
X237377696Y-51339506D01*
X237544119Y-51284358D01*
X237544124Y-51284356D01*
X237693345Y-51192315D01*
X237817315Y-51068345D01*
X237909356Y-50919124D01*
X237909358Y-50919119D01*
X237964505Y-50752697D01*
X237964506Y-50752690D01*
X237974999Y-50649986D01*
X237975000Y-50649973D01*
X237975000Y-50250000D01*
X236904146Y-50250000D01*
X236942630Y-50183343D01*
X236975000Y-50062535D01*
X236975000Y-49937465D01*
X236942630Y-49816657D01*
X236904146Y-49750000D01*
X237974999Y-49750000D01*
X237974999Y-49350028D01*
X237974998Y-49350013D01*
X237964505Y-49247302D01*
X237909358Y-49080880D01*
X237909356Y-49080875D01*
X237817315Y-48931654D01*
X237693345Y-48807684D01*
X237544124Y-48715643D01*
X237544119Y-48715641D01*
X237377697Y-48660494D01*
X237377690Y-48660493D01*
X237274986Y-48650000D01*
X236750000Y-48650000D01*
X236750000Y-49595854D01*
X236683343Y-49557370D01*
X236562535Y-49525000D01*
X236437465Y-49525000D01*
X236316657Y-49557370D01*
X236250000Y-49595854D01*
X236250000Y-48650000D01*
X235725028Y-48650000D01*
X235725012Y-48650001D01*
X235622302Y-48660494D01*
X235455880Y-48715641D01*
X235455875Y-48715643D01*
X235306654Y-48807684D01*
X235182684Y-48931654D01*
X235090643Y-49080875D01*
X235090641Y-49080880D01*
X235035494Y-49247302D01*
X235035493Y-49247309D01*
X235025000Y-49350013D01*
X235025000Y-49750000D01*
X236095854Y-49750000D01*
X236057370Y-49816657D01*
X236025000Y-49937465D01*
X236025000Y-50062535D01*
X236057370Y-50183343D01*
X236095854Y-50250000D01*
X235025001Y-50250000D01*
X235025001Y-50649986D01*
X235035494Y-50752697D01*
X235090641Y-50919119D01*
X235090643Y-50919124D01*
X235182684Y-51068345D01*
X235306654Y-51192315D01*
X235455875Y-51284356D01*
X235455880Y-51284358D01*
X235622302Y-51339505D01*
X235622309Y-51339506D01*
X235643769Y-51341699D01*
X235708460Y-51368095D01*
X235748612Y-51425276D01*
X235751475Y-51495087D01*
X235716141Y-51555364D01*
X235704051Y-51565375D01*
X235625505Y-51622441D01*
X235625500Y-51622445D01*
X235497445Y-51750500D01*
X235497441Y-51750505D01*
X235391006Y-51897001D01*
X235365299Y-51947453D01*
X235335062Y-52006796D01*
X235287090Y-52057591D01*
X235224579Y-52074500D01*
X215797610Y-52074500D01*
X215730571Y-52054815D01*
X215709929Y-52038181D01*
X214139344Y-50467596D01*
X214105859Y-50406273D01*
X214109093Y-50341600D01*
X214147171Y-50224409D01*
X214156302Y-50166760D01*
X214175500Y-50045551D01*
X214175500Y-49864448D01*
X214157452Y-49750505D01*
X214147171Y-49685591D01*
X214094993Y-49525000D01*
X214091212Y-49513363D01*
X214091211Y-49513360D01*
X214035060Y-49403159D01*
X214035059Y-49403155D01*
X214008997Y-49352007D01*
X214008996Y-49352006D01*
X213902558Y-49205505D01*
X213902554Y-49205500D01*
X213774499Y-49077445D01*
X213774494Y-49077441D01*
X213627997Y-48971006D01*
X213627996Y-48971005D01*
X213627994Y-48971004D01*
X213550766Y-48931654D01*
X213466639Y-48888788D01*
X213466636Y-48888787D01*
X213294410Y-48832829D01*
X213134321Y-48807473D01*
X213071186Y-48777544D01*
X213034255Y-48718232D01*
X213035253Y-48648370D01*
X213073863Y-48590137D01*
X213134321Y-48562527D01*
X213204425Y-48551422D01*
X213294409Y-48537171D01*
X213466639Y-48481211D01*
X213627994Y-48398996D01*
X213774501Y-48292553D01*
X213902553Y-48164501D01*
X214008996Y-48017994D01*
X214091211Y-47856639D01*
X214147171Y-47684409D01*
X214167135Y-47558360D01*
X214175500Y-47505551D01*
X214175500Y-47324448D01*
X214159019Y-47220397D01*
X214147171Y-47145591D01*
X214091211Y-46973361D01*
X214091211Y-46973360D01*
X214062740Y-46917484D01*
X214008996Y-46812006D01*
X213939802Y-46716768D01*
X213902558Y-46665505D01*
X213902554Y-46665500D01*
X213774499Y-46537445D01*
X213774494Y-46537441D01*
X213627997Y-46431006D01*
X213627996Y-46431005D01*
X213627994Y-46431004D01*
X213555890Y-46394265D01*
X213466639Y-46348788D01*
X213466636Y-46348787D01*
X213294410Y-46292829D01*
X213134321Y-46267473D01*
X213071186Y-46237544D01*
X213034255Y-46178232D01*
X213035253Y-46108370D01*
X213073863Y-46050137D01*
X213134321Y-46022527D01*
X213204425Y-46011422D01*
X213294409Y-45997171D01*
X213466639Y-45941211D01*
X213627994Y-45858996D01*
X213774501Y-45752553D01*
X213902553Y-45624501D01*
X214008996Y-45477994D01*
X214091211Y-45316639D01*
X214147171Y-45144409D01*
X214161765Y-45052259D01*
X214175500Y-44965551D01*
X214175500Y-44878711D01*
X221149500Y-44878711D01*
X221149500Y-45121288D01*
X221181161Y-45361785D01*
X221243947Y-45596104D01*
X221308751Y-45752553D01*
X221336776Y-45820212D01*
X221458064Y-46030289D01*
X221458066Y-46030292D01*
X221458067Y-46030293D01*
X221605733Y-46222736D01*
X221605739Y-46222743D01*
X221777256Y-46394260D01*
X221777262Y-46394265D01*
X221969711Y-46541936D01*
X222179788Y-46663224D01*
X222403900Y-46756054D01*
X222638211Y-46818838D01*
X222818279Y-46842544D01*
X222878711Y-46850500D01*
X222878712Y-46850500D01*
X223121289Y-46850500D01*
X223181721Y-46842544D01*
X223361789Y-46818838D01*
X223596100Y-46756054D01*
X223820212Y-46663224D01*
X224030289Y-46541936D01*
X224222738Y-46394265D01*
X224394265Y-46222738D01*
X224541936Y-46030289D01*
X224663224Y-45820212D01*
X224756054Y-45596100D01*
X224818838Y-45361789D01*
X224850500Y-45121288D01*
X224850500Y-44878712D01*
X224818838Y-44638211D01*
X224756054Y-44403900D01*
X224663224Y-44179788D01*
X224541936Y-43969711D01*
X224481018Y-43890321D01*
X224394266Y-43777263D01*
X224394260Y-43777256D01*
X224222743Y-43605739D01*
X224222736Y-43605733D01*
X224030293Y-43458067D01*
X224030292Y-43458066D01*
X224030289Y-43458064D01*
X223820212Y-43336776D01*
X223820205Y-43336773D01*
X223596104Y-43243947D01*
X223361785Y-43181161D01*
X223121289Y-43149500D01*
X223121288Y-43149500D01*
X222878712Y-43149500D01*
X222878711Y-43149500D01*
X222638214Y-43181161D01*
X222403895Y-43243947D01*
X222179794Y-43336773D01*
X222179785Y-43336777D01*
X221969706Y-43458067D01*
X221777263Y-43605733D01*
X221777256Y-43605739D01*
X221605739Y-43777256D01*
X221605733Y-43777263D01*
X221458067Y-43969706D01*
X221336777Y-44179785D01*
X221336773Y-44179794D01*
X221243947Y-44403895D01*
X221181161Y-44638214D01*
X221149500Y-44878711D01*
X214175500Y-44878711D01*
X214175500Y-44784448D01*
X214152337Y-44638211D01*
X214147171Y-44605591D01*
X214091350Y-44433788D01*
X214091212Y-44433363D01*
X214091211Y-44433360D01*
X214048481Y-44349500D01*
X214008996Y-44272006D01*
X213995396Y-44253287D01*
X213902558Y-44125505D01*
X213902554Y-44125500D01*
X213774499Y-43997445D01*
X213774494Y-43997441D01*
X213627997Y-43891006D01*
X213627996Y-43891005D01*
X213627994Y-43891004D01*
X213576300Y-43864664D01*
X213466639Y-43808788D01*
X213466636Y-43808787D01*
X213294410Y-43752829D01*
X213115551Y-43724500D01*
X213115546Y-43724500D01*
X212934454Y-43724500D01*
X212934449Y-43724500D01*
X212755589Y-43752829D01*
X212583363Y-43808787D01*
X212583360Y-43808788D01*
X212422002Y-43891006D01*
X212275505Y-43997441D01*
X212275500Y-43997445D01*
X212147445Y-44125500D01*
X212147441Y-44125505D01*
X212041006Y-44272002D01*
X211958788Y-44433360D01*
X211958787Y-44433363D01*
X211902829Y-44605589D01*
X211874500Y-44784448D01*
X179838090Y-44784448D01*
X179818838Y-44638211D01*
X179756054Y-44403900D01*
X179663224Y-44179788D01*
X179541936Y-43969711D01*
X179481018Y-43890321D01*
X179394266Y-43777263D01*
X179394260Y-43777256D01*
X179222743Y-43605739D01*
X179222736Y-43605733D01*
X179030293Y-43458067D01*
X179030292Y-43458066D01*
X179030289Y-43458064D01*
X178820212Y-43336776D01*
X178820205Y-43336773D01*
X178596104Y-43243947D01*
X178361785Y-43181161D01*
X178121289Y-43149500D01*
X178121288Y-43149500D01*
X177878712Y-43149500D01*
X177878711Y-43149500D01*
X177638214Y-43181161D01*
X177403895Y-43243947D01*
X177179794Y-43336773D01*
X177179785Y-43336777D01*
X176969706Y-43458067D01*
X176777263Y-43605733D01*
X176777256Y-43605739D01*
X176605739Y-43777256D01*
X176605733Y-43777263D01*
X176458067Y-43969706D01*
X176336777Y-44179785D01*
X176336773Y-44179794D01*
X176243947Y-44403895D01*
X176181161Y-44638214D01*
X176149500Y-44878711D01*
X166595704Y-44878711D01*
X166502558Y-44750505D01*
X166502554Y-44750500D01*
X166374499Y-44622445D01*
X166374494Y-44622441D01*
X166227997Y-44516006D01*
X166227996Y-44516005D01*
X166227994Y-44516004D01*
X166176300Y-44489664D01*
X166066639Y-44433788D01*
X166066636Y-44433787D01*
X165894410Y-44377829D01*
X165715551Y-44349500D01*
X165715546Y-44349500D01*
X165284454Y-44349500D01*
X165284449Y-44349500D01*
X165105589Y-44377829D01*
X164933363Y-44433787D01*
X164933360Y-44433788D01*
X164772002Y-44516006D01*
X164625505Y-44622441D01*
X164625500Y-44622445D01*
X164497445Y-44750500D01*
X164497441Y-44750505D01*
X164391006Y-44897002D01*
X164308788Y-45058360D01*
X164308787Y-45058363D01*
X164252829Y-45230589D01*
X164224500Y-45409448D01*
X164224500Y-45590551D01*
X164252829Y-45769410D01*
X164308787Y-45941636D01*
X164308788Y-45941639D01*
X164391006Y-46102997D01*
X164497441Y-46249494D01*
X164497445Y-46249499D01*
X164625500Y-46377554D01*
X164625505Y-46377558D01*
X164699068Y-46431004D01*
X164772006Y-46483996D01*
X164876897Y-46537441D01*
X164933360Y-46566211D01*
X164933363Y-46566212D01*
X165019476Y-46594191D01*
X165105591Y-46622171D01*
X165130291Y-46626083D01*
X165139406Y-46627527D01*
X165202540Y-46657457D01*
X165239471Y-46716768D01*
X165238473Y-46786631D01*
X165199863Y-46844863D01*
X165139406Y-46872473D01*
X165105589Y-46877829D01*
X164933363Y-46933787D01*
X164933360Y-46933788D01*
X164772002Y-47016006D01*
X164625505Y-47122441D01*
X164625500Y-47122445D01*
X164497445Y-47250500D01*
X164497441Y-47250505D01*
X164391006Y-47397002D01*
X164308788Y-47558360D01*
X164308787Y-47558363D01*
X164252829Y-47730589D01*
X164224500Y-47909448D01*
X164224500Y-48090551D01*
X164252829Y-48269410D01*
X164308787Y-48441636D01*
X164308788Y-48441639D01*
X164357465Y-48537170D01*
X164370414Y-48562585D01*
X164391006Y-48602997D01*
X164497441Y-48749494D01*
X164497445Y-48749499D01*
X164625500Y-48877554D01*
X164625505Y-48877558D01*
X164699963Y-48931654D01*
X164772006Y-48983996D01*
X164877484Y-49037740D01*
X164933360Y-49066211D01*
X164933363Y-49066212D01*
X164978508Y-49080880D01*
X165105591Y-49122171D01*
X165130291Y-49126083D01*
X165139406Y-49127527D01*
X165202540Y-49157457D01*
X165239471Y-49216768D01*
X165238473Y-49286631D01*
X165199863Y-49344863D01*
X165139406Y-49372473D01*
X165105589Y-49377829D01*
X164933363Y-49433787D01*
X164933360Y-49433788D01*
X164772002Y-49516006D01*
X164625505Y-49622441D01*
X164625500Y-49622445D01*
X164497445Y-49750500D01*
X164497441Y-49750505D01*
X164391006Y-49897002D01*
X164308788Y-50058360D01*
X164308787Y-50058363D01*
X164252829Y-50230589D01*
X164224500Y-50409448D01*
X164224500Y-50590551D01*
X164252829Y-50769410D01*
X164308787Y-50941636D01*
X164308788Y-50941639D01*
X164358445Y-51039094D01*
X164390766Y-51102527D01*
X164391006Y-51102997D01*
X164497441Y-51249494D01*
X164497445Y-51249499D01*
X164625500Y-51377554D01*
X164625505Y-51377558D01*
X164740605Y-51461182D01*
X164772006Y-51483996D01*
X164855778Y-51526680D01*
X164857511Y-51527563D01*
X164908307Y-51575538D01*
X164925102Y-51643359D01*
X164902565Y-51709494D01*
X164857511Y-51748533D01*
X164667442Y-51845379D01*
X164495540Y-51970272D01*
X164495535Y-51970276D01*
X164345276Y-52120535D01*
X164345272Y-52120540D01*
X164220379Y-52292442D01*
X164123904Y-52481782D01*
X164058242Y-52683870D01*
X164058242Y-52683873D01*
X164047769Y-52750000D01*
X165095854Y-52750000D01*
X165057370Y-52816657D01*
X165025000Y-52937465D01*
X165025000Y-53062535D01*
X165057370Y-53183343D01*
X165095854Y-53250000D01*
X164047769Y-53250000D01*
X164058242Y-53316126D01*
X164058242Y-53316129D01*
X164123904Y-53518217D01*
X164220379Y-53707557D01*
X164345272Y-53879459D01*
X164345276Y-53879464D01*
X164495535Y-54029723D01*
X164495540Y-54029727D01*
X164660644Y-54149682D01*
X164703310Y-54205012D01*
X164709289Y-54274625D01*
X164676684Y-54336420D01*
X164660644Y-54350318D01*
X164495540Y-54470272D01*
X164495535Y-54470276D01*
X164345276Y-54620535D01*
X164345272Y-54620540D01*
X164220379Y-54792442D01*
X164123904Y-54981782D01*
X164058242Y-55183870D01*
X164058242Y-55183873D01*
X164047769Y-55250000D01*
X165095854Y-55250000D01*
X165057370Y-55316657D01*
X165025000Y-55437465D01*
X165025000Y-55562535D01*
X165057370Y-55683343D01*
X165095854Y-55750000D01*
X164047769Y-55750000D01*
X164058242Y-55816126D01*
X164058242Y-55816129D01*
X164123904Y-56018217D01*
X164220379Y-56207557D01*
X164345272Y-56379459D01*
X164345276Y-56379464D01*
X164495535Y-56529723D01*
X164495540Y-56529727D01*
X164659560Y-56648894D01*
X164702226Y-56704223D01*
X164708205Y-56773837D01*
X164675600Y-56835632D01*
X164632166Y-56864566D01*
X164502658Y-56915638D01*
X164382077Y-57007077D01*
X164290639Y-57127656D01*
X164235122Y-57268438D01*
X164229188Y-57317853D01*
X164224500Y-57356898D01*
X164224500Y-57356903D01*
X164224500Y-57738506D01*
X164204815Y-57805545D01*
X164188181Y-57826187D01*
X162820947Y-59193421D01*
X162820945Y-59193423D01*
X162763869Y-59250499D01*
X162674623Y-59339744D01*
X162559658Y-59511803D01*
X162480470Y-59702979D01*
X162480468Y-59702987D01*
X162440100Y-59905930D01*
X162440100Y-73847469D01*
X162480468Y-74050412D01*
X162480470Y-74050420D01*
X162559659Y-74241598D01*
X162597231Y-74297829D01*
X162674624Y-74413657D01*
X162825264Y-74564297D01*
X162825286Y-74564317D01*
X164430620Y-76169651D01*
X164430623Y-76169655D01*
X164455952Y-76194984D01*
X164468585Y-76209776D01*
X164497444Y-76249497D01*
X164497449Y-76249503D01*
X164625500Y-76377554D01*
X164625505Y-76377558D01*
X164738531Y-76459675D01*
X164772006Y-76483996D01*
X164856137Y-76526863D01*
X164933360Y-76566211D01*
X164933363Y-76566212D01*
X165060649Y-76607569D01*
X165118324Y-76647006D01*
X165145523Y-76711364D01*
X165133609Y-76780211D01*
X165086365Y-76831687D01*
X165022331Y-76849500D01*
X164731898Y-76849500D01*
X164692853Y-76854188D01*
X164643438Y-76860122D01*
X164502656Y-76915639D01*
X164382077Y-77007077D01*
X164290639Y-77127656D01*
X164235122Y-77268438D01*
X164230263Y-77308909D01*
X164224500Y-77356898D01*
X164224500Y-78643102D01*
X164230126Y-78689954D01*
X164235122Y-78731561D01*
X164290639Y-78872343D01*
X164382077Y-78992922D01*
X164502656Y-79084360D01*
X164502657Y-79084360D01*
X164502658Y-79084361D01*
X164643436Y-79139877D01*
X164731898Y-79150500D01*
X164731903Y-79150500D01*
X166268097Y-79150500D01*
X166268102Y-79150500D01*
X166356564Y-79139877D01*
X166497342Y-79084361D01*
X166617922Y-78992922D01*
X166709361Y-78872342D01*
X166764877Y-78731564D01*
X166775500Y-78643102D01*
X166775500Y-77356898D01*
X166764877Y-77268436D01*
X166709361Y-77127658D01*
X166709360Y-77127657D01*
X166709360Y-77127656D01*
X166617922Y-77007077D01*
X166497343Y-76915639D01*
X166401192Y-76877722D01*
X166356564Y-76860123D01*
X166356563Y-76860122D01*
X166356561Y-76860122D01*
X166310926Y-76854642D01*
X166268102Y-76849500D01*
X165977669Y-76849500D01*
X165910630Y-76829815D01*
X165864875Y-76777011D01*
X165854931Y-76707853D01*
X165883956Y-76644297D01*
X165939351Y-76607569D01*
X166066636Y-76566212D01*
X166066639Y-76566211D01*
X166227994Y-76483996D01*
X166374501Y-76377553D01*
X166502553Y-76249501D01*
X166608996Y-76102994D01*
X166691211Y-75941639D01*
X166747171Y-75769409D01*
X166761765Y-75677259D01*
X166775500Y-75590551D01*
X166775500Y-75409448D01*
X166759019Y-75305397D01*
X166747171Y-75230591D01*
X166701670Y-75090551D01*
X166691212Y-75058363D01*
X166691211Y-75058360D01*
X166650450Y-74978363D01*
X166608996Y-74897006D01*
X166550870Y-74817002D01*
X166502558Y-74750505D01*
X166502554Y-74750500D01*
X166374499Y-74622445D01*
X166374494Y-74622441D01*
X166227993Y-74516003D01*
X166227992Y-74516002D01*
X166142488Y-74472435D01*
X166091692Y-74424461D01*
X166074897Y-74356640D01*
X166097435Y-74290505D01*
X166142488Y-74251466D01*
X166332558Y-74154620D01*
X166504459Y-74029727D01*
X166504464Y-74029723D01*
X166654723Y-73879464D01*
X166654727Y-73879459D01*
X166779620Y-73707557D01*
X166876095Y-73518217D01*
X166941757Y-73316129D01*
X166941757Y-73316126D01*
X166952231Y-73250000D01*
X165904146Y-73250000D01*
X165942630Y-73183343D01*
X165975000Y-73062535D01*
X165975000Y-72937465D01*
X165942630Y-72816657D01*
X165904146Y-72750000D01*
X166952231Y-72750000D01*
X166941757Y-72683873D01*
X166941757Y-72683870D01*
X166876095Y-72481782D01*
X166779620Y-72292442D01*
X166654727Y-72120540D01*
X166654723Y-72120535D01*
X166504464Y-71970276D01*
X166504459Y-71970272D01*
X166332557Y-71845379D01*
X166142488Y-71748533D01*
X166091692Y-71700558D01*
X166074897Y-71632737D01*
X166097435Y-71566602D01*
X166142489Y-71527563D01*
X166162325Y-71517456D01*
X166227994Y-71483996D01*
X166374501Y-71377553D01*
X166502553Y-71249501D01*
X166608996Y-71102994D01*
X166664937Y-70993203D01*
X166712910Y-70942409D01*
X166775421Y-70925500D01*
X169970390Y-70925500D01*
X170037429Y-70945185D01*
X170058071Y-70961819D01*
X186069071Y-86972819D01*
X186102556Y-87034142D01*
X186097572Y-87103834D01*
X186055700Y-87159767D01*
X185990236Y-87184184D01*
X185981390Y-87184500D01*
X176051896Y-87184500D01*
X175984857Y-87164815D01*
X175939102Y-87112011D01*
X175929158Y-87042853D01*
X175951578Y-86987615D01*
X175968369Y-86964502D01*
X175983996Y-86942994D01*
X176066211Y-86781639D01*
X176122171Y-86609409D01*
X176148984Y-86440119D01*
X176150500Y-86430551D01*
X176150500Y-86249448D01*
X176134019Y-86145397D01*
X176122171Y-86070591D01*
X176066211Y-85898361D01*
X176066211Y-85898360D01*
X176037740Y-85842484D01*
X175983996Y-85737006D01*
X175964375Y-85710000D01*
X175877558Y-85590505D01*
X175877554Y-85590500D01*
X175749499Y-85462445D01*
X175749494Y-85462441D01*
X175602995Y-85356004D01*
X175471314Y-85288908D01*
X175420519Y-85240934D01*
X175403724Y-85173113D01*
X175426262Y-85106978D01*
X175480977Y-85063527D01*
X175489295Y-85060492D01*
X175518217Y-85051095D01*
X175707554Y-84954622D01*
X175761716Y-84915270D01*
X175761717Y-84915270D01*
X175129408Y-84282962D01*
X175192993Y-84265925D01*
X175307007Y-84200099D01*
X175400099Y-84107007D01*
X175465925Y-83992993D01*
X175482962Y-83929408D01*
X176115270Y-84561717D01*
X176115270Y-84561716D01*
X176154622Y-84507554D01*
X176251095Y-84318217D01*
X176316757Y-84116130D01*
X176316757Y-84116127D01*
X176350000Y-83906246D01*
X176350000Y-83693753D01*
X176316757Y-83483872D01*
X176316757Y-83483869D01*
X176251095Y-83281782D01*
X176154624Y-83092449D01*
X176115270Y-83038282D01*
X176115269Y-83038282D01*
X175482962Y-83670590D01*
X175465925Y-83607007D01*
X175400099Y-83492993D01*
X175307007Y-83399901D01*
X175192993Y-83334075D01*
X175129409Y-83317037D01*
X175761716Y-82684728D01*
X175707550Y-82645375D01*
X175518217Y-82548904D01*
X175316129Y-82483242D01*
X175106246Y-82450000D01*
X174893754Y-82450000D01*
X174683872Y-82483242D01*
X174683869Y-82483242D01*
X174481782Y-82548904D01*
X174292439Y-82645380D01*
X174238282Y-82684727D01*
X174238282Y-82684728D01*
X174870591Y-83317037D01*
X174807007Y-83334075D01*
X174692993Y-83399901D01*
X174599901Y-83492993D01*
X174534075Y-83607007D01*
X174517037Y-83670591D01*
X173884728Y-83038282D01*
X173884727Y-83038282D01*
X173845380Y-83092439D01*
X173748904Y-83281782D01*
X173683242Y-83483869D01*
X173683242Y-83483872D01*
X173650000Y-83693753D01*
X173650000Y-83906246D01*
X173683242Y-84116127D01*
X173683242Y-84116130D01*
X173748904Y-84318217D01*
X173845375Y-84507550D01*
X173884728Y-84561716D01*
X174517037Y-83929408D01*
X174534075Y-83992993D01*
X174599901Y-84107007D01*
X174692993Y-84200099D01*
X174807007Y-84265925D01*
X174870590Y-84282962D01*
X174238282Y-84915269D01*
X174238282Y-84915270D01*
X174292449Y-84954624D01*
X174481780Y-85051094D01*
X174510705Y-85060492D01*
X174568381Y-85099929D01*
X174595580Y-85164287D01*
X174583667Y-85233134D01*
X174536424Y-85284610D01*
X174528685Y-85288908D01*
X174397004Y-85356004D01*
X174250505Y-85462441D01*
X174250500Y-85462445D01*
X174122445Y-85590500D01*
X174122441Y-85590505D01*
X174016006Y-85737002D01*
X173933788Y-85898360D01*
X173933787Y-85898363D01*
X173877829Y-86070589D01*
X173849500Y-86249448D01*
X173849500Y-86430551D01*
X173877829Y-86609410D01*
X173933787Y-86781636D01*
X173933788Y-86781639D01*
X174016006Y-86942997D01*
X174048422Y-86987615D01*
X174071902Y-87053422D01*
X174056076Y-87121475D01*
X174005970Y-87170170D01*
X173948104Y-87184500D01*
X172415682Y-87184500D01*
X172307463Y-87213497D01*
X172307460Y-87213498D01*
X172210440Y-87269513D01*
X172210434Y-87269517D01*
X161735717Y-97744234D01*
X161735711Y-97744243D01*
X161731886Y-97750868D01*
X161681319Y-97799083D01*
X161612712Y-97812305D01*
X161547847Y-97786337D01*
X161507319Y-97729422D01*
X161500500Y-97688867D01*
X161500500Y-85160013D01*
X165000000Y-85160013D01*
X165000000Y-85710000D01*
X165951518Y-85710000D01*
X165940889Y-85728409D01*
X165900000Y-85881009D01*
X165900000Y-86038991D01*
X165940889Y-86191591D01*
X165951518Y-86210000D01*
X165000001Y-86210000D01*
X165000001Y-86759986D01*
X165010494Y-86862697D01*
X165065641Y-87029119D01*
X165065643Y-87029124D01*
X165157684Y-87178345D01*
X165281654Y-87302315D01*
X165430875Y-87394356D01*
X165430880Y-87394358D01*
X165492104Y-87414646D01*
X165549549Y-87454419D01*
X165576372Y-87518935D01*
X165564057Y-87587710D01*
X165540782Y-87620032D01*
X165508032Y-87652781D01*
X165508028Y-87652786D01*
X165387715Y-87818386D01*
X165294781Y-88000776D01*
X165231522Y-88195465D01*
X165199500Y-88397648D01*
X165199500Y-88602351D01*
X165231522Y-88804534D01*
X165294781Y-88999223D01*
X165387715Y-89181613D01*
X165508028Y-89347213D01*
X165652786Y-89491971D01*
X165807749Y-89604556D01*
X165818390Y-89612287D01*
X165934607Y-89671503D01*
X166000776Y-89705218D01*
X166000778Y-89705218D01*
X166000781Y-89705220D01*
X166105137Y-89739127D01*
X166195465Y-89768477D01*
X166296557Y-89784488D01*
X166397648Y-89800500D01*
X166397649Y-89800500D01*
X166602351Y-89800500D01*
X166602352Y-89800500D01*
X166804534Y-89768477D01*
X166999219Y-89705220D01*
X167181610Y-89612287D01*
X167274590Y-89544732D01*
X167347213Y-89491971D01*
X167347215Y-89491968D01*
X167347219Y-89491966D01*
X167491966Y-89347219D01*
X167491968Y-89347215D01*
X167491971Y-89347213D01*
X167550541Y-89266597D01*
X167612287Y-89181610D01*
X167705220Y-88999219D01*
X167768477Y-88804534D01*
X167800500Y-88602352D01*
X167800500Y-88397648D01*
X167781391Y-88277002D01*
X167768477Y-88195465D01*
X167721157Y-88049830D01*
X167705220Y-88000781D01*
X167705218Y-88000778D01*
X167705218Y-88000776D01*
X167671503Y-87934607D01*
X167612287Y-87818390D01*
X167604556Y-87807749D01*
X167491971Y-87652786D01*
X167459218Y-87620033D01*
X167425733Y-87558710D01*
X167430717Y-87489018D01*
X167472589Y-87433085D01*
X167507895Y-87414646D01*
X167569119Y-87394358D01*
X167569124Y-87394356D01*
X167718345Y-87302315D01*
X167842315Y-87178345D01*
X167934356Y-87029124D01*
X167934358Y-87029119D01*
X167989505Y-86862697D01*
X167989506Y-86862690D01*
X167999999Y-86759986D01*
X168000000Y-86759973D01*
X168000000Y-86210000D01*
X167048482Y-86210000D01*
X167059111Y-86191591D01*
X167100000Y-86038991D01*
X167100000Y-85881009D01*
X167059111Y-85728409D01*
X167048482Y-85710000D01*
X167999999Y-85710000D01*
X167999999Y-85160028D01*
X167999998Y-85160013D01*
X167989505Y-85057302D01*
X167934358Y-84890880D01*
X167934356Y-84890875D01*
X167842315Y-84741654D01*
X167718345Y-84617684D01*
X167569124Y-84525643D01*
X167569119Y-84525641D01*
X167402697Y-84470494D01*
X167402690Y-84470493D01*
X167299986Y-84460000D01*
X166750000Y-84460000D01*
X166750000Y-85411517D01*
X166731591Y-85400889D01*
X166578991Y-85360000D01*
X166421009Y-85360000D01*
X166268409Y-85400889D01*
X166250000Y-85411517D01*
X166250000Y-84460000D01*
X165700028Y-84460000D01*
X165700012Y-84460001D01*
X165597302Y-84470494D01*
X165430880Y-84525641D01*
X165430875Y-84525643D01*
X165281654Y-84617684D01*
X165157684Y-84741654D01*
X165065643Y-84890875D01*
X165065641Y-84890880D01*
X165010494Y-85057302D01*
X165010493Y-85057309D01*
X165000000Y-85160013D01*
X161500500Y-85160013D01*
X161500500Y-40624500D01*
X161520185Y-40557461D01*
X161572989Y-40511706D01*
X161624500Y-40500500D01*
X240375500Y-40500500D01*
X240442539Y-40520185D01*
G37*
%TD.AperFunction*%
%TA.AperFunction,Conductor*%
G36*
X174015143Y-88055185D02*
G01*
X174060898Y-88107989D01*
X174070842Y-88177147D01*
X174048422Y-88232385D01*
X174016006Y-88277002D01*
X173933788Y-88438360D01*
X173933787Y-88438363D01*
X173877829Y-88610589D01*
X173849500Y-88789448D01*
X173849500Y-88970551D01*
X173877829Y-89149410D01*
X173915905Y-89266597D01*
X173917900Y-89336438D01*
X173885655Y-89392596D01*
X172910395Y-90367855D01*
X172910396Y-90367856D01*
X172848614Y-90429638D01*
X172848613Y-90429640D01*
X172792598Y-90526660D01*
X172792597Y-90526663D01*
X172763600Y-90634882D01*
X172763600Y-97570202D01*
X172743915Y-97637241D01*
X172727281Y-97657883D01*
X172708581Y-97676582D01*
X172708575Y-97676590D01*
X172629526Y-97813509D01*
X172629523Y-97813516D01*
X172588600Y-97966243D01*
X172588600Y-98124357D01*
X172618372Y-98235465D01*
X172629523Y-98277083D01*
X172629526Y-98277090D01*
X172708575Y-98414009D01*
X172708579Y-98414014D01*
X172708580Y-98414016D01*
X172820384Y-98525820D01*
X172820386Y-98525821D01*
X172820390Y-98525824D01*
X172957309Y-98604873D01*
X172957316Y-98604877D01*
X173110043Y-98645800D01*
X173110045Y-98645800D01*
X173268154Y-98645800D01*
X173268157Y-98645800D01*
X173284208Y-98641499D01*
X173354056Y-98643162D01*
X173411919Y-98682324D01*
X173439423Y-98746553D01*
X173440300Y-98761274D01*
X173440300Y-112081982D01*
X173440300Y-112194018D01*
X173469297Y-112302237D01*
X173525315Y-112399263D01*
X173525317Y-112399265D01*
X179467281Y-118341229D01*
X179500766Y-118402552D01*
X179503600Y-118428910D01*
X179503600Y-118733082D01*
X179503600Y-118845118D01*
X179532597Y-118953337D01*
X179588615Y-119050363D01*
X179588617Y-119050365D01*
X182002438Y-121464186D01*
X182035923Y-121525509D01*
X182038718Y-121548768D01*
X182063995Y-122559825D01*
X182045992Y-122627335D01*
X181994348Y-122674396D01*
X181925460Y-122686065D01*
X181861199Y-122658637D01*
X181852353Y-122650605D01*
X176821265Y-117619517D01*
X176821263Y-117619515D01*
X176724237Y-117563497D01*
X176616018Y-117534500D01*
X176616017Y-117534500D01*
X165650421Y-117534500D01*
X165583382Y-117514815D01*
X165539937Y-117466796D01*
X165483996Y-117357006D01*
X165483994Y-117357003D01*
X165483993Y-117357001D01*
X165377558Y-117210505D01*
X165377554Y-117210500D01*
X165249499Y-117082445D01*
X165249494Y-117082441D01*
X165102997Y-116976006D01*
X165102996Y-116976005D01*
X165102994Y-116976004D01*
X165029964Y-116938793D01*
X164941639Y-116893788D01*
X164941636Y-116893787D01*
X164769410Y-116837829D01*
X164609321Y-116812473D01*
X164546186Y-116782544D01*
X164509255Y-116723232D01*
X164510253Y-116653370D01*
X164548863Y-116595137D01*
X164609321Y-116567527D01*
X164679425Y-116556422D01*
X164769409Y-116542171D01*
X164941639Y-116486211D01*
X165102994Y-116403996D01*
X165249501Y-116297553D01*
X165377553Y-116169501D01*
X165483996Y-116022994D01*
X165566211Y-115861639D01*
X165622171Y-115689409D01*
X165637585Y-115592086D01*
X165650500Y-115510551D01*
X165650500Y-115329448D01*
X165630169Y-115201087D01*
X165622171Y-115150591D01*
X165573242Y-115000000D01*
X165566212Y-114978363D01*
X165566211Y-114978360D01*
X165523665Y-114894860D01*
X165483996Y-114817006D01*
X165411957Y-114717852D01*
X165377558Y-114670505D01*
X165377554Y-114670500D01*
X165249499Y-114542445D01*
X165249494Y-114542441D01*
X165102997Y-114436006D01*
X165102996Y-114436005D01*
X165102994Y-114436004D01*
X165029964Y-114398793D01*
X164941639Y-114353788D01*
X164941636Y-114353787D01*
X164769410Y-114297829D01*
X164609321Y-114272473D01*
X164546186Y-114242544D01*
X164509255Y-114183232D01*
X164510253Y-114113370D01*
X164548863Y-114055137D01*
X164609321Y-114027527D01*
X164679425Y-114016422D01*
X164769409Y-114002171D01*
X164941639Y-113946211D01*
X165102994Y-113863996D01*
X165249501Y-113757553D01*
X165377553Y-113629501D01*
X165483996Y-113482994D01*
X165566211Y-113321639D01*
X165622171Y-113149409D01*
X165636765Y-113057259D01*
X165650500Y-112970551D01*
X165650500Y-112789448D01*
X165632274Y-112674378D01*
X165622171Y-112610591D01*
X165593530Y-112522441D01*
X165566212Y-112438363D01*
X165566211Y-112438360D01*
X165523665Y-112354860D01*
X165483996Y-112277006D01*
X165464011Y-112249499D01*
X165377558Y-112130505D01*
X165377554Y-112130500D01*
X165249499Y-112002445D01*
X165249494Y-112002441D01*
X165102995Y-111896004D01*
X164971314Y-111828908D01*
X164920519Y-111780934D01*
X164903724Y-111713113D01*
X164926262Y-111646978D01*
X164980977Y-111603527D01*
X164989295Y-111600492D01*
X165018217Y-111591095D01*
X165207554Y-111494622D01*
X165261716Y-111455270D01*
X165261717Y-111455270D01*
X164629409Y-110822962D01*
X164692993Y-110805925D01*
X164807007Y-110740099D01*
X164900099Y-110647007D01*
X164965925Y-110532993D01*
X164982962Y-110469408D01*
X165615270Y-111101717D01*
X165615270Y-111101716D01*
X165654622Y-111047554D01*
X165751095Y-110858217D01*
X165816757Y-110656130D01*
X165816757Y-110656127D01*
X165850000Y-110446246D01*
X165850000Y-110233753D01*
X165816757Y-110023872D01*
X165816757Y-110023869D01*
X165751095Y-109821782D01*
X165654624Y-109632449D01*
X165615270Y-109578282D01*
X165615269Y-109578282D01*
X164982962Y-110210590D01*
X164965925Y-110147007D01*
X164900099Y-110032993D01*
X164807007Y-109939901D01*
X164692993Y-109874075D01*
X164629407Y-109857036D01*
X165298802Y-109187642D01*
X165360125Y-109154157D01*
X165374833Y-109155078D01*
X165374556Y-109152501D01*
X165457375Y-109143598D01*
X165592086Y-109093354D01*
X165592093Y-109093350D01*
X165707187Y-109007190D01*
X165707190Y-109007187D01*
X165793350Y-108892093D01*
X165793354Y-108892086D01*
X165843596Y-108757379D01*
X165843598Y-108757372D01*
X165849999Y-108697844D01*
X165850000Y-108697827D01*
X165850000Y-108050000D01*
X164933012Y-108050000D01*
X164965925Y-107992993D01*
X165000000Y-107865826D01*
X165000000Y-107734174D01*
X164965925Y-107607007D01*
X164933012Y-107550000D01*
X165850000Y-107550000D01*
X165850000Y-106902172D01*
X165849999Y-106902155D01*
X165843598Y-106842627D01*
X165843596Y-106842620D01*
X165793354Y-106707913D01*
X165793350Y-106707906D01*
X165707190Y-106592812D01*
X165707187Y-106592809D01*
X165592093Y-106506649D01*
X165592086Y-106506645D01*
X165457379Y-106456403D01*
X165457372Y-106456401D01*
X165397844Y-106450000D01*
X164750000Y-106450000D01*
X164750000Y-107366988D01*
X164692993Y-107334075D01*
X164565826Y-107300000D01*
X164434174Y-107300000D01*
X164307007Y-107334075D01*
X164250000Y-107366988D01*
X164250000Y-106450000D01*
X163816900Y-106450000D01*
X163749861Y-106430315D01*
X163704106Y-106377511D01*
X163692900Y-106326000D01*
X163692900Y-102000209D01*
X163712585Y-101933170D01*
X163729214Y-101912533D01*
X165868477Y-99773269D01*
X165929798Y-99739786D01*
X165995888Y-99744512D01*
X165996148Y-99743714D01*
X165999372Y-99744761D01*
X165999490Y-99744770D01*
X165999926Y-99744941D01*
X166000774Y-99745216D01*
X166000781Y-99745220D01*
X166153625Y-99794882D01*
X166195465Y-99808477D01*
X166296557Y-99824488D01*
X166397648Y-99840500D01*
X166397649Y-99840500D01*
X166602351Y-99840500D01*
X166602352Y-99840500D01*
X166804534Y-99808477D01*
X166999219Y-99745220D01*
X167181610Y-99652287D01*
X167274590Y-99584732D01*
X167347213Y-99531971D01*
X167347215Y-99531968D01*
X167347219Y-99531966D01*
X167491966Y-99387219D01*
X167491968Y-99387215D01*
X167491971Y-99387213D01*
X167544732Y-99314590D01*
X167612287Y-99221610D01*
X167705220Y-99039219D01*
X167768477Y-98844534D01*
X167800500Y-98642352D01*
X167800500Y-98437648D01*
X167768477Y-98235466D01*
X167767711Y-98233110D01*
X167718232Y-98080828D01*
X167705220Y-98040781D01*
X167705218Y-98040778D01*
X167705218Y-98040776D01*
X167631965Y-97897011D01*
X167612287Y-97858390D01*
X167590101Y-97827853D01*
X167491971Y-97692786D01*
X167347217Y-97548032D01*
X167347212Y-97548028D01*
X167302836Y-97515787D01*
X167260170Y-97460457D01*
X167254191Y-97390844D01*
X167286796Y-97329049D01*
X167347635Y-97294692D01*
X167360931Y-97292354D01*
X167381564Y-97289877D01*
X167522342Y-97234361D01*
X167642922Y-97142922D01*
X167734361Y-97022342D01*
X167789877Y-96881564D01*
X167800500Y-96793102D01*
X167800500Y-95206898D01*
X167789877Y-95118436D01*
X167734361Y-94977658D01*
X167734360Y-94977657D01*
X167734360Y-94977656D01*
X167642922Y-94857077D01*
X167522343Y-94765639D01*
X167381561Y-94710122D01*
X167335926Y-94704642D01*
X167293102Y-94699500D01*
X167293097Y-94699500D01*
X166283310Y-94699500D01*
X166216271Y-94679815D01*
X166170516Y-94627011D01*
X166160572Y-94557853D01*
X166189597Y-94494297D01*
X166195629Y-94487819D01*
X172611629Y-88071819D01*
X172672952Y-88038334D01*
X172699310Y-88035500D01*
X173948104Y-88035500D01*
X174015143Y-88055185D01*
G37*
%TD.AperFunction*%
%TA.AperFunction,Conductor*%
G36*
X183393382Y-102439575D02*
G01*
X183396053Y-102438914D01*
X183426708Y-102449361D01*
X183457781Y-102458485D01*
X183459582Y-102460564D01*
X183462188Y-102461452D01*
X183482334Y-102486821D01*
X183503536Y-102511289D01*
X183503927Y-102514011D01*
X183505639Y-102516167D01*
X183508870Y-102548387D01*
X183513480Y-102580447D01*
X183512420Y-102583788D01*
X183512611Y-102585688D01*
X183501227Y-102619095D01*
X183448904Y-102721782D01*
X183383242Y-102923869D01*
X183383242Y-102923872D01*
X183350000Y-103133753D01*
X183350000Y-103346246D01*
X183383242Y-103556127D01*
X183383242Y-103556130D01*
X183448904Y-103758217D01*
X183545375Y-103947550D01*
X183584728Y-104001716D01*
X184217036Y-103369407D01*
X184234075Y-103432993D01*
X184299901Y-103547007D01*
X184392993Y-103640099D01*
X184507007Y-103705925D01*
X184570589Y-103722962D01*
X183938282Y-104355269D01*
X183938282Y-104355270D01*
X183992449Y-104394624D01*
X184181780Y-104491094D01*
X184210705Y-104500492D01*
X184268381Y-104539929D01*
X184295580Y-104604287D01*
X184283667Y-104673134D01*
X184236424Y-104724610D01*
X184228685Y-104728908D01*
X184097004Y-104796004D01*
X183950505Y-104902441D01*
X183950500Y-104902445D01*
X183822445Y-105030500D01*
X183822441Y-105030505D01*
X183716006Y-105177002D01*
X183633788Y-105338360D01*
X183633787Y-105338363D01*
X183577829Y-105510589D01*
X183549500Y-105689448D01*
X183549500Y-105870551D01*
X183577828Y-106049409D01*
X183615905Y-106166596D01*
X183617900Y-106236437D01*
X183585655Y-106292595D01*
X183159437Y-106718815D01*
X183080217Y-106798034D01*
X183080213Y-106798040D01*
X183024198Y-106895060D01*
X183024197Y-106895063D01*
X182995200Y-107003282D01*
X182995200Y-119876000D01*
X182975515Y-119943039D01*
X182922711Y-119988794D01*
X182871200Y-120000000D01*
X182000000Y-120000000D01*
X181981807Y-120018652D01*
X181980856Y-120022219D01*
X181929206Y-120069273D01*
X181860316Y-120080934D01*
X181796058Y-120053499D01*
X181787224Y-120045476D01*
X180390919Y-118649171D01*
X180357434Y-118587848D01*
X180354600Y-118561490D01*
X180354600Y-118145284D01*
X180354600Y-118145282D01*
X180325603Y-118037063D01*
X180269585Y-117940037D01*
X180190363Y-117860815D01*
X174327619Y-111998071D01*
X174294134Y-111936748D01*
X174291300Y-111910390D01*
X174291300Y-106823178D01*
X174310985Y-106756139D01*
X174363789Y-106710384D01*
X174432947Y-106700440D01*
X174477298Y-106715790D01*
X174567516Y-106767877D01*
X174720243Y-106808800D01*
X174720245Y-106808800D01*
X174878355Y-106808800D01*
X174878357Y-106808800D01*
X175031084Y-106767877D01*
X175168016Y-106688820D01*
X175279820Y-106577016D01*
X175358877Y-106440084D01*
X175399800Y-106287357D01*
X175399800Y-106260910D01*
X175419485Y-106193871D01*
X175436119Y-106173229D01*
X179134229Y-102475119D01*
X179195552Y-102441634D01*
X179221910Y-102438800D01*
X183390742Y-102438800D01*
X183393382Y-102439575D01*
G37*
%TD.AperFunction*%
%TA.AperFunction,Conductor*%
G36*
X165750000Y-55095854D02*
G01*
X165683343Y-55057370D01*
X165562535Y-55025000D01*
X165437465Y-55025000D01*
X165316657Y-55057370D01*
X165250000Y-55095854D01*
X165250000Y-53404145D01*
X165316657Y-53442630D01*
X165437465Y-53475000D01*
X165562535Y-53475000D01*
X165683343Y-53442630D01*
X165750000Y-53404145D01*
X165750000Y-55095854D01*
G37*
%TD.AperFunction*%
%TD*%
M02*
