M48
; DRILL file KiCad 10.0.3-10.0.3~ubuntu24.04.1 date 2026-06-23T10:51:49
; FORMAT={-:-/ absolute / metric / decimal}
; #@! TF.CreationDate,2026-06-23T10:51:49+02:00
; #@! TF.GenerationSoftware,Kicad,Pcbnew,10.0.3-10.0.3~ubuntu24.04.1
; #@! TF.FileFunction,Plated,1,2,PTH
FMAT,2
METRIC
; #@! TA.AperFunction,Plated,PTH,ViaDrill
T1C0.200
; #@! TA.AperFunction,Plated,PTH,ViaDrill
T2C0.300
; #@! TA.AperFunction,Plated,PTH,ViaDrill
T3C0.800
; #@! TA.AperFunction,Plated,PTH,ComponentDrill
T4C0.800
; #@! TA.AperFunction,Plated,PTH,ComponentDrill
T5C0.950
; #@! TA.AperFunction,Plated,PTH,ComponentDrill
T6C1.000
; #@! TA.AperFunction,Plated,PTH,ComponentDrill
T7C1.200
%
G90
G05
T1
X175.75Y-113.0
X176.75Y-114.0
X178.5Y-115.75
X180.0Y-117.25
T2
X162.0Y-41.25
X162.0Y-58.25
X162.0Y-70.75
X162.0Y-91.5
X162.076Y-100.503
X162.25Y-75.75
X162.25Y-78.5
X162.25Y-81.75
X162.25Y-94.75
X164.25Y-93.25
X164.5Y-101.5
X165.0Y-103.0
X166.0Y-104.5
X166.5Y-106.5
X166.5Y-111.25
X167.25Y-66.75
X167.75Y-75.25
X168.5Y-81.75
X168.75Y-93.25
X169.0Y-95.5
X169.0Y-96.75
X169.75Y-139.0
X170.865Y-129.75
X171.25Y-74.0
X171.75Y-86.5
X172.0Y-90.75
X172.75Y-88.75
X173.189Y-98.045
X174.75Y-51.75
X174.799Y-106.208
X175.25Y-77.5
X175.75Y-55.5
X176.0Y-116.5
X176.958Y-102.933
X177.5Y-117.5
X178.75Y-82.25
X179.0Y-119.0
X180.0Y-120.0
X180.186Y-98.066
X180.421Y-138.666
X180.5Y-66.5
X181.0Y-60.0
X181.0Y-83.25
X181.0Y-118.5
X181.0Y-121.0
X181.25Y-56.5
X181.5Y-75.25
X181.5Y-85.0
X181.5Y-119.0
X183.5Y-42.0
X183.65Y-129.75
X190.5Y-45.75
X191.0Y-68.0
X192.0Y-135.0
X192.0Y-136.0
X192.25Y-74.0
X192.75Y-86.25
X198.364Y-108.822
X198.5Y-74.5
X201.008Y-133.108
X202.25Y-87.25
X202.5Y-125.5
X203.768Y-76.94
X204.301Y-114.719
X205.939Y-107.198
X207.5Y-98.5
X208.0Y-124.0
X208.5Y-138.5
X209.5Y-46.5
X209.75Y-68.5
X210.25Y-60.5
X210.25Y-87.5
X213.0Y-130.25
X213.5Y-113.5
X214.0Y-99.5
X214.5Y-110.0
X214.5Y-119.5
X215.25Y-126.0
X215.75Y-43.25
X216.0Y-51.0
X216.5Y-61.75
X216.75Y-71.25
X221.75Y-109.25
X224.25Y-83.0
X224.5Y-111.75
X225.0Y-97.0
X225.25Y-103.5
X225.75Y-117.5
X230.0Y-71.0
X230.0Y-130.0
X230.75Y-108.5
X231.0Y-110.25
X231.25Y-104.5
X231.25Y-113.5
X231.25Y-115.0
X231.5Y-101.25
X232.0Y-117.5
X234.25Y-118.5
X234.25Y-127.25
X234.5Y-120.0
X234.75Y-108.25
X234.75Y-110.25
X236.0Y-136.5
X236.25Y-67.5
X236.5Y-115.5
X237.0Y-86.75
X239.0Y-132.0
T3
X191.0Y-129.66
T4
X192.88Y-127.0
X192.88Y-131.05
X200.5Y-127.0
X200.5Y-131.05
X217.19Y-109.5
X224.81Y-109.5
T5
X165.5Y-45.5
X165.5Y-48.0
X165.5Y-50.5
X165.5Y-53.0
X165.5Y-55.5
X165.5Y-58.0
X165.5Y-65.5
X165.5Y-68.0
X165.5Y-70.5
X165.5Y-73.0
X165.5Y-75.5
X165.5Y-78.0
X217.5Y-135.55
X220.0Y-135.55
X222.5Y-135.55
X225.0Y-135.55
X236.5Y-50.0
X236.5Y-52.5
X236.5Y-55.0
X236.5Y-57.5
X236.5Y-60.0
X236.5Y-72.5
X236.5Y-75.0
X236.5Y-77.5
X236.5Y-80.0
X236.5Y-82.5
X236.5Y-106.5
X236.5Y-109.0
X236.5Y-111.5
X236.5Y-119.5
X236.5Y-122.0
X236.5Y-124.5
X236.5Y-127.0
T6
X163.92Y-134.96
X163.92Y-137.5
X164.5Y-107.8
X164.5Y-110.34
X164.5Y-112.88
X164.5Y-115.42
X164.5Y-117.96
X164.5Y-120.5
X166.46Y-134.96
X166.46Y-137.5
X169.0Y-134.96
X169.0Y-137.5
X171.54Y-134.96
X171.54Y-137.5
X174.08Y-134.96
X174.08Y-137.5
X175.0Y-83.8
X175.0Y-86.34
X175.0Y-88.88
X175.0Y-91.42
X175.0Y-93.96
X175.0Y-96.5
X176.62Y-134.96
X176.62Y-137.5
X184.7Y-100.7
X184.7Y-103.24
X184.7Y-105.78
X184.7Y-108.32
X184.7Y-110.86
X184.7Y-113.4
X184.7Y-115.94
X184.7Y-118.48
X184.7Y-121.02
X184.7Y-123.56
X184.7Y-126.1
X184.7Y-128.64
X184.7Y-131.18
X184.7Y-133.72
X184.7Y-136.26
X187.625Y-47.415
X187.625Y-49.955
X187.625Y-52.495
X187.625Y-55.035
X188.1Y-70.34
X188.1Y-72.88
X188.1Y-75.42
X188.1Y-77.96
X189.26Y-119.5
X189.26Y-122.04
X189.26Y-124.58
X189.26Y-127.12
X189.26Y-129.66
X189.26Y-132.2
X189.26Y-134.74
X204.5Y-119.5
X204.5Y-122.04
X204.5Y-124.58
X204.5Y-127.12
X204.5Y-129.66
X204.5Y-132.2
X204.5Y-134.74
X210.1Y-100.7
X210.1Y-103.24
X210.1Y-105.78
X210.1Y-108.32
X210.1Y-110.86
X210.1Y-113.4
X210.1Y-115.94
X210.1Y-118.48
X210.1Y-121.02
X210.1Y-123.56
X210.1Y-126.1
X210.1Y-128.64
X210.1Y-131.18
X210.1Y-133.72
X210.1Y-136.26
X213.025Y-44.875
X213.025Y-47.415
X213.025Y-49.955
X213.025Y-52.495
X213.025Y-55.035
X213.025Y-57.575
X213.5Y-67.8
X213.5Y-70.34
X213.5Y-72.88
X213.5Y-75.42
X213.5Y-77.96
X213.5Y-80.5
X220.46Y-114.5
X223.0Y-114.5
X228.0Y-91.5
X228.0Y-94.04
X228.0Y-96.58
X228.0Y-99.12
T7
X166.5Y-85.96
X166.5Y-88.5
X166.5Y-96.0
X166.5Y-98.54
M30
