%TF.GenerationSoftware,KiCad,Pcbnew,10.0.3-10.0.3~ubuntu24.04.1*%
%TF.CreationDate,2026-06-19T10:22:31+02:00*%
%TF.ProjectId,_V0_3-Scale_Module,5f56305f-332d-4536-9361-6c655f4d6f64,rev?*%
%TF.SameCoordinates,Original*%
%TF.FileFunction,Legend,Top*%
%TF.FilePolarity,Positive*%
%FSLAX46Y46*%
G04 Gerber Fmt 4.6, Leading zero omitted, Abs format (unit mm)*
G04 Created by KiCad (PCBNEW 10.0.3-10.0.3~ubuntu24.04.1) date 2026-06-19 10:22:31*
%MOMM*%
%LPD*%
G01*
G04 APERTURE LIST*
%ADD10C,0.100000*%
%ADD11C,0.150000*%
%ADD12C,0.120000*%
G04 APERTURE END LIST*
D10*
X182000000Y-94500000D02*
X212000000Y-94500000D01*
X212000000Y-139000000D01*
X182000000Y-139000000D01*
X182000000Y-94500000D01*
X185500000Y-41500000D02*
X215500000Y-41500000D01*
X215500000Y-61500000D01*
X185500000Y-61500000D01*
X185500000Y-41500000D01*
X185950000Y-64250000D02*
X215950000Y-64250000D01*
X215950000Y-84250000D01*
X185950000Y-84250000D01*
X185950000Y-64250000D01*
X163656265Y-41824800D02*
X163799122Y-41872419D01*
X163799122Y-41872419D02*
X164037217Y-41872419D01*
X164037217Y-41872419D02*
X164132455Y-41824800D01*
X164132455Y-41824800D02*
X164180074Y-41777180D01*
X164180074Y-41777180D02*
X164227693Y-41681942D01*
X164227693Y-41681942D02*
X164227693Y-41586704D01*
X164227693Y-41586704D02*
X164180074Y-41491466D01*
X164180074Y-41491466D02*
X164132455Y-41443847D01*
X164132455Y-41443847D02*
X164037217Y-41396228D01*
X164037217Y-41396228D02*
X163846741Y-41348609D01*
X163846741Y-41348609D02*
X163751503Y-41300990D01*
X163751503Y-41300990D02*
X163703884Y-41253371D01*
X163703884Y-41253371D02*
X163656265Y-41158133D01*
X163656265Y-41158133D02*
X163656265Y-41062895D01*
X163656265Y-41062895D02*
X163703884Y-40967657D01*
X163703884Y-40967657D02*
X163751503Y-40920038D01*
X163751503Y-40920038D02*
X163846741Y-40872419D01*
X163846741Y-40872419D02*
X164084836Y-40872419D01*
X164084836Y-40872419D02*
X164227693Y-40920038D01*
X164799122Y-41872419D02*
X164703884Y-41824800D01*
X164703884Y-41824800D02*
X164656265Y-41777180D01*
X164656265Y-41777180D02*
X164608646Y-41681942D01*
X164608646Y-41681942D02*
X164608646Y-41396228D01*
X164608646Y-41396228D02*
X164656265Y-41300990D01*
X164656265Y-41300990D02*
X164703884Y-41253371D01*
X164703884Y-41253371D02*
X164799122Y-41205752D01*
X164799122Y-41205752D02*
X164941979Y-41205752D01*
X164941979Y-41205752D02*
X165037217Y-41253371D01*
X165037217Y-41253371D02*
X165084836Y-41300990D01*
X165084836Y-41300990D02*
X165132455Y-41396228D01*
X165132455Y-41396228D02*
X165132455Y-41681942D01*
X165132455Y-41681942D02*
X165084836Y-41777180D01*
X165084836Y-41777180D02*
X165037217Y-41824800D01*
X165037217Y-41824800D02*
X164941979Y-41872419D01*
X164941979Y-41872419D02*
X164799122Y-41872419D01*
X165989598Y-41205752D02*
X165989598Y-41872419D01*
X165561027Y-41205752D02*
X165561027Y-41729561D01*
X165561027Y-41729561D02*
X165608646Y-41824800D01*
X165608646Y-41824800D02*
X165703884Y-41872419D01*
X165703884Y-41872419D02*
X165846741Y-41872419D01*
X165846741Y-41872419D02*
X165941979Y-41824800D01*
X165941979Y-41824800D02*
X165989598Y-41777180D01*
X166465789Y-41205752D02*
X166465789Y-41872419D01*
X166465789Y-41300990D02*
X166513408Y-41253371D01*
X166513408Y-41253371D02*
X166608646Y-41205752D01*
X166608646Y-41205752D02*
X166751503Y-41205752D01*
X166751503Y-41205752D02*
X166846741Y-41253371D01*
X166846741Y-41253371D02*
X166894360Y-41348609D01*
X166894360Y-41348609D02*
X166894360Y-41872419D01*
X167799122Y-41872419D02*
X167799122Y-40872419D01*
X167799122Y-41824800D02*
X167703884Y-41872419D01*
X167703884Y-41872419D02*
X167513408Y-41872419D01*
X167513408Y-41872419D02*
X167418170Y-41824800D01*
X167418170Y-41824800D02*
X167370551Y-41777180D01*
X167370551Y-41777180D02*
X167322932Y-41681942D01*
X167322932Y-41681942D02*
X167322932Y-41396228D01*
X167322932Y-41396228D02*
X167370551Y-41300990D01*
X167370551Y-41300990D02*
X167418170Y-41253371D01*
X167418170Y-41253371D02*
X167513408Y-41205752D01*
X167513408Y-41205752D02*
X167703884Y-41205752D01*
X167703884Y-41205752D02*
X167799122Y-41253371D01*
X169561027Y-41872419D02*
X168989599Y-41872419D01*
X169275313Y-41872419D02*
X169275313Y-40872419D01*
X169275313Y-40872419D02*
X169180075Y-41015276D01*
X169180075Y-41015276D02*
X169084837Y-41110514D01*
X169084837Y-41110514D02*
X168989599Y-41158133D01*
X163756265Y-61824800D02*
X163899122Y-61872419D01*
X163899122Y-61872419D02*
X164137217Y-61872419D01*
X164137217Y-61872419D02*
X164232455Y-61824800D01*
X164232455Y-61824800D02*
X164280074Y-61777180D01*
X164280074Y-61777180D02*
X164327693Y-61681942D01*
X164327693Y-61681942D02*
X164327693Y-61586704D01*
X164327693Y-61586704D02*
X164280074Y-61491466D01*
X164280074Y-61491466D02*
X164232455Y-61443847D01*
X164232455Y-61443847D02*
X164137217Y-61396228D01*
X164137217Y-61396228D02*
X163946741Y-61348609D01*
X163946741Y-61348609D02*
X163851503Y-61300990D01*
X163851503Y-61300990D02*
X163803884Y-61253371D01*
X163803884Y-61253371D02*
X163756265Y-61158133D01*
X163756265Y-61158133D02*
X163756265Y-61062895D01*
X163756265Y-61062895D02*
X163803884Y-60967657D01*
X163803884Y-60967657D02*
X163851503Y-60920038D01*
X163851503Y-60920038D02*
X163946741Y-60872419D01*
X163946741Y-60872419D02*
X164184836Y-60872419D01*
X164184836Y-60872419D02*
X164327693Y-60920038D01*
X164899122Y-61872419D02*
X164803884Y-61824800D01*
X164803884Y-61824800D02*
X164756265Y-61777180D01*
X164756265Y-61777180D02*
X164708646Y-61681942D01*
X164708646Y-61681942D02*
X164708646Y-61396228D01*
X164708646Y-61396228D02*
X164756265Y-61300990D01*
X164756265Y-61300990D02*
X164803884Y-61253371D01*
X164803884Y-61253371D02*
X164899122Y-61205752D01*
X164899122Y-61205752D02*
X165041979Y-61205752D01*
X165041979Y-61205752D02*
X165137217Y-61253371D01*
X165137217Y-61253371D02*
X165184836Y-61300990D01*
X165184836Y-61300990D02*
X165232455Y-61396228D01*
X165232455Y-61396228D02*
X165232455Y-61681942D01*
X165232455Y-61681942D02*
X165184836Y-61777180D01*
X165184836Y-61777180D02*
X165137217Y-61824800D01*
X165137217Y-61824800D02*
X165041979Y-61872419D01*
X165041979Y-61872419D02*
X164899122Y-61872419D01*
X166089598Y-61205752D02*
X166089598Y-61872419D01*
X165661027Y-61205752D02*
X165661027Y-61729561D01*
X165661027Y-61729561D02*
X165708646Y-61824800D01*
X165708646Y-61824800D02*
X165803884Y-61872419D01*
X165803884Y-61872419D02*
X165946741Y-61872419D01*
X165946741Y-61872419D02*
X166041979Y-61824800D01*
X166041979Y-61824800D02*
X166089598Y-61777180D01*
X166565789Y-61205752D02*
X166565789Y-61872419D01*
X166565789Y-61300990D02*
X166613408Y-61253371D01*
X166613408Y-61253371D02*
X166708646Y-61205752D01*
X166708646Y-61205752D02*
X166851503Y-61205752D01*
X166851503Y-61205752D02*
X166946741Y-61253371D01*
X166946741Y-61253371D02*
X166994360Y-61348609D01*
X166994360Y-61348609D02*
X166994360Y-61872419D01*
X167899122Y-61872419D02*
X167899122Y-60872419D01*
X167899122Y-61824800D02*
X167803884Y-61872419D01*
X167803884Y-61872419D02*
X167613408Y-61872419D01*
X167613408Y-61872419D02*
X167518170Y-61824800D01*
X167518170Y-61824800D02*
X167470551Y-61777180D01*
X167470551Y-61777180D02*
X167422932Y-61681942D01*
X167422932Y-61681942D02*
X167422932Y-61396228D01*
X167422932Y-61396228D02*
X167470551Y-61300990D01*
X167470551Y-61300990D02*
X167518170Y-61253371D01*
X167518170Y-61253371D02*
X167613408Y-61205752D01*
X167613408Y-61205752D02*
X167803884Y-61205752D01*
X167803884Y-61205752D02*
X167899122Y-61253371D01*
X169089599Y-60967657D02*
X169137218Y-60920038D01*
X169137218Y-60920038D02*
X169232456Y-60872419D01*
X169232456Y-60872419D02*
X169470551Y-60872419D01*
X169470551Y-60872419D02*
X169565789Y-60920038D01*
X169565789Y-60920038D02*
X169613408Y-60967657D01*
X169613408Y-60967657D02*
X169661027Y-61062895D01*
X169661027Y-61062895D02*
X169661027Y-61158133D01*
X169661027Y-61158133D02*
X169613408Y-61300990D01*
X169613408Y-61300990D02*
X169041980Y-61872419D01*
X169041980Y-61872419D02*
X169661027Y-61872419D01*
X164208646Y-90872419D02*
X164827693Y-90872419D01*
X164827693Y-90872419D02*
X164494360Y-91253371D01*
X164494360Y-91253371D02*
X164637217Y-91253371D01*
X164637217Y-91253371D02*
X164732455Y-91300990D01*
X164732455Y-91300990D02*
X164780074Y-91348609D01*
X164780074Y-91348609D02*
X164827693Y-91443847D01*
X164827693Y-91443847D02*
X164827693Y-91681942D01*
X164827693Y-91681942D02*
X164780074Y-91777180D01*
X164780074Y-91777180D02*
X164732455Y-91824800D01*
X164732455Y-91824800D02*
X164637217Y-91872419D01*
X164637217Y-91872419D02*
X164351503Y-91872419D01*
X164351503Y-91872419D02*
X164256265Y-91824800D01*
X164256265Y-91824800D02*
X164208646Y-91777180D01*
X165256265Y-91777180D02*
X165303884Y-91824800D01*
X165303884Y-91824800D02*
X165256265Y-91872419D01*
X165256265Y-91872419D02*
X165208646Y-91824800D01*
X165208646Y-91824800D02*
X165256265Y-91777180D01*
X165256265Y-91777180D02*
X165256265Y-91872419D01*
X165637217Y-90872419D02*
X166256264Y-90872419D01*
X166256264Y-90872419D02*
X165922931Y-91253371D01*
X165922931Y-91253371D02*
X166065788Y-91253371D01*
X166065788Y-91253371D02*
X166161026Y-91300990D01*
X166161026Y-91300990D02*
X166208645Y-91348609D01*
X166208645Y-91348609D02*
X166256264Y-91443847D01*
X166256264Y-91443847D02*
X166256264Y-91681942D01*
X166256264Y-91681942D02*
X166208645Y-91777180D01*
X166208645Y-91777180D02*
X166161026Y-91824800D01*
X166161026Y-91824800D02*
X166065788Y-91872419D01*
X166065788Y-91872419D02*
X165780074Y-91872419D01*
X165780074Y-91872419D02*
X165684836Y-91824800D01*
X165684836Y-91824800D02*
X165637217Y-91777180D01*
X166541979Y-90872419D02*
X166875312Y-91872419D01*
X166875312Y-91872419D02*
X167208645Y-90872419D01*
X167303884Y-91967657D02*
X168065788Y-91967657D01*
X168303884Y-91872419D02*
X168303884Y-90872419D01*
X168780074Y-91872419D02*
X168780074Y-90872419D01*
X168780074Y-90872419D02*
X169351502Y-91872419D01*
X169351502Y-91872419D02*
X169351502Y-90872419D01*
X165827693Y-82920038D02*
X165732455Y-82872419D01*
X165732455Y-82872419D02*
X165589598Y-82872419D01*
X165589598Y-82872419D02*
X165446741Y-82920038D01*
X165446741Y-82920038D02*
X165351503Y-83015276D01*
X165351503Y-83015276D02*
X165303884Y-83110514D01*
X165303884Y-83110514D02*
X165256265Y-83300990D01*
X165256265Y-83300990D02*
X165256265Y-83443847D01*
X165256265Y-83443847D02*
X165303884Y-83634323D01*
X165303884Y-83634323D02*
X165351503Y-83729561D01*
X165351503Y-83729561D02*
X165446741Y-83824800D01*
X165446741Y-83824800D02*
X165589598Y-83872419D01*
X165589598Y-83872419D02*
X165684836Y-83872419D01*
X165684836Y-83872419D02*
X165827693Y-83824800D01*
X165827693Y-83824800D02*
X165875312Y-83777180D01*
X165875312Y-83777180D02*
X165875312Y-83443847D01*
X165875312Y-83443847D02*
X165684836Y-83443847D01*
X166303884Y-83872419D02*
X166303884Y-82872419D01*
X166303884Y-82872419D02*
X166875312Y-83872419D01*
X166875312Y-83872419D02*
X166875312Y-82872419D01*
X167351503Y-83872419D02*
X167351503Y-82872419D01*
X167351503Y-82872419D02*
X167589598Y-82872419D01*
X167589598Y-82872419D02*
X167732455Y-82920038D01*
X167732455Y-82920038D02*
X167827693Y-83015276D01*
X167827693Y-83015276D02*
X167875312Y-83110514D01*
X167875312Y-83110514D02*
X167922931Y-83300990D01*
X167922931Y-83300990D02*
X167922931Y-83443847D01*
X167922931Y-83443847D02*
X167875312Y-83634323D01*
X167875312Y-83634323D02*
X167827693Y-83729561D01*
X167827693Y-83729561D02*
X167732455Y-83824800D01*
X167732455Y-83824800D02*
X167589598Y-83872419D01*
X167589598Y-83872419D02*
X167351503Y-83872419D01*
X165256265Y-93324800D02*
X165399122Y-93372419D01*
X165399122Y-93372419D02*
X165637217Y-93372419D01*
X165637217Y-93372419D02*
X165732455Y-93324800D01*
X165732455Y-93324800D02*
X165780074Y-93277180D01*
X165780074Y-93277180D02*
X165827693Y-93181942D01*
X165827693Y-93181942D02*
X165827693Y-93086704D01*
X165827693Y-93086704D02*
X165780074Y-92991466D01*
X165780074Y-92991466D02*
X165732455Y-92943847D01*
X165732455Y-92943847D02*
X165637217Y-92896228D01*
X165637217Y-92896228D02*
X165446741Y-92848609D01*
X165446741Y-92848609D02*
X165351503Y-92800990D01*
X165351503Y-92800990D02*
X165303884Y-92753371D01*
X165303884Y-92753371D02*
X165256265Y-92658133D01*
X165256265Y-92658133D02*
X165256265Y-92562895D01*
X165256265Y-92562895D02*
X165303884Y-92467657D01*
X165303884Y-92467657D02*
X165351503Y-92420038D01*
X165351503Y-92420038D02*
X165446741Y-92372419D01*
X165446741Y-92372419D02*
X165684836Y-92372419D01*
X165684836Y-92372419D02*
X165827693Y-92420038D01*
X166256265Y-93372419D02*
X166256265Y-92372419D01*
X166256265Y-92372419D02*
X166494360Y-92372419D01*
X166494360Y-92372419D02*
X166637217Y-92420038D01*
X166637217Y-92420038D02*
X166732455Y-92515276D01*
X166732455Y-92515276D02*
X166780074Y-92610514D01*
X166780074Y-92610514D02*
X166827693Y-92800990D01*
X166827693Y-92800990D02*
X166827693Y-92943847D01*
X166827693Y-92943847D02*
X166780074Y-93134323D01*
X166780074Y-93134323D02*
X166732455Y-93229561D01*
X166732455Y-93229561D02*
X166637217Y-93324800D01*
X166637217Y-93324800D02*
X166494360Y-93372419D01*
X166494360Y-93372419D02*
X166256265Y-93372419D01*
X167208646Y-93086704D02*
X167684836Y-93086704D01*
X167113408Y-93372419D02*
X167446741Y-92372419D01*
X167446741Y-92372419D02*
X167780074Y-93372419D01*
X165756265Y-102324800D02*
X165899122Y-102372419D01*
X165899122Y-102372419D02*
X166137217Y-102372419D01*
X166137217Y-102372419D02*
X166232455Y-102324800D01*
X166232455Y-102324800D02*
X166280074Y-102277180D01*
X166280074Y-102277180D02*
X166327693Y-102181942D01*
X166327693Y-102181942D02*
X166327693Y-102086704D01*
X166327693Y-102086704D02*
X166280074Y-101991466D01*
X166280074Y-101991466D02*
X166232455Y-101943847D01*
X166232455Y-101943847D02*
X166137217Y-101896228D01*
X166137217Y-101896228D02*
X165946741Y-101848609D01*
X165946741Y-101848609D02*
X165851503Y-101800990D01*
X165851503Y-101800990D02*
X165803884Y-101753371D01*
X165803884Y-101753371D02*
X165756265Y-101658133D01*
X165756265Y-101658133D02*
X165756265Y-101562895D01*
X165756265Y-101562895D02*
X165803884Y-101467657D01*
X165803884Y-101467657D02*
X165851503Y-101420038D01*
X165851503Y-101420038D02*
X165946741Y-101372419D01*
X165946741Y-101372419D02*
X166184836Y-101372419D01*
X166184836Y-101372419D02*
X166327693Y-101420038D01*
X167327693Y-102277180D02*
X167280074Y-102324800D01*
X167280074Y-102324800D02*
X167137217Y-102372419D01*
X167137217Y-102372419D02*
X167041979Y-102372419D01*
X167041979Y-102372419D02*
X166899122Y-102324800D01*
X166899122Y-102324800D02*
X166803884Y-102229561D01*
X166803884Y-102229561D02*
X166756265Y-102134323D01*
X166756265Y-102134323D02*
X166708646Y-101943847D01*
X166708646Y-101943847D02*
X166708646Y-101800990D01*
X166708646Y-101800990D02*
X166756265Y-101610514D01*
X166756265Y-101610514D02*
X166803884Y-101515276D01*
X166803884Y-101515276D02*
X166899122Y-101420038D01*
X166899122Y-101420038D02*
X167041979Y-101372419D01*
X167041979Y-101372419D02*
X167137217Y-101372419D01*
X167137217Y-101372419D02*
X167280074Y-101420038D01*
X167280074Y-101420038D02*
X167327693Y-101467657D01*
X168232455Y-102372419D02*
X167756265Y-102372419D01*
X167756265Y-102372419D02*
X167756265Y-101372419D01*
X166303884Y-131848609D02*
X166637217Y-131848609D01*
X166780074Y-132372419D02*
X166303884Y-132372419D01*
X166303884Y-132372419D02*
X166303884Y-131372419D01*
X166303884Y-131372419D02*
X166780074Y-131372419D01*
X167113408Y-132372419D02*
X167637217Y-131705752D01*
X167113408Y-131705752D02*
X167637217Y-132372419D01*
X168018170Y-131705752D02*
X168018170Y-132705752D01*
X168018170Y-131753371D02*
X168113408Y-131705752D01*
X168113408Y-131705752D02*
X168303884Y-131705752D01*
X168303884Y-131705752D02*
X168399122Y-131753371D01*
X168399122Y-131753371D02*
X168446741Y-131800990D01*
X168446741Y-131800990D02*
X168494360Y-131896228D01*
X168494360Y-131896228D02*
X168494360Y-132181942D01*
X168494360Y-132181942D02*
X168446741Y-132277180D01*
X168446741Y-132277180D02*
X168399122Y-132324800D01*
X168399122Y-132324800D02*
X168303884Y-132372419D01*
X168303884Y-132372419D02*
X168113408Y-132372419D01*
X168113408Y-132372419D02*
X168018170Y-132324800D01*
X169351503Y-132372419D02*
X169351503Y-131848609D01*
X169351503Y-131848609D02*
X169303884Y-131753371D01*
X169303884Y-131753371D02*
X169208646Y-131705752D01*
X169208646Y-131705752D02*
X169018170Y-131705752D01*
X169018170Y-131705752D02*
X168922932Y-131753371D01*
X169351503Y-132324800D02*
X169256265Y-132372419D01*
X169256265Y-132372419D02*
X169018170Y-132372419D01*
X169018170Y-132372419D02*
X168922932Y-132324800D01*
X168922932Y-132324800D02*
X168875313Y-132229561D01*
X168875313Y-132229561D02*
X168875313Y-132134323D01*
X168875313Y-132134323D02*
X168922932Y-132039085D01*
X168922932Y-132039085D02*
X169018170Y-131991466D01*
X169018170Y-131991466D02*
X169256265Y-131991466D01*
X169256265Y-131991466D02*
X169351503Y-131943847D01*
X169827694Y-131705752D02*
X169827694Y-132372419D01*
X169827694Y-131800990D02*
X169875313Y-131753371D01*
X169875313Y-131753371D02*
X169970551Y-131705752D01*
X169970551Y-131705752D02*
X170113408Y-131705752D01*
X170113408Y-131705752D02*
X170208646Y-131753371D01*
X170208646Y-131753371D02*
X170256265Y-131848609D01*
X170256265Y-131848609D02*
X170256265Y-132372419D01*
X170684837Y-132324800D02*
X170780075Y-132372419D01*
X170780075Y-132372419D02*
X170970551Y-132372419D01*
X170970551Y-132372419D02*
X171065789Y-132324800D01*
X171065789Y-132324800D02*
X171113408Y-132229561D01*
X171113408Y-132229561D02*
X171113408Y-132181942D01*
X171113408Y-132181942D02*
X171065789Y-132086704D01*
X171065789Y-132086704D02*
X170970551Y-132039085D01*
X170970551Y-132039085D02*
X170827694Y-132039085D01*
X170827694Y-132039085D02*
X170732456Y-131991466D01*
X170732456Y-131991466D02*
X170684837Y-131896228D01*
X170684837Y-131896228D02*
X170684837Y-131848609D01*
X170684837Y-131848609D02*
X170732456Y-131753371D01*
X170732456Y-131753371D02*
X170827694Y-131705752D01*
X170827694Y-131705752D02*
X170970551Y-131705752D01*
X170970551Y-131705752D02*
X171065789Y-131753371D01*
X171541980Y-132372419D02*
X171541980Y-131705752D01*
X171541980Y-131372419D02*
X171494361Y-131420038D01*
X171494361Y-131420038D02*
X171541980Y-131467657D01*
X171541980Y-131467657D02*
X171589599Y-131420038D01*
X171589599Y-131420038D02*
X171541980Y-131372419D01*
X171541980Y-131372419D02*
X171541980Y-131467657D01*
X172161027Y-132372419D02*
X172065789Y-132324800D01*
X172065789Y-132324800D02*
X172018170Y-132277180D01*
X172018170Y-132277180D02*
X171970551Y-132181942D01*
X171970551Y-132181942D02*
X171970551Y-131896228D01*
X171970551Y-131896228D02*
X172018170Y-131800990D01*
X172018170Y-131800990D02*
X172065789Y-131753371D01*
X172065789Y-131753371D02*
X172161027Y-131705752D01*
X172161027Y-131705752D02*
X172303884Y-131705752D01*
X172303884Y-131705752D02*
X172399122Y-131753371D01*
X172399122Y-131753371D02*
X172446741Y-131800990D01*
X172446741Y-131800990D02*
X172494360Y-131896228D01*
X172494360Y-131896228D02*
X172494360Y-132181942D01*
X172494360Y-132181942D02*
X172446741Y-132277180D01*
X172446741Y-132277180D02*
X172399122Y-132324800D01*
X172399122Y-132324800D02*
X172303884Y-132372419D01*
X172303884Y-132372419D02*
X172161027Y-132372419D01*
X172922932Y-131705752D02*
X172922932Y-132372419D01*
X172922932Y-131800990D02*
X172970551Y-131753371D01*
X172970551Y-131753371D02*
X173065789Y-131705752D01*
X173065789Y-131705752D02*
X173208646Y-131705752D01*
X173208646Y-131705752D02*
X173303884Y-131753371D01*
X173303884Y-131753371D02*
X173351503Y-131848609D01*
X173351503Y-131848609D02*
X173351503Y-132372419D01*
X169708646Y-44872419D02*
X170327693Y-44872419D01*
X170327693Y-44872419D02*
X169994360Y-45253371D01*
X169994360Y-45253371D02*
X170137217Y-45253371D01*
X170137217Y-45253371D02*
X170232455Y-45300990D01*
X170232455Y-45300990D02*
X170280074Y-45348609D01*
X170280074Y-45348609D02*
X170327693Y-45443847D01*
X170327693Y-45443847D02*
X170327693Y-45681942D01*
X170327693Y-45681942D02*
X170280074Y-45777180D01*
X170280074Y-45777180D02*
X170232455Y-45824800D01*
X170232455Y-45824800D02*
X170137217Y-45872419D01*
X170137217Y-45872419D02*
X169851503Y-45872419D01*
X169851503Y-45872419D02*
X169756265Y-45824800D01*
X169756265Y-45824800D02*
X169708646Y-45777180D01*
X170756265Y-45777180D02*
X170803884Y-45824800D01*
X170803884Y-45824800D02*
X170756265Y-45872419D01*
X170756265Y-45872419D02*
X170708646Y-45824800D01*
X170708646Y-45824800D02*
X170756265Y-45777180D01*
X170756265Y-45777180D02*
X170756265Y-45872419D01*
X171137217Y-44872419D02*
X171756264Y-44872419D01*
X171756264Y-44872419D02*
X171422931Y-45253371D01*
X171422931Y-45253371D02*
X171565788Y-45253371D01*
X171565788Y-45253371D02*
X171661026Y-45300990D01*
X171661026Y-45300990D02*
X171708645Y-45348609D01*
X171708645Y-45348609D02*
X171756264Y-45443847D01*
X171756264Y-45443847D02*
X171756264Y-45681942D01*
X171756264Y-45681942D02*
X171708645Y-45777180D01*
X171708645Y-45777180D02*
X171661026Y-45824800D01*
X171661026Y-45824800D02*
X171565788Y-45872419D01*
X171565788Y-45872419D02*
X171280074Y-45872419D01*
X171280074Y-45872419D02*
X171184836Y-45824800D01*
X171184836Y-45824800D02*
X171137217Y-45777180D01*
X172041979Y-44872419D02*
X172375312Y-45872419D01*
X172375312Y-45872419D02*
X172708645Y-44872419D01*
X170280074Y-48372419D02*
X169803884Y-48372419D01*
X169803884Y-48372419D02*
X169803884Y-47372419D01*
X171327693Y-47324800D02*
X170470551Y-48610514D01*
X172232455Y-48372419D02*
X171899122Y-47896228D01*
X171661027Y-48372419D02*
X171661027Y-47372419D01*
X171661027Y-47372419D02*
X172041979Y-47372419D01*
X172041979Y-47372419D02*
X172137217Y-47420038D01*
X172137217Y-47420038D02*
X172184836Y-47467657D01*
X172184836Y-47467657D02*
X172232455Y-47562895D01*
X172232455Y-47562895D02*
X172232455Y-47705752D01*
X172232455Y-47705752D02*
X172184836Y-47800990D01*
X172184836Y-47800990D02*
X172137217Y-47848609D01*
X172137217Y-47848609D02*
X172041979Y-47896228D01*
X172041979Y-47896228D02*
X171661027Y-47896228D01*
X170327693Y-50420038D02*
X170232455Y-50372419D01*
X170232455Y-50372419D02*
X170089598Y-50372419D01*
X170089598Y-50372419D02*
X169946741Y-50420038D01*
X169946741Y-50420038D02*
X169851503Y-50515276D01*
X169851503Y-50515276D02*
X169803884Y-50610514D01*
X169803884Y-50610514D02*
X169756265Y-50800990D01*
X169756265Y-50800990D02*
X169756265Y-50943847D01*
X169756265Y-50943847D02*
X169803884Y-51134323D01*
X169803884Y-51134323D02*
X169851503Y-51229561D01*
X169851503Y-51229561D02*
X169946741Y-51324800D01*
X169946741Y-51324800D02*
X170089598Y-51372419D01*
X170089598Y-51372419D02*
X170184836Y-51372419D01*
X170184836Y-51372419D02*
X170327693Y-51324800D01*
X170327693Y-51324800D02*
X170375312Y-51277180D01*
X170375312Y-51277180D02*
X170375312Y-50943847D01*
X170375312Y-50943847D02*
X170184836Y-50943847D01*
X170803884Y-51372419D02*
X170803884Y-50372419D01*
X170803884Y-50372419D02*
X171375312Y-51372419D01*
X171375312Y-51372419D02*
X171375312Y-50372419D01*
X171851503Y-51372419D02*
X171851503Y-50372419D01*
X171851503Y-50372419D02*
X172089598Y-50372419D01*
X172089598Y-50372419D02*
X172232455Y-50420038D01*
X172232455Y-50420038D02*
X172327693Y-50515276D01*
X172327693Y-50515276D02*
X172375312Y-50610514D01*
X172375312Y-50610514D02*
X172422931Y-50800990D01*
X172422931Y-50800990D02*
X172422931Y-50943847D01*
X172422931Y-50943847D02*
X172375312Y-51134323D01*
X172375312Y-51134323D02*
X172327693Y-51229561D01*
X172327693Y-51229561D02*
X172232455Y-51324800D01*
X172232455Y-51324800D02*
X172089598Y-51372419D01*
X172089598Y-51372419D02*
X171851503Y-51372419D01*
X170137217Y-53628721D02*
X170280074Y-53676340D01*
X170280074Y-53676340D02*
X170327693Y-53723959D01*
X170327693Y-53723959D02*
X170375312Y-53819197D01*
X170375312Y-53819197D02*
X170375312Y-53962054D01*
X170375312Y-53962054D02*
X170327693Y-54057292D01*
X170327693Y-54057292D02*
X170280074Y-54104912D01*
X170280074Y-54104912D02*
X170184836Y-54152531D01*
X170184836Y-54152531D02*
X169803884Y-54152531D01*
X169803884Y-54152531D02*
X169803884Y-53152531D01*
X169803884Y-53152531D02*
X170137217Y-53152531D01*
X170137217Y-53152531D02*
X170232455Y-53200150D01*
X170232455Y-53200150D02*
X170280074Y-53247769D01*
X170280074Y-53247769D02*
X170327693Y-53343007D01*
X170327693Y-53343007D02*
X170327693Y-53438245D01*
X170327693Y-53438245D02*
X170280074Y-53533483D01*
X170280074Y-53533483D02*
X170232455Y-53581102D01*
X170232455Y-53581102D02*
X170137217Y-53628721D01*
X170137217Y-53628721D02*
X169803884Y-53628721D01*
X171375312Y-54057292D02*
X171327693Y-54104912D01*
X171327693Y-54104912D02*
X171184836Y-54152531D01*
X171184836Y-54152531D02*
X171089598Y-54152531D01*
X171089598Y-54152531D02*
X170946741Y-54104912D01*
X170946741Y-54104912D02*
X170851503Y-54009673D01*
X170851503Y-54009673D02*
X170803884Y-53914435D01*
X170803884Y-53914435D02*
X170756265Y-53723959D01*
X170756265Y-53723959D02*
X170756265Y-53581102D01*
X170756265Y-53581102D02*
X170803884Y-53390626D01*
X170803884Y-53390626D02*
X170851503Y-53295388D01*
X170851503Y-53295388D02*
X170946741Y-53200150D01*
X170946741Y-53200150D02*
X171089598Y-53152531D01*
X171089598Y-53152531D02*
X171184836Y-53152531D01*
X171184836Y-53152531D02*
X171327693Y-53200150D01*
X171327693Y-53200150D02*
X171375312Y-53247769D01*
X172280074Y-54152531D02*
X171803884Y-54152531D01*
X171803884Y-54152531D02*
X171803884Y-53152531D01*
X172613408Y-54152531D02*
X172613408Y-53152531D01*
X173184836Y-54152531D02*
X172756265Y-53581102D01*
X173184836Y-53152531D02*
X172613408Y-53723959D01*
X169708646Y-54762475D02*
X169946741Y-55762475D01*
X169946741Y-55762475D02*
X170137217Y-55048189D01*
X170137217Y-55048189D02*
X170327693Y-55762475D01*
X170327693Y-55762475D02*
X170565789Y-54762475D01*
X170899122Y-55714856D02*
X171041979Y-55762475D01*
X171041979Y-55762475D02*
X171280074Y-55762475D01*
X171280074Y-55762475D02*
X171375312Y-55714856D01*
X171375312Y-55714856D02*
X171422931Y-55667236D01*
X171422931Y-55667236D02*
X171470550Y-55571998D01*
X171470550Y-55571998D02*
X171470550Y-55476760D01*
X171470550Y-55476760D02*
X171422931Y-55381522D01*
X171422931Y-55381522D02*
X171375312Y-55333903D01*
X171375312Y-55333903D02*
X171280074Y-55286284D01*
X171280074Y-55286284D02*
X171089598Y-55238665D01*
X171089598Y-55238665D02*
X170994360Y-55191046D01*
X170994360Y-55191046D02*
X170946741Y-55143427D01*
X170946741Y-55143427D02*
X170899122Y-55048189D01*
X170899122Y-55048189D02*
X170899122Y-54952951D01*
X170899122Y-54952951D02*
X170946741Y-54857713D01*
X170946741Y-54857713D02*
X170994360Y-54810094D01*
X170994360Y-54810094D02*
X171089598Y-54762475D01*
X171089598Y-54762475D02*
X171327693Y-54762475D01*
X171327693Y-54762475D02*
X171470550Y-54810094D01*
X169756265Y-57324800D02*
X169899122Y-57372419D01*
X169899122Y-57372419D02*
X170137217Y-57372419D01*
X170137217Y-57372419D02*
X170232455Y-57324800D01*
X170232455Y-57324800D02*
X170280074Y-57277180D01*
X170280074Y-57277180D02*
X170327693Y-57181942D01*
X170327693Y-57181942D02*
X170327693Y-57086704D01*
X170327693Y-57086704D02*
X170280074Y-56991466D01*
X170280074Y-56991466D02*
X170232455Y-56943847D01*
X170232455Y-56943847D02*
X170137217Y-56896228D01*
X170137217Y-56896228D02*
X169946741Y-56848609D01*
X169946741Y-56848609D02*
X169851503Y-56800990D01*
X169851503Y-56800990D02*
X169803884Y-56753371D01*
X169803884Y-56753371D02*
X169756265Y-56658133D01*
X169756265Y-56658133D02*
X169756265Y-56562895D01*
X169756265Y-56562895D02*
X169803884Y-56467657D01*
X169803884Y-56467657D02*
X169851503Y-56420038D01*
X169851503Y-56420038D02*
X169946741Y-56372419D01*
X169946741Y-56372419D02*
X170184836Y-56372419D01*
X170184836Y-56372419D02*
X170327693Y-56420038D01*
X170756265Y-57372419D02*
X170756265Y-56372419D01*
X170756265Y-56372419D02*
X170994360Y-56372419D01*
X170994360Y-56372419D02*
X171137217Y-56420038D01*
X171137217Y-56420038D02*
X171232455Y-56515276D01*
X171232455Y-56515276D02*
X171280074Y-56610514D01*
X171280074Y-56610514D02*
X171327693Y-56800990D01*
X171327693Y-56800990D02*
X171327693Y-56943847D01*
X171327693Y-56943847D02*
X171280074Y-57134323D01*
X171280074Y-57134323D02*
X171232455Y-57229561D01*
X171232455Y-57229561D02*
X171137217Y-57324800D01*
X171137217Y-57324800D02*
X170994360Y-57372419D01*
X170994360Y-57372419D02*
X170756265Y-57372419D01*
X169708646Y-64372419D02*
X170327693Y-64372419D01*
X170327693Y-64372419D02*
X169994360Y-64753371D01*
X169994360Y-64753371D02*
X170137217Y-64753371D01*
X170137217Y-64753371D02*
X170232455Y-64800990D01*
X170232455Y-64800990D02*
X170280074Y-64848609D01*
X170280074Y-64848609D02*
X170327693Y-64943847D01*
X170327693Y-64943847D02*
X170327693Y-65181942D01*
X170327693Y-65181942D02*
X170280074Y-65277180D01*
X170280074Y-65277180D02*
X170232455Y-65324800D01*
X170232455Y-65324800D02*
X170137217Y-65372419D01*
X170137217Y-65372419D02*
X169851503Y-65372419D01*
X169851503Y-65372419D02*
X169756265Y-65324800D01*
X169756265Y-65324800D02*
X169708646Y-65277180D01*
X170756265Y-65277180D02*
X170803884Y-65324800D01*
X170803884Y-65324800D02*
X170756265Y-65372419D01*
X170756265Y-65372419D02*
X170708646Y-65324800D01*
X170708646Y-65324800D02*
X170756265Y-65277180D01*
X170756265Y-65277180D02*
X170756265Y-65372419D01*
X171137217Y-64372419D02*
X171756264Y-64372419D01*
X171756264Y-64372419D02*
X171422931Y-64753371D01*
X171422931Y-64753371D02*
X171565788Y-64753371D01*
X171565788Y-64753371D02*
X171661026Y-64800990D01*
X171661026Y-64800990D02*
X171708645Y-64848609D01*
X171708645Y-64848609D02*
X171756264Y-64943847D01*
X171756264Y-64943847D02*
X171756264Y-65181942D01*
X171756264Y-65181942D02*
X171708645Y-65277180D01*
X171708645Y-65277180D02*
X171661026Y-65324800D01*
X171661026Y-65324800D02*
X171565788Y-65372419D01*
X171565788Y-65372419D02*
X171280074Y-65372419D01*
X171280074Y-65372419D02*
X171184836Y-65324800D01*
X171184836Y-65324800D02*
X171137217Y-65277180D01*
X172041979Y-64372419D02*
X172375312Y-65372419D01*
X172375312Y-65372419D02*
X172708645Y-64372419D01*
X170280074Y-67872419D02*
X169803884Y-67872419D01*
X169803884Y-67872419D02*
X169803884Y-66872419D01*
X171327693Y-66824800D02*
X170470551Y-68110514D01*
X172232455Y-67872419D02*
X171899122Y-67396228D01*
X171661027Y-67872419D02*
X171661027Y-66872419D01*
X171661027Y-66872419D02*
X172041979Y-66872419D01*
X172041979Y-66872419D02*
X172137217Y-66920038D01*
X172137217Y-66920038D02*
X172184836Y-66967657D01*
X172184836Y-66967657D02*
X172232455Y-67062895D01*
X172232455Y-67062895D02*
X172232455Y-67205752D01*
X172232455Y-67205752D02*
X172184836Y-67300990D01*
X172184836Y-67300990D02*
X172137217Y-67348609D01*
X172137217Y-67348609D02*
X172041979Y-67396228D01*
X172041979Y-67396228D02*
X171661027Y-67396228D01*
X170327693Y-69420038D02*
X170232455Y-69372419D01*
X170232455Y-69372419D02*
X170089598Y-69372419D01*
X170089598Y-69372419D02*
X169946741Y-69420038D01*
X169946741Y-69420038D02*
X169851503Y-69515276D01*
X169851503Y-69515276D02*
X169803884Y-69610514D01*
X169803884Y-69610514D02*
X169756265Y-69800990D01*
X169756265Y-69800990D02*
X169756265Y-69943847D01*
X169756265Y-69943847D02*
X169803884Y-70134323D01*
X169803884Y-70134323D02*
X169851503Y-70229561D01*
X169851503Y-70229561D02*
X169946741Y-70324800D01*
X169946741Y-70324800D02*
X170089598Y-70372419D01*
X170089598Y-70372419D02*
X170184836Y-70372419D01*
X170184836Y-70372419D02*
X170327693Y-70324800D01*
X170327693Y-70324800D02*
X170375312Y-70277180D01*
X170375312Y-70277180D02*
X170375312Y-69943847D01*
X170375312Y-69943847D02*
X170184836Y-69943847D01*
X170803884Y-70372419D02*
X170803884Y-69372419D01*
X170803884Y-69372419D02*
X171375312Y-70372419D01*
X171375312Y-70372419D02*
X171375312Y-69372419D01*
X171851503Y-70372419D02*
X171851503Y-69372419D01*
X171851503Y-69372419D02*
X172089598Y-69372419D01*
X172089598Y-69372419D02*
X172232455Y-69420038D01*
X172232455Y-69420038D02*
X172327693Y-69515276D01*
X172327693Y-69515276D02*
X172375312Y-69610514D01*
X172375312Y-69610514D02*
X172422931Y-69800990D01*
X172422931Y-69800990D02*
X172422931Y-69943847D01*
X172422931Y-69943847D02*
X172375312Y-70134323D01*
X172375312Y-70134323D02*
X172327693Y-70229561D01*
X172327693Y-70229561D02*
X172232455Y-70324800D01*
X172232455Y-70324800D02*
X172089598Y-70372419D01*
X172089598Y-70372419D02*
X171851503Y-70372419D01*
X170137217Y-74128721D02*
X170280074Y-74176340D01*
X170280074Y-74176340D02*
X170327693Y-74223959D01*
X170327693Y-74223959D02*
X170375312Y-74319197D01*
X170375312Y-74319197D02*
X170375312Y-74462054D01*
X170375312Y-74462054D02*
X170327693Y-74557292D01*
X170327693Y-74557292D02*
X170280074Y-74604912D01*
X170280074Y-74604912D02*
X170184836Y-74652531D01*
X170184836Y-74652531D02*
X169803884Y-74652531D01*
X169803884Y-74652531D02*
X169803884Y-73652531D01*
X169803884Y-73652531D02*
X170137217Y-73652531D01*
X170137217Y-73652531D02*
X170232455Y-73700150D01*
X170232455Y-73700150D02*
X170280074Y-73747769D01*
X170280074Y-73747769D02*
X170327693Y-73843007D01*
X170327693Y-73843007D02*
X170327693Y-73938245D01*
X170327693Y-73938245D02*
X170280074Y-74033483D01*
X170280074Y-74033483D02*
X170232455Y-74081102D01*
X170232455Y-74081102D02*
X170137217Y-74128721D01*
X170137217Y-74128721D02*
X169803884Y-74128721D01*
X171375312Y-74557292D02*
X171327693Y-74604912D01*
X171327693Y-74604912D02*
X171184836Y-74652531D01*
X171184836Y-74652531D02*
X171089598Y-74652531D01*
X171089598Y-74652531D02*
X170946741Y-74604912D01*
X170946741Y-74604912D02*
X170851503Y-74509673D01*
X170851503Y-74509673D02*
X170803884Y-74414435D01*
X170803884Y-74414435D02*
X170756265Y-74223959D01*
X170756265Y-74223959D02*
X170756265Y-74081102D01*
X170756265Y-74081102D02*
X170803884Y-73890626D01*
X170803884Y-73890626D02*
X170851503Y-73795388D01*
X170851503Y-73795388D02*
X170946741Y-73700150D01*
X170946741Y-73700150D02*
X171089598Y-73652531D01*
X171089598Y-73652531D02*
X171184836Y-73652531D01*
X171184836Y-73652531D02*
X171327693Y-73700150D01*
X171327693Y-73700150D02*
X171375312Y-73747769D01*
X172280074Y-74652531D02*
X171803884Y-74652531D01*
X171803884Y-74652531D02*
X171803884Y-73652531D01*
X172613408Y-74652531D02*
X172613408Y-73652531D01*
X173184836Y-74652531D02*
X172756265Y-74081102D01*
X173184836Y-73652531D02*
X172613408Y-74223959D01*
X169708646Y-75262475D02*
X169946741Y-76262475D01*
X169946741Y-76262475D02*
X170137217Y-75548189D01*
X170137217Y-75548189D02*
X170327693Y-76262475D01*
X170327693Y-76262475D02*
X170565789Y-75262475D01*
X170899122Y-76214856D02*
X171041979Y-76262475D01*
X171041979Y-76262475D02*
X171280074Y-76262475D01*
X171280074Y-76262475D02*
X171375312Y-76214856D01*
X171375312Y-76214856D02*
X171422931Y-76167236D01*
X171422931Y-76167236D02*
X171470550Y-76071998D01*
X171470550Y-76071998D02*
X171470550Y-75976760D01*
X171470550Y-75976760D02*
X171422931Y-75881522D01*
X171422931Y-75881522D02*
X171375312Y-75833903D01*
X171375312Y-75833903D02*
X171280074Y-75786284D01*
X171280074Y-75786284D02*
X171089598Y-75738665D01*
X171089598Y-75738665D02*
X170994360Y-75691046D01*
X170994360Y-75691046D02*
X170946741Y-75643427D01*
X170946741Y-75643427D02*
X170899122Y-75548189D01*
X170899122Y-75548189D02*
X170899122Y-75452951D01*
X170899122Y-75452951D02*
X170946741Y-75357713D01*
X170946741Y-75357713D02*
X170994360Y-75310094D01*
X170994360Y-75310094D02*
X171089598Y-75262475D01*
X171089598Y-75262475D02*
X171327693Y-75262475D01*
X171327693Y-75262475D02*
X171470550Y-75310094D01*
X169756265Y-77824800D02*
X169899122Y-77872419D01*
X169899122Y-77872419D02*
X170137217Y-77872419D01*
X170137217Y-77872419D02*
X170232455Y-77824800D01*
X170232455Y-77824800D02*
X170280074Y-77777180D01*
X170280074Y-77777180D02*
X170327693Y-77681942D01*
X170327693Y-77681942D02*
X170327693Y-77586704D01*
X170327693Y-77586704D02*
X170280074Y-77491466D01*
X170280074Y-77491466D02*
X170232455Y-77443847D01*
X170232455Y-77443847D02*
X170137217Y-77396228D01*
X170137217Y-77396228D02*
X169946741Y-77348609D01*
X169946741Y-77348609D02*
X169851503Y-77300990D01*
X169851503Y-77300990D02*
X169803884Y-77253371D01*
X169803884Y-77253371D02*
X169756265Y-77158133D01*
X169756265Y-77158133D02*
X169756265Y-77062895D01*
X169756265Y-77062895D02*
X169803884Y-76967657D01*
X169803884Y-76967657D02*
X169851503Y-76920038D01*
X169851503Y-76920038D02*
X169946741Y-76872419D01*
X169946741Y-76872419D02*
X170184836Y-76872419D01*
X170184836Y-76872419D02*
X170327693Y-76920038D01*
X170756265Y-77872419D02*
X170756265Y-76872419D01*
X170756265Y-76872419D02*
X170994360Y-76872419D01*
X170994360Y-76872419D02*
X171137217Y-76920038D01*
X171137217Y-76920038D02*
X171232455Y-77015276D01*
X171232455Y-77015276D02*
X171280074Y-77110514D01*
X171280074Y-77110514D02*
X171327693Y-77300990D01*
X171327693Y-77300990D02*
X171327693Y-77443847D01*
X171327693Y-77443847D02*
X171280074Y-77634323D01*
X171280074Y-77634323D02*
X171232455Y-77729561D01*
X171232455Y-77729561D02*
X171137217Y-77824800D01*
X171137217Y-77824800D02*
X170994360Y-77872419D01*
X170994360Y-77872419D02*
X170756265Y-77872419D01*
X177875312Y-94277180D02*
X177827693Y-94324800D01*
X177827693Y-94324800D02*
X177684836Y-94372419D01*
X177684836Y-94372419D02*
X177589598Y-94372419D01*
X177589598Y-94372419D02*
X177446741Y-94324800D01*
X177446741Y-94324800D02*
X177351503Y-94229561D01*
X177351503Y-94229561D02*
X177303884Y-94134323D01*
X177303884Y-94134323D02*
X177256265Y-93943847D01*
X177256265Y-93943847D02*
X177256265Y-93800990D01*
X177256265Y-93800990D02*
X177303884Y-93610514D01*
X177303884Y-93610514D02*
X177351503Y-93515276D01*
X177351503Y-93515276D02*
X177446741Y-93420038D01*
X177446741Y-93420038D02*
X177589598Y-93372419D01*
X177589598Y-93372419D02*
X177684836Y-93372419D01*
X177684836Y-93372419D02*
X177827693Y-93420038D01*
X177827693Y-93420038D02*
X177875312Y-93467657D01*
X178256265Y-94324800D02*
X178399122Y-94372419D01*
X178399122Y-94372419D02*
X178637217Y-94372419D01*
X178637217Y-94372419D02*
X178732455Y-94324800D01*
X178732455Y-94324800D02*
X178780074Y-94277180D01*
X178780074Y-94277180D02*
X178827693Y-94181942D01*
X178827693Y-94181942D02*
X178827693Y-94086704D01*
X178827693Y-94086704D02*
X178780074Y-93991466D01*
X178780074Y-93991466D02*
X178732455Y-93943847D01*
X178732455Y-93943847D02*
X178637217Y-93896228D01*
X178637217Y-93896228D02*
X178446741Y-93848609D01*
X178446741Y-93848609D02*
X178351503Y-93800990D01*
X178351503Y-93800990D02*
X178303884Y-93753371D01*
X178303884Y-93753371D02*
X178256265Y-93658133D01*
X178256265Y-93658133D02*
X178256265Y-93562895D01*
X178256265Y-93562895D02*
X178303884Y-93467657D01*
X178303884Y-93467657D02*
X178351503Y-93420038D01*
X178351503Y-93420038D02*
X178446741Y-93372419D01*
X178446741Y-93372419D02*
X178684836Y-93372419D01*
X178684836Y-93372419D02*
X178827693Y-93420038D01*
X180208646Y-93372419D02*
X180303884Y-93372419D01*
X180303884Y-93372419D02*
X180399122Y-93420038D01*
X180399122Y-93420038D02*
X180446741Y-93467657D01*
X180446741Y-93467657D02*
X180494360Y-93562895D01*
X180494360Y-93562895D02*
X180541979Y-93753371D01*
X180541979Y-93753371D02*
X180541979Y-93991466D01*
X180541979Y-93991466D02*
X180494360Y-94181942D01*
X180494360Y-94181942D02*
X180446741Y-94277180D01*
X180446741Y-94277180D02*
X180399122Y-94324800D01*
X180399122Y-94324800D02*
X180303884Y-94372419D01*
X180303884Y-94372419D02*
X180208646Y-94372419D01*
X180208646Y-94372419D02*
X180113408Y-94324800D01*
X180113408Y-94324800D02*
X180065789Y-94277180D01*
X180065789Y-94277180D02*
X180018170Y-94181942D01*
X180018170Y-94181942D02*
X179970551Y-93991466D01*
X179970551Y-93991466D02*
X179970551Y-93753371D01*
X179970551Y-93753371D02*
X180018170Y-93562895D01*
X180018170Y-93562895D02*
X180065789Y-93467657D01*
X180065789Y-93467657D02*
X180113408Y-93420038D01*
X180113408Y-93420038D02*
X180208646Y-93372419D01*
X181446741Y-93372419D02*
X180970551Y-93372419D01*
X180970551Y-93372419D02*
X180922932Y-93848609D01*
X180922932Y-93848609D02*
X180970551Y-93800990D01*
X180970551Y-93800990D02*
X181065789Y-93753371D01*
X181065789Y-93753371D02*
X181303884Y-93753371D01*
X181303884Y-93753371D02*
X181399122Y-93800990D01*
X181399122Y-93800990D02*
X181446741Y-93848609D01*
X181446741Y-93848609D02*
X181494360Y-93943847D01*
X181494360Y-93943847D02*
X181494360Y-94181942D01*
X181494360Y-94181942D02*
X181446741Y-94277180D01*
X181446741Y-94277180D02*
X181399122Y-94324800D01*
X181399122Y-94324800D02*
X181303884Y-94372419D01*
X181303884Y-94372419D02*
X181065789Y-94372419D01*
X181065789Y-94372419D02*
X180970551Y-94324800D01*
X180970551Y-94324800D02*
X180922932Y-94277180D01*
X177256265Y-89324800D02*
X177399122Y-89372419D01*
X177399122Y-89372419D02*
X177637217Y-89372419D01*
X177637217Y-89372419D02*
X177732455Y-89324800D01*
X177732455Y-89324800D02*
X177780074Y-89277180D01*
X177780074Y-89277180D02*
X177827693Y-89181942D01*
X177827693Y-89181942D02*
X177827693Y-89086704D01*
X177827693Y-89086704D02*
X177780074Y-88991466D01*
X177780074Y-88991466D02*
X177732455Y-88943847D01*
X177732455Y-88943847D02*
X177637217Y-88896228D01*
X177637217Y-88896228D02*
X177446741Y-88848609D01*
X177446741Y-88848609D02*
X177351503Y-88800990D01*
X177351503Y-88800990D02*
X177303884Y-88753371D01*
X177303884Y-88753371D02*
X177256265Y-88658133D01*
X177256265Y-88658133D02*
X177256265Y-88562895D01*
X177256265Y-88562895D02*
X177303884Y-88467657D01*
X177303884Y-88467657D02*
X177351503Y-88420038D01*
X177351503Y-88420038D02*
X177446741Y-88372419D01*
X177446741Y-88372419D02*
X177684836Y-88372419D01*
X177684836Y-88372419D02*
X177827693Y-88420038D01*
X178827693Y-89277180D02*
X178780074Y-89324800D01*
X178780074Y-89324800D02*
X178637217Y-89372419D01*
X178637217Y-89372419D02*
X178541979Y-89372419D01*
X178541979Y-89372419D02*
X178399122Y-89324800D01*
X178399122Y-89324800D02*
X178303884Y-89229561D01*
X178303884Y-89229561D02*
X178256265Y-89134323D01*
X178256265Y-89134323D02*
X178208646Y-88943847D01*
X178208646Y-88943847D02*
X178208646Y-88800990D01*
X178208646Y-88800990D02*
X178256265Y-88610514D01*
X178256265Y-88610514D02*
X178303884Y-88515276D01*
X178303884Y-88515276D02*
X178399122Y-88420038D01*
X178399122Y-88420038D02*
X178541979Y-88372419D01*
X178541979Y-88372419D02*
X178637217Y-88372419D01*
X178637217Y-88372419D02*
X178780074Y-88420038D01*
X178780074Y-88420038D02*
X178827693Y-88467657D01*
X179256265Y-89372419D02*
X179256265Y-88372419D01*
X179827693Y-89372419D02*
X179399122Y-88800990D01*
X179827693Y-88372419D02*
X179256265Y-88943847D01*
X181541979Y-89372419D02*
X180970551Y-89372419D01*
X181256265Y-89372419D02*
X181256265Y-88372419D01*
X181256265Y-88372419D02*
X181161027Y-88515276D01*
X181161027Y-88515276D02*
X181065789Y-88610514D01*
X181065789Y-88610514D02*
X180970551Y-88658133D01*
X182113408Y-88800990D02*
X182018170Y-88753371D01*
X182018170Y-88753371D02*
X181970551Y-88705752D01*
X181970551Y-88705752D02*
X181922932Y-88610514D01*
X181922932Y-88610514D02*
X181922932Y-88562895D01*
X181922932Y-88562895D02*
X181970551Y-88467657D01*
X181970551Y-88467657D02*
X182018170Y-88420038D01*
X182018170Y-88420038D02*
X182113408Y-88372419D01*
X182113408Y-88372419D02*
X182303884Y-88372419D01*
X182303884Y-88372419D02*
X182399122Y-88420038D01*
X182399122Y-88420038D02*
X182446741Y-88467657D01*
X182446741Y-88467657D02*
X182494360Y-88562895D01*
X182494360Y-88562895D02*
X182494360Y-88610514D01*
X182494360Y-88610514D02*
X182446741Y-88705752D01*
X182446741Y-88705752D02*
X182399122Y-88753371D01*
X182399122Y-88753371D02*
X182303884Y-88800990D01*
X182303884Y-88800990D02*
X182113408Y-88800990D01*
X182113408Y-88800990D02*
X182018170Y-88848609D01*
X182018170Y-88848609D02*
X181970551Y-88896228D01*
X181970551Y-88896228D02*
X181922932Y-88991466D01*
X181922932Y-88991466D02*
X181922932Y-89181942D01*
X181922932Y-89181942D02*
X181970551Y-89277180D01*
X181970551Y-89277180D02*
X182018170Y-89324800D01*
X182018170Y-89324800D02*
X182113408Y-89372419D01*
X182113408Y-89372419D02*
X182303884Y-89372419D01*
X182303884Y-89372419D02*
X182399122Y-89324800D01*
X182399122Y-89324800D02*
X182446741Y-89277180D01*
X182446741Y-89277180D02*
X182494360Y-89181942D01*
X182494360Y-89181942D02*
X182494360Y-88991466D01*
X182494360Y-88991466D02*
X182446741Y-88896228D01*
X182446741Y-88896228D02*
X182399122Y-88848609D01*
X182399122Y-88848609D02*
X182303884Y-88800990D01*
X177303884Y-91872419D02*
X177303884Y-90872419D01*
X177303884Y-90872419D02*
X177637217Y-91586704D01*
X177637217Y-91586704D02*
X177970550Y-90872419D01*
X177970550Y-90872419D02*
X177970550Y-91872419D01*
X178637217Y-90872419D02*
X178827693Y-90872419D01*
X178827693Y-90872419D02*
X178922931Y-90920038D01*
X178922931Y-90920038D02*
X179018169Y-91015276D01*
X179018169Y-91015276D02*
X179065788Y-91205752D01*
X179065788Y-91205752D02*
X179065788Y-91539085D01*
X179065788Y-91539085D02*
X179018169Y-91729561D01*
X179018169Y-91729561D02*
X178922931Y-91824800D01*
X178922931Y-91824800D02*
X178827693Y-91872419D01*
X178827693Y-91872419D02*
X178637217Y-91872419D01*
X178637217Y-91872419D02*
X178541979Y-91824800D01*
X178541979Y-91824800D02*
X178446741Y-91729561D01*
X178446741Y-91729561D02*
X178399122Y-91539085D01*
X178399122Y-91539085D02*
X178399122Y-91205752D01*
X178399122Y-91205752D02*
X178446741Y-91015276D01*
X178446741Y-91015276D02*
X178541979Y-90920038D01*
X178541979Y-90920038D02*
X178637217Y-90872419D01*
X179446741Y-91824800D02*
X179589598Y-91872419D01*
X179589598Y-91872419D02*
X179827693Y-91872419D01*
X179827693Y-91872419D02*
X179922931Y-91824800D01*
X179922931Y-91824800D02*
X179970550Y-91777180D01*
X179970550Y-91777180D02*
X180018169Y-91681942D01*
X180018169Y-91681942D02*
X180018169Y-91586704D01*
X180018169Y-91586704D02*
X179970550Y-91491466D01*
X179970550Y-91491466D02*
X179922931Y-91443847D01*
X179922931Y-91443847D02*
X179827693Y-91396228D01*
X179827693Y-91396228D02*
X179637217Y-91348609D01*
X179637217Y-91348609D02*
X179541979Y-91300990D01*
X179541979Y-91300990D02*
X179494360Y-91253371D01*
X179494360Y-91253371D02*
X179446741Y-91158133D01*
X179446741Y-91158133D02*
X179446741Y-91062895D01*
X179446741Y-91062895D02*
X179494360Y-90967657D01*
X179494360Y-90967657D02*
X179541979Y-90920038D01*
X179541979Y-90920038D02*
X179637217Y-90872419D01*
X179637217Y-90872419D02*
X179875312Y-90872419D01*
X179875312Y-90872419D02*
X180018169Y-90920038D01*
X180446741Y-91872419D02*
X180446741Y-90872419D01*
X182208645Y-91872419D02*
X181637217Y-91872419D01*
X181922931Y-91872419D02*
X181922931Y-90872419D01*
X181922931Y-90872419D02*
X181827693Y-91015276D01*
X181827693Y-91015276D02*
X181732455Y-91110514D01*
X181732455Y-91110514D02*
X181637217Y-91158133D01*
X182684836Y-91872419D02*
X182875312Y-91872419D01*
X182875312Y-91872419D02*
X182970550Y-91824800D01*
X182970550Y-91824800D02*
X183018169Y-91777180D01*
X183018169Y-91777180D02*
X183113407Y-91634323D01*
X183113407Y-91634323D02*
X183161026Y-91443847D01*
X183161026Y-91443847D02*
X183161026Y-91062895D01*
X183161026Y-91062895D02*
X183113407Y-90967657D01*
X183113407Y-90967657D02*
X183065788Y-90920038D01*
X183065788Y-90920038D02*
X182970550Y-90872419D01*
X182970550Y-90872419D02*
X182780074Y-90872419D01*
X182780074Y-90872419D02*
X182684836Y-90920038D01*
X182684836Y-90920038D02*
X182637217Y-90967657D01*
X182637217Y-90967657D02*
X182589598Y-91062895D01*
X182589598Y-91062895D02*
X182589598Y-91300990D01*
X182589598Y-91300990D02*
X182637217Y-91396228D01*
X182637217Y-91396228D02*
X182684836Y-91443847D01*
X182684836Y-91443847D02*
X182780074Y-91491466D01*
X182780074Y-91491466D02*
X182970550Y-91491466D01*
X182970550Y-91491466D02*
X183065788Y-91443847D01*
X183065788Y-91443847D02*
X183113407Y-91396228D01*
X183113407Y-91396228D02*
X183161026Y-91300990D01*
X177303884Y-86872419D02*
X177303884Y-85872419D01*
X177303884Y-85872419D02*
X177637217Y-86586704D01*
X177637217Y-86586704D02*
X177970550Y-85872419D01*
X177970550Y-85872419D02*
X177970550Y-86872419D01*
X178446741Y-86872419D02*
X178446741Y-85872419D01*
X178875312Y-86824800D02*
X179018169Y-86872419D01*
X179018169Y-86872419D02*
X179256264Y-86872419D01*
X179256264Y-86872419D02*
X179351502Y-86824800D01*
X179351502Y-86824800D02*
X179399121Y-86777180D01*
X179399121Y-86777180D02*
X179446740Y-86681942D01*
X179446740Y-86681942D02*
X179446740Y-86586704D01*
X179446740Y-86586704D02*
X179399121Y-86491466D01*
X179399121Y-86491466D02*
X179351502Y-86443847D01*
X179351502Y-86443847D02*
X179256264Y-86396228D01*
X179256264Y-86396228D02*
X179065788Y-86348609D01*
X179065788Y-86348609D02*
X178970550Y-86300990D01*
X178970550Y-86300990D02*
X178922931Y-86253371D01*
X178922931Y-86253371D02*
X178875312Y-86158133D01*
X178875312Y-86158133D02*
X178875312Y-86062895D01*
X178875312Y-86062895D02*
X178922931Y-85967657D01*
X178922931Y-85967657D02*
X178970550Y-85920038D01*
X178970550Y-85920038D02*
X179065788Y-85872419D01*
X179065788Y-85872419D02*
X179303883Y-85872419D01*
X179303883Y-85872419D02*
X179446740Y-85920038D01*
X180065788Y-85872419D02*
X180256264Y-85872419D01*
X180256264Y-85872419D02*
X180351502Y-85920038D01*
X180351502Y-85920038D02*
X180446740Y-86015276D01*
X180446740Y-86015276D02*
X180494359Y-86205752D01*
X180494359Y-86205752D02*
X180494359Y-86539085D01*
X180494359Y-86539085D02*
X180446740Y-86729561D01*
X180446740Y-86729561D02*
X180351502Y-86824800D01*
X180351502Y-86824800D02*
X180256264Y-86872419D01*
X180256264Y-86872419D02*
X180065788Y-86872419D01*
X180065788Y-86872419D02*
X179970550Y-86824800D01*
X179970550Y-86824800D02*
X179875312Y-86729561D01*
X179875312Y-86729561D02*
X179827693Y-86539085D01*
X179827693Y-86539085D02*
X179827693Y-86205752D01*
X179827693Y-86205752D02*
X179875312Y-86015276D01*
X179875312Y-86015276D02*
X179970550Y-85920038D01*
X179970550Y-85920038D02*
X180065788Y-85872419D01*
X181637217Y-85967657D02*
X181684836Y-85920038D01*
X181684836Y-85920038D02*
X181780074Y-85872419D01*
X181780074Y-85872419D02*
X182018169Y-85872419D01*
X182018169Y-85872419D02*
X182113407Y-85920038D01*
X182113407Y-85920038D02*
X182161026Y-85967657D01*
X182161026Y-85967657D02*
X182208645Y-86062895D01*
X182208645Y-86062895D02*
X182208645Y-86158133D01*
X182208645Y-86158133D02*
X182161026Y-86300990D01*
X182161026Y-86300990D02*
X181589598Y-86872419D01*
X181589598Y-86872419D02*
X182208645Y-86872419D01*
X182541979Y-85872419D02*
X183161026Y-85872419D01*
X183161026Y-85872419D02*
X182827693Y-86253371D01*
X182827693Y-86253371D02*
X182970550Y-86253371D01*
X182970550Y-86253371D02*
X183065788Y-86300990D01*
X183065788Y-86300990D02*
X183113407Y-86348609D01*
X183113407Y-86348609D02*
X183161026Y-86443847D01*
X183161026Y-86443847D02*
X183161026Y-86681942D01*
X183161026Y-86681942D02*
X183113407Y-86777180D01*
X183113407Y-86777180D02*
X183065788Y-86824800D01*
X183065788Y-86824800D02*
X182970550Y-86872419D01*
X182970550Y-86872419D02*
X182684836Y-86872419D01*
X182684836Y-86872419D02*
X182589598Y-86824800D01*
X182589598Y-86824800D02*
X182541979Y-86777180D01*
X177708646Y-96372419D02*
X178327693Y-96372419D01*
X178327693Y-96372419D02*
X177994360Y-96753371D01*
X177994360Y-96753371D02*
X178137217Y-96753371D01*
X178137217Y-96753371D02*
X178232455Y-96800990D01*
X178232455Y-96800990D02*
X178280074Y-96848609D01*
X178280074Y-96848609D02*
X178327693Y-96943847D01*
X178327693Y-96943847D02*
X178327693Y-97181942D01*
X178327693Y-97181942D02*
X178280074Y-97277180D01*
X178280074Y-97277180D02*
X178232455Y-97324800D01*
X178232455Y-97324800D02*
X178137217Y-97372419D01*
X178137217Y-97372419D02*
X177851503Y-97372419D01*
X177851503Y-97372419D02*
X177756265Y-97324800D01*
X177756265Y-97324800D02*
X177708646Y-97277180D01*
X178756265Y-97277180D02*
X178803884Y-97324800D01*
X178803884Y-97324800D02*
X178756265Y-97372419D01*
X178756265Y-97372419D02*
X178708646Y-97324800D01*
X178708646Y-97324800D02*
X178756265Y-97277180D01*
X178756265Y-97277180D02*
X178756265Y-97372419D01*
X179137217Y-96372419D02*
X179756264Y-96372419D01*
X179756264Y-96372419D02*
X179422931Y-96753371D01*
X179422931Y-96753371D02*
X179565788Y-96753371D01*
X179565788Y-96753371D02*
X179661026Y-96800990D01*
X179661026Y-96800990D02*
X179708645Y-96848609D01*
X179708645Y-96848609D02*
X179756264Y-96943847D01*
X179756264Y-96943847D02*
X179756264Y-97181942D01*
X179756264Y-97181942D02*
X179708645Y-97277180D01*
X179708645Y-97277180D02*
X179661026Y-97324800D01*
X179661026Y-97324800D02*
X179565788Y-97372419D01*
X179565788Y-97372419D02*
X179280074Y-97372419D01*
X179280074Y-97372419D02*
X179184836Y-97324800D01*
X179184836Y-97324800D02*
X179137217Y-97277180D01*
X180041979Y-96372419D02*
X180375312Y-97372419D01*
X180375312Y-97372419D02*
X180708645Y-96372419D01*
X177827693Y-83420038D02*
X177732455Y-83372419D01*
X177732455Y-83372419D02*
X177589598Y-83372419D01*
X177589598Y-83372419D02*
X177446741Y-83420038D01*
X177446741Y-83420038D02*
X177351503Y-83515276D01*
X177351503Y-83515276D02*
X177303884Y-83610514D01*
X177303884Y-83610514D02*
X177256265Y-83800990D01*
X177256265Y-83800990D02*
X177256265Y-83943847D01*
X177256265Y-83943847D02*
X177303884Y-84134323D01*
X177303884Y-84134323D02*
X177351503Y-84229561D01*
X177351503Y-84229561D02*
X177446741Y-84324800D01*
X177446741Y-84324800D02*
X177589598Y-84372419D01*
X177589598Y-84372419D02*
X177684836Y-84372419D01*
X177684836Y-84372419D02*
X177827693Y-84324800D01*
X177827693Y-84324800D02*
X177875312Y-84277180D01*
X177875312Y-84277180D02*
X177875312Y-83943847D01*
X177875312Y-83943847D02*
X177684836Y-83943847D01*
X178303884Y-84372419D02*
X178303884Y-83372419D01*
X178303884Y-83372419D02*
X178875312Y-84372419D01*
X178875312Y-84372419D02*
X178875312Y-83372419D01*
X179351503Y-84372419D02*
X179351503Y-83372419D01*
X179351503Y-83372419D02*
X179589598Y-83372419D01*
X179589598Y-83372419D02*
X179732455Y-83420038D01*
X179732455Y-83420038D02*
X179827693Y-83515276D01*
X179827693Y-83515276D02*
X179875312Y-83610514D01*
X179875312Y-83610514D02*
X179922931Y-83800990D01*
X179922931Y-83800990D02*
X179922931Y-83943847D01*
X179922931Y-83943847D02*
X179875312Y-84134323D01*
X179875312Y-84134323D02*
X179827693Y-84229561D01*
X179827693Y-84229561D02*
X179732455Y-84324800D01*
X179732455Y-84324800D02*
X179589598Y-84372419D01*
X179589598Y-84372419D02*
X179351503Y-84372419D01*
X187208646Y-99872419D02*
X187827693Y-99872419D01*
X187827693Y-99872419D02*
X187494360Y-100253371D01*
X187494360Y-100253371D02*
X187637217Y-100253371D01*
X187637217Y-100253371D02*
X187732455Y-100300990D01*
X187732455Y-100300990D02*
X187780074Y-100348609D01*
X187780074Y-100348609D02*
X187827693Y-100443847D01*
X187827693Y-100443847D02*
X187827693Y-100681942D01*
X187827693Y-100681942D02*
X187780074Y-100777180D01*
X187780074Y-100777180D02*
X187732455Y-100824800D01*
X187732455Y-100824800D02*
X187637217Y-100872419D01*
X187637217Y-100872419D02*
X187351503Y-100872419D01*
X187351503Y-100872419D02*
X187256265Y-100824800D01*
X187256265Y-100824800D02*
X187208646Y-100777180D01*
X188256265Y-100777180D02*
X188303884Y-100824800D01*
X188303884Y-100824800D02*
X188256265Y-100872419D01*
X188256265Y-100872419D02*
X188208646Y-100824800D01*
X188208646Y-100824800D02*
X188256265Y-100777180D01*
X188256265Y-100777180D02*
X188256265Y-100872419D01*
X188637217Y-99872419D02*
X189256264Y-99872419D01*
X189256264Y-99872419D02*
X188922931Y-100253371D01*
X188922931Y-100253371D02*
X189065788Y-100253371D01*
X189065788Y-100253371D02*
X189161026Y-100300990D01*
X189161026Y-100300990D02*
X189208645Y-100348609D01*
X189208645Y-100348609D02*
X189256264Y-100443847D01*
X189256264Y-100443847D02*
X189256264Y-100681942D01*
X189256264Y-100681942D02*
X189208645Y-100777180D01*
X189208645Y-100777180D02*
X189161026Y-100824800D01*
X189161026Y-100824800D02*
X189065788Y-100872419D01*
X189065788Y-100872419D02*
X188780074Y-100872419D01*
X188780074Y-100872419D02*
X188684836Y-100824800D01*
X188684836Y-100824800D02*
X188637217Y-100777180D01*
X189541979Y-99872419D02*
X189875312Y-100872419D01*
X189875312Y-100872419D02*
X190208645Y-99872419D01*
X190303884Y-100967657D02*
X191065788Y-100967657D01*
X191303884Y-100872419D02*
X191303884Y-99872419D01*
X191780074Y-100872419D02*
X191780074Y-99872419D01*
X191780074Y-99872419D02*
X192351502Y-100872419D01*
X192351502Y-100872419D02*
X192351502Y-99872419D01*
X187827693Y-136420038D02*
X187732455Y-136372419D01*
X187732455Y-136372419D02*
X187589598Y-136372419D01*
X187589598Y-136372419D02*
X187446741Y-136420038D01*
X187446741Y-136420038D02*
X187351503Y-136515276D01*
X187351503Y-136515276D02*
X187303884Y-136610514D01*
X187303884Y-136610514D02*
X187256265Y-136800990D01*
X187256265Y-136800990D02*
X187256265Y-136943847D01*
X187256265Y-136943847D02*
X187303884Y-137134323D01*
X187303884Y-137134323D02*
X187351503Y-137229561D01*
X187351503Y-137229561D02*
X187446741Y-137324800D01*
X187446741Y-137324800D02*
X187589598Y-137372419D01*
X187589598Y-137372419D02*
X187684836Y-137372419D01*
X187684836Y-137372419D02*
X187827693Y-137324800D01*
X187827693Y-137324800D02*
X187875312Y-137277180D01*
X187875312Y-137277180D02*
X187875312Y-136943847D01*
X187875312Y-136943847D02*
X187684836Y-136943847D01*
X188303884Y-137372419D02*
X188303884Y-136372419D01*
X188303884Y-136372419D02*
X188684836Y-136372419D01*
X188684836Y-136372419D02*
X188780074Y-136420038D01*
X188780074Y-136420038D02*
X188827693Y-136467657D01*
X188827693Y-136467657D02*
X188875312Y-136562895D01*
X188875312Y-136562895D02*
X188875312Y-136705752D01*
X188875312Y-136705752D02*
X188827693Y-136800990D01*
X188827693Y-136800990D02*
X188780074Y-136848609D01*
X188780074Y-136848609D02*
X188684836Y-136896228D01*
X188684836Y-136896228D02*
X188303884Y-136896228D01*
X189303884Y-137372419D02*
X189303884Y-136372419D01*
X189970550Y-136372419D02*
X190161026Y-136372419D01*
X190161026Y-136372419D02*
X190256264Y-136420038D01*
X190256264Y-136420038D02*
X190351502Y-136515276D01*
X190351502Y-136515276D02*
X190399121Y-136705752D01*
X190399121Y-136705752D02*
X190399121Y-137039085D01*
X190399121Y-137039085D02*
X190351502Y-137229561D01*
X190351502Y-137229561D02*
X190256264Y-137324800D01*
X190256264Y-137324800D02*
X190161026Y-137372419D01*
X190161026Y-137372419D02*
X189970550Y-137372419D01*
X189970550Y-137372419D02*
X189875312Y-137324800D01*
X189875312Y-137324800D02*
X189780074Y-137229561D01*
X189780074Y-137229561D02*
X189732455Y-137039085D01*
X189732455Y-137039085D02*
X189732455Y-136705752D01*
X189732455Y-136705752D02*
X189780074Y-136515276D01*
X189780074Y-136515276D02*
X189875312Y-136420038D01*
X189875312Y-136420038D02*
X189970550Y-136372419D01*
X190780074Y-136467657D02*
X190827693Y-136420038D01*
X190827693Y-136420038D02*
X190922931Y-136372419D01*
X190922931Y-136372419D02*
X191161026Y-136372419D01*
X191161026Y-136372419D02*
X191256264Y-136420038D01*
X191256264Y-136420038D02*
X191303883Y-136467657D01*
X191303883Y-136467657D02*
X191351502Y-136562895D01*
X191351502Y-136562895D02*
X191351502Y-136658133D01*
X191351502Y-136658133D02*
X191303883Y-136800990D01*
X191303883Y-136800990D02*
X190732455Y-137372419D01*
X190732455Y-137372419D02*
X191351502Y-137372419D01*
X191684836Y-136372419D02*
X192303883Y-136372419D01*
X192303883Y-136372419D02*
X191970550Y-136753371D01*
X191970550Y-136753371D02*
X192113407Y-136753371D01*
X192113407Y-136753371D02*
X192208645Y-136800990D01*
X192208645Y-136800990D02*
X192256264Y-136848609D01*
X192256264Y-136848609D02*
X192303883Y-136943847D01*
X192303883Y-136943847D02*
X192303883Y-137181942D01*
X192303883Y-137181942D02*
X192256264Y-137277180D01*
X192256264Y-137277180D02*
X192208645Y-137324800D01*
X192208645Y-137324800D02*
X192113407Y-137372419D01*
X192113407Y-137372419D02*
X191827693Y-137372419D01*
X191827693Y-137372419D02*
X191732455Y-137324800D01*
X191732455Y-137324800D02*
X191684836Y-137277180D01*
X190158646Y-69622419D02*
X190777693Y-69622419D01*
X190777693Y-69622419D02*
X190444360Y-70003371D01*
X190444360Y-70003371D02*
X190587217Y-70003371D01*
X190587217Y-70003371D02*
X190682455Y-70050990D01*
X190682455Y-70050990D02*
X190730074Y-70098609D01*
X190730074Y-70098609D02*
X190777693Y-70193847D01*
X190777693Y-70193847D02*
X190777693Y-70431942D01*
X190777693Y-70431942D02*
X190730074Y-70527180D01*
X190730074Y-70527180D02*
X190682455Y-70574800D01*
X190682455Y-70574800D02*
X190587217Y-70622419D01*
X190587217Y-70622419D02*
X190301503Y-70622419D01*
X190301503Y-70622419D02*
X190206265Y-70574800D01*
X190206265Y-70574800D02*
X190158646Y-70527180D01*
X191206265Y-70527180D02*
X191253884Y-70574800D01*
X191253884Y-70574800D02*
X191206265Y-70622419D01*
X191206265Y-70622419D02*
X191158646Y-70574800D01*
X191158646Y-70574800D02*
X191206265Y-70527180D01*
X191206265Y-70527180D02*
X191206265Y-70622419D01*
X191587217Y-69622419D02*
X192206264Y-69622419D01*
X192206264Y-69622419D02*
X191872931Y-70003371D01*
X191872931Y-70003371D02*
X192015788Y-70003371D01*
X192015788Y-70003371D02*
X192111026Y-70050990D01*
X192111026Y-70050990D02*
X192158645Y-70098609D01*
X192158645Y-70098609D02*
X192206264Y-70193847D01*
X192206264Y-70193847D02*
X192206264Y-70431942D01*
X192206264Y-70431942D02*
X192158645Y-70527180D01*
X192158645Y-70527180D02*
X192111026Y-70574800D01*
X192111026Y-70574800D02*
X192015788Y-70622419D01*
X192015788Y-70622419D02*
X191730074Y-70622419D01*
X191730074Y-70622419D02*
X191634836Y-70574800D01*
X191634836Y-70574800D02*
X191587217Y-70527180D01*
X192491979Y-69622419D02*
X192825312Y-70622419D01*
X192825312Y-70622419D02*
X193158645Y-69622419D01*
X190206265Y-73074800D02*
X190349122Y-73122419D01*
X190349122Y-73122419D02*
X190587217Y-73122419D01*
X190587217Y-73122419D02*
X190682455Y-73074800D01*
X190682455Y-73074800D02*
X190730074Y-73027180D01*
X190730074Y-73027180D02*
X190777693Y-72931942D01*
X190777693Y-72931942D02*
X190777693Y-72836704D01*
X190777693Y-72836704D02*
X190730074Y-72741466D01*
X190730074Y-72741466D02*
X190682455Y-72693847D01*
X190682455Y-72693847D02*
X190587217Y-72646228D01*
X190587217Y-72646228D02*
X190396741Y-72598609D01*
X190396741Y-72598609D02*
X190301503Y-72550990D01*
X190301503Y-72550990D02*
X190253884Y-72503371D01*
X190253884Y-72503371D02*
X190206265Y-72408133D01*
X190206265Y-72408133D02*
X190206265Y-72312895D01*
X190206265Y-72312895D02*
X190253884Y-72217657D01*
X190253884Y-72217657D02*
X190301503Y-72170038D01*
X190301503Y-72170038D02*
X190396741Y-72122419D01*
X190396741Y-72122419D02*
X190634836Y-72122419D01*
X190634836Y-72122419D02*
X190777693Y-72170038D01*
X191777693Y-73027180D02*
X191730074Y-73074800D01*
X191730074Y-73074800D02*
X191587217Y-73122419D01*
X191587217Y-73122419D02*
X191491979Y-73122419D01*
X191491979Y-73122419D02*
X191349122Y-73074800D01*
X191349122Y-73074800D02*
X191253884Y-72979561D01*
X191253884Y-72979561D02*
X191206265Y-72884323D01*
X191206265Y-72884323D02*
X191158646Y-72693847D01*
X191158646Y-72693847D02*
X191158646Y-72550990D01*
X191158646Y-72550990D02*
X191206265Y-72360514D01*
X191206265Y-72360514D02*
X191253884Y-72265276D01*
X191253884Y-72265276D02*
X191349122Y-72170038D01*
X191349122Y-72170038D02*
X191491979Y-72122419D01*
X191491979Y-72122419D02*
X191587217Y-72122419D01*
X191587217Y-72122419D02*
X191730074Y-72170038D01*
X191730074Y-72170038D02*
X191777693Y-72217657D01*
X192206265Y-73122419D02*
X192206265Y-72122419D01*
X192777693Y-73122419D02*
X192349122Y-72550990D01*
X192777693Y-72122419D02*
X192206265Y-72693847D01*
X190253884Y-75622419D02*
X190253884Y-74622419D01*
X190253884Y-74622419D02*
X190491979Y-74622419D01*
X190491979Y-74622419D02*
X190634836Y-74670038D01*
X190634836Y-74670038D02*
X190730074Y-74765276D01*
X190730074Y-74765276D02*
X190777693Y-74860514D01*
X190777693Y-74860514D02*
X190825312Y-75050990D01*
X190825312Y-75050990D02*
X190825312Y-75193847D01*
X190825312Y-75193847D02*
X190777693Y-75384323D01*
X190777693Y-75384323D02*
X190730074Y-75479561D01*
X190730074Y-75479561D02*
X190634836Y-75574800D01*
X190634836Y-75574800D02*
X190491979Y-75622419D01*
X190491979Y-75622419D02*
X190253884Y-75622419D01*
X191111027Y-74622419D02*
X191682455Y-74622419D01*
X191396741Y-75622419D02*
X191396741Y-74622419D01*
X190777693Y-77170038D02*
X190682455Y-77122419D01*
X190682455Y-77122419D02*
X190539598Y-77122419D01*
X190539598Y-77122419D02*
X190396741Y-77170038D01*
X190396741Y-77170038D02*
X190301503Y-77265276D01*
X190301503Y-77265276D02*
X190253884Y-77360514D01*
X190253884Y-77360514D02*
X190206265Y-77550990D01*
X190206265Y-77550990D02*
X190206265Y-77693847D01*
X190206265Y-77693847D02*
X190253884Y-77884323D01*
X190253884Y-77884323D02*
X190301503Y-77979561D01*
X190301503Y-77979561D02*
X190396741Y-78074800D01*
X190396741Y-78074800D02*
X190539598Y-78122419D01*
X190539598Y-78122419D02*
X190634836Y-78122419D01*
X190634836Y-78122419D02*
X190777693Y-78074800D01*
X190777693Y-78074800D02*
X190825312Y-78027180D01*
X190825312Y-78027180D02*
X190825312Y-77693847D01*
X190825312Y-77693847D02*
X190634836Y-77693847D01*
X191253884Y-78122419D02*
X191253884Y-77122419D01*
X191253884Y-77122419D02*
X191825312Y-78122419D01*
X191825312Y-78122419D02*
X191825312Y-77122419D01*
X192301503Y-78122419D02*
X192301503Y-77122419D01*
X192301503Y-77122419D02*
X192539598Y-77122419D01*
X192539598Y-77122419D02*
X192682455Y-77170038D01*
X192682455Y-77170038D02*
X192777693Y-77265276D01*
X192777693Y-77265276D02*
X192825312Y-77360514D01*
X192825312Y-77360514D02*
X192872931Y-77550990D01*
X192872931Y-77550990D02*
X192872931Y-77693847D01*
X192872931Y-77693847D02*
X192825312Y-77884323D01*
X192825312Y-77884323D02*
X192777693Y-77979561D01*
X192777693Y-77979561D02*
X192682455Y-78074800D01*
X192682455Y-78074800D02*
X192539598Y-78122419D01*
X192539598Y-78122419D02*
X192301503Y-78122419D01*
X190208646Y-46872419D02*
X190827693Y-46872419D01*
X190827693Y-46872419D02*
X190494360Y-47253371D01*
X190494360Y-47253371D02*
X190637217Y-47253371D01*
X190637217Y-47253371D02*
X190732455Y-47300990D01*
X190732455Y-47300990D02*
X190780074Y-47348609D01*
X190780074Y-47348609D02*
X190827693Y-47443847D01*
X190827693Y-47443847D02*
X190827693Y-47681942D01*
X190827693Y-47681942D02*
X190780074Y-47777180D01*
X190780074Y-47777180D02*
X190732455Y-47824800D01*
X190732455Y-47824800D02*
X190637217Y-47872419D01*
X190637217Y-47872419D02*
X190351503Y-47872419D01*
X190351503Y-47872419D02*
X190256265Y-47824800D01*
X190256265Y-47824800D02*
X190208646Y-47777180D01*
X191256265Y-47777180D02*
X191303884Y-47824800D01*
X191303884Y-47824800D02*
X191256265Y-47872419D01*
X191256265Y-47872419D02*
X191208646Y-47824800D01*
X191208646Y-47824800D02*
X191256265Y-47777180D01*
X191256265Y-47777180D02*
X191256265Y-47872419D01*
X191637217Y-46872419D02*
X192256264Y-46872419D01*
X192256264Y-46872419D02*
X191922931Y-47253371D01*
X191922931Y-47253371D02*
X192065788Y-47253371D01*
X192065788Y-47253371D02*
X192161026Y-47300990D01*
X192161026Y-47300990D02*
X192208645Y-47348609D01*
X192208645Y-47348609D02*
X192256264Y-47443847D01*
X192256264Y-47443847D02*
X192256264Y-47681942D01*
X192256264Y-47681942D02*
X192208645Y-47777180D01*
X192208645Y-47777180D02*
X192161026Y-47824800D01*
X192161026Y-47824800D02*
X192065788Y-47872419D01*
X192065788Y-47872419D02*
X191780074Y-47872419D01*
X191780074Y-47872419D02*
X191684836Y-47824800D01*
X191684836Y-47824800D02*
X191637217Y-47777180D01*
X192541979Y-46872419D02*
X192875312Y-47872419D01*
X192875312Y-47872419D02*
X193208645Y-46872419D01*
X190256265Y-50324800D02*
X190399122Y-50372419D01*
X190399122Y-50372419D02*
X190637217Y-50372419D01*
X190637217Y-50372419D02*
X190732455Y-50324800D01*
X190732455Y-50324800D02*
X190780074Y-50277180D01*
X190780074Y-50277180D02*
X190827693Y-50181942D01*
X190827693Y-50181942D02*
X190827693Y-50086704D01*
X190827693Y-50086704D02*
X190780074Y-49991466D01*
X190780074Y-49991466D02*
X190732455Y-49943847D01*
X190732455Y-49943847D02*
X190637217Y-49896228D01*
X190637217Y-49896228D02*
X190446741Y-49848609D01*
X190446741Y-49848609D02*
X190351503Y-49800990D01*
X190351503Y-49800990D02*
X190303884Y-49753371D01*
X190303884Y-49753371D02*
X190256265Y-49658133D01*
X190256265Y-49658133D02*
X190256265Y-49562895D01*
X190256265Y-49562895D02*
X190303884Y-49467657D01*
X190303884Y-49467657D02*
X190351503Y-49420038D01*
X190351503Y-49420038D02*
X190446741Y-49372419D01*
X190446741Y-49372419D02*
X190684836Y-49372419D01*
X190684836Y-49372419D02*
X190827693Y-49420038D01*
X191827693Y-50277180D02*
X191780074Y-50324800D01*
X191780074Y-50324800D02*
X191637217Y-50372419D01*
X191637217Y-50372419D02*
X191541979Y-50372419D01*
X191541979Y-50372419D02*
X191399122Y-50324800D01*
X191399122Y-50324800D02*
X191303884Y-50229561D01*
X191303884Y-50229561D02*
X191256265Y-50134323D01*
X191256265Y-50134323D02*
X191208646Y-49943847D01*
X191208646Y-49943847D02*
X191208646Y-49800990D01*
X191208646Y-49800990D02*
X191256265Y-49610514D01*
X191256265Y-49610514D02*
X191303884Y-49515276D01*
X191303884Y-49515276D02*
X191399122Y-49420038D01*
X191399122Y-49420038D02*
X191541979Y-49372419D01*
X191541979Y-49372419D02*
X191637217Y-49372419D01*
X191637217Y-49372419D02*
X191780074Y-49420038D01*
X191780074Y-49420038D02*
X191827693Y-49467657D01*
X192256265Y-50372419D02*
X192256265Y-49372419D01*
X192827693Y-50372419D02*
X192399122Y-49800990D01*
X192827693Y-49372419D02*
X192256265Y-49943847D01*
X190303884Y-52872419D02*
X190303884Y-51872419D01*
X190303884Y-51872419D02*
X190541979Y-51872419D01*
X190541979Y-51872419D02*
X190684836Y-51920038D01*
X190684836Y-51920038D02*
X190780074Y-52015276D01*
X190780074Y-52015276D02*
X190827693Y-52110514D01*
X190827693Y-52110514D02*
X190875312Y-52300990D01*
X190875312Y-52300990D02*
X190875312Y-52443847D01*
X190875312Y-52443847D02*
X190827693Y-52634323D01*
X190827693Y-52634323D02*
X190780074Y-52729561D01*
X190780074Y-52729561D02*
X190684836Y-52824800D01*
X190684836Y-52824800D02*
X190541979Y-52872419D01*
X190541979Y-52872419D02*
X190303884Y-52872419D01*
X191161027Y-51872419D02*
X191732455Y-51872419D01*
X191446741Y-52872419D02*
X191446741Y-51872419D01*
X190827693Y-54420038D02*
X190732455Y-54372419D01*
X190732455Y-54372419D02*
X190589598Y-54372419D01*
X190589598Y-54372419D02*
X190446741Y-54420038D01*
X190446741Y-54420038D02*
X190351503Y-54515276D01*
X190351503Y-54515276D02*
X190303884Y-54610514D01*
X190303884Y-54610514D02*
X190256265Y-54800990D01*
X190256265Y-54800990D02*
X190256265Y-54943847D01*
X190256265Y-54943847D02*
X190303884Y-55134323D01*
X190303884Y-55134323D02*
X190351503Y-55229561D01*
X190351503Y-55229561D02*
X190446741Y-55324800D01*
X190446741Y-55324800D02*
X190589598Y-55372419D01*
X190589598Y-55372419D02*
X190684836Y-55372419D01*
X190684836Y-55372419D02*
X190827693Y-55324800D01*
X190827693Y-55324800D02*
X190875312Y-55277180D01*
X190875312Y-55277180D02*
X190875312Y-54943847D01*
X190875312Y-54943847D02*
X190684836Y-54943847D01*
X191303884Y-55372419D02*
X191303884Y-54372419D01*
X191303884Y-54372419D02*
X191875312Y-55372419D01*
X191875312Y-55372419D02*
X191875312Y-54372419D01*
X192351503Y-55372419D02*
X192351503Y-54372419D01*
X192351503Y-54372419D02*
X192589598Y-54372419D01*
X192589598Y-54372419D02*
X192732455Y-54420038D01*
X192732455Y-54420038D02*
X192827693Y-54515276D01*
X192827693Y-54515276D02*
X192875312Y-54610514D01*
X192875312Y-54610514D02*
X192922931Y-54800990D01*
X192922931Y-54800990D02*
X192922931Y-54943847D01*
X192922931Y-54943847D02*
X192875312Y-55134323D01*
X192875312Y-55134323D02*
X192827693Y-55229561D01*
X192827693Y-55229561D02*
X192732455Y-55324800D01*
X192732455Y-55324800D02*
X192589598Y-55372419D01*
X192589598Y-55372419D02*
X192351503Y-55372419D01*
X205827693Y-102920038D02*
X205732455Y-102872419D01*
X205732455Y-102872419D02*
X205589598Y-102872419D01*
X205589598Y-102872419D02*
X205446741Y-102920038D01*
X205446741Y-102920038D02*
X205351503Y-103015276D01*
X205351503Y-103015276D02*
X205303884Y-103110514D01*
X205303884Y-103110514D02*
X205256265Y-103300990D01*
X205256265Y-103300990D02*
X205256265Y-103443847D01*
X205256265Y-103443847D02*
X205303884Y-103634323D01*
X205303884Y-103634323D02*
X205351503Y-103729561D01*
X205351503Y-103729561D02*
X205446741Y-103824800D01*
X205446741Y-103824800D02*
X205589598Y-103872419D01*
X205589598Y-103872419D02*
X205684836Y-103872419D01*
X205684836Y-103872419D02*
X205827693Y-103824800D01*
X205827693Y-103824800D02*
X205875312Y-103777180D01*
X205875312Y-103777180D02*
X205875312Y-103443847D01*
X205875312Y-103443847D02*
X205684836Y-103443847D01*
X206303884Y-103872419D02*
X206303884Y-102872419D01*
X206303884Y-102872419D02*
X206875312Y-103872419D01*
X206875312Y-103872419D02*
X206875312Y-102872419D01*
X207351503Y-103872419D02*
X207351503Y-102872419D01*
X207351503Y-102872419D02*
X207589598Y-102872419D01*
X207589598Y-102872419D02*
X207732455Y-102920038D01*
X207732455Y-102920038D02*
X207827693Y-103015276D01*
X207827693Y-103015276D02*
X207875312Y-103110514D01*
X207875312Y-103110514D02*
X207922931Y-103300990D01*
X207922931Y-103300990D02*
X207922931Y-103443847D01*
X207922931Y-103443847D02*
X207875312Y-103634323D01*
X207875312Y-103634323D02*
X207827693Y-103729561D01*
X207827693Y-103729561D02*
X207732455Y-103824800D01*
X207732455Y-103824800D02*
X207589598Y-103872419D01*
X207589598Y-103872419D02*
X207351503Y-103872419D01*
X208756265Y-50086704D02*
X209232455Y-50086704D01*
X208661027Y-50372419D02*
X208994360Y-49372419D01*
X208994360Y-49372419D02*
X209327693Y-50372419D01*
X209661027Y-49991466D02*
X210422932Y-49991466D01*
X210041979Y-50372419D02*
X210041979Y-49610514D01*
X208756265Y-52586704D02*
X209232455Y-52586704D01*
X208661027Y-52872419D02*
X208994360Y-51872419D01*
X208994360Y-51872419D02*
X209327693Y-52872419D01*
X209661027Y-52491466D02*
X210422932Y-52491466D01*
X208803884Y-55348609D02*
X209137217Y-55348609D01*
X209280074Y-55872419D02*
X208803884Y-55872419D01*
X208803884Y-55872419D02*
X208803884Y-54872419D01*
X208803884Y-54872419D02*
X209280074Y-54872419D01*
X209708646Y-55491466D02*
X210470551Y-55491466D01*
X208803884Y-57848609D02*
X209137217Y-57848609D01*
X209280074Y-58372419D02*
X208803884Y-58372419D01*
X208803884Y-58372419D02*
X208803884Y-57372419D01*
X208803884Y-57372419D02*
X209280074Y-57372419D01*
X209708646Y-57991466D02*
X210470551Y-57991466D01*
X210089598Y-58372419D02*
X210089598Y-57610514D01*
X209206265Y-73336704D02*
X209682455Y-73336704D01*
X209111027Y-73622419D02*
X209444360Y-72622419D01*
X209444360Y-72622419D02*
X209777693Y-73622419D01*
X210111027Y-73241466D02*
X210872932Y-73241466D01*
X210491979Y-73622419D02*
X210491979Y-72860514D01*
X209206265Y-75836704D02*
X209682455Y-75836704D01*
X209111027Y-76122419D02*
X209444360Y-75122419D01*
X209444360Y-75122419D02*
X209777693Y-76122419D01*
X210111027Y-75741466D02*
X210872932Y-75741466D01*
X209253884Y-78598609D02*
X209587217Y-78598609D01*
X209730074Y-79122419D02*
X209253884Y-79122419D01*
X209253884Y-79122419D02*
X209253884Y-78122419D01*
X209253884Y-78122419D02*
X209730074Y-78122419D01*
X210158646Y-78741466D02*
X210920551Y-78741466D01*
X209253884Y-81098609D02*
X209587217Y-81098609D01*
X209730074Y-81622419D02*
X209253884Y-81622419D01*
X209253884Y-81622419D02*
X209253884Y-80622419D01*
X209253884Y-80622419D02*
X209730074Y-80622419D01*
X210158646Y-81241466D02*
X210920551Y-81241466D01*
X210539598Y-81622419D02*
X210539598Y-80860514D01*
X227327693Y-105920038D02*
X227232455Y-105872419D01*
X227232455Y-105872419D02*
X227089598Y-105872419D01*
X227089598Y-105872419D02*
X226946741Y-105920038D01*
X226946741Y-105920038D02*
X226851503Y-106015276D01*
X226851503Y-106015276D02*
X226803884Y-106110514D01*
X226803884Y-106110514D02*
X226756265Y-106300990D01*
X226756265Y-106300990D02*
X226756265Y-106443847D01*
X226756265Y-106443847D02*
X226803884Y-106634323D01*
X226803884Y-106634323D02*
X226851503Y-106729561D01*
X226851503Y-106729561D02*
X226946741Y-106824800D01*
X226946741Y-106824800D02*
X227089598Y-106872419D01*
X227089598Y-106872419D02*
X227184836Y-106872419D01*
X227184836Y-106872419D02*
X227327693Y-106824800D01*
X227327693Y-106824800D02*
X227375312Y-106777180D01*
X227375312Y-106777180D02*
X227375312Y-106443847D01*
X227375312Y-106443847D02*
X227184836Y-106443847D01*
X227803884Y-106872419D02*
X227803884Y-105872419D01*
X227803884Y-105872419D02*
X228184836Y-105872419D01*
X228184836Y-105872419D02*
X228280074Y-105920038D01*
X228280074Y-105920038D02*
X228327693Y-105967657D01*
X228327693Y-105967657D02*
X228375312Y-106062895D01*
X228375312Y-106062895D02*
X228375312Y-106205752D01*
X228375312Y-106205752D02*
X228327693Y-106300990D01*
X228327693Y-106300990D02*
X228280074Y-106348609D01*
X228280074Y-106348609D02*
X228184836Y-106396228D01*
X228184836Y-106396228D02*
X227803884Y-106396228D01*
X228803884Y-106872419D02*
X228803884Y-105872419D01*
X229470550Y-105872419D02*
X229661026Y-105872419D01*
X229661026Y-105872419D02*
X229756264Y-105920038D01*
X229756264Y-105920038D02*
X229851502Y-106015276D01*
X229851502Y-106015276D02*
X229899121Y-106205752D01*
X229899121Y-106205752D02*
X229899121Y-106539085D01*
X229899121Y-106539085D02*
X229851502Y-106729561D01*
X229851502Y-106729561D02*
X229756264Y-106824800D01*
X229756264Y-106824800D02*
X229661026Y-106872419D01*
X229661026Y-106872419D02*
X229470550Y-106872419D01*
X229470550Y-106872419D02*
X229375312Y-106824800D01*
X229375312Y-106824800D02*
X229280074Y-106729561D01*
X229280074Y-106729561D02*
X229232455Y-106539085D01*
X229232455Y-106539085D02*
X229232455Y-106205752D01*
X229232455Y-106205752D02*
X229280074Y-106015276D01*
X229280074Y-106015276D02*
X229375312Y-105920038D01*
X229375312Y-105920038D02*
X229470550Y-105872419D01*
X230756264Y-106205752D02*
X230756264Y-106872419D01*
X230518169Y-105824800D02*
X230280074Y-106539085D01*
X230280074Y-106539085D02*
X230899121Y-106539085D01*
X227327693Y-108420038D02*
X227232455Y-108372419D01*
X227232455Y-108372419D02*
X227089598Y-108372419D01*
X227089598Y-108372419D02*
X226946741Y-108420038D01*
X226946741Y-108420038D02*
X226851503Y-108515276D01*
X226851503Y-108515276D02*
X226803884Y-108610514D01*
X226803884Y-108610514D02*
X226756265Y-108800990D01*
X226756265Y-108800990D02*
X226756265Y-108943847D01*
X226756265Y-108943847D02*
X226803884Y-109134323D01*
X226803884Y-109134323D02*
X226851503Y-109229561D01*
X226851503Y-109229561D02*
X226946741Y-109324800D01*
X226946741Y-109324800D02*
X227089598Y-109372419D01*
X227089598Y-109372419D02*
X227184836Y-109372419D01*
X227184836Y-109372419D02*
X227327693Y-109324800D01*
X227327693Y-109324800D02*
X227375312Y-109277180D01*
X227375312Y-109277180D02*
X227375312Y-108943847D01*
X227375312Y-108943847D02*
X227184836Y-108943847D01*
X227803884Y-109372419D02*
X227803884Y-108372419D01*
X227803884Y-108372419D02*
X228375312Y-109372419D01*
X228375312Y-109372419D02*
X228375312Y-108372419D01*
X228851503Y-109372419D02*
X228851503Y-108372419D01*
X228851503Y-108372419D02*
X229089598Y-108372419D01*
X229089598Y-108372419D02*
X229232455Y-108420038D01*
X229232455Y-108420038D02*
X229327693Y-108515276D01*
X229327693Y-108515276D02*
X229375312Y-108610514D01*
X229375312Y-108610514D02*
X229422931Y-108800990D01*
X229422931Y-108800990D02*
X229422931Y-108943847D01*
X229422931Y-108943847D02*
X229375312Y-109134323D01*
X229375312Y-109134323D02*
X229327693Y-109229561D01*
X229327693Y-109229561D02*
X229232455Y-109324800D01*
X229232455Y-109324800D02*
X229089598Y-109372419D01*
X229089598Y-109372419D02*
X228851503Y-109372419D01*
X226708646Y-110872419D02*
X227327693Y-110872419D01*
X227327693Y-110872419D02*
X226994360Y-111253371D01*
X226994360Y-111253371D02*
X227137217Y-111253371D01*
X227137217Y-111253371D02*
X227232455Y-111300990D01*
X227232455Y-111300990D02*
X227280074Y-111348609D01*
X227280074Y-111348609D02*
X227327693Y-111443847D01*
X227327693Y-111443847D02*
X227327693Y-111681942D01*
X227327693Y-111681942D02*
X227280074Y-111777180D01*
X227280074Y-111777180D02*
X227232455Y-111824800D01*
X227232455Y-111824800D02*
X227137217Y-111872419D01*
X227137217Y-111872419D02*
X226851503Y-111872419D01*
X226851503Y-111872419D02*
X226756265Y-111824800D01*
X226756265Y-111824800D02*
X226708646Y-111777180D01*
X227756265Y-111777180D02*
X227803884Y-111824800D01*
X227803884Y-111824800D02*
X227756265Y-111872419D01*
X227756265Y-111872419D02*
X227708646Y-111824800D01*
X227708646Y-111824800D02*
X227756265Y-111777180D01*
X227756265Y-111777180D02*
X227756265Y-111872419D01*
X228137217Y-110872419D02*
X228756264Y-110872419D01*
X228756264Y-110872419D02*
X228422931Y-111253371D01*
X228422931Y-111253371D02*
X228565788Y-111253371D01*
X228565788Y-111253371D02*
X228661026Y-111300990D01*
X228661026Y-111300990D02*
X228708645Y-111348609D01*
X228708645Y-111348609D02*
X228756264Y-111443847D01*
X228756264Y-111443847D02*
X228756264Y-111681942D01*
X228756264Y-111681942D02*
X228708645Y-111777180D01*
X228708645Y-111777180D02*
X228661026Y-111824800D01*
X228661026Y-111824800D02*
X228565788Y-111872419D01*
X228565788Y-111872419D02*
X228280074Y-111872419D01*
X228280074Y-111872419D02*
X228184836Y-111824800D01*
X228184836Y-111824800D02*
X228137217Y-111777180D01*
X229041979Y-110872419D02*
X229375312Y-111872419D01*
X229375312Y-111872419D02*
X229708645Y-110872419D01*
X227256265Y-118824800D02*
X227399122Y-118872419D01*
X227399122Y-118872419D02*
X227637217Y-118872419D01*
X227637217Y-118872419D02*
X227732455Y-118824800D01*
X227732455Y-118824800D02*
X227780074Y-118777180D01*
X227780074Y-118777180D02*
X227827693Y-118681942D01*
X227827693Y-118681942D02*
X227827693Y-118586704D01*
X227827693Y-118586704D02*
X227780074Y-118491466D01*
X227780074Y-118491466D02*
X227732455Y-118443847D01*
X227732455Y-118443847D02*
X227637217Y-118396228D01*
X227637217Y-118396228D02*
X227446741Y-118348609D01*
X227446741Y-118348609D02*
X227351503Y-118300990D01*
X227351503Y-118300990D02*
X227303884Y-118253371D01*
X227303884Y-118253371D02*
X227256265Y-118158133D01*
X227256265Y-118158133D02*
X227256265Y-118062895D01*
X227256265Y-118062895D02*
X227303884Y-117967657D01*
X227303884Y-117967657D02*
X227351503Y-117920038D01*
X227351503Y-117920038D02*
X227446741Y-117872419D01*
X227446741Y-117872419D02*
X227684836Y-117872419D01*
X227684836Y-117872419D02*
X227827693Y-117920038D01*
X228827693Y-118777180D02*
X228780074Y-118824800D01*
X228780074Y-118824800D02*
X228637217Y-118872419D01*
X228637217Y-118872419D02*
X228541979Y-118872419D01*
X228541979Y-118872419D02*
X228399122Y-118824800D01*
X228399122Y-118824800D02*
X228303884Y-118729561D01*
X228303884Y-118729561D02*
X228256265Y-118634323D01*
X228256265Y-118634323D02*
X228208646Y-118443847D01*
X228208646Y-118443847D02*
X228208646Y-118300990D01*
X228208646Y-118300990D02*
X228256265Y-118110514D01*
X228256265Y-118110514D02*
X228303884Y-118015276D01*
X228303884Y-118015276D02*
X228399122Y-117920038D01*
X228399122Y-117920038D02*
X228541979Y-117872419D01*
X228541979Y-117872419D02*
X228637217Y-117872419D01*
X228637217Y-117872419D02*
X228780074Y-117920038D01*
X228780074Y-117920038D02*
X228827693Y-117967657D01*
X229732455Y-118872419D02*
X229256265Y-118872419D01*
X229256265Y-118872419D02*
X229256265Y-117872419D01*
X227256265Y-121324800D02*
X227399122Y-121372419D01*
X227399122Y-121372419D02*
X227637217Y-121372419D01*
X227637217Y-121372419D02*
X227732455Y-121324800D01*
X227732455Y-121324800D02*
X227780074Y-121277180D01*
X227780074Y-121277180D02*
X227827693Y-121181942D01*
X227827693Y-121181942D02*
X227827693Y-121086704D01*
X227827693Y-121086704D02*
X227780074Y-120991466D01*
X227780074Y-120991466D02*
X227732455Y-120943847D01*
X227732455Y-120943847D02*
X227637217Y-120896228D01*
X227637217Y-120896228D02*
X227446741Y-120848609D01*
X227446741Y-120848609D02*
X227351503Y-120800990D01*
X227351503Y-120800990D02*
X227303884Y-120753371D01*
X227303884Y-120753371D02*
X227256265Y-120658133D01*
X227256265Y-120658133D02*
X227256265Y-120562895D01*
X227256265Y-120562895D02*
X227303884Y-120467657D01*
X227303884Y-120467657D02*
X227351503Y-120420038D01*
X227351503Y-120420038D02*
X227446741Y-120372419D01*
X227446741Y-120372419D02*
X227684836Y-120372419D01*
X227684836Y-120372419D02*
X227827693Y-120420038D01*
X228256265Y-121372419D02*
X228256265Y-120372419D01*
X228256265Y-120372419D02*
X228494360Y-120372419D01*
X228494360Y-120372419D02*
X228637217Y-120420038D01*
X228637217Y-120420038D02*
X228732455Y-120515276D01*
X228732455Y-120515276D02*
X228780074Y-120610514D01*
X228780074Y-120610514D02*
X228827693Y-120800990D01*
X228827693Y-120800990D02*
X228827693Y-120943847D01*
X228827693Y-120943847D02*
X228780074Y-121134323D01*
X228780074Y-121134323D02*
X228732455Y-121229561D01*
X228732455Y-121229561D02*
X228637217Y-121324800D01*
X228637217Y-121324800D02*
X228494360Y-121372419D01*
X228494360Y-121372419D02*
X228256265Y-121372419D01*
X229208646Y-121086704D02*
X229684836Y-121086704D01*
X229113408Y-121372419D02*
X229446741Y-120372419D01*
X229446741Y-120372419D02*
X229780074Y-121372419D01*
X227827693Y-123420038D02*
X227732455Y-123372419D01*
X227732455Y-123372419D02*
X227589598Y-123372419D01*
X227589598Y-123372419D02*
X227446741Y-123420038D01*
X227446741Y-123420038D02*
X227351503Y-123515276D01*
X227351503Y-123515276D02*
X227303884Y-123610514D01*
X227303884Y-123610514D02*
X227256265Y-123800990D01*
X227256265Y-123800990D02*
X227256265Y-123943847D01*
X227256265Y-123943847D02*
X227303884Y-124134323D01*
X227303884Y-124134323D02*
X227351503Y-124229561D01*
X227351503Y-124229561D02*
X227446741Y-124324800D01*
X227446741Y-124324800D02*
X227589598Y-124372419D01*
X227589598Y-124372419D02*
X227684836Y-124372419D01*
X227684836Y-124372419D02*
X227827693Y-124324800D01*
X227827693Y-124324800D02*
X227875312Y-124277180D01*
X227875312Y-124277180D02*
X227875312Y-123943847D01*
X227875312Y-123943847D02*
X227684836Y-123943847D01*
X228303884Y-124372419D02*
X228303884Y-123372419D01*
X228303884Y-123372419D02*
X228875312Y-124372419D01*
X228875312Y-124372419D02*
X228875312Y-123372419D01*
X229351503Y-124372419D02*
X229351503Y-123372419D01*
X229351503Y-123372419D02*
X229589598Y-123372419D01*
X229589598Y-123372419D02*
X229732455Y-123420038D01*
X229732455Y-123420038D02*
X229827693Y-123515276D01*
X229827693Y-123515276D02*
X229875312Y-123610514D01*
X229875312Y-123610514D02*
X229922931Y-123800990D01*
X229922931Y-123800990D02*
X229922931Y-123943847D01*
X229922931Y-123943847D02*
X229875312Y-124134323D01*
X229875312Y-124134323D02*
X229827693Y-124229561D01*
X229827693Y-124229561D02*
X229732455Y-124324800D01*
X229732455Y-124324800D02*
X229589598Y-124372419D01*
X229589598Y-124372419D02*
X229351503Y-124372419D01*
X227208646Y-126372419D02*
X227827693Y-126372419D01*
X227827693Y-126372419D02*
X227494360Y-126753371D01*
X227494360Y-126753371D02*
X227637217Y-126753371D01*
X227637217Y-126753371D02*
X227732455Y-126800990D01*
X227732455Y-126800990D02*
X227780074Y-126848609D01*
X227780074Y-126848609D02*
X227827693Y-126943847D01*
X227827693Y-126943847D02*
X227827693Y-127181942D01*
X227827693Y-127181942D02*
X227780074Y-127277180D01*
X227780074Y-127277180D02*
X227732455Y-127324800D01*
X227732455Y-127324800D02*
X227637217Y-127372419D01*
X227637217Y-127372419D02*
X227351503Y-127372419D01*
X227351503Y-127372419D02*
X227256265Y-127324800D01*
X227256265Y-127324800D02*
X227208646Y-127277180D01*
X228256265Y-127277180D02*
X228303884Y-127324800D01*
X228303884Y-127324800D02*
X228256265Y-127372419D01*
X228256265Y-127372419D02*
X228208646Y-127324800D01*
X228208646Y-127324800D02*
X228256265Y-127277180D01*
X228256265Y-127277180D02*
X228256265Y-127372419D01*
X228637217Y-126372419D02*
X229256264Y-126372419D01*
X229256264Y-126372419D02*
X228922931Y-126753371D01*
X228922931Y-126753371D02*
X229065788Y-126753371D01*
X229065788Y-126753371D02*
X229161026Y-126800990D01*
X229161026Y-126800990D02*
X229208645Y-126848609D01*
X229208645Y-126848609D02*
X229256264Y-126943847D01*
X229256264Y-126943847D02*
X229256264Y-127181942D01*
X229256264Y-127181942D02*
X229208645Y-127277180D01*
X229208645Y-127277180D02*
X229161026Y-127324800D01*
X229161026Y-127324800D02*
X229065788Y-127372419D01*
X229065788Y-127372419D02*
X228780074Y-127372419D01*
X228780074Y-127372419D02*
X228684836Y-127324800D01*
X228684836Y-127324800D02*
X228637217Y-127277180D01*
X229541979Y-126372419D02*
X229875312Y-127372419D01*
X229875312Y-127372419D02*
X230208645Y-126372419D01*
X228256265Y-73086704D02*
X228732455Y-73086704D01*
X228161027Y-73372419D02*
X228494360Y-72372419D01*
X228494360Y-72372419D02*
X228827693Y-73372419D01*
X229161027Y-72991466D02*
X229922932Y-72991466D01*
X229541979Y-73372419D02*
X229541979Y-72610514D01*
X228256265Y-75586704D02*
X228732455Y-75586704D01*
X228161027Y-75872419D02*
X228494360Y-74872419D01*
X228494360Y-74872419D02*
X228827693Y-75872419D01*
X229161027Y-75491466D02*
X229922932Y-75491466D01*
X228303884Y-77848609D02*
X228637217Y-77848609D01*
X228780074Y-78372419D02*
X228303884Y-78372419D01*
X228303884Y-78372419D02*
X228303884Y-77372419D01*
X228303884Y-77372419D02*
X228780074Y-77372419D01*
X229208646Y-77991466D02*
X229970551Y-77991466D01*
X228303884Y-80348609D02*
X228637217Y-80348609D01*
X228780074Y-80872419D02*
X228303884Y-80872419D01*
X228303884Y-80872419D02*
X228303884Y-79872419D01*
X228303884Y-79872419D02*
X228780074Y-79872419D01*
X229208646Y-80491466D02*
X229970551Y-80491466D01*
X229589598Y-80872419D02*
X229589598Y-80110514D01*
X228827693Y-82420038D02*
X228732455Y-82372419D01*
X228732455Y-82372419D02*
X228589598Y-82372419D01*
X228589598Y-82372419D02*
X228446741Y-82420038D01*
X228446741Y-82420038D02*
X228351503Y-82515276D01*
X228351503Y-82515276D02*
X228303884Y-82610514D01*
X228303884Y-82610514D02*
X228256265Y-82800990D01*
X228256265Y-82800990D02*
X228256265Y-82943847D01*
X228256265Y-82943847D02*
X228303884Y-83134323D01*
X228303884Y-83134323D02*
X228351503Y-83229561D01*
X228351503Y-83229561D02*
X228446741Y-83324800D01*
X228446741Y-83324800D02*
X228589598Y-83372419D01*
X228589598Y-83372419D02*
X228684836Y-83372419D01*
X228684836Y-83372419D02*
X228827693Y-83324800D01*
X228827693Y-83324800D02*
X228875312Y-83277180D01*
X228875312Y-83277180D02*
X228875312Y-82943847D01*
X228875312Y-82943847D02*
X228684836Y-82943847D01*
X229303884Y-83372419D02*
X229303884Y-82372419D01*
X229303884Y-82372419D02*
X229875312Y-83372419D01*
X229875312Y-83372419D02*
X229875312Y-82372419D01*
X230351503Y-83372419D02*
X230351503Y-82372419D01*
X230351503Y-82372419D02*
X230589598Y-82372419D01*
X230589598Y-82372419D02*
X230732455Y-82420038D01*
X230732455Y-82420038D02*
X230827693Y-82515276D01*
X230827693Y-82515276D02*
X230875312Y-82610514D01*
X230875312Y-82610514D02*
X230922931Y-82800990D01*
X230922931Y-82800990D02*
X230922931Y-82943847D01*
X230922931Y-82943847D02*
X230875312Y-83134323D01*
X230875312Y-83134323D02*
X230827693Y-83229561D01*
X230827693Y-83229561D02*
X230732455Y-83324800D01*
X230732455Y-83324800D02*
X230589598Y-83372419D01*
X230589598Y-83372419D02*
X230351503Y-83372419D01*
X229256265Y-50086704D02*
X229732455Y-50086704D01*
X229161027Y-50372419D02*
X229494360Y-49372419D01*
X229494360Y-49372419D02*
X229827693Y-50372419D01*
X230161027Y-49991466D02*
X230922932Y-49991466D01*
X230541979Y-50372419D02*
X230541979Y-49610514D01*
X229256265Y-52586704D02*
X229732455Y-52586704D01*
X229161027Y-52872419D02*
X229494360Y-51872419D01*
X229494360Y-51872419D02*
X229827693Y-52872419D01*
X230161027Y-52491466D02*
X230922932Y-52491466D01*
X229303884Y-54848609D02*
X229637217Y-54848609D01*
X229780074Y-55372419D02*
X229303884Y-55372419D01*
X229303884Y-55372419D02*
X229303884Y-54372419D01*
X229303884Y-54372419D02*
X229780074Y-54372419D01*
X230208646Y-54991466D02*
X230970551Y-54991466D01*
X229303884Y-57348609D02*
X229637217Y-57348609D01*
X229780074Y-57872419D02*
X229303884Y-57872419D01*
X229303884Y-57872419D02*
X229303884Y-56872419D01*
X229303884Y-56872419D02*
X229780074Y-56872419D01*
X230208646Y-57491466D02*
X230970551Y-57491466D01*
X230589598Y-57872419D02*
X230589598Y-57110514D01*
X229827693Y-59420038D02*
X229732455Y-59372419D01*
X229732455Y-59372419D02*
X229589598Y-59372419D01*
X229589598Y-59372419D02*
X229446741Y-59420038D01*
X229446741Y-59420038D02*
X229351503Y-59515276D01*
X229351503Y-59515276D02*
X229303884Y-59610514D01*
X229303884Y-59610514D02*
X229256265Y-59800990D01*
X229256265Y-59800990D02*
X229256265Y-59943847D01*
X229256265Y-59943847D02*
X229303884Y-60134323D01*
X229303884Y-60134323D02*
X229351503Y-60229561D01*
X229351503Y-60229561D02*
X229446741Y-60324800D01*
X229446741Y-60324800D02*
X229589598Y-60372419D01*
X229589598Y-60372419D02*
X229684836Y-60372419D01*
X229684836Y-60372419D02*
X229827693Y-60324800D01*
X229827693Y-60324800D02*
X229875312Y-60277180D01*
X229875312Y-60277180D02*
X229875312Y-59943847D01*
X229875312Y-59943847D02*
X229684836Y-59943847D01*
X230303884Y-60372419D02*
X230303884Y-59372419D01*
X230303884Y-59372419D02*
X230875312Y-60372419D01*
X230875312Y-60372419D02*
X230875312Y-59372419D01*
X231351503Y-60372419D02*
X231351503Y-59372419D01*
X231351503Y-59372419D02*
X231589598Y-59372419D01*
X231589598Y-59372419D02*
X231732455Y-59420038D01*
X231732455Y-59420038D02*
X231827693Y-59515276D01*
X231827693Y-59515276D02*
X231875312Y-59610514D01*
X231875312Y-59610514D02*
X231922931Y-59800990D01*
X231922931Y-59800990D02*
X231922931Y-59943847D01*
X231922931Y-59943847D02*
X231875312Y-60134323D01*
X231875312Y-60134323D02*
X231827693Y-60229561D01*
X231827693Y-60229561D02*
X231732455Y-60324800D01*
X231732455Y-60324800D02*
X231589598Y-60372419D01*
X231589598Y-60372419D02*
X231351503Y-60372419D01*
X231327693Y-90920038D02*
X231232455Y-90872419D01*
X231232455Y-90872419D02*
X231089598Y-90872419D01*
X231089598Y-90872419D02*
X230946741Y-90920038D01*
X230946741Y-90920038D02*
X230851503Y-91015276D01*
X230851503Y-91015276D02*
X230803884Y-91110514D01*
X230803884Y-91110514D02*
X230756265Y-91300990D01*
X230756265Y-91300990D02*
X230756265Y-91443847D01*
X230756265Y-91443847D02*
X230803884Y-91634323D01*
X230803884Y-91634323D02*
X230851503Y-91729561D01*
X230851503Y-91729561D02*
X230946741Y-91824800D01*
X230946741Y-91824800D02*
X231089598Y-91872419D01*
X231089598Y-91872419D02*
X231184836Y-91872419D01*
X231184836Y-91872419D02*
X231327693Y-91824800D01*
X231327693Y-91824800D02*
X231375312Y-91777180D01*
X231375312Y-91777180D02*
X231375312Y-91443847D01*
X231375312Y-91443847D02*
X231184836Y-91443847D01*
X231803884Y-91872419D02*
X231803884Y-90872419D01*
X231803884Y-90872419D02*
X232375312Y-91872419D01*
X232375312Y-91872419D02*
X232375312Y-90872419D01*
X232851503Y-91872419D02*
X232851503Y-90872419D01*
X232851503Y-90872419D02*
X233089598Y-90872419D01*
X233089598Y-90872419D02*
X233232455Y-90920038D01*
X233232455Y-90920038D02*
X233327693Y-91015276D01*
X233327693Y-91015276D02*
X233375312Y-91110514D01*
X233375312Y-91110514D02*
X233422931Y-91300990D01*
X233422931Y-91300990D02*
X233422931Y-91443847D01*
X233422931Y-91443847D02*
X233375312Y-91634323D01*
X233375312Y-91634323D02*
X233327693Y-91729561D01*
X233327693Y-91729561D02*
X233232455Y-91824800D01*
X233232455Y-91824800D02*
X233089598Y-91872419D01*
X233089598Y-91872419D02*
X232851503Y-91872419D01*
X230708646Y-93372419D02*
X231327693Y-93372419D01*
X231327693Y-93372419D02*
X230994360Y-93753371D01*
X230994360Y-93753371D02*
X231137217Y-93753371D01*
X231137217Y-93753371D02*
X231232455Y-93800990D01*
X231232455Y-93800990D02*
X231280074Y-93848609D01*
X231280074Y-93848609D02*
X231327693Y-93943847D01*
X231327693Y-93943847D02*
X231327693Y-94181942D01*
X231327693Y-94181942D02*
X231280074Y-94277180D01*
X231280074Y-94277180D02*
X231232455Y-94324800D01*
X231232455Y-94324800D02*
X231137217Y-94372419D01*
X231137217Y-94372419D02*
X230851503Y-94372419D01*
X230851503Y-94372419D02*
X230756265Y-94324800D01*
X230756265Y-94324800D02*
X230708646Y-94277180D01*
X231756265Y-94277180D02*
X231803884Y-94324800D01*
X231803884Y-94324800D02*
X231756265Y-94372419D01*
X231756265Y-94372419D02*
X231708646Y-94324800D01*
X231708646Y-94324800D02*
X231756265Y-94277180D01*
X231756265Y-94277180D02*
X231756265Y-94372419D01*
X232137217Y-93372419D02*
X232756264Y-93372419D01*
X232756264Y-93372419D02*
X232422931Y-93753371D01*
X232422931Y-93753371D02*
X232565788Y-93753371D01*
X232565788Y-93753371D02*
X232661026Y-93800990D01*
X232661026Y-93800990D02*
X232708645Y-93848609D01*
X232708645Y-93848609D02*
X232756264Y-93943847D01*
X232756264Y-93943847D02*
X232756264Y-94181942D01*
X232756264Y-94181942D02*
X232708645Y-94277180D01*
X232708645Y-94277180D02*
X232661026Y-94324800D01*
X232661026Y-94324800D02*
X232565788Y-94372419D01*
X232565788Y-94372419D02*
X232280074Y-94372419D01*
X232280074Y-94372419D02*
X232184836Y-94324800D01*
X232184836Y-94324800D02*
X232137217Y-94277180D01*
X233041979Y-93372419D02*
X233375312Y-94372419D01*
X233375312Y-94372419D02*
X233708645Y-93372419D01*
X230756265Y-96824800D02*
X230899122Y-96872419D01*
X230899122Y-96872419D02*
X231137217Y-96872419D01*
X231137217Y-96872419D02*
X231232455Y-96824800D01*
X231232455Y-96824800D02*
X231280074Y-96777180D01*
X231280074Y-96777180D02*
X231327693Y-96681942D01*
X231327693Y-96681942D02*
X231327693Y-96586704D01*
X231327693Y-96586704D02*
X231280074Y-96491466D01*
X231280074Y-96491466D02*
X231232455Y-96443847D01*
X231232455Y-96443847D02*
X231137217Y-96396228D01*
X231137217Y-96396228D02*
X230946741Y-96348609D01*
X230946741Y-96348609D02*
X230851503Y-96300990D01*
X230851503Y-96300990D02*
X230803884Y-96253371D01*
X230803884Y-96253371D02*
X230756265Y-96158133D01*
X230756265Y-96158133D02*
X230756265Y-96062895D01*
X230756265Y-96062895D02*
X230803884Y-95967657D01*
X230803884Y-95967657D02*
X230851503Y-95920038D01*
X230851503Y-95920038D02*
X230946741Y-95872419D01*
X230946741Y-95872419D02*
X231184836Y-95872419D01*
X231184836Y-95872419D02*
X231327693Y-95920038D01*
X231756265Y-96872419D02*
X231756265Y-95872419D01*
X231756265Y-95872419D02*
X231994360Y-95872419D01*
X231994360Y-95872419D02*
X232137217Y-95920038D01*
X232137217Y-95920038D02*
X232232455Y-96015276D01*
X232232455Y-96015276D02*
X232280074Y-96110514D01*
X232280074Y-96110514D02*
X232327693Y-96300990D01*
X232327693Y-96300990D02*
X232327693Y-96443847D01*
X232327693Y-96443847D02*
X232280074Y-96634323D01*
X232280074Y-96634323D02*
X232232455Y-96729561D01*
X232232455Y-96729561D02*
X232137217Y-96824800D01*
X232137217Y-96824800D02*
X231994360Y-96872419D01*
X231994360Y-96872419D02*
X231756265Y-96872419D01*
X232708646Y-96586704D02*
X233184836Y-96586704D01*
X232613408Y-96872419D02*
X232946741Y-95872419D01*
X232946741Y-95872419D02*
X233280074Y-96872419D01*
X234327694Y-95967657D02*
X234375313Y-95920038D01*
X234375313Y-95920038D02*
X234470551Y-95872419D01*
X234470551Y-95872419D02*
X234708646Y-95872419D01*
X234708646Y-95872419D02*
X234803884Y-95920038D01*
X234803884Y-95920038D02*
X234851503Y-95967657D01*
X234851503Y-95967657D02*
X234899122Y-96062895D01*
X234899122Y-96062895D02*
X234899122Y-96158133D01*
X234899122Y-96158133D02*
X234851503Y-96300990D01*
X234851503Y-96300990D02*
X234280075Y-96872419D01*
X234280075Y-96872419D02*
X234899122Y-96872419D01*
X235851503Y-96872419D02*
X235280075Y-96872419D01*
X235565789Y-96872419D02*
X235565789Y-95872419D01*
X235565789Y-95872419D02*
X235470551Y-96015276D01*
X235470551Y-96015276D02*
X235375313Y-96110514D01*
X235375313Y-96110514D02*
X235280075Y-96158133D01*
X230756265Y-99824800D02*
X230899122Y-99872419D01*
X230899122Y-99872419D02*
X231137217Y-99872419D01*
X231137217Y-99872419D02*
X231232455Y-99824800D01*
X231232455Y-99824800D02*
X231280074Y-99777180D01*
X231280074Y-99777180D02*
X231327693Y-99681942D01*
X231327693Y-99681942D02*
X231327693Y-99586704D01*
X231327693Y-99586704D02*
X231280074Y-99491466D01*
X231280074Y-99491466D02*
X231232455Y-99443847D01*
X231232455Y-99443847D02*
X231137217Y-99396228D01*
X231137217Y-99396228D02*
X230946741Y-99348609D01*
X230946741Y-99348609D02*
X230851503Y-99300990D01*
X230851503Y-99300990D02*
X230803884Y-99253371D01*
X230803884Y-99253371D02*
X230756265Y-99158133D01*
X230756265Y-99158133D02*
X230756265Y-99062895D01*
X230756265Y-99062895D02*
X230803884Y-98967657D01*
X230803884Y-98967657D02*
X230851503Y-98920038D01*
X230851503Y-98920038D02*
X230946741Y-98872419D01*
X230946741Y-98872419D02*
X231184836Y-98872419D01*
X231184836Y-98872419D02*
X231327693Y-98920038D01*
X232327693Y-99777180D02*
X232280074Y-99824800D01*
X232280074Y-99824800D02*
X232137217Y-99872419D01*
X232137217Y-99872419D02*
X232041979Y-99872419D01*
X232041979Y-99872419D02*
X231899122Y-99824800D01*
X231899122Y-99824800D02*
X231803884Y-99729561D01*
X231803884Y-99729561D02*
X231756265Y-99634323D01*
X231756265Y-99634323D02*
X231708646Y-99443847D01*
X231708646Y-99443847D02*
X231708646Y-99300990D01*
X231708646Y-99300990D02*
X231756265Y-99110514D01*
X231756265Y-99110514D02*
X231803884Y-99015276D01*
X231803884Y-99015276D02*
X231899122Y-98920038D01*
X231899122Y-98920038D02*
X232041979Y-98872419D01*
X232041979Y-98872419D02*
X232137217Y-98872419D01*
X232137217Y-98872419D02*
X232280074Y-98920038D01*
X232280074Y-98920038D02*
X232327693Y-98967657D01*
X233232455Y-99872419D02*
X232756265Y-99872419D01*
X232756265Y-99872419D02*
X232756265Y-98872419D01*
X234280075Y-98967657D02*
X234327694Y-98920038D01*
X234327694Y-98920038D02*
X234422932Y-98872419D01*
X234422932Y-98872419D02*
X234661027Y-98872419D01*
X234661027Y-98872419D02*
X234756265Y-98920038D01*
X234756265Y-98920038D02*
X234803884Y-98967657D01*
X234803884Y-98967657D02*
X234851503Y-99062895D01*
X234851503Y-99062895D02*
X234851503Y-99158133D01*
X234851503Y-99158133D02*
X234803884Y-99300990D01*
X234803884Y-99300990D02*
X234232456Y-99872419D01*
X234232456Y-99872419D02*
X234851503Y-99872419D01*
X235232456Y-98967657D02*
X235280075Y-98920038D01*
X235280075Y-98920038D02*
X235375313Y-98872419D01*
X235375313Y-98872419D02*
X235613408Y-98872419D01*
X235613408Y-98872419D02*
X235708646Y-98920038D01*
X235708646Y-98920038D02*
X235756265Y-98967657D01*
X235756265Y-98967657D02*
X235803884Y-99062895D01*
X235803884Y-99062895D02*
X235803884Y-99158133D01*
X235803884Y-99158133D02*
X235756265Y-99300990D01*
X235756265Y-99300990D02*
X235184837Y-99872419D01*
X235184837Y-99872419D02*
X235803884Y-99872419D01*
X193261905Y-95848609D02*
X193595238Y-95848609D01*
X193738095Y-96372419D02*
X193261905Y-96372419D01*
X193261905Y-96372419D02*
X193261905Y-95372419D01*
X193261905Y-95372419D02*
X193738095Y-95372419D01*
X194119048Y-96324800D02*
X194261905Y-96372419D01*
X194261905Y-96372419D02*
X194500000Y-96372419D01*
X194500000Y-96372419D02*
X194595238Y-96324800D01*
X194595238Y-96324800D02*
X194642857Y-96277180D01*
X194642857Y-96277180D02*
X194690476Y-96181942D01*
X194690476Y-96181942D02*
X194690476Y-96086704D01*
X194690476Y-96086704D02*
X194642857Y-95991466D01*
X194642857Y-95991466D02*
X194595238Y-95943847D01*
X194595238Y-95943847D02*
X194500000Y-95896228D01*
X194500000Y-95896228D02*
X194309524Y-95848609D01*
X194309524Y-95848609D02*
X194214286Y-95800990D01*
X194214286Y-95800990D02*
X194166667Y-95753371D01*
X194166667Y-95753371D02*
X194119048Y-95658133D01*
X194119048Y-95658133D02*
X194119048Y-95562895D01*
X194119048Y-95562895D02*
X194166667Y-95467657D01*
X194166667Y-95467657D02*
X194214286Y-95420038D01*
X194214286Y-95420038D02*
X194309524Y-95372419D01*
X194309524Y-95372419D02*
X194547619Y-95372419D01*
X194547619Y-95372419D02*
X194690476Y-95420038D01*
X195119048Y-96372419D02*
X195119048Y-95372419D01*
X195119048Y-95372419D02*
X195500000Y-95372419D01*
X195500000Y-95372419D02*
X195595238Y-95420038D01*
X195595238Y-95420038D02*
X195642857Y-95467657D01*
X195642857Y-95467657D02*
X195690476Y-95562895D01*
X195690476Y-95562895D02*
X195690476Y-95705752D01*
X195690476Y-95705752D02*
X195642857Y-95800990D01*
X195642857Y-95800990D02*
X195595238Y-95848609D01*
X195595238Y-95848609D02*
X195500000Y-95896228D01*
X195500000Y-95896228D02*
X195119048Y-95896228D01*
X196023810Y-95372419D02*
X196642857Y-95372419D01*
X196642857Y-95372419D02*
X196309524Y-95753371D01*
X196309524Y-95753371D02*
X196452381Y-95753371D01*
X196452381Y-95753371D02*
X196547619Y-95800990D01*
X196547619Y-95800990D02*
X196595238Y-95848609D01*
X196595238Y-95848609D02*
X196642857Y-95943847D01*
X196642857Y-95943847D02*
X196642857Y-96181942D01*
X196642857Y-96181942D02*
X196595238Y-96277180D01*
X196595238Y-96277180D02*
X196547619Y-96324800D01*
X196547619Y-96324800D02*
X196452381Y-96372419D01*
X196452381Y-96372419D02*
X196166667Y-96372419D01*
X196166667Y-96372419D02*
X196071429Y-96324800D01*
X196071429Y-96324800D02*
X196023810Y-96277180D01*
X197023810Y-95467657D02*
X197071429Y-95420038D01*
X197071429Y-95420038D02*
X197166667Y-95372419D01*
X197166667Y-95372419D02*
X197404762Y-95372419D01*
X197404762Y-95372419D02*
X197500000Y-95420038D01*
X197500000Y-95420038D02*
X197547619Y-95467657D01*
X197547619Y-95467657D02*
X197595238Y-95562895D01*
X197595238Y-95562895D02*
X197595238Y-95658133D01*
X197595238Y-95658133D02*
X197547619Y-95800990D01*
X197547619Y-95800990D02*
X196976191Y-96372419D01*
X196976191Y-96372419D02*
X197595238Y-96372419D01*
X198690477Y-95372419D02*
X199309524Y-95372419D01*
X199309524Y-95372419D02*
X198976191Y-95753371D01*
X198976191Y-95753371D02*
X199119048Y-95753371D01*
X199119048Y-95753371D02*
X199214286Y-95800990D01*
X199214286Y-95800990D02*
X199261905Y-95848609D01*
X199261905Y-95848609D02*
X199309524Y-95943847D01*
X199309524Y-95943847D02*
X199309524Y-96181942D01*
X199309524Y-96181942D02*
X199261905Y-96277180D01*
X199261905Y-96277180D02*
X199214286Y-96324800D01*
X199214286Y-96324800D02*
X199119048Y-96372419D01*
X199119048Y-96372419D02*
X198833334Y-96372419D01*
X198833334Y-96372419D02*
X198738096Y-96324800D01*
X198738096Y-96324800D02*
X198690477Y-96277180D01*
X199928572Y-95372419D02*
X200023810Y-95372419D01*
X200023810Y-95372419D02*
X200119048Y-95420038D01*
X200119048Y-95420038D02*
X200166667Y-95467657D01*
X200166667Y-95467657D02*
X200214286Y-95562895D01*
X200214286Y-95562895D02*
X200261905Y-95753371D01*
X200261905Y-95753371D02*
X200261905Y-95991466D01*
X200261905Y-95991466D02*
X200214286Y-96181942D01*
X200214286Y-96181942D02*
X200166667Y-96277180D01*
X200166667Y-96277180D02*
X200119048Y-96324800D01*
X200119048Y-96324800D02*
X200023810Y-96372419D01*
X200023810Y-96372419D02*
X199928572Y-96372419D01*
X199928572Y-96372419D02*
X199833334Y-96324800D01*
X199833334Y-96324800D02*
X199785715Y-96277180D01*
X199785715Y-96277180D02*
X199738096Y-96181942D01*
X199738096Y-96181942D02*
X199690477Y-95991466D01*
X199690477Y-95991466D02*
X199690477Y-95753371D01*
X199690477Y-95753371D02*
X199738096Y-95562895D01*
X199738096Y-95562895D02*
X199785715Y-95467657D01*
X199785715Y-95467657D02*
X199833334Y-95420038D01*
X199833334Y-95420038D02*
X199928572Y-95372419D01*
X200690477Y-96372419D02*
X200690477Y-95372419D01*
X200690477Y-95372419D02*
X201071429Y-95372419D01*
X201071429Y-95372419D02*
X201166667Y-95420038D01*
X201166667Y-95420038D02*
X201214286Y-95467657D01*
X201214286Y-95467657D02*
X201261905Y-95562895D01*
X201261905Y-95562895D02*
X201261905Y-95705752D01*
X201261905Y-95705752D02*
X201214286Y-95800990D01*
X201214286Y-95800990D02*
X201166667Y-95848609D01*
X201166667Y-95848609D02*
X201071429Y-95896228D01*
X201071429Y-95896228D02*
X200690477Y-95896228D01*
X201690477Y-96372419D02*
X201690477Y-95372419D01*
X202166667Y-96372419D02*
X202166667Y-95372419D01*
X202166667Y-95372419D02*
X202738095Y-96372419D01*
X202738095Y-96372419D02*
X202738095Y-95372419D01*
X195023809Y-43372419D02*
X195023809Y-42372419D01*
X195023809Y-42848609D02*
X195595237Y-42848609D01*
X195595237Y-43372419D02*
X195595237Y-42372419D01*
X195976190Y-42372419D02*
X196642856Y-43372419D01*
X196642856Y-42372419D02*
X195976190Y-43372419D01*
X196928571Y-42372419D02*
X197595237Y-42372419D01*
X197595237Y-42372419D02*
X197166666Y-43372419D01*
X198499999Y-43372419D02*
X197928571Y-43372419D01*
X198214285Y-43372419D02*
X198214285Y-42372419D01*
X198214285Y-42372419D02*
X198119047Y-42515276D01*
X198119047Y-42515276D02*
X198023809Y-42610514D01*
X198023809Y-42610514D02*
X197928571Y-42658133D01*
X199452380Y-43372419D02*
X198880952Y-43372419D01*
X199166666Y-43372419D02*
X199166666Y-42372419D01*
X199166666Y-42372419D02*
X199071428Y-42515276D01*
X199071428Y-42515276D02*
X198976190Y-42610514D01*
X198976190Y-42610514D02*
X198880952Y-42658133D01*
X200595238Y-43324800D02*
X200738095Y-43372419D01*
X200738095Y-43372419D02*
X200976190Y-43372419D01*
X200976190Y-43372419D02*
X201071428Y-43324800D01*
X201071428Y-43324800D02*
X201119047Y-43277180D01*
X201119047Y-43277180D02*
X201166666Y-43181942D01*
X201166666Y-43181942D02*
X201166666Y-43086704D01*
X201166666Y-43086704D02*
X201119047Y-42991466D01*
X201119047Y-42991466D02*
X201071428Y-42943847D01*
X201071428Y-42943847D02*
X200976190Y-42896228D01*
X200976190Y-42896228D02*
X200785714Y-42848609D01*
X200785714Y-42848609D02*
X200690476Y-42800990D01*
X200690476Y-42800990D02*
X200642857Y-42753371D01*
X200642857Y-42753371D02*
X200595238Y-42658133D01*
X200595238Y-42658133D02*
X200595238Y-42562895D01*
X200595238Y-42562895D02*
X200642857Y-42467657D01*
X200642857Y-42467657D02*
X200690476Y-42420038D01*
X200690476Y-42420038D02*
X200785714Y-42372419D01*
X200785714Y-42372419D02*
X201023809Y-42372419D01*
X201023809Y-42372419D02*
X201166666Y-42420038D01*
X202023809Y-43324800D02*
X201928571Y-43372419D01*
X201928571Y-43372419D02*
X201738095Y-43372419D01*
X201738095Y-43372419D02*
X201642857Y-43324800D01*
X201642857Y-43324800D02*
X201595238Y-43277180D01*
X201595238Y-43277180D02*
X201547619Y-43181942D01*
X201547619Y-43181942D02*
X201547619Y-42896228D01*
X201547619Y-42896228D02*
X201595238Y-42800990D01*
X201595238Y-42800990D02*
X201642857Y-42753371D01*
X201642857Y-42753371D02*
X201738095Y-42705752D01*
X201738095Y-42705752D02*
X201928571Y-42705752D01*
X201928571Y-42705752D02*
X202023809Y-42753371D01*
X202880952Y-43372419D02*
X202880952Y-42848609D01*
X202880952Y-42848609D02*
X202833333Y-42753371D01*
X202833333Y-42753371D02*
X202738095Y-42705752D01*
X202738095Y-42705752D02*
X202547619Y-42705752D01*
X202547619Y-42705752D02*
X202452381Y-42753371D01*
X202880952Y-43324800D02*
X202785714Y-43372419D01*
X202785714Y-43372419D02*
X202547619Y-43372419D01*
X202547619Y-43372419D02*
X202452381Y-43324800D01*
X202452381Y-43324800D02*
X202404762Y-43229561D01*
X202404762Y-43229561D02*
X202404762Y-43134323D01*
X202404762Y-43134323D02*
X202452381Y-43039085D01*
X202452381Y-43039085D02*
X202547619Y-42991466D01*
X202547619Y-42991466D02*
X202785714Y-42991466D01*
X202785714Y-42991466D02*
X202880952Y-42943847D01*
X203500000Y-43372419D02*
X203404762Y-43324800D01*
X203404762Y-43324800D02*
X203357143Y-43229561D01*
X203357143Y-43229561D02*
X203357143Y-42372419D01*
X204261905Y-43324800D02*
X204166667Y-43372419D01*
X204166667Y-43372419D02*
X203976191Y-43372419D01*
X203976191Y-43372419D02*
X203880953Y-43324800D01*
X203880953Y-43324800D02*
X203833334Y-43229561D01*
X203833334Y-43229561D02*
X203833334Y-42848609D01*
X203833334Y-42848609D02*
X203880953Y-42753371D01*
X203880953Y-42753371D02*
X203976191Y-42705752D01*
X203976191Y-42705752D02*
X204166667Y-42705752D01*
X204166667Y-42705752D02*
X204261905Y-42753371D01*
X204261905Y-42753371D02*
X204309524Y-42848609D01*
X204309524Y-42848609D02*
X204309524Y-42943847D01*
X204309524Y-42943847D02*
X203833334Y-43039085D01*
X206023810Y-43372419D02*
X205452382Y-43372419D01*
X205738096Y-43372419D02*
X205738096Y-42372419D01*
X205738096Y-42372419D02*
X205642858Y-42515276D01*
X205642858Y-42515276D02*
X205547620Y-42610514D01*
X205547620Y-42610514D02*
X205452382Y-42658133D01*
X195498809Y-66622419D02*
X195498809Y-65622419D01*
X195498809Y-66098609D02*
X196070237Y-66098609D01*
X196070237Y-66622419D02*
X196070237Y-65622419D01*
X196451190Y-65622419D02*
X197117856Y-66622419D01*
X197117856Y-65622419D02*
X196451190Y-66622419D01*
X197403571Y-65622419D02*
X198070237Y-65622419D01*
X198070237Y-65622419D02*
X197641666Y-66622419D01*
X198974999Y-66622419D02*
X198403571Y-66622419D01*
X198689285Y-66622419D02*
X198689285Y-65622419D01*
X198689285Y-65622419D02*
X198594047Y-65765276D01*
X198594047Y-65765276D02*
X198498809Y-65860514D01*
X198498809Y-65860514D02*
X198403571Y-65908133D01*
X199927380Y-66622419D02*
X199355952Y-66622419D01*
X199641666Y-66622419D02*
X199641666Y-65622419D01*
X199641666Y-65622419D02*
X199546428Y-65765276D01*
X199546428Y-65765276D02*
X199451190Y-65860514D01*
X199451190Y-65860514D02*
X199355952Y-65908133D01*
X201070238Y-66574800D02*
X201213095Y-66622419D01*
X201213095Y-66622419D02*
X201451190Y-66622419D01*
X201451190Y-66622419D02*
X201546428Y-66574800D01*
X201546428Y-66574800D02*
X201594047Y-66527180D01*
X201594047Y-66527180D02*
X201641666Y-66431942D01*
X201641666Y-66431942D02*
X201641666Y-66336704D01*
X201641666Y-66336704D02*
X201594047Y-66241466D01*
X201594047Y-66241466D02*
X201546428Y-66193847D01*
X201546428Y-66193847D02*
X201451190Y-66146228D01*
X201451190Y-66146228D02*
X201260714Y-66098609D01*
X201260714Y-66098609D02*
X201165476Y-66050990D01*
X201165476Y-66050990D02*
X201117857Y-66003371D01*
X201117857Y-66003371D02*
X201070238Y-65908133D01*
X201070238Y-65908133D02*
X201070238Y-65812895D01*
X201070238Y-65812895D02*
X201117857Y-65717657D01*
X201117857Y-65717657D02*
X201165476Y-65670038D01*
X201165476Y-65670038D02*
X201260714Y-65622419D01*
X201260714Y-65622419D02*
X201498809Y-65622419D01*
X201498809Y-65622419D02*
X201641666Y-65670038D01*
X202498809Y-66574800D02*
X202403571Y-66622419D01*
X202403571Y-66622419D02*
X202213095Y-66622419D01*
X202213095Y-66622419D02*
X202117857Y-66574800D01*
X202117857Y-66574800D02*
X202070238Y-66527180D01*
X202070238Y-66527180D02*
X202022619Y-66431942D01*
X202022619Y-66431942D02*
X202022619Y-66146228D01*
X202022619Y-66146228D02*
X202070238Y-66050990D01*
X202070238Y-66050990D02*
X202117857Y-66003371D01*
X202117857Y-66003371D02*
X202213095Y-65955752D01*
X202213095Y-65955752D02*
X202403571Y-65955752D01*
X202403571Y-65955752D02*
X202498809Y-66003371D01*
X203355952Y-66622419D02*
X203355952Y-66098609D01*
X203355952Y-66098609D02*
X203308333Y-66003371D01*
X203308333Y-66003371D02*
X203213095Y-65955752D01*
X203213095Y-65955752D02*
X203022619Y-65955752D01*
X203022619Y-65955752D02*
X202927381Y-66003371D01*
X203355952Y-66574800D02*
X203260714Y-66622419D01*
X203260714Y-66622419D02*
X203022619Y-66622419D01*
X203022619Y-66622419D02*
X202927381Y-66574800D01*
X202927381Y-66574800D02*
X202879762Y-66479561D01*
X202879762Y-66479561D02*
X202879762Y-66384323D01*
X202879762Y-66384323D02*
X202927381Y-66289085D01*
X202927381Y-66289085D02*
X203022619Y-66241466D01*
X203022619Y-66241466D02*
X203260714Y-66241466D01*
X203260714Y-66241466D02*
X203355952Y-66193847D01*
X203975000Y-66622419D02*
X203879762Y-66574800D01*
X203879762Y-66574800D02*
X203832143Y-66479561D01*
X203832143Y-66479561D02*
X203832143Y-65622419D01*
X204736905Y-66574800D02*
X204641667Y-66622419D01*
X204641667Y-66622419D02*
X204451191Y-66622419D01*
X204451191Y-66622419D02*
X204355953Y-66574800D01*
X204355953Y-66574800D02*
X204308334Y-66479561D01*
X204308334Y-66479561D02*
X204308334Y-66098609D01*
X204308334Y-66098609D02*
X204355953Y-66003371D01*
X204355953Y-66003371D02*
X204451191Y-65955752D01*
X204451191Y-65955752D02*
X204641667Y-65955752D01*
X204641667Y-65955752D02*
X204736905Y-66003371D01*
X204736905Y-66003371D02*
X204784524Y-66098609D01*
X204784524Y-66098609D02*
X204784524Y-66193847D01*
X204784524Y-66193847D02*
X204308334Y-66289085D01*
X205927382Y-65717657D02*
X205975001Y-65670038D01*
X205975001Y-65670038D02*
X206070239Y-65622419D01*
X206070239Y-65622419D02*
X206308334Y-65622419D01*
X206308334Y-65622419D02*
X206403572Y-65670038D01*
X206403572Y-65670038D02*
X206451191Y-65717657D01*
X206451191Y-65717657D02*
X206498810Y-65812895D01*
X206498810Y-65812895D02*
X206498810Y-65908133D01*
X206498810Y-65908133D02*
X206451191Y-66050990D01*
X206451191Y-66050990D02*
X205879763Y-66622419D01*
X205879763Y-66622419D02*
X206498810Y-66622419D01*
X166420038Y-109672306D02*
X166372419Y-109767544D01*
X166372419Y-109767544D02*
X166372419Y-109910401D01*
X166372419Y-109910401D02*
X166420038Y-110053258D01*
X166420038Y-110053258D02*
X166515276Y-110148496D01*
X166515276Y-110148496D02*
X166610514Y-110196115D01*
X166610514Y-110196115D02*
X166800990Y-110243734D01*
X166800990Y-110243734D02*
X166943847Y-110243734D01*
X166943847Y-110243734D02*
X167134323Y-110196115D01*
X167134323Y-110196115D02*
X167229561Y-110148496D01*
X167229561Y-110148496D02*
X167324800Y-110053258D01*
X167324800Y-110053258D02*
X167372419Y-109910401D01*
X167372419Y-109910401D02*
X167372419Y-109815163D01*
X167372419Y-109815163D02*
X167324800Y-109672306D01*
X167324800Y-109672306D02*
X167277180Y-109624687D01*
X167277180Y-109624687D02*
X166943847Y-109624687D01*
X166943847Y-109624687D02*
X166943847Y-109815163D01*
X167372419Y-109196115D02*
X166372419Y-109196115D01*
X166372419Y-109196115D02*
X167372419Y-108624687D01*
X167372419Y-108624687D02*
X166372419Y-108624687D01*
X167372419Y-108148496D02*
X166372419Y-108148496D01*
X166372419Y-108148496D02*
X166372419Y-107910401D01*
X166372419Y-107910401D02*
X166420038Y-107767544D01*
X166420038Y-107767544D02*
X166515276Y-107672306D01*
X166515276Y-107672306D02*
X166610514Y-107624687D01*
X166610514Y-107624687D02*
X166800990Y-107577068D01*
X166800990Y-107577068D02*
X166943847Y-107577068D01*
X166943847Y-107577068D02*
X167134323Y-107624687D01*
X167134323Y-107624687D02*
X167229561Y-107672306D01*
X167229561Y-107672306D02*
X167324800Y-107767544D01*
X167324800Y-107767544D02*
X167372419Y-107910401D01*
X167372419Y-107910401D02*
X167372419Y-108148496D01*
X166372419Y-115791353D02*
X166372419Y-115172306D01*
X166372419Y-115172306D02*
X166753371Y-115505639D01*
X166753371Y-115505639D02*
X166753371Y-115362782D01*
X166753371Y-115362782D02*
X166800990Y-115267544D01*
X166800990Y-115267544D02*
X166848609Y-115219925D01*
X166848609Y-115219925D02*
X166943847Y-115172306D01*
X166943847Y-115172306D02*
X167181942Y-115172306D01*
X167181942Y-115172306D02*
X167277180Y-115219925D01*
X167277180Y-115219925D02*
X167324800Y-115267544D01*
X167324800Y-115267544D02*
X167372419Y-115362782D01*
X167372419Y-115362782D02*
X167372419Y-115648496D01*
X167372419Y-115648496D02*
X167324800Y-115743734D01*
X167324800Y-115743734D02*
X167277180Y-115791353D01*
X167277180Y-114743734D02*
X167324800Y-114696115D01*
X167324800Y-114696115D02*
X167372419Y-114743734D01*
X167372419Y-114743734D02*
X167324800Y-114791353D01*
X167324800Y-114791353D02*
X167277180Y-114743734D01*
X167277180Y-114743734D02*
X167372419Y-114743734D01*
X166372419Y-114362782D02*
X166372419Y-113743735D01*
X166372419Y-113743735D02*
X166753371Y-114077068D01*
X166753371Y-114077068D02*
X166753371Y-113934211D01*
X166753371Y-113934211D02*
X166800990Y-113838973D01*
X166800990Y-113838973D02*
X166848609Y-113791354D01*
X166848609Y-113791354D02*
X166943847Y-113743735D01*
X166943847Y-113743735D02*
X167181942Y-113743735D01*
X167181942Y-113743735D02*
X167277180Y-113791354D01*
X167277180Y-113791354D02*
X167324800Y-113838973D01*
X167324800Y-113838973D02*
X167372419Y-113934211D01*
X167372419Y-113934211D02*
X167372419Y-114219925D01*
X167372419Y-114219925D02*
X167324800Y-114315163D01*
X167324800Y-114315163D02*
X167277180Y-114362782D01*
X166372419Y-113458020D02*
X167372419Y-113124687D01*
X167372419Y-113124687D02*
X166372419Y-112791354D01*
X167324800Y-119243734D02*
X167372419Y-119100877D01*
X167372419Y-119100877D02*
X167372419Y-118862782D01*
X167372419Y-118862782D02*
X167324800Y-118767544D01*
X167324800Y-118767544D02*
X167277180Y-118719925D01*
X167277180Y-118719925D02*
X167181942Y-118672306D01*
X167181942Y-118672306D02*
X167086704Y-118672306D01*
X167086704Y-118672306D02*
X166991466Y-118719925D01*
X166991466Y-118719925D02*
X166943847Y-118767544D01*
X166943847Y-118767544D02*
X166896228Y-118862782D01*
X166896228Y-118862782D02*
X166848609Y-119053258D01*
X166848609Y-119053258D02*
X166800990Y-119148496D01*
X166800990Y-119148496D02*
X166753371Y-119196115D01*
X166753371Y-119196115D02*
X166658133Y-119243734D01*
X166658133Y-119243734D02*
X166562895Y-119243734D01*
X166562895Y-119243734D02*
X166467657Y-119196115D01*
X166467657Y-119196115D02*
X166420038Y-119148496D01*
X166420038Y-119148496D02*
X166372419Y-119053258D01*
X166372419Y-119053258D02*
X166372419Y-118815163D01*
X166372419Y-118815163D02*
X166420038Y-118672306D01*
X167372419Y-118243734D02*
X166372419Y-118243734D01*
X166372419Y-118243734D02*
X166372419Y-118005639D01*
X166372419Y-118005639D02*
X166420038Y-117862782D01*
X166420038Y-117862782D02*
X166515276Y-117767544D01*
X166515276Y-117767544D02*
X166610514Y-117719925D01*
X166610514Y-117719925D02*
X166800990Y-117672306D01*
X166800990Y-117672306D02*
X166943847Y-117672306D01*
X166943847Y-117672306D02*
X167134323Y-117719925D01*
X167134323Y-117719925D02*
X167229561Y-117767544D01*
X167229561Y-117767544D02*
X167324800Y-117862782D01*
X167324800Y-117862782D02*
X167372419Y-118005639D01*
X167372419Y-118005639D02*
X167372419Y-118243734D01*
X167086704Y-117291353D02*
X167086704Y-116815163D01*
X167372419Y-117386591D02*
X166372419Y-117053258D01*
X166372419Y-117053258D02*
X167372419Y-116719925D01*
X167324800Y-122243734D02*
X167372419Y-122100877D01*
X167372419Y-122100877D02*
X167372419Y-121862782D01*
X167372419Y-121862782D02*
X167324800Y-121767544D01*
X167324800Y-121767544D02*
X167277180Y-121719925D01*
X167277180Y-121719925D02*
X167181942Y-121672306D01*
X167181942Y-121672306D02*
X167086704Y-121672306D01*
X167086704Y-121672306D02*
X166991466Y-121719925D01*
X166991466Y-121719925D02*
X166943847Y-121767544D01*
X166943847Y-121767544D02*
X166896228Y-121862782D01*
X166896228Y-121862782D02*
X166848609Y-122053258D01*
X166848609Y-122053258D02*
X166800990Y-122148496D01*
X166800990Y-122148496D02*
X166753371Y-122196115D01*
X166753371Y-122196115D02*
X166658133Y-122243734D01*
X166658133Y-122243734D02*
X166562895Y-122243734D01*
X166562895Y-122243734D02*
X166467657Y-122196115D01*
X166467657Y-122196115D02*
X166420038Y-122148496D01*
X166420038Y-122148496D02*
X166372419Y-122053258D01*
X166372419Y-122053258D02*
X166372419Y-121815163D01*
X166372419Y-121815163D02*
X166420038Y-121672306D01*
X167277180Y-120672306D02*
X167324800Y-120719925D01*
X167324800Y-120719925D02*
X167372419Y-120862782D01*
X167372419Y-120862782D02*
X167372419Y-120958020D01*
X167372419Y-120958020D02*
X167324800Y-121100877D01*
X167324800Y-121100877D02*
X167229561Y-121196115D01*
X167229561Y-121196115D02*
X167134323Y-121243734D01*
X167134323Y-121243734D02*
X166943847Y-121291353D01*
X166943847Y-121291353D02*
X166800990Y-121291353D01*
X166800990Y-121291353D02*
X166610514Y-121243734D01*
X166610514Y-121243734D02*
X166515276Y-121196115D01*
X166515276Y-121196115D02*
X166420038Y-121100877D01*
X166420038Y-121100877D02*
X166372419Y-120958020D01*
X166372419Y-120958020D02*
X166372419Y-120862782D01*
X166372419Y-120862782D02*
X166420038Y-120719925D01*
X166420038Y-120719925D02*
X166467657Y-120672306D01*
X167372419Y-119767544D02*
X167372419Y-120243734D01*
X167372419Y-120243734D02*
X166372419Y-120243734D01*
X168872419Y-117696115D02*
X167872419Y-117696115D01*
X167872419Y-117696115D02*
X167872419Y-117315163D01*
X167872419Y-117315163D02*
X167920038Y-117219925D01*
X167920038Y-117219925D02*
X167967657Y-117172306D01*
X167967657Y-117172306D02*
X168062895Y-117124687D01*
X168062895Y-117124687D02*
X168205752Y-117124687D01*
X168205752Y-117124687D02*
X168300990Y-117172306D01*
X168300990Y-117172306D02*
X168348609Y-117219925D01*
X168348609Y-117219925D02*
X168396228Y-117315163D01*
X168396228Y-117315163D02*
X168396228Y-117696115D01*
X168872419Y-116553258D02*
X168824800Y-116648496D01*
X168824800Y-116648496D02*
X168777180Y-116696115D01*
X168777180Y-116696115D02*
X168681942Y-116743734D01*
X168681942Y-116743734D02*
X168396228Y-116743734D01*
X168396228Y-116743734D02*
X168300990Y-116696115D01*
X168300990Y-116696115D02*
X168253371Y-116648496D01*
X168253371Y-116648496D02*
X168205752Y-116553258D01*
X168205752Y-116553258D02*
X168205752Y-116410401D01*
X168205752Y-116410401D02*
X168253371Y-116315163D01*
X168253371Y-116315163D02*
X168300990Y-116267544D01*
X168300990Y-116267544D02*
X168396228Y-116219925D01*
X168396228Y-116219925D02*
X168681942Y-116219925D01*
X168681942Y-116219925D02*
X168777180Y-116267544D01*
X168777180Y-116267544D02*
X168824800Y-116315163D01*
X168824800Y-116315163D02*
X168872419Y-116410401D01*
X168872419Y-116410401D02*
X168872419Y-116553258D01*
X168205752Y-115886591D02*
X168872419Y-115696115D01*
X168872419Y-115696115D02*
X168396228Y-115505639D01*
X168396228Y-115505639D02*
X168872419Y-115315163D01*
X168872419Y-115315163D02*
X168205752Y-115124687D01*
X168824800Y-114362782D02*
X168872419Y-114458020D01*
X168872419Y-114458020D02*
X168872419Y-114648496D01*
X168872419Y-114648496D02*
X168824800Y-114743734D01*
X168824800Y-114743734D02*
X168729561Y-114791353D01*
X168729561Y-114791353D02*
X168348609Y-114791353D01*
X168348609Y-114791353D02*
X168253371Y-114743734D01*
X168253371Y-114743734D02*
X168205752Y-114648496D01*
X168205752Y-114648496D02*
X168205752Y-114458020D01*
X168205752Y-114458020D02*
X168253371Y-114362782D01*
X168253371Y-114362782D02*
X168348609Y-114315163D01*
X168348609Y-114315163D02*
X168443847Y-114315163D01*
X168443847Y-114315163D02*
X168539085Y-114791353D01*
X168872419Y-113886591D02*
X168205752Y-113886591D01*
X168396228Y-113886591D02*
X168300990Y-113838972D01*
X168300990Y-113838972D02*
X168253371Y-113791353D01*
X168253371Y-113791353D02*
X168205752Y-113696115D01*
X168205752Y-113696115D02*
X168205752Y-113600877D01*
X168872419Y-113267543D02*
X167872419Y-113267543D01*
X167872419Y-113267543D02*
X168586704Y-112934210D01*
X168586704Y-112934210D02*
X167872419Y-112600877D01*
X167872419Y-112600877D02*
X168872419Y-112600877D01*
X168872419Y-111981829D02*
X168824800Y-112077067D01*
X168824800Y-112077067D02*
X168777180Y-112124686D01*
X168777180Y-112124686D02*
X168681942Y-112172305D01*
X168681942Y-112172305D02*
X168396228Y-112172305D01*
X168396228Y-112172305D02*
X168300990Y-112124686D01*
X168300990Y-112124686D02*
X168253371Y-112077067D01*
X168253371Y-112077067D02*
X168205752Y-111981829D01*
X168205752Y-111981829D02*
X168205752Y-111838972D01*
X168205752Y-111838972D02*
X168253371Y-111743734D01*
X168253371Y-111743734D02*
X168300990Y-111696115D01*
X168300990Y-111696115D02*
X168396228Y-111648496D01*
X168396228Y-111648496D02*
X168681942Y-111648496D01*
X168681942Y-111648496D02*
X168777180Y-111696115D01*
X168777180Y-111696115D02*
X168824800Y-111743734D01*
X168824800Y-111743734D02*
X168872419Y-111838972D01*
X168872419Y-111838972D02*
X168872419Y-111981829D01*
X168872419Y-110791353D02*
X167872419Y-110791353D01*
X168824800Y-110791353D02*
X168872419Y-110886591D01*
X168872419Y-110886591D02*
X168872419Y-111077067D01*
X168872419Y-111077067D02*
X168824800Y-111172305D01*
X168824800Y-111172305D02*
X168777180Y-111219924D01*
X168777180Y-111219924D02*
X168681942Y-111267543D01*
X168681942Y-111267543D02*
X168396228Y-111267543D01*
X168396228Y-111267543D02*
X168300990Y-111219924D01*
X168300990Y-111219924D02*
X168253371Y-111172305D01*
X168253371Y-111172305D02*
X168205752Y-111077067D01*
X168205752Y-111077067D02*
X168205752Y-110886591D01*
X168205752Y-110886591D02*
X168253371Y-110791353D01*
X168205752Y-109886591D02*
X168872419Y-109886591D01*
X168205752Y-110315162D02*
X168729561Y-110315162D01*
X168729561Y-110315162D02*
X168824800Y-110267543D01*
X168824800Y-110267543D02*
X168872419Y-110172305D01*
X168872419Y-110172305D02*
X168872419Y-110029448D01*
X168872419Y-110029448D02*
X168824800Y-109934210D01*
X168824800Y-109934210D02*
X168777180Y-109886591D01*
X168872419Y-109267543D02*
X168824800Y-109362781D01*
X168824800Y-109362781D02*
X168729561Y-109410400D01*
X168729561Y-109410400D02*
X167872419Y-109410400D01*
X168824800Y-108505638D02*
X168872419Y-108600876D01*
X168872419Y-108600876D02*
X168872419Y-108791352D01*
X168872419Y-108791352D02*
X168824800Y-108886590D01*
X168824800Y-108886590D02*
X168729561Y-108934209D01*
X168729561Y-108934209D02*
X168348609Y-108934209D01*
X168348609Y-108934209D02*
X168253371Y-108886590D01*
X168253371Y-108886590D02*
X168205752Y-108791352D01*
X168205752Y-108791352D02*
X168205752Y-108600876D01*
X168205752Y-108600876D02*
X168253371Y-108505638D01*
X168253371Y-108505638D02*
X168348609Y-108458019D01*
X168348609Y-108458019D02*
X168443847Y-108458019D01*
X168443847Y-108458019D02*
X168539085Y-108934209D01*
X216872419Y-131291353D02*
X216872419Y-130672306D01*
X216872419Y-130672306D02*
X217253371Y-131005639D01*
X217253371Y-131005639D02*
X217253371Y-130862782D01*
X217253371Y-130862782D02*
X217300990Y-130767544D01*
X217300990Y-130767544D02*
X217348609Y-130719925D01*
X217348609Y-130719925D02*
X217443847Y-130672306D01*
X217443847Y-130672306D02*
X217681942Y-130672306D01*
X217681942Y-130672306D02*
X217777180Y-130719925D01*
X217777180Y-130719925D02*
X217824800Y-130767544D01*
X217824800Y-130767544D02*
X217872419Y-130862782D01*
X217872419Y-130862782D02*
X217872419Y-131148496D01*
X217872419Y-131148496D02*
X217824800Y-131243734D01*
X217824800Y-131243734D02*
X217777180Y-131291353D01*
X217777180Y-130243734D02*
X217824800Y-130196115D01*
X217824800Y-130196115D02*
X217872419Y-130243734D01*
X217872419Y-130243734D02*
X217824800Y-130291353D01*
X217824800Y-130291353D02*
X217777180Y-130243734D01*
X217777180Y-130243734D02*
X217872419Y-130243734D01*
X216872419Y-129862782D02*
X216872419Y-129243735D01*
X216872419Y-129243735D02*
X217253371Y-129577068D01*
X217253371Y-129577068D02*
X217253371Y-129434211D01*
X217253371Y-129434211D02*
X217300990Y-129338973D01*
X217300990Y-129338973D02*
X217348609Y-129291354D01*
X217348609Y-129291354D02*
X217443847Y-129243735D01*
X217443847Y-129243735D02*
X217681942Y-129243735D01*
X217681942Y-129243735D02*
X217777180Y-129291354D01*
X217777180Y-129291354D02*
X217824800Y-129338973D01*
X217824800Y-129338973D02*
X217872419Y-129434211D01*
X217872419Y-129434211D02*
X217872419Y-129719925D01*
X217872419Y-129719925D02*
X217824800Y-129815163D01*
X217824800Y-129815163D02*
X217777180Y-129862782D01*
X216872419Y-128958020D02*
X217872419Y-128624687D01*
X217872419Y-128624687D02*
X216872419Y-128291354D01*
X219375038Y-130672306D02*
X219327419Y-130767544D01*
X219327419Y-130767544D02*
X219327419Y-130910401D01*
X219327419Y-130910401D02*
X219375038Y-131053258D01*
X219375038Y-131053258D02*
X219470276Y-131148496D01*
X219470276Y-131148496D02*
X219565514Y-131196115D01*
X219565514Y-131196115D02*
X219755990Y-131243734D01*
X219755990Y-131243734D02*
X219898847Y-131243734D01*
X219898847Y-131243734D02*
X220089323Y-131196115D01*
X220089323Y-131196115D02*
X220184561Y-131148496D01*
X220184561Y-131148496D02*
X220279800Y-131053258D01*
X220279800Y-131053258D02*
X220327419Y-130910401D01*
X220327419Y-130910401D02*
X220327419Y-130815163D01*
X220327419Y-130815163D02*
X220279800Y-130672306D01*
X220279800Y-130672306D02*
X220232180Y-130624687D01*
X220232180Y-130624687D02*
X219898847Y-130624687D01*
X219898847Y-130624687D02*
X219898847Y-130815163D01*
X220327419Y-130196115D02*
X219327419Y-130196115D01*
X219327419Y-130196115D02*
X220327419Y-129624687D01*
X220327419Y-129624687D02*
X219327419Y-129624687D01*
X220327419Y-129148496D02*
X219327419Y-129148496D01*
X219327419Y-129148496D02*
X219327419Y-128910401D01*
X219327419Y-128910401D02*
X219375038Y-128767544D01*
X219375038Y-128767544D02*
X219470276Y-128672306D01*
X219470276Y-128672306D02*
X219565514Y-128624687D01*
X219565514Y-128624687D02*
X219755990Y-128577068D01*
X219755990Y-128577068D02*
X219898847Y-128577068D01*
X219898847Y-128577068D02*
X220089323Y-128624687D01*
X220089323Y-128624687D02*
X220184561Y-128672306D01*
X220184561Y-128672306D02*
X220279800Y-128767544D01*
X220279800Y-128767544D02*
X220327419Y-128910401D01*
X220327419Y-128910401D02*
X220327419Y-129148496D01*
X223279800Y-131243734D02*
X223327419Y-131100877D01*
X223327419Y-131100877D02*
X223327419Y-130862782D01*
X223327419Y-130862782D02*
X223279800Y-130767544D01*
X223279800Y-130767544D02*
X223232180Y-130719925D01*
X223232180Y-130719925D02*
X223136942Y-130672306D01*
X223136942Y-130672306D02*
X223041704Y-130672306D01*
X223041704Y-130672306D02*
X222946466Y-130719925D01*
X222946466Y-130719925D02*
X222898847Y-130767544D01*
X222898847Y-130767544D02*
X222851228Y-130862782D01*
X222851228Y-130862782D02*
X222803609Y-131053258D01*
X222803609Y-131053258D02*
X222755990Y-131148496D01*
X222755990Y-131148496D02*
X222708371Y-131196115D01*
X222708371Y-131196115D02*
X222613133Y-131243734D01*
X222613133Y-131243734D02*
X222517895Y-131243734D01*
X222517895Y-131243734D02*
X222422657Y-131196115D01*
X222422657Y-131196115D02*
X222375038Y-131148496D01*
X222375038Y-131148496D02*
X222327419Y-131053258D01*
X222327419Y-131053258D02*
X222327419Y-130815163D01*
X222327419Y-130815163D02*
X222375038Y-130672306D01*
X223327419Y-130243734D02*
X222327419Y-130243734D01*
X222327419Y-130243734D02*
X222327419Y-130005639D01*
X222327419Y-130005639D02*
X222375038Y-129862782D01*
X222375038Y-129862782D02*
X222470276Y-129767544D01*
X222470276Y-129767544D02*
X222565514Y-129719925D01*
X222565514Y-129719925D02*
X222755990Y-129672306D01*
X222755990Y-129672306D02*
X222898847Y-129672306D01*
X222898847Y-129672306D02*
X223089323Y-129719925D01*
X223089323Y-129719925D02*
X223184561Y-129767544D01*
X223184561Y-129767544D02*
X223279800Y-129862782D01*
X223279800Y-129862782D02*
X223327419Y-130005639D01*
X223327419Y-130005639D02*
X223327419Y-130243734D01*
X223041704Y-129291353D02*
X223041704Y-128815163D01*
X223327419Y-129386591D02*
X222327419Y-129053258D01*
X222327419Y-129053258D02*
X223327419Y-128719925D01*
X225324800Y-131243734D02*
X225372419Y-131100877D01*
X225372419Y-131100877D02*
X225372419Y-130862782D01*
X225372419Y-130862782D02*
X225324800Y-130767544D01*
X225324800Y-130767544D02*
X225277180Y-130719925D01*
X225277180Y-130719925D02*
X225181942Y-130672306D01*
X225181942Y-130672306D02*
X225086704Y-130672306D01*
X225086704Y-130672306D02*
X224991466Y-130719925D01*
X224991466Y-130719925D02*
X224943847Y-130767544D01*
X224943847Y-130767544D02*
X224896228Y-130862782D01*
X224896228Y-130862782D02*
X224848609Y-131053258D01*
X224848609Y-131053258D02*
X224800990Y-131148496D01*
X224800990Y-131148496D02*
X224753371Y-131196115D01*
X224753371Y-131196115D02*
X224658133Y-131243734D01*
X224658133Y-131243734D02*
X224562895Y-131243734D01*
X224562895Y-131243734D02*
X224467657Y-131196115D01*
X224467657Y-131196115D02*
X224420038Y-131148496D01*
X224420038Y-131148496D02*
X224372419Y-131053258D01*
X224372419Y-131053258D02*
X224372419Y-130815163D01*
X224372419Y-130815163D02*
X224420038Y-130672306D01*
X225277180Y-129672306D02*
X225324800Y-129719925D01*
X225324800Y-129719925D02*
X225372419Y-129862782D01*
X225372419Y-129862782D02*
X225372419Y-129958020D01*
X225372419Y-129958020D02*
X225324800Y-130100877D01*
X225324800Y-130100877D02*
X225229561Y-130196115D01*
X225229561Y-130196115D02*
X225134323Y-130243734D01*
X225134323Y-130243734D02*
X224943847Y-130291353D01*
X224943847Y-130291353D02*
X224800990Y-130291353D01*
X224800990Y-130291353D02*
X224610514Y-130243734D01*
X224610514Y-130243734D02*
X224515276Y-130196115D01*
X224515276Y-130196115D02*
X224420038Y-130100877D01*
X224420038Y-130100877D02*
X224372419Y-129958020D01*
X224372419Y-129958020D02*
X224372419Y-129862782D01*
X224372419Y-129862782D02*
X224420038Y-129719925D01*
X224420038Y-129719925D02*
X224467657Y-129672306D01*
X225372419Y-128767544D02*
X225372419Y-129243734D01*
X225372419Y-129243734D02*
X224372419Y-129243734D01*
D11*
X231404819Y-78809523D02*
X232119104Y-78809523D01*
X232119104Y-78809523D02*
X232261961Y-78857142D01*
X232261961Y-78857142D02*
X232357200Y-78952380D01*
X232357200Y-78952380D02*
X232404819Y-79095237D01*
X232404819Y-79095237D02*
X232404819Y-79190475D01*
X232404819Y-77809523D02*
X232404819Y-78380951D01*
X232404819Y-78095237D02*
X231404819Y-78095237D01*
X231404819Y-78095237D02*
X231547676Y-78190475D01*
X231547676Y-78190475D02*
X231642914Y-78285713D01*
X231642914Y-78285713D02*
X231690533Y-78380951D01*
X231500057Y-77428570D02*
X231452438Y-77380951D01*
X231452438Y-77380951D02*
X231404819Y-77285713D01*
X231404819Y-77285713D02*
X231404819Y-77047618D01*
X231404819Y-77047618D02*
X231452438Y-76952380D01*
X231452438Y-76952380D02*
X231500057Y-76904761D01*
X231500057Y-76904761D02*
X231595295Y-76857142D01*
X231595295Y-76857142D02*
X231690533Y-76857142D01*
X231690533Y-76857142D02*
X231833390Y-76904761D01*
X231833390Y-76904761D02*
X232404819Y-77476189D01*
X232404819Y-77476189D02*
X232404819Y-76857142D01*
X184366666Y-97384819D02*
X184366666Y-98099104D01*
X184366666Y-98099104D02*
X184319047Y-98241961D01*
X184319047Y-98241961D02*
X184223809Y-98337200D01*
X184223809Y-98337200D02*
X184080952Y-98384819D01*
X184080952Y-98384819D02*
X183985714Y-98384819D01*
X185366666Y-98384819D02*
X184795238Y-98384819D01*
X185080952Y-98384819D02*
X185080952Y-97384819D01*
X185080952Y-97384819D02*
X184985714Y-97527676D01*
X184985714Y-97527676D02*
X184890476Y-97622914D01*
X184890476Y-97622914D02*
X184795238Y-97670533D01*
X170174819Y-88039523D02*
X170889104Y-88039523D01*
X170889104Y-88039523D02*
X171031961Y-88087142D01*
X171031961Y-88087142D02*
X171127200Y-88182380D01*
X171127200Y-88182380D02*
X171174819Y-88325237D01*
X171174819Y-88325237D02*
X171174819Y-88420475D01*
X171174819Y-87039523D02*
X171174819Y-87610951D01*
X171174819Y-87325237D02*
X170174819Y-87325237D01*
X170174819Y-87325237D02*
X170317676Y-87420475D01*
X170317676Y-87420475D02*
X170412914Y-87515713D01*
X170412914Y-87515713D02*
X170460533Y-87610951D01*
X170174819Y-86420475D02*
X170174819Y-86325237D01*
X170174819Y-86325237D02*
X170222438Y-86229999D01*
X170222438Y-86229999D02*
X170270057Y-86182380D01*
X170270057Y-86182380D02*
X170365295Y-86134761D01*
X170365295Y-86134761D02*
X170555771Y-86087142D01*
X170555771Y-86087142D02*
X170793866Y-86087142D01*
X170793866Y-86087142D02*
X170984342Y-86134761D01*
X170984342Y-86134761D02*
X171079580Y-86182380D01*
X171079580Y-86182380D02*
X171127200Y-86229999D01*
X171127200Y-86229999D02*
X171174819Y-86325237D01*
X171174819Y-86325237D02*
X171174819Y-86420475D01*
X171174819Y-86420475D02*
X171127200Y-86515713D01*
X171127200Y-86515713D02*
X171079580Y-86563332D01*
X171079580Y-86563332D02*
X170984342Y-86610951D01*
X170984342Y-86610951D02*
X170793866Y-86658570D01*
X170793866Y-86658570D02*
X170555771Y-86658570D01*
X170555771Y-86658570D02*
X170365295Y-86610951D01*
X170365295Y-86610951D02*
X170270057Y-86563332D01*
X170270057Y-86563332D02*
X170222438Y-86515713D01*
X170222438Y-86515713D02*
X170174819Y-86420475D01*
X220190476Y-135954819D02*
X220190476Y-136669104D01*
X220190476Y-136669104D02*
X220142857Y-136811961D01*
X220142857Y-136811961D02*
X220047619Y-136907200D01*
X220047619Y-136907200D02*
X219904762Y-136954819D01*
X219904762Y-136954819D02*
X219809524Y-136954819D01*
X220619048Y-136050057D02*
X220666667Y-136002438D01*
X220666667Y-136002438D02*
X220761905Y-135954819D01*
X220761905Y-135954819D02*
X221000000Y-135954819D01*
X221000000Y-135954819D02*
X221095238Y-136002438D01*
X221095238Y-136002438D02*
X221142857Y-136050057D01*
X221142857Y-136050057D02*
X221190476Y-136145295D01*
X221190476Y-136145295D02*
X221190476Y-136240533D01*
X221190476Y-136240533D02*
X221142857Y-136383390D01*
X221142857Y-136383390D02*
X220571429Y-136954819D01*
X220571429Y-136954819D02*
X221190476Y-136954819D01*
X221809524Y-135954819D02*
X221904762Y-135954819D01*
X221904762Y-135954819D02*
X222000000Y-136002438D01*
X222000000Y-136002438D02*
X222047619Y-136050057D01*
X222047619Y-136050057D02*
X222095238Y-136145295D01*
X222095238Y-136145295D02*
X222142857Y-136335771D01*
X222142857Y-136335771D02*
X222142857Y-136573866D01*
X222142857Y-136573866D02*
X222095238Y-136764342D01*
X222095238Y-136764342D02*
X222047619Y-136859580D01*
X222047619Y-136859580D02*
X222000000Y-136907200D01*
X222000000Y-136907200D02*
X221904762Y-136954819D01*
X221904762Y-136954819D02*
X221809524Y-136954819D01*
X221809524Y-136954819D02*
X221714286Y-136907200D01*
X221714286Y-136907200D02*
X221666667Y-136859580D01*
X221666667Y-136859580D02*
X221619048Y-136764342D01*
X221619048Y-136764342D02*
X221571429Y-136573866D01*
X221571429Y-136573866D02*
X221571429Y-136335771D01*
X221571429Y-136335771D02*
X221619048Y-136145295D01*
X221619048Y-136145295D02*
X221666667Y-136050057D01*
X221666667Y-136050057D02*
X221714286Y-136002438D01*
X221714286Y-136002438D02*
X221809524Y-135954819D01*
X174666666Y-98724819D02*
X174666666Y-99439104D01*
X174666666Y-99439104D02*
X174619047Y-99581961D01*
X174619047Y-99581961D02*
X174523809Y-99677200D01*
X174523809Y-99677200D02*
X174380952Y-99724819D01*
X174380952Y-99724819D02*
X174285714Y-99724819D01*
X175190476Y-99724819D02*
X175380952Y-99724819D01*
X175380952Y-99724819D02*
X175476190Y-99677200D01*
X175476190Y-99677200D02*
X175523809Y-99629580D01*
X175523809Y-99629580D02*
X175619047Y-99486723D01*
X175619047Y-99486723D02*
X175666666Y-99296247D01*
X175666666Y-99296247D02*
X175666666Y-98915295D01*
X175666666Y-98915295D02*
X175619047Y-98820057D01*
X175619047Y-98820057D02*
X175571428Y-98772438D01*
X175571428Y-98772438D02*
X175476190Y-98724819D01*
X175476190Y-98724819D02*
X175285714Y-98724819D01*
X175285714Y-98724819D02*
X175190476Y-98772438D01*
X175190476Y-98772438D02*
X175142857Y-98820057D01*
X175142857Y-98820057D02*
X175095238Y-98915295D01*
X175095238Y-98915295D02*
X175095238Y-99153390D01*
X175095238Y-99153390D02*
X175142857Y-99248628D01*
X175142857Y-99248628D02*
X175190476Y-99296247D01*
X175190476Y-99296247D02*
X175285714Y-99343866D01*
X175285714Y-99343866D02*
X175476190Y-99343866D01*
X175476190Y-99343866D02*
X175571428Y-99296247D01*
X175571428Y-99296247D02*
X175619047Y-99248628D01*
X175619047Y-99248628D02*
X175666666Y-99153390D01*
X173001190Y-81437200D02*
X173144047Y-81484819D01*
X173144047Y-81484819D02*
X173382142Y-81484819D01*
X173382142Y-81484819D02*
X173477380Y-81437200D01*
X173477380Y-81437200D02*
X173524999Y-81389580D01*
X173524999Y-81389580D02*
X173572618Y-81294342D01*
X173572618Y-81294342D02*
X173572618Y-81199104D01*
X173572618Y-81199104D02*
X173524999Y-81103866D01*
X173524999Y-81103866D02*
X173477380Y-81056247D01*
X173477380Y-81056247D02*
X173382142Y-81008628D01*
X173382142Y-81008628D02*
X173191666Y-80961009D01*
X173191666Y-80961009D02*
X173096428Y-80913390D01*
X173096428Y-80913390D02*
X173048809Y-80865771D01*
X173048809Y-80865771D02*
X173001190Y-80770533D01*
X173001190Y-80770533D02*
X173001190Y-80675295D01*
X173001190Y-80675295D02*
X173048809Y-80580057D01*
X173048809Y-80580057D02*
X173096428Y-80532438D01*
X173096428Y-80532438D02*
X173191666Y-80484819D01*
X173191666Y-80484819D02*
X173429761Y-80484819D01*
X173429761Y-80484819D02*
X173572618Y-80532438D01*
X174001190Y-81484819D02*
X174001190Y-80484819D01*
X174001190Y-80484819D02*
X174239285Y-80484819D01*
X174239285Y-80484819D02*
X174382142Y-80532438D01*
X174382142Y-80532438D02*
X174477380Y-80627676D01*
X174477380Y-80627676D02*
X174524999Y-80722914D01*
X174524999Y-80722914D02*
X174572618Y-80913390D01*
X174572618Y-80913390D02*
X174572618Y-81056247D01*
X174572618Y-81056247D02*
X174524999Y-81246723D01*
X174524999Y-81246723D02*
X174477380Y-81341961D01*
X174477380Y-81341961D02*
X174382142Y-81437200D01*
X174382142Y-81437200D02*
X174239285Y-81484819D01*
X174239285Y-81484819D02*
X174001190Y-81484819D01*
X175001190Y-81103866D02*
X175763095Y-81103866D01*
X176239285Y-81484819D02*
X176239285Y-80484819D01*
X176239285Y-80484819D02*
X176572618Y-81199104D01*
X176572618Y-81199104D02*
X176905951Y-80484819D01*
X176905951Y-80484819D02*
X176905951Y-81484819D01*
X177524999Y-81484819D02*
X177429761Y-81437200D01*
X177429761Y-81437200D02*
X177382142Y-81389580D01*
X177382142Y-81389580D02*
X177334523Y-81294342D01*
X177334523Y-81294342D02*
X177334523Y-81008628D01*
X177334523Y-81008628D02*
X177382142Y-80913390D01*
X177382142Y-80913390D02*
X177429761Y-80865771D01*
X177429761Y-80865771D02*
X177524999Y-80818152D01*
X177524999Y-80818152D02*
X177667856Y-80818152D01*
X177667856Y-80818152D02*
X177763094Y-80865771D01*
X177763094Y-80865771D02*
X177810713Y-80913390D01*
X177810713Y-80913390D02*
X177858332Y-81008628D01*
X177858332Y-81008628D02*
X177858332Y-81294342D01*
X177858332Y-81294342D02*
X177810713Y-81389580D01*
X177810713Y-81389580D02*
X177763094Y-81437200D01*
X177763094Y-81437200D02*
X177667856Y-81484819D01*
X177667856Y-81484819D02*
X177524999Y-81484819D01*
X178715475Y-81484819D02*
X178715475Y-80484819D01*
X178715475Y-81437200D02*
X178620237Y-81484819D01*
X178620237Y-81484819D02*
X178429761Y-81484819D01*
X178429761Y-81484819D02*
X178334523Y-81437200D01*
X178334523Y-81437200D02*
X178286904Y-81389580D01*
X178286904Y-81389580D02*
X178239285Y-81294342D01*
X178239285Y-81294342D02*
X178239285Y-81008628D01*
X178239285Y-81008628D02*
X178286904Y-80913390D01*
X178286904Y-80913390D02*
X178334523Y-80865771D01*
X178334523Y-80865771D02*
X178429761Y-80818152D01*
X178429761Y-80818152D02*
X178620237Y-80818152D01*
X178620237Y-80818152D02*
X178715475Y-80865771D01*
X179620237Y-80818152D02*
X179620237Y-81484819D01*
X179191666Y-80818152D02*
X179191666Y-81341961D01*
X179191666Y-81341961D02*
X179239285Y-81437200D01*
X179239285Y-81437200D02*
X179334523Y-81484819D01*
X179334523Y-81484819D02*
X179477380Y-81484819D01*
X179477380Y-81484819D02*
X179572618Y-81437200D01*
X179572618Y-81437200D02*
X179620237Y-81389580D01*
X180239285Y-81484819D02*
X180144047Y-81437200D01*
X180144047Y-81437200D02*
X180096428Y-81341961D01*
X180096428Y-81341961D02*
X180096428Y-80484819D01*
X181001190Y-81437200D02*
X180905952Y-81484819D01*
X180905952Y-81484819D02*
X180715476Y-81484819D01*
X180715476Y-81484819D02*
X180620238Y-81437200D01*
X180620238Y-81437200D02*
X180572619Y-81341961D01*
X180572619Y-81341961D02*
X180572619Y-80961009D01*
X180572619Y-80961009D02*
X180620238Y-80865771D01*
X180620238Y-80865771D02*
X180715476Y-80818152D01*
X180715476Y-80818152D02*
X180905952Y-80818152D01*
X180905952Y-80818152D02*
X181001190Y-80865771D01*
X181001190Y-80865771D02*
X181048809Y-80961009D01*
X181048809Y-80961009D02*
X181048809Y-81056247D01*
X181048809Y-81056247D02*
X180572619Y-81151485D01*
X189004048Y-134907200D02*
X189146905Y-134954819D01*
X189146905Y-134954819D02*
X189385000Y-134954819D01*
X189385000Y-134954819D02*
X189480238Y-134907200D01*
X189480238Y-134907200D02*
X189527857Y-134859580D01*
X189527857Y-134859580D02*
X189575476Y-134764342D01*
X189575476Y-134764342D02*
X189575476Y-134669104D01*
X189575476Y-134669104D02*
X189527857Y-134573866D01*
X189527857Y-134573866D02*
X189480238Y-134526247D01*
X189480238Y-134526247D02*
X189385000Y-134478628D01*
X189385000Y-134478628D02*
X189194524Y-134431009D01*
X189194524Y-134431009D02*
X189099286Y-134383390D01*
X189099286Y-134383390D02*
X189051667Y-134335771D01*
X189051667Y-134335771D02*
X189004048Y-134240533D01*
X189004048Y-134240533D02*
X189004048Y-134145295D01*
X189004048Y-134145295D02*
X189051667Y-134050057D01*
X189051667Y-134050057D02*
X189099286Y-134002438D01*
X189099286Y-134002438D02*
X189194524Y-133954819D01*
X189194524Y-133954819D02*
X189432619Y-133954819D01*
X189432619Y-133954819D02*
X189575476Y-134002438D01*
X190575476Y-134859580D02*
X190527857Y-134907200D01*
X190527857Y-134907200D02*
X190385000Y-134954819D01*
X190385000Y-134954819D02*
X190289762Y-134954819D01*
X190289762Y-134954819D02*
X190146905Y-134907200D01*
X190146905Y-134907200D02*
X190051667Y-134811961D01*
X190051667Y-134811961D02*
X190004048Y-134716723D01*
X190004048Y-134716723D02*
X189956429Y-134526247D01*
X189956429Y-134526247D02*
X189956429Y-134383390D01*
X189956429Y-134383390D02*
X190004048Y-134192914D01*
X190004048Y-134192914D02*
X190051667Y-134097676D01*
X190051667Y-134097676D02*
X190146905Y-134002438D01*
X190146905Y-134002438D02*
X190289762Y-133954819D01*
X190289762Y-133954819D02*
X190385000Y-133954819D01*
X190385000Y-133954819D02*
X190527857Y-134002438D01*
X190527857Y-134002438D02*
X190575476Y-134050057D01*
X191480238Y-134954819D02*
X191004048Y-134954819D01*
X191004048Y-134954819D02*
X191004048Y-133954819D01*
X191813572Y-134573866D02*
X192575477Y-134573866D01*
X193480238Y-134288152D02*
X193480238Y-134954819D01*
X193242143Y-133907200D02*
X193004048Y-134621485D01*
X193004048Y-134621485D02*
X193623095Y-134621485D01*
X194004048Y-134859580D02*
X194051667Y-134907200D01*
X194051667Y-134907200D02*
X194004048Y-134954819D01*
X194004048Y-134954819D02*
X193956429Y-134907200D01*
X193956429Y-134907200D02*
X194004048Y-134859580D01*
X194004048Y-134859580D02*
X194004048Y-134954819D01*
X194385000Y-133954819D02*
X195051666Y-133954819D01*
X195051666Y-133954819D02*
X194623095Y-134954819D01*
X195432619Y-134954819D02*
X195432619Y-133954819D01*
X195527857Y-134573866D02*
X195813571Y-134954819D01*
X195813571Y-134288152D02*
X195432619Y-134669104D01*
X196765952Y-134954819D02*
X196194524Y-134954819D01*
X196480238Y-134954819D02*
X196480238Y-133954819D01*
X196480238Y-133954819D02*
X196385000Y-134097676D01*
X196385000Y-134097676D02*
X196289762Y-134192914D01*
X196289762Y-134192914D02*
X196194524Y-134240533D01*
X222238095Y-41304819D02*
X222238095Y-40304819D01*
X222238095Y-40781009D02*
X222809523Y-40781009D01*
X222809523Y-41304819D02*
X222809523Y-40304819D01*
X223238095Y-40400057D02*
X223285714Y-40352438D01*
X223285714Y-40352438D02*
X223380952Y-40304819D01*
X223380952Y-40304819D02*
X223619047Y-40304819D01*
X223619047Y-40304819D02*
X223714285Y-40352438D01*
X223714285Y-40352438D02*
X223761904Y-40400057D01*
X223761904Y-40400057D02*
X223809523Y-40495295D01*
X223809523Y-40495295D02*
X223809523Y-40590533D01*
X223809523Y-40590533D02*
X223761904Y-40733390D01*
X223761904Y-40733390D02*
X223190476Y-41304819D01*
X223190476Y-41304819D02*
X223809523Y-41304819D01*
X227666666Y-101344819D02*
X227666666Y-102059104D01*
X227666666Y-102059104D02*
X227619047Y-102201961D01*
X227619047Y-102201961D02*
X227523809Y-102297200D01*
X227523809Y-102297200D02*
X227380952Y-102344819D01*
X227380952Y-102344819D02*
X227285714Y-102344819D01*
X228619047Y-101344819D02*
X228142857Y-101344819D01*
X228142857Y-101344819D02*
X228095238Y-101821009D01*
X228095238Y-101821009D02*
X228142857Y-101773390D01*
X228142857Y-101773390D02*
X228238095Y-101725771D01*
X228238095Y-101725771D02*
X228476190Y-101725771D01*
X228476190Y-101725771D02*
X228571428Y-101773390D01*
X228571428Y-101773390D02*
X228619047Y-101821009D01*
X228619047Y-101821009D02*
X228666666Y-101916247D01*
X228666666Y-101916247D02*
X228666666Y-102154342D01*
X228666666Y-102154342D02*
X228619047Y-102249580D01*
X228619047Y-102249580D02*
X228571428Y-102297200D01*
X228571428Y-102297200D02*
X228476190Y-102344819D01*
X228476190Y-102344819D02*
X228238095Y-102344819D01*
X228238095Y-102344819D02*
X228142857Y-102297200D01*
X228142857Y-102297200D02*
X228095238Y-102249580D01*
X231404819Y-55809523D02*
X232119104Y-55809523D01*
X232119104Y-55809523D02*
X232261961Y-55857142D01*
X232261961Y-55857142D02*
X232357200Y-55952380D01*
X232357200Y-55952380D02*
X232404819Y-56095237D01*
X232404819Y-56095237D02*
X232404819Y-56190475D01*
X232404819Y-54809523D02*
X232404819Y-55380951D01*
X232404819Y-55095237D02*
X231404819Y-55095237D01*
X231404819Y-55095237D02*
X231547676Y-55190475D01*
X231547676Y-55190475D02*
X231642914Y-55285713D01*
X231642914Y-55285713D02*
X231690533Y-55380951D01*
X232404819Y-53857142D02*
X232404819Y-54428570D01*
X232404819Y-54142856D02*
X231404819Y-54142856D01*
X231404819Y-54142856D02*
X231547676Y-54238094D01*
X231547676Y-54238094D02*
X231642914Y-54333332D01*
X231642914Y-54333332D02*
X231690533Y-54428570D01*
X177238095Y-121304819D02*
X177238095Y-120304819D01*
X177238095Y-120781009D02*
X177809523Y-120781009D01*
X177809523Y-121304819D02*
X177809523Y-120304819D01*
X178190476Y-120304819D02*
X178809523Y-120304819D01*
X178809523Y-120304819D02*
X178476190Y-120685771D01*
X178476190Y-120685771D02*
X178619047Y-120685771D01*
X178619047Y-120685771D02*
X178714285Y-120733390D01*
X178714285Y-120733390D02*
X178761904Y-120781009D01*
X178761904Y-120781009D02*
X178809523Y-120876247D01*
X178809523Y-120876247D02*
X178809523Y-121114342D01*
X178809523Y-121114342D02*
X178761904Y-121209580D01*
X178761904Y-121209580D02*
X178714285Y-121257200D01*
X178714285Y-121257200D02*
X178619047Y-121304819D01*
X178619047Y-121304819D02*
X178333333Y-121304819D01*
X178333333Y-121304819D02*
X178238095Y-121257200D01*
X178238095Y-121257200D02*
X178190476Y-121209580D01*
X169954819Y-62809523D02*
X170669104Y-62809523D01*
X170669104Y-62809523D02*
X170811961Y-62857142D01*
X170811961Y-62857142D02*
X170907200Y-62952380D01*
X170907200Y-62952380D02*
X170954819Y-63095237D01*
X170954819Y-63095237D02*
X170954819Y-63190475D01*
X170954819Y-61809523D02*
X170954819Y-62380951D01*
X170954819Y-62095237D02*
X169954819Y-62095237D01*
X169954819Y-62095237D02*
X170097676Y-62190475D01*
X170097676Y-62190475D02*
X170192914Y-62285713D01*
X170192914Y-62285713D02*
X170240533Y-62380951D01*
X169954819Y-60952380D02*
X169954819Y-61142856D01*
X169954819Y-61142856D02*
X170002438Y-61238094D01*
X170002438Y-61238094D02*
X170050057Y-61285713D01*
X170050057Y-61285713D02*
X170192914Y-61380951D01*
X170192914Y-61380951D02*
X170383390Y-61428570D01*
X170383390Y-61428570D02*
X170764342Y-61428570D01*
X170764342Y-61428570D02*
X170859580Y-61380951D01*
X170859580Y-61380951D02*
X170907200Y-61333332D01*
X170907200Y-61333332D02*
X170954819Y-61238094D01*
X170954819Y-61238094D02*
X170954819Y-61047618D01*
X170954819Y-61047618D02*
X170907200Y-60952380D01*
X170907200Y-60952380D02*
X170859580Y-60904761D01*
X170859580Y-60904761D02*
X170764342Y-60857142D01*
X170764342Y-60857142D02*
X170526247Y-60857142D01*
X170526247Y-60857142D02*
X170431009Y-60904761D01*
X170431009Y-60904761D02*
X170383390Y-60952380D01*
X170383390Y-60952380D02*
X170335771Y-61047618D01*
X170335771Y-61047618D02*
X170335771Y-61238094D01*
X170335771Y-61238094D02*
X170383390Y-61333332D01*
X170383390Y-61333332D02*
X170431009Y-61380951D01*
X170431009Y-61380951D02*
X170526247Y-61428570D01*
X230904819Y-109809523D02*
X231619104Y-109809523D01*
X231619104Y-109809523D02*
X231761961Y-109857142D01*
X231761961Y-109857142D02*
X231857200Y-109952380D01*
X231857200Y-109952380D02*
X231904819Y-110095237D01*
X231904819Y-110095237D02*
X231904819Y-110190475D01*
X231904819Y-108809523D02*
X231904819Y-109380951D01*
X231904819Y-109095237D02*
X230904819Y-109095237D01*
X230904819Y-109095237D02*
X231047676Y-109190475D01*
X231047676Y-109190475D02*
X231142914Y-109285713D01*
X231142914Y-109285713D02*
X231190533Y-109380951D01*
X230904819Y-108476189D02*
X230904819Y-107857142D01*
X230904819Y-107857142D02*
X231285771Y-108190475D01*
X231285771Y-108190475D02*
X231285771Y-108047618D01*
X231285771Y-108047618D02*
X231333390Y-107952380D01*
X231333390Y-107952380D02*
X231381009Y-107904761D01*
X231381009Y-107904761D02*
X231476247Y-107857142D01*
X231476247Y-107857142D02*
X231714342Y-107857142D01*
X231714342Y-107857142D02*
X231809580Y-107904761D01*
X231809580Y-107904761D02*
X231857200Y-107952380D01*
X231857200Y-107952380D02*
X231904819Y-108047618D01*
X231904819Y-108047618D02*
X231904819Y-108333332D01*
X231904819Y-108333332D02*
X231857200Y-108428570D01*
X231857200Y-108428570D02*
X231809580Y-108476189D01*
X177238095Y-41304819D02*
X177238095Y-40304819D01*
X177238095Y-40781009D02*
X177809523Y-40781009D01*
X177809523Y-41304819D02*
X177809523Y-40304819D01*
X178809523Y-41304819D02*
X178238095Y-41304819D01*
X178523809Y-41304819D02*
X178523809Y-40304819D01*
X178523809Y-40304819D02*
X178428571Y-40447676D01*
X178428571Y-40447676D02*
X178333333Y-40542914D01*
X178333333Y-40542914D02*
X178238095Y-40590533D01*
X230904819Y-123559523D02*
X231619104Y-123559523D01*
X231619104Y-123559523D02*
X231761961Y-123607142D01*
X231761961Y-123607142D02*
X231857200Y-123702380D01*
X231857200Y-123702380D02*
X231904819Y-123845237D01*
X231904819Y-123845237D02*
X231904819Y-123940475D01*
X231904819Y-122559523D02*
X231904819Y-123130951D01*
X231904819Y-122845237D02*
X230904819Y-122845237D01*
X230904819Y-122845237D02*
X231047676Y-122940475D01*
X231047676Y-122940475D02*
X231142914Y-123035713D01*
X231142914Y-123035713D02*
X231190533Y-123130951D01*
X230904819Y-121654761D02*
X230904819Y-122130951D01*
X230904819Y-122130951D02*
X231381009Y-122178570D01*
X231381009Y-122178570D02*
X231333390Y-122130951D01*
X231333390Y-122130951D02*
X231285771Y-122035713D01*
X231285771Y-122035713D02*
X231285771Y-121797618D01*
X231285771Y-121797618D02*
X231333390Y-121702380D01*
X231333390Y-121702380D02*
X231381009Y-121654761D01*
X231381009Y-121654761D02*
X231476247Y-121607142D01*
X231476247Y-121607142D02*
X231714342Y-121607142D01*
X231714342Y-121607142D02*
X231809580Y-121654761D01*
X231809580Y-121654761D02*
X231857200Y-121702380D01*
X231857200Y-121702380D02*
X231904819Y-121797618D01*
X231904819Y-121797618D02*
X231904819Y-122035713D01*
X231904819Y-122035713D02*
X231857200Y-122130951D01*
X231857200Y-122130951D02*
X231809580Y-122178570D01*
X170174819Y-98079523D02*
X170889104Y-98079523D01*
X170889104Y-98079523D02*
X171031961Y-98127142D01*
X171031961Y-98127142D02*
X171127200Y-98222380D01*
X171127200Y-98222380D02*
X171174819Y-98365237D01*
X171174819Y-98365237D02*
X171174819Y-98460475D01*
X171174819Y-97079523D02*
X171174819Y-97650951D01*
X171174819Y-97365237D02*
X170174819Y-97365237D01*
X170174819Y-97365237D02*
X170317676Y-97460475D01*
X170317676Y-97460475D02*
X170412914Y-97555713D01*
X170412914Y-97555713D02*
X170460533Y-97650951D01*
X170174819Y-96746189D02*
X170174819Y-96079523D01*
X170174819Y-96079523D02*
X171174819Y-96508094D01*
X218023809Y-107584819D02*
X217452381Y-107584819D01*
X217738095Y-107584819D02*
X217738095Y-106584819D01*
X217738095Y-106584819D02*
X217642857Y-106727676D01*
X217642857Y-106727676D02*
X217547619Y-106822914D01*
X217547619Y-106822914D02*
X217452381Y-106870533D01*
X218357143Y-106584819D02*
X218595238Y-107584819D01*
X218595238Y-107584819D02*
X218785714Y-106870533D01*
X218785714Y-106870533D02*
X218976190Y-107584819D01*
X218976190Y-107584819D02*
X219214286Y-106584819D01*
X219595238Y-107203866D02*
X220357143Y-107203866D01*
X221261904Y-106918152D02*
X221261904Y-107584819D01*
X221023809Y-106537200D02*
X220785714Y-107251485D01*
X220785714Y-107251485D02*
X221404761Y-107251485D01*
X221785714Y-107489580D02*
X221833333Y-107537200D01*
X221833333Y-107537200D02*
X221785714Y-107584819D01*
X221785714Y-107584819D02*
X221738095Y-107537200D01*
X221738095Y-107537200D02*
X221785714Y-107489580D01*
X221785714Y-107489580D02*
X221785714Y-107584819D01*
X222166666Y-106584819D02*
X222833332Y-106584819D01*
X222833332Y-106584819D02*
X222404761Y-107584819D01*
X223214285Y-107584819D02*
X223214285Y-106584819D01*
X223309523Y-107203866D02*
X223595237Y-107584819D01*
X223595237Y-106918152D02*
X223214285Y-107299104D01*
X224547618Y-107584819D02*
X223976190Y-107584819D01*
X224261904Y-107584819D02*
X224261904Y-106584819D01*
X224261904Y-106584819D02*
X224166666Y-106727676D01*
X224166666Y-106727676D02*
X224071428Y-106822914D01*
X224071428Y-106822914D02*
X223976190Y-106870533D01*
X222238095Y-121304819D02*
X222238095Y-120304819D01*
X222238095Y-120781009D02*
X222809523Y-120781009D01*
X222809523Y-121304819D02*
X222809523Y-120304819D01*
X223714285Y-120638152D02*
X223714285Y-121304819D01*
X223476190Y-120257200D02*
X223238095Y-120971485D01*
X223238095Y-120971485D02*
X223857142Y-120971485D01*
X213166666Y-82724819D02*
X213166666Y-83439104D01*
X213166666Y-83439104D02*
X213119047Y-83581961D01*
X213119047Y-83581961D02*
X213023809Y-83677200D01*
X213023809Y-83677200D02*
X212880952Y-83724819D01*
X212880952Y-83724819D02*
X212785714Y-83724819D01*
X213785714Y-83153390D02*
X213690476Y-83105771D01*
X213690476Y-83105771D02*
X213642857Y-83058152D01*
X213642857Y-83058152D02*
X213595238Y-82962914D01*
X213595238Y-82962914D02*
X213595238Y-82915295D01*
X213595238Y-82915295D02*
X213642857Y-82820057D01*
X213642857Y-82820057D02*
X213690476Y-82772438D01*
X213690476Y-82772438D02*
X213785714Y-82724819D01*
X213785714Y-82724819D02*
X213976190Y-82724819D01*
X213976190Y-82724819D02*
X214071428Y-82772438D01*
X214071428Y-82772438D02*
X214119047Y-82820057D01*
X214119047Y-82820057D02*
X214166666Y-82915295D01*
X214166666Y-82915295D02*
X214166666Y-82962914D01*
X214166666Y-82962914D02*
X214119047Y-83058152D01*
X214119047Y-83058152D02*
X214071428Y-83105771D01*
X214071428Y-83105771D02*
X213976190Y-83153390D01*
X213976190Y-83153390D02*
X213785714Y-83153390D01*
X213785714Y-83153390D02*
X213690476Y-83201009D01*
X213690476Y-83201009D02*
X213642857Y-83248628D01*
X213642857Y-83248628D02*
X213595238Y-83343866D01*
X213595238Y-83343866D02*
X213595238Y-83534342D01*
X213595238Y-83534342D02*
X213642857Y-83629580D01*
X213642857Y-83629580D02*
X213690476Y-83677200D01*
X213690476Y-83677200D02*
X213785714Y-83724819D01*
X213785714Y-83724819D02*
X213976190Y-83724819D01*
X213976190Y-83724819D02*
X214071428Y-83677200D01*
X214071428Y-83677200D02*
X214119047Y-83629580D01*
X214119047Y-83629580D02*
X214166666Y-83534342D01*
X214166666Y-83534342D02*
X214166666Y-83343866D01*
X214166666Y-83343866D02*
X214119047Y-83248628D01*
X214119047Y-83248628D02*
X214071428Y-83201009D01*
X214071428Y-83201009D02*
X213976190Y-83153390D01*
X187291666Y-44099819D02*
X187291666Y-44814104D01*
X187291666Y-44814104D02*
X187244047Y-44956961D01*
X187244047Y-44956961D02*
X187148809Y-45052200D01*
X187148809Y-45052200D02*
X187005952Y-45099819D01*
X187005952Y-45099819D02*
X186910714Y-45099819D01*
X188196428Y-44433152D02*
X188196428Y-45099819D01*
X187958333Y-44052200D02*
X187720238Y-44766485D01*
X187720238Y-44766485D02*
X188339285Y-44766485D01*
X188980238Y-126062200D02*
X189123095Y-126109819D01*
X189123095Y-126109819D02*
X189361190Y-126109819D01*
X189361190Y-126109819D02*
X189456428Y-126062200D01*
X189456428Y-126062200D02*
X189504047Y-126014580D01*
X189504047Y-126014580D02*
X189551666Y-125919342D01*
X189551666Y-125919342D02*
X189551666Y-125824104D01*
X189551666Y-125824104D02*
X189504047Y-125728866D01*
X189504047Y-125728866D02*
X189456428Y-125681247D01*
X189456428Y-125681247D02*
X189361190Y-125633628D01*
X189361190Y-125633628D02*
X189170714Y-125586009D01*
X189170714Y-125586009D02*
X189075476Y-125538390D01*
X189075476Y-125538390D02*
X189027857Y-125490771D01*
X189027857Y-125490771D02*
X188980238Y-125395533D01*
X188980238Y-125395533D02*
X188980238Y-125300295D01*
X188980238Y-125300295D02*
X189027857Y-125205057D01*
X189027857Y-125205057D02*
X189075476Y-125157438D01*
X189075476Y-125157438D02*
X189170714Y-125109819D01*
X189170714Y-125109819D02*
X189408809Y-125109819D01*
X189408809Y-125109819D02*
X189551666Y-125157438D01*
X189980238Y-126109819D02*
X189980238Y-125109819D01*
X189980238Y-125109819D02*
X190218333Y-125109819D01*
X190218333Y-125109819D02*
X190361190Y-125157438D01*
X190361190Y-125157438D02*
X190456428Y-125252676D01*
X190456428Y-125252676D02*
X190504047Y-125347914D01*
X190504047Y-125347914D02*
X190551666Y-125538390D01*
X190551666Y-125538390D02*
X190551666Y-125681247D01*
X190551666Y-125681247D02*
X190504047Y-125871723D01*
X190504047Y-125871723D02*
X190456428Y-125966961D01*
X190456428Y-125966961D02*
X190361190Y-126062200D01*
X190361190Y-126062200D02*
X190218333Y-126109819D01*
X190218333Y-126109819D02*
X189980238Y-126109819D01*
X190932619Y-125824104D02*
X191408809Y-125824104D01*
X190837381Y-126109819D02*
X191170714Y-125109819D01*
X191170714Y-125109819D02*
X191504047Y-126109819D01*
X191837381Y-125728866D02*
X192599286Y-125728866D01*
X193504047Y-125443152D02*
X193504047Y-126109819D01*
X193265952Y-125062200D02*
X193027857Y-125776485D01*
X193027857Y-125776485D02*
X193646904Y-125776485D01*
X194027857Y-126014580D02*
X194075476Y-126062200D01*
X194075476Y-126062200D02*
X194027857Y-126109819D01*
X194027857Y-126109819D02*
X193980238Y-126062200D01*
X193980238Y-126062200D02*
X194027857Y-126014580D01*
X194027857Y-126014580D02*
X194027857Y-126109819D01*
X194408809Y-125109819D02*
X195075475Y-125109819D01*
X195075475Y-125109819D02*
X194646904Y-126109819D01*
X195456428Y-126109819D02*
X195456428Y-125109819D01*
X195551666Y-125728866D02*
X195837380Y-126109819D01*
X195837380Y-125443152D02*
X195456428Y-125824104D01*
X196789761Y-126109819D02*
X196218333Y-126109819D01*
X196504047Y-126109819D02*
X196504047Y-125109819D01*
X196504047Y-125109819D02*
X196408809Y-125252676D01*
X196408809Y-125252676D02*
X196313571Y-125347914D01*
X196313571Y-125347914D02*
X196218333Y-125395533D01*
X212691666Y-59799819D02*
X212691666Y-60514104D01*
X212691666Y-60514104D02*
X212644047Y-60656961D01*
X212644047Y-60656961D02*
X212548809Y-60752200D01*
X212548809Y-60752200D02*
X212405952Y-60799819D01*
X212405952Y-60799819D02*
X212310714Y-60799819D01*
X213072619Y-59799819D02*
X213739285Y-59799819D01*
X213739285Y-59799819D02*
X213310714Y-60799819D01*
X178454819Y-137039523D02*
X179169104Y-137039523D01*
X179169104Y-137039523D02*
X179311961Y-137087142D01*
X179311961Y-137087142D02*
X179407200Y-137182380D01*
X179407200Y-137182380D02*
X179454819Y-137325237D01*
X179454819Y-137325237D02*
X179454819Y-137420475D01*
X179454819Y-136039523D02*
X179454819Y-136610951D01*
X179454819Y-136325237D02*
X178454819Y-136325237D01*
X178454819Y-136325237D02*
X178597676Y-136420475D01*
X178597676Y-136420475D02*
X178692914Y-136515713D01*
X178692914Y-136515713D02*
X178740533Y-136610951D01*
X178883390Y-135468094D02*
X178835771Y-135563332D01*
X178835771Y-135563332D02*
X178788152Y-135610951D01*
X178788152Y-135610951D02*
X178692914Y-135658570D01*
X178692914Y-135658570D02*
X178645295Y-135658570D01*
X178645295Y-135658570D02*
X178550057Y-135610951D01*
X178550057Y-135610951D02*
X178502438Y-135563332D01*
X178502438Y-135563332D02*
X178454819Y-135468094D01*
X178454819Y-135468094D02*
X178454819Y-135277618D01*
X178454819Y-135277618D02*
X178502438Y-135182380D01*
X178502438Y-135182380D02*
X178550057Y-135134761D01*
X178550057Y-135134761D02*
X178645295Y-135087142D01*
X178645295Y-135087142D02*
X178692914Y-135087142D01*
X178692914Y-135087142D02*
X178788152Y-135134761D01*
X178788152Y-135134761D02*
X178835771Y-135182380D01*
X178835771Y-135182380D02*
X178883390Y-135277618D01*
X178883390Y-135277618D02*
X178883390Y-135468094D01*
X178883390Y-135468094D02*
X178931009Y-135563332D01*
X178931009Y-135563332D02*
X178978628Y-135610951D01*
X178978628Y-135610951D02*
X179073866Y-135658570D01*
X179073866Y-135658570D02*
X179264342Y-135658570D01*
X179264342Y-135658570D02*
X179359580Y-135610951D01*
X179359580Y-135610951D02*
X179407200Y-135563332D01*
X179407200Y-135563332D02*
X179454819Y-135468094D01*
X179454819Y-135468094D02*
X179454819Y-135277618D01*
X179454819Y-135277618D02*
X179407200Y-135182380D01*
X179407200Y-135182380D02*
X179359580Y-135134761D01*
X179359580Y-135134761D02*
X179264342Y-135087142D01*
X179264342Y-135087142D02*
X179073866Y-135087142D01*
X179073866Y-135087142D02*
X178978628Y-135134761D01*
X178978628Y-135134761D02*
X178931009Y-135182380D01*
X178931009Y-135182380D02*
X178883390Y-135277618D01*
X163690476Y-104874819D02*
X163690476Y-105589104D01*
X163690476Y-105589104D02*
X163642857Y-105731961D01*
X163642857Y-105731961D02*
X163547619Y-105827200D01*
X163547619Y-105827200D02*
X163404762Y-105874819D01*
X163404762Y-105874819D02*
X163309524Y-105874819D01*
X164690476Y-105874819D02*
X164119048Y-105874819D01*
X164404762Y-105874819D02*
X164404762Y-104874819D01*
X164404762Y-104874819D02*
X164309524Y-105017676D01*
X164309524Y-105017676D02*
X164214286Y-105112914D01*
X164214286Y-105112914D02*
X164119048Y-105160533D01*
X165166667Y-105874819D02*
X165357143Y-105874819D01*
X165357143Y-105874819D02*
X165452381Y-105827200D01*
X165452381Y-105827200D02*
X165500000Y-105779580D01*
X165500000Y-105779580D02*
X165595238Y-105636723D01*
X165595238Y-105636723D02*
X165642857Y-105446247D01*
X165642857Y-105446247D02*
X165642857Y-105065295D01*
X165642857Y-105065295D02*
X165595238Y-104970057D01*
X165595238Y-104970057D02*
X165547619Y-104922438D01*
X165547619Y-104922438D02*
X165452381Y-104874819D01*
X165452381Y-104874819D02*
X165261905Y-104874819D01*
X165261905Y-104874819D02*
X165166667Y-104922438D01*
X165166667Y-104922438D02*
X165119048Y-104970057D01*
X165119048Y-104970057D02*
X165071429Y-105065295D01*
X165071429Y-105065295D02*
X165071429Y-105303390D01*
X165071429Y-105303390D02*
X165119048Y-105398628D01*
X165119048Y-105398628D02*
X165166667Y-105446247D01*
X165166667Y-105446247D02*
X165261905Y-105493866D01*
X165261905Y-105493866D02*
X165452381Y-105493866D01*
X165452381Y-105493866D02*
X165547619Y-105446247D01*
X165547619Y-105446247D02*
X165595238Y-105398628D01*
X165595238Y-105398628D02*
X165642857Y-105303390D01*
X169954819Y-43333333D02*
X170669104Y-43333333D01*
X170669104Y-43333333D02*
X170811961Y-43380952D01*
X170811961Y-43380952D02*
X170907200Y-43476190D01*
X170907200Y-43476190D02*
X170954819Y-43619047D01*
X170954819Y-43619047D02*
X170954819Y-43714285D01*
X169954819Y-42428571D02*
X169954819Y-42619047D01*
X169954819Y-42619047D02*
X170002438Y-42714285D01*
X170002438Y-42714285D02*
X170050057Y-42761904D01*
X170050057Y-42761904D02*
X170192914Y-42857142D01*
X170192914Y-42857142D02*
X170383390Y-42904761D01*
X170383390Y-42904761D02*
X170764342Y-42904761D01*
X170764342Y-42904761D02*
X170859580Y-42857142D01*
X170859580Y-42857142D02*
X170907200Y-42809523D01*
X170907200Y-42809523D02*
X170954819Y-42714285D01*
X170954819Y-42714285D02*
X170954819Y-42523809D01*
X170954819Y-42523809D02*
X170907200Y-42428571D01*
X170907200Y-42428571D02*
X170859580Y-42380952D01*
X170859580Y-42380952D02*
X170764342Y-42333333D01*
X170764342Y-42333333D02*
X170526247Y-42333333D01*
X170526247Y-42333333D02*
X170431009Y-42380952D01*
X170431009Y-42380952D02*
X170383390Y-42428571D01*
X170383390Y-42428571D02*
X170335771Y-42523809D01*
X170335771Y-42523809D02*
X170335771Y-42714285D01*
X170335771Y-42714285D02*
X170383390Y-42809523D01*
X170383390Y-42809523D02*
X170431009Y-42857142D01*
X170431009Y-42857142D02*
X170526247Y-42904761D01*
X187766666Y-67024819D02*
X187766666Y-67739104D01*
X187766666Y-67739104D02*
X187719047Y-67881961D01*
X187719047Y-67881961D02*
X187623809Y-67977200D01*
X187623809Y-67977200D02*
X187480952Y-68024819D01*
X187480952Y-68024819D02*
X187385714Y-68024819D01*
X188147619Y-67024819D02*
X188766666Y-67024819D01*
X188766666Y-67024819D02*
X188433333Y-67405771D01*
X188433333Y-67405771D02*
X188576190Y-67405771D01*
X188576190Y-67405771D02*
X188671428Y-67453390D01*
X188671428Y-67453390D02*
X188719047Y-67501009D01*
X188719047Y-67501009D02*
X188766666Y-67596247D01*
X188766666Y-67596247D02*
X188766666Y-67834342D01*
X188766666Y-67834342D02*
X188719047Y-67929580D01*
X188719047Y-67929580D02*
X188671428Y-67977200D01*
X188671428Y-67977200D02*
X188576190Y-68024819D01*
X188576190Y-68024819D02*
X188290476Y-68024819D01*
X188290476Y-68024819D02*
X188195238Y-67977200D01*
X188195238Y-67977200D02*
X188147619Y-67929580D01*
X209766666Y-97774819D02*
X209766666Y-98489104D01*
X209766666Y-98489104D02*
X209719047Y-98631961D01*
X209719047Y-98631961D02*
X209623809Y-98727200D01*
X209623809Y-98727200D02*
X209480952Y-98774819D01*
X209480952Y-98774819D02*
X209385714Y-98774819D01*
X210195238Y-97870057D02*
X210242857Y-97822438D01*
X210242857Y-97822438D02*
X210338095Y-97774819D01*
X210338095Y-97774819D02*
X210576190Y-97774819D01*
X210576190Y-97774819D02*
X210671428Y-97822438D01*
X210671428Y-97822438D02*
X210719047Y-97870057D01*
X210719047Y-97870057D02*
X210766666Y-97965295D01*
X210766666Y-97965295D02*
X210766666Y-98060533D01*
X210766666Y-98060533D02*
X210719047Y-98203390D01*
X210719047Y-98203390D02*
X210147619Y-98774819D01*
X210147619Y-98774819D02*
X210766666Y-98774819D01*
X226177200Y-115833332D02*
X226224819Y-115690475D01*
X226224819Y-115690475D02*
X226224819Y-115452380D01*
X226224819Y-115452380D02*
X226177200Y-115357142D01*
X226177200Y-115357142D02*
X226129580Y-115309523D01*
X226129580Y-115309523D02*
X226034342Y-115261904D01*
X226034342Y-115261904D02*
X225939104Y-115261904D01*
X225939104Y-115261904D02*
X225843866Y-115309523D01*
X225843866Y-115309523D02*
X225796247Y-115357142D01*
X225796247Y-115357142D02*
X225748628Y-115452380D01*
X225748628Y-115452380D02*
X225701009Y-115642856D01*
X225701009Y-115642856D02*
X225653390Y-115738094D01*
X225653390Y-115738094D02*
X225605771Y-115785713D01*
X225605771Y-115785713D02*
X225510533Y-115833332D01*
X225510533Y-115833332D02*
X225415295Y-115833332D01*
X225415295Y-115833332D02*
X225320057Y-115785713D01*
X225320057Y-115785713D02*
X225272438Y-115738094D01*
X225272438Y-115738094D02*
X225224819Y-115642856D01*
X225224819Y-115642856D02*
X225224819Y-115404761D01*
X225224819Y-115404761D02*
X225272438Y-115261904D01*
X225224819Y-114928570D02*
X226224819Y-114690475D01*
X226224819Y-114690475D02*
X225510533Y-114499999D01*
X225510533Y-114499999D02*
X226224819Y-114309523D01*
X226224819Y-114309523D02*
X225224819Y-114071428D01*
X226224819Y-113166666D02*
X226224819Y-113738094D01*
X226224819Y-113452380D02*
X225224819Y-113452380D01*
X225224819Y-113452380D02*
X225367676Y-113547618D01*
X225367676Y-113547618D02*
X225462914Y-113642856D01*
X225462914Y-113642856D02*
X225510533Y-113738094D01*
%TO.C,J12*%
D12*
X232750000Y-84600000D02*
X232750000Y-85850000D01*
X232750000Y-85850000D02*
X234000000Y-85850000D01*
X235300000Y-70450000D02*
X235300000Y-71200000D01*
X235300000Y-71200000D02*
X238250000Y-71200000D01*
X235300000Y-84800000D02*
X238250000Y-84800000D01*
X235300000Y-85550000D02*
X235300000Y-84800000D01*
X238250000Y-71200000D02*
X238250000Y-78000000D01*
X238250000Y-84800000D02*
X238250000Y-78000000D01*
X233040000Y-70440000D02*
X239010000Y-70440000D01*
X239010000Y-85560000D01*
X233040000Y-85560000D01*
X233040000Y-70440000D01*
X233050000Y-70450000D02*
X233800000Y-70450000D01*
X233800000Y-72250000D01*
X233050000Y-72250000D01*
X233050000Y-70450000D01*
X233050000Y-73750000D02*
X233800000Y-73750000D01*
X233800000Y-82250000D01*
X233050000Y-82250000D01*
X233050000Y-73750000D01*
X233050000Y-83750000D02*
X233800000Y-83750000D01*
X233800000Y-85550000D01*
X233050000Y-85550000D01*
X233050000Y-83750000D01*
%TO.C,J1*%
X183370000Y-101970000D02*
X183370000Y-137590000D01*
X183370000Y-101970000D02*
X186030000Y-101970000D01*
X183370000Y-137590000D02*
X186030000Y-137590000D01*
X184700000Y-99370000D02*
X186030000Y-99370000D01*
X186030000Y-99370000D02*
X186030000Y-100700000D01*
X186030000Y-101970000D02*
X186030000Y-137590000D01*
%TO.C,J10*%
X162980000Y-84320000D02*
X169720000Y-84320000D01*
X162980000Y-85660000D02*
X162980000Y-84320000D01*
X162980000Y-90140000D02*
X162980000Y-86260000D01*
X163900000Y-84320000D02*
X163900000Y-90140000D01*
X164900000Y-84320000D02*
X164900000Y-90140000D01*
X168000000Y-84320000D02*
X168000000Y-90140000D01*
X169720000Y-84320000D02*
X169720000Y-90140000D01*
X169720000Y-90140000D02*
X162980000Y-90140000D01*
X162980000Y-85960000D02*
X162370000Y-86400000D01*
X162370000Y-85520000D01*
X162980000Y-85960000D01*
G36*
X162980000Y-85960000D02*
G01*
X162370000Y-86400000D01*
X162370000Y-85520000D01*
X162980000Y-85960000D01*
G37*
%TO.C,J20*%
X214650000Y-131750000D02*
X214650000Y-133000000D01*
X214950000Y-134300000D02*
X215700000Y-134300000D01*
X215700000Y-134300000D02*
X215700000Y-137250000D01*
X215700000Y-137250000D02*
X221250000Y-137250000D01*
X215900000Y-131750000D02*
X214650000Y-131750000D01*
X226800000Y-134300000D02*
X226800000Y-137250000D01*
X226800000Y-137250000D02*
X221250000Y-137250000D01*
X227550000Y-134300000D02*
X226800000Y-134300000D01*
X214940000Y-132040000D02*
X227560000Y-132040000D01*
X227560000Y-138010000D01*
X214940000Y-138010000D01*
X214940000Y-132040000D01*
X214950000Y-132050000D02*
X216750000Y-132050000D01*
X216750000Y-132800000D01*
X214950000Y-132800000D01*
X214950000Y-132050000D01*
X218250000Y-132050000D02*
X224250000Y-132050000D01*
X224250000Y-132800000D01*
X218250000Y-132800000D01*
X218250000Y-132050000D01*
X225750000Y-132050000D02*
X227550000Y-132050000D01*
X227550000Y-132800000D01*
X225750000Y-132800000D01*
X225750000Y-132050000D01*
%TO.C,J9*%
X173670000Y-95230000D02*
X173670000Y-82470000D01*
X173670000Y-97830000D02*
X173670000Y-96500000D01*
X175000000Y-97830000D02*
X173670000Y-97830000D01*
X176330000Y-82470000D02*
X173670000Y-82470000D01*
X176330000Y-95230000D02*
X173670000Y-95230000D01*
X176330000Y-95230000D02*
X176330000Y-82470000D01*
%TO.C,SCL-4.7k1*%
X189615000Y-130705000D02*
X196155000Y-130705000D01*
X189615000Y-131035000D02*
X189615000Y-130705000D01*
X189615000Y-133115000D02*
X189615000Y-133445000D01*
X189615000Y-133445000D02*
X196155000Y-133445000D01*
X196155000Y-130705000D02*
X196155000Y-131035000D01*
X196155000Y-133445000D02*
X196155000Y-133115000D01*
%TO.C,J5*%
X226670000Y-97850000D02*
X226670000Y-90170000D01*
X226670000Y-100450000D02*
X226670000Y-99120000D01*
X228000000Y-100450000D02*
X226670000Y-100450000D01*
X229330000Y-90170000D02*
X226670000Y-90170000D01*
X229330000Y-97850000D02*
X226670000Y-97850000D01*
X229330000Y-97850000D02*
X229330000Y-90170000D01*
%TO.C,J11*%
X232750000Y-61600000D02*
X232750000Y-62850000D01*
X232750000Y-62850000D02*
X234000000Y-62850000D01*
X235300000Y-47450000D02*
X235300000Y-48200000D01*
X235300000Y-48200000D02*
X238250000Y-48200000D01*
X235300000Y-61800000D02*
X238250000Y-61800000D01*
X235300000Y-62550000D02*
X235300000Y-61800000D01*
X238250000Y-48200000D02*
X238250000Y-55000000D01*
X238250000Y-61800000D02*
X238250000Y-55000000D01*
X233040000Y-47440000D02*
X239010000Y-47440000D01*
X239010000Y-62560000D01*
X233040000Y-62560000D01*
X233040000Y-47440000D01*
X233050000Y-47450000D02*
X233800000Y-47450000D01*
X233800000Y-49250000D01*
X233050000Y-49250000D01*
X233050000Y-47450000D01*
X233050000Y-50750000D02*
X233800000Y-50750000D01*
X233800000Y-59250000D01*
X233050000Y-59250000D01*
X233050000Y-50750000D01*
X233050000Y-60750000D02*
X233800000Y-60750000D01*
X233800000Y-62550000D01*
X233050000Y-62550000D01*
X233050000Y-60750000D01*
%TO.C,J16*%
X163250000Y-63200000D02*
X163250000Y-71250000D01*
X163250000Y-79300000D02*
X163250000Y-71250000D01*
X166200000Y-62450000D02*
X166200000Y-63200000D01*
X166200000Y-63200000D02*
X163250000Y-63200000D01*
X166200000Y-79300000D02*
X163250000Y-79300000D01*
X166200000Y-80050000D02*
X166200000Y-79300000D01*
X168750000Y-62150000D02*
X167500000Y-62150000D01*
X168750000Y-63400000D02*
X168750000Y-62150000D01*
X167700000Y-62450000D02*
X168450000Y-62450000D01*
X168450000Y-64250000D01*
X167700000Y-64250000D01*
X167700000Y-62450000D01*
X167700000Y-65750000D02*
X168450000Y-65750000D01*
X168450000Y-76750000D01*
X167700000Y-76750000D01*
X167700000Y-65750000D01*
X167700000Y-78250000D02*
X168450000Y-78250000D01*
X168450000Y-80050000D01*
X167700000Y-80050000D01*
X167700000Y-78250000D01*
X162490000Y-62440000D02*
X168460000Y-62440000D01*
X168460000Y-80060000D01*
X162490000Y-80060000D01*
X162490000Y-62440000D01*
%TO.C,J13*%
X232250000Y-113100000D02*
X232250000Y-114350000D01*
X232250000Y-114350000D02*
X233500000Y-114350000D01*
X234800000Y-103950000D02*
X234800000Y-104700000D01*
X234800000Y-104700000D02*
X237750000Y-104700000D01*
X234800000Y-113300000D02*
X237750000Y-113300000D01*
X234800000Y-114050000D02*
X234800000Y-113300000D01*
X237750000Y-104700000D02*
X237750000Y-109000000D01*
X237750000Y-113300000D02*
X237750000Y-109000000D01*
X232540000Y-103940000D02*
X238510000Y-103940000D01*
X238510000Y-114060000D01*
X232540000Y-114060000D01*
X232540000Y-103940000D01*
X232550000Y-103950000D02*
X233300000Y-103950000D01*
X233300000Y-105750000D01*
X232550000Y-105750000D01*
X232550000Y-103950000D01*
X232550000Y-107250000D02*
X233300000Y-107250000D01*
X233300000Y-110750000D01*
X232550000Y-110750000D01*
X232550000Y-107250000D01*
X232550000Y-112250000D02*
X233300000Y-112250000D01*
X233300000Y-114050000D01*
X232550000Y-114050000D01*
X232550000Y-112250000D01*
%TO.C,J15*%
X232250000Y-128100000D02*
X232250000Y-129350000D01*
X232250000Y-129350000D02*
X233500000Y-129350000D01*
X234800000Y-116450000D02*
X234800000Y-117200000D01*
X234800000Y-117200000D02*
X237750000Y-117200000D01*
X234800000Y-128300000D02*
X237750000Y-128300000D01*
X234800000Y-129050000D02*
X234800000Y-128300000D01*
X237750000Y-117200000D02*
X237750000Y-122750000D01*
X237750000Y-128300000D02*
X237750000Y-122750000D01*
X232540000Y-116440000D02*
X238510000Y-116440000D01*
X238510000Y-129060000D01*
X232540000Y-129060000D01*
X232540000Y-116440000D01*
X232550000Y-116450000D02*
X233300000Y-116450000D01*
X233300000Y-118250000D01*
X232550000Y-118250000D01*
X232550000Y-116450000D01*
X232550000Y-119750000D02*
X233300000Y-119750000D01*
X233300000Y-125750000D01*
X232550000Y-125750000D01*
X232550000Y-119750000D01*
X232550000Y-127250000D02*
X233300000Y-127250000D01*
X233300000Y-129050000D01*
X232550000Y-129050000D01*
X232550000Y-127250000D01*
%TO.C,J17*%
X162980000Y-94360000D02*
X169720000Y-94360000D01*
X162980000Y-95700000D02*
X162980000Y-94360000D01*
X162980000Y-100180000D02*
X162980000Y-96300000D01*
X163900000Y-94360000D02*
X163900000Y-100180000D01*
X164900000Y-94360000D02*
X164900000Y-100180000D01*
X168000000Y-94360000D02*
X168000000Y-100180000D01*
X169720000Y-94360000D02*
X169720000Y-100180000D01*
X169720000Y-100180000D02*
X162980000Y-100180000D01*
X162980000Y-96000000D02*
X162370000Y-96440000D01*
X162370000Y-95560000D01*
X162980000Y-96000000D01*
G36*
X162980000Y-96000000D02*
G01*
X162370000Y-96440000D01*
X162370000Y-95560000D01*
X162980000Y-96000000D01*
G37*
%TO.C,1W-4.7k1*%
X217730000Y-108130000D02*
X224270000Y-108130000D01*
X217730000Y-108460000D02*
X217730000Y-108130000D01*
X217730000Y-110540000D02*
X217730000Y-110870000D01*
X217730000Y-110870000D02*
X224270000Y-110870000D01*
X224270000Y-108130000D02*
X224270000Y-108460000D01*
X224270000Y-110870000D02*
X224270000Y-110540000D01*
%TO.C,J8*%
X212170000Y-79230000D02*
X212170000Y-66470000D01*
X212170000Y-81830000D02*
X212170000Y-80500000D01*
X213500000Y-81830000D02*
X212170000Y-81830000D01*
X214830000Y-66470000D02*
X212170000Y-66470000D01*
X214830000Y-79230000D02*
X212170000Y-79230000D01*
X214830000Y-79230000D02*
X214830000Y-66470000D01*
%TO.C,J4*%
X186295000Y-48685000D02*
X186295000Y-56365000D01*
X186295000Y-48685000D02*
X188955000Y-48685000D01*
X186295000Y-56365000D02*
X188955000Y-56365000D01*
X187625000Y-46085000D02*
X188955000Y-46085000D01*
X188955000Y-46085000D02*
X188955000Y-47415000D01*
X188955000Y-48685000D02*
X188955000Y-56365000D01*
%TO.C,SDA-4.7k1*%
X189615000Y-126655000D02*
X196155000Y-126655000D01*
X189615000Y-126985000D02*
X189615000Y-126655000D01*
X189615000Y-129065000D02*
X189615000Y-129395000D01*
X189615000Y-129395000D02*
X196155000Y-129395000D01*
X196155000Y-126655000D02*
X196155000Y-126985000D01*
X196155000Y-129395000D02*
X196155000Y-129065000D01*
%TO.C,J7*%
X211695000Y-56305000D02*
X211695000Y-43545000D01*
X211695000Y-58905000D02*
X211695000Y-57575000D01*
X213025000Y-58905000D02*
X211695000Y-58905000D01*
X214355000Y-43545000D02*
X211695000Y-43545000D01*
X214355000Y-56305000D02*
X211695000Y-56305000D01*
X214355000Y-56305000D02*
X214355000Y-43545000D01*
%TO.C,J18*%
X162540000Y-133580000D02*
X162540000Y-138880000D01*
X175350000Y-133580000D02*
X162540000Y-133580000D01*
X175350000Y-133580000D02*
X175350000Y-136230000D01*
X175350000Y-136230000D02*
X178000000Y-136230000D01*
X176620000Y-133580000D02*
X178000000Y-133580000D01*
X178000000Y-133580000D02*
X178000000Y-134960000D01*
X178000000Y-136230000D02*
X178000000Y-138880000D01*
X178000000Y-138880000D02*
X162540000Y-138880000D01*
%TO.C,J19*%
X163120000Y-106420000D02*
X164500000Y-106420000D01*
X163120000Y-107800000D02*
X163120000Y-106420000D01*
X163120000Y-109070000D02*
X163120000Y-121880000D01*
X163120000Y-109070000D02*
X165880000Y-109070000D01*
X163120000Y-121880000D02*
X165880000Y-121880000D01*
X165880000Y-109070000D02*
X165880000Y-121880000D01*
%TO.C,J6*%
X163250000Y-43200000D02*
X163250000Y-51250000D01*
X163250000Y-59300000D02*
X163250000Y-51250000D01*
X166200000Y-42450000D02*
X166200000Y-43200000D01*
X166200000Y-43200000D02*
X163250000Y-43200000D01*
X166200000Y-59300000D02*
X163250000Y-59300000D01*
X166200000Y-60050000D02*
X166200000Y-59300000D01*
X168750000Y-42150000D02*
X167500000Y-42150000D01*
X168750000Y-43400000D02*
X168750000Y-42150000D01*
X167700000Y-42450000D02*
X168450000Y-42450000D01*
X168450000Y-44250000D01*
X167700000Y-44250000D01*
X167700000Y-42450000D01*
X167700000Y-45750000D02*
X168450000Y-45750000D01*
X168450000Y-56750000D01*
X167700000Y-56750000D01*
X167700000Y-45750000D01*
X167700000Y-58250000D02*
X168450000Y-58250000D01*
X168450000Y-60050000D01*
X167700000Y-60050000D01*
X167700000Y-58250000D01*
X162490000Y-42440000D02*
X168460000Y-42440000D01*
X168460000Y-60060000D01*
X162490000Y-60060000D01*
X162490000Y-42440000D01*
%TO.C,J3*%
X186770000Y-71610000D02*
X186770000Y-79290000D01*
X186770000Y-71610000D02*
X189430000Y-71610000D01*
X186770000Y-79290000D02*
X189430000Y-79290000D01*
X188100000Y-69010000D02*
X189430000Y-69010000D01*
X189430000Y-69010000D02*
X189430000Y-70340000D01*
X189430000Y-71610000D02*
X189430000Y-79290000D01*
%TO.C,J2*%
X208720000Y-99320000D02*
X210100000Y-99320000D01*
X208720000Y-100700000D02*
X208720000Y-99320000D01*
X208720000Y-101970000D02*
X208720000Y-137640000D01*
X208720000Y-101970000D02*
X211480000Y-101970000D01*
X208720000Y-137640000D02*
X211480000Y-137640000D01*
X211480000Y-101970000D02*
X211480000Y-137640000D01*
%TO.C,SW1*%
X224330000Y-115830000D02*
X223000000Y-115830000D01*
X224330000Y-114500000D02*
X224330000Y-115830000D01*
X221730000Y-115830000D02*
X219130000Y-115830000D01*
X221730000Y-113170000D02*
X221730000Y-115830000D01*
X221730000Y-113170000D02*
X219130000Y-113170000D01*
X219130000Y-113170000D02*
X219130000Y-115830000D01*
%TD*%
M02*
