%TF.GenerationSoftware,KiCad,Pcbnew,10.0.3-10.0.3~ubuntu24.04.1*%
%TF.CreationDate,2026-06-19T10:22:30+02:00*%
%TF.ProjectId,_V0_3-Scale_Module,5f56305f-332d-4536-9361-6c655f4d6f64,rev?*%
%TF.SameCoordinates,Original*%
%TF.FileFunction,Copper,L2,Bot*%
%TF.FilePolarity,Positive*%
%FSLAX46Y46*%
G04 Gerber Fmt 4.6, Leading zero omitted, Abs format (unit mm)*
G04 Created by KiCad (PCBNEW 10.0.3-10.0.3~ubuntu24.04.1) date 2026-06-19 10:22:30*
%MOMM*%
%LPD*%
G01*
G04 APERTURE LIST*
G04 Aperture macros list*
%AMRoundRect*
0 Rectangle with rounded corners*
0 $1 Rounding radius*
0 $2 $3 $4 $5 $6 $7 $8 $9 X,Y pos of 4 corners*
0 Add a 4 corners polygon primitive as box body*
4,1,4,$2,$3,$4,$5,$6,$7,$8,$9,$2,$3,0*
0 Add four circle primitives for the rounded corners*
1,1,$1+$1,$2,$3*
1,1,$1+$1,$4,$5*
1,1,$1+$1,$6,$7*
1,1,$1+$1,$8,$9*
0 Add four rect primitives between the rounded corners*
20,1,$1+$1,$2,$3,$4,$5,0*
20,1,$1+$1,$4,$5,$6,$7,0*
20,1,$1+$1,$6,$7,$8,$9,0*
20,1,$1+$1,$8,$9,$2,$3,0*%
G04 Aperture macros list end*
%TA.AperFunction,ComponentPad*%
%ADD10RoundRect,0.250000X0.725000X-0.600000X0.725000X0.600000X-0.725000X0.600000X-0.725000X-0.600000X0*%
%TD*%
%TA.AperFunction,ComponentPad*%
%ADD11O,1.950000X1.700000*%
%TD*%
%TA.AperFunction,ComponentPad*%
%ADD12R,1.700000X1.700000*%
%TD*%
%TA.AperFunction,ComponentPad*%
%ADD13C,1.700000*%
%TD*%
%TA.AperFunction,ComponentPad*%
%ADD14RoundRect,0.250000X-0.750000X0.750000X-0.750000X-0.750000X0.750000X-0.750000X0.750000X0.750000X0*%
%TD*%
%TA.AperFunction,ComponentPad*%
%ADD15C,2.000000*%
%TD*%
%TA.AperFunction,ComponentPad*%
%ADD16RoundRect,0.250000X-0.600000X-0.725000X0.600000X-0.725000X0.600000X0.725000X-0.600000X0.725000X0*%
%TD*%
%TA.AperFunction,ComponentPad*%
%ADD17O,1.700000X1.950000*%
%TD*%
%TA.AperFunction,ComponentPad*%
%ADD18C,1.600000*%
%TD*%
%TA.AperFunction,ComponentPad*%
%ADD19RoundRect,0.250000X-0.725000X0.600000X-0.725000X-0.600000X0.725000X-0.600000X0.725000X0.600000X0*%
%TD*%
%TA.AperFunction,ViaPad*%
%ADD20C,0.600000*%
%TD*%
%TA.AperFunction,Conductor*%
%ADD21C,0.250000*%
%TD*%
%TA.AperFunction,Conductor*%
%ADD22C,1.500000*%
%TD*%
G04 APERTURE END LIST*
D10*
%TO.P,J12,1,Pin_1_1*%
%TO.N,GND*%
X235500000Y-83000000D03*
D11*
%TO.P,J12,2,Pin_2_2*%
%TO.N,Net-(J12-Pin_2)*%
X235500000Y-80500000D03*
%TO.P,J12,3,Pin_3_3*%
%TO.N,Net-(J12-Pin_3)*%
X235500000Y-78000000D03*
%TO.P,J12,4,Pin_4_4*%
%TO.N,Net-(J12-Pin_4)*%
X235500000Y-75500000D03*
%TO.P,J12,5,Pin_5_5*%
%TO.N,Net-(J12-Pin_5)*%
X235500000Y-73000000D03*
%TD*%
D12*
%TO.P,J1,1,Pin_1_1*%
%TO.N,/3.3V*%
X184700000Y-100700000D03*
D13*
%TO.P,J1,2,Pin_2_2*%
%TO.N,GND*%
X184700000Y-103240000D03*
%TO.P,J1,3,Pin_3_3*%
%TO.N,/GPIO15*%
X184700000Y-105780000D03*
%TO.P,J1,4,Pin_4_4*%
%TO.N,/GPIO2*%
X184700000Y-108320000D03*
%TO.P,J1,5,Pin_5_5*%
%TO.N,/GPIO4*%
X184700000Y-110860000D03*
%TO.P,J1,6,Pin_6_6*%
%TO.N,/GPIO16*%
X184700000Y-113400000D03*
%TO.P,J1,7,Pin_7_7*%
%TO.N,/GPIO17*%
X184700000Y-115940000D03*
%TO.P,J1,8,Pin_8_8*%
%TO.N,/GPIO5*%
X184700000Y-118480000D03*
%TO.P,J1,9,Pin_9_9*%
%TO.N,/GPIO18*%
X184700000Y-121020000D03*
%TO.P,J1,10,Pin_10_10*%
%TO.N,/GPIO19*%
X184700000Y-123560000D03*
%TO.P,J1,11,Pin_11_11*%
%TO.N,/GPIO21*%
X184700000Y-126100000D03*
%TO.P,J1,12,Pin_12_12*%
%TO.N,/ESP32-RX0*%
X184700000Y-128640000D03*
%TO.P,J1,13,Pin_13_13*%
%TO.N,/ESP32-TX0*%
X184700000Y-131180000D03*
%TO.P,J1,14,Pin_14_14*%
%TO.N,/GPIO22*%
X184700000Y-133720000D03*
%TO.P,J1,15,Pin_15_15*%
%TO.N,/GPIO23*%
X184700000Y-136260000D03*
%TD*%
D14*
%TO.P,J10,1,Pin_1_1*%
%TO.N,GND*%
X166500000Y-85960000D03*
D15*
%TO.P,J10,2,Pin_2_2*%
%TO.N,/3.3V*%
X166500000Y-88500000D03*
%TD*%
D16*
%TO.P,J20,1,Pin_1_1*%
%TO.N,/3.3V*%
X217500000Y-134500000D03*
D17*
%TO.P,J20,2,Pin_2_2*%
%TO.N,GND*%
X220000000Y-134500000D03*
%TO.P,J20,3,Pin_3_3*%
%TO.N,/GPIO21*%
X222500000Y-134500000D03*
%TO.P,J20,4,Pin_4_4*%
%TO.N,/GPIO22*%
X225000000Y-134500000D03*
%TD*%
D12*
%TO.P,J9,1,Pin_1_1*%
%TO.N,/3.3V*%
X175000000Y-96500000D03*
D13*
%TO.P,J9,2,Pin_2_2*%
%TO.N,/GPIO5*%
X175000000Y-93960000D03*
%TO.P,J9,3,Pin_3_3*%
%TO.N,/GPIO19*%
X175000000Y-91420000D03*
%TO.P,J9,4,Pin_4_4*%
%TO.N,/GPIO18*%
X175000000Y-88880000D03*
%TO.P,J9,5,Pin_5_5*%
%TO.N,/GPIO23*%
X175000000Y-86340000D03*
%TO.P,J9,6,Pin_6_6*%
%TO.N,GND*%
X175000000Y-83800000D03*
%TD*%
D18*
%TO.P,SCL-4.7k1,1*%
%TO.N,/3.3V*%
X189075000Y-132075000D03*
%TO.P,SCL-4.7k1,2*%
%TO.N,/GPIO22*%
X196695000Y-132075000D03*
%TD*%
D12*
%TO.P,J5,1,Pin_1_1*%
%TO.N,/GPIO22*%
X228000000Y-99120000D03*
D13*
%TO.P,J5,2,Pin_2_2*%
%TO.N,/GPIO21*%
X228000000Y-96580000D03*
%TO.P,J5,3,Pin_3_3*%
%TO.N,/3.3V*%
X228000000Y-94040000D03*
%TO.P,J5,4,Pin_4_4*%
%TO.N,GND*%
X228000000Y-91500000D03*
%TD*%
D10*
%TO.P,J11,1,Pin_1_1*%
%TO.N,GND*%
X235500000Y-60000000D03*
D11*
%TO.P,J11,2,Pin_2_2*%
%TO.N,Net-(J11-Pin_2)*%
X235500000Y-57500000D03*
%TO.P,J11,3,Pin_3_3*%
%TO.N,Net-(J11-Pin_3)*%
X235500000Y-55000000D03*
%TO.P,J11,4,Pin_4_4*%
%TO.N,Net-(J11-Pin_4)*%
X235500000Y-52500000D03*
%TO.P,J11,5,Pin_5_5*%
%TO.N,Net-(J11-Pin_5)*%
X235500000Y-50000000D03*
%TD*%
D19*
%TO.P,J16,1,Pin_1_1*%
%TO.N,/3.3V*%
X166000000Y-65000000D03*
D11*
%TO.P,J16,2,Pin_2_2*%
X166000000Y-67500000D03*
%TO.P,J16,3,Pin_3_3*%
%TO.N,GND*%
X166000000Y-70000000D03*
%TO.P,J16,4,Pin_4_4*%
%TO.N,/GPIO14*%
X166000000Y-72500000D03*
%TO.P,J16,5,Pin_5_5*%
%TO.N,/GPIO13*%
X166000000Y-75000000D03*
%TO.P,J16,6,Pin_6_6*%
%TO.N,/GPIO34*%
X166000000Y-77500000D03*
%TD*%
D10*
%TO.P,J13,1,Pin_1_1*%
%TO.N,/3.3V*%
X235000000Y-111500000D03*
D11*
%TO.P,J13,2,Pin_2_2*%
%TO.N,GND*%
X235000000Y-109000000D03*
%TO.P,J13,3,Pin_3_3*%
%TO.N,/GPIO4*%
X235000000Y-106500000D03*
%TD*%
D10*
%TO.P,J15,1,Pin_1_1*%
%TO.N,/3.3V*%
X235000000Y-126500000D03*
D11*
%TO.P,J15,2,Pin_2_2*%
%TO.N,GND*%
X235000000Y-124000000D03*
%TO.P,J15,3,Pin_3_3*%
%TO.N,/GPIO21*%
X235000000Y-121500000D03*
%TO.P,J15,4,Pin_4_4*%
%TO.N,/GPIO22*%
X235000000Y-119000000D03*
%TD*%
D14*
%TO.P,J17,1,Pin_1_1*%
%TO.N,/GPIO21*%
X166500000Y-96000000D03*
D15*
%TO.P,J17,2,Pin_2_2*%
%TO.N,/GPIO22*%
X166500000Y-98540000D03*
%TD*%
D18*
%TO.P,1W-4.7k1,1*%
%TO.N,/3.3V*%
X217190000Y-109500000D03*
%TO.P,1W-4.7k1,2*%
%TO.N,/GPIO4*%
X224810000Y-109500000D03*
%TD*%
D12*
%TO.P,J8,1,Pin_1_1*%
%TO.N,Net-(J12-Pin_2)*%
X213500000Y-80500000D03*
D13*
%TO.P,J8,2,Pin_2_2*%
%TO.N,Net-(J12-Pin_3)*%
X213500000Y-77960000D03*
%TO.P,J8,3,Pin_3_3*%
%TO.N,Net-(J12-Pin_4)*%
X213500000Y-75420000D03*
%TO.P,J8,4,Pin_4_4*%
%TO.N,Net-(J12-Pin_5)*%
X213500000Y-72880000D03*
%TO.P,J8,5,Pin_5_5*%
%TO.N,unconnected-(J8-Pin_5-Pad5)*%
X213500000Y-70340000D03*
%TO.P,J8,6,Pin_6_6*%
%TO.N,unconnected-(J8-Pin_6-Pad6)*%
X213500000Y-67800000D03*
%TD*%
D12*
%TO.P,J4,1,Pin_1_1*%
%TO.N,/3.3V*%
X187625000Y-47415000D03*
D13*
%TO.P,J4,2,Pin_2_2*%
%TO.N,/GPIO17*%
X187625000Y-49955000D03*
%TO.P,J4,3,Pin_3_3*%
%TO.N,/GPIO16*%
X187625000Y-52495000D03*
%TO.P,J4,4,Pin_4_4*%
%TO.N,GND*%
X187625000Y-55035000D03*
%TD*%
D18*
%TO.P,SDA-4.7k1,1*%
%TO.N,/3.3V*%
X189075000Y-128025000D03*
%TO.P,SDA-4.7k1,2*%
%TO.N,/GPIO21*%
X196695000Y-128025000D03*
%TD*%
D12*
%TO.P,J7,1,Pin_1_1*%
%TO.N,Net-(J11-Pin_2)*%
X213025000Y-57575000D03*
D13*
%TO.P,J7,2,Pin_2_2*%
%TO.N,Net-(J11-Pin_3)*%
X213025000Y-55035000D03*
%TO.P,J7,3,Pin_3_3*%
%TO.N,Net-(J11-Pin_4)*%
X213025000Y-52495000D03*
%TO.P,J7,4,Pin_4_4*%
%TO.N,Net-(J11-Pin_5)*%
X213025000Y-49955000D03*
%TO.P,J7,5,Pin_5_5*%
%TO.N,unconnected-(J7-Pin_5-Pad5)*%
X213025000Y-47415000D03*
%TO.P,J7,6,Pin_6_6*%
%TO.N,unconnected-(J7-Pin_6-Pad6)*%
X213025000Y-44875000D03*
%TD*%
D12*
%TO.P,J18,1,Pin_1_1*%
%TO.N,/3.3V*%
X176620000Y-134960000D03*
D13*
%TO.P,J18,2,Pin_2_2*%
%TO.N,GND*%
X176620000Y-137500000D03*
%TO.P,J18,3,Pin_3_3*%
%TO.N,/GPIO2*%
X174080000Y-134960000D03*
%TO.P,J18,4,Pin_4_4*%
%TO.N,/GPIO12*%
X174080000Y-137500000D03*
%TO.P,J18,5,Pin_5_5*%
%TO.N,/GPIO22*%
X171540000Y-134960000D03*
%TO.P,J18,6,Pin_6_6*%
%TO.N,/GPIO15*%
X171540000Y-137500000D03*
%TO.P,J18,7,Pin_7_7*%
%TO.N,/GPIO26*%
X169000000Y-134960000D03*
%TO.P,J18,8,Pin_8_8*%
%TO.N,/GPIO25*%
X169000000Y-137500000D03*
%TO.P,J18,9,Pin_9_9*%
%TO.N,/ESP32-TX0*%
X166460000Y-134960000D03*
%TO.P,J18,10,Pin_10_10*%
%TO.N,/GPIO35*%
X166460000Y-137500000D03*
%TO.P,J18,11,Pin_11_11*%
%TO.N,/ESP32-RX0*%
X163920000Y-134960000D03*
%TO.P,J18,12,Pin_12_12*%
%TO.N,/EN_ESP32*%
X163920000Y-137500000D03*
%TD*%
D12*
%TO.P,J19,1,Pin_1_1*%
%TO.N,GND*%
X164500000Y-107800000D03*
D13*
%TO.P,J19,2,Pin_2_2*%
X164500000Y-110340000D03*
%TO.P,J19,3,Pin_3_3*%
%TO.N,/3.3V*%
X164500000Y-112880000D03*
%TO.P,J19,4,Pin_4_4*%
X164500000Y-115420000D03*
%TO.P,J19,5,Pin_5_5*%
%TO.N,/GPIO21*%
X164500000Y-117960000D03*
%TO.P,J19,6,Pin_6_6*%
%TO.N,/GPIO22*%
X164500000Y-120500000D03*
%TD*%
D19*
%TO.P,J6,1,Pin_1_1*%
%TO.N,/3.3V*%
X166000000Y-45000000D03*
D11*
%TO.P,J6,2,Pin_2_2*%
%TO.N,GND*%
X166000000Y-47500000D03*
%TO.P,J6,3,Pin_3_3*%
X166000000Y-50000000D03*
%TO.P,J6,4,Pin_4_4*%
%TO.N,/GPIO14*%
X166000000Y-52500000D03*
%TO.P,J6,5,Pin_5_5*%
%TO.N,/GPIO13*%
X166000000Y-55000000D03*
%TO.P,J6,6,Pin_6_6*%
%TO.N,/GPIO34*%
X166000000Y-57500000D03*
%TD*%
D12*
%TO.P,J3,1,Pin_1_1*%
%TO.N,/3.3V*%
X188100000Y-70340000D03*
D13*
%TO.P,J3,2,Pin_2_2*%
%TO.N,/GPIO33*%
X188100000Y-72880000D03*
%TO.P,J3,3,Pin_3_3*%
%TO.N,/GPIO32*%
X188100000Y-75420000D03*
%TO.P,J3,4,Pin_4_4*%
%TO.N,GND*%
X188100000Y-77960000D03*
%TD*%
D12*
%TO.P,J2,1,Pin_1_1*%
%TO.N,unconnected-(J2-Pin_1-Pad1)*%
X210100000Y-100700000D03*
D13*
%TO.P,J2,2,Pin_2_2*%
%TO.N,GND*%
X210100000Y-103240000D03*
%TO.P,J2,3,Pin_3_3*%
%TO.N,/GPIO13*%
X210100000Y-105780000D03*
%TO.P,J2,4,Pin_4_4*%
%TO.N,/GPIO12*%
X210100000Y-108320000D03*
%TO.P,J2,5,Pin_5_5*%
%TO.N,/GPIO14*%
X210100000Y-110860000D03*
%TO.P,J2,6,Pin_6_6*%
%TO.N,/GPIO27*%
X210100000Y-113400000D03*
%TO.P,J2,7,Pin_7_7*%
%TO.N,/GPIO26*%
X210100000Y-115940000D03*
%TO.P,J2,8,Pin_8_8*%
%TO.N,/GPIO25*%
X210100000Y-118480000D03*
%TO.P,J2,9,Pin_9_9*%
%TO.N,/GPIO33*%
X210100000Y-121020000D03*
%TO.P,J2,10,Pin_10_10*%
%TO.N,/GPIO32*%
X210100000Y-123560000D03*
%TO.P,J2,11,Pin_11_11*%
%TO.N,/GPIO35*%
X210100000Y-126100000D03*
%TO.P,J2,12,Pin_12_12*%
%TO.N,/GPIO34*%
X210100000Y-128640000D03*
%TO.P,J2,13,Pin_13_13*%
%TO.N,unconnected-(J2-Pin_13-Pad13)*%
X210100000Y-131180000D03*
%TO.P,J2,14,Pin_14_14*%
%TO.N,unconnected-(J2-Pin_14-Pad14)*%
X210100000Y-133720000D03*
%TO.P,J2,15,Pin_15_15*%
%TO.N,/EN_ESP32*%
X210100000Y-136260000D03*
%TD*%
D12*
%TO.P,SW1,1,1_1*%
%TO.N,GND*%
X223000000Y-114500000D03*
D13*
%TO.P,SW1,2,2_2*%
%TO.N,/GPIO27*%
X220460000Y-114500000D03*
%TD*%
D20*
%TO.N,GND*%
X162900000Y-132900000D03*
X165300000Y-139000000D03*
X179300000Y-127600000D03*
X233500000Y-107700000D03*
X236900000Y-110200000D03*
X169500000Y-70500000D03*
X169600000Y-69100000D03*
X236700000Y-107700000D03*
%TO.N,/GPIO35*%
X201000400Y-139000000D03*
%TO.N,GND*%
X165000000Y-125000000D03*
X168500000Y-128000000D03*
X166000000Y-129000000D03*
X162000000Y-129000000D03*
X162500000Y-125500000D03*
X162000000Y-115500000D03*
X162000000Y-94000000D03*
X162000000Y-99500000D03*
X162000000Y-104000000D03*
X171000000Y-108500000D03*
X202500000Y-110500000D03*
X207500000Y-110500000D03*
X202000000Y-105000000D03*
X188500000Y-82000000D03*
X188000000Y-92500000D03*
X188000000Y-91000000D03*
X187500000Y-96500000D03*
X172000000Y-100000000D03*
X162000000Y-82500000D03*
X163000000Y-91500000D03*
X172000000Y-91000000D03*
X172500000Y-86500000D03*
X166500000Y-81500000D03*
X181500000Y-88000000D03*
X181000000Y-84500000D03*
X175500000Y-79500000D03*
X169500000Y-80000000D03*
X173000000Y-76000000D03*
X174500000Y-69500000D03*
X180000000Y-70500000D03*
X182000000Y-75500000D03*
X181000000Y-64000000D03*
X172500000Y-62500000D03*
X166500000Y-61000000D03*
X166500000Y-59500000D03*
X162500000Y-61000000D03*
X164000000Y-54000000D03*
X174500000Y-52000000D03*
X182500000Y-51000000D03*
X182500000Y-43000000D03*
X163000000Y-41000000D03*
X174000000Y-42000000D03*
X190000000Y-43500000D03*
X188000000Y-60000000D03*
X190500000Y-66500000D03*
X198500000Y-73500000D03*
X207000000Y-82000000D03*
X208500000Y-68500000D03*
X226000000Y-83000000D03*
X230000000Y-70000000D03*
X228500000Y-45000000D03*
X210000000Y-59500000D03*
X210000000Y-44000000D03*
X238000000Y-42500000D03*
X228000000Y-60500000D03*
X218000000Y-61000000D03*
X220000000Y-69000000D03*
X237500000Y-66500000D03*
X237500000Y-89500000D03*
X219000000Y-82500000D03*
X196000000Y-75000000D03*
X205500000Y-97000000D03*
X211500000Y-87500000D03*
X224500000Y-96500000D03*
X225000000Y-104500000D03*
X234000000Y-102500000D03*
X240000000Y-103500000D03*
X239500000Y-129500000D03*
X239500000Y-115500000D03*
X215000000Y-112500000D03*
X215000000Y-110000000D03*
X215000000Y-116500000D03*
X214000000Y-127500000D03*
X220500000Y-131500000D03*
X215000000Y-131000000D03*
X214000000Y-138000000D03*
X232000000Y-137000000D03*
X238000000Y-132000000D03*
X220500000Y-119500000D03*
X227000000Y-116500000D03*
%TO.N,/GPIO26*%
X208669100Y-130615000D03*
%TO.N,/GPIO12*%
X212882000Y-136573200D03*
%TO.N,/GPIO34*%
X168613100Y-59004700D03*
%TO.N,/GPIO18*%
X176433000Y-93501800D03*
X181158400Y-117996700D03*
%TO.N,/GPIO5*%
X182625300Y-98368000D03*
%TO.N,/GPIO16*%
X188306800Y-115850000D03*
%TO.N,/GPIO2*%
X168275800Y-117179100D03*
%TO.N,/GPIO15*%
X178234100Y-108170200D03*
%TD*%
%TO.N,/GPIO35*%
D21*
X201000400Y-139000000D02*
X200800400Y-139200000D01*
X200800400Y-139200000D02*
X177359519Y-139200000D01*
X177359519Y-139200000D02*
X177334518Y-139225000D01*
X175880481Y-139200000D02*
X168160000Y-139200000D01*
X177334518Y-139225000D02*
X175905482Y-139225000D01*
X175905482Y-139225000D02*
X175880481Y-139200000D01*
X168160000Y-139200000D02*
X166460000Y-137500000D01*
%TO.N,/GPIO12*%
X174080000Y-137500000D02*
X174980000Y-138400000D01*
X174980000Y-138400000D02*
X175787588Y-138400000D01*
X175787588Y-138400000D02*
X176112588Y-138725000D01*
X200400000Y-138400000D02*
X200500000Y-138300000D01*
X210728300Y-138726900D02*
X212882000Y-136573200D01*
X176112588Y-138725000D02*
X177127412Y-138725000D01*
X177127412Y-138725000D02*
X177452412Y-138400000D01*
X177452412Y-138400000D02*
X200400000Y-138400000D01*
X200500000Y-138300000D02*
X201673100Y-138300000D01*
X201673100Y-138300000D02*
X202100000Y-138726900D01*
X202100000Y-138726900D02*
X210728300Y-138726900D01*
%TO.N,/GPIO27*%
X211200000Y-114500000D02*
X210100000Y-113400000D01*
X220460000Y-114500000D02*
X211200000Y-114500000D01*
%TO.N,/EN_ESP32*%
X165190000Y-136230000D02*
X163920000Y-137500000D01*
X179296200Y-136230000D02*
X165190000Y-136230000D01*
X180569600Y-137503400D02*
X179296200Y-136230000D01*
X208856600Y-137503400D02*
X180569600Y-137503400D01*
X210100000Y-136260000D02*
X208856600Y-137503400D01*
%TO.N,/GPIO26*%
X188417200Y-130615000D02*
X208669100Y-130615000D01*
X186582300Y-132449900D02*
X188417200Y-130615000D01*
X171510100Y-132449900D02*
X186582300Y-132449900D01*
X169000000Y-134960000D02*
X171510100Y-132449900D01*
%TO.N,/GPIO34*%
X167351700Y-57743300D02*
X168613100Y-59004700D01*
X167351700Y-57500000D02*
X167351700Y-57743300D01*
X166000000Y-57500000D02*
X167351700Y-57500000D01*
X166000000Y-77500000D02*
X166000000Y-78726700D01*
X172343300Y-85070000D02*
X166000000Y-78726700D01*
X175519500Y-85070000D02*
X172343300Y-85070000D01*
X185934700Y-95485200D02*
X175519500Y-85070000D01*
X185934700Y-108882500D02*
X185934700Y-95485200D01*
X185183900Y-109633300D02*
X185934700Y-108882500D01*
X184144100Y-109633300D02*
X185183900Y-109633300D01*
X183403400Y-110374000D02*
X184144100Y-109633300D01*
X183403400Y-111317400D02*
X183403400Y-110374000D01*
X184259300Y-112173300D02*
X183403400Y-111317400D01*
X185255800Y-112173300D02*
X184259300Y-112173300D01*
X188255800Y-115173300D02*
X185255800Y-112173300D01*
X196633300Y-115173300D02*
X188255800Y-115173300D01*
X210100000Y-128640000D02*
X196633300Y-115173300D01*
%TO.N,/GPIO13*%
X166000000Y-75000000D02*
X166000000Y-73773300D01*
X166000000Y-55000000D02*
X166000000Y-56226700D01*
X165366700Y-56226700D02*
X166000000Y-56226700D01*
X164642800Y-56950600D02*
X165366700Y-56226700D01*
X164642800Y-70569800D02*
X164642800Y-56950600D01*
X165323000Y-71250000D02*
X164642800Y-70569800D01*
X175570000Y-71250000D02*
X165323000Y-71250000D01*
X210100000Y-105780000D02*
X175570000Y-71250000D01*
X165366700Y-73773300D02*
X166000000Y-73773300D01*
X164636600Y-73043200D02*
X165366700Y-73773300D01*
X164636600Y-71936400D02*
X164636600Y-73043200D01*
X165323000Y-71250000D02*
X164636600Y-71936400D01*
%TO.N,/GPIO14*%
X171740000Y-72500000D02*
X166000000Y-72500000D01*
X210100000Y-110860000D02*
X171740000Y-72500000D01*
%TO.N,Net-(J11-Pin_5)*%
X234103300Y-49955000D02*
X234148300Y-50000000D01*
X213025000Y-49955000D02*
X234103300Y-49955000D01*
X235500000Y-50000000D02*
X234148300Y-50000000D01*
%TO.N,Net-(J11-Pin_4)*%
X234143300Y-52495000D02*
X234148300Y-52500000D01*
X213025000Y-52495000D02*
X234143300Y-52495000D01*
X235500000Y-52500000D02*
X234148300Y-52500000D01*
%TO.N,Net-(J11-Pin_3)*%
X234113300Y-55035000D02*
X234148300Y-55000000D01*
X213025000Y-55035000D02*
X234113300Y-55035000D01*
X235500000Y-55000000D02*
X234148300Y-55000000D01*
%TO.N,Net-(J11-Pin_2)*%
X234073300Y-57575000D02*
X234148300Y-57500000D01*
X213025000Y-57575000D02*
X234073300Y-57575000D01*
X235500000Y-57500000D02*
X234148300Y-57500000D01*
%TO.N,/GPIO22*%
X172780000Y-133720000D02*
X184700000Y-133720000D01*
X171540000Y-134960000D02*
X172780000Y-133720000D01*
X235000000Y-119000000D02*
X235000000Y-120226700D01*
X195050000Y-133720000D02*
X184700000Y-133720000D01*
X196695000Y-132075000D02*
X195050000Y-133720000D01*
X229281400Y-134500000D02*
X225000000Y-134500000D01*
X236370800Y-127410600D02*
X229281400Y-134500000D01*
X236370800Y-120984200D02*
X236370800Y-127410600D01*
X235613300Y-120226700D02*
X236370800Y-120984200D01*
X235000000Y-120226700D02*
X235613300Y-120226700D01*
X199610000Y-134990000D02*
X196695000Y-132075000D01*
X210780000Y-134990000D02*
X199610000Y-134990000D01*
X211658600Y-135868600D02*
X210780000Y-134990000D01*
X223631400Y-135868600D02*
X211658600Y-135868600D01*
X225000000Y-134500000D02*
X223631400Y-135868600D01*
X163273300Y-101766700D02*
X166500000Y-98540000D01*
X163273300Y-119273300D02*
X163273300Y-101766700D01*
X164500000Y-120500000D02*
X163273300Y-119273300D01*
%TO.N,/ESP32-TX0*%
X170240000Y-131180000D02*
X184700000Y-131180000D01*
X166460000Y-134960000D02*
X170240000Y-131180000D01*
%TO.N,/ESP32-RX0*%
X170240000Y-128640000D02*
X163920000Y-134960000D01*
X184700000Y-128640000D02*
X170240000Y-128640000D01*
%TO.N,/GPIO21*%
X235000000Y-121500000D02*
X235000000Y-122726700D01*
X222500000Y-134500000D02*
X223726700Y-134500000D01*
X194770000Y-126100000D02*
X184700000Y-126100000D01*
X196695000Y-128025000D02*
X194770000Y-126100000D01*
X234347500Y-122726700D02*
X223726700Y-133347500D01*
X235000000Y-122726700D02*
X234347500Y-122726700D01*
X223726700Y-133347500D02*
X223726700Y-134500000D01*
X176560000Y-117960000D02*
X184700000Y-126100000D01*
X164500000Y-117960000D02*
X176560000Y-117960000D01*
X198579800Y-129909800D02*
X196695000Y-128025000D01*
X220289000Y-129909800D02*
X198579800Y-129909800D01*
X223726700Y-133347500D02*
X220289000Y-129909800D01*
%TO.N,/GPIO18*%
X176433000Y-90313000D02*
X176433000Y-93501800D01*
X175000000Y-88880000D02*
X176433000Y-90313000D01*
X184181700Y-121020000D02*
X184700000Y-121020000D01*
X181158400Y-117996700D02*
X184181700Y-121020000D01*
%TO.N,/GPIO5*%
X178435800Y-94178500D02*
X182625300Y-98368000D01*
X175218500Y-94178500D02*
X178435800Y-94178500D01*
X175000000Y-93960000D02*
X175218500Y-94178500D01*
%TO.N,/GPIO16*%
X187150000Y-115850000D02*
X184700000Y-113400000D01*
X188306800Y-115850000D02*
X187150000Y-115850000D01*
%TO.N,/GPIO4*%
X227810000Y-106500000D02*
X224810000Y-109500000D01*
X235000000Y-106500000D02*
X227810000Y-106500000D01*
X185970000Y-112130000D02*
X184700000Y-110860000D01*
X210596100Y-112130000D02*
X185970000Y-112130000D01*
X214433500Y-108292600D02*
X210596100Y-112130000D01*
X223602600Y-108292600D02*
X214433500Y-108292600D01*
X224810000Y-109500000D02*
X223602600Y-108292600D01*
%TO.N,/GPIO2*%
X175840900Y-117179100D02*
X168275800Y-117179100D01*
X184700000Y-108320000D02*
X175840900Y-117179100D01*
%TO.N,/GPIO15*%
X180624300Y-105780000D02*
X184700000Y-105780000D01*
X178234100Y-108170200D02*
X180624300Y-105780000D01*
%TO.N,/3.3V*%
D22*
X183408300Y-67500000D02*
X166000000Y-67500000D01*
X186248300Y-70340000D02*
X183408300Y-67500000D01*
X188100000Y-70340000D02*
X186248300Y-70340000D01*
X187625000Y-47415000D02*
X185773300Y-47415000D01*
X219190000Y-111500000D02*
X217190000Y-109500000D01*
X235000000Y-111500000D02*
X219190000Y-111500000D01*
X185287900Y-47900400D02*
X176857600Y-47900400D01*
X185773300Y-47415000D02*
X185287900Y-47900400D01*
X173957200Y-45000000D02*
X166000000Y-45000000D01*
X176857600Y-47900400D02*
X173957200Y-45000000D01*
X176857600Y-54142400D02*
X166000000Y-65000000D01*
X176857600Y-47900400D02*
X176857600Y-54142400D01*
X173148300Y-95148300D02*
X166500000Y-88500000D01*
X173148300Y-96500000D02*
X173148300Y-95148300D01*
X175000000Y-96500000D02*
X173148300Y-96500000D01*
X200143200Y-70340000D02*
X188100000Y-70340000D01*
X223843200Y-94040000D02*
X200143200Y-70340000D01*
X228000000Y-94040000D02*
X223843200Y-94040000D01*
X178648300Y-96500000D02*
X182848300Y-100700000D01*
X175000000Y-96500000D02*
X178648300Y-96500000D01*
X184700000Y-100700000D02*
X182848300Y-100700000D01*
%TO.N,Net-(J12-Pin_5)*%
D21*
X234028300Y-72880000D02*
X234148300Y-73000000D01*
X213500000Y-72880000D02*
X234028300Y-72880000D01*
X235500000Y-73000000D02*
X234148300Y-73000000D01*
%TO.N,Net-(J12-Pin_4)*%
X234068300Y-75420000D02*
X234148300Y-75500000D01*
X213500000Y-75420000D02*
X234068300Y-75420000D01*
X235500000Y-75500000D02*
X234148300Y-75500000D01*
%TO.N,Net-(J12-Pin_3)*%
X234108300Y-77960000D02*
X234148300Y-78000000D01*
X213500000Y-77960000D02*
X234108300Y-77960000D01*
X235500000Y-78000000D02*
X234148300Y-78000000D01*
%TO.N,Net-(J12-Pin_2)*%
X213500000Y-80500000D02*
X235500000Y-80500000D01*
%TD*%
%TA.AperFunction,Conductor*%
%TO.N,GND*%
G36*
X240442539Y-40520185D02*
G01*
X240488294Y-40572989D01*
X240499500Y-40624500D01*
X240499500Y-139375500D01*
X240479815Y-139442539D01*
X240427011Y-139488294D01*
X240375500Y-139499500D01*
X212124000Y-139499500D01*
X212056961Y-139479815D01*
X212011206Y-139427011D01*
X212000000Y-139375500D01*
X212000000Y-138391151D01*
X212019685Y-138324112D01*
X212036319Y-138303470D01*
X212459874Y-137879915D01*
X212940797Y-137398991D01*
X213002118Y-137365508D01*
X213004128Y-137365089D01*
X213115497Y-137342937D01*
X213261179Y-137282594D01*
X213392289Y-137194989D01*
X213503789Y-137083489D01*
X213591394Y-136952379D01*
X213651737Y-136806697D01*
X213682500Y-136652042D01*
X213682500Y-136618100D01*
X213702185Y-136551061D01*
X213754989Y-136505306D01*
X213806500Y-136494100D01*
X223693007Y-136494100D01*
X223753429Y-136482081D01*
X223813852Y-136470063D01*
X223847192Y-136456252D01*
X223927686Y-136422912D01*
X223986734Y-136383456D01*
X224030133Y-136354458D01*
X224117258Y-136267333D01*
X224117258Y-136267331D01*
X224127466Y-136257124D01*
X224127468Y-136257121D01*
X224447817Y-135936771D01*
X224509138Y-135903288D01*
X224573813Y-135906522D01*
X224683757Y-135942246D01*
X224893713Y-135975500D01*
X224893714Y-135975500D01*
X225106286Y-135975500D01*
X225106287Y-135975500D01*
X225316243Y-135942246D01*
X225518412Y-135876557D01*
X225707816Y-135780051D01*
X225810169Y-135705688D01*
X225879786Y-135655109D01*
X225879788Y-135655106D01*
X225879792Y-135655104D01*
X226030104Y-135504792D01*
X226030106Y-135504788D01*
X226030109Y-135504786D01*
X226155048Y-135332820D01*
X226155047Y-135332820D01*
X226155051Y-135332816D01*
X226226186Y-135193204D01*
X226274160Y-135142409D01*
X226336671Y-135125500D01*
X229343007Y-135125500D01*
X229403429Y-135113481D01*
X229463852Y-135101463D01*
X229497192Y-135087652D01*
X229577686Y-135054312D01*
X229646332Y-135008443D01*
X229680133Y-134985858D01*
X229767258Y-134898733D01*
X229767258Y-134898731D01*
X229777466Y-134888524D01*
X229777467Y-134888521D01*
X236856658Y-127809333D01*
X236925112Y-127706885D01*
X236930983Y-127692712D01*
X236965286Y-127609897D01*
X236972261Y-127593056D01*
X236972263Y-127593052D01*
X236985644Y-127525781D01*
X236996301Y-127472206D01*
X236996301Y-127348993D01*
X236996300Y-127348987D01*
X236996300Y-120922594D01*
X236972263Y-120801748D01*
X236941784Y-120728165D01*
X236925112Y-120687915D01*
X236911132Y-120666993D01*
X236883362Y-120625432D01*
X236883362Y-120625433D01*
X236856658Y-120585467D01*
X236856655Y-120585464D01*
X236856653Y-120585461D01*
X236766437Y-120495245D01*
X236766406Y-120495216D01*
X236228256Y-119957066D01*
X236194771Y-119895743D01*
X236199755Y-119826051D01*
X236215619Y-119796500D01*
X236239610Y-119763478D01*
X236280051Y-119707816D01*
X236376557Y-119518412D01*
X236442246Y-119316243D01*
X236475500Y-119106287D01*
X236475500Y-118893713D01*
X236442246Y-118683757D01*
X236376557Y-118481588D01*
X236280051Y-118292184D01*
X236280049Y-118292181D01*
X236280048Y-118292179D01*
X236155109Y-118120213D01*
X236004786Y-117969890D01*
X235832820Y-117844951D01*
X235643414Y-117748444D01*
X235643413Y-117748443D01*
X235643412Y-117748443D01*
X235441243Y-117682754D01*
X235441241Y-117682753D01*
X235441240Y-117682753D01*
X235279957Y-117657208D01*
X235231287Y-117649500D01*
X234768713Y-117649500D01*
X234720042Y-117657208D01*
X234558760Y-117682753D01*
X234356585Y-117748444D01*
X234167179Y-117844951D01*
X233995213Y-117969890D01*
X233844890Y-118120213D01*
X233719951Y-118292179D01*
X233623444Y-118481585D01*
X233557753Y-118683760D01*
X233524500Y-118893713D01*
X233524500Y-119106286D01*
X233550109Y-119267978D01*
X233557754Y-119316243D01*
X233620745Y-119510109D01*
X233623444Y-119518414D01*
X233719951Y-119707820D01*
X233844890Y-119879786D01*
X233995209Y-120030105D01*
X233995214Y-120030109D01*
X234159793Y-120149682D01*
X234202459Y-120205011D01*
X234208438Y-120274625D01*
X234175833Y-120336420D01*
X234159793Y-120350318D01*
X233995214Y-120469890D01*
X233995209Y-120469894D01*
X233844890Y-120620213D01*
X233719951Y-120792179D01*
X233623444Y-120981585D01*
X233557753Y-121183760D01*
X233524500Y-121393713D01*
X233524500Y-121606286D01*
X233547508Y-121751557D01*
X233557754Y-121816243D01*
X233623443Y-122018412D01*
X233703254Y-122175051D01*
X233719951Y-122207819D01*
X233767884Y-122273794D01*
X233791364Y-122339600D01*
X233775538Y-122407654D01*
X233755247Y-122434360D01*
X223814380Y-132375228D01*
X223753057Y-132408713D01*
X223683365Y-132403729D01*
X223639018Y-132375228D01*
X220782150Y-129518360D01*
X220774860Y-129511070D01*
X220774858Y-129511067D01*
X220687733Y-129423942D01*
X220636509Y-129389715D01*
X220585286Y-129355488D01*
X220585283Y-129355486D01*
X220585280Y-129355485D01*
X220511603Y-129324968D01*
X220511601Y-129324967D01*
X220504792Y-129322147D01*
X220471452Y-129308337D01*
X220411029Y-129296318D01*
X220406306Y-129295378D01*
X220406304Y-129295378D01*
X220350610Y-129284300D01*
X220350607Y-129284300D01*
X220350606Y-129284300D01*
X212124000Y-129284300D01*
X212056961Y-129264615D01*
X212011206Y-129211811D01*
X212000000Y-129160300D01*
X212000000Y-124878711D01*
X221149500Y-124878711D01*
X221149500Y-125121288D01*
X221181161Y-125361785D01*
X221243947Y-125596104D01*
X221306535Y-125747204D01*
X221336776Y-125820212D01*
X221458064Y-126030289D01*
X221458066Y-126030292D01*
X221458067Y-126030293D01*
X221605733Y-126222736D01*
X221605739Y-126222743D01*
X221777256Y-126394260D01*
X221777262Y-126394265D01*
X221969711Y-126541936D01*
X222179788Y-126663224D01*
X222403900Y-126756054D01*
X222638211Y-126818838D01*
X222818586Y-126842584D01*
X222878711Y-126850500D01*
X222878712Y-126850500D01*
X223121289Y-126850500D01*
X223169388Y-126844167D01*
X223361789Y-126818838D01*
X223596100Y-126756054D01*
X223820212Y-126663224D01*
X224030289Y-126541936D01*
X224222738Y-126394265D01*
X224394265Y-126222738D01*
X224541936Y-126030289D01*
X224663224Y-125820212D01*
X224756054Y-125596100D01*
X224818838Y-125361789D01*
X224850500Y-125121288D01*
X224850500Y-124878712D01*
X224818838Y-124638211D01*
X224756054Y-124403900D01*
X224663224Y-124179788D01*
X224541936Y-123969711D01*
X224394265Y-123777262D01*
X224394260Y-123777256D01*
X224222743Y-123605739D01*
X224222736Y-123605733D01*
X224030293Y-123458067D01*
X224030292Y-123458066D01*
X224030289Y-123458064D01*
X223820212Y-123336776D01*
X223820205Y-123336773D01*
X223596104Y-123243947D01*
X223361785Y-123181161D01*
X223121289Y-123149500D01*
X223121288Y-123149500D01*
X222878712Y-123149500D01*
X222878711Y-123149500D01*
X222638214Y-123181161D01*
X222403895Y-123243947D01*
X222179794Y-123336773D01*
X222179785Y-123336777D01*
X221969706Y-123458067D01*
X221777263Y-123605733D01*
X221777256Y-123605739D01*
X221605739Y-123777256D01*
X221605733Y-123777263D01*
X221458067Y-123969706D01*
X221336777Y-124179785D01*
X221336773Y-124179794D01*
X221243947Y-124403895D01*
X221181161Y-124638214D01*
X221149500Y-124878711D01*
X212000000Y-124878711D01*
X212000000Y-120000000D01*
X211033990Y-120000000D01*
X211014382Y-119994242D01*
X210993962Y-119993362D01*
X210971235Y-119981573D01*
X210966951Y-119980315D01*
X210962519Y-119977331D01*
X210961787Y-119976814D01*
X210807816Y-119864949D01*
X210791135Y-119856449D01*
X210783878Y-119851331D01*
X210767458Y-119830644D01*
X210748259Y-119812512D01*
X210746078Y-119803709D01*
X210740440Y-119796605D01*
X210737810Y-119770323D01*
X210731463Y-119744692D01*
X210734387Y-119736108D01*
X210733485Y-119727082D01*
X210745481Y-119703553D01*
X210753999Y-119678556D01*
X210761571Y-119671994D01*
X210765221Y-119664836D01*
X210779335Y-119656601D01*
X210799054Y-119639515D01*
X210807816Y-119635051D01*
X210837663Y-119613366D01*
X210979786Y-119510109D01*
X210979788Y-119510106D01*
X210979792Y-119510104D01*
X211130104Y-119359792D01*
X211130104Y-119359791D01*
X211130107Y-119359789D01*
X211130109Y-119359786D01*
X211255048Y-119187820D01*
X211255047Y-119187820D01*
X211255051Y-119187816D01*
X211351557Y-118998412D01*
X211417246Y-118796243D01*
X211450500Y-118586287D01*
X211450500Y-118373713D01*
X211417246Y-118163757D01*
X211351557Y-117961588D01*
X211255051Y-117772184D01*
X211255049Y-117772181D01*
X211255048Y-117772179D01*
X211130109Y-117600213D01*
X210979786Y-117449890D01*
X210807820Y-117324951D01*
X210803123Y-117322558D01*
X210799054Y-117320485D01*
X210748259Y-117272512D01*
X210731463Y-117204692D01*
X210753999Y-117138556D01*
X210799054Y-117099515D01*
X210807816Y-117095051D01*
X210829789Y-117079086D01*
X210979786Y-116970109D01*
X210979788Y-116970106D01*
X210979792Y-116970104D01*
X211130104Y-116819792D01*
X211130106Y-116819788D01*
X211130109Y-116819786D01*
X211255048Y-116647820D01*
X211255047Y-116647820D01*
X211255051Y-116647816D01*
X211351557Y-116458412D01*
X211417246Y-116256243D01*
X211450500Y-116046287D01*
X211450500Y-115833713D01*
X211417246Y-115623757D01*
X211351557Y-115421588D01*
X211292558Y-115305795D01*
X211279662Y-115237125D01*
X211305939Y-115172385D01*
X211363045Y-115132128D01*
X211403043Y-115125500D01*
X219187019Y-115125500D01*
X219254058Y-115145185D01*
X219297503Y-115193203D01*
X219304950Y-115207819D01*
X219429890Y-115379786D01*
X219580213Y-115530109D01*
X219752179Y-115655048D01*
X219752181Y-115655049D01*
X219752184Y-115655051D01*
X219941588Y-115751557D01*
X220143757Y-115817246D01*
X220353713Y-115850500D01*
X220353714Y-115850500D01*
X220566286Y-115850500D01*
X220566287Y-115850500D01*
X220776243Y-115817246D01*
X220978412Y-115751557D01*
X221167816Y-115655051D01*
X221254478Y-115592088D01*
X221339784Y-115530110D01*
X221339784Y-115530109D01*
X221339792Y-115530104D01*
X221453717Y-115416178D01*
X221515036Y-115382696D01*
X221584728Y-115387680D01*
X221640662Y-115429551D01*
X221657577Y-115460528D01*
X221706646Y-115592088D01*
X221706649Y-115592093D01*
X221792809Y-115707187D01*
X221792812Y-115707190D01*
X221907906Y-115793350D01*
X221907913Y-115793354D01*
X222042620Y-115843596D01*
X222042627Y-115843598D01*
X222102155Y-115849999D01*
X222102172Y-115850000D01*
X222750000Y-115850000D01*
X222750000Y-114933012D01*
X222807007Y-114965925D01*
X222934174Y-115000000D01*
X223065826Y-115000000D01*
X223192993Y-114965925D01*
X223250000Y-114933012D01*
X223250000Y-115850000D01*
X223897828Y-115850000D01*
X223897844Y-115849999D01*
X223957372Y-115843598D01*
X223957379Y-115843596D01*
X224092086Y-115793354D01*
X224092093Y-115793350D01*
X224207187Y-115707190D01*
X224207190Y-115707187D01*
X224293350Y-115592093D01*
X224293354Y-115592086D01*
X224343596Y-115457379D01*
X224343598Y-115457372D01*
X224349999Y-115397844D01*
X224350000Y-115397827D01*
X224350000Y-114750000D01*
X223433012Y-114750000D01*
X223465925Y-114692993D01*
X223500000Y-114565826D01*
X223500000Y-114434174D01*
X223465925Y-114307007D01*
X223433012Y-114250000D01*
X224350000Y-114250000D01*
X224350000Y-113602172D01*
X224349999Y-113602155D01*
X224343598Y-113542627D01*
X224343596Y-113542620D01*
X224293354Y-113407913D01*
X224293350Y-113407906D01*
X224207190Y-113292812D01*
X224207187Y-113292809D01*
X224092093Y-113206649D01*
X224092086Y-113206645D01*
X223957379Y-113156403D01*
X223957372Y-113156401D01*
X223897844Y-113150000D01*
X223250000Y-113150000D01*
X223250000Y-114066988D01*
X223192993Y-114034075D01*
X223065826Y-114000000D01*
X222934174Y-114000000D01*
X222807007Y-114034075D01*
X222750000Y-114066988D01*
X222750000Y-113150000D01*
X222102155Y-113150000D01*
X222042627Y-113156401D01*
X222042620Y-113156403D01*
X221907913Y-113206645D01*
X221907906Y-113206649D01*
X221792812Y-113292809D01*
X221792809Y-113292812D01*
X221706649Y-113407906D01*
X221706646Y-113407912D01*
X221657577Y-113539471D01*
X221615705Y-113595404D01*
X221550241Y-113619821D01*
X221481968Y-113604969D01*
X221453714Y-113583818D01*
X221339786Y-113469890D01*
X221167820Y-113344951D01*
X220978414Y-113248444D01*
X220978413Y-113248443D01*
X220978412Y-113248443D01*
X220776243Y-113182754D01*
X220776241Y-113182753D01*
X220776240Y-113182753D01*
X220614957Y-113157208D01*
X220566287Y-113149500D01*
X220353713Y-113149500D01*
X220305042Y-113157208D01*
X220143760Y-113182753D01*
X219941585Y-113248444D01*
X219752179Y-113344951D01*
X219580213Y-113469890D01*
X219429890Y-113620213D01*
X219304950Y-113792180D01*
X219297503Y-113806797D01*
X219249527Y-113857592D01*
X219187019Y-113874500D01*
X211536496Y-113874500D01*
X211469457Y-113854815D01*
X211423702Y-113802011D01*
X211413758Y-113732853D01*
X211416499Y-113721071D01*
X211416109Y-113720978D01*
X211417243Y-113716251D01*
X211417246Y-113716243D01*
X211450500Y-113506287D01*
X211450500Y-113293713D01*
X211417246Y-113083757D01*
X211351557Y-112881588D01*
X211255051Y-112692184D01*
X211175680Y-112582938D01*
X211152200Y-112517132D01*
X211168026Y-112449078D01*
X211188313Y-112422376D01*
X214656271Y-108954419D01*
X214717594Y-108920934D01*
X214743952Y-108918100D01*
X215840973Y-108918100D01*
X215908012Y-108937785D01*
X215953767Y-108990589D01*
X215963711Y-109059747D01*
X215958904Y-109080418D01*
X215921523Y-109195461D01*
X215921523Y-109195464D01*
X215889500Y-109397648D01*
X215889500Y-109602351D01*
X215921522Y-109804534D01*
X215984781Y-109999223D01*
X216031362Y-110090641D01*
X216055005Y-110137044D01*
X216077715Y-110181613D01*
X216198028Y-110347213D01*
X216198034Y-110347219D01*
X216342781Y-110491966D01*
X216508390Y-110612287D01*
X216542724Y-110629781D01*
X216574110Y-110652584D01*
X218375354Y-112453828D01*
X218534595Y-112569524D01*
X218709974Y-112658884D01*
X218709976Y-112658884D01*
X218709979Y-112658886D01*
X218709977Y-112658886D01*
X218812460Y-112692184D01*
X218812461Y-112692184D01*
X218854817Y-112705946D01*
X218897173Y-112719709D01*
X219091578Y-112750500D01*
X219091583Y-112750500D01*
X233864868Y-112750500D01*
X233929963Y-112768960D01*
X233955666Y-112784814D01*
X234122203Y-112839999D01*
X234224991Y-112850500D01*
X235775008Y-112850499D01*
X235877797Y-112839999D01*
X236044334Y-112784814D01*
X236193656Y-112692712D01*
X236317712Y-112568656D01*
X236409814Y-112419334D01*
X236464999Y-112252797D01*
X236475500Y-112150009D01*
X236475499Y-110849992D01*
X236464999Y-110747203D01*
X236409814Y-110580666D01*
X236317712Y-110431344D01*
X236193656Y-110307288D01*
X236044334Y-110215186D01*
X236044332Y-110215185D01*
X236038440Y-110211551D01*
X235991716Y-110159603D01*
X235980493Y-110090641D01*
X236008337Y-110026558D01*
X236015856Y-110018330D01*
X236154728Y-109879458D01*
X236279620Y-109707557D01*
X236376095Y-109518217D01*
X236441757Y-109316129D01*
X236441757Y-109316126D01*
X236452231Y-109250000D01*
X235404146Y-109250000D01*
X235442630Y-109183343D01*
X235475000Y-109062535D01*
X235475000Y-108937465D01*
X235442630Y-108816657D01*
X235404146Y-108750000D01*
X236452231Y-108750000D01*
X236441757Y-108683873D01*
X236441757Y-108683870D01*
X236376095Y-108481782D01*
X236279620Y-108292442D01*
X236154727Y-108120540D01*
X236154723Y-108120535D01*
X236004464Y-107970276D01*
X236004459Y-107970272D01*
X235839781Y-107850627D01*
X235797115Y-107795297D01*
X235791136Y-107725684D01*
X235823741Y-107663889D01*
X235839776Y-107649994D01*
X236004792Y-107530104D01*
X236155104Y-107379792D01*
X236155106Y-107379788D01*
X236155109Y-107379786D01*
X236280048Y-107207820D01*
X236280049Y-107207819D01*
X236280051Y-107207816D01*
X236376557Y-107018412D01*
X236442246Y-106816243D01*
X236475500Y-106606287D01*
X236475500Y-106393713D01*
X236442246Y-106183757D01*
X236376557Y-105981588D01*
X236280051Y-105792184D01*
X236280049Y-105792181D01*
X236280048Y-105792179D01*
X236155109Y-105620213D01*
X236004786Y-105469890D01*
X235832820Y-105344951D01*
X235643414Y-105248444D01*
X235643413Y-105248443D01*
X235643412Y-105248443D01*
X235441243Y-105182754D01*
X235441241Y-105182753D01*
X235441240Y-105182753D01*
X235279957Y-105157208D01*
X235231287Y-105149500D01*
X234768713Y-105149500D01*
X234720042Y-105157208D01*
X234558760Y-105182753D01*
X234356585Y-105248444D01*
X234167179Y-105344951D01*
X233995213Y-105469890D01*
X233844890Y-105620213D01*
X233719950Y-105792180D01*
X233712503Y-105806797D01*
X233664527Y-105857592D01*
X233602019Y-105874500D01*
X227877741Y-105874500D01*
X227877721Y-105874499D01*
X227871607Y-105874499D01*
X227748394Y-105874499D01*
X227647597Y-105894548D01*
X227647592Y-105894548D01*
X227627549Y-105898536D01*
X227627547Y-105898536D01*
X227580397Y-105918067D01*
X227513719Y-105945685D01*
X227513717Y-105945686D01*
X227411266Y-106014141D01*
X227411263Y-106014144D01*
X225227627Y-108197781D01*
X225166304Y-108231266D01*
X225119584Y-108230776D01*
X225119346Y-108232285D01*
X225002088Y-108213713D01*
X224912352Y-108199500D01*
X224707648Y-108199500D01*
X224617912Y-108213713D01*
X224500654Y-108232285D01*
X224500333Y-108230262D01*
X224439120Y-108227149D01*
X224392371Y-108197781D01*
X224098729Y-107904139D01*
X224088459Y-107893869D01*
X224088458Y-107893867D01*
X224001333Y-107806742D01*
X223939893Y-107765689D01*
X223898886Y-107738288D01*
X223898887Y-107738288D01*
X223898885Y-107738287D01*
X223859422Y-107721942D01*
X223818392Y-107704947D01*
X223785052Y-107691137D01*
X223724629Y-107679118D01*
X223719906Y-107678178D01*
X223719904Y-107678178D01*
X223664210Y-107667100D01*
X223664207Y-107667100D01*
X223664206Y-107667100D01*
X214495107Y-107667100D01*
X214371893Y-107667100D01*
X214371889Y-107667100D01*
X214316197Y-107678178D01*
X214311471Y-107679118D01*
X214273759Y-107686619D01*
X214251050Y-107691136D01*
X214251048Y-107691137D01*
X214217707Y-107704947D01*
X214137218Y-107738285D01*
X214137215Y-107738287D01*
X214102405Y-107761547D01*
X214102402Y-107761549D01*
X214096207Y-107765689D01*
X214034767Y-107806742D01*
X213947642Y-107893867D01*
X213947639Y-107893870D01*
X213944300Y-107897208D01*
X213944293Y-107897215D01*
X211522318Y-110319190D01*
X211460995Y-110352675D01*
X211391303Y-110347691D01*
X211335370Y-110305819D01*
X211324152Y-110287803D01*
X211255050Y-110152182D01*
X211130109Y-109980213D01*
X210979786Y-109829890D01*
X210807820Y-109704951D01*
X210807115Y-109704591D01*
X210799054Y-109700485D01*
X210748259Y-109652512D01*
X210731463Y-109584692D01*
X210753999Y-109518556D01*
X210799054Y-109479515D01*
X210807816Y-109475051D01*
X210938513Y-109380095D01*
X210979786Y-109350109D01*
X210979788Y-109350106D01*
X210979792Y-109350104D01*
X211130104Y-109199792D01*
X211130106Y-109199788D01*
X211130109Y-109199786D01*
X211255050Y-109027818D01*
X211284153Y-108970700D01*
X211351557Y-108838412D01*
X211417246Y-108636243D01*
X211450500Y-108426287D01*
X211450500Y-108213713D01*
X211417246Y-108003757D01*
X211351557Y-107801588D01*
X211255051Y-107612184D01*
X211255049Y-107612181D01*
X211255048Y-107612179D01*
X211130109Y-107440213D01*
X210979786Y-107289890D01*
X210807820Y-107164951D01*
X210807115Y-107164591D01*
X210799054Y-107160485D01*
X210748259Y-107112512D01*
X210731463Y-107044692D01*
X210753999Y-106978556D01*
X210799054Y-106939515D01*
X210807816Y-106935051D01*
X210829789Y-106919086D01*
X210979786Y-106810109D01*
X210979788Y-106810106D01*
X210979792Y-106810104D01*
X211130104Y-106659792D01*
X211130106Y-106659788D01*
X211130109Y-106659786D01*
X211255048Y-106487820D01*
X211255049Y-106487819D01*
X211255051Y-106487816D01*
X211351557Y-106298412D01*
X211417246Y-106096243D01*
X211450500Y-105886287D01*
X211450500Y-105673713D01*
X211417246Y-105463757D01*
X211351557Y-105261588D01*
X211255051Y-105072184D01*
X211255049Y-105072181D01*
X211255048Y-105072179D01*
X211130109Y-104900213D01*
X210979786Y-104749890D01*
X210807817Y-104624949D01*
X210798504Y-104620204D01*
X210747707Y-104572230D01*
X210730912Y-104504409D01*
X210753449Y-104438274D01*
X210798507Y-104399232D01*
X210807555Y-104394622D01*
X210861716Y-104355270D01*
X210861717Y-104355270D01*
X210229408Y-103722962D01*
X210292993Y-103705925D01*
X210407007Y-103640099D01*
X210500099Y-103547007D01*
X210565925Y-103432993D01*
X210582962Y-103369408D01*
X211215270Y-104001717D01*
X211215270Y-104001716D01*
X211254622Y-103947554D01*
X211351095Y-103758217D01*
X211416757Y-103556130D01*
X211416757Y-103556127D01*
X211450000Y-103346246D01*
X211450000Y-103133753D01*
X211416757Y-102923872D01*
X211416757Y-102923869D01*
X211351095Y-102721782D01*
X211254624Y-102532449D01*
X211215270Y-102478282D01*
X211215269Y-102478282D01*
X210582962Y-103110590D01*
X210565925Y-103047007D01*
X210500099Y-102932993D01*
X210407007Y-102839901D01*
X210292993Y-102774075D01*
X210229409Y-102757037D01*
X210899627Y-102086818D01*
X210960950Y-102053333D01*
X210987307Y-102050499D01*
X210997872Y-102050499D01*
X211057483Y-102044091D01*
X211192331Y-101993796D01*
X211307546Y-101907546D01*
X211393796Y-101792331D01*
X211444091Y-101657483D01*
X211450500Y-101597873D01*
X211450499Y-99802128D01*
X211444091Y-99742517D01*
X211422458Y-99684517D01*
X211393797Y-99607671D01*
X211393793Y-99607664D01*
X211307547Y-99492455D01*
X211307544Y-99492452D01*
X211192335Y-99406206D01*
X211192328Y-99406202D01*
X211057482Y-99355908D01*
X211057483Y-99355908D01*
X210997883Y-99349501D01*
X210997881Y-99349500D01*
X210997873Y-99349500D01*
X210997864Y-99349500D01*
X209202129Y-99349500D01*
X209202123Y-99349501D01*
X209142516Y-99355908D01*
X209007671Y-99406202D01*
X209007664Y-99406206D01*
X208892455Y-99492452D01*
X208892452Y-99492455D01*
X208806206Y-99607664D01*
X208806202Y-99607671D01*
X208755908Y-99742517D01*
X208749501Y-99802116D01*
X208749501Y-99802123D01*
X208749500Y-99802135D01*
X208749500Y-101597870D01*
X208749501Y-101597876D01*
X208755908Y-101657483D01*
X208806202Y-101792328D01*
X208806206Y-101792335D01*
X208892452Y-101907544D01*
X208892454Y-101907546D01*
X209007664Y-101993793D01*
X209007671Y-101993797D01*
X209052618Y-102010561D01*
X209142517Y-102044091D01*
X209202127Y-102050500D01*
X209212685Y-102050499D01*
X209279723Y-102070179D01*
X209300372Y-102086818D01*
X209970591Y-102757037D01*
X209907007Y-102774075D01*
X209792993Y-102839901D01*
X209699901Y-102932993D01*
X209634075Y-103047007D01*
X209617037Y-103110591D01*
X208984728Y-102478282D01*
X208984727Y-102478282D01*
X208945380Y-102532439D01*
X208848904Y-102721782D01*
X208783242Y-102923869D01*
X208783242Y-102923872D01*
X208750000Y-103133753D01*
X208750000Y-103246048D01*
X208730315Y-103313087D01*
X208677511Y-103358842D01*
X208608353Y-103368786D01*
X208544797Y-103339761D01*
X208538319Y-103333729D01*
X176063150Y-70858560D01*
X176055860Y-70851270D01*
X176055858Y-70851267D01*
X175968733Y-70764142D01*
X175917509Y-70729915D01*
X175866286Y-70695688D01*
X175866283Y-70695686D01*
X175866280Y-70695685D01*
X175793394Y-70665495D01*
X175793388Y-70665493D01*
X175785792Y-70662347D01*
X175752452Y-70648537D01*
X175666326Y-70631406D01*
X175662443Y-70630633D01*
X175662437Y-70630632D01*
X175631611Y-70624500D01*
X175631607Y-70624500D01*
X175631606Y-70624500D01*
X167512233Y-70624500D01*
X167445194Y-70604815D01*
X167399439Y-70552011D01*
X167389495Y-70482853D01*
X167394302Y-70462182D01*
X167441757Y-70316129D01*
X167441757Y-70316126D01*
X167452231Y-70250000D01*
X166404146Y-70250000D01*
X166442630Y-70183343D01*
X166475000Y-70062535D01*
X166475000Y-69937465D01*
X166442630Y-69816657D01*
X166404146Y-69750000D01*
X167452231Y-69750000D01*
X167441757Y-69683873D01*
X167441757Y-69683870D01*
X167376095Y-69481782D01*
X167279620Y-69292442D01*
X167154727Y-69120540D01*
X167154723Y-69120535D01*
X167004467Y-68970279D01*
X167002718Y-68968785D01*
X167002238Y-68968050D01*
X167001021Y-68966833D01*
X167001276Y-68966577D01*
X166964529Y-68910275D01*
X166964035Y-68840407D01*
X167001393Y-68781363D01*
X167064742Y-68751890D01*
X167083256Y-68750500D01*
X182838964Y-68750500D01*
X182906003Y-68770185D01*
X182926645Y-68786819D01*
X185433655Y-71293829D01*
X185538638Y-71370104D01*
X185592895Y-71409524D01*
X185673392Y-71450539D01*
X185768270Y-71498882D01*
X185768272Y-71498882D01*
X185768275Y-71498884D01*
X185868617Y-71531487D01*
X185955473Y-71559709D01*
X186149878Y-71590500D01*
X186149883Y-71590500D01*
X186149884Y-71590500D01*
X186346717Y-71590500D01*
X186908561Y-71590500D01*
X186959575Y-71601480D01*
X186971980Y-71607079D01*
X187007669Y-71633796D01*
X187142517Y-71684091D01*
X187142620Y-71684102D01*
X187146763Y-71685972D01*
X187170236Y-71706131D01*
X187195016Y-71724681D01*
X187196515Y-71728700D01*
X187199768Y-71731494D01*
X187208616Y-71761145D01*
X187219433Y-71790145D01*
X187218521Y-71794335D01*
X187219748Y-71798446D01*
X187211159Y-71828180D01*
X187204582Y-71858418D01*
X187201070Y-71863109D01*
X187200359Y-71865572D01*
X187197082Y-71868436D01*
X187183431Y-71886673D01*
X187069889Y-72000215D01*
X186944951Y-72172179D01*
X186848444Y-72361585D01*
X186782753Y-72563760D01*
X186749500Y-72773713D01*
X186749500Y-72986286D01*
X186782272Y-73193203D01*
X186782754Y-73196243D01*
X186821743Y-73316239D01*
X186848444Y-73398414D01*
X186944951Y-73587820D01*
X187069890Y-73759786D01*
X187220213Y-73910109D01*
X187392182Y-74035050D01*
X187400946Y-74039516D01*
X187451742Y-74087491D01*
X187468536Y-74155312D01*
X187445998Y-74221447D01*
X187400946Y-74260484D01*
X187392182Y-74264949D01*
X187220213Y-74389890D01*
X187069890Y-74540213D01*
X186944951Y-74712179D01*
X186848444Y-74901585D01*
X186782753Y-75103760D01*
X186749500Y-75313713D01*
X186749500Y-75526286D01*
X186778251Y-75707816D01*
X186782754Y-75736243D01*
X186829394Y-75879786D01*
X186848444Y-75938414D01*
X186944951Y-76127820D01*
X187069890Y-76299786D01*
X187220213Y-76450109D01*
X187392179Y-76575048D01*
X187392181Y-76575049D01*
X187392184Y-76575051D01*
X187401493Y-76579794D01*
X187452290Y-76627766D01*
X187469087Y-76695587D01*
X187446552Y-76761722D01*
X187401505Y-76800760D01*
X187392446Y-76805376D01*
X187392440Y-76805380D01*
X187338282Y-76844727D01*
X187338282Y-76844728D01*
X187970591Y-77477037D01*
X187907007Y-77494075D01*
X187792993Y-77559901D01*
X187699901Y-77652993D01*
X187634075Y-77767007D01*
X187617037Y-77830591D01*
X186984728Y-77198282D01*
X186984727Y-77198282D01*
X186945380Y-77252439D01*
X186848904Y-77441782D01*
X186783242Y-77643869D01*
X186783242Y-77643872D01*
X186750000Y-77853753D01*
X186750000Y-78066246D01*
X186783242Y-78276127D01*
X186783242Y-78276130D01*
X186848904Y-78478217D01*
X186945375Y-78667550D01*
X186984728Y-78721716D01*
X187617037Y-78089408D01*
X187634075Y-78152993D01*
X187699901Y-78267007D01*
X187792993Y-78360099D01*
X187907007Y-78425925D01*
X187970590Y-78442962D01*
X187338282Y-79075269D01*
X187338282Y-79075270D01*
X187392449Y-79114624D01*
X187581782Y-79211095D01*
X187783870Y-79276757D01*
X187993754Y-79310000D01*
X188206246Y-79310000D01*
X188416127Y-79276757D01*
X188416130Y-79276757D01*
X188618217Y-79211095D01*
X188807554Y-79114622D01*
X188861716Y-79075270D01*
X188861717Y-79075270D01*
X188229408Y-78442962D01*
X188292993Y-78425925D01*
X188407007Y-78360099D01*
X188500099Y-78267007D01*
X188565925Y-78152993D01*
X188582962Y-78089409D01*
X189215270Y-78721717D01*
X189215270Y-78721716D01*
X189254622Y-78667554D01*
X189351095Y-78478217D01*
X189416757Y-78276130D01*
X189416757Y-78276127D01*
X189450000Y-78066246D01*
X189450000Y-77853753D01*
X189416757Y-77643872D01*
X189416757Y-77643869D01*
X189351095Y-77441782D01*
X189254624Y-77252449D01*
X189215270Y-77198282D01*
X189215269Y-77198282D01*
X188582962Y-77830590D01*
X188565925Y-77767007D01*
X188500099Y-77652993D01*
X188407007Y-77559901D01*
X188292993Y-77494075D01*
X188229409Y-77477037D01*
X188861716Y-76844728D01*
X188807547Y-76805373D01*
X188807547Y-76805372D01*
X188798500Y-76800763D01*
X188747706Y-76752788D01*
X188730912Y-76684966D01*
X188753451Y-76618832D01*
X188798508Y-76579793D01*
X188807816Y-76575051D01*
X188887007Y-76517515D01*
X188979786Y-76450109D01*
X188979788Y-76450106D01*
X188979792Y-76450104D01*
X189130104Y-76299792D01*
X189130106Y-76299788D01*
X189130109Y-76299786D01*
X189255048Y-76127820D01*
X189255049Y-76127819D01*
X189255051Y-76127816D01*
X189351557Y-75938412D01*
X189417246Y-75736243D01*
X189450500Y-75526287D01*
X189450500Y-75313713D01*
X189417246Y-75103757D01*
X189351557Y-74901588D01*
X189255051Y-74712184D01*
X189255049Y-74712181D01*
X189255048Y-74712179D01*
X189130109Y-74540213D01*
X188979786Y-74389890D01*
X188807820Y-74264951D01*
X188807115Y-74264591D01*
X188799054Y-74260485D01*
X188748259Y-74212512D01*
X188731463Y-74144692D01*
X188753999Y-74078556D01*
X188799054Y-74039515D01*
X188807816Y-74035051D01*
X188897495Y-73969896D01*
X188979786Y-73910109D01*
X188979788Y-73910106D01*
X188979792Y-73910104D01*
X189130104Y-73759792D01*
X189130106Y-73759788D01*
X189130109Y-73759786D01*
X189239086Y-73609789D01*
X189255051Y-73587816D01*
X189351557Y-73398412D01*
X189417246Y-73196243D01*
X189450500Y-72986287D01*
X189450500Y-72773713D01*
X189417246Y-72563757D01*
X189351557Y-72361588D01*
X189255051Y-72172184D01*
X189255049Y-72172181D01*
X189255048Y-72172179D01*
X189130109Y-72000213D01*
X189016569Y-71886673D01*
X189001741Y-71859517D01*
X188985120Y-71833403D01*
X188985138Y-71829113D01*
X188983084Y-71825350D01*
X188985291Y-71794481D01*
X188985428Y-71763534D01*
X188987761Y-71759937D01*
X188988068Y-71755658D01*
X189006616Y-71730880D01*
X189023461Y-71704922D01*
X189028099Y-71702183D01*
X189029940Y-71699725D01*
X189053236Y-71685972D01*
X189057378Y-71684102D01*
X189057483Y-71684091D01*
X189192331Y-71633796D01*
X189228019Y-71607079D01*
X189240425Y-71601480D01*
X189262092Y-71598461D01*
X189282592Y-71590816D01*
X189291439Y-71590500D01*
X199573864Y-71590500D01*
X199640903Y-71610185D01*
X199661545Y-71626819D01*
X222889371Y-94854645D01*
X222889372Y-94854646D01*
X223028554Y-94993828D01*
X223187795Y-95109524D01*
X223363175Y-95198884D01*
X223457401Y-95229500D01*
X223550373Y-95259709D01*
X223605918Y-95268506D01*
X223744778Y-95290500D01*
X223744783Y-95290500D01*
X227095603Y-95290500D01*
X227162642Y-95310185D01*
X227208397Y-95362989D01*
X227218341Y-95432147D01*
X227189316Y-95495703D01*
X227168488Y-95514819D01*
X227120207Y-95549896D01*
X226969890Y-95700213D01*
X226844951Y-95872179D01*
X226748444Y-96061585D01*
X226682753Y-96263760D01*
X226660924Y-96401583D01*
X226649500Y-96473713D01*
X226649500Y-96686287D01*
X226682754Y-96896243D01*
X226684883Y-96902796D01*
X226748444Y-97098414D01*
X226844951Y-97287820D01*
X226969890Y-97459786D01*
X227083430Y-97573326D01*
X227116915Y-97634649D01*
X227111931Y-97704341D01*
X227070059Y-97760274D01*
X227039083Y-97777189D01*
X226907669Y-97826203D01*
X226907664Y-97826206D01*
X226792455Y-97912452D01*
X226792452Y-97912455D01*
X226706206Y-98027664D01*
X226706202Y-98027671D01*
X226655908Y-98162517D01*
X226653101Y-98188631D01*
X226649501Y-98222123D01*
X226649500Y-98222135D01*
X226649500Y-100017870D01*
X226649501Y-100017876D01*
X226655908Y-100077483D01*
X226706202Y-100212328D01*
X226706206Y-100212335D01*
X226792452Y-100327544D01*
X226792455Y-100327547D01*
X226907664Y-100413793D01*
X226907671Y-100413797D01*
X227042517Y-100464091D01*
X227042516Y-100464091D01*
X227049444Y-100464835D01*
X227102127Y-100470500D01*
X228897872Y-100470499D01*
X228957483Y-100464091D01*
X229092331Y-100413796D01*
X229207546Y-100327546D01*
X229293796Y-100212331D01*
X229344091Y-100077483D01*
X229350500Y-100017873D01*
X229350499Y-98222128D01*
X229344091Y-98162517D01*
X229333642Y-98134503D01*
X229293797Y-98027671D01*
X229293793Y-98027664D01*
X229207547Y-97912455D01*
X229207544Y-97912452D01*
X229092335Y-97826206D01*
X229092328Y-97826202D01*
X228960917Y-97777189D01*
X228904983Y-97735318D01*
X228880566Y-97669853D01*
X228895418Y-97601580D01*
X228916563Y-97573332D01*
X229030104Y-97459792D01*
X229048252Y-97434814D01*
X229115168Y-97342711D01*
X229155051Y-97287816D01*
X229251557Y-97098412D01*
X229317246Y-96896243D01*
X229350500Y-96686287D01*
X229350500Y-96473713D01*
X229317246Y-96263757D01*
X229251557Y-96061588D01*
X229155051Y-95872184D01*
X229155049Y-95872181D01*
X229155048Y-95872179D01*
X229030109Y-95700213D01*
X228879786Y-95549890D01*
X228707820Y-95424951D01*
X228707115Y-95424591D01*
X228699054Y-95420485D01*
X228648259Y-95372512D01*
X228631463Y-95304692D01*
X228653999Y-95238556D01*
X228699054Y-95199515D01*
X228707816Y-95195051D01*
X228770512Y-95149500D01*
X228879786Y-95070109D01*
X228879788Y-95070106D01*
X228879792Y-95070104D01*
X229030104Y-94919792D01*
X229030106Y-94919788D01*
X229030109Y-94919786D01*
X229155048Y-94747820D01*
X229155047Y-94747820D01*
X229155051Y-94747816D01*
X229251557Y-94558412D01*
X229317246Y-94356243D01*
X229350500Y-94146287D01*
X229350500Y-93933713D01*
X229317246Y-93723757D01*
X229251557Y-93521588D01*
X229155051Y-93332184D01*
X229155049Y-93332181D01*
X229155048Y-93332179D01*
X229030109Y-93160213D01*
X228879786Y-93009890D01*
X228707817Y-92884949D01*
X228698504Y-92880204D01*
X228647707Y-92832230D01*
X228630912Y-92764409D01*
X228653449Y-92698274D01*
X228698507Y-92659232D01*
X228707555Y-92654622D01*
X228761716Y-92615270D01*
X228761717Y-92615270D01*
X228129408Y-91982962D01*
X228192993Y-91965925D01*
X228307007Y-91900099D01*
X228400099Y-91807007D01*
X228465925Y-91692993D01*
X228482962Y-91629408D01*
X229115270Y-92261717D01*
X229115270Y-92261716D01*
X229154622Y-92207554D01*
X229251095Y-92018217D01*
X229316757Y-91816130D01*
X229316757Y-91816127D01*
X229350000Y-91606246D01*
X229350000Y-91393753D01*
X229316757Y-91183872D01*
X229316757Y-91183869D01*
X229251095Y-90981782D01*
X229154624Y-90792449D01*
X229115270Y-90738282D01*
X229115269Y-90738282D01*
X228482962Y-91370590D01*
X228465925Y-91307007D01*
X228400099Y-91192993D01*
X228307007Y-91099901D01*
X228192993Y-91034075D01*
X228129409Y-91017037D01*
X228761716Y-90384728D01*
X228707550Y-90345375D01*
X228518217Y-90248904D01*
X228316129Y-90183242D01*
X228106246Y-90150000D01*
X227893754Y-90150000D01*
X227683872Y-90183242D01*
X227683869Y-90183242D01*
X227481782Y-90248904D01*
X227292439Y-90345380D01*
X227238282Y-90384727D01*
X227238282Y-90384728D01*
X227870591Y-91017037D01*
X227807007Y-91034075D01*
X227692993Y-91099901D01*
X227599901Y-91192993D01*
X227534075Y-91307007D01*
X227517037Y-91370591D01*
X226884728Y-90738282D01*
X226884727Y-90738282D01*
X226845380Y-90792439D01*
X226748904Y-90981782D01*
X226683242Y-91183869D01*
X226683242Y-91183872D01*
X226650000Y-91393753D01*
X226650000Y-91606246D01*
X226683242Y-91816127D01*
X226683242Y-91816130D01*
X226748904Y-92018217D01*
X226845375Y-92207550D01*
X226884728Y-92261716D01*
X227517037Y-91629408D01*
X227534075Y-91692993D01*
X227599901Y-91807007D01*
X227692993Y-91900099D01*
X227807007Y-91965925D01*
X227870590Y-91982962D01*
X227238282Y-92615269D01*
X227241470Y-92655771D01*
X227227106Y-92724148D01*
X227178055Y-92773905D01*
X227117852Y-92789500D01*
X224412536Y-92789500D01*
X224345497Y-92769815D01*
X224324855Y-92753181D01*
X213633854Y-82062180D01*
X213600369Y-82000857D01*
X213605353Y-81931165D01*
X213647225Y-81875232D01*
X213712689Y-81850815D01*
X213721535Y-81850499D01*
X214397871Y-81850499D01*
X214397872Y-81850499D01*
X214457483Y-81844091D01*
X214592331Y-81793796D01*
X214707546Y-81707546D01*
X214793796Y-81592331D01*
X214844091Y-81457483D01*
X214850500Y-81397873D01*
X214850500Y-81249500D01*
X214870185Y-81182461D01*
X214922989Y-81136706D01*
X214974500Y-81125500D01*
X234102019Y-81125500D01*
X234169058Y-81145185D01*
X234212503Y-81193203D01*
X234219950Y-81207819D01*
X234344890Y-81379786D01*
X234484068Y-81518964D01*
X234517553Y-81580287D01*
X234512569Y-81649979D01*
X234470697Y-81705912D01*
X234461484Y-81712183D01*
X234306659Y-81807680D01*
X234306655Y-81807683D01*
X234182684Y-81931654D01*
X234090643Y-82080875D01*
X234090641Y-82080880D01*
X234035494Y-82247302D01*
X234035493Y-82247309D01*
X234025000Y-82350013D01*
X234025000Y-82750000D01*
X235095854Y-82750000D01*
X235057370Y-82816657D01*
X235025000Y-82937465D01*
X235025000Y-83062535D01*
X235057370Y-83183343D01*
X235095854Y-83250000D01*
X234025001Y-83250000D01*
X234025001Y-83649986D01*
X234035494Y-83752697D01*
X234090641Y-83919119D01*
X234090643Y-83919124D01*
X234182684Y-84068345D01*
X234306654Y-84192315D01*
X234455875Y-84284356D01*
X234455880Y-84284358D01*
X234622302Y-84339505D01*
X234622309Y-84339506D01*
X234725019Y-84349999D01*
X235249999Y-84349999D01*
X235250000Y-84349998D01*
X235250000Y-83404145D01*
X235316657Y-83442630D01*
X235437465Y-83475000D01*
X235562535Y-83475000D01*
X235683343Y-83442630D01*
X235750000Y-83404145D01*
X235750000Y-84349999D01*
X236274972Y-84349999D01*
X236274986Y-84349998D01*
X236377697Y-84339505D01*
X236544119Y-84284358D01*
X236544124Y-84284356D01*
X236693345Y-84192315D01*
X236817315Y-84068345D01*
X236909356Y-83919124D01*
X236909358Y-83919119D01*
X236964505Y-83752697D01*
X236964506Y-83752690D01*
X236974999Y-83649986D01*
X236975000Y-83649973D01*
X236975000Y-83250000D01*
X235904146Y-83250000D01*
X235942630Y-83183343D01*
X235975000Y-83062535D01*
X235975000Y-82937465D01*
X235942630Y-82816657D01*
X235904146Y-82750000D01*
X236974999Y-82750000D01*
X236974999Y-82350028D01*
X236974998Y-82350013D01*
X236964505Y-82247302D01*
X236909358Y-82080880D01*
X236909356Y-82080875D01*
X236817315Y-81931654D01*
X236693345Y-81807684D01*
X236538515Y-81712184D01*
X236491791Y-81660236D01*
X236480568Y-81591273D01*
X236508412Y-81527191D01*
X236515909Y-81518986D01*
X236655104Y-81379792D01*
X236780051Y-81207816D01*
X236876557Y-81018412D01*
X236942246Y-80816243D01*
X236975500Y-80606287D01*
X236975500Y-80393713D01*
X236942246Y-80183757D01*
X236876557Y-79981588D01*
X236780051Y-79792184D01*
X236780049Y-79792181D01*
X236780048Y-79792179D01*
X236655109Y-79620213D01*
X236504792Y-79469896D01*
X236504784Y-79469890D01*
X236340204Y-79350316D01*
X236297540Y-79294989D01*
X236291561Y-79225376D01*
X236324166Y-79163580D01*
X236340199Y-79149686D01*
X236504792Y-79030104D01*
X236655104Y-78879792D01*
X236655106Y-78879788D01*
X236655109Y-78879786D01*
X236780048Y-78707820D01*
X236780047Y-78707820D01*
X236780051Y-78707816D01*
X236876557Y-78518412D01*
X236942246Y-78316243D01*
X236975500Y-78106287D01*
X236975500Y-77893713D01*
X236942246Y-77683757D01*
X236876557Y-77481588D01*
X236780051Y-77292184D01*
X236780049Y-77292181D01*
X236780048Y-77292179D01*
X236655109Y-77120213D01*
X236504792Y-76969896D01*
X236449728Y-76929890D01*
X236340204Y-76850316D01*
X236297540Y-76794989D01*
X236291561Y-76725376D01*
X236324166Y-76663580D01*
X236340199Y-76649686D01*
X236504792Y-76530104D01*
X236655104Y-76379792D01*
X236655106Y-76379788D01*
X236655109Y-76379786D01*
X236780048Y-76207820D01*
X236780049Y-76207819D01*
X236780051Y-76207816D01*
X236876557Y-76018412D01*
X236942246Y-75816243D01*
X236975500Y-75606287D01*
X236975500Y-75393713D01*
X236942246Y-75183757D01*
X236876557Y-74981588D01*
X236780051Y-74792184D01*
X236780049Y-74792181D01*
X236780048Y-74792179D01*
X236655109Y-74620213D01*
X236504792Y-74469896D01*
X236504784Y-74469890D01*
X236340204Y-74350316D01*
X236297540Y-74294989D01*
X236291561Y-74225376D01*
X236324166Y-74163580D01*
X236340199Y-74149686D01*
X236504792Y-74030104D01*
X236655104Y-73879792D01*
X236655106Y-73879788D01*
X236655109Y-73879786D01*
X236780048Y-73707820D01*
X236780047Y-73707820D01*
X236780051Y-73707816D01*
X236876557Y-73518412D01*
X236942246Y-73316243D01*
X236975500Y-73106287D01*
X236975500Y-72893713D01*
X236942246Y-72683757D01*
X236876557Y-72481588D01*
X236780051Y-72292184D01*
X236780049Y-72292181D01*
X236780048Y-72292179D01*
X236655109Y-72120213D01*
X236504786Y-71969890D01*
X236332820Y-71844951D01*
X236143414Y-71748444D01*
X236143413Y-71748443D01*
X236143412Y-71748443D01*
X235941243Y-71682754D01*
X235941241Y-71682753D01*
X235941240Y-71682753D01*
X235779957Y-71657208D01*
X235731287Y-71649500D01*
X235268713Y-71649500D01*
X235220042Y-71657208D01*
X235058760Y-71682753D01*
X234856585Y-71748444D01*
X234667179Y-71844951D01*
X234495213Y-71969890D01*
X234344898Y-72120205D01*
X234344891Y-72120214D01*
X234274105Y-72217641D01*
X234218775Y-72260307D01*
X234149599Y-72266372D01*
X234089907Y-72254500D01*
X234089906Y-72254500D01*
X214772981Y-72254500D01*
X214705942Y-72234815D01*
X214662497Y-72186797D01*
X214655049Y-72172180D01*
X214530109Y-72000213D01*
X214379786Y-71849890D01*
X214207820Y-71724951D01*
X214207115Y-71724591D01*
X214199054Y-71720485D01*
X214148259Y-71672512D01*
X214131463Y-71604692D01*
X214153999Y-71538556D01*
X214199054Y-71499515D01*
X214207816Y-71495051D01*
X214325535Y-71409524D01*
X214379786Y-71370109D01*
X214379792Y-71370104D01*
X214412216Y-71337680D01*
X214530104Y-71219792D01*
X214530106Y-71219788D01*
X214530109Y-71219786D01*
X214655048Y-71047820D01*
X214655047Y-71047820D01*
X214655051Y-71047816D01*
X214751557Y-70858412D01*
X214817246Y-70656243D01*
X214850500Y-70446287D01*
X214850500Y-70233713D01*
X214817246Y-70023757D01*
X214751557Y-69821588D01*
X214655051Y-69632184D01*
X214655049Y-69632181D01*
X214655048Y-69632179D01*
X214530109Y-69460213D01*
X214379786Y-69309890D01*
X214207820Y-69184951D01*
X214200293Y-69181116D01*
X214199054Y-69180485D01*
X214148259Y-69132512D01*
X214131463Y-69064692D01*
X214153999Y-68998556D01*
X214199054Y-68959515D01*
X214207816Y-68955051D01*
X214229789Y-68939086D01*
X214379786Y-68830109D01*
X214379788Y-68830106D01*
X214379792Y-68830104D01*
X214530104Y-68679792D01*
X214530106Y-68679788D01*
X214530109Y-68679786D01*
X214655048Y-68507820D01*
X214655047Y-68507820D01*
X214655051Y-68507816D01*
X214751557Y-68318412D01*
X214817246Y-68116243D01*
X214850500Y-67906287D01*
X214850500Y-67693713D01*
X214817246Y-67483757D01*
X214751557Y-67281588D01*
X214655051Y-67092184D01*
X214655049Y-67092181D01*
X214655048Y-67092179D01*
X214530109Y-66920213D01*
X214379786Y-66769890D01*
X214207820Y-66644951D01*
X214018414Y-66548444D01*
X214018413Y-66548443D01*
X214018412Y-66548443D01*
X213816243Y-66482754D01*
X213816241Y-66482753D01*
X213816240Y-66482753D01*
X213654957Y-66457208D01*
X213606287Y-66449500D01*
X213393713Y-66449500D01*
X213345042Y-66457208D01*
X213183760Y-66482753D01*
X212981585Y-66548444D01*
X212792179Y-66644951D01*
X212620213Y-66769890D01*
X212469890Y-66920213D01*
X212344951Y-67092179D01*
X212248444Y-67281585D01*
X212182753Y-67483760D01*
X212149500Y-67693713D01*
X212149500Y-67906286D01*
X212182753Y-68116239D01*
X212248444Y-68318414D01*
X212344951Y-68507820D01*
X212469890Y-68679786D01*
X212620213Y-68830109D01*
X212792182Y-68955050D01*
X212800946Y-68959516D01*
X212851742Y-69007491D01*
X212868536Y-69075312D01*
X212845998Y-69141447D01*
X212800946Y-69180484D01*
X212792182Y-69184949D01*
X212620213Y-69309890D01*
X212469890Y-69460213D01*
X212344951Y-69632179D01*
X212248444Y-69821585D01*
X212182753Y-70023760D01*
X212149500Y-70233713D01*
X212149500Y-70446286D01*
X212178697Y-70630632D01*
X212182754Y-70656243D01*
X212246122Y-70851270D01*
X212248444Y-70858414D01*
X212344951Y-71047820D01*
X212469890Y-71219786D01*
X212620213Y-71370109D01*
X212792182Y-71495050D01*
X212800946Y-71499516D01*
X212851742Y-71547491D01*
X212868536Y-71615312D01*
X212845998Y-71681447D01*
X212800946Y-71720484D01*
X212792182Y-71724949D01*
X212620213Y-71849890D01*
X212469890Y-72000213D01*
X212344951Y-72172179D01*
X212248444Y-72361585D01*
X212182753Y-72563760D01*
X212149500Y-72773713D01*
X212149500Y-72986286D01*
X212182272Y-73193203D01*
X212182754Y-73196243D01*
X212221743Y-73316239D01*
X212248444Y-73398414D01*
X212344951Y-73587820D01*
X212469890Y-73759786D01*
X212620213Y-73910109D01*
X212792182Y-74035050D01*
X212800946Y-74039516D01*
X212851742Y-74087491D01*
X212868536Y-74155312D01*
X212845998Y-74221447D01*
X212800946Y-74260484D01*
X212792182Y-74264949D01*
X212620213Y-74389890D01*
X212469890Y-74540213D01*
X212344951Y-74712179D01*
X212248444Y-74901585D01*
X212182753Y-75103760D01*
X212149500Y-75313713D01*
X212149500Y-75526286D01*
X212178251Y-75707816D01*
X212182754Y-75736243D01*
X212229394Y-75879786D01*
X212248444Y-75938414D01*
X212344951Y-76127820D01*
X212469890Y-76299786D01*
X212620213Y-76450109D01*
X212792182Y-76575050D01*
X212800946Y-76579516D01*
X212851742Y-76627491D01*
X212868536Y-76695312D01*
X212845998Y-76761447D01*
X212800946Y-76800484D01*
X212792182Y-76804949D01*
X212620213Y-76929890D01*
X212469890Y-77080213D01*
X212344951Y-77252179D01*
X212248444Y-77441585D01*
X212182753Y-77643760D01*
X212149500Y-77853713D01*
X212149500Y-78066286D01*
X212182735Y-78276127D01*
X212182754Y-78276243D01*
X212216399Y-78379792D01*
X212248444Y-78478414D01*
X212344951Y-78667820D01*
X212469890Y-78839786D01*
X212583430Y-78953326D01*
X212616915Y-79014649D01*
X212611931Y-79084341D01*
X212570059Y-79140274D01*
X212539083Y-79157189D01*
X212407669Y-79206203D01*
X212407664Y-79206206D01*
X212292455Y-79292452D01*
X212292452Y-79292455D01*
X212206206Y-79407664D01*
X212206202Y-79407671D01*
X212155908Y-79542517D01*
X212149501Y-79602116D01*
X212149501Y-79602123D01*
X212149500Y-79602135D01*
X212149500Y-80278464D01*
X212129815Y-80345503D01*
X212077011Y-80391258D01*
X212007853Y-80401202D01*
X211944297Y-80372177D01*
X211937819Y-80366145D01*
X200957848Y-69386174D01*
X200957846Y-69386172D01*
X200798605Y-69270476D01*
X200623230Y-69181117D01*
X200436026Y-69120290D01*
X200241622Y-69089500D01*
X200241617Y-69089500D01*
X189291439Y-69089500D01*
X189224400Y-69069815D01*
X189217128Y-69064767D01*
X189192331Y-69046204D01*
X189192328Y-69046202D01*
X189057482Y-68995908D01*
X189057483Y-68995908D01*
X188997883Y-68989501D01*
X188997881Y-68989500D01*
X188997873Y-68989500D01*
X188997864Y-68989500D01*
X187202129Y-68989500D01*
X187202123Y-68989501D01*
X187142516Y-68995908D01*
X187007671Y-69046202D01*
X187007668Y-69046204D01*
X186982872Y-69064767D01*
X186962123Y-69072505D01*
X186943496Y-69084477D01*
X186921579Y-69087628D01*
X186917408Y-69089184D01*
X186908561Y-69089500D01*
X186817636Y-69089500D01*
X186750597Y-69069815D01*
X186729955Y-69053181D01*
X184222948Y-66546174D01*
X184222946Y-66546172D01*
X184063705Y-66430476D01*
X183888330Y-66341117D01*
X183701126Y-66280290D01*
X183506722Y-66249500D01*
X183506717Y-66249500D01*
X167428341Y-66249500D01*
X167361302Y-66229815D01*
X167315547Y-66177011D01*
X167305603Y-66107853D01*
X167322802Y-66060404D01*
X167409810Y-65919340D01*
X167409814Y-65919334D01*
X167464999Y-65752797D01*
X167475500Y-65650009D01*
X167475499Y-65344334D01*
X167495183Y-65277296D01*
X167511813Y-65256659D01*
X177811428Y-54957046D01*
X177927124Y-54797805D01*
X178016484Y-54622426D01*
X178077309Y-54435226D01*
X178092107Y-54341797D01*
X178108100Y-54240822D01*
X178108100Y-49274900D01*
X178127785Y-49207861D01*
X178180589Y-49162106D01*
X178232100Y-49150900D01*
X185386322Y-49150900D01*
X185580726Y-49120109D01*
X185767926Y-49059284D01*
X185943305Y-48969924D01*
X186102546Y-48854228D01*
X186254955Y-48701819D01*
X186281882Y-48687115D01*
X186307701Y-48670523D01*
X186313901Y-48669631D01*
X186316278Y-48668334D01*
X186342636Y-48665500D01*
X186433561Y-48665500D01*
X186500600Y-48685185D01*
X186507872Y-48690233D01*
X186525518Y-48703443D01*
X186532668Y-48708795D01*
X186532671Y-48708797D01*
X186664082Y-48757810D01*
X186720016Y-48799681D01*
X186744433Y-48865145D01*
X186729582Y-48933418D01*
X186708431Y-48961673D01*
X186594889Y-49075215D01*
X186469951Y-49247179D01*
X186373444Y-49436585D01*
X186307753Y-49638760D01*
X186279577Y-49816657D01*
X186274500Y-49848713D01*
X186274500Y-50061287D01*
X186307754Y-50271243D01*
X186363441Y-50442630D01*
X186373444Y-50473414D01*
X186469951Y-50662820D01*
X186594890Y-50834786D01*
X186745213Y-50985109D01*
X186917182Y-51110050D01*
X186925946Y-51114516D01*
X186976742Y-51162491D01*
X186993536Y-51230312D01*
X186970998Y-51296447D01*
X186925946Y-51335484D01*
X186917182Y-51339949D01*
X186745213Y-51464890D01*
X186594890Y-51615213D01*
X186469951Y-51787179D01*
X186373444Y-51976585D01*
X186307753Y-52178760D01*
X186274500Y-52388713D01*
X186274500Y-52601287D01*
X186307754Y-52811243D01*
X186309377Y-52816239D01*
X186373444Y-53013414D01*
X186469951Y-53202820D01*
X186594890Y-53374786D01*
X186745213Y-53525109D01*
X186917179Y-53650048D01*
X186917181Y-53650049D01*
X186917184Y-53650051D01*
X186926493Y-53654794D01*
X186977290Y-53702766D01*
X186994087Y-53770587D01*
X186971552Y-53836722D01*
X186926505Y-53875760D01*
X186917446Y-53880376D01*
X186917440Y-53880380D01*
X186863282Y-53919727D01*
X186863282Y-53919728D01*
X187495591Y-54552037D01*
X187432007Y-54569075D01*
X187317993Y-54634901D01*
X187224901Y-54727993D01*
X187159075Y-54842007D01*
X187142037Y-54905591D01*
X186509728Y-54273282D01*
X186509727Y-54273282D01*
X186470380Y-54327439D01*
X186373904Y-54516782D01*
X186308242Y-54718869D01*
X186308242Y-54718872D01*
X186275000Y-54928753D01*
X186275000Y-55141246D01*
X186308242Y-55351127D01*
X186308242Y-55351130D01*
X186373904Y-55553217D01*
X186470375Y-55742550D01*
X186509728Y-55796716D01*
X187142037Y-55164408D01*
X187159075Y-55227993D01*
X187224901Y-55342007D01*
X187317993Y-55435099D01*
X187432007Y-55500925D01*
X187495590Y-55517962D01*
X186863282Y-56150269D01*
X186863282Y-56150270D01*
X186917449Y-56189624D01*
X187106782Y-56286095D01*
X187308870Y-56351757D01*
X187518754Y-56385000D01*
X187731246Y-56385000D01*
X187941127Y-56351757D01*
X187941130Y-56351757D01*
X188143217Y-56286095D01*
X188332554Y-56189622D01*
X188386716Y-56150270D01*
X188386717Y-56150270D01*
X187754408Y-55517962D01*
X187817993Y-55500925D01*
X187932007Y-55435099D01*
X188025099Y-55342007D01*
X188090925Y-55227993D01*
X188107962Y-55164409D01*
X188740270Y-55796717D01*
X188740270Y-55796716D01*
X188779622Y-55742554D01*
X188876095Y-55553217D01*
X188941757Y-55351130D01*
X188941757Y-55351127D01*
X188975000Y-55141246D01*
X188975000Y-54928753D01*
X188941757Y-54718872D01*
X188941757Y-54718869D01*
X188876095Y-54516782D01*
X188779624Y-54327449D01*
X188740270Y-54273282D01*
X188740269Y-54273282D01*
X188107962Y-54905590D01*
X188090925Y-54842007D01*
X188025099Y-54727993D01*
X187932007Y-54634901D01*
X187817993Y-54569075D01*
X187754409Y-54552037D01*
X188386716Y-53919728D01*
X188332547Y-53880373D01*
X188332547Y-53880372D01*
X188323500Y-53875763D01*
X188272706Y-53827788D01*
X188255912Y-53759966D01*
X188278451Y-53693832D01*
X188323508Y-53654793D01*
X188332816Y-53650051D01*
X188438782Y-53573063D01*
X188504786Y-53525109D01*
X188504788Y-53525106D01*
X188504792Y-53525104D01*
X188655104Y-53374792D01*
X188655106Y-53374788D01*
X188655109Y-53374786D01*
X188780048Y-53202820D01*
X188780049Y-53202819D01*
X188780051Y-53202816D01*
X188876557Y-53013412D01*
X188942246Y-52811243D01*
X188975500Y-52601287D01*
X188975500Y-52388713D01*
X188942246Y-52178757D01*
X188876557Y-51976588D01*
X188780051Y-51787184D01*
X188780049Y-51787181D01*
X188780048Y-51787179D01*
X188655109Y-51615213D01*
X188504786Y-51464890D01*
X188332820Y-51339951D01*
X188332115Y-51339591D01*
X188324054Y-51335485D01*
X188273259Y-51287512D01*
X188256463Y-51219692D01*
X188278999Y-51153556D01*
X188324054Y-51114515D01*
X188332816Y-51110051D01*
X188354789Y-51094086D01*
X188504786Y-50985109D01*
X188504788Y-50985106D01*
X188504792Y-50985104D01*
X188655104Y-50834792D01*
X188655106Y-50834788D01*
X188655109Y-50834786D01*
X188780048Y-50662820D01*
X188780049Y-50662819D01*
X188780051Y-50662816D01*
X188876557Y-50473412D01*
X188942246Y-50271243D01*
X188975500Y-50061287D01*
X188975500Y-49848713D01*
X188942246Y-49638757D01*
X188876557Y-49436588D01*
X188780051Y-49247184D01*
X188780049Y-49247181D01*
X188780048Y-49247179D01*
X188655109Y-49075213D01*
X188541569Y-48961673D01*
X188508084Y-48900350D01*
X188513068Y-48830658D01*
X188554940Y-48774725D01*
X188585915Y-48757810D01*
X188717331Y-48708796D01*
X188832546Y-48622546D01*
X188918796Y-48507331D01*
X188969091Y-48372483D01*
X188975500Y-48312873D01*
X188975499Y-46517128D01*
X188969091Y-46457517D01*
X188964309Y-46444697D01*
X188918797Y-46322671D01*
X188918793Y-46322664D01*
X188832546Y-46207454D01*
X188832544Y-46207452D01*
X188717335Y-46121206D01*
X188717328Y-46121202D01*
X188582482Y-46070908D01*
X188582483Y-46070908D01*
X188522883Y-46064501D01*
X188522881Y-46064500D01*
X188522873Y-46064500D01*
X188522864Y-46064500D01*
X186727129Y-46064500D01*
X186727123Y-46064501D01*
X186667516Y-46070908D01*
X186532671Y-46121202D01*
X186532668Y-46121204D01*
X186507872Y-46139767D01*
X186442408Y-46164184D01*
X186433561Y-46164500D01*
X185674878Y-46164500D01*
X185480476Y-46195290D01*
X185480471Y-46195291D01*
X185443039Y-46207453D01*
X185443040Y-46207454D01*
X185293270Y-46256117D01*
X185236952Y-46284814D01*
X185117894Y-46345476D01*
X185046775Y-46397148D01*
X184958654Y-46461172D01*
X184958652Y-46461174D01*
X184958651Y-46461174D01*
X184806245Y-46613581D01*
X184744922Y-46647066D01*
X184718564Y-46649900D01*
X179254881Y-46649900D01*
X179187842Y-46630215D01*
X179142087Y-46577411D01*
X179132143Y-46508253D01*
X179161168Y-46444697D01*
X179179394Y-46427524D01*
X179203068Y-46409358D01*
X179222738Y-46394265D01*
X179394265Y-46222738D01*
X179541936Y-46030289D01*
X179663224Y-45820212D01*
X179756054Y-45596100D01*
X179818838Y-45361789D01*
X179850500Y-45121288D01*
X179850500Y-44878712D01*
X179836019Y-44768713D01*
X211674500Y-44768713D01*
X211674500Y-44981287D01*
X211707754Y-45191243D01*
X211725936Y-45247202D01*
X211773444Y-45393414D01*
X211869951Y-45582820D01*
X211994890Y-45754786D01*
X212145213Y-45905109D01*
X212317182Y-46030050D01*
X212325946Y-46034516D01*
X212376742Y-46082491D01*
X212393536Y-46150312D01*
X212370998Y-46216447D01*
X212325946Y-46255484D01*
X212317182Y-46259949D01*
X212145213Y-46384890D01*
X211994890Y-46535213D01*
X211869951Y-46707179D01*
X211773444Y-46896585D01*
X211707753Y-47098760D01*
X211704404Y-47119905D01*
X211674500Y-47308713D01*
X211674500Y-47521287D01*
X211707754Y-47731243D01*
X211756119Y-47880095D01*
X211773444Y-47933414D01*
X211869951Y-48122820D01*
X211994890Y-48294786D01*
X212145213Y-48445109D01*
X212317182Y-48570050D01*
X212325946Y-48574516D01*
X212376742Y-48622491D01*
X212393536Y-48690312D01*
X212370998Y-48756447D01*
X212325946Y-48795484D01*
X212317182Y-48799949D01*
X212145213Y-48924890D01*
X211994890Y-49075213D01*
X211869951Y-49247179D01*
X211773444Y-49436585D01*
X211707753Y-49638760D01*
X211679577Y-49816657D01*
X211674500Y-49848713D01*
X211674500Y-50061287D01*
X211707754Y-50271243D01*
X211763441Y-50442630D01*
X211773444Y-50473414D01*
X211869951Y-50662820D01*
X211994890Y-50834786D01*
X212145213Y-50985109D01*
X212317182Y-51110050D01*
X212325946Y-51114516D01*
X212376742Y-51162491D01*
X212393536Y-51230312D01*
X212370998Y-51296447D01*
X212325946Y-51335484D01*
X212317182Y-51339949D01*
X212145213Y-51464890D01*
X211994890Y-51615213D01*
X211869951Y-51787179D01*
X211773444Y-51976585D01*
X211707753Y-52178760D01*
X211674500Y-52388713D01*
X211674500Y-52601287D01*
X211707754Y-52811243D01*
X211709377Y-52816239D01*
X211773444Y-53013414D01*
X211869951Y-53202820D01*
X211994890Y-53374786D01*
X212145213Y-53525109D01*
X212317182Y-53650050D01*
X212325946Y-53654516D01*
X212376742Y-53702491D01*
X212393536Y-53770312D01*
X212370998Y-53836447D01*
X212325946Y-53875484D01*
X212317182Y-53879949D01*
X212145213Y-54004890D01*
X211994890Y-54155213D01*
X211869951Y-54327179D01*
X211773444Y-54516585D01*
X211707753Y-54718760D01*
X211674500Y-54928713D01*
X211674500Y-55141286D01*
X211707735Y-55351127D01*
X211707754Y-55351243D01*
X211762071Y-55518414D01*
X211773444Y-55553414D01*
X211869951Y-55742820D01*
X211994890Y-55914786D01*
X212108430Y-56028326D01*
X212141915Y-56089649D01*
X212136931Y-56159341D01*
X212095059Y-56215274D01*
X212064083Y-56232189D01*
X211932669Y-56281203D01*
X211932664Y-56281206D01*
X211817455Y-56367452D01*
X211817452Y-56367455D01*
X211731206Y-56482664D01*
X211731202Y-56482671D01*
X211680908Y-56617517D01*
X211676952Y-56654320D01*
X211674501Y-56677123D01*
X211674500Y-56677135D01*
X211674500Y-58472870D01*
X211674501Y-58472876D01*
X211680908Y-58532483D01*
X211731202Y-58667328D01*
X211731206Y-58667335D01*
X211817452Y-58782544D01*
X211817455Y-58782547D01*
X211932664Y-58868793D01*
X211932671Y-58868797D01*
X212067517Y-58919091D01*
X212067516Y-58919091D01*
X212074444Y-58919835D01*
X212127127Y-58925500D01*
X213922872Y-58925499D01*
X213982483Y-58919091D01*
X214117331Y-58868796D01*
X214232546Y-58782546D01*
X214318796Y-58667331D01*
X214369091Y-58532483D01*
X214375500Y-58472873D01*
X214375500Y-58324500D01*
X214395185Y-58257461D01*
X214447989Y-58211706D01*
X214499500Y-58200500D01*
X234134900Y-58200500D01*
X234134907Y-58200500D01*
X234134913Y-58200498D01*
X234138595Y-58200136D01*
X234140515Y-58200500D01*
X234140999Y-58200500D01*
X234140999Y-58200591D01*
X234207241Y-58213153D01*
X234251071Y-58250654D01*
X234344890Y-58379785D01*
X234344894Y-58379790D01*
X234484068Y-58518964D01*
X234517553Y-58580287D01*
X234512569Y-58649979D01*
X234470697Y-58705912D01*
X234461484Y-58712183D01*
X234306659Y-58807680D01*
X234306655Y-58807683D01*
X234182684Y-58931654D01*
X234090643Y-59080875D01*
X234090641Y-59080880D01*
X234035494Y-59247302D01*
X234035493Y-59247309D01*
X234025000Y-59350013D01*
X234025000Y-59750000D01*
X235095854Y-59750000D01*
X235057370Y-59816657D01*
X235025000Y-59937465D01*
X235025000Y-60062535D01*
X235057370Y-60183343D01*
X235095854Y-60250000D01*
X234025001Y-60250000D01*
X234025001Y-60649986D01*
X234035494Y-60752697D01*
X234090641Y-60919119D01*
X234090643Y-60919124D01*
X234182684Y-61068345D01*
X234306654Y-61192315D01*
X234455875Y-61284356D01*
X234455880Y-61284358D01*
X234622302Y-61339505D01*
X234622309Y-61339506D01*
X234725019Y-61349999D01*
X235249999Y-61349999D01*
X235250000Y-61349998D01*
X235250000Y-60404145D01*
X235316657Y-60442630D01*
X235437465Y-60475000D01*
X235562535Y-60475000D01*
X235683343Y-60442630D01*
X235750000Y-60404145D01*
X235750000Y-61349999D01*
X236274972Y-61349999D01*
X236274986Y-61349998D01*
X236377697Y-61339505D01*
X236544119Y-61284358D01*
X236544124Y-61284356D01*
X236693345Y-61192315D01*
X236817315Y-61068345D01*
X236909356Y-60919124D01*
X236909358Y-60919119D01*
X236964505Y-60752697D01*
X236964506Y-60752690D01*
X236974999Y-60649986D01*
X236975000Y-60649973D01*
X236975000Y-60250000D01*
X235904146Y-60250000D01*
X235942630Y-60183343D01*
X235975000Y-60062535D01*
X235975000Y-59937465D01*
X235942630Y-59816657D01*
X235904146Y-59750000D01*
X236974999Y-59750000D01*
X236974999Y-59350028D01*
X236974998Y-59350013D01*
X236964505Y-59247302D01*
X236909358Y-59080880D01*
X236909356Y-59080875D01*
X236817315Y-58931654D01*
X236693345Y-58807684D01*
X236538515Y-58712184D01*
X236491791Y-58660236D01*
X236480568Y-58591273D01*
X236508412Y-58527191D01*
X236515909Y-58518986D01*
X236655104Y-58379792D01*
X236780051Y-58207816D01*
X236876557Y-58018412D01*
X236942246Y-57816243D01*
X236975500Y-57606287D01*
X236975500Y-57393713D01*
X236942246Y-57183757D01*
X236876557Y-56981588D01*
X236780051Y-56792184D01*
X236780049Y-56792181D01*
X236780048Y-56792179D01*
X236655109Y-56620213D01*
X236504792Y-56469896D01*
X236497694Y-56464739D01*
X236340204Y-56350316D01*
X236297540Y-56294989D01*
X236291561Y-56225376D01*
X236324166Y-56163580D01*
X236340199Y-56149686D01*
X236504792Y-56030104D01*
X236655104Y-55879792D01*
X236655106Y-55879788D01*
X236655109Y-55879786D01*
X236780048Y-55707820D01*
X236780049Y-55707819D01*
X236780051Y-55707816D01*
X236876557Y-55518412D01*
X236942246Y-55316243D01*
X236975500Y-55106287D01*
X236975500Y-54893713D01*
X236942246Y-54683757D01*
X236876557Y-54481588D01*
X236780051Y-54292184D01*
X236780049Y-54292181D01*
X236780048Y-54292179D01*
X236655109Y-54120213D01*
X236504792Y-53969896D01*
X236435741Y-53919728D01*
X236340204Y-53850316D01*
X236297540Y-53794989D01*
X236291561Y-53725376D01*
X236324166Y-53663580D01*
X236340199Y-53649686D01*
X236504792Y-53530104D01*
X236655104Y-53379792D01*
X236655106Y-53379788D01*
X236655109Y-53379786D01*
X236780048Y-53207820D01*
X236780049Y-53207819D01*
X236780051Y-53207816D01*
X236876557Y-53018412D01*
X236942246Y-52816243D01*
X236975500Y-52606287D01*
X236975500Y-52393713D01*
X236942246Y-52183757D01*
X236876557Y-51981588D01*
X236780051Y-51792184D01*
X236780049Y-51792181D01*
X236780048Y-51792179D01*
X236655109Y-51620213D01*
X236504792Y-51469896D01*
X236497902Y-51464890D01*
X236340204Y-51350316D01*
X236297540Y-51294989D01*
X236291561Y-51225376D01*
X236324166Y-51163580D01*
X236340199Y-51149686D01*
X236504792Y-51030104D01*
X236655104Y-50879792D01*
X236655106Y-50879788D01*
X236655109Y-50879786D01*
X236780048Y-50707820D01*
X236780047Y-50707820D01*
X236780051Y-50707816D01*
X236876557Y-50518412D01*
X236942246Y-50316243D01*
X236975500Y-50106287D01*
X236975500Y-49893713D01*
X236942246Y-49683757D01*
X236876557Y-49481588D01*
X236780051Y-49292184D01*
X236780049Y-49292181D01*
X236780048Y-49292179D01*
X236655109Y-49120213D01*
X236504786Y-48969890D01*
X236332820Y-48844951D01*
X236143414Y-48748444D01*
X236143413Y-48748443D01*
X236143412Y-48748443D01*
X235941243Y-48682754D01*
X235941241Y-48682753D01*
X235941240Y-48682753D01*
X235779957Y-48657208D01*
X235731287Y-48649500D01*
X235268713Y-48649500D01*
X235220042Y-48657208D01*
X235058760Y-48682753D01*
X234856585Y-48748444D01*
X234667179Y-48844951D01*
X234495213Y-48969890D01*
X234344896Y-49120207D01*
X234281213Y-49207861D01*
X234229973Y-49278385D01*
X234174645Y-49321051D01*
X234129656Y-49329500D01*
X214297981Y-49329500D01*
X214230942Y-49309815D01*
X214187497Y-49261797D01*
X214180049Y-49247180D01*
X214055109Y-49075213D01*
X213904786Y-48924890D01*
X213732820Y-48799951D01*
X213732115Y-48799591D01*
X213724054Y-48795485D01*
X213673259Y-48747512D01*
X213656463Y-48679692D01*
X213678999Y-48613556D01*
X213724054Y-48574515D01*
X213732816Y-48570051D01*
X213819138Y-48507335D01*
X213904786Y-48445109D01*
X213904788Y-48445106D01*
X213904792Y-48445104D01*
X214055104Y-48294792D01*
X214055106Y-48294788D01*
X214055109Y-48294786D01*
X214180048Y-48122820D01*
X214180047Y-48122820D01*
X214180051Y-48122816D01*
X214276557Y-47933412D01*
X214342246Y-47731243D01*
X214375500Y-47521287D01*
X214375500Y-47308713D01*
X214342246Y-47098757D01*
X214276557Y-46896588D01*
X214180051Y-46707184D01*
X214180049Y-46707181D01*
X214180048Y-46707179D01*
X214055109Y-46535213D01*
X213904786Y-46384890D01*
X213732820Y-46259951D01*
X213725293Y-46256116D01*
X213724054Y-46255485D01*
X213673259Y-46207512D01*
X213656463Y-46139692D01*
X213678999Y-46073556D01*
X213724054Y-46034515D01*
X213732816Y-46030051D01*
X213754789Y-46014086D01*
X213904786Y-45905109D01*
X213904788Y-45905106D01*
X213904792Y-45905104D01*
X214055104Y-45754792D01*
X214055106Y-45754788D01*
X214055109Y-45754786D01*
X214180048Y-45582820D01*
X214180047Y-45582820D01*
X214180051Y-45582816D01*
X214276557Y-45393412D01*
X214342246Y-45191243D01*
X214375500Y-44981287D01*
X214375500Y-44878711D01*
X221149500Y-44878711D01*
X221149500Y-45121288D01*
X221181161Y-45361785D01*
X221243947Y-45596104D01*
X221309678Y-45754792D01*
X221336776Y-45820212D01*
X221458064Y-46030289D01*
X221458066Y-46030292D01*
X221458067Y-46030293D01*
X221605733Y-46222736D01*
X221605739Y-46222743D01*
X221777256Y-46394260D01*
X221777263Y-46394266D01*
X221880446Y-46473441D01*
X221969711Y-46541936D01*
X222179788Y-46663224D01*
X222403900Y-46756054D01*
X222638211Y-46818838D01*
X222818586Y-46842584D01*
X222878711Y-46850500D01*
X222878712Y-46850500D01*
X223121289Y-46850500D01*
X223169388Y-46844167D01*
X223361789Y-46818838D01*
X223596100Y-46756054D01*
X223820212Y-46663224D01*
X224030289Y-46541936D01*
X224222738Y-46394265D01*
X224394265Y-46222738D01*
X224541936Y-46030289D01*
X224663224Y-45820212D01*
X224756054Y-45596100D01*
X224818838Y-45361789D01*
X224850500Y-45121288D01*
X224850500Y-44878712D01*
X224818838Y-44638211D01*
X224756054Y-44403900D01*
X224663224Y-44179788D01*
X224541936Y-43969711D01*
X224443262Y-43841116D01*
X224394266Y-43777263D01*
X224394260Y-43777256D01*
X224222743Y-43605739D01*
X224222736Y-43605733D01*
X224030293Y-43458067D01*
X224030292Y-43458066D01*
X224030289Y-43458064D01*
X223820212Y-43336776D01*
X223820205Y-43336773D01*
X223596104Y-43243947D01*
X223361785Y-43181161D01*
X223121289Y-43149500D01*
X223121288Y-43149500D01*
X222878712Y-43149500D01*
X222878711Y-43149500D01*
X222638214Y-43181161D01*
X222403895Y-43243947D01*
X222179794Y-43336773D01*
X222179785Y-43336777D01*
X221969706Y-43458067D01*
X221777263Y-43605733D01*
X221777256Y-43605739D01*
X221605739Y-43777256D01*
X221605733Y-43777263D01*
X221458067Y-43969706D01*
X221336777Y-44179785D01*
X221336773Y-44179794D01*
X221243947Y-44403895D01*
X221181161Y-44638214D01*
X221149500Y-44878711D01*
X214375500Y-44878711D01*
X214375500Y-44768713D01*
X214342246Y-44558757D01*
X214276557Y-44356588D01*
X214180051Y-44167184D01*
X214180049Y-44167181D01*
X214180048Y-44167179D01*
X214055109Y-43995213D01*
X213904786Y-43844890D01*
X213732820Y-43719951D01*
X213543414Y-43623444D01*
X213543413Y-43623443D01*
X213543412Y-43623443D01*
X213341243Y-43557754D01*
X213341241Y-43557753D01*
X213341240Y-43557753D01*
X213179957Y-43532208D01*
X213131287Y-43524500D01*
X212918713Y-43524500D01*
X212870042Y-43532208D01*
X212708760Y-43557753D01*
X212506585Y-43623444D01*
X212317179Y-43719951D01*
X212145213Y-43844890D01*
X211994890Y-43995213D01*
X211869951Y-44167179D01*
X211773444Y-44356585D01*
X211707753Y-44558760D01*
X211695169Y-44638214D01*
X211674500Y-44768713D01*
X179836019Y-44768713D01*
X179818838Y-44638211D01*
X179756054Y-44403900D01*
X179663224Y-44179788D01*
X179541936Y-43969711D01*
X179443262Y-43841116D01*
X179394266Y-43777263D01*
X179394260Y-43777256D01*
X179222743Y-43605739D01*
X179222736Y-43605733D01*
X179030293Y-43458067D01*
X179030292Y-43458066D01*
X179030289Y-43458064D01*
X178820212Y-43336776D01*
X178820205Y-43336773D01*
X178596104Y-43243947D01*
X178361785Y-43181161D01*
X178121289Y-43149500D01*
X178121288Y-43149500D01*
X177878712Y-43149500D01*
X177878711Y-43149500D01*
X177638214Y-43181161D01*
X177403895Y-43243947D01*
X177179794Y-43336773D01*
X177179785Y-43336777D01*
X176969706Y-43458067D01*
X176777263Y-43605733D01*
X176777256Y-43605739D01*
X176605739Y-43777256D01*
X176605733Y-43777263D01*
X176458067Y-43969706D01*
X176336777Y-44179785D01*
X176336773Y-44179794D01*
X176243947Y-44403895D01*
X176181161Y-44638214D01*
X176149500Y-44878711D01*
X176149500Y-45124464D01*
X176129815Y-45191503D01*
X176077011Y-45237258D01*
X176007853Y-45247202D01*
X175944297Y-45218177D01*
X175937819Y-45212145D01*
X174771848Y-44046174D01*
X174771846Y-44046172D01*
X174612605Y-43930476D01*
X174437230Y-43841117D01*
X174250026Y-43780290D01*
X174055622Y-43749500D01*
X174055617Y-43749500D01*
X167135132Y-43749500D01*
X167070036Y-43731039D01*
X167044334Y-43715186D01*
X166877797Y-43660001D01*
X166877795Y-43660000D01*
X166775010Y-43649500D01*
X165224998Y-43649500D01*
X165224981Y-43649501D01*
X165122203Y-43660000D01*
X165122200Y-43660001D01*
X164955668Y-43715185D01*
X164955663Y-43715187D01*
X164806342Y-43807289D01*
X164682289Y-43931342D01*
X164590187Y-44080663D01*
X164590186Y-44080666D01*
X164535001Y-44247203D01*
X164535001Y-44247204D01*
X164535000Y-44247204D01*
X164524500Y-44349983D01*
X164524500Y-45650001D01*
X164524501Y-45650018D01*
X164535000Y-45752796D01*
X164535001Y-45752799D01*
X164585471Y-45905104D01*
X164590186Y-45919334D01*
X164682288Y-46068656D01*
X164806344Y-46192712D01*
X164931948Y-46270185D01*
X164961558Y-46288448D01*
X165008283Y-46340396D01*
X165019506Y-46409358D01*
X164991663Y-46473441D01*
X164984144Y-46481668D01*
X164845271Y-46620541D01*
X164720379Y-46792442D01*
X164623904Y-46981782D01*
X164558242Y-47183870D01*
X164558242Y-47183873D01*
X164547769Y-47250000D01*
X165595854Y-47250000D01*
X165557370Y-47316657D01*
X165525000Y-47437465D01*
X165525000Y-47562535D01*
X165557370Y-47683343D01*
X165595854Y-47750000D01*
X164547769Y-47750000D01*
X164558242Y-47816126D01*
X164558242Y-47816129D01*
X164623904Y-48018217D01*
X164720379Y-48207557D01*
X164845272Y-48379459D01*
X164845276Y-48379464D01*
X164995535Y-48529723D01*
X164995540Y-48529727D01*
X165160644Y-48649682D01*
X165203310Y-48705012D01*
X165209289Y-48774625D01*
X165176684Y-48836420D01*
X165160644Y-48850318D01*
X164995540Y-48970272D01*
X164995535Y-48970276D01*
X164845276Y-49120535D01*
X164845272Y-49120540D01*
X164720379Y-49292442D01*
X164623904Y-49481782D01*
X164558242Y-49683870D01*
X164558242Y-49683873D01*
X164547769Y-49750000D01*
X165595854Y-49750000D01*
X165557370Y-49816657D01*
X165525000Y-49937465D01*
X165525000Y-50062535D01*
X165557370Y-50183343D01*
X165595854Y-50250000D01*
X164547769Y-50250000D01*
X164558242Y-50316126D01*
X164558242Y-50316129D01*
X164623904Y-50518217D01*
X164720379Y-50707557D01*
X164845272Y-50879459D01*
X164845276Y-50879464D01*
X164995535Y-51029723D01*
X164995540Y-51029727D01*
X165160218Y-51149372D01*
X165202884Y-51204701D01*
X165208863Y-51274315D01*
X165176258Y-51336110D01*
X165160218Y-51350008D01*
X164995214Y-51469890D01*
X164995209Y-51469894D01*
X164844890Y-51620213D01*
X164719951Y-51792179D01*
X164623444Y-51981585D01*
X164557753Y-52183760D01*
X164525292Y-52388713D01*
X164524500Y-52393713D01*
X164524500Y-52606287D01*
X164557754Y-52816243D01*
X164621818Y-53013412D01*
X164623444Y-53018414D01*
X164719951Y-53207820D01*
X164844890Y-53379786D01*
X164995209Y-53530105D01*
X164995214Y-53530109D01*
X165159793Y-53649682D01*
X165202459Y-53705011D01*
X165208438Y-53774625D01*
X165175833Y-53836420D01*
X165159793Y-53850318D01*
X164995214Y-53969890D01*
X164995209Y-53969894D01*
X164844890Y-54120213D01*
X164719951Y-54292179D01*
X164623444Y-54481585D01*
X164557753Y-54683760D01*
X164539690Y-54797805D01*
X164524500Y-54893713D01*
X164524500Y-55106287D01*
X164557754Y-55316243D01*
X164623443Y-55518412D01*
X164705870Y-55680185D01*
X164719951Y-55707819D01*
X164775964Y-55784915D01*
X164799444Y-55850721D01*
X164783619Y-55918775D01*
X164763327Y-55945481D01*
X164244070Y-56464739D01*
X164156944Y-56551864D01*
X164156938Y-56551872D01*
X164122714Y-56603089D01*
X164122715Y-56603090D01*
X164088491Y-56654308D01*
X164088484Y-56654320D01*
X164076708Y-56682753D01*
X164076706Y-56682759D01*
X164074383Y-56688368D01*
X164041337Y-56768148D01*
X164036556Y-56792184D01*
X164024619Y-56852200D01*
X164023426Y-56858193D01*
X164023426Y-56858196D01*
X164017300Y-56888992D01*
X164017300Y-70631410D01*
X164020706Y-70648536D01*
X164041335Y-70752244D01*
X164041337Y-70752252D01*
X164055147Y-70785592D01*
X164088488Y-70866086D01*
X164122715Y-70917309D01*
X164126602Y-70923126D01*
X164126603Y-70923128D01*
X164156941Y-70968533D01*
X164248386Y-71059978D01*
X164248408Y-71059998D01*
X164350728Y-71162318D01*
X164384213Y-71223641D01*
X164379229Y-71293333D01*
X164350729Y-71337680D01*
X164318305Y-71370104D01*
X164237870Y-71450539D01*
X164150744Y-71537664D01*
X164150738Y-71537672D01*
X164082290Y-71640108D01*
X164082289Y-71640110D01*
X164061417Y-71690499D01*
X164061418Y-71690500D01*
X164035136Y-71753949D01*
X164035135Y-71753955D01*
X164011100Y-71874789D01*
X164011100Y-73104811D01*
X164035135Y-73225644D01*
X164035140Y-73225661D01*
X164082285Y-73339480D01*
X164082287Y-73339483D01*
X164082288Y-73339486D01*
X164116515Y-73390709D01*
X164150742Y-73441933D01*
X164237867Y-73529058D01*
X164237870Y-73529060D01*
X164245154Y-73536344D01*
X164763327Y-74054517D01*
X164796812Y-74115840D01*
X164791828Y-74185532D01*
X164775965Y-74215082D01*
X164719949Y-74292183D01*
X164719948Y-74292185D01*
X164623444Y-74481585D01*
X164623443Y-74481587D01*
X164623443Y-74481588D01*
X164590598Y-74582672D01*
X164557753Y-74683760D01*
X164524500Y-74893713D01*
X164524500Y-75106286D01*
X164557753Y-75316239D01*
X164623444Y-75518414D01*
X164719951Y-75707820D01*
X164844890Y-75879786D01*
X164995209Y-76030105D01*
X164995214Y-76030109D01*
X165159793Y-76149682D01*
X165202459Y-76205011D01*
X165208438Y-76274625D01*
X165175833Y-76336420D01*
X165159793Y-76350318D01*
X164995214Y-76469890D01*
X164995209Y-76469894D01*
X164844890Y-76620213D01*
X164719951Y-76792179D01*
X164623444Y-76981585D01*
X164557753Y-77183760D01*
X164536996Y-77314815D01*
X164524500Y-77393713D01*
X164524500Y-77606287D01*
X164530453Y-77643872D01*
X164549955Y-77767007D01*
X164557754Y-77816243D01*
X164604463Y-77959999D01*
X164623444Y-78018414D01*
X164719951Y-78207820D01*
X164844890Y-78379786D01*
X164995213Y-78530109D01*
X165167182Y-78655050D01*
X165167184Y-78655051D01*
X165314796Y-78730262D01*
X165365592Y-78778236D01*
X165380118Y-78816555D01*
X165398535Y-78909146D01*
X165398540Y-78909161D01*
X165445685Y-79022980D01*
X165445687Y-79022983D01*
X165445688Y-79022986D01*
X165479915Y-79074209D01*
X165514142Y-79125433D01*
X165601267Y-79212558D01*
X165601270Y-79212560D01*
X165608554Y-79219844D01*
X171854316Y-85465606D01*
X171854345Y-85465637D01*
X171944564Y-85555856D01*
X171944567Y-85555858D01*
X172021490Y-85607256D01*
X172047015Y-85624312D01*
X172113697Y-85651932D01*
X172117485Y-85653501D01*
X172117493Y-85653505D01*
X172154727Y-85668927D01*
X172160848Y-85671463D01*
X172221271Y-85683481D01*
X172281693Y-85695500D01*
X172281694Y-85695500D01*
X173618740Y-85695500D01*
X173685779Y-85715185D01*
X173731534Y-85767989D01*
X173741478Y-85837147D01*
X173736671Y-85857818D01*
X173682753Y-86023759D01*
X173653256Y-86210000D01*
X173649500Y-86233713D01*
X173649500Y-86446287D01*
X173682754Y-86656243D01*
X173746242Y-86851639D01*
X173748444Y-86858414D01*
X173844951Y-87047820D01*
X173969890Y-87219786D01*
X174120213Y-87370109D01*
X174292182Y-87495050D01*
X174300946Y-87499516D01*
X174351742Y-87547491D01*
X174368536Y-87615312D01*
X174345998Y-87681447D01*
X174300946Y-87720484D01*
X174292182Y-87724949D01*
X174120213Y-87849890D01*
X173969890Y-88000213D01*
X173844951Y-88172179D01*
X173748444Y-88361585D01*
X173682753Y-88563760D01*
X173674148Y-88618092D01*
X173649500Y-88773713D01*
X173649500Y-88986287D01*
X173682754Y-89196243D01*
X173728761Y-89337838D01*
X173748444Y-89398414D01*
X173844951Y-89587820D01*
X173969890Y-89759786D01*
X174120213Y-89910109D01*
X174292182Y-90035050D01*
X174300946Y-90039516D01*
X174351742Y-90087491D01*
X174368536Y-90155312D01*
X174345998Y-90221447D01*
X174300946Y-90260484D01*
X174292182Y-90264949D01*
X174120213Y-90389890D01*
X173969890Y-90540213D01*
X173844951Y-90712179D01*
X173748444Y-90901585D01*
X173682753Y-91103760D01*
X173670065Y-91183869D01*
X173649500Y-91313713D01*
X173649500Y-91526287D01*
X173682754Y-91736243D01*
X173735994Y-91900099D01*
X173748444Y-91938414D01*
X173844951Y-92127820D01*
X173969890Y-92299786D01*
X174120213Y-92450109D01*
X174292182Y-92575050D01*
X174300946Y-92579516D01*
X174351742Y-92627491D01*
X174368536Y-92695312D01*
X174345998Y-92761447D01*
X174300946Y-92800484D01*
X174292182Y-92804949D01*
X174120213Y-92929890D01*
X173969890Y-93080213D01*
X173844951Y-93252179D01*
X173748444Y-93441585D01*
X173748443Y-93441587D01*
X173748443Y-93441588D01*
X173682754Y-93643757D01*
X173682752Y-93643766D01*
X173682069Y-93646611D01*
X173681511Y-93647581D01*
X173681249Y-93648390D01*
X173681079Y-93648334D01*
X173647276Y-93707202D01*
X173585249Y-93739364D01*
X173515680Y-93732885D01*
X173473815Y-93705341D01*
X168000783Y-88232309D01*
X167967298Y-88170986D01*
X167965995Y-88164052D01*
X167963553Y-88148632D01*
X167890568Y-87924008D01*
X167890566Y-87924005D01*
X167890566Y-87924003D01*
X167783342Y-87713566D01*
X167760006Y-87681447D01*
X167644517Y-87522490D01*
X167644508Y-87522481D01*
X167641353Y-87518786D01*
X167643022Y-87517360D01*
X167613910Y-87464045D01*
X167618894Y-87394353D01*
X167660766Y-87338420D01*
X167669980Y-87332148D01*
X167718343Y-87302317D01*
X167842315Y-87178345D01*
X167934356Y-87029124D01*
X167934358Y-87029119D01*
X167989505Y-86862697D01*
X167989506Y-86862690D01*
X167999999Y-86759986D01*
X168000000Y-86759973D01*
X168000000Y-86210000D01*
X167048482Y-86210000D01*
X167059111Y-86191591D01*
X167100000Y-86038991D01*
X167100000Y-85881009D01*
X167059111Y-85728409D01*
X167048482Y-85710000D01*
X167999999Y-85710000D01*
X167999999Y-85160028D01*
X167999998Y-85160013D01*
X167989505Y-85057302D01*
X167934358Y-84890880D01*
X167934356Y-84890875D01*
X167842315Y-84741654D01*
X167718345Y-84617684D01*
X167569124Y-84525643D01*
X167569119Y-84525641D01*
X167402697Y-84470494D01*
X167402690Y-84470493D01*
X167299986Y-84460000D01*
X166750000Y-84460000D01*
X166750000Y-85411517D01*
X166731591Y-85400889D01*
X166578991Y-85360000D01*
X166421009Y-85360000D01*
X166268409Y-85400889D01*
X166250000Y-85411517D01*
X166250000Y-84460000D01*
X165700028Y-84460000D01*
X165700012Y-84460001D01*
X165597302Y-84470494D01*
X165430880Y-84525641D01*
X165430875Y-84525643D01*
X165281654Y-84617684D01*
X165157684Y-84741654D01*
X165065643Y-84890875D01*
X165065641Y-84890880D01*
X165010494Y-85057302D01*
X165010493Y-85057309D01*
X165000000Y-85160013D01*
X165000000Y-85710000D01*
X165951518Y-85710000D01*
X165940889Y-85728409D01*
X165900000Y-85881009D01*
X165900000Y-86038991D01*
X165940889Y-86191591D01*
X165951518Y-86210000D01*
X165000001Y-86210000D01*
X165000001Y-86759986D01*
X165010494Y-86862697D01*
X165065641Y-87029119D01*
X165065643Y-87029124D01*
X165157684Y-87178345D01*
X165281655Y-87302316D01*
X165281659Y-87302319D01*
X165330020Y-87332149D01*
X165376745Y-87384097D01*
X165387966Y-87453059D01*
X165360123Y-87517141D01*
X165358632Y-87518773D01*
X165358647Y-87518786D01*
X165355485Y-87522488D01*
X165355483Y-87522490D01*
X165337319Y-87547491D01*
X165216657Y-87713566D01*
X165109433Y-87924003D01*
X165036446Y-88148631D01*
X164999500Y-88381902D01*
X164999500Y-88618097D01*
X165036446Y-88851368D01*
X165109433Y-89075996D01*
X165215472Y-89284107D01*
X165216657Y-89286433D01*
X165355483Y-89477510D01*
X165522490Y-89644517D01*
X165713567Y-89783343D01*
X165812991Y-89834002D01*
X165924003Y-89890566D01*
X165924005Y-89890566D01*
X165924008Y-89890568D01*
X166148632Y-89963553D01*
X166164027Y-89965991D01*
X166227160Y-89995920D01*
X166232309Y-90000783D01*
X171861481Y-95629955D01*
X171894966Y-95691278D01*
X171897800Y-95717636D01*
X171897800Y-96598422D01*
X171928590Y-96792826D01*
X171989417Y-96980029D01*
X172078776Y-97155405D01*
X172194472Y-97314646D01*
X172333654Y-97453828D01*
X172492895Y-97569524D01*
X172505882Y-97576141D01*
X172668270Y-97658882D01*
X172668272Y-97658882D01*
X172668275Y-97658884D01*
X172768617Y-97691487D01*
X172855473Y-97719709D01*
X173049878Y-97750500D01*
X173049883Y-97750500D01*
X173808561Y-97750500D01*
X173875600Y-97770185D01*
X173882872Y-97775233D01*
X173907668Y-97793795D01*
X173907671Y-97793797D01*
X174042517Y-97844091D01*
X174042516Y-97844091D01*
X174049444Y-97844835D01*
X174102127Y-97850500D01*
X175897872Y-97850499D01*
X175957483Y-97844091D01*
X176092331Y-97793796D01*
X176117128Y-97775233D01*
X176182592Y-97750816D01*
X176191439Y-97750500D01*
X178078964Y-97750500D01*
X178146003Y-97770185D01*
X178166645Y-97786819D01*
X182033654Y-101653828D01*
X182192895Y-101769524D01*
X182368274Y-101858884D01*
X182518040Y-101907546D01*
X182555474Y-101919709D01*
X182587875Y-101924840D01*
X182749878Y-101950500D01*
X182749883Y-101950500D01*
X183508561Y-101950500D01*
X183575600Y-101970185D01*
X183582872Y-101975233D01*
X183607668Y-101993795D01*
X183607671Y-101993797D01*
X183652618Y-102010561D01*
X183742517Y-102044091D01*
X183802127Y-102050500D01*
X183812685Y-102050499D01*
X183879723Y-102070179D01*
X183900372Y-102086818D01*
X184570591Y-102757037D01*
X184507007Y-102774075D01*
X184392993Y-102839901D01*
X184299901Y-102932993D01*
X184234075Y-103047007D01*
X184217037Y-103110591D01*
X183584728Y-102478282D01*
X183584727Y-102478282D01*
X183545380Y-102532439D01*
X183448904Y-102721782D01*
X183383242Y-102923869D01*
X183383242Y-102923872D01*
X183350000Y-103133753D01*
X183350000Y-103346246D01*
X183383242Y-103556127D01*
X183383242Y-103556130D01*
X183448904Y-103758217D01*
X183545375Y-103947550D01*
X183584728Y-104001716D01*
X184217037Y-103369408D01*
X184234075Y-103432993D01*
X184299901Y-103547007D01*
X184392993Y-103640099D01*
X184507007Y-103705925D01*
X184570589Y-103722962D01*
X183938282Y-104355269D01*
X183938282Y-104355270D01*
X183992452Y-104394626D01*
X183992451Y-104394626D01*
X184001495Y-104399234D01*
X184052292Y-104447208D01*
X184069087Y-104515029D01*
X184046550Y-104581164D01*
X184001499Y-104620202D01*
X183992182Y-104624949D01*
X183820213Y-104749890D01*
X183669890Y-104900213D01*
X183544950Y-105072180D01*
X183537503Y-105086797D01*
X183489527Y-105137592D01*
X183427019Y-105154500D01*
X180562689Y-105154500D01*
X180502271Y-105166518D01*
X180459043Y-105175116D01*
X180441846Y-105178537D01*
X180328016Y-105225687D01*
X180328007Y-105225692D01*
X180225568Y-105294140D01*
X180197548Y-105322161D01*
X180138442Y-105381267D01*
X180138439Y-105381270D01*
X178175303Y-107344405D01*
X178113980Y-107377890D01*
X178111814Y-107378341D01*
X178000608Y-107400461D01*
X178000598Y-107400464D01*
X177854927Y-107460802D01*
X177854914Y-107460809D01*
X177723811Y-107548410D01*
X177723807Y-107548413D01*
X177612313Y-107659907D01*
X177612310Y-107659911D01*
X177524709Y-107791014D01*
X177524702Y-107791027D01*
X177464364Y-107936698D01*
X177464361Y-107936710D01*
X177433600Y-108091353D01*
X177433600Y-108249046D01*
X177464361Y-108403689D01*
X177464364Y-108403701D01*
X177524702Y-108549372D01*
X177524709Y-108549385D01*
X177612310Y-108680488D01*
X177612313Y-108680492D01*
X177723807Y-108791986D01*
X177723811Y-108791989D01*
X177854914Y-108879590D01*
X177854927Y-108879597D01*
X178000598Y-108939935D01*
X178000603Y-108939937D01*
X178155253Y-108970699D01*
X178155256Y-108970700D01*
X178155258Y-108970700D01*
X178312944Y-108970700D01*
X178312945Y-108970699D01*
X178467597Y-108939937D01*
X178613279Y-108879594D01*
X178744389Y-108791989D01*
X178855889Y-108680489D01*
X178943494Y-108549379D01*
X179003837Y-108403697D01*
X179025958Y-108292482D01*
X179058340Y-108230575D01*
X179059834Y-108229054D01*
X180847071Y-106441819D01*
X180908394Y-106408334D01*
X180934752Y-106405500D01*
X183427019Y-106405500D01*
X183494058Y-106425185D01*
X183537503Y-106473203D01*
X183544950Y-106487819D01*
X183669890Y-106659786D01*
X183820213Y-106810109D01*
X183992182Y-106935050D01*
X184000946Y-106939516D01*
X184051742Y-106987491D01*
X184068536Y-107055312D01*
X184045998Y-107121447D01*
X184000946Y-107160484D01*
X183992182Y-107164949D01*
X183820213Y-107289890D01*
X183669890Y-107440213D01*
X183544951Y-107612179D01*
X183448444Y-107801585D01*
X183382753Y-108003760D01*
X183349500Y-108213713D01*
X183349500Y-108426286D01*
X183382754Y-108636246D01*
X183382754Y-108636247D01*
X183387821Y-108651842D01*
X183389814Y-108721683D01*
X183357570Y-108777837D01*
X175618129Y-116517281D01*
X175556806Y-116550766D01*
X175530448Y-116553600D01*
X168818150Y-116553600D01*
X168751111Y-116533915D01*
X168749259Y-116532702D01*
X168654984Y-116469709D01*
X168654972Y-116469702D01*
X168509301Y-116409364D01*
X168509289Y-116409361D01*
X168354645Y-116378600D01*
X168354642Y-116378600D01*
X168196958Y-116378600D01*
X168196955Y-116378600D01*
X168042310Y-116409361D01*
X168042298Y-116409364D01*
X167896627Y-116469702D01*
X167896614Y-116469709D01*
X167765511Y-116557310D01*
X167765507Y-116557313D01*
X167654013Y-116668807D01*
X167654010Y-116668811D01*
X167566409Y-116799914D01*
X167566402Y-116799927D01*
X167506064Y-116945598D01*
X167506061Y-116945610D01*
X167475300Y-117100253D01*
X167475300Y-117210500D01*
X167455615Y-117277539D01*
X167402811Y-117323294D01*
X167351300Y-117334500D01*
X165772981Y-117334500D01*
X165705942Y-117314815D01*
X165662497Y-117266797D01*
X165655049Y-117252180D01*
X165530109Y-117080213D01*
X165379786Y-116929890D01*
X165207820Y-116804951D01*
X165207115Y-116804591D01*
X165199054Y-116800485D01*
X165148259Y-116752512D01*
X165131463Y-116684692D01*
X165153999Y-116618556D01*
X165199054Y-116579515D01*
X165207816Y-116575051D01*
X165287330Y-116517281D01*
X165379786Y-116450109D01*
X165379788Y-116450106D01*
X165379792Y-116450104D01*
X165530104Y-116299792D01*
X165530106Y-116299788D01*
X165530109Y-116299786D01*
X165655048Y-116127820D01*
X165655047Y-116127820D01*
X165655051Y-116127816D01*
X165751557Y-115938412D01*
X165817246Y-115736243D01*
X165850500Y-115526287D01*
X165850500Y-115313713D01*
X165817246Y-115103757D01*
X165751557Y-114901588D01*
X165655051Y-114712184D01*
X165655049Y-114712181D01*
X165655048Y-114712179D01*
X165530109Y-114540213D01*
X165379786Y-114389890D01*
X165207820Y-114264951D01*
X165207115Y-114264591D01*
X165199054Y-114260485D01*
X165148259Y-114212512D01*
X165131463Y-114144692D01*
X165153999Y-114078556D01*
X165199054Y-114039515D01*
X165207816Y-114035051D01*
X165281402Y-113981588D01*
X165379786Y-113910109D01*
X165379788Y-113910106D01*
X165379792Y-113910104D01*
X165530104Y-113759792D01*
X165530106Y-113759788D01*
X165530109Y-113759786D01*
X165655048Y-113587820D01*
X165655047Y-113587820D01*
X165655051Y-113587816D01*
X165751557Y-113398412D01*
X165817246Y-113196243D01*
X165850500Y-112986287D01*
X165850500Y-112773713D01*
X165817246Y-112563757D01*
X165751557Y-112361588D01*
X165655051Y-112172184D01*
X165655049Y-112172181D01*
X165655048Y-112172179D01*
X165530109Y-112000213D01*
X165379786Y-111849890D01*
X165207817Y-111724949D01*
X165198504Y-111720204D01*
X165147707Y-111672230D01*
X165130912Y-111604409D01*
X165153449Y-111538274D01*
X165198507Y-111499232D01*
X165207555Y-111494622D01*
X165261716Y-111455270D01*
X165261717Y-111455270D01*
X164629409Y-110822962D01*
X164692993Y-110805925D01*
X164807007Y-110740099D01*
X164900099Y-110647007D01*
X164965925Y-110532993D01*
X164982962Y-110469408D01*
X165615270Y-111101717D01*
X165615270Y-111101716D01*
X165654622Y-111047554D01*
X165751095Y-110858217D01*
X165816757Y-110656130D01*
X165816757Y-110656127D01*
X165850000Y-110446246D01*
X165850000Y-110233753D01*
X165816757Y-110023872D01*
X165816757Y-110023869D01*
X165751095Y-109821782D01*
X165654624Y-109632449D01*
X165615270Y-109578282D01*
X165615269Y-109578282D01*
X164982962Y-110210590D01*
X164965925Y-110147007D01*
X164900099Y-110032993D01*
X164807007Y-109939901D01*
X164692993Y-109874075D01*
X164629407Y-109857036D01*
X165298802Y-109187642D01*
X165360125Y-109154157D01*
X165374833Y-109155078D01*
X165374556Y-109152501D01*
X165457375Y-109143598D01*
X165592086Y-109093354D01*
X165592093Y-109093350D01*
X165707187Y-109007190D01*
X165707190Y-109007187D01*
X165793350Y-108892093D01*
X165793354Y-108892086D01*
X165843596Y-108757379D01*
X165843598Y-108757372D01*
X165849999Y-108697844D01*
X165850000Y-108697827D01*
X165850000Y-108050000D01*
X164933012Y-108050000D01*
X164965925Y-107992993D01*
X165000000Y-107865826D01*
X165000000Y-107734174D01*
X164965925Y-107607007D01*
X164933012Y-107550000D01*
X165850000Y-107550000D01*
X165850000Y-106902172D01*
X165849999Y-106902155D01*
X165843598Y-106842627D01*
X165843596Y-106842620D01*
X165793354Y-106707913D01*
X165793350Y-106707906D01*
X165707190Y-106592812D01*
X165707187Y-106592809D01*
X165592093Y-106506649D01*
X165592086Y-106506645D01*
X165457379Y-106456403D01*
X165457372Y-106456401D01*
X165397844Y-106450000D01*
X164750000Y-106450000D01*
X164750000Y-107366988D01*
X164692993Y-107334075D01*
X164565826Y-107300000D01*
X164434174Y-107300000D01*
X164307007Y-107334075D01*
X164250000Y-107366988D01*
X164250000Y-106450000D01*
X164022800Y-106450000D01*
X163955761Y-106430315D01*
X163910006Y-106377511D01*
X163898800Y-106326000D01*
X163898800Y-102077151D01*
X163918485Y-102010112D01*
X163935114Y-101989475D01*
X165923121Y-100001467D01*
X165984442Y-99967984D01*
X166049117Y-99971218D01*
X166095517Y-99986295D01*
X166148631Y-100003553D01*
X166381903Y-100040500D01*
X166381908Y-100040500D01*
X166618097Y-100040500D01*
X166851368Y-100003553D01*
X166950881Y-99971219D01*
X167075992Y-99930568D01*
X167286433Y-99823343D01*
X167477510Y-99684517D01*
X167644517Y-99517510D01*
X167783343Y-99326433D01*
X167890568Y-99115992D01*
X167963553Y-98891368D01*
X167965624Y-98878292D01*
X168000500Y-98658097D01*
X168000500Y-98421902D01*
X167963553Y-98188631D01*
X167890566Y-97964003D01*
X167803841Y-97793797D01*
X167783343Y-97753567D01*
X167644517Y-97562490D01*
X167644508Y-97562481D01*
X167641353Y-97558786D01*
X167643134Y-97557264D01*
X167614273Y-97504408D01*
X167619257Y-97434716D01*
X167661129Y-97378783D01*
X167670334Y-97372516D01*
X167718656Y-97342712D01*
X167842712Y-97218656D01*
X167934814Y-97069334D01*
X167989999Y-96902797D01*
X168000500Y-96800009D01*
X168000499Y-95199992D01*
X167989999Y-95097203D01*
X167934814Y-94930666D01*
X167842712Y-94781344D01*
X167718656Y-94657288D01*
X167569334Y-94565186D01*
X167402797Y-94510001D01*
X167402795Y-94510000D01*
X167300010Y-94499500D01*
X165699998Y-94499500D01*
X165699981Y-94499501D01*
X165597203Y-94510000D01*
X165597200Y-94510001D01*
X165430668Y-94565185D01*
X165430663Y-94565187D01*
X165281342Y-94657289D01*
X165157289Y-94781342D01*
X165065187Y-94930663D01*
X165065185Y-94930668D01*
X165048315Y-94981580D01*
X165010001Y-95097203D01*
X165010001Y-95097204D01*
X165010000Y-95097204D01*
X164999500Y-95199983D01*
X164999500Y-96800001D01*
X164999501Y-96800018D01*
X165010000Y-96902796D01*
X165010001Y-96902799D01*
X165065185Y-97069331D01*
X165065187Y-97069336D01*
X165100069Y-97125888D01*
X165157288Y-97218656D01*
X165281344Y-97342712D01*
X165323102Y-97368468D01*
X165329656Y-97372511D01*
X165376381Y-97424459D01*
X165387604Y-97493421D01*
X165359760Y-97557504D01*
X165358615Y-97558759D01*
X165358647Y-97558786D01*
X165355485Y-97562487D01*
X165355483Y-97562490D01*
X165303056Y-97634649D01*
X165216657Y-97753566D01*
X165109433Y-97964003D01*
X165036446Y-98188631D01*
X164999500Y-98421902D01*
X164999500Y-98658097D01*
X165036447Y-98891371D01*
X165068779Y-98990881D01*
X165070774Y-99060722D01*
X165038529Y-99116879D01*
X162874570Y-101280839D01*
X162787444Y-101367964D01*
X162787438Y-101367972D01*
X162718990Y-101470408D01*
X162718988Y-101470413D01*
X162671840Y-101584238D01*
X162671835Y-101584254D01*
X162656361Y-101662052D01*
X162647800Y-101705089D01*
X162647800Y-101705094D01*
X162647800Y-119211693D01*
X162647800Y-119334907D01*
X162647800Y-119334909D01*
X162647799Y-119334909D01*
X162652274Y-119357403D01*
X162652278Y-119357422D01*
X162652750Y-119359792D01*
X162671837Y-119455752D01*
X162677696Y-119469896D01*
X162681433Y-119478918D01*
X162681434Y-119478922D01*
X162718985Y-119569580D01*
X162718990Y-119569589D01*
X162748242Y-119613366D01*
X162748243Y-119613368D01*
X162787441Y-119672032D01*
X162787444Y-119672036D01*
X162878886Y-119763478D01*
X162878908Y-119763498D01*
X163157571Y-120042161D01*
X163191056Y-120103484D01*
X163187822Y-120168158D01*
X163182753Y-120183757D01*
X163156373Y-120350318D01*
X163149500Y-120393713D01*
X163149500Y-120606287D01*
X163159534Y-120669644D01*
X163180457Y-120801744D01*
X163182754Y-120816243D01*
X163217309Y-120922593D01*
X163248444Y-121018414D01*
X163344951Y-121207820D01*
X163469890Y-121379786D01*
X163620213Y-121530109D01*
X163792179Y-121655048D01*
X163792181Y-121655049D01*
X163792184Y-121655051D01*
X163981588Y-121751557D01*
X164183757Y-121817246D01*
X164393713Y-121850500D01*
X164393714Y-121850500D01*
X164606286Y-121850500D01*
X164606287Y-121850500D01*
X164816243Y-121817246D01*
X165018412Y-121751557D01*
X165207816Y-121655051D01*
X165229789Y-121639086D01*
X165379786Y-121530109D01*
X165379788Y-121530106D01*
X165379792Y-121530104D01*
X165530104Y-121379792D01*
X165530106Y-121379788D01*
X165530109Y-121379786D01*
X165655048Y-121207820D01*
X165655047Y-121207820D01*
X165655051Y-121207816D01*
X165751557Y-121018412D01*
X165817246Y-120816243D01*
X165850500Y-120606287D01*
X165850500Y-120393713D01*
X165817246Y-120183757D01*
X165751557Y-119981588D01*
X165655051Y-119792184D01*
X165655049Y-119792181D01*
X165655048Y-119792179D01*
X165530109Y-119620213D01*
X165379786Y-119469890D01*
X165207820Y-119344951D01*
X165207115Y-119344591D01*
X165199054Y-119340485D01*
X165148259Y-119292512D01*
X165131463Y-119224692D01*
X165153999Y-119158556D01*
X165199054Y-119119515D01*
X165207816Y-119115051D01*
X165229789Y-119099086D01*
X165379786Y-118990109D01*
X165379788Y-118990106D01*
X165379792Y-118990104D01*
X165530104Y-118839792D01*
X165530106Y-118839788D01*
X165530109Y-118839786D01*
X165655049Y-118667819D01*
X165662497Y-118653203D01*
X165710473Y-118602408D01*
X165772981Y-118585500D01*
X176249548Y-118585500D01*
X176316587Y-118605185D01*
X176337229Y-118621819D01*
X182074819Y-124359410D01*
X182108304Y-124420733D01*
X182111099Y-124443992D01*
X182197185Y-127887401D01*
X182179182Y-127954911D01*
X182127538Y-128001972D01*
X182073224Y-128014500D01*
X170178389Y-128014500D01*
X170057553Y-128038535D01*
X170057541Y-128038539D01*
X170025262Y-128051909D01*
X170010397Y-128058067D01*
X169943719Y-128085685D01*
X169943717Y-128085686D01*
X169841266Y-128154141D01*
X164377837Y-133617570D01*
X164316514Y-133651055D01*
X164251842Y-133647821D01*
X164236246Y-133642754D01*
X164077239Y-133617570D01*
X164026287Y-133609500D01*
X163813713Y-133609500D01*
X163765042Y-133617208D01*
X163603760Y-133642753D01*
X163401585Y-133708444D01*
X163212179Y-133804951D01*
X163040213Y-133929890D01*
X162889890Y-134080213D01*
X162764951Y-134252179D01*
X162668444Y-134441585D01*
X162602753Y-134643760D01*
X162569500Y-134853713D01*
X162569500Y-135066286D01*
X162597504Y-135243100D01*
X162602754Y-135276243D01*
X162667613Y-135475858D01*
X162668444Y-135478414D01*
X162764951Y-135667820D01*
X162889890Y-135839786D01*
X163040213Y-135990109D01*
X163212182Y-136115050D01*
X163220946Y-136119516D01*
X163271742Y-136167491D01*
X163288536Y-136235312D01*
X163265998Y-136301447D01*
X163220946Y-136340484D01*
X163212182Y-136344949D01*
X163040213Y-136469890D01*
X162889890Y-136620213D01*
X162764951Y-136792179D01*
X162668444Y-136981585D01*
X162602753Y-137183760D01*
X162569500Y-137393713D01*
X162569500Y-137606286D01*
X162599949Y-137798537D01*
X162602754Y-137816243D01*
X162662872Y-138001267D01*
X162668444Y-138018414D01*
X162764951Y-138207820D01*
X162889890Y-138379786D01*
X163040213Y-138530109D01*
X163212179Y-138655048D01*
X163212181Y-138655049D01*
X163212184Y-138655051D01*
X163401588Y-138751557D01*
X163603757Y-138817246D01*
X163813713Y-138850500D01*
X163813714Y-138850500D01*
X164026286Y-138850500D01*
X164026287Y-138850500D01*
X164236243Y-138817246D01*
X164438412Y-138751557D01*
X164627816Y-138655051D01*
X164758184Y-138560334D01*
X164799786Y-138530109D01*
X164799788Y-138530106D01*
X164799792Y-138530104D01*
X164950104Y-138379792D01*
X164950106Y-138379788D01*
X164950109Y-138379786D01*
X165075048Y-138207820D01*
X165075047Y-138207820D01*
X165075051Y-138207816D01*
X165079514Y-138199054D01*
X165127488Y-138148259D01*
X165195308Y-138131463D01*
X165261444Y-138153999D01*
X165300486Y-138199056D01*
X165304951Y-138207820D01*
X165429890Y-138379786D01*
X165580213Y-138530109D01*
X165752179Y-138655048D01*
X165752181Y-138655049D01*
X165752184Y-138655051D01*
X165941588Y-138751557D01*
X166143757Y-138817246D01*
X166353713Y-138850500D01*
X166353714Y-138850500D01*
X166566286Y-138850500D01*
X166566287Y-138850500D01*
X166776243Y-138817246D01*
X166791840Y-138812177D01*
X166861679Y-138810183D01*
X166917838Y-138842428D01*
X167363229Y-139287819D01*
X167396714Y-139349142D01*
X167391730Y-139418834D01*
X167349858Y-139474767D01*
X167284394Y-139499184D01*
X167275548Y-139499500D01*
X161624500Y-139499500D01*
X161557461Y-139479815D01*
X161511706Y-139427011D01*
X161500500Y-139375500D01*
X161500500Y-124878711D01*
X176149500Y-124878711D01*
X176149500Y-125121288D01*
X176181161Y-125361785D01*
X176243947Y-125596104D01*
X176306535Y-125747204D01*
X176336776Y-125820212D01*
X176458064Y-126030289D01*
X176458066Y-126030292D01*
X176458067Y-126030293D01*
X176605733Y-126222736D01*
X176605739Y-126222743D01*
X176777256Y-126394260D01*
X176777262Y-126394265D01*
X176969711Y-126541936D01*
X177179788Y-126663224D01*
X177403900Y-126756054D01*
X177638211Y-126818838D01*
X177818586Y-126842584D01*
X177878711Y-126850500D01*
X177878712Y-126850500D01*
X178121289Y-126850500D01*
X178169388Y-126844167D01*
X178361789Y-126818838D01*
X178596100Y-126756054D01*
X178820212Y-126663224D01*
X179030289Y-126541936D01*
X179222738Y-126394265D01*
X179394265Y-126222738D01*
X179541936Y-126030289D01*
X179663224Y-125820212D01*
X179756054Y-125596100D01*
X179818838Y-125361789D01*
X179850500Y-125121288D01*
X179850500Y-124878712D01*
X179818838Y-124638211D01*
X179756054Y-124403900D01*
X179663224Y-124179788D01*
X179541936Y-123969711D01*
X179394265Y-123777262D01*
X179394260Y-123777256D01*
X179222743Y-123605739D01*
X179222736Y-123605733D01*
X179030293Y-123458067D01*
X179030292Y-123458066D01*
X179030289Y-123458064D01*
X178820212Y-123336776D01*
X178820205Y-123336773D01*
X178596104Y-123243947D01*
X178361785Y-123181161D01*
X178121289Y-123149500D01*
X178121288Y-123149500D01*
X177878712Y-123149500D01*
X177878711Y-123149500D01*
X177638214Y-123181161D01*
X177403895Y-123243947D01*
X177179794Y-123336773D01*
X177179785Y-123336777D01*
X176969706Y-123458067D01*
X176777263Y-123605733D01*
X176777256Y-123605739D01*
X176605739Y-123777256D01*
X176605733Y-123777263D01*
X176458067Y-123969706D01*
X176336777Y-124179785D01*
X176336773Y-124179794D01*
X176243947Y-124403895D01*
X176181161Y-124638214D01*
X176149500Y-124878711D01*
X161500500Y-124878711D01*
X161500500Y-40624500D01*
X161520185Y-40557461D01*
X161572989Y-40511706D01*
X161624500Y-40500500D01*
X240375500Y-40500500D01*
X240442539Y-40520185D01*
G37*
%TD.AperFunction*%
%TA.AperFunction,Conductor*%
G36*
X220045587Y-130554985D02*
G01*
X220066229Y-130571619D01*
X222329881Y-132835271D01*
X222363366Y-132896594D01*
X222358382Y-132966286D01*
X222316510Y-133022219D01*
X222261598Y-133045425D01*
X222183760Y-133057753D01*
X221981585Y-133123444D01*
X221792179Y-133219951D01*
X221620213Y-133344890D01*
X221469894Y-133495209D01*
X221469890Y-133495214D01*
X221350008Y-133660218D01*
X221294678Y-133702884D01*
X221225065Y-133708863D01*
X221163270Y-133676257D01*
X221149372Y-133660218D01*
X221029727Y-133495540D01*
X221029723Y-133495535D01*
X220879464Y-133345276D01*
X220879459Y-133345272D01*
X220707557Y-133220379D01*
X220518215Y-133123903D01*
X220316124Y-133058241D01*
X220250000Y-133047768D01*
X220250000Y-134095854D01*
X220183343Y-134057370D01*
X220062535Y-134025000D01*
X219937465Y-134025000D01*
X219816657Y-134057370D01*
X219750000Y-134095854D01*
X219750000Y-133047768D01*
X219749999Y-133047768D01*
X219683875Y-133058241D01*
X219481784Y-133123903D01*
X219292442Y-133220379D01*
X219120541Y-133345271D01*
X218981668Y-133484144D01*
X218920345Y-133517628D01*
X218850653Y-133512644D01*
X218794720Y-133470772D01*
X218788448Y-133461558D01*
X218753129Y-133404297D01*
X218692712Y-133306344D01*
X218568656Y-133182288D01*
X218419334Y-133090186D01*
X218252797Y-133035001D01*
X218252795Y-133035000D01*
X218150010Y-133024500D01*
X216849998Y-133024500D01*
X216849981Y-133024501D01*
X216747203Y-133035000D01*
X216747200Y-133035001D01*
X216580668Y-133090185D01*
X216580663Y-133090187D01*
X216431342Y-133182289D01*
X216307289Y-133306342D01*
X216215187Y-133455663D01*
X216215185Y-133455668D01*
X216210180Y-133470772D01*
X216160001Y-133622203D01*
X216160001Y-133622204D01*
X216160000Y-133622204D01*
X216149500Y-133724983D01*
X216149500Y-133724991D01*
X216149500Y-134480315D01*
X216149501Y-135119100D01*
X216129816Y-135186139D01*
X216077013Y-135231894D01*
X216025501Y-135243100D01*
X212124000Y-135243100D01*
X212056961Y-135223415D01*
X212011206Y-135170611D01*
X212000000Y-135119100D01*
X212000000Y-130659300D01*
X212019685Y-130592261D01*
X212072489Y-130546506D01*
X212124000Y-130535300D01*
X219978548Y-130535300D01*
X220045587Y-130554985D01*
G37*
%TD.AperFunction*%
%TA.AperFunction,Conductor*%
G36*
X171496587Y-73145185D02*
G01*
X171517229Y-73161819D01*
X208757571Y-110402161D01*
X208791056Y-110463484D01*
X208787822Y-110528158D01*
X208782753Y-110543757D01*
X208749500Y-110753713D01*
X208749500Y-110966286D01*
X208782753Y-111176240D01*
X208836671Y-111342182D01*
X208838666Y-111412023D01*
X208802586Y-111471856D01*
X208739885Y-111502684D01*
X208718740Y-111504500D01*
X186280452Y-111504500D01*
X186251011Y-111495855D01*
X186221025Y-111489332D01*
X186216009Y-111485577D01*
X186213413Y-111484815D01*
X186192771Y-111468181D01*
X186042428Y-111317838D01*
X186008943Y-111256515D01*
X186012177Y-111191841D01*
X186017246Y-111176243D01*
X186050500Y-110966287D01*
X186050500Y-110753713D01*
X186017246Y-110543757D01*
X185951557Y-110341588D01*
X185855051Y-110152184D01*
X185788767Y-110060951D01*
X185765287Y-109995145D01*
X185781112Y-109927091D01*
X185801400Y-109900389D01*
X186420558Y-109281233D01*
X186489012Y-109178785D01*
X186521121Y-109101266D01*
X186536163Y-109064952D01*
X186543550Y-109027816D01*
X186560201Y-108944106D01*
X186560201Y-108820893D01*
X186560201Y-108815783D01*
X186560200Y-108815757D01*
X186560200Y-95423594D01*
X186559582Y-95420486D01*
X186557032Y-95407669D01*
X186536163Y-95302749D01*
X186531089Y-95290500D01*
X186512954Y-95246717D01*
X186489012Y-95188914D01*
X186435964Y-95109524D01*
X186420558Y-95086467D01*
X186333433Y-94999342D01*
X186333429Y-94999339D01*
X176097806Y-84763716D01*
X176064321Y-84702393D01*
X176069305Y-84632701D01*
X176085169Y-84603150D01*
X176154620Y-84507557D01*
X176251095Y-84318217D01*
X176316757Y-84116130D01*
X176316757Y-84116127D01*
X176350000Y-83906246D01*
X176350000Y-83693753D01*
X176316757Y-83483872D01*
X176316757Y-83483869D01*
X176251095Y-83281782D01*
X176154624Y-83092449D01*
X176115270Y-83038282D01*
X176115269Y-83038282D01*
X175482962Y-83670589D01*
X175465925Y-83607007D01*
X175400099Y-83492993D01*
X175307007Y-83399901D01*
X175192993Y-83334075D01*
X175129409Y-83317037D01*
X175761716Y-82684728D01*
X175707550Y-82645375D01*
X175518217Y-82548904D01*
X175316129Y-82483242D01*
X175106246Y-82450000D01*
X174893754Y-82450000D01*
X174683872Y-82483242D01*
X174683869Y-82483242D01*
X174481782Y-82548904D01*
X174292439Y-82645380D01*
X174238282Y-82684727D01*
X174238282Y-82684728D01*
X174870591Y-83317037D01*
X174807007Y-83334075D01*
X174692993Y-83399901D01*
X174599901Y-83492993D01*
X174534075Y-83607007D01*
X174517037Y-83670591D01*
X173884728Y-83038282D01*
X173884727Y-83038282D01*
X173845380Y-83092439D01*
X173748904Y-83281782D01*
X173683242Y-83483869D01*
X173683242Y-83483872D01*
X173650000Y-83693753D01*
X173650000Y-83906246D01*
X173683242Y-84116127D01*
X173683242Y-84116130D01*
X173737196Y-84282182D01*
X173739191Y-84352023D01*
X173703111Y-84411856D01*
X173640410Y-84442684D01*
X173619265Y-84444500D01*
X172653752Y-84444500D01*
X172586713Y-84424815D01*
X172566071Y-84408181D01*
X166923966Y-78766076D01*
X166890481Y-78704753D01*
X166895465Y-78635061D01*
X166937337Y-78579128D01*
X166938714Y-78578111D01*
X167004792Y-78530104D01*
X167155104Y-78379792D01*
X167155106Y-78379788D01*
X167155109Y-78379786D01*
X167280048Y-78207820D01*
X167280047Y-78207820D01*
X167280051Y-78207816D01*
X167376557Y-78018412D01*
X167442246Y-77816243D01*
X167475500Y-77606287D01*
X167475500Y-77393713D01*
X167442246Y-77183757D01*
X167376557Y-76981588D01*
X167280051Y-76792184D01*
X167280049Y-76792181D01*
X167280048Y-76792179D01*
X167155109Y-76620213D01*
X167004792Y-76469896D01*
X166977550Y-76450104D01*
X166840204Y-76350316D01*
X166797540Y-76294989D01*
X166791561Y-76225376D01*
X166824166Y-76163580D01*
X166840199Y-76149686D01*
X167004792Y-76030104D01*
X167155104Y-75879792D01*
X167155106Y-75879788D01*
X167155109Y-75879786D01*
X167280048Y-75707820D01*
X167280047Y-75707820D01*
X167280051Y-75707816D01*
X167376557Y-75518412D01*
X167442246Y-75316243D01*
X167475500Y-75106287D01*
X167475500Y-74893713D01*
X167442246Y-74683757D01*
X167376557Y-74481588D01*
X167280051Y-74292184D01*
X167280049Y-74292181D01*
X167280048Y-74292179D01*
X167155109Y-74120213D01*
X167004792Y-73969896D01*
X166840204Y-73850316D01*
X166797540Y-73794989D01*
X166791561Y-73725376D01*
X166824166Y-73663580D01*
X166840199Y-73649686D01*
X167004792Y-73530104D01*
X167155104Y-73379792D01*
X167155106Y-73379788D01*
X167155109Y-73379786D01*
X167280049Y-73207819D01*
X167287497Y-73193203D01*
X167335473Y-73142408D01*
X167397981Y-73125500D01*
X171429548Y-73125500D01*
X171496587Y-73145185D01*
G37*
%TD.AperFunction*%
%TA.AperFunction,Conductor*%
G36*
X233669058Y-107145185D02*
G01*
X233712503Y-107193203D01*
X233719950Y-107207819D01*
X233844890Y-107379786D01*
X233995209Y-107530105D01*
X233995214Y-107530109D01*
X234160218Y-107649991D01*
X234202884Y-107705320D01*
X234208863Y-107774934D01*
X234176258Y-107836729D01*
X234160218Y-107850627D01*
X233995540Y-107970272D01*
X233995535Y-107970276D01*
X233845276Y-108120535D01*
X233845272Y-108120540D01*
X233720379Y-108292442D01*
X233623904Y-108481782D01*
X233558242Y-108683870D01*
X233558242Y-108683873D01*
X233547769Y-108750000D01*
X234595854Y-108750000D01*
X234557370Y-108816657D01*
X234525000Y-108937465D01*
X234525000Y-109062535D01*
X234557370Y-109183343D01*
X234595854Y-109250000D01*
X233547769Y-109250000D01*
X233558242Y-109316126D01*
X233558242Y-109316129D01*
X233623904Y-109518217D01*
X233720379Y-109707557D01*
X233845272Y-109879459D01*
X233845276Y-109879464D01*
X233984143Y-110018331D01*
X233995287Y-110038739D01*
X234010190Y-110056596D01*
X234011718Y-110068832D01*
X234017628Y-110079654D01*
X234015969Y-110102851D01*
X234018852Y-110125926D01*
X234013523Y-110137044D01*
X234012644Y-110149346D01*
X233998706Y-110167964D01*
X233988657Y-110188934D01*
X233973600Y-110201500D01*
X233970772Y-110205279D01*
X233961560Y-110211550D01*
X233929966Y-110231038D01*
X233864868Y-110249500D01*
X226090045Y-110249500D01*
X226023006Y-110229815D01*
X225977251Y-110177011D01*
X225967307Y-110107853D01*
X225979560Y-110069205D01*
X225995084Y-110038739D01*
X226015220Y-109999219D01*
X226078477Y-109804534D01*
X226110500Y-109602352D01*
X226110500Y-109397648D01*
X226102970Y-109350104D01*
X226077715Y-109190654D01*
X226079777Y-109190327D01*
X226082784Y-109129304D01*
X226112215Y-109082373D01*
X228032772Y-107161819D01*
X228094095Y-107128334D01*
X228120453Y-107125500D01*
X233602019Y-107125500D01*
X233669058Y-107145185D01*
G37*
%TD.AperFunction*%
%TA.AperFunction,Conductor*%
G36*
X173454903Y-46270185D02*
G01*
X173475545Y-46286819D01*
X175570781Y-48382055D01*
X175604266Y-48443378D01*
X175607100Y-48469736D01*
X175607100Y-53573063D01*
X175587415Y-53640102D01*
X175570781Y-53660744D01*
X165618344Y-63613181D01*
X165591416Y-63627884D01*
X165565598Y-63644477D01*
X165559397Y-63645368D01*
X165557021Y-63646666D01*
X165530663Y-63649500D01*
X165392300Y-63649500D01*
X165325261Y-63629815D01*
X165279506Y-63577011D01*
X165268300Y-63525500D01*
X165268300Y-58893541D01*
X165287985Y-58826502D01*
X165340789Y-58780747D01*
X165409947Y-58770803D01*
X165430605Y-58775606D01*
X165558757Y-58817246D01*
X165768713Y-58850500D01*
X165768714Y-58850500D01*
X166231286Y-58850500D01*
X166231287Y-58850500D01*
X166441243Y-58817246D01*
X166643412Y-58751557D01*
X166832816Y-58655051D01*
X166873461Y-58625521D01*
X167004786Y-58530109D01*
X167004788Y-58530106D01*
X167004792Y-58530104D01*
X167041672Y-58493224D01*
X167102995Y-58459739D01*
X167172687Y-58464723D01*
X167217034Y-58493224D01*
X167787305Y-59063495D01*
X167820790Y-59124818D01*
X167821241Y-59126985D01*
X167843361Y-59238189D01*
X167843364Y-59238201D01*
X167903702Y-59383872D01*
X167903709Y-59383885D01*
X167991310Y-59514988D01*
X167991313Y-59514992D01*
X168102807Y-59626486D01*
X168102811Y-59626489D01*
X168233914Y-59714090D01*
X168233927Y-59714097D01*
X168320606Y-59750000D01*
X168379603Y-59774437D01*
X168534253Y-59805199D01*
X168534256Y-59805200D01*
X168534258Y-59805200D01*
X168691944Y-59805200D01*
X168691945Y-59805199D01*
X168846597Y-59774437D01*
X168992279Y-59714094D01*
X169123389Y-59626489D01*
X169234889Y-59514989D01*
X169322494Y-59383879D01*
X169382837Y-59238197D01*
X169413600Y-59083542D01*
X169413600Y-58925858D01*
X169413600Y-58925854D01*
X169413599Y-58925853D01*
X169402250Y-58868797D01*
X169382837Y-58771203D01*
X169382671Y-58770803D01*
X169322497Y-58625527D01*
X169322490Y-58625514D01*
X169234889Y-58494411D01*
X169234886Y-58494407D01*
X169123392Y-58382913D01*
X169123388Y-58382910D01*
X168992285Y-58295309D01*
X168992272Y-58295302D01*
X168846601Y-58234964D01*
X168846589Y-58234961D01*
X168735385Y-58212841D01*
X168673474Y-58180456D01*
X168671895Y-58178905D01*
X168013519Y-57520529D01*
X167980034Y-57459206D01*
X167978441Y-57444391D01*
X167977797Y-57444455D01*
X167977200Y-57438399D01*
X167977200Y-57438394D01*
X167953163Y-57317548D01*
X167906011Y-57203714D01*
X167906010Y-57203713D01*
X167906007Y-57203707D01*
X167837558Y-57101267D01*
X167837555Y-57101263D01*
X167750436Y-57014144D01*
X167750432Y-57014141D01*
X167647992Y-56945692D01*
X167647983Y-56945687D01*
X167534154Y-56898538D01*
X167534155Y-56898538D01*
X167534152Y-56898537D01*
X167534148Y-56898536D01*
X167534144Y-56898535D01*
X167413310Y-56874500D01*
X167413306Y-56874500D01*
X167397981Y-56874500D01*
X167330942Y-56854815D01*
X167287497Y-56806797D01*
X167280049Y-56792180D01*
X167155109Y-56620213D01*
X167004792Y-56469896D01*
X166997694Y-56464739D01*
X166840204Y-56350316D01*
X166797540Y-56294989D01*
X166791561Y-56225376D01*
X166824166Y-56163580D01*
X166840199Y-56149686D01*
X167004792Y-56030104D01*
X167155104Y-55879792D01*
X167155106Y-55879788D01*
X167155109Y-55879786D01*
X167280048Y-55707820D01*
X167280049Y-55707819D01*
X167280051Y-55707816D01*
X167376557Y-55518412D01*
X167442246Y-55316243D01*
X167475500Y-55106287D01*
X167475500Y-54893713D01*
X167442246Y-54683757D01*
X167376557Y-54481588D01*
X167280051Y-54292184D01*
X167280049Y-54292181D01*
X167280048Y-54292179D01*
X167155109Y-54120213D01*
X167004792Y-53969896D01*
X166935741Y-53919728D01*
X166840204Y-53850316D01*
X166797540Y-53794989D01*
X166791561Y-53725376D01*
X166824166Y-53663580D01*
X166840199Y-53649686D01*
X167004792Y-53530104D01*
X167155104Y-53379792D01*
X167155106Y-53379788D01*
X167155109Y-53379786D01*
X167280048Y-53207820D01*
X167280049Y-53207819D01*
X167280051Y-53207816D01*
X167376557Y-53018412D01*
X167442246Y-52816243D01*
X167475500Y-52606287D01*
X167475500Y-52393713D01*
X167442246Y-52183757D01*
X167376557Y-51981588D01*
X167280051Y-51792184D01*
X167280049Y-51792181D01*
X167280048Y-51792179D01*
X167155109Y-51620213D01*
X167004790Y-51469894D01*
X167004785Y-51469890D01*
X166839781Y-51350008D01*
X166797115Y-51294678D01*
X166791136Y-51225065D01*
X166823741Y-51163270D01*
X166839781Y-51149371D01*
X167004466Y-51029721D01*
X167154723Y-50879464D01*
X167154727Y-50879459D01*
X167279620Y-50707557D01*
X167376095Y-50518217D01*
X167441757Y-50316129D01*
X167441757Y-50316126D01*
X167452231Y-50250000D01*
X166404146Y-50250000D01*
X166442630Y-50183343D01*
X166475000Y-50062535D01*
X166475000Y-49937465D01*
X166442630Y-49816657D01*
X166404146Y-49750000D01*
X167452231Y-49750000D01*
X167441757Y-49683873D01*
X167441757Y-49683870D01*
X167376095Y-49481782D01*
X167279620Y-49292442D01*
X167154727Y-49120540D01*
X167154723Y-49120535D01*
X167004460Y-48970272D01*
X166839355Y-48850318D01*
X166796689Y-48794989D01*
X166790710Y-48725375D01*
X166823315Y-48663580D01*
X166839355Y-48649682D01*
X167004460Y-48529727D01*
X167154723Y-48379464D01*
X167154727Y-48379459D01*
X167279620Y-48207557D01*
X167376095Y-48018217D01*
X167441757Y-47816129D01*
X167441757Y-47816126D01*
X167452231Y-47750000D01*
X166404146Y-47750000D01*
X166442630Y-47683343D01*
X166475000Y-47562535D01*
X166475000Y-47437465D01*
X166442630Y-47316657D01*
X166404146Y-47250000D01*
X167452231Y-47250000D01*
X167441757Y-47183873D01*
X167441757Y-47183870D01*
X167376095Y-46981782D01*
X167279620Y-46792442D01*
X167154727Y-46620540D01*
X167154723Y-46620535D01*
X167015856Y-46481668D01*
X167004710Y-46461256D01*
X166989807Y-46443399D01*
X166988278Y-46431164D01*
X166982371Y-46420345D01*
X166984029Y-46397148D01*
X166981147Y-46374068D01*
X166986475Y-46362950D01*
X166987355Y-46350653D01*
X167001292Y-46332035D01*
X167011345Y-46311061D01*
X167026398Y-46298498D01*
X167029227Y-46294720D01*
X167038443Y-46288447D01*
X167044332Y-46284814D01*
X167044334Y-46284814D01*
X167059098Y-46275707D01*
X167070038Y-46268960D01*
X167135132Y-46250500D01*
X173387864Y-46250500D01*
X173454903Y-46270185D01*
G37*
%TD.AperFunction*%
%TA.AperFunction,Conductor*%
G36*
X166250000Y-49595854D02*
G01*
X166183343Y-49557370D01*
X166062535Y-49525000D01*
X165937465Y-49525000D01*
X165816657Y-49557370D01*
X165750000Y-49595854D01*
X165750000Y-47904145D01*
X165816657Y-47942630D01*
X165937465Y-47975000D01*
X166062535Y-47975000D01*
X166183343Y-47942630D01*
X166250000Y-47904145D01*
X166250000Y-49595854D01*
G37*
%TD.AperFunction*%
%TD*%
M02*
