M48
; DRILL file KiCad 10.0.3-10.0.3~ubuntu24.04.1 date 2026-06-19T10:22:33
; FORMAT={-:-/ absolute / metric / decimal}
; #@! TF.CreationDate,2026-06-19T10:22:33+02:00
; #@! TF.GenerationSoftware,Kicad,Pcbnew,10.0.3-10.0.3~ubuntu24.04.1
; #@! TF.FileFunction,Plated,1,2,PTH
FMAT,2
METRIC
; #@! TA.AperFunction,Plated,PTH,ViaDrill
T1C0.300
; #@! TA.AperFunction,Plated,PTH,ComponentDrill
T2C0.800
; #@! TA.AperFunction,Plated,PTH,ComponentDrill
T3C0.950
; #@! TA.AperFunction,Plated,PTH,ComponentDrill
T4C1.000
; #@! TA.AperFunction,Plated,PTH,ComponentDrill
T5C1.200
%
G90
G05
T1
X162.0Y-82.5
X162.0Y-94.0
X162.0Y-99.5
X162.0Y-104.0
X162.0Y-115.5
X162.0Y-129.0
X162.5Y-61.0
X162.5Y-125.5
X162.9Y-132.9
X163.0Y-41.0
X163.0Y-91.5
X164.0Y-54.0
X165.0Y-125.0
X165.3Y-139.0
X166.0Y-129.0
X166.5Y-59.5
X166.5Y-61.0
X166.5Y-81.5
X168.276Y-117.179
X168.5Y-128.0
X168.613Y-59.005
X169.5Y-70.5
X169.5Y-80.0
X169.6Y-69.1
X171.0Y-108.5
X172.0Y-91.0
X172.0Y-100.0
X172.5Y-62.5
X172.5Y-86.5
X173.0Y-76.0
X174.0Y-42.0
X174.5Y-52.0
X174.5Y-69.5
X175.5Y-79.5
X176.433Y-93.502
X178.234Y-108.17
X179.3Y-127.6
X180.0Y-70.5
X181.0Y-64.0
X181.0Y-84.5
X181.158Y-117.997
X181.5Y-88.0
X182.0Y-75.5
X182.5Y-43.0
X182.5Y-51.0
X182.625Y-98.368
X187.5Y-96.5
X188.0Y-60.0
X188.0Y-91.0
X188.0Y-92.5
X188.307Y-115.85
X188.5Y-82.0
X190.0Y-43.5
X190.5Y-66.5
X196.0Y-75.0
X198.5Y-73.5
X201.0Y-139.0
X202.0Y-105.0
X202.5Y-110.5
X205.5Y-97.0
X207.0Y-82.0
X207.5Y-110.5
X208.5Y-68.5
X208.669Y-130.615
X210.0Y-44.0
X210.0Y-59.5
X211.5Y-87.5
X212.882Y-136.573
X214.0Y-127.5
X214.0Y-138.0
X215.0Y-110.0
X215.0Y-112.5
X215.0Y-116.5
X215.0Y-131.0
X218.0Y-61.0
X219.0Y-82.5
X220.0Y-69.0
X220.5Y-119.5
X220.5Y-131.5
X224.5Y-96.5
X225.0Y-104.5
X226.0Y-83.0
X227.0Y-116.5
X228.0Y-60.5
X228.5Y-45.0
X230.0Y-70.0
X232.0Y-137.0
X233.5Y-107.7
X234.0Y-102.5
X236.7Y-107.7
X236.9Y-110.2
X237.5Y-66.5
X237.5Y-89.5
X238.0Y-42.5
X238.0Y-132.0
X239.5Y-115.5
X239.5Y-129.5
X240.0Y-103.5
T2
X189.075Y-128.025
X189.075Y-132.075
X196.695Y-128.025
X196.695Y-132.075
X217.19Y-109.5
X224.81Y-109.5
T3
X166.0Y-45.0
X166.0Y-47.5
X166.0Y-50.0
X166.0Y-52.5
X166.0Y-55.0
X166.0Y-57.5
X166.0Y-65.0
X166.0Y-67.5
X166.0Y-70.0
X166.0Y-72.5
X166.0Y-75.0
X166.0Y-77.5
X217.5Y-134.5
X220.0Y-134.5
X222.5Y-134.5
X225.0Y-134.5
X235.0Y-106.5
X235.0Y-109.0
X235.0Y-111.5
X235.0Y-119.0
X235.0Y-121.5
X235.0Y-124.0
X235.0Y-126.5
X235.5Y-50.0
X235.5Y-52.5
X235.5Y-55.0
X235.5Y-57.5
X235.5Y-60.0
X235.5Y-73.0
X235.5Y-75.5
X235.5Y-78.0
X235.5Y-80.5
X235.5Y-83.0
T4
X163.92Y-134.96
X163.92Y-137.5
X164.5Y-107.8
X164.5Y-110.34
X164.5Y-112.88
X164.5Y-115.42
X164.5Y-117.96
X164.5Y-120.5
X166.46Y-134.96
X166.46Y-137.5
X169.0Y-134.96
X169.0Y-137.5
X171.54Y-134.96
X171.54Y-137.5
X174.08Y-134.96
X174.08Y-137.5
X175.0Y-83.8
X175.0Y-86.34
X175.0Y-88.88
X175.0Y-91.42
X175.0Y-93.96
X175.0Y-96.5
X176.62Y-134.96
X176.62Y-137.5
X184.7Y-100.7
X184.7Y-103.24
X184.7Y-105.78
X184.7Y-108.32
X184.7Y-110.86
X184.7Y-113.4
X184.7Y-115.94
X184.7Y-118.48
X184.7Y-121.02
X184.7Y-123.56
X184.7Y-126.1
X184.7Y-128.64
X184.7Y-131.18
X184.7Y-133.72
X184.7Y-136.26
X187.625Y-47.415
X187.625Y-49.955
X187.625Y-52.495
X187.625Y-55.035
X188.1Y-70.34
X188.1Y-72.88
X188.1Y-75.42
X188.1Y-77.96
X210.1Y-100.7
X210.1Y-103.24
X210.1Y-105.78
X210.1Y-108.32
X210.1Y-110.86
X210.1Y-113.4
X210.1Y-115.94
X210.1Y-118.48
X210.1Y-121.02
X210.1Y-123.56
X210.1Y-126.1
X210.1Y-128.64
X210.1Y-131.18
X210.1Y-133.72
X210.1Y-136.26
X213.025Y-44.875
X213.025Y-47.415
X213.025Y-49.955
X213.025Y-52.495
X213.025Y-55.035
X213.025Y-57.575
X213.5Y-67.8
X213.5Y-70.34
X213.5Y-72.88
X213.5Y-75.42
X213.5Y-77.96
X213.5Y-80.5
X220.46Y-114.5
X223.0Y-114.5
X228.0Y-91.5
X228.0Y-94.04
X228.0Y-96.58
X228.0Y-99.12
T5
X166.5Y-85.96
X166.5Y-88.5
X166.5Y-96.0
X166.5Y-98.54
M30
