%TF.GenerationSoftware,KiCad,Pcbnew,10.0.4-10.0.4~ubuntu24.04.1*%
%TF.CreationDate,2026-07-09T08:47:27+02:00*%
%TF.ProjectId,_v0_2_NAU7802_breakout_board,5f76305f-325f-44e4-9155-373830325f62,rev?*%
%TF.SameCoordinates,Original*%
%TF.FileFunction,Legend,Top*%
%TF.FilePolarity,Positive*%
%FSLAX46Y46*%
G04 Gerber Fmt 4.6, Leading zero omitted, Abs format (unit mm)*
G04 Created by KiCad (PCBNEW 10.0.4-10.0.4~ubuntu24.04.1) date 2026-07-09 08:47:27*
%MOMM*%
%LPD*%
G01*
G04 APERTURE LIST*
%ADD10C,0.100000*%
%ADD11C,0.150000*%
%ADD12C,0.120000*%
%ADD13C,0.127000*%
%ADD14C,0.200000*%
G04 APERTURE END LIST*
D10*
X155827693Y-29920038D02*
X155732455Y-29872419D01*
X155732455Y-29872419D02*
X155589598Y-29872419D01*
X155589598Y-29872419D02*
X155446741Y-29920038D01*
X155446741Y-29920038D02*
X155351503Y-30015276D01*
X155351503Y-30015276D02*
X155303884Y-30110514D01*
X155303884Y-30110514D02*
X155256265Y-30300990D01*
X155256265Y-30300990D02*
X155256265Y-30443847D01*
X155256265Y-30443847D02*
X155303884Y-30634323D01*
X155303884Y-30634323D02*
X155351503Y-30729561D01*
X155351503Y-30729561D02*
X155446741Y-30824800D01*
X155446741Y-30824800D02*
X155589598Y-30872419D01*
X155589598Y-30872419D02*
X155684836Y-30872419D01*
X155684836Y-30872419D02*
X155827693Y-30824800D01*
X155827693Y-30824800D02*
X155875312Y-30777180D01*
X155875312Y-30777180D02*
X155875312Y-30443847D01*
X155875312Y-30443847D02*
X155684836Y-30443847D01*
X156303884Y-30872419D02*
X156303884Y-29872419D01*
X156303884Y-29872419D02*
X156875312Y-30872419D01*
X156875312Y-30872419D02*
X156875312Y-29872419D01*
X157351503Y-30872419D02*
X157351503Y-29872419D01*
X157351503Y-29872419D02*
X157589598Y-29872419D01*
X157589598Y-29872419D02*
X157732455Y-29920038D01*
X157732455Y-29920038D02*
X157827693Y-30015276D01*
X157827693Y-30015276D02*
X157875312Y-30110514D01*
X157875312Y-30110514D02*
X157922931Y-30300990D01*
X157922931Y-30300990D02*
X157922931Y-30443847D01*
X157922931Y-30443847D02*
X157875312Y-30634323D01*
X157875312Y-30634323D02*
X157827693Y-30729561D01*
X157827693Y-30729561D02*
X157732455Y-30824800D01*
X157732455Y-30824800D02*
X157589598Y-30872419D01*
X157589598Y-30872419D02*
X157351503Y-30872419D01*
X155208646Y-32705752D02*
X155446741Y-33372419D01*
X155446741Y-33372419D02*
X155684836Y-32705752D01*
X156399122Y-32848609D02*
X156541979Y-32896228D01*
X156541979Y-32896228D02*
X156589598Y-32943847D01*
X156589598Y-32943847D02*
X156637217Y-33039085D01*
X156637217Y-33039085D02*
X156637217Y-33181942D01*
X156637217Y-33181942D02*
X156589598Y-33277180D01*
X156589598Y-33277180D02*
X156541979Y-33324800D01*
X156541979Y-33324800D02*
X156446741Y-33372419D01*
X156446741Y-33372419D02*
X156065789Y-33372419D01*
X156065789Y-33372419D02*
X156065789Y-32372419D01*
X156065789Y-32372419D02*
X156399122Y-32372419D01*
X156399122Y-32372419D02*
X156494360Y-32420038D01*
X156494360Y-32420038D02*
X156541979Y-32467657D01*
X156541979Y-32467657D02*
X156589598Y-32562895D01*
X156589598Y-32562895D02*
X156589598Y-32658133D01*
X156589598Y-32658133D02*
X156541979Y-32753371D01*
X156541979Y-32753371D02*
X156494360Y-32800990D01*
X156494360Y-32800990D02*
X156399122Y-32848609D01*
X156399122Y-32848609D02*
X156065789Y-32848609D01*
X157494360Y-33372419D02*
X157494360Y-32848609D01*
X157494360Y-32848609D02*
X157446741Y-32753371D01*
X157446741Y-32753371D02*
X157351503Y-32705752D01*
X157351503Y-32705752D02*
X157161027Y-32705752D01*
X157161027Y-32705752D02*
X157065789Y-32753371D01*
X157494360Y-33324800D02*
X157399122Y-33372419D01*
X157399122Y-33372419D02*
X157161027Y-33372419D01*
X157161027Y-33372419D02*
X157065789Y-33324800D01*
X157065789Y-33324800D02*
X157018170Y-33229561D01*
X157018170Y-33229561D02*
X157018170Y-33134323D01*
X157018170Y-33134323D02*
X157065789Y-33039085D01*
X157065789Y-33039085D02*
X157161027Y-32991466D01*
X157161027Y-32991466D02*
X157399122Y-32991466D01*
X157399122Y-32991466D02*
X157494360Y-32943847D01*
X157827694Y-32705752D02*
X158208646Y-32705752D01*
X157970551Y-32372419D02*
X157970551Y-33229561D01*
X157970551Y-33229561D02*
X158018170Y-33324800D01*
X158018170Y-33324800D02*
X158113408Y-33372419D01*
X158113408Y-33372419D02*
X158208646Y-33372419D01*
X157756265Y-73574800D02*
X157899122Y-73622419D01*
X157899122Y-73622419D02*
X158137217Y-73622419D01*
X158137217Y-73622419D02*
X158232455Y-73574800D01*
X158232455Y-73574800D02*
X158280074Y-73527180D01*
X158280074Y-73527180D02*
X158327693Y-73431942D01*
X158327693Y-73431942D02*
X158327693Y-73336704D01*
X158327693Y-73336704D02*
X158280074Y-73241466D01*
X158280074Y-73241466D02*
X158232455Y-73193847D01*
X158232455Y-73193847D02*
X158137217Y-73146228D01*
X158137217Y-73146228D02*
X157946741Y-73098609D01*
X157946741Y-73098609D02*
X157851503Y-73050990D01*
X157851503Y-73050990D02*
X157803884Y-73003371D01*
X157803884Y-73003371D02*
X157756265Y-72908133D01*
X157756265Y-72908133D02*
X157756265Y-72812895D01*
X157756265Y-72812895D02*
X157803884Y-72717657D01*
X157803884Y-72717657D02*
X157851503Y-72670038D01*
X157851503Y-72670038D02*
X157946741Y-72622419D01*
X157946741Y-72622419D02*
X158184836Y-72622419D01*
X158184836Y-72622419D02*
X158327693Y-72670038D01*
X158756265Y-73622419D02*
X158756265Y-72622419D01*
X158756265Y-72622419D02*
X158994360Y-72622419D01*
X158994360Y-72622419D02*
X159137217Y-72670038D01*
X159137217Y-72670038D02*
X159232455Y-72765276D01*
X159232455Y-72765276D02*
X159280074Y-72860514D01*
X159280074Y-72860514D02*
X159327693Y-73050990D01*
X159327693Y-73050990D02*
X159327693Y-73193847D01*
X159327693Y-73193847D02*
X159280074Y-73384323D01*
X159280074Y-73384323D02*
X159232455Y-73479561D01*
X159232455Y-73479561D02*
X159137217Y-73574800D01*
X159137217Y-73574800D02*
X158994360Y-73622419D01*
X158994360Y-73622419D02*
X158756265Y-73622419D01*
X159708646Y-73336704D02*
X160184836Y-73336704D01*
X159613408Y-73622419D02*
X159946741Y-72622419D01*
X159946741Y-72622419D02*
X160280074Y-73622419D01*
X158006265Y-76074800D02*
X158149122Y-76122419D01*
X158149122Y-76122419D02*
X158387217Y-76122419D01*
X158387217Y-76122419D02*
X158482455Y-76074800D01*
X158482455Y-76074800D02*
X158530074Y-76027180D01*
X158530074Y-76027180D02*
X158577693Y-75931942D01*
X158577693Y-75931942D02*
X158577693Y-75836704D01*
X158577693Y-75836704D02*
X158530074Y-75741466D01*
X158530074Y-75741466D02*
X158482455Y-75693847D01*
X158482455Y-75693847D02*
X158387217Y-75646228D01*
X158387217Y-75646228D02*
X158196741Y-75598609D01*
X158196741Y-75598609D02*
X158101503Y-75550990D01*
X158101503Y-75550990D02*
X158053884Y-75503371D01*
X158053884Y-75503371D02*
X158006265Y-75408133D01*
X158006265Y-75408133D02*
X158006265Y-75312895D01*
X158006265Y-75312895D02*
X158053884Y-75217657D01*
X158053884Y-75217657D02*
X158101503Y-75170038D01*
X158101503Y-75170038D02*
X158196741Y-75122419D01*
X158196741Y-75122419D02*
X158434836Y-75122419D01*
X158434836Y-75122419D02*
X158577693Y-75170038D01*
X159577693Y-76027180D02*
X159530074Y-76074800D01*
X159530074Y-76074800D02*
X159387217Y-76122419D01*
X159387217Y-76122419D02*
X159291979Y-76122419D01*
X159291979Y-76122419D02*
X159149122Y-76074800D01*
X159149122Y-76074800D02*
X159053884Y-75979561D01*
X159053884Y-75979561D02*
X159006265Y-75884323D01*
X159006265Y-75884323D02*
X158958646Y-75693847D01*
X158958646Y-75693847D02*
X158958646Y-75550990D01*
X158958646Y-75550990D02*
X159006265Y-75360514D01*
X159006265Y-75360514D02*
X159053884Y-75265276D01*
X159053884Y-75265276D02*
X159149122Y-75170038D01*
X159149122Y-75170038D02*
X159291979Y-75122419D01*
X159291979Y-75122419D02*
X159387217Y-75122419D01*
X159387217Y-75122419D02*
X159530074Y-75170038D01*
X159530074Y-75170038D02*
X159577693Y-75217657D01*
X160482455Y-76122419D02*
X160006265Y-76122419D01*
X160006265Y-76122419D02*
X160006265Y-75122419D01*
X158458646Y-67622419D02*
X159077693Y-67622419D01*
X159077693Y-67622419D02*
X158744360Y-68003371D01*
X158744360Y-68003371D02*
X158887217Y-68003371D01*
X158887217Y-68003371D02*
X158982455Y-68050990D01*
X158982455Y-68050990D02*
X159030074Y-68098609D01*
X159030074Y-68098609D02*
X159077693Y-68193847D01*
X159077693Y-68193847D02*
X159077693Y-68431942D01*
X159077693Y-68431942D02*
X159030074Y-68527180D01*
X159030074Y-68527180D02*
X158982455Y-68574800D01*
X158982455Y-68574800D02*
X158887217Y-68622419D01*
X158887217Y-68622419D02*
X158601503Y-68622419D01*
X158601503Y-68622419D02*
X158506265Y-68574800D01*
X158506265Y-68574800D02*
X158458646Y-68527180D01*
X159506265Y-68527180D02*
X159553884Y-68574800D01*
X159553884Y-68574800D02*
X159506265Y-68622419D01*
X159506265Y-68622419D02*
X159458646Y-68574800D01*
X159458646Y-68574800D02*
X159506265Y-68527180D01*
X159506265Y-68527180D02*
X159506265Y-68622419D01*
X159887217Y-67622419D02*
X160506264Y-67622419D01*
X160506264Y-67622419D02*
X160172931Y-68003371D01*
X160172931Y-68003371D02*
X160315788Y-68003371D01*
X160315788Y-68003371D02*
X160411026Y-68050990D01*
X160411026Y-68050990D02*
X160458645Y-68098609D01*
X160458645Y-68098609D02*
X160506264Y-68193847D01*
X160506264Y-68193847D02*
X160506264Y-68431942D01*
X160506264Y-68431942D02*
X160458645Y-68527180D01*
X160458645Y-68527180D02*
X160411026Y-68574800D01*
X160411026Y-68574800D02*
X160315788Y-68622419D01*
X160315788Y-68622419D02*
X160030074Y-68622419D01*
X160030074Y-68622419D02*
X159934836Y-68574800D01*
X159934836Y-68574800D02*
X159887217Y-68527180D01*
X160791979Y-67622419D02*
X161125312Y-68622419D01*
X161125312Y-68622419D02*
X161458645Y-67622419D01*
X166577693Y-73920038D02*
X166482455Y-73872419D01*
X166482455Y-73872419D02*
X166339598Y-73872419D01*
X166339598Y-73872419D02*
X166196741Y-73920038D01*
X166196741Y-73920038D02*
X166101503Y-74015276D01*
X166101503Y-74015276D02*
X166053884Y-74110514D01*
X166053884Y-74110514D02*
X166006265Y-74300990D01*
X166006265Y-74300990D02*
X166006265Y-74443847D01*
X166006265Y-74443847D02*
X166053884Y-74634323D01*
X166053884Y-74634323D02*
X166101503Y-74729561D01*
X166101503Y-74729561D02*
X166196741Y-74824800D01*
X166196741Y-74824800D02*
X166339598Y-74872419D01*
X166339598Y-74872419D02*
X166434836Y-74872419D01*
X166434836Y-74872419D02*
X166577693Y-74824800D01*
X166577693Y-74824800D02*
X166625312Y-74777180D01*
X166625312Y-74777180D02*
X166625312Y-74443847D01*
X166625312Y-74443847D02*
X166434836Y-74443847D01*
X167053884Y-74872419D02*
X167053884Y-73872419D01*
X167053884Y-73872419D02*
X167625312Y-74872419D01*
X167625312Y-74872419D02*
X167625312Y-73872419D01*
X168101503Y-74872419D02*
X168101503Y-73872419D01*
X168101503Y-73872419D02*
X168339598Y-73872419D01*
X168339598Y-73872419D02*
X168482455Y-73920038D01*
X168482455Y-73920038D02*
X168577693Y-74015276D01*
X168577693Y-74015276D02*
X168625312Y-74110514D01*
X168625312Y-74110514D02*
X168672931Y-74300990D01*
X168672931Y-74300990D02*
X168672931Y-74443847D01*
X168672931Y-74443847D02*
X168625312Y-74634323D01*
X168625312Y-74634323D02*
X168577693Y-74729561D01*
X168577693Y-74729561D02*
X168482455Y-74824800D01*
X168482455Y-74824800D02*
X168339598Y-74872419D01*
X168339598Y-74872419D02*
X168101503Y-74872419D01*
X167006265Y-96824800D02*
X167149122Y-96872419D01*
X167149122Y-96872419D02*
X167387217Y-96872419D01*
X167387217Y-96872419D02*
X167482455Y-96824800D01*
X167482455Y-96824800D02*
X167530074Y-96777180D01*
X167530074Y-96777180D02*
X167577693Y-96681942D01*
X167577693Y-96681942D02*
X167577693Y-96586704D01*
X167577693Y-96586704D02*
X167530074Y-96491466D01*
X167530074Y-96491466D02*
X167482455Y-96443847D01*
X167482455Y-96443847D02*
X167387217Y-96396228D01*
X167387217Y-96396228D02*
X167196741Y-96348609D01*
X167196741Y-96348609D02*
X167101503Y-96300990D01*
X167101503Y-96300990D02*
X167053884Y-96253371D01*
X167053884Y-96253371D02*
X167006265Y-96158133D01*
X167006265Y-96158133D02*
X167006265Y-96062895D01*
X167006265Y-96062895D02*
X167053884Y-95967657D01*
X167053884Y-95967657D02*
X167101503Y-95920038D01*
X167101503Y-95920038D02*
X167196741Y-95872419D01*
X167196741Y-95872419D02*
X167434836Y-95872419D01*
X167434836Y-95872419D02*
X167577693Y-95920038D01*
X168006265Y-96872419D02*
X168006265Y-95872419D01*
X168006265Y-95872419D02*
X168244360Y-95872419D01*
X168244360Y-95872419D02*
X168387217Y-95920038D01*
X168387217Y-95920038D02*
X168482455Y-96015276D01*
X168482455Y-96015276D02*
X168530074Y-96110514D01*
X168530074Y-96110514D02*
X168577693Y-96300990D01*
X168577693Y-96300990D02*
X168577693Y-96443847D01*
X168577693Y-96443847D02*
X168530074Y-96634323D01*
X168530074Y-96634323D02*
X168482455Y-96729561D01*
X168482455Y-96729561D02*
X168387217Y-96824800D01*
X168387217Y-96824800D02*
X168244360Y-96872419D01*
X168244360Y-96872419D02*
X168006265Y-96872419D01*
X168958646Y-95967657D02*
X169006265Y-95920038D01*
X169006265Y-95920038D02*
X169101503Y-95872419D01*
X169101503Y-95872419D02*
X169339598Y-95872419D01*
X169339598Y-95872419D02*
X169434836Y-95920038D01*
X169434836Y-95920038D02*
X169482455Y-95967657D01*
X169482455Y-95967657D02*
X169530074Y-96062895D01*
X169530074Y-96062895D02*
X169530074Y-96158133D01*
X169530074Y-96158133D02*
X169482455Y-96300990D01*
X169482455Y-96300990D02*
X168911027Y-96872419D01*
X168911027Y-96872419D02*
X169530074Y-96872419D01*
X132170038Y-24422306D02*
X132122419Y-24517544D01*
X132122419Y-24517544D02*
X132122419Y-24660401D01*
X132122419Y-24660401D02*
X132170038Y-24803258D01*
X132170038Y-24803258D02*
X132265276Y-24898496D01*
X132265276Y-24898496D02*
X132360514Y-24946115D01*
X132360514Y-24946115D02*
X132550990Y-24993734D01*
X132550990Y-24993734D02*
X132693847Y-24993734D01*
X132693847Y-24993734D02*
X132884323Y-24946115D01*
X132884323Y-24946115D02*
X132979561Y-24898496D01*
X132979561Y-24898496D02*
X133074800Y-24803258D01*
X133074800Y-24803258D02*
X133122419Y-24660401D01*
X133122419Y-24660401D02*
X133122419Y-24565163D01*
X133122419Y-24565163D02*
X133074800Y-24422306D01*
X133074800Y-24422306D02*
X133027180Y-24374687D01*
X133027180Y-24374687D02*
X132693847Y-24374687D01*
X132693847Y-24374687D02*
X132693847Y-24565163D01*
X133122419Y-23946115D02*
X132122419Y-23946115D01*
X132122419Y-23946115D02*
X133122419Y-23374687D01*
X133122419Y-23374687D02*
X132122419Y-23374687D01*
X133122419Y-22898496D02*
X132122419Y-22898496D01*
X132122419Y-22898496D02*
X132122419Y-22660401D01*
X132122419Y-22660401D02*
X132170038Y-22517544D01*
X132170038Y-22517544D02*
X132265276Y-22422306D01*
X132265276Y-22422306D02*
X132360514Y-22374687D01*
X132360514Y-22374687D02*
X132550990Y-22327068D01*
X132550990Y-22327068D02*
X132693847Y-22327068D01*
X132693847Y-22327068D02*
X132884323Y-22374687D01*
X132884323Y-22374687D02*
X132979561Y-22422306D01*
X132979561Y-22422306D02*
X133074800Y-22517544D01*
X133074800Y-22517544D02*
X133122419Y-22660401D01*
X133122419Y-22660401D02*
X133122419Y-22898496D01*
X132222419Y-31841353D02*
X132222419Y-31222306D01*
X132222419Y-31222306D02*
X132603371Y-31555639D01*
X132603371Y-31555639D02*
X132603371Y-31412782D01*
X132603371Y-31412782D02*
X132650990Y-31317544D01*
X132650990Y-31317544D02*
X132698609Y-31269925D01*
X132698609Y-31269925D02*
X132793847Y-31222306D01*
X132793847Y-31222306D02*
X133031942Y-31222306D01*
X133031942Y-31222306D02*
X133127180Y-31269925D01*
X133127180Y-31269925D02*
X133174800Y-31317544D01*
X133174800Y-31317544D02*
X133222419Y-31412782D01*
X133222419Y-31412782D02*
X133222419Y-31698496D01*
X133222419Y-31698496D02*
X133174800Y-31793734D01*
X133174800Y-31793734D02*
X133127180Y-31841353D01*
X133127180Y-30793734D02*
X133174800Y-30746115D01*
X133174800Y-30746115D02*
X133222419Y-30793734D01*
X133222419Y-30793734D02*
X133174800Y-30841353D01*
X133174800Y-30841353D02*
X133127180Y-30793734D01*
X133127180Y-30793734D02*
X133222419Y-30793734D01*
X132222419Y-30412782D02*
X132222419Y-29793735D01*
X132222419Y-29793735D02*
X132603371Y-30127068D01*
X132603371Y-30127068D02*
X132603371Y-29984211D01*
X132603371Y-29984211D02*
X132650990Y-29888973D01*
X132650990Y-29888973D02*
X132698609Y-29841354D01*
X132698609Y-29841354D02*
X132793847Y-29793735D01*
X132793847Y-29793735D02*
X133031942Y-29793735D01*
X133031942Y-29793735D02*
X133127180Y-29841354D01*
X133127180Y-29841354D02*
X133174800Y-29888973D01*
X133174800Y-29888973D02*
X133222419Y-29984211D01*
X133222419Y-29984211D02*
X133222419Y-30269925D01*
X133222419Y-30269925D02*
X133174800Y-30365163D01*
X133174800Y-30365163D02*
X133127180Y-30412782D01*
X132222419Y-29508020D02*
X133222419Y-29174687D01*
X133222419Y-29174687D02*
X132222419Y-28841354D01*
X134122419Y-45141353D02*
X134122419Y-44522306D01*
X134122419Y-44522306D02*
X134503371Y-44855639D01*
X134503371Y-44855639D02*
X134503371Y-44712782D01*
X134503371Y-44712782D02*
X134550990Y-44617544D01*
X134550990Y-44617544D02*
X134598609Y-44569925D01*
X134598609Y-44569925D02*
X134693847Y-44522306D01*
X134693847Y-44522306D02*
X134931942Y-44522306D01*
X134931942Y-44522306D02*
X135027180Y-44569925D01*
X135027180Y-44569925D02*
X135074800Y-44617544D01*
X135074800Y-44617544D02*
X135122419Y-44712782D01*
X135122419Y-44712782D02*
X135122419Y-44998496D01*
X135122419Y-44998496D02*
X135074800Y-45093734D01*
X135074800Y-45093734D02*
X135027180Y-45141353D01*
X135027180Y-44093734D02*
X135074800Y-44046115D01*
X135074800Y-44046115D02*
X135122419Y-44093734D01*
X135122419Y-44093734D02*
X135074800Y-44141353D01*
X135074800Y-44141353D02*
X135027180Y-44093734D01*
X135027180Y-44093734D02*
X135122419Y-44093734D01*
X134122419Y-43712782D02*
X134122419Y-43093735D01*
X134122419Y-43093735D02*
X134503371Y-43427068D01*
X134503371Y-43427068D02*
X134503371Y-43284211D01*
X134503371Y-43284211D02*
X134550990Y-43188973D01*
X134550990Y-43188973D02*
X134598609Y-43141354D01*
X134598609Y-43141354D02*
X134693847Y-43093735D01*
X134693847Y-43093735D02*
X134931942Y-43093735D01*
X134931942Y-43093735D02*
X135027180Y-43141354D01*
X135027180Y-43141354D02*
X135074800Y-43188973D01*
X135074800Y-43188973D02*
X135122419Y-43284211D01*
X135122419Y-43284211D02*
X135122419Y-43569925D01*
X135122419Y-43569925D02*
X135074800Y-43665163D01*
X135074800Y-43665163D02*
X135027180Y-43712782D01*
X134122419Y-42808020D02*
X135122419Y-42474687D01*
X135122419Y-42474687D02*
X134122419Y-42141354D01*
X134372419Y-25291353D02*
X134372419Y-24672306D01*
X134372419Y-24672306D02*
X134753371Y-25005639D01*
X134753371Y-25005639D02*
X134753371Y-24862782D01*
X134753371Y-24862782D02*
X134800990Y-24767544D01*
X134800990Y-24767544D02*
X134848609Y-24719925D01*
X134848609Y-24719925D02*
X134943847Y-24672306D01*
X134943847Y-24672306D02*
X135181942Y-24672306D01*
X135181942Y-24672306D02*
X135277180Y-24719925D01*
X135277180Y-24719925D02*
X135324800Y-24767544D01*
X135324800Y-24767544D02*
X135372419Y-24862782D01*
X135372419Y-24862782D02*
X135372419Y-25148496D01*
X135372419Y-25148496D02*
X135324800Y-25243734D01*
X135324800Y-25243734D02*
X135277180Y-25291353D01*
X135277180Y-24243734D02*
X135324800Y-24196115D01*
X135324800Y-24196115D02*
X135372419Y-24243734D01*
X135372419Y-24243734D02*
X135324800Y-24291353D01*
X135324800Y-24291353D02*
X135277180Y-24243734D01*
X135277180Y-24243734D02*
X135372419Y-24243734D01*
X134372419Y-23862782D02*
X134372419Y-23243735D01*
X134372419Y-23243735D02*
X134753371Y-23577068D01*
X134753371Y-23577068D02*
X134753371Y-23434211D01*
X134753371Y-23434211D02*
X134800990Y-23338973D01*
X134800990Y-23338973D02*
X134848609Y-23291354D01*
X134848609Y-23291354D02*
X134943847Y-23243735D01*
X134943847Y-23243735D02*
X135181942Y-23243735D01*
X135181942Y-23243735D02*
X135277180Y-23291354D01*
X135277180Y-23291354D02*
X135324800Y-23338973D01*
X135324800Y-23338973D02*
X135372419Y-23434211D01*
X135372419Y-23434211D02*
X135372419Y-23719925D01*
X135372419Y-23719925D02*
X135324800Y-23815163D01*
X135324800Y-23815163D02*
X135277180Y-23862782D01*
X134372419Y-22958020D02*
X135372419Y-22624687D01*
X135372419Y-22624687D02*
X134372419Y-22291354D01*
X134570038Y-31322306D02*
X134522419Y-31417544D01*
X134522419Y-31417544D02*
X134522419Y-31560401D01*
X134522419Y-31560401D02*
X134570038Y-31703258D01*
X134570038Y-31703258D02*
X134665276Y-31798496D01*
X134665276Y-31798496D02*
X134760514Y-31846115D01*
X134760514Y-31846115D02*
X134950990Y-31893734D01*
X134950990Y-31893734D02*
X135093847Y-31893734D01*
X135093847Y-31893734D02*
X135284323Y-31846115D01*
X135284323Y-31846115D02*
X135379561Y-31798496D01*
X135379561Y-31798496D02*
X135474800Y-31703258D01*
X135474800Y-31703258D02*
X135522419Y-31560401D01*
X135522419Y-31560401D02*
X135522419Y-31465163D01*
X135522419Y-31465163D02*
X135474800Y-31322306D01*
X135474800Y-31322306D02*
X135427180Y-31274687D01*
X135427180Y-31274687D02*
X135093847Y-31274687D01*
X135093847Y-31274687D02*
X135093847Y-31465163D01*
X135522419Y-30846115D02*
X134522419Y-30846115D01*
X134522419Y-30846115D02*
X135522419Y-30274687D01*
X135522419Y-30274687D02*
X134522419Y-30274687D01*
X135522419Y-29798496D02*
X134522419Y-29798496D01*
X134522419Y-29798496D02*
X134522419Y-29560401D01*
X134522419Y-29560401D02*
X134570038Y-29417544D01*
X134570038Y-29417544D02*
X134665276Y-29322306D01*
X134665276Y-29322306D02*
X134760514Y-29274687D01*
X134760514Y-29274687D02*
X134950990Y-29227068D01*
X134950990Y-29227068D02*
X135093847Y-29227068D01*
X135093847Y-29227068D02*
X135284323Y-29274687D01*
X135284323Y-29274687D02*
X135379561Y-29322306D01*
X135379561Y-29322306D02*
X135474800Y-29417544D01*
X135474800Y-29417544D02*
X135522419Y-29560401D01*
X135522419Y-29560401D02*
X135522419Y-29798496D01*
X137372419Y-31946115D02*
X136372419Y-31946115D01*
X136372419Y-31946115D02*
X137086704Y-31612782D01*
X137086704Y-31612782D02*
X136372419Y-31279449D01*
X136372419Y-31279449D02*
X137372419Y-31279449D01*
X137372419Y-30660401D02*
X137324800Y-30755639D01*
X137324800Y-30755639D02*
X137277180Y-30803258D01*
X137277180Y-30803258D02*
X137181942Y-30850877D01*
X137181942Y-30850877D02*
X136896228Y-30850877D01*
X136896228Y-30850877D02*
X136800990Y-30803258D01*
X136800990Y-30803258D02*
X136753371Y-30755639D01*
X136753371Y-30755639D02*
X136705752Y-30660401D01*
X136705752Y-30660401D02*
X136705752Y-30517544D01*
X136705752Y-30517544D02*
X136753371Y-30422306D01*
X136753371Y-30422306D02*
X136800990Y-30374687D01*
X136800990Y-30374687D02*
X136896228Y-30327068D01*
X136896228Y-30327068D02*
X137181942Y-30327068D01*
X137181942Y-30327068D02*
X137277180Y-30374687D01*
X137277180Y-30374687D02*
X137324800Y-30422306D01*
X137324800Y-30422306D02*
X137372419Y-30517544D01*
X137372419Y-30517544D02*
X137372419Y-30660401D01*
X137324800Y-29946115D02*
X137372419Y-29850877D01*
X137372419Y-29850877D02*
X137372419Y-29660401D01*
X137372419Y-29660401D02*
X137324800Y-29565163D01*
X137324800Y-29565163D02*
X137229561Y-29517544D01*
X137229561Y-29517544D02*
X137181942Y-29517544D01*
X137181942Y-29517544D02*
X137086704Y-29565163D01*
X137086704Y-29565163D02*
X137039085Y-29660401D01*
X137039085Y-29660401D02*
X137039085Y-29803258D01*
X137039085Y-29803258D02*
X136991466Y-29898496D01*
X136991466Y-29898496D02*
X136896228Y-29946115D01*
X136896228Y-29946115D02*
X136848609Y-29946115D01*
X136848609Y-29946115D02*
X136753371Y-29898496D01*
X136753371Y-29898496D02*
X136705752Y-29803258D01*
X136705752Y-29803258D02*
X136705752Y-29660401D01*
X136705752Y-29660401D02*
X136753371Y-29565163D01*
X136705752Y-29231829D02*
X136705752Y-28850877D01*
X137372419Y-29088972D02*
X136515276Y-29088972D01*
X136515276Y-29088972D02*
X136420038Y-29041353D01*
X136420038Y-29041353D02*
X136372419Y-28946115D01*
X136372419Y-28946115D02*
X136372419Y-28850877D01*
X137324800Y-28136591D02*
X137372419Y-28231829D01*
X137372419Y-28231829D02*
X137372419Y-28422305D01*
X137372419Y-28422305D02*
X137324800Y-28517543D01*
X137324800Y-28517543D02*
X137229561Y-28565162D01*
X137229561Y-28565162D02*
X136848609Y-28565162D01*
X136848609Y-28565162D02*
X136753371Y-28517543D01*
X136753371Y-28517543D02*
X136705752Y-28422305D01*
X136705752Y-28422305D02*
X136705752Y-28231829D01*
X136705752Y-28231829D02*
X136753371Y-28136591D01*
X136753371Y-28136591D02*
X136848609Y-28088972D01*
X136848609Y-28088972D02*
X136943847Y-28088972D01*
X136943847Y-28088972D02*
X137039085Y-28565162D01*
X136705752Y-27803257D02*
X136705752Y-27422305D01*
X136372419Y-27660400D02*
X137229561Y-27660400D01*
X137229561Y-27660400D02*
X137324800Y-27612781D01*
X137324800Y-27612781D02*
X137372419Y-27517543D01*
X137372419Y-27517543D02*
X137372419Y-27422305D01*
X136470038Y-44622306D02*
X136422419Y-44717544D01*
X136422419Y-44717544D02*
X136422419Y-44860401D01*
X136422419Y-44860401D02*
X136470038Y-45003258D01*
X136470038Y-45003258D02*
X136565276Y-45098496D01*
X136565276Y-45098496D02*
X136660514Y-45146115D01*
X136660514Y-45146115D02*
X136850990Y-45193734D01*
X136850990Y-45193734D02*
X136993847Y-45193734D01*
X136993847Y-45193734D02*
X137184323Y-45146115D01*
X137184323Y-45146115D02*
X137279561Y-45098496D01*
X137279561Y-45098496D02*
X137374800Y-45003258D01*
X137374800Y-45003258D02*
X137422419Y-44860401D01*
X137422419Y-44860401D02*
X137422419Y-44765163D01*
X137422419Y-44765163D02*
X137374800Y-44622306D01*
X137374800Y-44622306D02*
X137327180Y-44574687D01*
X137327180Y-44574687D02*
X136993847Y-44574687D01*
X136993847Y-44574687D02*
X136993847Y-44765163D01*
X137422419Y-44146115D02*
X136422419Y-44146115D01*
X136422419Y-44146115D02*
X137422419Y-43574687D01*
X137422419Y-43574687D02*
X136422419Y-43574687D01*
X137422419Y-43098496D02*
X136422419Y-43098496D01*
X136422419Y-43098496D02*
X136422419Y-42860401D01*
X136422419Y-42860401D02*
X136470038Y-42717544D01*
X136470038Y-42717544D02*
X136565276Y-42622306D01*
X136565276Y-42622306D02*
X136660514Y-42574687D01*
X136660514Y-42574687D02*
X136850990Y-42527068D01*
X136850990Y-42527068D02*
X136993847Y-42527068D01*
X136993847Y-42527068D02*
X137184323Y-42574687D01*
X137184323Y-42574687D02*
X137279561Y-42622306D01*
X137279561Y-42622306D02*
X137374800Y-42717544D01*
X137374800Y-42717544D02*
X137422419Y-42860401D01*
X137422419Y-42860401D02*
X137422419Y-43098496D01*
X139824800Y-45243734D02*
X139872419Y-45100877D01*
X139872419Y-45100877D02*
X139872419Y-44862782D01*
X139872419Y-44862782D02*
X139824800Y-44767544D01*
X139824800Y-44767544D02*
X139777180Y-44719925D01*
X139777180Y-44719925D02*
X139681942Y-44672306D01*
X139681942Y-44672306D02*
X139586704Y-44672306D01*
X139586704Y-44672306D02*
X139491466Y-44719925D01*
X139491466Y-44719925D02*
X139443847Y-44767544D01*
X139443847Y-44767544D02*
X139396228Y-44862782D01*
X139396228Y-44862782D02*
X139348609Y-45053258D01*
X139348609Y-45053258D02*
X139300990Y-45148496D01*
X139300990Y-45148496D02*
X139253371Y-45196115D01*
X139253371Y-45196115D02*
X139158133Y-45243734D01*
X139158133Y-45243734D02*
X139062895Y-45243734D01*
X139062895Y-45243734D02*
X138967657Y-45196115D01*
X138967657Y-45196115D02*
X138920038Y-45148496D01*
X138920038Y-45148496D02*
X138872419Y-45053258D01*
X138872419Y-45053258D02*
X138872419Y-44815163D01*
X138872419Y-44815163D02*
X138920038Y-44672306D01*
X139872419Y-44243734D02*
X138872419Y-44243734D01*
X138872419Y-44243734D02*
X138872419Y-44005639D01*
X138872419Y-44005639D02*
X138920038Y-43862782D01*
X138920038Y-43862782D02*
X139015276Y-43767544D01*
X139015276Y-43767544D02*
X139110514Y-43719925D01*
X139110514Y-43719925D02*
X139300990Y-43672306D01*
X139300990Y-43672306D02*
X139443847Y-43672306D01*
X139443847Y-43672306D02*
X139634323Y-43719925D01*
X139634323Y-43719925D02*
X139729561Y-43767544D01*
X139729561Y-43767544D02*
X139824800Y-43862782D01*
X139824800Y-43862782D02*
X139872419Y-44005639D01*
X139872419Y-44005639D02*
X139872419Y-44243734D01*
X139586704Y-43291353D02*
X139586704Y-42815163D01*
X139872419Y-43386591D02*
X138872419Y-43053258D01*
X138872419Y-43053258D02*
X139872419Y-42719925D01*
X140224800Y-31793734D02*
X140272419Y-31650877D01*
X140272419Y-31650877D02*
X140272419Y-31412782D01*
X140272419Y-31412782D02*
X140224800Y-31317544D01*
X140224800Y-31317544D02*
X140177180Y-31269925D01*
X140177180Y-31269925D02*
X140081942Y-31222306D01*
X140081942Y-31222306D02*
X139986704Y-31222306D01*
X139986704Y-31222306D02*
X139891466Y-31269925D01*
X139891466Y-31269925D02*
X139843847Y-31317544D01*
X139843847Y-31317544D02*
X139796228Y-31412782D01*
X139796228Y-31412782D02*
X139748609Y-31603258D01*
X139748609Y-31603258D02*
X139700990Y-31698496D01*
X139700990Y-31698496D02*
X139653371Y-31746115D01*
X139653371Y-31746115D02*
X139558133Y-31793734D01*
X139558133Y-31793734D02*
X139462895Y-31793734D01*
X139462895Y-31793734D02*
X139367657Y-31746115D01*
X139367657Y-31746115D02*
X139320038Y-31698496D01*
X139320038Y-31698496D02*
X139272419Y-31603258D01*
X139272419Y-31603258D02*
X139272419Y-31365163D01*
X139272419Y-31365163D02*
X139320038Y-31222306D01*
X140272419Y-30793734D02*
X139272419Y-30793734D01*
X139272419Y-30793734D02*
X139272419Y-30555639D01*
X139272419Y-30555639D02*
X139320038Y-30412782D01*
X139320038Y-30412782D02*
X139415276Y-30317544D01*
X139415276Y-30317544D02*
X139510514Y-30269925D01*
X139510514Y-30269925D02*
X139700990Y-30222306D01*
X139700990Y-30222306D02*
X139843847Y-30222306D01*
X139843847Y-30222306D02*
X140034323Y-30269925D01*
X140034323Y-30269925D02*
X140129561Y-30317544D01*
X140129561Y-30317544D02*
X140224800Y-30412782D01*
X140224800Y-30412782D02*
X140272419Y-30555639D01*
X140272419Y-30555639D02*
X140272419Y-30793734D01*
X139986704Y-29841353D02*
X139986704Y-29365163D01*
X140272419Y-29936591D02*
X139272419Y-29603258D01*
X139272419Y-29603258D02*
X140272419Y-29269925D01*
X142324800Y-44993734D02*
X142372419Y-44850877D01*
X142372419Y-44850877D02*
X142372419Y-44612782D01*
X142372419Y-44612782D02*
X142324800Y-44517544D01*
X142324800Y-44517544D02*
X142277180Y-44469925D01*
X142277180Y-44469925D02*
X142181942Y-44422306D01*
X142181942Y-44422306D02*
X142086704Y-44422306D01*
X142086704Y-44422306D02*
X141991466Y-44469925D01*
X141991466Y-44469925D02*
X141943847Y-44517544D01*
X141943847Y-44517544D02*
X141896228Y-44612782D01*
X141896228Y-44612782D02*
X141848609Y-44803258D01*
X141848609Y-44803258D02*
X141800990Y-44898496D01*
X141800990Y-44898496D02*
X141753371Y-44946115D01*
X141753371Y-44946115D02*
X141658133Y-44993734D01*
X141658133Y-44993734D02*
X141562895Y-44993734D01*
X141562895Y-44993734D02*
X141467657Y-44946115D01*
X141467657Y-44946115D02*
X141420038Y-44898496D01*
X141420038Y-44898496D02*
X141372419Y-44803258D01*
X141372419Y-44803258D02*
X141372419Y-44565163D01*
X141372419Y-44565163D02*
X141420038Y-44422306D01*
X142277180Y-43422306D02*
X142324800Y-43469925D01*
X142324800Y-43469925D02*
X142372419Y-43612782D01*
X142372419Y-43612782D02*
X142372419Y-43708020D01*
X142372419Y-43708020D02*
X142324800Y-43850877D01*
X142324800Y-43850877D02*
X142229561Y-43946115D01*
X142229561Y-43946115D02*
X142134323Y-43993734D01*
X142134323Y-43993734D02*
X141943847Y-44041353D01*
X141943847Y-44041353D02*
X141800990Y-44041353D01*
X141800990Y-44041353D02*
X141610514Y-43993734D01*
X141610514Y-43993734D02*
X141515276Y-43946115D01*
X141515276Y-43946115D02*
X141420038Y-43850877D01*
X141420038Y-43850877D02*
X141372419Y-43708020D01*
X141372419Y-43708020D02*
X141372419Y-43612782D01*
X141372419Y-43612782D02*
X141420038Y-43469925D01*
X141420038Y-43469925D02*
X141467657Y-43422306D01*
X142372419Y-42517544D02*
X142372419Y-42993734D01*
X142372419Y-42993734D02*
X141372419Y-42993734D01*
X142624800Y-31743734D02*
X142672419Y-31600877D01*
X142672419Y-31600877D02*
X142672419Y-31362782D01*
X142672419Y-31362782D02*
X142624800Y-31267544D01*
X142624800Y-31267544D02*
X142577180Y-31219925D01*
X142577180Y-31219925D02*
X142481942Y-31172306D01*
X142481942Y-31172306D02*
X142386704Y-31172306D01*
X142386704Y-31172306D02*
X142291466Y-31219925D01*
X142291466Y-31219925D02*
X142243847Y-31267544D01*
X142243847Y-31267544D02*
X142196228Y-31362782D01*
X142196228Y-31362782D02*
X142148609Y-31553258D01*
X142148609Y-31553258D02*
X142100990Y-31648496D01*
X142100990Y-31648496D02*
X142053371Y-31696115D01*
X142053371Y-31696115D02*
X141958133Y-31743734D01*
X141958133Y-31743734D02*
X141862895Y-31743734D01*
X141862895Y-31743734D02*
X141767657Y-31696115D01*
X141767657Y-31696115D02*
X141720038Y-31648496D01*
X141720038Y-31648496D02*
X141672419Y-31553258D01*
X141672419Y-31553258D02*
X141672419Y-31315163D01*
X141672419Y-31315163D02*
X141720038Y-31172306D01*
X142577180Y-30172306D02*
X142624800Y-30219925D01*
X142624800Y-30219925D02*
X142672419Y-30362782D01*
X142672419Y-30362782D02*
X142672419Y-30458020D01*
X142672419Y-30458020D02*
X142624800Y-30600877D01*
X142624800Y-30600877D02*
X142529561Y-30696115D01*
X142529561Y-30696115D02*
X142434323Y-30743734D01*
X142434323Y-30743734D02*
X142243847Y-30791353D01*
X142243847Y-30791353D02*
X142100990Y-30791353D01*
X142100990Y-30791353D02*
X141910514Y-30743734D01*
X141910514Y-30743734D02*
X141815276Y-30696115D01*
X141815276Y-30696115D02*
X141720038Y-30600877D01*
X141720038Y-30600877D02*
X141672419Y-30458020D01*
X141672419Y-30458020D02*
X141672419Y-30362782D01*
X141672419Y-30362782D02*
X141720038Y-30219925D01*
X141720038Y-30219925D02*
X141767657Y-30172306D01*
X142672419Y-29267544D02*
X142672419Y-29743734D01*
X142672419Y-29743734D02*
X141672419Y-29743734D01*
X148920038Y-26172306D02*
X148872419Y-26267544D01*
X148872419Y-26267544D02*
X148872419Y-26410401D01*
X148872419Y-26410401D02*
X148920038Y-26553258D01*
X148920038Y-26553258D02*
X149015276Y-26648496D01*
X149015276Y-26648496D02*
X149110514Y-26696115D01*
X149110514Y-26696115D02*
X149300990Y-26743734D01*
X149300990Y-26743734D02*
X149443847Y-26743734D01*
X149443847Y-26743734D02*
X149634323Y-26696115D01*
X149634323Y-26696115D02*
X149729561Y-26648496D01*
X149729561Y-26648496D02*
X149824800Y-26553258D01*
X149824800Y-26553258D02*
X149872419Y-26410401D01*
X149872419Y-26410401D02*
X149872419Y-26315163D01*
X149872419Y-26315163D02*
X149824800Y-26172306D01*
X149824800Y-26172306D02*
X149777180Y-26124687D01*
X149777180Y-26124687D02*
X149443847Y-26124687D01*
X149443847Y-26124687D02*
X149443847Y-26315163D01*
X149872419Y-25696115D02*
X148872419Y-25696115D01*
X148872419Y-25696115D02*
X149872419Y-25124687D01*
X149872419Y-25124687D02*
X148872419Y-25124687D01*
X149872419Y-24648496D02*
X148872419Y-24648496D01*
X148872419Y-24648496D02*
X148872419Y-24410401D01*
X148872419Y-24410401D02*
X148920038Y-24267544D01*
X148920038Y-24267544D02*
X149015276Y-24172306D01*
X149015276Y-24172306D02*
X149110514Y-24124687D01*
X149110514Y-24124687D02*
X149300990Y-24077068D01*
X149300990Y-24077068D02*
X149443847Y-24077068D01*
X149443847Y-24077068D02*
X149634323Y-24124687D01*
X149634323Y-24124687D02*
X149729561Y-24172306D01*
X149729561Y-24172306D02*
X149824800Y-24267544D01*
X149824800Y-24267544D02*
X149872419Y-24410401D01*
X149872419Y-24410401D02*
X149872419Y-24648496D01*
X156705752Y-26791353D02*
X157372419Y-26553258D01*
X157372419Y-26553258D02*
X156705752Y-26315163D01*
X156848609Y-25600877D02*
X156896228Y-25458020D01*
X156896228Y-25458020D02*
X156943847Y-25410401D01*
X156943847Y-25410401D02*
X157039085Y-25362782D01*
X157039085Y-25362782D02*
X157181942Y-25362782D01*
X157181942Y-25362782D02*
X157277180Y-25410401D01*
X157277180Y-25410401D02*
X157324800Y-25458020D01*
X157324800Y-25458020D02*
X157372419Y-25553258D01*
X157372419Y-25553258D02*
X157372419Y-25934210D01*
X157372419Y-25934210D02*
X156372419Y-25934210D01*
X156372419Y-25934210D02*
X156372419Y-25600877D01*
X156372419Y-25600877D02*
X156420038Y-25505639D01*
X156420038Y-25505639D02*
X156467657Y-25458020D01*
X156467657Y-25458020D02*
X156562895Y-25410401D01*
X156562895Y-25410401D02*
X156658133Y-25410401D01*
X156658133Y-25410401D02*
X156753371Y-25458020D01*
X156753371Y-25458020D02*
X156800990Y-25505639D01*
X156800990Y-25505639D02*
X156848609Y-25600877D01*
X156848609Y-25600877D02*
X156848609Y-25934210D01*
X157372419Y-24505639D02*
X156848609Y-24505639D01*
X156848609Y-24505639D02*
X156753371Y-24553258D01*
X156753371Y-24553258D02*
X156705752Y-24648496D01*
X156705752Y-24648496D02*
X156705752Y-24838972D01*
X156705752Y-24838972D02*
X156753371Y-24934210D01*
X157324800Y-24505639D02*
X157372419Y-24600877D01*
X157372419Y-24600877D02*
X157372419Y-24838972D01*
X157372419Y-24838972D02*
X157324800Y-24934210D01*
X157324800Y-24934210D02*
X157229561Y-24981829D01*
X157229561Y-24981829D02*
X157134323Y-24981829D01*
X157134323Y-24981829D02*
X157039085Y-24934210D01*
X157039085Y-24934210D02*
X156991466Y-24838972D01*
X156991466Y-24838972D02*
X156991466Y-24600877D01*
X156991466Y-24600877D02*
X156943847Y-24505639D01*
X156705752Y-24172305D02*
X156705752Y-23791353D01*
X156372419Y-24029448D02*
X157229561Y-24029448D01*
X157229561Y-24029448D02*
X157324800Y-23981829D01*
X157324800Y-23981829D02*
X157372419Y-23886591D01*
X157372419Y-23886591D02*
X157372419Y-23791353D01*
X135411905Y-110157419D02*
X135411905Y-109157419D01*
X135411905Y-109157419D02*
X135983333Y-110157419D01*
X135983333Y-110157419D02*
X135983333Y-109157419D01*
X136411905Y-109871704D02*
X136888095Y-109871704D01*
X136316667Y-110157419D02*
X136650000Y-109157419D01*
X136650000Y-109157419D02*
X136983333Y-110157419D01*
X137316667Y-109157419D02*
X137316667Y-109966942D01*
X137316667Y-109966942D02*
X137364286Y-110062180D01*
X137364286Y-110062180D02*
X137411905Y-110109800D01*
X137411905Y-110109800D02*
X137507143Y-110157419D01*
X137507143Y-110157419D02*
X137697619Y-110157419D01*
X137697619Y-110157419D02*
X137792857Y-110109800D01*
X137792857Y-110109800D02*
X137840476Y-110062180D01*
X137840476Y-110062180D02*
X137888095Y-109966942D01*
X137888095Y-109966942D02*
X137888095Y-109157419D01*
X138269048Y-109157419D02*
X138935714Y-109157419D01*
X138935714Y-109157419D02*
X138507143Y-110157419D01*
X139459524Y-109585990D02*
X139364286Y-109538371D01*
X139364286Y-109538371D02*
X139316667Y-109490752D01*
X139316667Y-109490752D02*
X139269048Y-109395514D01*
X139269048Y-109395514D02*
X139269048Y-109347895D01*
X139269048Y-109347895D02*
X139316667Y-109252657D01*
X139316667Y-109252657D02*
X139364286Y-109205038D01*
X139364286Y-109205038D02*
X139459524Y-109157419D01*
X139459524Y-109157419D02*
X139650000Y-109157419D01*
X139650000Y-109157419D02*
X139745238Y-109205038D01*
X139745238Y-109205038D02*
X139792857Y-109252657D01*
X139792857Y-109252657D02*
X139840476Y-109347895D01*
X139840476Y-109347895D02*
X139840476Y-109395514D01*
X139840476Y-109395514D02*
X139792857Y-109490752D01*
X139792857Y-109490752D02*
X139745238Y-109538371D01*
X139745238Y-109538371D02*
X139650000Y-109585990D01*
X139650000Y-109585990D02*
X139459524Y-109585990D01*
X139459524Y-109585990D02*
X139364286Y-109633609D01*
X139364286Y-109633609D02*
X139316667Y-109681228D01*
X139316667Y-109681228D02*
X139269048Y-109776466D01*
X139269048Y-109776466D02*
X139269048Y-109966942D01*
X139269048Y-109966942D02*
X139316667Y-110062180D01*
X139316667Y-110062180D02*
X139364286Y-110109800D01*
X139364286Y-110109800D02*
X139459524Y-110157419D01*
X139459524Y-110157419D02*
X139650000Y-110157419D01*
X139650000Y-110157419D02*
X139745238Y-110109800D01*
X139745238Y-110109800D02*
X139792857Y-110062180D01*
X139792857Y-110062180D02*
X139840476Y-109966942D01*
X139840476Y-109966942D02*
X139840476Y-109776466D01*
X139840476Y-109776466D02*
X139792857Y-109681228D01*
X139792857Y-109681228D02*
X139745238Y-109633609D01*
X139745238Y-109633609D02*
X139650000Y-109585990D01*
X140459524Y-109157419D02*
X140554762Y-109157419D01*
X140554762Y-109157419D02*
X140650000Y-109205038D01*
X140650000Y-109205038D02*
X140697619Y-109252657D01*
X140697619Y-109252657D02*
X140745238Y-109347895D01*
X140745238Y-109347895D02*
X140792857Y-109538371D01*
X140792857Y-109538371D02*
X140792857Y-109776466D01*
X140792857Y-109776466D02*
X140745238Y-109966942D01*
X140745238Y-109966942D02*
X140697619Y-110062180D01*
X140697619Y-110062180D02*
X140650000Y-110109800D01*
X140650000Y-110109800D02*
X140554762Y-110157419D01*
X140554762Y-110157419D02*
X140459524Y-110157419D01*
X140459524Y-110157419D02*
X140364286Y-110109800D01*
X140364286Y-110109800D02*
X140316667Y-110062180D01*
X140316667Y-110062180D02*
X140269048Y-109966942D01*
X140269048Y-109966942D02*
X140221429Y-109776466D01*
X140221429Y-109776466D02*
X140221429Y-109538371D01*
X140221429Y-109538371D02*
X140269048Y-109347895D01*
X140269048Y-109347895D02*
X140316667Y-109252657D01*
X140316667Y-109252657D02*
X140364286Y-109205038D01*
X140364286Y-109205038D02*
X140459524Y-109157419D01*
X141173810Y-109252657D02*
X141221429Y-109205038D01*
X141221429Y-109205038D02*
X141316667Y-109157419D01*
X141316667Y-109157419D02*
X141554762Y-109157419D01*
X141554762Y-109157419D02*
X141650000Y-109205038D01*
X141650000Y-109205038D02*
X141697619Y-109252657D01*
X141697619Y-109252657D02*
X141745238Y-109347895D01*
X141745238Y-109347895D02*
X141745238Y-109443133D01*
X141745238Y-109443133D02*
X141697619Y-109585990D01*
X141697619Y-109585990D02*
X141126191Y-110157419D01*
X141126191Y-110157419D02*
X141745238Y-110157419D01*
X142173810Y-109776466D02*
X142935715Y-109776466D01*
X143316667Y-109157419D02*
X143935714Y-109157419D01*
X143935714Y-109157419D02*
X143602381Y-109538371D01*
X143602381Y-109538371D02*
X143745238Y-109538371D01*
X143745238Y-109538371D02*
X143840476Y-109585990D01*
X143840476Y-109585990D02*
X143888095Y-109633609D01*
X143888095Y-109633609D02*
X143935714Y-109728847D01*
X143935714Y-109728847D02*
X143935714Y-109966942D01*
X143935714Y-109966942D02*
X143888095Y-110062180D01*
X143888095Y-110062180D02*
X143840476Y-110109800D01*
X143840476Y-110109800D02*
X143745238Y-110157419D01*
X143745238Y-110157419D02*
X143459524Y-110157419D01*
X143459524Y-110157419D02*
X143364286Y-110109800D01*
X143364286Y-110109800D02*
X143316667Y-110062180D01*
D11*
X144724819Y-34333333D02*
X145439104Y-34333333D01*
X145439104Y-34333333D02*
X145581961Y-34380952D01*
X145581961Y-34380952D02*
X145677200Y-34476190D01*
X145677200Y-34476190D02*
X145724819Y-34619047D01*
X145724819Y-34619047D02*
X145724819Y-34714285D01*
X144724819Y-33380952D02*
X144724819Y-33857142D01*
X144724819Y-33857142D02*
X145201009Y-33904761D01*
X145201009Y-33904761D02*
X145153390Y-33857142D01*
X145153390Y-33857142D02*
X145105771Y-33761904D01*
X145105771Y-33761904D02*
X145105771Y-33523809D01*
X145105771Y-33523809D02*
X145153390Y-33428571D01*
X145153390Y-33428571D02*
X145201009Y-33380952D01*
X145201009Y-33380952D02*
X145296247Y-33333333D01*
X145296247Y-33333333D02*
X145534342Y-33333333D01*
X145534342Y-33333333D02*
X145629580Y-33380952D01*
X145629580Y-33380952D02*
X145677200Y-33428571D01*
X145677200Y-33428571D02*
X145724819Y-33523809D01*
X145724819Y-33523809D02*
X145724819Y-33761904D01*
X145724819Y-33761904D02*
X145677200Y-33857142D01*
X145677200Y-33857142D02*
X145629580Y-33904761D01*
D10*
X135411905Y-82387419D02*
X135411905Y-81387419D01*
X135411905Y-81387419D02*
X135983333Y-82387419D01*
X135983333Y-82387419D02*
X135983333Y-81387419D01*
X136411905Y-82101704D02*
X136888095Y-82101704D01*
X136316667Y-82387419D02*
X136650000Y-81387419D01*
X136650000Y-81387419D02*
X136983333Y-82387419D01*
X137316667Y-81387419D02*
X137316667Y-82196942D01*
X137316667Y-82196942D02*
X137364286Y-82292180D01*
X137364286Y-82292180D02*
X137411905Y-82339800D01*
X137411905Y-82339800D02*
X137507143Y-82387419D01*
X137507143Y-82387419D02*
X137697619Y-82387419D01*
X137697619Y-82387419D02*
X137792857Y-82339800D01*
X137792857Y-82339800D02*
X137840476Y-82292180D01*
X137840476Y-82292180D02*
X137888095Y-82196942D01*
X137888095Y-82196942D02*
X137888095Y-81387419D01*
X138269048Y-81387419D02*
X138935714Y-81387419D01*
X138935714Y-81387419D02*
X138507143Y-82387419D01*
X139459524Y-81815990D02*
X139364286Y-81768371D01*
X139364286Y-81768371D02*
X139316667Y-81720752D01*
X139316667Y-81720752D02*
X139269048Y-81625514D01*
X139269048Y-81625514D02*
X139269048Y-81577895D01*
X139269048Y-81577895D02*
X139316667Y-81482657D01*
X139316667Y-81482657D02*
X139364286Y-81435038D01*
X139364286Y-81435038D02*
X139459524Y-81387419D01*
X139459524Y-81387419D02*
X139650000Y-81387419D01*
X139650000Y-81387419D02*
X139745238Y-81435038D01*
X139745238Y-81435038D02*
X139792857Y-81482657D01*
X139792857Y-81482657D02*
X139840476Y-81577895D01*
X139840476Y-81577895D02*
X139840476Y-81625514D01*
X139840476Y-81625514D02*
X139792857Y-81720752D01*
X139792857Y-81720752D02*
X139745238Y-81768371D01*
X139745238Y-81768371D02*
X139650000Y-81815990D01*
X139650000Y-81815990D02*
X139459524Y-81815990D01*
X139459524Y-81815990D02*
X139364286Y-81863609D01*
X139364286Y-81863609D02*
X139316667Y-81911228D01*
X139316667Y-81911228D02*
X139269048Y-82006466D01*
X139269048Y-82006466D02*
X139269048Y-82196942D01*
X139269048Y-82196942D02*
X139316667Y-82292180D01*
X139316667Y-82292180D02*
X139364286Y-82339800D01*
X139364286Y-82339800D02*
X139459524Y-82387419D01*
X139459524Y-82387419D02*
X139650000Y-82387419D01*
X139650000Y-82387419D02*
X139745238Y-82339800D01*
X139745238Y-82339800D02*
X139792857Y-82292180D01*
X139792857Y-82292180D02*
X139840476Y-82196942D01*
X139840476Y-82196942D02*
X139840476Y-82006466D01*
X139840476Y-82006466D02*
X139792857Y-81911228D01*
X139792857Y-81911228D02*
X139745238Y-81863609D01*
X139745238Y-81863609D02*
X139650000Y-81815990D01*
X140459524Y-81387419D02*
X140554762Y-81387419D01*
X140554762Y-81387419D02*
X140650000Y-81435038D01*
X140650000Y-81435038D02*
X140697619Y-81482657D01*
X140697619Y-81482657D02*
X140745238Y-81577895D01*
X140745238Y-81577895D02*
X140792857Y-81768371D01*
X140792857Y-81768371D02*
X140792857Y-82006466D01*
X140792857Y-82006466D02*
X140745238Y-82196942D01*
X140745238Y-82196942D02*
X140697619Y-82292180D01*
X140697619Y-82292180D02*
X140650000Y-82339800D01*
X140650000Y-82339800D02*
X140554762Y-82387419D01*
X140554762Y-82387419D02*
X140459524Y-82387419D01*
X140459524Y-82387419D02*
X140364286Y-82339800D01*
X140364286Y-82339800D02*
X140316667Y-82292180D01*
X140316667Y-82292180D02*
X140269048Y-82196942D01*
X140269048Y-82196942D02*
X140221429Y-82006466D01*
X140221429Y-82006466D02*
X140221429Y-81768371D01*
X140221429Y-81768371D02*
X140269048Y-81577895D01*
X140269048Y-81577895D02*
X140316667Y-81482657D01*
X140316667Y-81482657D02*
X140364286Y-81435038D01*
X140364286Y-81435038D02*
X140459524Y-81387419D01*
X141173810Y-81482657D02*
X141221429Y-81435038D01*
X141221429Y-81435038D02*
X141316667Y-81387419D01*
X141316667Y-81387419D02*
X141554762Y-81387419D01*
X141554762Y-81387419D02*
X141650000Y-81435038D01*
X141650000Y-81435038D02*
X141697619Y-81482657D01*
X141697619Y-81482657D02*
X141745238Y-81577895D01*
X141745238Y-81577895D02*
X141745238Y-81673133D01*
X141745238Y-81673133D02*
X141697619Y-81815990D01*
X141697619Y-81815990D02*
X141126191Y-82387419D01*
X141126191Y-82387419D02*
X141745238Y-82387419D01*
X142173810Y-82006466D02*
X142935715Y-82006466D01*
X143364286Y-81482657D02*
X143411905Y-81435038D01*
X143411905Y-81435038D02*
X143507143Y-81387419D01*
X143507143Y-81387419D02*
X143745238Y-81387419D01*
X143745238Y-81387419D02*
X143840476Y-81435038D01*
X143840476Y-81435038D02*
X143888095Y-81482657D01*
X143888095Y-81482657D02*
X143935714Y-81577895D01*
X143935714Y-81577895D02*
X143935714Y-81673133D01*
X143935714Y-81673133D02*
X143888095Y-81815990D01*
X143888095Y-81815990D02*
X143316667Y-82387419D01*
X143316667Y-82387419D02*
X143935714Y-82387419D01*
D11*
X132023810Y-25704819D02*
X132690476Y-26704819D01*
X132690476Y-25704819D02*
X132023810Y-26704819D01*
X133071429Y-26704819D02*
X133071429Y-25704819D01*
X133500000Y-26419104D02*
X133976190Y-26419104D01*
X133404762Y-26704819D02*
X133738095Y-25704819D01*
X133738095Y-25704819D02*
X134071428Y-26704819D01*
X134595238Y-25704819D02*
X134785714Y-25704819D01*
X134785714Y-25704819D02*
X134880952Y-25752438D01*
X134880952Y-25752438D02*
X134976190Y-25847676D01*
X134976190Y-25847676D02*
X135023809Y-26038152D01*
X135023809Y-26038152D02*
X135023809Y-26371485D01*
X135023809Y-26371485D02*
X134976190Y-26561961D01*
X134976190Y-26561961D02*
X134880952Y-26657200D01*
X134880952Y-26657200D02*
X134785714Y-26704819D01*
X134785714Y-26704819D02*
X134595238Y-26704819D01*
X134595238Y-26704819D02*
X134500000Y-26657200D01*
X134500000Y-26657200D02*
X134404762Y-26561961D01*
X134404762Y-26561961D02*
X134357143Y-26371485D01*
X134357143Y-26371485D02*
X134357143Y-26038152D01*
X134357143Y-26038152D02*
X134404762Y-25847676D01*
X134404762Y-25847676D02*
X134500000Y-25752438D01*
X134500000Y-25752438D02*
X134595238Y-25704819D01*
X135214286Y-26800057D02*
X135976190Y-26800057D01*
X136214286Y-26704819D02*
X136214286Y-25704819D01*
X136214286Y-25704819D02*
X136547619Y-26419104D01*
X136547619Y-26419104D02*
X136880952Y-25704819D01*
X136880952Y-25704819D02*
X136880952Y-26704819D01*
X137928571Y-26609580D02*
X137880952Y-26657200D01*
X137880952Y-26657200D02*
X137738095Y-26704819D01*
X137738095Y-26704819D02*
X137642857Y-26704819D01*
X137642857Y-26704819D02*
X137500000Y-26657200D01*
X137500000Y-26657200D02*
X137404762Y-26561961D01*
X137404762Y-26561961D02*
X137357143Y-26466723D01*
X137357143Y-26466723D02*
X137309524Y-26276247D01*
X137309524Y-26276247D02*
X137309524Y-26133390D01*
X137309524Y-26133390D02*
X137357143Y-25942914D01*
X137357143Y-25942914D02*
X137404762Y-25847676D01*
X137404762Y-25847676D02*
X137500000Y-25752438D01*
X137500000Y-25752438D02*
X137642857Y-25704819D01*
X137642857Y-25704819D02*
X137738095Y-25704819D01*
X137738095Y-25704819D02*
X137880952Y-25752438D01*
X137880952Y-25752438D02*
X137928571Y-25800057D01*
X138357143Y-25704819D02*
X138357143Y-26514342D01*
X138357143Y-26514342D02*
X138404762Y-26609580D01*
X138404762Y-26609580D02*
X138452381Y-26657200D01*
X138452381Y-26657200D02*
X138547619Y-26704819D01*
X138547619Y-26704819D02*
X138738095Y-26704819D01*
X138738095Y-26704819D02*
X138833333Y-26657200D01*
X138833333Y-26657200D02*
X138880952Y-26609580D01*
X138880952Y-26609580D02*
X138928571Y-26514342D01*
X138928571Y-26514342D02*
X138928571Y-25704819D01*
X139928571Y-26704819D02*
X139357143Y-26704819D01*
X139642857Y-26704819D02*
X139642857Y-25704819D01*
X139642857Y-25704819D02*
X139547619Y-25847676D01*
X139547619Y-25847676D02*
X139452381Y-25942914D01*
X139452381Y-25942914D02*
X139357143Y-25990533D01*
D10*
X135411905Y-54617419D02*
X135411905Y-53617419D01*
X135411905Y-53617419D02*
X135983333Y-54617419D01*
X135983333Y-54617419D02*
X135983333Y-53617419D01*
X136411905Y-54331704D02*
X136888095Y-54331704D01*
X136316667Y-54617419D02*
X136650000Y-53617419D01*
X136650000Y-53617419D02*
X136983333Y-54617419D01*
X137316667Y-53617419D02*
X137316667Y-54426942D01*
X137316667Y-54426942D02*
X137364286Y-54522180D01*
X137364286Y-54522180D02*
X137411905Y-54569800D01*
X137411905Y-54569800D02*
X137507143Y-54617419D01*
X137507143Y-54617419D02*
X137697619Y-54617419D01*
X137697619Y-54617419D02*
X137792857Y-54569800D01*
X137792857Y-54569800D02*
X137840476Y-54522180D01*
X137840476Y-54522180D02*
X137888095Y-54426942D01*
X137888095Y-54426942D02*
X137888095Y-53617419D01*
X138269048Y-53617419D02*
X138935714Y-53617419D01*
X138935714Y-53617419D02*
X138507143Y-54617419D01*
X139459524Y-54045990D02*
X139364286Y-53998371D01*
X139364286Y-53998371D02*
X139316667Y-53950752D01*
X139316667Y-53950752D02*
X139269048Y-53855514D01*
X139269048Y-53855514D02*
X139269048Y-53807895D01*
X139269048Y-53807895D02*
X139316667Y-53712657D01*
X139316667Y-53712657D02*
X139364286Y-53665038D01*
X139364286Y-53665038D02*
X139459524Y-53617419D01*
X139459524Y-53617419D02*
X139650000Y-53617419D01*
X139650000Y-53617419D02*
X139745238Y-53665038D01*
X139745238Y-53665038D02*
X139792857Y-53712657D01*
X139792857Y-53712657D02*
X139840476Y-53807895D01*
X139840476Y-53807895D02*
X139840476Y-53855514D01*
X139840476Y-53855514D02*
X139792857Y-53950752D01*
X139792857Y-53950752D02*
X139745238Y-53998371D01*
X139745238Y-53998371D02*
X139650000Y-54045990D01*
X139650000Y-54045990D02*
X139459524Y-54045990D01*
X139459524Y-54045990D02*
X139364286Y-54093609D01*
X139364286Y-54093609D02*
X139316667Y-54141228D01*
X139316667Y-54141228D02*
X139269048Y-54236466D01*
X139269048Y-54236466D02*
X139269048Y-54426942D01*
X139269048Y-54426942D02*
X139316667Y-54522180D01*
X139316667Y-54522180D02*
X139364286Y-54569800D01*
X139364286Y-54569800D02*
X139459524Y-54617419D01*
X139459524Y-54617419D02*
X139650000Y-54617419D01*
X139650000Y-54617419D02*
X139745238Y-54569800D01*
X139745238Y-54569800D02*
X139792857Y-54522180D01*
X139792857Y-54522180D02*
X139840476Y-54426942D01*
X139840476Y-54426942D02*
X139840476Y-54236466D01*
X139840476Y-54236466D02*
X139792857Y-54141228D01*
X139792857Y-54141228D02*
X139745238Y-54093609D01*
X139745238Y-54093609D02*
X139650000Y-54045990D01*
X140459524Y-53617419D02*
X140554762Y-53617419D01*
X140554762Y-53617419D02*
X140650000Y-53665038D01*
X140650000Y-53665038D02*
X140697619Y-53712657D01*
X140697619Y-53712657D02*
X140745238Y-53807895D01*
X140745238Y-53807895D02*
X140792857Y-53998371D01*
X140792857Y-53998371D02*
X140792857Y-54236466D01*
X140792857Y-54236466D02*
X140745238Y-54426942D01*
X140745238Y-54426942D02*
X140697619Y-54522180D01*
X140697619Y-54522180D02*
X140650000Y-54569800D01*
X140650000Y-54569800D02*
X140554762Y-54617419D01*
X140554762Y-54617419D02*
X140459524Y-54617419D01*
X140459524Y-54617419D02*
X140364286Y-54569800D01*
X140364286Y-54569800D02*
X140316667Y-54522180D01*
X140316667Y-54522180D02*
X140269048Y-54426942D01*
X140269048Y-54426942D02*
X140221429Y-54236466D01*
X140221429Y-54236466D02*
X140221429Y-53998371D01*
X140221429Y-53998371D02*
X140269048Y-53807895D01*
X140269048Y-53807895D02*
X140316667Y-53712657D01*
X140316667Y-53712657D02*
X140364286Y-53665038D01*
X140364286Y-53665038D02*
X140459524Y-53617419D01*
X141173810Y-53712657D02*
X141221429Y-53665038D01*
X141221429Y-53665038D02*
X141316667Y-53617419D01*
X141316667Y-53617419D02*
X141554762Y-53617419D01*
X141554762Y-53617419D02*
X141650000Y-53665038D01*
X141650000Y-53665038D02*
X141697619Y-53712657D01*
X141697619Y-53712657D02*
X141745238Y-53807895D01*
X141745238Y-53807895D02*
X141745238Y-53903133D01*
X141745238Y-53903133D02*
X141697619Y-54045990D01*
X141697619Y-54045990D02*
X141126191Y-54617419D01*
X141126191Y-54617419D02*
X141745238Y-54617419D01*
X142173810Y-54236466D02*
X142935715Y-54236466D01*
X143935714Y-54617419D02*
X143364286Y-54617419D01*
X143650000Y-54617419D02*
X143650000Y-53617419D01*
X143650000Y-53617419D02*
X143554762Y-53760276D01*
X143554762Y-53760276D02*
X143459524Y-53855514D01*
X143459524Y-53855514D02*
X143364286Y-53903133D01*
D11*
X145724819Y-41480951D02*
X145058152Y-41480951D01*
X144724819Y-41480951D02*
X144772438Y-41528570D01*
X144772438Y-41528570D02*
X144820057Y-41480951D01*
X144820057Y-41480951D02*
X144772438Y-41433332D01*
X144772438Y-41433332D02*
X144724819Y-41480951D01*
X144724819Y-41480951D02*
X144820057Y-41480951D01*
X144820057Y-41052380D02*
X144772438Y-41004761D01*
X144772438Y-41004761D02*
X144724819Y-40909523D01*
X144724819Y-40909523D02*
X144724819Y-40671428D01*
X144724819Y-40671428D02*
X144772438Y-40576190D01*
X144772438Y-40576190D02*
X144820057Y-40528571D01*
X144820057Y-40528571D02*
X144915295Y-40480952D01*
X144915295Y-40480952D02*
X145010533Y-40480952D01*
X145010533Y-40480952D02*
X145153390Y-40528571D01*
X145153390Y-40528571D02*
X145724819Y-41099999D01*
X145724819Y-41099999D02*
X145724819Y-40480952D01*
X145677200Y-39623809D02*
X145724819Y-39719047D01*
X145724819Y-39719047D02*
X145724819Y-39909523D01*
X145724819Y-39909523D02*
X145677200Y-40004761D01*
X145677200Y-40004761D02*
X145629580Y-40052380D01*
X145629580Y-40052380D02*
X145534342Y-40099999D01*
X145534342Y-40099999D02*
X145248628Y-40099999D01*
X145248628Y-40099999D02*
X145153390Y-40052380D01*
X145153390Y-40052380D02*
X145105771Y-40004761D01*
X145105771Y-40004761D02*
X145058152Y-39909523D01*
X145058152Y-39909523D02*
X145058152Y-39719047D01*
X145058152Y-39719047D02*
X145105771Y-39623809D01*
X145724819Y-38671428D02*
X145724819Y-39242856D01*
X145724819Y-38957142D02*
X144724819Y-38957142D01*
X144724819Y-38957142D02*
X144867676Y-39052380D01*
X144867676Y-39052380D02*
X144962914Y-39147618D01*
X144962914Y-39147618D02*
X145010533Y-39242856D01*
X152936666Y-26924819D02*
X152936666Y-27639104D01*
X152936666Y-27639104D02*
X152889047Y-27781961D01*
X152889047Y-27781961D02*
X152793809Y-27877200D01*
X152793809Y-27877200D02*
X152650952Y-27924819D01*
X152650952Y-27924819D02*
X152555714Y-27924819D01*
X153317619Y-26924819D02*
X153936666Y-26924819D01*
X153936666Y-26924819D02*
X153603333Y-27305771D01*
X153603333Y-27305771D02*
X153746190Y-27305771D01*
X153746190Y-27305771D02*
X153841428Y-27353390D01*
X153841428Y-27353390D02*
X153889047Y-27401009D01*
X153889047Y-27401009D02*
X153936666Y-27496247D01*
X153936666Y-27496247D02*
X153936666Y-27734342D01*
X153936666Y-27734342D02*
X153889047Y-27829580D01*
X153889047Y-27829580D02*
X153841428Y-27877200D01*
X153841428Y-27877200D02*
X153746190Y-27924819D01*
X153746190Y-27924819D02*
X153460476Y-27924819D01*
X153460476Y-27924819D02*
X153365238Y-27877200D01*
X153365238Y-27877200D02*
X153317619Y-27829580D01*
D10*
X191588094Y-110142580D02*
X191588094Y-111142580D01*
X191588094Y-111142580D02*
X191016666Y-110142580D01*
X191016666Y-110142580D02*
X191016666Y-111142580D01*
X190588094Y-110428295D02*
X190111904Y-110428295D01*
X190683332Y-110142580D02*
X190349999Y-111142580D01*
X190349999Y-111142580D02*
X190016666Y-110142580D01*
X189683332Y-111142580D02*
X189683332Y-110333057D01*
X189683332Y-110333057D02*
X189635713Y-110237819D01*
X189635713Y-110237819D02*
X189588094Y-110190200D01*
X189588094Y-110190200D02*
X189492856Y-110142580D01*
X189492856Y-110142580D02*
X189302380Y-110142580D01*
X189302380Y-110142580D02*
X189207142Y-110190200D01*
X189207142Y-110190200D02*
X189159523Y-110237819D01*
X189159523Y-110237819D02*
X189111904Y-110333057D01*
X189111904Y-110333057D02*
X189111904Y-111142580D01*
X188730951Y-111142580D02*
X188064285Y-111142580D01*
X188064285Y-111142580D02*
X188492856Y-110142580D01*
X187540475Y-110714009D02*
X187635713Y-110761628D01*
X187635713Y-110761628D02*
X187683332Y-110809247D01*
X187683332Y-110809247D02*
X187730951Y-110904485D01*
X187730951Y-110904485D02*
X187730951Y-110952104D01*
X187730951Y-110952104D02*
X187683332Y-111047342D01*
X187683332Y-111047342D02*
X187635713Y-111094961D01*
X187635713Y-111094961D02*
X187540475Y-111142580D01*
X187540475Y-111142580D02*
X187349999Y-111142580D01*
X187349999Y-111142580D02*
X187254761Y-111094961D01*
X187254761Y-111094961D02*
X187207142Y-111047342D01*
X187207142Y-111047342D02*
X187159523Y-110952104D01*
X187159523Y-110952104D02*
X187159523Y-110904485D01*
X187159523Y-110904485D02*
X187207142Y-110809247D01*
X187207142Y-110809247D02*
X187254761Y-110761628D01*
X187254761Y-110761628D02*
X187349999Y-110714009D01*
X187349999Y-110714009D02*
X187540475Y-110714009D01*
X187540475Y-110714009D02*
X187635713Y-110666390D01*
X187635713Y-110666390D02*
X187683332Y-110618771D01*
X187683332Y-110618771D02*
X187730951Y-110523533D01*
X187730951Y-110523533D02*
X187730951Y-110333057D01*
X187730951Y-110333057D02*
X187683332Y-110237819D01*
X187683332Y-110237819D02*
X187635713Y-110190200D01*
X187635713Y-110190200D02*
X187540475Y-110142580D01*
X187540475Y-110142580D02*
X187349999Y-110142580D01*
X187349999Y-110142580D02*
X187254761Y-110190200D01*
X187254761Y-110190200D02*
X187207142Y-110237819D01*
X187207142Y-110237819D02*
X187159523Y-110333057D01*
X187159523Y-110333057D02*
X187159523Y-110523533D01*
X187159523Y-110523533D02*
X187207142Y-110618771D01*
X187207142Y-110618771D02*
X187254761Y-110666390D01*
X187254761Y-110666390D02*
X187349999Y-110714009D01*
X186540475Y-111142580D02*
X186445237Y-111142580D01*
X186445237Y-111142580D02*
X186349999Y-111094961D01*
X186349999Y-111094961D02*
X186302380Y-111047342D01*
X186302380Y-111047342D02*
X186254761Y-110952104D01*
X186254761Y-110952104D02*
X186207142Y-110761628D01*
X186207142Y-110761628D02*
X186207142Y-110523533D01*
X186207142Y-110523533D02*
X186254761Y-110333057D01*
X186254761Y-110333057D02*
X186302380Y-110237819D01*
X186302380Y-110237819D02*
X186349999Y-110190200D01*
X186349999Y-110190200D02*
X186445237Y-110142580D01*
X186445237Y-110142580D02*
X186540475Y-110142580D01*
X186540475Y-110142580D02*
X186635713Y-110190200D01*
X186635713Y-110190200D02*
X186683332Y-110237819D01*
X186683332Y-110237819D02*
X186730951Y-110333057D01*
X186730951Y-110333057D02*
X186778570Y-110523533D01*
X186778570Y-110523533D02*
X186778570Y-110761628D01*
X186778570Y-110761628D02*
X186730951Y-110952104D01*
X186730951Y-110952104D02*
X186683332Y-111047342D01*
X186683332Y-111047342D02*
X186635713Y-111094961D01*
X186635713Y-111094961D02*
X186540475Y-111142580D01*
X185826189Y-111047342D02*
X185778570Y-111094961D01*
X185778570Y-111094961D02*
X185683332Y-111142580D01*
X185683332Y-111142580D02*
X185445237Y-111142580D01*
X185445237Y-111142580D02*
X185349999Y-111094961D01*
X185349999Y-111094961D02*
X185302380Y-111047342D01*
X185302380Y-111047342D02*
X185254761Y-110952104D01*
X185254761Y-110952104D02*
X185254761Y-110856866D01*
X185254761Y-110856866D02*
X185302380Y-110714009D01*
X185302380Y-110714009D02*
X185873808Y-110142580D01*
X185873808Y-110142580D02*
X185254761Y-110142580D01*
X184826189Y-110523533D02*
X184064285Y-110523533D01*
X183111904Y-111142580D02*
X183588094Y-111142580D01*
X183588094Y-111142580D02*
X183635713Y-110666390D01*
X183635713Y-110666390D02*
X183588094Y-110714009D01*
X183588094Y-110714009D02*
X183492856Y-110761628D01*
X183492856Y-110761628D02*
X183254761Y-110761628D01*
X183254761Y-110761628D02*
X183159523Y-110714009D01*
X183159523Y-110714009D02*
X183111904Y-110666390D01*
X183111904Y-110666390D02*
X183064285Y-110571152D01*
X183064285Y-110571152D02*
X183064285Y-110333057D01*
X183064285Y-110333057D02*
X183111904Y-110237819D01*
X183111904Y-110237819D02*
X183159523Y-110190200D01*
X183159523Y-110190200D02*
X183254761Y-110142580D01*
X183254761Y-110142580D02*
X183492856Y-110142580D01*
X183492856Y-110142580D02*
X183588094Y-110190200D01*
X183588094Y-110190200D02*
X183635713Y-110237819D01*
D11*
X155916666Y-65204819D02*
X155916666Y-65919104D01*
X155916666Y-65919104D02*
X155869047Y-66061961D01*
X155869047Y-66061961D02*
X155773809Y-66157200D01*
X155773809Y-66157200D02*
X155630952Y-66204819D01*
X155630952Y-66204819D02*
X155535714Y-66204819D01*
X156916666Y-66204819D02*
X156345238Y-66204819D01*
X156630952Y-66204819D02*
X156630952Y-65204819D01*
X156630952Y-65204819D02*
X156535714Y-65347676D01*
X156535714Y-65347676D02*
X156440476Y-65442914D01*
X156440476Y-65442914D02*
X156345238Y-65490533D01*
X164154761Y-32800057D02*
X164059523Y-32752438D01*
X164059523Y-32752438D02*
X163964285Y-32657200D01*
X163964285Y-32657200D02*
X163821428Y-32514342D01*
X163821428Y-32514342D02*
X163726190Y-32466723D01*
X163726190Y-32466723D02*
X163630952Y-32466723D01*
X163678571Y-32704819D02*
X163583333Y-32657200D01*
X163583333Y-32657200D02*
X163488095Y-32561961D01*
X163488095Y-32561961D02*
X163440476Y-32371485D01*
X163440476Y-32371485D02*
X163440476Y-32038152D01*
X163440476Y-32038152D02*
X163488095Y-31847676D01*
X163488095Y-31847676D02*
X163583333Y-31752438D01*
X163583333Y-31752438D02*
X163678571Y-31704819D01*
X163678571Y-31704819D02*
X163869047Y-31704819D01*
X163869047Y-31704819D02*
X163964285Y-31752438D01*
X163964285Y-31752438D02*
X164059523Y-31847676D01*
X164059523Y-31847676D02*
X164107142Y-32038152D01*
X164107142Y-32038152D02*
X164107142Y-32371485D01*
X164107142Y-32371485D02*
X164059523Y-32561961D01*
X164059523Y-32561961D02*
X163964285Y-32657200D01*
X163964285Y-32657200D02*
X163869047Y-32704819D01*
X163869047Y-32704819D02*
X163678571Y-32704819D01*
X165059523Y-32704819D02*
X164488095Y-32704819D01*
X164773809Y-32704819D02*
X164773809Y-31704819D01*
X164773809Y-31704819D02*
X164678571Y-31847676D01*
X164678571Y-31847676D02*
X164583333Y-31942914D01*
X164583333Y-31942914D02*
X164488095Y-31990533D01*
X161999999Y-46454819D02*
X161666666Y-45978628D01*
X161428571Y-46454819D02*
X161428571Y-45454819D01*
X161428571Y-45454819D02*
X161809523Y-45454819D01*
X161809523Y-45454819D02*
X161904761Y-45502438D01*
X161904761Y-45502438D02*
X161952380Y-45550057D01*
X161952380Y-45550057D02*
X161999999Y-45645295D01*
X161999999Y-45645295D02*
X161999999Y-45788152D01*
X161999999Y-45788152D02*
X161952380Y-45883390D01*
X161952380Y-45883390D02*
X161904761Y-45931009D01*
X161904761Y-45931009D02*
X161809523Y-45978628D01*
X161809523Y-45978628D02*
X161428571Y-45978628D01*
X162952380Y-46454819D02*
X162380952Y-46454819D01*
X162666666Y-46454819D02*
X162666666Y-45454819D01*
X162666666Y-45454819D02*
X162571428Y-45597676D01*
X162571428Y-45597676D02*
X162476190Y-45692914D01*
X162476190Y-45692914D02*
X162380952Y-45740533D01*
X163571428Y-45454819D02*
X163666666Y-45454819D01*
X163666666Y-45454819D02*
X163761904Y-45502438D01*
X163761904Y-45502438D02*
X163809523Y-45550057D01*
X163809523Y-45550057D02*
X163857142Y-45645295D01*
X163857142Y-45645295D02*
X163904761Y-45835771D01*
X163904761Y-45835771D02*
X163904761Y-46073866D01*
X163904761Y-46073866D02*
X163857142Y-46264342D01*
X163857142Y-46264342D02*
X163809523Y-46359580D01*
X163809523Y-46359580D02*
X163761904Y-46407200D01*
X163761904Y-46407200D02*
X163666666Y-46454819D01*
X163666666Y-46454819D02*
X163571428Y-46454819D01*
X163571428Y-46454819D02*
X163476190Y-46407200D01*
X163476190Y-46407200D02*
X163428571Y-46359580D01*
X163428571Y-46359580D02*
X163380952Y-46264342D01*
X163380952Y-46264342D02*
X163333333Y-46073866D01*
X163333333Y-46073866D02*
X163333333Y-45835771D01*
X163333333Y-45835771D02*
X163380952Y-45645295D01*
X163380952Y-45645295D02*
X163428571Y-45550057D01*
X163428571Y-45550057D02*
X163476190Y-45502438D01*
X163476190Y-45502438D02*
X163571428Y-45454819D01*
X164523809Y-45454819D02*
X164619047Y-45454819D01*
X164619047Y-45454819D02*
X164714285Y-45502438D01*
X164714285Y-45502438D02*
X164761904Y-45550057D01*
X164761904Y-45550057D02*
X164809523Y-45645295D01*
X164809523Y-45645295D02*
X164857142Y-45835771D01*
X164857142Y-45835771D02*
X164857142Y-46073866D01*
X164857142Y-46073866D02*
X164809523Y-46264342D01*
X164809523Y-46264342D02*
X164761904Y-46359580D01*
X164761904Y-46359580D02*
X164714285Y-46407200D01*
X164714285Y-46407200D02*
X164619047Y-46454819D01*
X164619047Y-46454819D02*
X164523809Y-46454819D01*
X164523809Y-46454819D02*
X164428571Y-46407200D01*
X164428571Y-46407200D02*
X164380952Y-46359580D01*
X164380952Y-46359580D02*
X164333333Y-46264342D01*
X164333333Y-46264342D02*
X164285714Y-46073866D01*
X164285714Y-46073866D02*
X164285714Y-45835771D01*
X164285714Y-45835771D02*
X164333333Y-45645295D01*
X164333333Y-45645295D02*
X164380952Y-45550057D01*
X164380952Y-45550057D02*
X164428571Y-45502438D01*
X164428571Y-45502438D02*
X164523809Y-45454819D01*
X165285714Y-46454819D02*
X165285714Y-45454819D01*
X165380952Y-46073866D02*
X165666666Y-46454819D01*
X165666666Y-45788152D02*
X165285714Y-46169104D01*
X166619047Y-46454819D02*
X166047619Y-46454819D01*
X166333333Y-46454819D02*
X166333333Y-45454819D01*
X166333333Y-45454819D02*
X166238095Y-45597676D01*
X166238095Y-45597676D02*
X166142857Y-45692914D01*
X166142857Y-45692914D02*
X166047619Y-45740533D01*
X173706666Y-64694819D02*
X173706666Y-65409104D01*
X173706666Y-65409104D02*
X173659047Y-65551961D01*
X173659047Y-65551961D02*
X173563809Y-65647200D01*
X173563809Y-65647200D02*
X173420952Y-65694819D01*
X173420952Y-65694819D02*
X173325714Y-65694819D01*
X174611428Y-64694819D02*
X174420952Y-64694819D01*
X174420952Y-64694819D02*
X174325714Y-64742438D01*
X174325714Y-64742438D02*
X174278095Y-64790057D01*
X174278095Y-64790057D02*
X174182857Y-64932914D01*
X174182857Y-64932914D02*
X174135238Y-65123390D01*
X174135238Y-65123390D02*
X174135238Y-65504342D01*
X174135238Y-65504342D02*
X174182857Y-65599580D01*
X174182857Y-65599580D02*
X174230476Y-65647200D01*
X174230476Y-65647200D02*
X174325714Y-65694819D01*
X174325714Y-65694819D02*
X174516190Y-65694819D01*
X174516190Y-65694819D02*
X174611428Y-65647200D01*
X174611428Y-65647200D02*
X174659047Y-65599580D01*
X174659047Y-65599580D02*
X174706666Y-65504342D01*
X174706666Y-65504342D02*
X174706666Y-65266247D01*
X174706666Y-65266247D02*
X174659047Y-65171009D01*
X174659047Y-65171009D02*
X174611428Y-65123390D01*
X174611428Y-65123390D02*
X174516190Y-65075771D01*
X174516190Y-65075771D02*
X174325714Y-65075771D01*
X174325714Y-65075771D02*
X174230476Y-65123390D01*
X174230476Y-65123390D02*
X174182857Y-65171009D01*
X174182857Y-65171009D02*
X174135238Y-65266247D01*
D10*
X163132580Y-50411905D02*
X164132580Y-50411905D01*
X164132580Y-50411905D02*
X163132580Y-50983333D01*
X163132580Y-50983333D02*
X164132580Y-50983333D01*
X163418295Y-51411905D02*
X163418295Y-51888095D01*
X163132580Y-51316667D02*
X164132580Y-51650000D01*
X164132580Y-51650000D02*
X163132580Y-51983333D01*
X164132580Y-52316667D02*
X163323057Y-52316667D01*
X163323057Y-52316667D02*
X163227819Y-52364286D01*
X163227819Y-52364286D02*
X163180200Y-52411905D01*
X163180200Y-52411905D02*
X163132580Y-52507143D01*
X163132580Y-52507143D02*
X163132580Y-52697619D01*
X163132580Y-52697619D02*
X163180200Y-52792857D01*
X163180200Y-52792857D02*
X163227819Y-52840476D01*
X163227819Y-52840476D02*
X163323057Y-52888095D01*
X163323057Y-52888095D02*
X164132580Y-52888095D01*
X164132580Y-53269048D02*
X164132580Y-53935714D01*
X164132580Y-53935714D02*
X163132580Y-53507143D01*
X163704009Y-54459524D02*
X163751628Y-54364286D01*
X163751628Y-54364286D02*
X163799247Y-54316667D01*
X163799247Y-54316667D02*
X163894485Y-54269048D01*
X163894485Y-54269048D02*
X163942104Y-54269048D01*
X163942104Y-54269048D02*
X164037342Y-54316667D01*
X164037342Y-54316667D02*
X164084961Y-54364286D01*
X164084961Y-54364286D02*
X164132580Y-54459524D01*
X164132580Y-54459524D02*
X164132580Y-54650000D01*
X164132580Y-54650000D02*
X164084961Y-54745238D01*
X164084961Y-54745238D02*
X164037342Y-54792857D01*
X164037342Y-54792857D02*
X163942104Y-54840476D01*
X163942104Y-54840476D02*
X163894485Y-54840476D01*
X163894485Y-54840476D02*
X163799247Y-54792857D01*
X163799247Y-54792857D02*
X163751628Y-54745238D01*
X163751628Y-54745238D02*
X163704009Y-54650000D01*
X163704009Y-54650000D02*
X163704009Y-54459524D01*
X163704009Y-54459524D02*
X163656390Y-54364286D01*
X163656390Y-54364286D02*
X163608771Y-54316667D01*
X163608771Y-54316667D02*
X163513533Y-54269048D01*
X163513533Y-54269048D02*
X163323057Y-54269048D01*
X163323057Y-54269048D02*
X163227819Y-54316667D01*
X163227819Y-54316667D02*
X163180200Y-54364286D01*
X163180200Y-54364286D02*
X163132580Y-54459524D01*
X163132580Y-54459524D02*
X163132580Y-54650000D01*
X163132580Y-54650000D02*
X163180200Y-54745238D01*
X163180200Y-54745238D02*
X163227819Y-54792857D01*
X163227819Y-54792857D02*
X163323057Y-54840476D01*
X163323057Y-54840476D02*
X163513533Y-54840476D01*
X163513533Y-54840476D02*
X163608771Y-54792857D01*
X163608771Y-54792857D02*
X163656390Y-54745238D01*
X163656390Y-54745238D02*
X163704009Y-54650000D01*
X164132580Y-55459524D02*
X164132580Y-55554762D01*
X164132580Y-55554762D02*
X164084961Y-55650000D01*
X164084961Y-55650000D02*
X164037342Y-55697619D01*
X164037342Y-55697619D02*
X163942104Y-55745238D01*
X163942104Y-55745238D02*
X163751628Y-55792857D01*
X163751628Y-55792857D02*
X163513533Y-55792857D01*
X163513533Y-55792857D02*
X163323057Y-55745238D01*
X163323057Y-55745238D02*
X163227819Y-55697619D01*
X163227819Y-55697619D02*
X163180200Y-55650000D01*
X163180200Y-55650000D02*
X163132580Y-55554762D01*
X163132580Y-55554762D02*
X163132580Y-55459524D01*
X163132580Y-55459524D02*
X163180200Y-55364286D01*
X163180200Y-55364286D02*
X163227819Y-55316667D01*
X163227819Y-55316667D02*
X163323057Y-55269048D01*
X163323057Y-55269048D02*
X163513533Y-55221429D01*
X163513533Y-55221429D02*
X163751628Y-55221429D01*
X163751628Y-55221429D02*
X163942104Y-55269048D01*
X163942104Y-55269048D02*
X164037342Y-55316667D01*
X164037342Y-55316667D02*
X164084961Y-55364286D01*
X164084961Y-55364286D02*
X164132580Y-55459524D01*
X164037342Y-56173810D02*
X164084961Y-56221429D01*
X164084961Y-56221429D02*
X164132580Y-56316667D01*
X164132580Y-56316667D02*
X164132580Y-56554762D01*
X164132580Y-56554762D02*
X164084961Y-56650000D01*
X164084961Y-56650000D02*
X164037342Y-56697619D01*
X164037342Y-56697619D02*
X163942104Y-56745238D01*
X163942104Y-56745238D02*
X163846866Y-56745238D01*
X163846866Y-56745238D02*
X163704009Y-56697619D01*
X163704009Y-56697619D02*
X163132580Y-56126191D01*
X163132580Y-56126191D02*
X163132580Y-56745238D01*
X163513533Y-57173810D02*
X163513533Y-57935715D01*
X163704009Y-58554762D02*
X163751628Y-58459524D01*
X163751628Y-58459524D02*
X163799247Y-58411905D01*
X163799247Y-58411905D02*
X163894485Y-58364286D01*
X163894485Y-58364286D02*
X163942104Y-58364286D01*
X163942104Y-58364286D02*
X164037342Y-58411905D01*
X164037342Y-58411905D02*
X164084961Y-58459524D01*
X164084961Y-58459524D02*
X164132580Y-58554762D01*
X164132580Y-58554762D02*
X164132580Y-58745238D01*
X164132580Y-58745238D02*
X164084961Y-58840476D01*
X164084961Y-58840476D02*
X164037342Y-58888095D01*
X164037342Y-58888095D02*
X163942104Y-58935714D01*
X163942104Y-58935714D02*
X163894485Y-58935714D01*
X163894485Y-58935714D02*
X163799247Y-58888095D01*
X163799247Y-58888095D02*
X163751628Y-58840476D01*
X163751628Y-58840476D02*
X163704009Y-58745238D01*
X163704009Y-58745238D02*
X163704009Y-58554762D01*
X163704009Y-58554762D02*
X163656390Y-58459524D01*
X163656390Y-58459524D02*
X163608771Y-58411905D01*
X163608771Y-58411905D02*
X163513533Y-58364286D01*
X163513533Y-58364286D02*
X163323057Y-58364286D01*
X163323057Y-58364286D02*
X163227819Y-58411905D01*
X163227819Y-58411905D02*
X163180200Y-58459524D01*
X163180200Y-58459524D02*
X163132580Y-58554762D01*
X163132580Y-58554762D02*
X163132580Y-58745238D01*
X163132580Y-58745238D02*
X163180200Y-58840476D01*
X163180200Y-58840476D02*
X163227819Y-58888095D01*
X163227819Y-58888095D02*
X163323057Y-58935714D01*
X163323057Y-58935714D02*
X163513533Y-58935714D01*
X163513533Y-58935714D02*
X163608771Y-58888095D01*
X163608771Y-58888095D02*
X163656390Y-58840476D01*
X163656390Y-58840476D02*
X163704009Y-58745238D01*
X183357419Y-34202856D02*
X183357419Y-33631428D01*
X184357419Y-33917142D02*
X183357419Y-33917142D01*
X184357419Y-33298094D02*
X183357419Y-33298094D01*
X183357419Y-33298094D02*
X183357419Y-32917142D01*
X183357419Y-32917142D02*
X183405038Y-32821904D01*
X183405038Y-32821904D02*
X183452657Y-32774285D01*
X183452657Y-32774285D02*
X183547895Y-32726666D01*
X183547895Y-32726666D02*
X183690752Y-32726666D01*
X183690752Y-32726666D02*
X183785990Y-32774285D01*
X183785990Y-32774285D02*
X183833609Y-32821904D01*
X183833609Y-32821904D02*
X183881228Y-32917142D01*
X183881228Y-32917142D02*
X183881228Y-33298094D01*
X184309800Y-32345713D02*
X184357419Y-32202856D01*
X184357419Y-32202856D02*
X184357419Y-31964761D01*
X184357419Y-31964761D02*
X184309800Y-31869523D01*
X184309800Y-31869523D02*
X184262180Y-31821904D01*
X184262180Y-31821904D02*
X184166942Y-31774285D01*
X184166942Y-31774285D02*
X184071704Y-31774285D01*
X184071704Y-31774285D02*
X183976466Y-31821904D01*
X183976466Y-31821904D02*
X183928847Y-31869523D01*
X183928847Y-31869523D02*
X183881228Y-31964761D01*
X183881228Y-31964761D02*
X183833609Y-32155237D01*
X183833609Y-32155237D02*
X183785990Y-32250475D01*
X183785990Y-32250475D02*
X183738371Y-32298094D01*
X183738371Y-32298094D02*
X183643133Y-32345713D01*
X183643133Y-32345713D02*
X183547895Y-32345713D01*
X183547895Y-32345713D02*
X183452657Y-32298094D01*
X183452657Y-32298094D02*
X183405038Y-32250475D01*
X183405038Y-32250475D02*
X183357419Y-32155237D01*
X183357419Y-32155237D02*
X183357419Y-31917142D01*
X183357419Y-31917142D02*
X183405038Y-31774285D01*
X183357419Y-30917142D02*
X183357419Y-31107618D01*
X183357419Y-31107618D02*
X183405038Y-31202856D01*
X183405038Y-31202856D02*
X183452657Y-31250475D01*
X183452657Y-31250475D02*
X183595514Y-31345713D01*
X183595514Y-31345713D02*
X183785990Y-31393332D01*
X183785990Y-31393332D02*
X184166942Y-31393332D01*
X184166942Y-31393332D02*
X184262180Y-31345713D01*
X184262180Y-31345713D02*
X184309800Y-31298094D01*
X184309800Y-31298094D02*
X184357419Y-31202856D01*
X184357419Y-31202856D02*
X184357419Y-31012380D01*
X184357419Y-31012380D02*
X184309800Y-30917142D01*
X184309800Y-30917142D02*
X184262180Y-30869523D01*
X184262180Y-30869523D02*
X184166942Y-30821904D01*
X184166942Y-30821904D02*
X183928847Y-30821904D01*
X183928847Y-30821904D02*
X183833609Y-30869523D01*
X183833609Y-30869523D02*
X183785990Y-30917142D01*
X183785990Y-30917142D02*
X183738371Y-31012380D01*
X183738371Y-31012380D02*
X183738371Y-31202856D01*
X183738371Y-31202856D02*
X183785990Y-31298094D01*
X183785990Y-31298094D02*
X183833609Y-31345713D01*
X183833609Y-31345713D02*
X183928847Y-31393332D01*
X183357419Y-30488570D02*
X183357419Y-29869523D01*
X183357419Y-29869523D02*
X183738371Y-30202856D01*
X183738371Y-30202856D02*
X183738371Y-30059999D01*
X183738371Y-30059999D02*
X183785990Y-29964761D01*
X183785990Y-29964761D02*
X183833609Y-29917142D01*
X183833609Y-29917142D02*
X183928847Y-29869523D01*
X183928847Y-29869523D02*
X184166942Y-29869523D01*
X184166942Y-29869523D02*
X184262180Y-29917142D01*
X184262180Y-29917142D02*
X184309800Y-29964761D01*
X184309800Y-29964761D02*
X184357419Y-30059999D01*
X184357419Y-30059999D02*
X184357419Y-30345713D01*
X184357419Y-30345713D02*
X184309800Y-30440951D01*
X184309800Y-30440951D02*
X184262180Y-30488570D01*
X183357419Y-29250475D02*
X183357419Y-29155237D01*
X183357419Y-29155237D02*
X183405038Y-29059999D01*
X183405038Y-29059999D02*
X183452657Y-29012380D01*
X183452657Y-29012380D02*
X183547895Y-28964761D01*
X183547895Y-28964761D02*
X183738371Y-28917142D01*
X183738371Y-28917142D02*
X183976466Y-28917142D01*
X183976466Y-28917142D02*
X184166942Y-28964761D01*
X184166942Y-28964761D02*
X184262180Y-29012380D01*
X184262180Y-29012380D02*
X184309800Y-29059999D01*
X184309800Y-29059999D02*
X184357419Y-29155237D01*
X184357419Y-29155237D02*
X184357419Y-29250475D01*
X184357419Y-29250475D02*
X184309800Y-29345713D01*
X184309800Y-29345713D02*
X184262180Y-29393332D01*
X184262180Y-29393332D02*
X184166942Y-29440951D01*
X184166942Y-29440951D02*
X183976466Y-29488570D01*
X183976466Y-29488570D02*
X183738371Y-29488570D01*
X183738371Y-29488570D02*
X183547895Y-29440951D01*
X183547895Y-29440951D02*
X183452657Y-29393332D01*
X183452657Y-29393332D02*
X183405038Y-29345713D01*
X183405038Y-29345713D02*
X183357419Y-29250475D01*
X183452657Y-28536189D02*
X183405038Y-28488570D01*
X183405038Y-28488570D02*
X183357419Y-28393332D01*
X183357419Y-28393332D02*
X183357419Y-28155237D01*
X183357419Y-28155237D02*
X183405038Y-28059999D01*
X183405038Y-28059999D02*
X183452657Y-28012380D01*
X183452657Y-28012380D02*
X183547895Y-27964761D01*
X183547895Y-27964761D02*
X183643133Y-27964761D01*
X183643133Y-27964761D02*
X183785990Y-28012380D01*
X183785990Y-28012380D02*
X184357419Y-28583808D01*
X184357419Y-28583808D02*
X184357419Y-27964761D01*
X183357419Y-27345713D02*
X183357419Y-27250475D01*
X183357419Y-27250475D02*
X183405038Y-27155237D01*
X183405038Y-27155237D02*
X183452657Y-27107618D01*
X183452657Y-27107618D02*
X183547895Y-27059999D01*
X183547895Y-27059999D02*
X183738371Y-27012380D01*
X183738371Y-27012380D02*
X183976466Y-27012380D01*
X183976466Y-27012380D02*
X184166942Y-27059999D01*
X184166942Y-27059999D02*
X184262180Y-27107618D01*
X184262180Y-27107618D02*
X184309800Y-27155237D01*
X184309800Y-27155237D02*
X184357419Y-27250475D01*
X184357419Y-27250475D02*
X184357419Y-27345713D01*
X184357419Y-27345713D02*
X184309800Y-27440951D01*
X184309800Y-27440951D02*
X184262180Y-27488570D01*
X184262180Y-27488570D02*
X184166942Y-27536189D01*
X184166942Y-27536189D02*
X183976466Y-27583808D01*
X183976466Y-27583808D02*
X183738371Y-27583808D01*
X183738371Y-27583808D02*
X183547895Y-27536189D01*
X183547895Y-27536189D02*
X183452657Y-27488570D01*
X183452657Y-27488570D02*
X183405038Y-27440951D01*
X183405038Y-27440951D02*
X183357419Y-27345713D01*
X175022419Y-38698972D02*
X176022419Y-38365639D01*
X176022419Y-38365639D02*
X175022419Y-38032306D01*
X176022419Y-37698972D02*
X175022419Y-37698972D01*
X176022419Y-37222782D02*
X175022419Y-37222782D01*
X175022419Y-37222782D02*
X176022419Y-36651354D01*
X176022419Y-36651354D02*
X175022419Y-36651354D01*
X175170038Y-24932306D02*
X175122419Y-25027544D01*
X175122419Y-25027544D02*
X175122419Y-25170401D01*
X175122419Y-25170401D02*
X175170038Y-25313258D01*
X175170038Y-25313258D02*
X175265276Y-25408496D01*
X175265276Y-25408496D02*
X175360514Y-25456115D01*
X175360514Y-25456115D02*
X175550990Y-25503734D01*
X175550990Y-25503734D02*
X175693847Y-25503734D01*
X175693847Y-25503734D02*
X175884323Y-25456115D01*
X175884323Y-25456115D02*
X175979561Y-25408496D01*
X175979561Y-25408496D02*
X176074800Y-25313258D01*
X176074800Y-25313258D02*
X176122419Y-25170401D01*
X176122419Y-25170401D02*
X176122419Y-25075163D01*
X176122419Y-25075163D02*
X176074800Y-24932306D01*
X176074800Y-24932306D02*
X176027180Y-24884687D01*
X176027180Y-24884687D02*
X175693847Y-24884687D01*
X175693847Y-24884687D02*
X175693847Y-25075163D01*
X176122419Y-24456115D02*
X175122419Y-24456115D01*
X175122419Y-24456115D02*
X176122419Y-23884687D01*
X176122419Y-23884687D02*
X175122419Y-23884687D01*
X176122419Y-23408496D02*
X175122419Y-23408496D01*
X175122419Y-23408496D02*
X175122419Y-23170401D01*
X175122419Y-23170401D02*
X175170038Y-23027544D01*
X175170038Y-23027544D02*
X175265276Y-22932306D01*
X175265276Y-22932306D02*
X175360514Y-22884687D01*
X175360514Y-22884687D02*
X175550990Y-22837068D01*
X175550990Y-22837068D02*
X175693847Y-22837068D01*
X175693847Y-22837068D02*
X175884323Y-22884687D01*
X175884323Y-22884687D02*
X175979561Y-22932306D01*
X175979561Y-22932306D02*
X176074800Y-23027544D01*
X176074800Y-23027544D02*
X176122419Y-23170401D01*
X176122419Y-23170401D02*
X176122419Y-23408496D01*
X192070038Y-24932306D02*
X192022419Y-25027544D01*
X192022419Y-25027544D02*
X192022419Y-25170401D01*
X192022419Y-25170401D02*
X192070038Y-25313258D01*
X192070038Y-25313258D02*
X192165276Y-25408496D01*
X192165276Y-25408496D02*
X192260514Y-25456115D01*
X192260514Y-25456115D02*
X192450990Y-25503734D01*
X192450990Y-25503734D02*
X192593847Y-25503734D01*
X192593847Y-25503734D02*
X192784323Y-25456115D01*
X192784323Y-25456115D02*
X192879561Y-25408496D01*
X192879561Y-25408496D02*
X192974800Y-25313258D01*
X192974800Y-25313258D02*
X193022419Y-25170401D01*
X193022419Y-25170401D02*
X193022419Y-25075163D01*
X193022419Y-25075163D02*
X192974800Y-24932306D01*
X192974800Y-24932306D02*
X192927180Y-24884687D01*
X192927180Y-24884687D02*
X192593847Y-24884687D01*
X192593847Y-24884687D02*
X192593847Y-25075163D01*
X193022419Y-24456115D02*
X192022419Y-24456115D01*
X192022419Y-24456115D02*
X193022419Y-23884687D01*
X193022419Y-23884687D02*
X192022419Y-23884687D01*
X193022419Y-23408496D02*
X192022419Y-23408496D01*
X192022419Y-23408496D02*
X192022419Y-23170401D01*
X192022419Y-23170401D02*
X192070038Y-23027544D01*
X192070038Y-23027544D02*
X192165276Y-22932306D01*
X192165276Y-22932306D02*
X192260514Y-22884687D01*
X192260514Y-22884687D02*
X192450990Y-22837068D01*
X192450990Y-22837068D02*
X192593847Y-22837068D01*
X192593847Y-22837068D02*
X192784323Y-22884687D01*
X192784323Y-22884687D02*
X192879561Y-22932306D01*
X192879561Y-22932306D02*
X192974800Y-23027544D01*
X192974800Y-23027544D02*
X193022419Y-23170401D01*
X193022419Y-23170401D02*
X193022419Y-23408496D01*
X192122419Y-38451353D02*
X192122419Y-37832306D01*
X192122419Y-37832306D02*
X192503371Y-38165639D01*
X192503371Y-38165639D02*
X192503371Y-38022782D01*
X192503371Y-38022782D02*
X192550990Y-37927544D01*
X192550990Y-37927544D02*
X192598609Y-37879925D01*
X192598609Y-37879925D02*
X192693847Y-37832306D01*
X192693847Y-37832306D02*
X192931942Y-37832306D01*
X192931942Y-37832306D02*
X193027180Y-37879925D01*
X193027180Y-37879925D02*
X193074800Y-37927544D01*
X193074800Y-37927544D02*
X193122419Y-38022782D01*
X193122419Y-38022782D02*
X193122419Y-38308496D01*
X193122419Y-38308496D02*
X193074800Y-38403734D01*
X193074800Y-38403734D02*
X193027180Y-38451353D01*
X193027180Y-37403734D02*
X193074800Y-37356115D01*
X193074800Y-37356115D02*
X193122419Y-37403734D01*
X193122419Y-37403734D02*
X193074800Y-37451353D01*
X193074800Y-37451353D02*
X193027180Y-37403734D01*
X193027180Y-37403734D02*
X193122419Y-37403734D01*
X192122419Y-37022782D02*
X192122419Y-36403735D01*
X192122419Y-36403735D02*
X192503371Y-36737068D01*
X192503371Y-36737068D02*
X192503371Y-36594211D01*
X192503371Y-36594211D02*
X192550990Y-36498973D01*
X192550990Y-36498973D02*
X192598609Y-36451354D01*
X192598609Y-36451354D02*
X192693847Y-36403735D01*
X192693847Y-36403735D02*
X192931942Y-36403735D01*
X192931942Y-36403735D02*
X193027180Y-36451354D01*
X193027180Y-36451354D02*
X193074800Y-36498973D01*
X193074800Y-36498973D02*
X193122419Y-36594211D01*
X193122419Y-36594211D02*
X193122419Y-36879925D01*
X193122419Y-36879925D02*
X193074800Y-36975163D01*
X193074800Y-36975163D02*
X193027180Y-37022782D01*
X192122419Y-36118020D02*
X193122419Y-35784687D01*
X193122419Y-35784687D02*
X192122419Y-35451354D01*
D11*
X151039761Y-37584819D02*
X150706428Y-37108628D01*
X150468333Y-37584819D02*
X150468333Y-36584819D01*
X150468333Y-36584819D02*
X150849285Y-36584819D01*
X150849285Y-36584819D02*
X150944523Y-36632438D01*
X150944523Y-36632438D02*
X150992142Y-36680057D01*
X150992142Y-36680057D02*
X151039761Y-36775295D01*
X151039761Y-36775295D02*
X151039761Y-36918152D01*
X151039761Y-36918152D02*
X150992142Y-37013390D01*
X150992142Y-37013390D02*
X150944523Y-37061009D01*
X150944523Y-37061009D02*
X150849285Y-37108628D01*
X150849285Y-37108628D02*
X150468333Y-37108628D01*
X151992142Y-37584819D02*
X151420714Y-37584819D01*
X151706428Y-37584819D02*
X151706428Y-36584819D01*
X151706428Y-36584819D02*
X151611190Y-36727676D01*
X151611190Y-36727676D02*
X151515952Y-36822914D01*
X151515952Y-36822914D02*
X151420714Y-36870533D01*
X152611190Y-36584819D02*
X152706428Y-36584819D01*
X152706428Y-36584819D02*
X152801666Y-36632438D01*
X152801666Y-36632438D02*
X152849285Y-36680057D01*
X152849285Y-36680057D02*
X152896904Y-36775295D01*
X152896904Y-36775295D02*
X152944523Y-36965771D01*
X152944523Y-36965771D02*
X152944523Y-37203866D01*
X152944523Y-37203866D02*
X152896904Y-37394342D01*
X152896904Y-37394342D02*
X152849285Y-37489580D01*
X152849285Y-37489580D02*
X152801666Y-37537200D01*
X152801666Y-37537200D02*
X152706428Y-37584819D01*
X152706428Y-37584819D02*
X152611190Y-37584819D01*
X152611190Y-37584819D02*
X152515952Y-37537200D01*
X152515952Y-37537200D02*
X152468333Y-37489580D01*
X152468333Y-37489580D02*
X152420714Y-37394342D01*
X152420714Y-37394342D02*
X152373095Y-37203866D01*
X152373095Y-37203866D02*
X152373095Y-36965771D01*
X152373095Y-36965771D02*
X152420714Y-36775295D01*
X152420714Y-36775295D02*
X152468333Y-36680057D01*
X152468333Y-36680057D02*
X152515952Y-36632438D01*
X152515952Y-36632438D02*
X152611190Y-36584819D01*
X153563571Y-36584819D02*
X153658809Y-36584819D01*
X153658809Y-36584819D02*
X153754047Y-36632438D01*
X153754047Y-36632438D02*
X153801666Y-36680057D01*
X153801666Y-36680057D02*
X153849285Y-36775295D01*
X153849285Y-36775295D02*
X153896904Y-36965771D01*
X153896904Y-36965771D02*
X153896904Y-37203866D01*
X153896904Y-37203866D02*
X153849285Y-37394342D01*
X153849285Y-37394342D02*
X153801666Y-37489580D01*
X153801666Y-37489580D02*
X153754047Y-37537200D01*
X153754047Y-37537200D02*
X153658809Y-37584819D01*
X153658809Y-37584819D02*
X153563571Y-37584819D01*
X153563571Y-37584819D02*
X153468333Y-37537200D01*
X153468333Y-37537200D02*
X153420714Y-37489580D01*
X153420714Y-37489580D02*
X153373095Y-37394342D01*
X153373095Y-37394342D02*
X153325476Y-37203866D01*
X153325476Y-37203866D02*
X153325476Y-36965771D01*
X153325476Y-36965771D02*
X153373095Y-36775295D01*
X153373095Y-36775295D02*
X153420714Y-36680057D01*
X153420714Y-36680057D02*
X153468333Y-36632438D01*
X153468333Y-36632438D02*
X153563571Y-36584819D01*
X154896904Y-37584819D02*
X154563571Y-37108628D01*
X154325476Y-37584819D02*
X154325476Y-36584819D01*
X154325476Y-36584819D02*
X154706428Y-36584819D01*
X154706428Y-36584819D02*
X154801666Y-36632438D01*
X154801666Y-36632438D02*
X154849285Y-36680057D01*
X154849285Y-36680057D02*
X154896904Y-36775295D01*
X154896904Y-36775295D02*
X154896904Y-36918152D01*
X154896904Y-36918152D02*
X154849285Y-37013390D01*
X154849285Y-37013390D02*
X154801666Y-37061009D01*
X154801666Y-37061009D02*
X154706428Y-37108628D01*
X154706428Y-37108628D02*
X154325476Y-37108628D01*
X155849285Y-37584819D02*
X155277857Y-37584819D01*
X155563571Y-37584819D02*
X155563571Y-36584819D01*
X155563571Y-36584819D02*
X155468333Y-36727676D01*
X155468333Y-36727676D02*
X155373095Y-36822914D01*
X155373095Y-36822914D02*
X155277857Y-36870533D01*
X170916666Y-65454819D02*
X170916666Y-66169104D01*
X170916666Y-66169104D02*
X170869047Y-66311961D01*
X170869047Y-66311961D02*
X170773809Y-66407200D01*
X170773809Y-66407200D02*
X170630952Y-66454819D01*
X170630952Y-66454819D02*
X170535714Y-66454819D01*
X171345238Y-65550057D02*
X171392857Y-65502438D01*
X171392857Y-65502438D02*
X171488095Y-65454819D01*
X171488095Y-65454819D02*
X171726190Y-65454819D01*
X171726190Y-65454819D02*
X171821428Y-65502438D01*
X171821428Y-65502438D02*
X171869047Y-65550057D01*
X171869047Y-65550057D02*
X171916666Y-65645295D01*
X171916666Y-65645295D02*
X171916666Y-65740533D01*
X171916666Y-65740533D02*
X171869047Y-65883390D01*
X171869047Y-65883390D02*
X171297619Y-66454819D01*
X171297619Y-66454819D02*
X171916666Y-66454819D01*
D10*
X163407419Y-114038094D02*
X162407419Y-114038094D01*
X162407419Y-114038094D02*
X163407419Y-113466666D01*
X163407419Y-113466666D02*
X162407419Y-113466666D01*
X163121704Y-113038094D02*
X163121704Y-112561904D01*
X163407419Y-113133332D02*
X162407419Y-112799999D01*
X162407419Y-112799999D02*
X163407419Y-112466666D01*
X162407419Y-112133332D02*
X163216942Y-112133332D01*
X163216942Y-112133332D02*
X163312180Y-112085713D01*
X163312180Y-112085713D02*
X163359800Y-112038094D01*
X163359800Y-112038094D02*
X163407419Y-111942856D01*
X163407419Y-111942856D02*
X163407419Y-111752380D01*
X163407419Y-111752380D02*
X163359800Y-111657142D01*
X163359800Y-111657142D02*
X163312180Y-111609523D01*
X163312180Y-111609523D02*
X163216942Y-111561904D01*
X163216942Y-111561904D02*
X162407419Y-111561904D01*
X162407419Y-111180951D02*
X162407419Y-110514285D01*
X162407419Y-110514285D02*
X163407419Y-110942856D01*
X162835990Y-109990475D02*
X162788371Y-110085713D01*
X162788371Y-110085713D02*
X162740752Y-110133332D01*
X162740752Y-110133332D02*
X162645514Y-110180951D01*
X162645514Y-110180951D02*
X162597895Y-110180951D01*
X162597895Y-110180951D02*
X162502657Y-110133332D01*
X162502657Y-110133332D02*
X162455038Y-110085713D01*
X162455038Y-110085713D02*
X162407419Y-109990475D01*
X162407419Y-109990475D02*
X162407419Y-109799999D01*
X162407419Y-109799999D02*
X162455038Y-109704761D01*
X162455038Y-109704761D02*
X162502657Y-109657142D01*
X162502657Y-109657142D02*
X162597895Y-109609523D01*
X162597895Y-109609523D02*
X162645514Y-109609523D01*
X162645514Y-109609523D02*
X162740752Y-109657142D01*
X162740752Y-109657142D02*
X162788371Y-109704761D01*
X162788371Y-109704761D02*
X162835990Y-109799999D01*
X162835990Y-109799999D02*
X162835990Y-109990475D01*
X162835990Y-109990475D02*
X162883609Y-110085713D01*
X162883609Y-110085713D02*
X162931228Y-110133332D01*
X162931228Y-110133332D02*
X163026466Y-110180951D01*
X163026466Y-110180951D02*
X163216942Y-110180951D01*
X163216942Y-110180951D02*
X163312180Y-110133332D01*
X163312180Y-110133332D02*
X163359800Y-110085713D01*
X163359800Y-110085713D02*
X163407419Y-109990475D01*
X163407419Y-109990475D02*
X163407419Y-109799999D01*
X163407419Y-109799999D02*
X163359800Y-109704761D01*
X163359800Y-109704761D02*
X163312180Y-109657142D01*
X163312180Y-109657142D02*
X163216942Y-109609523D01*
X163216942Y-109609523D02*
X163026466Y-109609523D01*
X163026466Y-109609523D02*
X162931228Y-109657142D01*
X162931228Y-109657142D02*
X162883609Y-109704761D01*
X162883609Y-109704761D02*
X162835990Y-109799999D01*
X162407419Y-108990475D02*
X162407419Y-108895237D01*
X162407419Y-108895237D02*
X162455038Y-108799999D01*
X162455038Y-108799999D02*
X162502657Y-108752380D01*
X162502657Y-108752380D02*
X162597895Y-108704761D01*
X162597895Y-108704761D02*
X162788371Y-108657142D01*
X162788371Y-108657142D02*
X163026466Y-108657142D01*
X163026466Y-108657142D02*
X163216942Y-108704761D01*
X163216942Y-108704761D02*
X163312180Y-108752380D01*
X163312180Y-108752380D02*
X163359800Y-108799999D01*
X163359800Y-108799999D02*
X163407419Y-108895237D01*
X163407419Y-108895237D02*
X163407419Y-108990475D01*
X163407419Y-108990475D02*
X163359800Y-109085713D01*
X163359800Y-109085713D02*
X163312180Y-109133332D01*
X163312180Y-109133332D02*
X163216942Y-109180951D01*
X163216942Y-109180951D02*
X163026466Y-109228570D01*
X163026466Y-109228570D02*
X162788371Y-109228570D01*
X162788371Y-109228570D02*
X162597895Y-109180951D01*
X162597895Y-109180951D02*
X162502657Y-109133332D01*
X162502657Y-109133332D02*
X162455038Y-109085713D01*
X162455038Y-109085713D02*
X162407419Y-108990475D01*
X162502657Y-108276189D02*
X162455038Y-108228570D01*
X162455038Y-108228570D02*
X162407419Y-108133332D01*
X162407419Y-108133332D02*
X162407419Y-107895237D01*
X162407419Y-107895237D02*
X162455038Y-107799999D01*
X162455038Y-107799999D02*
X162502657Y-107752380D01*
X162502657Y-107752380D02*
X162597895Y-107704761D01*
X162597895Y-107704761D02*
X162693133Y-107704761D01*
X162693133Y-107704761D02*
X162835990Y-107752380D01*
X162835990Y-107752380D02*
X163407419Y-108323808D01*
X163407419Y-108323808D02*
X163407419Y-107704761D01*
X163026466Y-107276189D02*
X163026466Y-106514285D01*
X162740752Y-105609523D02*
X163407419Y-105609523D01*
X162359800Y-105847618D02*
X163074085Y-106085713D01*
X163074085Y-106085713D02*
X163074085Y-105466666D01*
X191588094Y-82372580D02*
X191588094Y-83372580D01*
X191588094Y-83372580D02*
X191016666Y-82372580D01*
X191016666Y-82372580D02*
X191016666Y-83372580D01*
X190588094Y-82658295D02*
X190111904Y-82658295D01*
X190683332Y-82372580D02*
X190349999Y-83372580D01*
X190349999Y-83372580D02*
X190016666Y-82372580D01*
X189683332Y-83372580D02*
X189683332Y-82563057D01*
X189683332Y-82563057D02*
X189635713Y-82467819D01*
X189635713Y-82467819D02*
X189588094Y-82420200D01*
X189588094Y-82420200D02*
X189492856Y-82372580D01*
X189492856Y-82372580D02*
X189302380Y-82372580D01*
X189302380Y-82372580D02*
X189207142Y-82420200D01*
X189207142Y-82420200D02*
X189159523Y-82467819D01*
X189159523Y-82467819D02*
X189111904Y-82563057D01*
X189111904Y-82563057D02*
X189111904Y-83372580D01*
X188730951Y-83372580D02*
X188064285Y-83372580D01*
X188064285Y-83372580D02*
X188492856Y-82372580D01*
X187540475Y-82944009D02*
X187635713Y-82991628D01*
X187635713Y-82991628D02*
X187683332Y-83039247D01*
X187683332Y-83039247D02*
X187730951Y-83134485D01*
X187730951Y-83134485D02*
X187730951Y-83182104D01*
X187730951Y-83182104D02*
X187683332Y-83277342D01*
X187683332Y-83277342D02*
X187635713Y-83324961D01*
X187635713Y-83324961D02*
X187540475Y-83372580D01*
X187540475Y-83372580D02*
X187349999Y-83372580D01*
X187349999Y-83372580D02*
X187254761Y-83324961D01*
X187254761Y-83324961D02*
X187207142Y-83277342D01*
X187207142Y-83277342D02*
X187159523Y-83182104D01*
X187159523Y-83182104D02*
X187159523Y-83134485D01*
X187159523Y-83134485D02*
X187207142Y-83039247D01*
X187207142Y-83039247D02*
X187254761Y-82991628D01*
X187254761Y-82991628D02*
X187349999Y-82944009D01*
X187349999Y-82944009D02*
X187540475Y-82944009D01*
X187540475Y-82944009D02*
X187635713Y-82896390D01*
X187635713Y-82896390D02*
X187683332Y-82848771D01*
X187683332Y-82848771D02*
X187730951Y-82753533D01*
X187730951Y-82753533D02*
X187730951Y-82563057D01*
X187730951Y-82563057D02*
X187683332Y-82467819D01*
X187683332Y-82467819D02*
X187635713Y-82420200D01*
X187635713Y-82420200D02*
X187540475Y-82372580D01*
X187540475Y-82372580D02*
X187349999Y-82372580D01*
X187349999Y-82372580D02*
X187254761Y-82420200D01*
X187254761Y-82420200D02*
X187207142Y-82467819D01*
X187207142Y-82467819D02*
X187159523Y-82563057D01*
X187159523Y-82563057D02*
X187159523Y-82753533D01*
X187159523Y-82753533D02*
X187207142Y-82848771D01*
X187207142Y-82848771D02*
X187254761Y-82896390D01*
X187254761Y-82896390D02*
X187349999Y-82944009D01*
X186540475Y-83372580D02*
X186445237Y-83372580D01*
X186445237Y-83372580D02*
X186349999Y-83324961D01*
X186349999Y-83324961D02*
X186302380Y-83277342D01*
X186302380Y-83277342D02*
X186254761Y-83182104D01*
X186254761Y-83182104D02*
X186207142Y-82991628D01*
X186207142Y-82991628D02*
X186207142Y-82753533D01*
X186207142Y-82753533D02*
X186254761Y-82563057D01*
X186254761Y-82563057D02*
X186302380Y-82467819D01*
X186302380Y-82467819D02*
X186349999Y-82420200D01*
X186349999Y-82420200D02*
X186445237Y-82372580D01*
X186445237Y-82372580D02*
X186540475Y-82372580D01*
X186540475Y-82372580D02*
X186635713Y-82420200D01*
X186635713Y-82420200D02*
X186683332Y-82467819D01*
X186683332Y-82467819D02*
X186730951Y-82563057D01*
X186730951Y-82563057D02*
X186778570Y-82753533D01*
X186778570Y-82753533D02*
X186778570Y-82991628D01*
X186778570Y-82991628D02*
X186730951Y-83182104D01*
X186730951Y-83182104D02*
X186683332Y-83277342D01*
X186683332Y-83277342D02*
X186635713Y-83324961D01*
X186635713Y-83324961D02*
X186540475Y-83372580D01*
X185826189Y-83277342D02*
X185778570Y-83324961D01*
X185778570Y-83324961D02*
X185683332Y-83372580D01*
X185683332Y-83372580D02*
X185445237Y-83372580D01*
X185445237Y-83372580D02*
X185349999Y-83324961D01*
X185349999Y-83324961D02*
X185302380Y-83277342D01*
X185302380Y-83277342D02*
X185254761Y-83182104D01*
X185254761Y-83182104D02*
X185254761Y-83086866D01*
X185254761Y-83086866D02*
X185302380Y-82944009D01*
X185302380Y-82944009D02*
X185873808Y-82372580D01*
X185873808Y-82372580D02*
X185254761Y-82372580D01*
X184826189Y-82753533D02*
X184064285Y-82753533D01*
X183159523Y-83372580D02*
X183349999Y-83372580D01*
X183349999Y-83372580D02*
X183445237Y-83324961D01*
X183445237Y-83324961D02*
X183492856Y-83277342D01*
X183492856Y-83277342D02*
X183588094Y-83134485D01*
X183588094Y-83134485D02*
X183635713Y-82944009D01*
X183635713Y-82944009D02*
X183635713Y-82563057D01*
X183635713Y-82563057D02*
X183588094Y-82467819D01*
X183588094Y-82467819D02*
X183540475Y-82420200D01*
X183540475Y-82420200D02*
X183445237Y-82372580D01*
X183445237Y-82372580D02*
X183254761Y-82372580D01*
X183254761Y-82372580D02*
X183159523Y-82420200D01*
X183159523Y-82420200D02*
X183111904Y-82467819D01*
X183111904Y-82467819D02*
X183064285Y-82563057D01*
X183064285Y-82563057D02*
X183064285Y-82801152D01*
X183064285Y-82801152D02*
X183111904Y-82896390D01*
X183111904Y-82896390D02*
X183159523Y-82944009D01*
X183159523Y-82944009D02*
X183254761Y-82991628D01*
X183254761Y-82991628D02*
X183445237Y-82991628D01*
X183445237Y-82991628D02*
X183540475Y-82944009D01*
X183540475Y-82944009D02*
X183588094Y-82896390D01*
X183588094Y-82896390D02*
X183635713Y-82801152D01*
X191588094Y-54602580D02*
X191588094Y-55602580D01*
X191588094Y-55602580D02*
X191016666Y-54602580D01*
X191016666Y-54602580D02*
X191016666Y-55602580D01*
X190588094Y-54888295D02*
X190111904Y-54888295D01*
X190683332Y-54602580D02*
X190349999Y-55602580D01*
X190349999Y-55602580D02*
X190016666Y-54602580D01*
X189683332Y-55602580D02*
X189683332Y-54793057D01*
X189683332Y-54793057D02*
X189635713Y-54697819D01*
X189635713Y-54697819D02*
X189588094Y-54650200D01*
X189588094Y-54650200D02*
X189492856Y-54602580D01*
X189492856Y-54602580D02*
X189302380Y-54602580D01*
X189302380Y-54602580D02*
X189207142Y-54650200D01*
X189207142Y-54650200D02*
X189159523Y-54697819D01*
X189159523Y-54697819D02*
X189111904Y-54793057D01*
X189111904Y-54793057D02*
X189111904Y-55602580D01*
X188730951Y-55602580D02*
X188064285Y-55602580D01*
X188064285Y-55602580D02*
X188492856Y-54602580D01*
X187540475Y-55174009D02*
X187635713Y-55221628D01*
X187635713Y-55221628D02*
X187683332Y-55269247D01*
X187683332Y-55269247D02*
X187730951Y-55364485D01*
X187730951Y-55364485D02*
X187730951Y-55412104D01*
X187730951Y-55412104D02*
X187683332Y-55507342D01*
X187683332Y-55507342D02*
X187635713Y-55554961D01*
X187635713Y-55554961D02*
X187540475Y-55602580D01*
X187540475Y-55602580D02*
X187349999Y-55602580D01*
X187349999Y-55602580D02*
X187254761Y-55554961D01*
X187254761Y-55554961D02*
X187207142Y-55507342D01*
X187207142Y-55507342D02*
X187159523Y-55412104D01*
X187159523Y-55412104D02*
X187159523Y-55364485D01*
X187159523Y-55364485D02*
X187207142Y-55269247D01*
X187207142Y-55269247D02*
X187254761Y-55221628D01*
X187254761Y-55221628D02*
X187349999Y-55174009D01*
X187349999Y-55174009D02*
X187540475Y-55174009D01*
X187540475Y-55174009D02*
X187635713Y-55126390D01*
X187635713Y-55126390D02*
X187683332Y-55078771D01*
X187683332Y-55078771D02*
X187730951Y-54983533D01*
X187730951Y-54983533D02*
X187730951Y-54793057D01*
X187730951Y-54793057D02*
X187683332Y-54697819D01*
X187683332Y-54697819D02*
X187635713Y-54650200D01*
X187635713Y-54650200D02*
X187540475Y-54602580D01*
X187540475Y-54602580D02*
X187349999Y-54602580D01*
X187349999Y-54602580D02*
X187254761Y-54650200D01*
X187254761Y-54650200D02*
X187207142Y-54697819D01*
X187207142Y-54697819D02*
X187159523Y-54793057D01*
X187159523Y-54793057D02*
X187159523Y-54983533D01*
X187159523Y-54983533D02*
X187207142Y-55078771D01*
X187207142Y-55078771D02*
X187254761Y-55126390D01*
X187254761Y-55126390D02*
X187349999Y-55174009D01*
X186540475Y-55602580D02*
X186445237Y-55602580D01*
X186445237Y-55602580D02*
X186349999Y-55554961D01*
X186349999Y-55554961D02*
X186302380Y-55507342D01*
X186302380Y-55507342D02*
X186254761Y-55412104D01*
X186254761Y-55412104D02*
X186207142Y-55221628D01*
X186207142Y-55221628D02*
X186207142Y-54983533D01*
X186207142Y-54983533D02*
X186254761Y-54793057D01*
X186254761Y-54793057D02*
X186302380Y-54697819D01*
X186302380Y-54697819D02*
X186349999Y-54650200D01*
X186349999Y-54650200D02*
X186445237Y-54602580D01*
X186445237Y-54602580D02*
X186540475Y-54602580D01*
X186540475Y-54602580D02*
X186635713Y-54650200D01*
X186635713Y-54650200D02*
X186683332Y-54697819D01*
X186683332Y-54697819D02*
X186730951Y-54793057D01*
X186730951Y-54793057D02*
X186778570Y-54983533D01*
X186778570Y-54983533D02*
X186778570Y-55221628D01*
X186778570Y-55221628D02*
X186730951Y-55412104D01*
X186730951Y-55412104D02*
X186683332Y-55507342D01*
X186683332Y-55507342D02*
X186635713Y-55554961D01*
X186635713Y-55554961D02*
X186540475Y-55602580D01*
X185826189Y-55507342D02*
X185778570Y-55554961D01*
X185778570Y-55554961D02*
X185683332Y-55602580D01*
X185683332Y-55602580D02*
X185445237Y-55602580D01*
X185445237Y-55602580D02*
X185349999Y-55554961D01*
X185349999Y-55554961D02*
X185302380Y-55507342D01*
X185302380Y-55507342D02*
X185254761Y-55412104D01*
X185254761Y-55412104D02*
X185254761Y-55316866D01*
X185254761Y-55316866D02*
X185302380Y-55174009D01*
X185302380Y-55174009D02*
X185873808Y-54602580D01*
X185873808Y-54602580D02*
X185254761Y-54602580D01*
X184826189Y-54983533D02*
X184064285Y-54983533D01*
X183683332Y-55602580D02*
X183016666Y-55602580D01*
X183016666Y-55602580D02*
X183445237Y-54602580D01*
D11*
X152666666Y-34834819D02*
X152666666Y-35549104D01*
X152666666Y-35549104D02*
X152619047Y-35691961D01*
X152619047Y-35691961D02*
X152523809Y-35787200D01*
X152523809Y-35787200D02*
X152380952Y-35834819D01*
X152380952Y-35834819D02*
X152285714Y-35834819D01*
X153571428Y-35168152D02*
X153571428Y-35834819D01*
X153333333Y-34787200D02*
X153095238Y-35501485D01*
X153095238Y-35501485D02*
X153714285Y-35501485D01*
%TO.C,NAU7802-3*%
D12*
X145720000Y-115200000D02*
X145720000Y-102440000D01*
X145720000Y-117800000D02*
X145720000Y-116470000D01*
X147050000Y-117800000D02*
X145720000Y-117800000D01*
X148380000Y-102440000D02*
X145720000Y-102440000D01*
X148380000Y-115200000D02*
X145720000Y-115200000D01*
X148380000Y-115200000D02*
X148380000Y-102440000D01*
D10*
X126650000Y-97400000D02*
X149650000Y-97400000D01*
X149650000Y-122900000D01*
X126650000Y-122900000D01*
X126650000Y-97400000D01*
%TO.C,J5*%
D12*
X131010000Y-32670000D02*
X131010000Y-35330000D01*
X141230000Y-32670000D02*
X131010000Y-32670000D01*
X141230000Y-32670000D02*
X141230000Y-35330000D01*
X141230000Y-35330000D02*
X131010000Y-35330000D01*
X143830000Y-34000000D02*
X143830000Y-35330000D01*
X143830000Y-35330000D02*
X142500000Y-35330000D01*
%TO.C,NAU7802-2*%
X145720000Y-87430000D02*
X145720000Y-74670000D01*
X145720000Y-90030000D02*
X145720000Y-88700000D01*
X147050000Y-90030000D02*
X145720000Y-90030000D01*
X148380000Y-74670000D02*
X145720000Y-74670000D01*
X148380000Y-87430000D02*
X145720000Y-87430000D01*
X148380000Y-87430000D02*
X148380000Y-74670000D01*
D10*
X126650000Y-69630000D02*
X149650000Y-69630000D01*
X149650000Y-95130000D01*
X126650000Y-95130000D01*
X126650000Y-69630000D01*
%TO.C,XIAO_MCU1*%
D13*
X125340000Y-24620000D02*
X126880000Y-24620000D01*
X125340000Y-33620000D02*
X125340000Y-24620000D01*
X126880000Y-20230000D02*
X126880000Y-24620000D01*
X126880000Y-33620000D02*
X125340000Y-33620000D01*
X126880000Y-33620000D02*
X126880000Y-38010000D01*
X126880000Y-38010000D02*
X147880000Y-38010000D01*
X147880000Y-20230000D02*
X126880000Y-20230000D01*
X147880000Y-38010000D02*
X147880000Y-20230000D01*
D14*
X129880000Y-38720000D02*
G75*
G02*
X129680000Y-38720000I-100000J0D01*
G01*
X129680000Y-38720000D02*
G75*
G02*
X129880000Y-38720000I100000J0D01*
G01*
%TO.C,NAU7802-1*%
D12*
X145720000Y-59660000D02*
X145720000Y-46900000D01*
X145720000Y-62260000D02*
X145720000Y-60930000D01*
X147050000Y-62260000D02*
X145720000Y-62260000D01*
X148380000Y-46900000D02*
X145720000Y-46900000D01*
X148380000Y-59660000D02*
X145720000Y-59660000D01*
X148380000Y-59660000D02*
X148380000Y-46900000D01*
D10*
X126650000Y-41860000D02*
X149650000Y-41860000D01*
X149650000Y-67360000D01*
X126650000Y-67360000D01*
X126650000Y-41860000D01*
%TO.C,i2c1*%
D12*
X133550000Y-38770000D02*
X133550000Y-41430000D01*
X141230000Y-38770000D02*
X133550000Y-38770000D01*
X141230000Y-38770000D02*
X141230000Y-41430000D01*
X141230000Y-41430000D02*
X133550000Y-41430000D01*
X143830000Y-40100000D02*
X143830000Y-41430000D01*
X143830000Y-41430000D02*
X142500000Y-41430000D01*
%TO.C,J3*%
X150380000Y-20030000D02*
X150970000Y-20030000D01*
X150380000Y-26470000D02*
X150380000Y-20030000D01*
X150970000Y-20650000D02*
X150380000Y-20650000D01*
X153030000Y-20030000D02*
X153510000Y-20030000D01*
X153510000Y-20650000D02*
X153030000Y-20650000D01*
X155570000Y-20030000D02*
X156160000Y-20030000D01*
X156160000Y-20030000D02*
X156160000Y-26470000D01*
X156160000Y-20650000D02*
X155570000Y-20650000D01*
X156160000Y-25950000D02*
X150380000Y-25950000D01*
X156160000Y-26470000D02*
X150380000Y-26470000D01*
X154540000Y-19680000D02*
X154100000Y-19070000D01*
X154980000Y-19070000D01*
X154540000Y-19680000D01*
G36*
X154540000Y-19680000D02*
G01*
X154100000Y-19070000D01*
X154980000Y-19070000D01*
X154540000Y-19680000D01*
G37*
%TO.C,NAU7802-5*%
X178620000Y-105100000D02*
X178620000Y-117860000D01*
X178620000Y-105100000D02*
X181280000Y-105100000D01*
X178620000Y-117860000D02*
X181280000Y-117860000D01*
X179950000Y-102500000D02*
X181280000Y-102500000D01*
X181280000Y-102500000D02*
X181280000Y-103830000D01*
X181280000Y-105100000D02*
X181280000Y-117860000D01*
D10*
X177350000Y-97400000D02*
X200350000Y-97400000D01*
X200350000Y-122900000D01*
X177350000Y-122900000D01*
X177350000Y-97400000D01*
%TO.C,J1*%
D12*
X154930000Y-69280000D02*
X154930000Y-97280000D01*
X154930000Y-69280000D02*
X157590000Y-69280000D01*
X154930000Y-97280000D02*
X157590000Y-97280000D01*
X156260000Y-66680000D02*
X157590000Y-66680000D01*
X157590000Y-66680000D02*
X157590000Y-68010000D01*
X157590000Y-69280000D02*
X157590000Y-97280000D01*
%TO.C,Q1*%
X158890000Y-20160000D02*
X169110000Y-20160000D01*
X158890000Y-36030000D02*
X158890000Y-20160000D01*
X158890000Y-36030000D02*
X169110000Y-36030000D01*
X160975000Y-36030000D02*
X160975000Y-38470000D01*
X161945000Y-36030000D02*
X161945000Y-38470000D01*
X163515000Y-36030000D02*
X163515000Y-38470000D01*
X164485000Y-36030000D02*
X164485000Y-38470000D01*
X166055000Y-36030000D02*
X166055000Y-38470000D01*
X167025000Y-36030000D02*
X167025000Y-38470000D01*
X169110000Y-36030000D02*
X169110000Y-20160000D01*
%TO.C,R100k1*%
X160480000Y-42380000D02*
X167020000Y-42380000D01*
X160480000Y-42710000D02*
X160480000Y-42380000D01*
X160480000Y-44790000D02*
X160480000Y-45120000D01*
X160480000Y-45120000D02*
X167020000Y-45120000D01*
X167020000Y-42380000D02*
X167020000Y-42710000D01*
X167020000Y-45120000D02*
X167020000Y-44790000D01*
%TO.C,J6*%
X172710000Y-69280000D02*
X172710000Y-97280000D01*
X172710000Y-69280000D02*
X175370000Y-69280000D01*
X172710000Y-97280000D02*
X175370000Y-97280000D01*
X174040000Y-66680000D02*
X175370000Y-66680000D01*
X175370000Y-66680000D02*
X175370000Y-68010000D01*
X175370000Y-69280000D02*
X175370000Y-97280000D01*
%TO.C,NAU7802-8*%
X155490000Y-60720000D02*
X156820000Y-60720000D01*
X155490000Y-62050000D02*
X155490000Y-60720000D01*
X158090000Y-60720000D02*
X170850000Y-60720000D01*
X158090000Y-63380000D02*
X158090000Y-60720000D01*
X158090000Y-63380000D02*
X170850000Y-63380000D01*
X170850000Y-63380000D02*
X170850000Y-60720000D01*
D10*
X150390000Y-41650000D02*
X175890000Y-41650000D01*
X175890000Y-64650000D01*
X150390000Y-64650000D01*
X150390000Y-41650000D01*
%TO.C,TPS63020*%
X170450000Y-20760000D02*
X197500000Y-20760000D01*
X197500000Y-41060000D01*
X170450000Y-41060000D01*
X170450000Y-20760000D01*
%TO.C,R100R1*%
D12*
X149865000Y-38130000D02*
X156405000Y-38130000D01*
X149865000Y-38460000D02*
X149865000Y-38130000D01*
X149865000Y-40540000D02*
X149865000Y-40870000D01*
X149865000Y-40870000D02*
X156405000Y-40870000D01*
X156405000Y-38130000D02*
X156405000Y-38460000D01*
X156405000Y-40870000D02*
X156405000Y-40540000D01*
%TO.C,J2*%
X170170000Y-69280000D02*
X170170000Y-97280000D01*
X170170000Y-69280000D02*
X172830000Y-69280000D01*
X170170000Y-97280000D02*
X172830000Y-97280000D01*
X171500000Y-66680000D02*
X172830000Y-66680000D01*
X172830000Y-66680000D02*
X172830000Y-68010000D01*
X172830000Y-69280000D02*
X172830000Y-97280000D01*
%TO.C,NAU7802-4*%
X155690000Y-101070000D02*
X155690000Y-103730000D01*
X168450000Y-101070000D02*
X155690000Y-101070000D01*
X168450000Y-101070000D02*
X168450000Y-103730000D01*
X168450000Y-103730000D02*
X155690000Y-103730000D01*
X171050000Y-102400000D02*
X171050000Y-103730000D01*
X171050000Y-103730000D02*
X169720000Y-103730000D01*
D10*
X150650000Y-99800000D02*
X176150000Y-99800000D01*
X176150000Y-122800000D01*
X150650000Y-122800000D01*
X150650000Y-99800000D01*
%TO.C,NAU7802-6*%
D12*
X178620000Y-77330000D02*
X178620000Y-90090000D01*
X178620000Y-77330000D02*
X181280000Y-77330000D01*
X178620000Y-90090000D02*
X181280000Y-90090000D01*
X179950000Y-74730000D02*
X181280000Y-74730000D01*
X181280000Y-74730000D02*
X181280000Y-76060000D01*
X181280000Y-77330000D02*
X181280000Y-90090000D01*
D10*
X177350000Y-69630000D02*
X200350000Y-69630000D01*
X200350000Y-95130000D01*
X177350000Y-95130000D01*
X177350000Y-69630000D01*
%TO.C,NAU7802-7*%
D12*
X178620000Y-49560000D02*
X178620000Y-62320000D01*
X178620000Y-49560000D02*
X181280000Y-49560000D01*
X178620000Y-62320000D02*
X181280000Y-62320000D01*
X179950000Y-46960000D02*
X181280000Y-46960000D01*
X181280000Y-46960000D02*
X181280000Y-48290000D01*
X181280000Y-49560000D02*
X181280000Y-62320000D01*
D10*
X177350000Y-41860000D02*
X200350000Y-41860000D01*
X200350000Y-67360000D01*
X177350000Y-67360000D01*
X177350000Y-41860000D01*
%TO.C,J4*%
D12*
X151620000Y-31730000D02*
X151620000Y-29080000D01*
X154380000Y-29080000D02*
X151620000Y-29080000D01*
X154380000Y-31730000D02*
X151620000Y-31730000D01*
X154380000Y-31730000D02*
X154380000Y-29080000D01*
X154380000Y-33000000D02*
X154380000Y-34380000D01*
X154380000Y-34380000D02*
X153000000Y-34380000D01*
%TD*%
M02*
