%TF.GenerationSoftware,KiCad,Pcbnew,10.0.4-10.0.4~ubuntu24.04.1*%
%TF.CreationDate,2026-06-26T10:57:22+02:00*%
%TF.ProjectId,_v0_1_NAU7802_breakout_board,5f76305f-315f-44e4-9155-373830325f62,rev?*%
%TF.SameCoordinates,Original*%
%TF.FileFunction,Soldermask,Bot*%
%TF.FilePolarity,Negative*%
%FSLAX46Y46*%
G04 Gerber Fmt 4.6, Leading zero omitted, Abs format (unit mm)*
G04 Created by KiCad (PCBNEW 10.0.4-10.0.4~ubuntu24.04.1) date 2026-06-26 10:57:22*
%MOMM*%
%LPD*%
G01*
G04 APERTURE LIST*
G04 Aperture macros list*
%AMRoundRect*
0 Rectangle with rounded corners*
0 $1 Rounding radius*
0 $2 $3 $4 $5 $6 $7 $8 $9 X,Y pos of 4 corners*
0 Add a 4 corners polygon primitive as box body*
4,1,4,$2,$3,$4,$5,$6,$7,$8,$9,$2,$3,0*
0 Add four circle primitives for the rounded corners*
1,1,$1+$1,$2,$3*
1,1,$1+$1,$4,$5*
1,1,$1+$1,$6,$7*
1,1,$1+$1,$8,$9*
0 Add four rect primitives between the rounded corners*
20,1,$1+$1,$2,$3,$4,$5,0*
20,1,$1+$1,$4,$5,$6,$7,0*
20,1,$1+$1,$6,$7,$8,$9,0*
20,1,$1+$1,$8,$9,$2,$3,0*%
G04 Aperture macros list end*
%ADD10C,3.200000*%
%ADD11R,1.700000X1.700000*%
%ADD12C,1.700000*%
%ADD13RoundRect,0.250000X0.750000X0.750000X-0.750000X0.750000X-0.750000X-0.750000X0.750000X-0.750000X0*%
%ADD14C,2.000000*%
G04 APERTURE END LIST*
D10*
%TO.C,NAU7802-3*%
X129200000Y-99950000D03*
X129200000Y-120250000D03*
D11*
X147000000Y-116450000D03*
D12*
X147000000Y-113910000D03*
X147000000Y-111370000D03*
X147000000Y-108830000D03*
X147000000Y-106290000D03*
X147000000Y-103750000D03*
%TD*%
D10*
%TO.C,NAU7802-2*%
X129200000Y-72180000D03*
X129200000Y-92480000D03*
D11*
X147000000Y-88680000D03*
D12*
X147000000Y-86140000D03*
X147000000Y-83600000D03*
X147000000Y-81060000D03*
X147000000Y-78520000D03*
X147000000Y-75980000D03*
%TD*%
D10*
%TO.C,NAU7802-1*%
X129200000Y-44410000D03*
X129200000Y-64710000D03*
D11*
X147000000Y-60910000D03*
D12*
X147000000Y-58370000D03*
X147000000Y-55830000D03*
X147000000Y-53290000D03*
X147000000Y-50750000D03*
X147000000Y-48210000D03*
%TD*%
D13*
%TO.C,i2c1*%
X140750000Y-38000000D03*
D14*
X138210000Y-38000000D03*
X135670000Y-38000000D03*
X133130000Y-38000000D03*
%TD*%
D10*
%TO.C,NAU7802-5*%
X197800000Y-120350000D03*
X197800000Y-100050000D03*
D11*
X180000000Y-103850000D03*
D12*
X180000000Y-106390000D03*
X180000000Y-108930000D03*
X180000000Y-111470000D03*
X180000000Y-114010000D03*
X180000000Y-116550000D03*
%TD*%
D11*
%TO.C,J1*%
X156260000Y-68010000D03*
D12*
X156260000Y-70550000D03*
X156260000Y-73090000D03*
X156260000Y-75630000D03*
X156260000Y-78170000D03*
X156260000Y-80710000D03*
X156260000Y-83250000D03*
X156260000Y-85790000D03*
X156260000Y-88330000D03*
X156260000Y-90870000D03*
X156260000Y-93410000D03*
X156260000Y-95950000D03*
%TD*%
D10*
%TO.C,NAU7802-8*%
X173340000Y-44200000D03*
X153040000Y-44200000D03*
D11*
X156840000Y-62000000D03*
D12*
X159380000Y-62000000D03*
X161920000Y-62000000D03*
X164460000Y-62000000D03*
X167000000Y-62000000D03*
X169540000Y-62000000D03*
%TD*%
D11*
%TO.C,J2*%
X171500000Y-68010000D03*
D12*
X171500000Y-70550000D03*
X171500000Y-73090000D03*
X171500000Y-75630000D03*
X171500000Y-78170000D03*
X171500000Y-80710000D03*
X171500000Y-83250000D03*
X171500000Y-85790000D03*
X171500000Y-88330000D03*
X171500000Y-90870000D03*
X171500000Y-93410000D03*
X171500000Y-95950000D03*
%TD*%
D10*
%TO.C,NAU7802-4*%
X153200000Y-120250000D03*
X173500000Y-120250000D03*
D11*
X169700000Y-102450000D03*
D12*
X167160000Y-102450000D03*
X164620000Y-102450000D03*
X162080000Y-102450000D03*
X159540000Y-102450000D03*
X157000000Y-102450000D03*
%TD*%
D10*
%TO.C,NAU7802-6*%
X197800000Y-92580000D03*
X197800000Y-72280000D03*
D11*
X180000000Y-76080000D03*
D12*
X180000000Y-78620000D03*
X180000000Y-81160000D03*
X180000000Y-83700000D03*
X180000000Y-86240000D03*
X180000000Y-88780000D03*
%TD*%
D10*
%TO.C,NAU7802-7*%
X197800000Y-64810000D03*
X197800000Y-44510000D03*
D11*
X180000000Y-48310000D03*
D12*
X180000000Y-50850000D03*
X180000000Y-53390000D03*
X180000000Y-55930000D03*
X180000000Y-58470000D03*
X180000000Y-61010000D03*
%TD*%
M02*
