M48
; DRILL file KiCad 10.0.4-10.0.4~ubuntu24.04.1 date 2026-07-09T08:47:29
; FORMAT={-:-/ absolute / metric / decimal}
; #@! TF.CreationDate,2026-07-09T08:47:29+02:00
; #@! TF.GenerationSoftware,Kicad,Pcbnew,10.0.4-10.0.4~ubuntu24.04.1
; #@! TF.FileFunction,Plated,1,2,PTH
FMAT,2
METRIC
; #@! TA.AperFunction,Plated,PTH,ViaDrill
T1C0.300
; #@! TA.AperFunction,Plated,PTH,ComponentDrill
T2C0.800
; #@! TA.AperFunction,Plated,PTH,ComponentDrill
T3C1.000
; #@! TA.AperFunction,Plated,PTH,ComponentDrill
T4C1.100
%
G90
G05
T1
X127.75Y-20.25
X128.5Y-75.25
X128.75Y-61.0
X128.75Y-88.25
X129.0Y-39.75
X129.0Y-106.5
X129.0Y-115.75
X129.25Y-51.25
X129.5Y-23.25
X129.5Y-26.75
X131.2Y-35.3
X132.0Y-32.0
X133.4Y-35.3
X133.5Y-22.25
X134.25Y-51.5
X134.3Y-27.7
X135.8Y-38.5
X136.0Y-42.75
X136.1Y-35.4
X136.9Y-32.2
X137.5Y-52.0
X138.6Y-38.7
X138.75Y-35.5
X141.0Y-31.25
X141.25Y-35.5
X141.3Y-38.6
X142.375Y-61.625
X143.5Y-52.5
X143.75Y-23.5
X143.75Y-89.0
X144.0Y-83.25
X144.25Y-47.5
X144.5Y-113.5
X144.75Y-109.75
X144.9Y-34.7
X146.5Y-20.0
X146.75Y-25.25
X146.75Y-40.5
X147.25Y-36.5
X147.5Y-30.25
X148.75Y-21.5
X148.75Y-63.75
X149.25Y-86.0
X149.75Y-58.5
X150.0Y-104.25
X150.25Y-78.5
X150.25Y-101.5
X150.4Y-30.2
X151.25Y-108.5
X151.75Y-95.5
X151.75Y-113.75
X152.0Y-25.25
X153.0Y-60.5
X153.0Y-67.25
X153.0Y-80.0
X153.75Y-100.75
X155.0Y-30.0
X156.75Y-43.75
X158.25Y-25.25
X158.5Y-92.75
X158.75Y-72.75
X158.75Y-75.25
X158.75Y-81.25
X159.25Y-87.75
X159.25Y-119.5
X159.5Y-100.0
X160.25Y-58.5
X160.75Y-65.25
X160.75Y-80.0
X161.5Y-104.75
X162.0Y-97.75
X163.25Y-65.0
X163.25Y-94.75
X163.5Y-58.0
X164.25Y-71.25
X164.45Y-76.28
X164.45Y-80.43
X164.45Y-84.58
X165.25Y-104.75
X166.0Y-100.75
X166.75Y-97.75
X167.0Y-120.0
X167.5Y-36.75
X167.5Y-91.0
X168.75Y-81.0
X169.5Y-94.75
X169.75Y-43.75
X170.5Y-20.0
X170.5Y-65.25
X173.0Y-29.0
X173.5Y-100.75
X175.0Y-50.0
X175.0Y-54.25
X175.0Y-105.0
X175.25Y-92.25
X175.25Y-108.5
X176.0Y-77.75
X178.25Y-22.5
X178.75Y-68.25
X179.0Y-65.25
X179.75Y-92.25
X179.75Y-99.25
X182.5Y-106.5
X183.25Y-112.75
X183.75Y-57.75
X184.0Y-49.75
X184.0Y-77.75
X184.75Y-86.0
X188.25Y-85.5
X196.75Y-51.5
X197.0Y-34.75
X197.25Y-59.5
X197.5Y-77.5
X197.75Y-87.5
X197.75Y-106.25
X197.75Y-115.25
X198.5Y-22.25
T2
X149.325Y-39.5
X156.945Y-39.5
X159.94Y-43.75
X167.56Y-43.75
T3
X129.76Y-21.5
X129.76Y-36.74
X132.3Y-21.5
X132.3Y-36.74
X132.34Y-34.0
X134.84Y-21.5
X134.84Y-36.74
X134.88Y-34.0
X134.88Y-40.1
X137.38Y-21.5
X137.38Y-36.74
X137.42Y-34.0
X137.42Y-40.1
X139.92Y-21.5
X139.92Y-36.74
X139.96Y-34.0
X139.96Y-40.1
X142.46Y-21.5
X142.46Y-36.74
X142.5Y-34.0
X142.5Y-40.1
X145.0Y-21.5
X145.0Y-36.74
X147.0Y-48.21
X147.0Y-50.75
X147.0Y-53.29
X147.0Y-55.83
X147.0Y-58.37
X147.0Y-60.91
X147.0Y-75.98
X147.0Y-78.52
X147.0Y-81.06
X147.0Y-83.6
X147.0Y-86.14
X147.0Y-88.68
X147.0Y-103.75
X147.0Y-106.29
X147.0Y-108.83
X147.0Y-111.37
X147.0Y-113.91
X147.0Y-116.45
X153.0Y-30.46
X153.0Y-33.0
X156.26Y-68.01
X156.26Y-70.55
X156.26Y-73.09
X156.26Y-75.63
X156.26Y-78.17
X156.26Y-80.71
X156.26Y-83.25
X156.26Y-85.79
X156.26Y-88.33
X156.26Y-90.87
X156.26Y-93.41
X156.26Y-95.95
X156.84Y-62.0
X157.0Y-102.45
X159.38Y-62.0
X159.54Y-102.45
X161.92Y-62.0
X162.08Y-102.45
X164.46Y-62.0
X164.62Y-102.45
X167.0Y-62.0
X167.16Y-102.45
X169.54Y-62.0
X169.7Y-102.45
X171.5Y-68.01
X171.5Y-70.55
X171.5Y-73.09
X171.5Y-75.63
X171.5Y-78.17
X171.5Y-80.71
X171.5Y-83.25
X171.5Y-85.79
X171.5Y-88.33
X171.5Y-90.87
X171.5Y-93.41
X171.5Y-95.95
X172.64Y-23.17
X172.64Y-25.71
X172.64Y-35.87
X172.64Y-38.41
X174.04Y-68.01
X174.04Y-70.55
X174.04Y-73.09
X174.04Y-75.63
X174.04Y-78.17
X174.04Y-80.71
X174.04Y-83.25
X174.04Y-85.79
X174.04Y-88.33
X174.04Y-90.87
X174.04Y-93.41
X174.04Y-95.95
X180.0Y-48.31
X180.0Y-50.85
X180.0Y-53.39
X180.0Y-55.93
X180.0Y-58.47
X180.0Y-61.01
X180.0Y-76.08
X180.0Y-78.62
X180.0Y-81.16
X180.0Y-83.7
X180.0Y-86.24
X180.0Y-88.78
X180.0Y-103.85
X180.0Y-106.39
X180.0Y-108.93
X180.0Y-111.47
X180.0Y-114.01
X180.0Y-116.55
X195.5Y-23.21
X195.5Y-25.75
X195.5Y-35.87
X195.5Y-38.41
T4
X152.0Y-23.25
X154.54Y-23.25
X161.46Y-39.73
X164.0Y-39.73
X166.54Y-39.73
M30
