%TF.GenerationSoftware,KiCad,Pcbnew,10.0.4-10.0.4~ubuntu24.04.1*%
%TF.CreationDate,2026-06-26T10:57:21+02:00*%
%TF.ProjectId,_v0_1_NAU7802_breakout_board,5f76305f-315f-44e4-9155-373830325f62,rev?*%
%TF.SameCoordinates,Original*%
%TF.FileFunction,Copper,L2,Bot*%
%TF.FilePolarity,Positive*%
%FSLAX46Y46*%
G04 Gerber Fmt 4.6, Leading zero omitted, Abs format (unit mm)*
G04 Created by KiCad (PCBNEW 10.0.4-10.0.4~ubuntu24.04.1) date 2026-06-26 10:57:21*
%MOMM*%
%LPD*%
G01*
G04 APERTURE LIST*
G04 Aperture macros list*
%AMRoundRect*
0 Rectangle with rounded corners*
0 $1 Rounding radius*
0 $2 $3 $4 $5 $6 $7 $8 $9 X,Y pos of 4 corners*
0 Add a 4 corners polygon primitive as box body*
4,1,4,$2,$3,$4,$5,$6,$7,$8,$9,$2,$3,0*
0 Add four circle primitives for the rounded corners*
1,1,$1+$1,$2,$3*
1,1,$1+$1,$4,$5*
1,1,$1+$1,$6,$7*
1,1,$1+$1,$8,$9*
0 Add four rect primitives between the rounded corners*
20,1,$1+$1,$2,$3,$4,$5,0*
20,1,$1+$1,$4,$5,$6,$7,0*
20,1,$1+$1,$6,$7,$8,$9,0*
20,1,$1+$1,$8,$9,$2,$3,0*%
G04 Aperture macros list end*
%TA.AperFunction,ComponentPad*%
%ADD10R,1.700000X1.700000*%
%TD*%
%TA.AperFunction,ComponentPad*%
%ADD11C,1.700000*%
%TD*%
%TA.AperFunction,ComponentPad*%
%ADD12RoundRect,0.250000X0.750000X0.750000X-0.750000X0.750000X-0.750000X-0.750000X0.750000X-0.750000X0*%
%TD*%
%TA.AperFunction,ComponentPad*%
%ADD13C,2.000000*%
%TD*%
%TA.AperFunction,ViaPad*%
%ADD14C,0.600000*%
%TD*%
%TA.AperFunction,Conductor*%
%ADD15C,1.000000*%
%TD*%
G04 APERTURE END LIST*
D10*
%TO.P,NAU7802-3,1,Pin_1_1*%
%TO.N,/3.3V*%
X147000000Y-116450000D03*
D11*
%TO.P,NAU7802-3,2,Pin_2_2*%
%TO.N,unconnected-(NAU7802-3-Pin_2-Pad2)*%
X147000000Y-113910000D03*
%TO.P,NAU7802-3,3,Pin_3_3*%
%TO.N,/GND*%
X147000000Y-111370000D03*
%TO.P,NAU7802-3,4,Pin_4_4*%
%TO.N,/SC2*%
X147000000Y-108830000D03*
%TO.P,NAU7802-3,5,Pin_5_5*%
%TO.N,/SD2*%
X147000000Y-106290000D03*
%TO.P,NAU7802-3,6,Pin_6_6*%
%TO.N,unconnected-(NAU7802-3-Pin_6-Pad6)*%
X147000000Y-103750000D03*
%TD*%
D10*
%TO.P,NAU7802-2,1,Pin_1_1*%
%TO.N,/3.3V*%
X147000000Y-88680000D03*
D11*
%TO.P,NAU7802-2,2,Pin_2_2*%
%TO.N,unconnected-(NAU7802-2-Pin_2-Pad2)*%
X147000000Y-86140000D03*
%TO.P,NAU7802-2,3,Pin_3_3*%
%TO.N,/GND*%
X147000000Y-83600000D03*
%TO.P,NAU7802-2,4,Pin_4_4*%
%TO.N,/SC1*%
X147000000Y-81060000D03*
%TO.P,NAU7802-2,5,Pin_5_5*%
%TO.N,/SD1*%
X147000000Y-78520000D03*
%TO.P,NAU7802-2,6,Pin_6_6*%
%TO.N,unconnected-(NAU7802-2-Pin_6-Pad6)*%
X147000000Y-75980000D03*
%TD*%
D10*
%TO.P,NAU7802-1,1,Pin_1_1*%
%TO.N,/3.3V*%
X147000000Y-60910000D03*
D11*
%TO.P,NAU7802-1,2,Pin_2_2*%
%TO.N,unconnected-(NAU7802-1-Pin_2-Pad2)*%
X147000000Y-58370000D03*
%TO.P,NAU7802-1,3,Pin_3_3*%
%TO.N,/GND*%
X147000000Y-55830000D03*
%TO.P,NAU7802-1,4,Pin_4_4*%
%TO.N,/SC0*%
X147000000Y-53290000D03*
%TO.P,NAU7802-1,5,Pin_5_5*%
%TO.N,/SD0*%
X147000000Y-50750000D03*
%TO.P,NAU7802-1,6,Pin_6_6*%
%TO.N,unconnected-(NAU7802-1-Pin_6-Pad6)*%
X147000000Y-48210000D03*
%TD*%
D12*
%TO.P,i2c1,1,Pin_1_1*%
%TO.N,/3.3V*%
X140750000Y-38000000D03*
D13*
%TO.P,i2c1,2,Pin_2_2*%
%TO.N,/GND*%
X138210000Y-38000000D03*
%TO.P,i2c1,3,Pin_3_3*%
%TO.N,/SDA_to_ESP*%
X135670000Y-38000000D03*
%TO.P,i2c1,4,Pin_4_4*%
%TO.N,/SCL_to_ESP*%
X133130000Y-38000000D03*
%TD*%
D10*
%TO.P,NAU7802-5,1,Pin_1_1*%
%TO.N,/3.3V*%
X180000000Y-103850000D03*
D11*
%TO.P,NAU7802-5,2,Pin_2_2*%
%TO.N,unconnected-(NAU7802-5-Pin_2-Pad2)*%
X180000000Y-106390000D03*
%TO.P,NAU7802-5,3,Pin_3_3*%
%TO.N,/GND*%
X180000000Y-108930000D03*
%TO.P,NAU7802-5,4,Pin_4_4*%
%TO.N,/SC4*%
X180000000Y-111470000D03*
%TO.P,NAU7802-5,5,Pin_5_5*%
%TO.N,/SD4*%
X180000000Y-114010000D03*
%TO.P,NAU7802-5,6,Pin_6_6*%
%TO.N,unconnected-(NAU7802-5-Pin_6-Pad6)*%
X180000000Y-116550000D03*
%TD*%
D10*
%TO.P,J1,1,Pin_1_1*%
%TO.N,/3.3V*%
X156260000Y-68010000D03*
D11*
%TO.P,J1,2,Pin_2_2*%
%TO.N,/GND*%
X156260000Y-70550000D03*
%TO.P,J1,3,Pin_3_3*%
%TO.N,/SDA_to_ESP*%
X156260000Y-73090000D03*
%TO.P,J1,4,Pin_4_4*%
%TO.N,/SCL_to_ESP*%
X156260000Y-75630000D03*
%TO.P,J1,5,Pin_5_5*%
%TO.N,/RST*%
X156260000Y-78170000D03*
%TO.P,J1,6,Pin_6_6*%
%TO.N,/A0*%
X156260000Y-80710000D03*
%TO.P,J1,7,Pin_7_7*%
%TO.N,/A1*%
X156260000Y-83250000D03*
%TO.P,J1,8,Pin_8_8*%
%TO.N,/A2*%
X156260000Y-85790000D03*
%TO.P,J1,9,Pin_9_9*%
%TO.N,/SD0*%
X156260000Y-88330000D03*
%TO.P,J1,10,Pin_10_10*%
%TO.N,/SC0*%
X156260000Y-90870000D03*
%TO.P,J1,11,Pin_11_11*%
%TO.N,/SD1*%
X156260000Y-93410000D03*
%TO.P,J1,12,Pin_12_12*%
%TO.N,/SC1*%
X156260000Y-95950000D03*
%TD*%
D10*
%TO.P,NAU7802-8,1,Pin_1_1*%
%TO.N,/3.3V*%
X156840000Y-62000000D03*
D11*
%TO.P,NAU7802-8,2,Pin_2_2*%
%TO.N,unconnected-(NAU7802-8-Pin_2-Pad2)*%
X159380000Y-62000000D03*
%TO.P,NAU7802-8,3,Pin_3_3*%
%TO.N,/GND*%
X161920000Y-62000000D03*
%TO.P,NAU7802-8,4,Pin_4_4*%
%TO.N,/SC7*%
X164460000Y-62000000D03*
%TO.P,NAU7802-8,5,Pin_5_5*%
%TO.N,/SD7*%
X167000000Y-62000000D03*
%TO.P,NAU7802-8,6,Pin_6_6*%
%TO.N,unconnected-(NAU7802-8-Pin_6-Pad6)*%
X169540000Y-62000000D03*
%TD*%
D10*
%TO.P,J2,1,Pin_1_1*%
%TO.N,/SC7*%
X171500000Y-68010000D03*
D11*
%TO.P,J2,2,Pin_2_2*%
%TO.N,/SD7*%
X171500000Y-70550000D03*
%TO.P,J2,3,Pin_3_3*%
%TO.N,/SC6*%
X171500000Y-73090000D03*
%TO.P,J2,4,Pin_4_4*%
%TO.N,/SD6*%
X171500000Y-75630000D03*
%TO.P,J2,5,Pin_5_5*%
%TO.N,/SC5*%
X171500000Y-78170000D03*
%TO.P,J2,6,Pin_6_6*%
%TO.N,/SD5*%
X171500000Y-80710000D03*
%TO.P,J2,7,Pin_7_7*%
%TO.N,/SC4*%
X171500000Y-83250000D03*
%TO.P,J2,8,Pin_8_8*%
%TO.N,/SD4*%
X171500000Y-85790000D03*
%TO.P,J2,9,Pin_9_9*%
%TO.N,/SC3*%
X171500000Y-88330000D03*
%TO.P,J2,10,Pin_10_10*%
%TO.N,/SD3*%
X171500000Y-90870000D03*
%TO.P,J2,11,Pin_11_11*%
%TO.N,/SC2*%
X171500000Y-93410000D03*
%TO.P,J2,12,Pin_12_12*%
%TO.N,/SD2*%
X171500000Y-95950000D03*
%TD*%
D10*
%TO.P,NAU7802-4,1,Pin_1_1*%
%TO.N,/3.3V*%
X169700000Y-102450000D03*
D11*
%TO.P,NAU7802-4,2,Pin_2_2*%
%TO.N,unconnected-(NAU7802-4-Pin_2-Pad2)*%
X167160000Y-102450000D03*
%TO.P,NAU7802-4,3,Pin_3_3*%
%TO.N,/GND*%
X164620000Y-102450000D03*
%TO.P,NAU7802-4,4,Pin_4_4*%
%TO.N,/SC3*%
X162080000Y-102450000D03*
%TO.P,NAU7802-4,5,Pin_5_5*%
%TO.N,/SD3*%
X159540000Y-102450000D03*
%TO.P,NAU7802-4,6,Pin_6_6*%
%TO.N,unconnected-(NAU7802-4-Pin_6-Pad6)*%
X157000000Y-102450000D03*
%TD*%
D10*
%TO.P,NAU7802-6,1,Pin_1_1*%
%TO.N,/3.3V*%
X180000000Y-76080000D03*
D11*
%TO.P,NAU7802-6,2,Pin_2_2*%
%TO.N,unconnected-(NAU7802-6-Pin_2-Pad2)*%
X180000000Y-78620000D03*
%TO.P,NAU7802-6,3,Pin_3_3*%
%TO.N,/GND*%
X180000000Y-81160000D03*
%TO.P,NAU7802-6,4,Pin_4_4*%
%TO.N,/SC5*%
X180000000Y-83700000D03*
%TO.P,NAU7802-6,5,Pin_5_5*%
%TO.N,/SD5*%
X180000000Y-86240000D03*
%TO.P,NAU7802-6,6,Pin_6_6*%
%TO.N,unconnected-(NAU7802-6-Pin_6-Pad6)*%
X180000000Y-88780000D03*
%TD*%
D10*
%TO.P,NAU7802-7,1,Pin_1_1*%
%TO.N,/3.3V*%
X180000000Y-48310000D03*
D11*
%TO.P,NAU7802-7,2,Pin_2_2*%
%TO.N,unconnected-(NAU7802-7-Pin_2-Pad2)*%
X180000000Y-50850000D03*
%TO.P,NAU7802-7,3,Pin_3_3*%
%TO.N,/GND*%
X180000000Y-53390000D03*
%TO.P,NAU7802-7,4,Pin_4_4*%
%TO.N,/SC6*%
X180000000Y-55930000D03*
%TO.P,NAU7802-7,5,Pin_5_5*%
%TO.N,/SD6*%
X180000000Y-58470000D03*
%TO.P,NAU7802-7,6,Pin_6_6*%
%TO.N,unconnected-(NAU7802-7-Pin_6-Pad6)*%
X180000000Y-61010000D03*
%TD*%
D14*
%TO.N,/GND*%
X134500000Y-40500000D03*
X134250000Y-51500000D03*
X138750000Y-52250000D03*
X137000000Y-35750000D03*
X139250000Y-35750000D03*
X139000000Y-40500000D03*
X137250000Y-40250000D03*
X179000000Y-65250000D03*
X178750000Y-68250000D03*
X163250000Y-94750000D03*
X169500000Y-94750000D03*
X167500000Y-91000000D03*
X197000000Y-34750000D03*
X143500000Y-52500000D03*
X196750000Y-51500000D03*
X129000000Y-39750000D03*
X161500000Y-104750000D03*
X167000000Y-120000000D03*
X129000000Y-115750000D03*
X144000000Y-35000000D03*
X158750000Y-81250000D03*
X197750000Y-115250000D03*
X176000000Y-77750000D03*
X159250000Y-87750000D03*
X158750000Y-72750000D03*
X176250000Y-83000000D03*
X149750000Y-58500000D03*
X179750000Y-92250000D03*
X175000000Y-54250000D03*
X175000000Y-105000000D03*
X164250000Y-71250000D03*
X163250000Y-65000000D03*
X197500000Y-77500000D03*
X150000000Y-104250000D03*
X149250000Y-86000000D03*
X150250000Y-78500000D03*
X128500000Y-75250000D03*
X143750000Y-89000000D03*
X163500000Y-58000000D03*
X144500000Y-113500000D03*
X169750000Y-43750000D03*
X184000000Y-77750000D03*
X197250000Y-59500000D03*
X175250000Y-108500000D03*
X153000000Y-80000000D03*
X151750000Y-113750000D03*
X159250000Y-119500000D03*
X128750000Y-61000000D03*
X184000000Y-49750000D03*
X182500000Y-106500000D03*
X175250000Y-92250000D03*
X197750000Y-106250000D03*
X148750000Y-63750000D03*
X153000000Y-67250000D03*
X175000000Y-50000000D03*
X162000000Y-97750000D03*
X129000000Y-106500000D03*
X158750000Y-75250000D03*
X179750000Y-99250000D03*
X129250000Y-35000000D03*
X160750000Y-65250000D03*
X143250000Y-40250000D03*
X197750000Y-87500000D03*
X128750000Y-88250000D03*
X183750000Y-57750000D03*
X129250000Y-51250000D03*
X166750000Y-97750000D03*
X150250000Y-101500000D03*
X159500000Y-100000000D03*
X160250000Y-58500000D03*
X151750000Y-95500000D03*
X153750000Y-100750000D03*
X158500000Y-92750000D03*
X156750000Y-44500000D03*
X153000000Y-60500000D03*
X183250000Y-112750000D03*
X144250000Y-47500000D03*
X184750000Y-86000000D03*
X151250000Y-108500000D03*
X160750000Y-80000000D03*
X174250000Y-81250000D03*
X144000000Y-83250000D03*
X166000000Y-100750000D03*
X173500000Y-100750000D03*
X165250000Y-104750000D03*
X144750000Y-109750000D03*
X164500000Y-35750000D03*
%TO.N,/A0*%
X164450000Y-76280000D03*
%TO.N,/A1*%
X164450000Y-80430000D03*
%TO.N,/A2*%
X164450000Y-84580000D03*
%TO.N,/GND*%
X170500000Y-65250000D03*
%TD*%
%TO.N,/3.3V*%
D15*
X147000000Y-116450000D02*
X155700000Y-116450000D01*
X176750000Y-102450000D02*
X178150000Y-103850000D01*
X180000000Y-103850000D02*
X178150000Y-103850000D01*
X155700000Y-116450000D02*
X169700000Y-102450000D01*
X169700000Y-102450000D02*
X176750000Y-102450000D01*
%TO.N,/A0*%
X160690000Y-76280000D02*
X164450000Y-76280000D01*
X156260000Y-80710000D02*
X160690000Y-76280000D01*
%TO.N,/SC0*%
X151455100Y-57745100D02*
X151455100Y-86065100D01*
X151455100Y-86065100D02*
X156260000Y-90870000D01*
X147000000Y-53290000D02*
X151455100Y-57745100D01*
%TO.N,/A1*%
X161630000Y-83250000D02*
X164450000Y-80430000D01*
X156260000Y-83250000D02*
X161630000Y-83250000D01*
%TO.N,/SD0*%
X154691800Y-58441800D02*
X147000000Y-50750000D01*
X156260000Y-88330000D02*
X154691800Y-86761800D01*
X154691800Y-86761800D02*
X154691800Y-58441800D01*
%TO.N,/A2*%
X156260000Y-85790000D02*
X163240000Y-85790000D01*
X163240000Y-85790000D02*
X164450000Y-84580000D01*
%TO.N,/SC2*%
X161958200Y-93410000D02*
X156787200Y-98581000D01*
X156787200Y-98581000D02*
X149966700Y-98581000D01*
X149966700Y-98581000D02*
X145432600Y-103115100D01*
X171500000Y-93410000D02*
X161958200Y-93410000D01*
X145432600Y-107262600D02*
X147000000Y-108830000D01*
X145432600Y-103115100D02*
X145432600Y-107262600D01*
%TO.N,/SD5*%
X171500000Y-80710000D02*
X177030000Y-86240000D01*
X177030000Y-86240000D02*
X180000000Y-86240000D01*
%TO.N,/SD2*%
X147000000Y-106290000D02*
X150915500Y-106290000D01*
X150915500Y-106290000D02*
X161255500Y-95950000D01*
X161255500Y-95950000D02*
X171500000Y-95950000D01*
%TO.N,/SC5*%
X174470000Y-78170000D02*
X180000000Y-83700000D01*
X171500000Y-78170000D02*
X174470000Y-78170000D01*
%TO.N,/SC7*%
X171500000Y-68010000D02*
X169650000Y-68010000D01*
X169650000Y-67190000D02*
X164460000Y-62000000D01*
X169650000Y-68010000D02*
X169650000Y-67190000D01*
%TO.N,/SC3*%
X170054800Y-99590400D02*
X164939600Y-99590400D01*
X164939600Y-99590400D02*
X162080000Y-102450000D01*
X171500000Y-88330000D02*
X173065600Y-89895600D01*
X173065600Y-89895600D02*
X173065600Y-96579600D01*
X173065600Y-96579600D02*
X170054800Y-99590400D01*
%TD*%
%TA.AperFunction,Conductor*%
%TO.N,/GND*%
G36*
X165735270Y-103211717D02*
G01*
X165735270Y-103211716D01*
X165774622Y-103157555D01*
X165779232Y-103148507D01*
X165827205Y-103097709D01*
X165895025Y-103080912D01*
X165961161Y-103103447D01*
X166000204Y-103148504D01*
X166004949Y-103157817D01*
X166129890Y-103329786D01*
X166280213Y-103480109D01*
X166452179Y-103605048D01*
X166452181Y-103605049D01*
X166452184Y-103605051D01*
X166641588Y-103701557D01*
X166744960Y-103735144D01*
X166802635Y-103774581D01*
X166829833Y-103838940D01*
X166817918Y-103907786D01*
X166794322Y-103940756D01*
X155321899Y-115413181D01*
X155260576Y-115446666D01*
X155234218Y-115449500D01*
X148414141Y-115449500D01*
X148347102Y-115429815D01*
X148301347Y-115377011D01*
X148297969Y-115368859D01*
X148293796Y-115357669D01*
X148293793Y-115357665D01*
X148293793Y-115357664D01*
X148207547Y-115242455D01*
X148207544Y-115242452D01*
X148092335Y-115156206D01*
X148092328Y-115156202D01*
X147960917Y-115107189D01*
X147904983Y-115065318D01*
X147880566Y-114999853D01*
X147895418Y-114931580D01*
X147916563Y-114903332D01*
X148030104Y-114789792D01*
X148155051Y-114617816D01*
X148251557Y-114428412D01*
X148317246Y-114226243D01*
X148350500Y-114016287D01*
X148350500Y-113803713D01*
X148317246Y-113593757D01*
X148251557Y-113391588D01*
X148155051Y-113202184D01*
X148155049Y-113202181D01*
X148155048Y-113202179D01*
X148030109Y-113030213D01*
X147879786Y-112879890D01*
X147707817Y-112754949D01*
X147698504Y-112750204D01*
X147647707Y-112702230D01*
X147630912Y-112634409D01*
X147653449Y-112568274D01*
X147698507Y-112529232D01*
X147707555Y-112524622D01*
X147761716Y-112485270D01*
X147761717Y-112485270D01*
X147129408Y-111852962D01*
X147192993Y-111835925D01*
X147307007Y-111770099D01*
X147400099Y-111677007D01*
X147465925Y-111562993D01*
X147482962Y-111499408D01*
X148115270Y-112131717D01*
X148115270Y-112131716D01*
X148154622Y-112077554D01*
X148251095Y-111888217D01*
X148316757Y-111686130D01*
X148316757Y-111686127D01*
X148350000Y-111476246D01*
X148350000Y-111263753D01*
X148316757Y-111053872D01*
X148316757Y-111053869D01*
X148251095Y-110851782D01*
X148154624Y-110662449D01*
X148115270Y-110608282D01*
X148115269Y-110608282D01*
X147482962Y-111240590D01*
X147465925Y-111177007D01*
X147400099Y-111062993D01*
X147307007Y-110969901D01*
X147192993Y-110904075D01*
X147129409Y-110887037D01*
X147761716Y-110254728D01*
X147707547Y-110215373D01*
X147707547Y-110215372D01*
X147698500Y-110210763D01*
X147647706Y-110162788D01*
X147630912Y-110094966D01*
X147653451Y-110028832D01*
X147698508Y-109989793D01*
X147707816Y-109985051D01*
X147787007Y-109927515D01*
X147879786Y-109860109D01*
X147879788Y-109860106D01*
X147879792Y-109860104D01*
X148030104Y-109709792D01*
X148030106Y-109709788D01*
X148030109Y-109709786D01*
X148155048Y-109537820D01*
X148155047Y-109537820D01*
X148155051Y-109537816D01*
X148251557Y-109348412D01*
X148317246Y-109146243D01*
X148350500Y-108936287D01*
X148350500Y-108723713D01*
X148317246Y-108513757D01*
X148251557Y-108311588D01*
X148155051Y-108122184D01*
X148155049Y-108122181D01*
X148155048Y-108122179D01*
X148030109Y-107950213D01*
X147879786Y-107799890D01*
X147707820Y-107674951D01*
X147707115Y-107674591D01*
X147699054Y-107670485D01*
X147648259Y-107622512D01*
X147631463Y-107554692D01*
X147653999Y-107488556D01*
X147699054Y-107449515D01*
X147707816Y-107445051D01*
X147742153Y-107420104D01*
X147883734Y-107317241D01*
X147884364Y-107318108D01*
X147943419Y-107291641D01*
X147960200Y-107290500D01*
X151014043Y-107290500D01*
X151039299Y-107285475D01*
X151118146Y-107269792D01*
X151207336Y-107252051D01*
X151260665Y-107229961D01*
X151389414Y-107176632D01*
X151553282Y-107067139D01*
X151692639Y-106927782D01*
X151692640Y-106927779D01*
X151699706Y-106920714D01*
X151699709Y-106920710D01*
X155595210Y-103025208D01*
X155656531Y-102991725D01*
X155726223Y-102996709D01*
X155782156Y-103038581D01*
X155793373Y-103056595D01*
X155844949Y-103157817D01*
X155969890Y-103329786D01*
X156120213Y-103480109D01*
X156292179Y-103605048D01*
X156292181Y-103605049D01*
X156292184Y-103605051D01*
X156481588Y-103701557D01*
X156683757Y-103767246D01*
X156893713Y-103800500D01*
X156893714Y-103800500D01*
X157106286Y-103800500D01*
X157106287Y-103800500D01*
X157316243Y-103767246D01*
X157518412Y-103701557D01*
X157707816Y-103605051D01*
X157794138Y-103542335D01*
X157879786Y-103480109D01*
X157879788Y-103480106D01*
X157879792Y-103480104D01*
X158030104Y-103329792D01*
X158030106Y-103329788D01*
X158030109Y-103329786D01*
X158155048Y-103157820D01*
X158155047Y-103157820D01*
X158155051Y-103157816D01*
X158159514Y-103149054D01*
X158207488Y-103098259D01*
X158275308Y-103081463D01*
X158341444Y-103103999D01*
X158380486Y-103149056D01*
X158384951Y-103157820D01*
X158509890Y-103329786D01*
X158660213Y-103480109D01*
X158832179Y-103605048D01*
X158832181Y-103605049D01*
X158832184Y-103605051D01*
X159021588Y-103701557D01*
X159223757Y-103767246D01*
X159433713Y-103800500D01*
X159433714Y-103800500D01*
X159646286Y-103800500D01*
X159646287Y-103800500D01*
X159856243Y-103767246D01*
X160058412Y-103701557D01*
X160247816Y-103605051D01*
X160334138Y-103542335D01*
X160419786Y-103480109D01*
X160419788Y-103480106D01*
X160419792Y-103480104D01*
X160570104Y-103329792D01*
X160570106Y-103329788D01*
X160570109Y-103329786D01*
X160695048Y-103157820D01*
X160695047Y-103157820D01*
X160695051Y-103157816D01*
X160699514Y-103149054D01*
X160747488Y-103098259D01*
X160815308Y-103081463D01*
X160881444Y-103103999D01*
X160920486Y-103149056D01*
X160924951Y-103157820D01*
X161049890Y-103329786D01*
X161200213Y-103480109D01*
X161372179Y-103605048D01*
X161372181Y-103605049D01*
X161372184Y-103605051D01*
X161561588Y-103701557D01*
X161763757Y-103767246D01*
X161973713Y-103800500D01*
X161973714Y-103800500D01*
X162186286Y-103800500D01*
X162186287Y-103800500D01*
X162396243Y-103767246D01*
X162598412Y-103701557D01*
X162787816Y-103605051D01*
X162874138Y-103542335D01*
X162959786Y-103480109D01*
X162959788Y-103480106D01*
X162959792Y-103480104D01*
X163110104Y-103329792D01*
X163110106Y-103329788D01*
X163110109Y-103329786D01*
X163195890Y-103211717D01*
X163235051Y-103157816D01*
X163239793Y-103148508D01*
X163287763Y-103097711D01*
X163355583Y-103080911D01*
X163421719Y-103103445D01*
X163460763Y-103148500D01*
X163465373Y-103157547D01*
X163504728Y-103211716D01*
X164137037Y-102579408D01*
X164154075Y-102642993D01*
X164219901Y-102757007D01*
X164312993Y-102850099D01*
X164427007Y-102915925D01*
X164490590Y-102932962D01*
X163858282Y-103565269D01*
X163858282Y-103565270D01*
X163912449Y-103604624D01*
X164101782Y-103701095D01*
X164303870Y-103766757D01*
X164513754Y-103800000D01*
X164726246Y-103800000D01*
X164936127Y-103766757D01*
X164936130Y-103766757D01*
X165138217Y-103701095D01*
X165327554Y-103604622D01*
X165381716Y-103565270D01*
X165381717Y-103565270D01*
X164749408Y-102932962D01*
X164812993Y-102915925D01*
X164927007Y-102850099D01*
X165020099Y-102757007D01*
X165085925Y-102642993D01*
X165102962Y-102579408D01*
X165735270Y-103211717D01*
G37*
%TD.AperFunction*%
%TA.AperFunction,Conductor*%
G36*
X155976757Y-99601185D02*
G01*
X156022512Y-99653989D01*
X156032456Y-99723147D01*
X156003431Y-99786703D01*
X155997399Y-99793181D01*
X150537399Y-105253181D01*
X150476076Y-105286666D01*
X150449718Y-105289500D01*
X147960200Y-105289500D01*
X147893161Y-105269815D01*
X147880634Y-105260506D01*
X147707820Y-105134951D01*
X147707115Y-105134591D01*
X147699054Y-105130485D01*
X147648259Y-105082512D01*
X147631463Y-105014692D01*
X147653999Y-104948556D01*
X147699054Y-104909515D01*
X147707816Y-104905051D01*
X147809361Y-104831275D01*
X147879786Y-104780109D01*
X147879792Y-104780104D01*
X147923268Y-104736628D01*
X148030104Y-104629792D01*
X148030106Y-104629788D01*
X148030109Y-104629786D01*
X148155048Y-104457820D01*
X148155047Y-104457820D01*
X148155051Y-104457816D01*
X148251557Y-104268412D01*
X148317246Y-104066243D01*
X148350500Y-103856287D01*
X148350500Y-103643713D01*
X148317246Y-103433757D01*
X148251557Y-103231588D01*
X148155051Y-103042184D01*
X148155049Y-103042181D01*
X148155048Y-103042179D01*
X148030109Y-102870213D01*
X147879786Y-102719890D01*
X147707820Y-102594951D01*
X147700043Y-102590988D01*
X147634550Y-102557618D01*
X147583755Y-102509645D01*
X147566960Y-102441824D01*
X147589497Y-102375689D01*
X147603159Y-102359459D01*
X150344802Y-99617819D01*
X150406125Y-99584334D01*
X150432483Y-99581500D01*
X155909718Y-99581500D01*
X155976757Y-99601185D01*
G37*
%TD.AperFunction*%
%TA.AperFunction,Conductor*%
G36*
X170564748Y-96957825D02*
G01*
X170590515Y-96961345D01*
X170602447Y-96968895D01*
X170606839Y-96970185D01*
X170619365Y-96979493D01*
X170792182Y-97105050D01*
X170860742Y-97139983D01*
X170911539Y-97187957D01*
X170928334Y-97255778D01*
X170905797Y-97321913D01*
X170892129Y-97338149D01*
X169676699Y-98553581D01*
X169615376Y-98587066D01*
X169589018Y-98589900D01*
X164841055Y-98589900D01*
X164744412Y-98609124D01*
X164647767Y-98628347D01*
X164647761Y-98628349D01*
X164594434Y-98650437D01*
X164594434Y-98650438D01*
X164548915Y-98669292D01*
X164465689Y-98703766D01*
X164465679Y-98703771D01*
X164301819Y-98813259D01*
X164232140Y-98882938D01*
X164162461Y-98952618D01*
X162051503Y-101063576D01*
X161990180Y-101097061D01*
X161974643Y-101099352D01*
X161763760Y-101132753D01*
X161561585Y-101198444D01*
X161372179Y-101294951D01*
X161200213Y-101419890D01*
X161049890Y-101570213D01*
X160924949Y-101742182D01*
X160920484Y-101750946D01*
X160872509Y-101801742D01*
X160804688Y-101818536D01*
X160738553Y-101795998D01*
X160699516Y-101750946D01*
X160695050Y-101742182D01*
X160570109Y-101570213D01*
X160419786Y-101419890D01*
X160247820Y-101294951D01*
X160058414Y-101198444D01*
X160058413Y-101198443D01*
X160058412Y-101198443D01*
X159856243Y-101132754D01*
X159856241Y-101132753D01*
X159856240Y-101132753D01*
X159694957Y-101107208D01*
X159646287Y-101099500D01*
X159433713Y-101099500D01*
X159385042Y-101107208D01*
X159223760Y-101132753D01*
X159021585Y-101198444D01*
X158832179Y-101294951D01*
X158660213Y-101419890D01*
X158509890Y-101570213D01*
X158384949Y-101742182D01*
X158380484Y-101750946D01*
X158332509Y-101801742D01*
X158264688Y-101818536D01*
X158198553Y-101795998D01*
X158159516Y-101750946D01*
X158155050Y-101742182D01*
X158030109Y-101570213D01*
X157879786Y-101419890D01*
X157707817Y-101294949D01*
X157606595Y-101243373D01*
X157555800Y-101195399D01*
X157539005Y-101127578D01*
X157561543Y-101061443D01*
X157575204Y-101045214D01*
X161633601Y-96986819D01*
X161694924Y-96953334D01*
X161721282Y-96950500D01*
X170539800Y-96950500D01*
X170564748Y-96957825D01*
G37*
%TD.AperFunction*%
%TA.AperFunction,Conductor*%
G36*
X163035270Y-62761717D02*
G01*
X163035270Y-62761716D01*
X163074622Y-62707555D01*
X163079232Y-62698507D01*
X163127205Y-62647709D01*
X163195025Y-62630912D01*
X163261161Y-62653447D01*
X163300204Y-62698504D01*
X163304949Y-62707817D01*
X163429890Y-62879786D01*
X163580213Y-63030109D01*
X163752179Y-63155048D01*
X163752181Y-63155049D01*
X163752184Y-63155051D01*
X163941588Y-63251557D01*
X164143757Y-63317246D01*
X164353713Y-63350500D01*
X164353714Y-63350500D01*
X164358525Y-63351262D01*
X164358357Y-63352321D01*
X164418829Y-63375362D01*
X164431503Y-63386423D01*
X168613181Y-67568101D01*
X168646666Y-67629424D01*
X168649500Y-67655782D01*
X168649500Y-68108541D01*
X168649500Y-68108543D01*
X168649499Y-68108543D01*
X168687947Y-68301829D01*
X168687950Y-68301839D01*
X168763364Y-68483907D01*
X168763371Y-68483920D01*
X168872860Y-68647781D01*
X168872863Y-68647785D01*
X169012214Y-68787136D01*
X169012218Y-68787139D01*
X169176079Y-68896628D01*
X169176092Y-68896635D01*
X169347134Y-68967482D01*
X169358165Y-68972051D01*
X169358169Y-68972051D01*
X169358170Y-68972052D01*
X169551456Y-69010500D01*
X169551459Y-69010500D01*
X169748541Y-69010500D01*
X170085859Y-69010500D01*
X170152898Y-69030185D01*
X170198653Y-69082989D01*
X170202030Y-69091140D01*
X170206204Y-69102331D01*
X170206205Y-69102332D01*
X170206206Y-69102335D01*
X170292452Y-69217544D01*
X170292455Y-69217547D01*
X170407664Y-69303793D01*
X170407671Y-69303797D01*
X170539082Y-69352810D01*
X170595016Y-69394681D01*
X170619433Y-69460145D01*
X170604582Y-69528418D01*
X170583431Y-69556673D01*
X170469889Y-69670215D01*
X170344951Y-69842179D01*
X170248444Y-70031585D01*
X170182753Y-70233760D01*
X170149500Y-70443713D01*
X170149500Y-70656286D01*
X170182735Y-70866127D01*
X170182754Y-70866243D01*
X170244820Y-71057263D01*
X170248444Y-71068414D01*
X170344951Y-71257820D01*
X170469890Y-71429786D01*
X170620213Y-71580109D01*
X170792182Y-71705050D01*
X170800946Y-71709516D01*
X170851742Y-71757491D01*
X170868536Y-71825312D01*
X170845998Y-71891447D01*
X170800946Y-71930484D01*
X170792182Y-71934949D01*
X170620213Y-72059890D01*
X170469890Y-72210213D01*
X170344951Y-72382179D01*
X170248444Y-72571585D01*
X170182753Y-72773760D01*
X170149500Y-72983713D01*
X170149500Y-73196286D01*
X170182199Y-73402743D01*
X170182754Y-73406243D01*
X170237348Y-73574266D01*
X170248444Y-73608414D01*
X170344951Y-73797820D01*
X170469890Y-73969786D01*
X170620213Y-74120109D01*
X170792182Y-74245050D01*
X170800946Y-74249516D01*
X170851742Y-74297491D01*
X170868536Y-74365312D01*
X170845998Y-74431447D01*
X170800946Y-74470484D01*
X170792182Y-74474949D01*
X170620213Y-74599890D01*
X170469890Y-74750213D01*
X170344951Y-74922179D01*
X170248444Y-75111585D01*
X170182753Y-75313760D01*
X170170144Y-75393371D01*
X170149500Y-75523713D01*
X170149500Y-75736287D01*
X170182754Y-75946243D01*
X170228257Y-76086287D01*
X170248444Y-76148414D01*
X170344951Y-76337820D01*
X170469890Y-76509786D01*
X170620213Y-76660109D01*
X170792182Y-76785050D01*
X170800946Y-76789516D01*
X170851742Y-76837491D01*
X170868536Y-76905312D01*
X170845998Y-76971447D01*
X170800946Y-77010484D01*
X170792182Y-77014949D01*
X170620213Y-77139890D01*
X170469890Y-77290213D01*
X170344951Y-77462179D01*
X170248444Y-77651585D01*
X170182753Y-77853760D01*
X170173500Y-77912184D01*
X170149500Y-78063713D01*
X170149500Y-78276287D01*
X170182754Y-78486243D01*
X170228257Y-78626287D01*
X170248444Y-78688414D01*
X170344951Y-78877820D01*
X170469890Y-79049786D01*
X170620213Y-79200109D01*
X170792182Y-79325050D01*
X170800946Y-79329516D01*
X170851742Y-79377491D01*
X170868536Y-79445312D01*
X170845998Y-79511447D01*
X170800946Y-79550484D01*
X170792182Y-79554949D01*
X170620213Y-79679890D01*
X170469890Y-79830213D01*
X170344951Y-80002179D01*
X170248444Y-80191585D01*
X170182753Y-80393760D01*
X170159340Y-80541585D01*
X170149500Y-80603713D01*
X170149500Y-80816287D01*
X170182754Y-81026243D01*
X170228257Y-81166287D01*
X170248444Y-81228414D01*
X170344951Y-81417820D01*
X170469890Y-81589786D01*
X170620213Y-81740109D01*
X170792182Y-81865050D01*
X170800946Y-81869516D01*
X170851742Y-81917491D01*
X170868536Y-81985312D01*
X170845998Y-82051447D01*
X170800946Y-82090484D01*
X170792182Y-82094949D01*
X170620213Y-82219890D01*
X170469890Y-82370213D01*
X170344951Y-82542179D01*
X170248444Y-82731585D01*
X170182753Y-82933760D01*
X170149500Y-83143713D01*
X170149500Y-83356286D01*
X170177674Y-83534174D01*
X170182754Y-83566243D01*
X170235473Y-83728496D01*
X170248444Y-83768414D01*
X170344951Y-83957820D01*
X170469890Y-84129786D01*
X170620213Y-84280109D01*
X170792182Y-84405050D01*
X170800946Y-84409516D01*
X170851742Y-84457491D01*
X170868536Y-84525312D01*
X170845998Y-84591447D01*
X170800946Y-84630484D01*
X170792182Y-84634949D01*
X170620213Y-84759890D01*
X170469890Y-84910213D01*
X170344951Y-85082179D01*
X170248444Y-85271585D01*
X170182753Y-85473760D01*
X170173500Y-85532184D01*
X170149500Y-85683713D01*
X170149500Y-85896287D01*
X170182754Y-86106243D01*
X170228257Y-86246287D01*
X170248444Y-86308414D01*
X170344951Y-86497820D01*
X170469890Y-86669786D01*
X170620213Y-86820109D01*
X170792182Y-86945050D01*
X170800946Y-86949516D01*
X170851742Y-86997491D01*
X170868536Y-87065312D01*
X170845998Y-87131447D01*
X170800946Y-87170484D01*
X170792182Y-87174949D01*
X170620213Y-87299890D01*
X170469890Y-87450213D01*
X170344951Y-87622179D01*
X170248444Y-87811585D01*
X170182753Y-88013760D01*
X170149500Y-88223713D01*
X170149500Y-88436286D01*
X170182753Y-88646239D01*
X170248444Y-88848414D01*
X170344951Y-89037820D01*
X170469890Y-89209786D01*
X170620213Y-89360109D01*
X170792182Y-89485050D01*
X170800946Y-89489516D01*
X170851742Y-89537491D01*
X170868536Y-89605312D01*
X170845998Y-89671447D01*
X170800946Y-89710484D01*
X170792182Y-89714949D01*
X170620213Y-89839890D01*
X170469890Y-89990213D01*
X170344951Y-90162179D01*
X170248444Y-90351585D01*
X170182753Y-90553760D01*
X170149500Y-90763713D01*
X170149500Y-90976286D01*
X170182753Y-91186239D01*
X170248444Y-91388414D01*
X170344951Y-91577820D01*
X170469890Y-91749786D01*
X170620213Y-91900109D01*
X170792182Y-92025050D01*
X170800946Y-92029516D01*
X170851742Y-92077491D01*
X170868536Y-92145312D01*
X170845998Y-92211447D01*
X170800946Y-92250484D01*
X170792182Y-92254949D01*
X170616266Y-92382759D01*
X170615635Y-92381891D01*
X170556581Y-92408359D01*
X170539800Y-92409500D01*
X161859656Y-92409500D01*
X161666371Y-92447946D01*
X161666367Y-92447948D01*
X161666365Y-92447948D01*
X161666364Y-92447949D01*
X161590945Y-92479188D01*
X161590943Y-92479189D01*
X161484289Y-92523366D01*
X161484279Y-92523371D01*
X161320418Y-92632860D01*
X161320414Y-92632863D01*
X157822181Y-96131097D01*
X157760858Y-96164582D01*
X157691166Y-96159598D01*
X157635233Y-96117726D01*
X157610816Y-96052262D01*
X157610500Y-96043416D01*
X157610500Y-95843713D01*
X157577246Y-95633760D01*
X157577246Y-95633757D01*
X157511557Y-95431588D01*
X157415051Y-95242184D01*
X157415049Y-95242181D01*
X157415048Y-95242179D01*
X157290109Y-95070213D01*
X157139786Y-94919890D01*
X156967820Y-94794951D01*
X156967115Y-94794591D01*
X156959054Y-94790485D01*
X156908259Y-94742512D01*
X156891463Y-94674692D01*
X156913999Y-94608556D01*
X156959054Y-94569515D01*
X156967816Y-94565051D01*
X157130550Y-94446819D01*
X157139786Y-94440109D01*
X157139788Y-94440106D01*
X157139792Y-94440104D01*
X157290104Y-94289792D01*
X157290106Y-94289788D01*
X157290109Y-94289786D01*
X157412058Y-94121936D01*
X157415051Y-94117816D01*
X157511557Y-93928412D01*
X157577246Y-93726243D01*
X157610500Y-93516287D01*
X157610500Y-93303713D01*
X157577246Y-93093757D01*
X157511557Y-92891588D01*
X157415051Y-92702184D01*
X157415049Y-92702181D01*
X157415048Y-92702179D01*
X157290109Y-92530213D01*
X157139786Y-92379890D01*
X156967820Y-92254951D01*
X156967115Y-92254591D01*
X156959054Y-92250485D01*
X156908259Y-92202512D01*
X156891463Y-92134692D01*
X156913999Y-92068556D01*
X156959054Y-92029515D01*
X156967816Y-92025051D01*
X157024463Y-91983895D01*
X157139786Y-91900109D01*
X157139788Y-91900106D01*
X157139792Y-91900104D01*
X157290104Y-91749792D01*
X157290106Y-91749788D01*
X157290109Y-91749786D01*
X157415048Y-91577820D01*
X157415047Y-91577820D01*
X157415051Y-91577816D01*
X157511557Y-91388412D01*
X157577246Y-91186243D01*
X157610500Y-90976287D01*
X157610500Y-90763713D01*
X157577246Y-90553757D01*
X157511557Y-90351588D01*
X157415051Y-90162184D01*
X157415049Y-90162181D01*
X157415048Y-90162179D01*
X157290109Y-89990213D01*
X157139786Y-89839890D01*
X156967820Y-89714951D01*
X156967115Y-89714591D01*
X156959054Y-89710485D01*
X156908259Y-89662512D01*
X156891463Y-89594692D01*
X156913999Y-89528556D01*
X156959054Y-89489515D01*
X156967816Y-89485051D01*
X157055041Y-89421679D01*
X157139786Y-89360109D01*
X157139788Y-89360106D01*
X157139792Y-89360104D01*
X157290104Y-89209792D01*
X157290106Y-89209788D01*
X157290109Y-89209786D01*
X157415048Y-89037820D01*
X157415047Y-89037820D01*
X157415051Y-89037816D01*
X157511557Y-88848412D01*
X157577246Y-88646243D01*
X157610500Y-88436287D01*
X157610500Y-88223713D01*
X157577246Y-88013757D01*
X157511557Y-87811588D01*
X157415051Y-87622184D01*
X157415049Y-87622181D01*
X157415048Y-87622179D01*
X157290109Y-87450213D01*
X157139786Y-87299890D01*
X156967820Y-87174951D01*
X156967115Y-87174591D01*
X156959054Y-87170485D01*
X156908259Y-87122512D01*
X156891463Y-87054692D01*
X156913999Y-86988556D01*
X156959054Y-86949515D01*
X156967816Y-86945051D01*
X157039672Y-86892845D01*
X157143734Y-86817241D01*
X157144364Y-86818108D01*
X157203419Y-86791641D01*
X157220200Y-86790500D01*
X163338542Y-86790500D01*
X163369566Y-86784328D01*
X163435188Y-86771275D01*
X163531836Y-86752051D01*
X163585165Y-86729961D01*
X163713914Y-86676632D01*
X163877782Y-86567139D01*
X164017139Y-86427782D01*
X164017139Y-86427780D01*
X164027347Y-86417573D01*
X164027348Y-86417570D01*
X165227139Y-85217782D01*
X165336631Y-85053915D01*
X165412051Y-84871836D01*
X165450500Y-84678541D01*
X165450500Y-84481460D01*
X165450500Y-84481457D01*
X165450499Y-84481455D01*
X165435301Y-84405050D01*
X165412051Y-84288165D01*
X165336631Y-84106086D01*
X165336630Y-84106085D01*
X165336627Y-84106079D01*
X165227139Y-83942219D01*
X165227136Y-83942215D01*
X165087784Y-83802863D01*
X165087780Y-83802860D01*
X164923920Y-83693372D01*
X164923911Y-83693367D01*
X164741835Y-83617949D01*
X164741827Y-83617947D01*
X164548543Y-83579500D01*
X164548540Y-83579500D01*
X164351459Y-83579500D01*
X164351456Y-83579500D01*
X164158171Y-83617947D01*
X164158163Y-83617949D01*
X163976087Y-83693367D01*
X163976078Y-83693372D01*
X163812218Y-83802860D01*
X163812214Y-83802863D01*
X162861899Y-84753181D01*
X162800576Y-84786666D01*
X162774218Y-84789500D01*
X157220200Y-84789500D01*
X157153161Y-84769815D01*
X157140634Y-84760506D01*
X156967820Y-84634951D01*
X156967115Y-84634591D01*
X156959054Y-84630485D01*
X156908259Y-84582512D01*
X156891463Y-84514692D01*
X156913999Y-84448556D01*
X156959054Y-84409515D01*
X156967816Y-84405051D01*
X157027462Y-84361716D01*
X157143734Y-84277241D01*
X157144364Y-84278108D01*
X157203419Y-84251641D01*
X157220200Y-84250500D01*
X161728542Y-84250500D01*
X161759566Y-84244328D01*
X161825188Y-84231275D01*
X161921836Y-84212051D01*
X161975165Y-84189961D01*
X162103914Y-84136632D01*
X162267782Y-84027139D01*
X162407139Y-83887782D01*
X162407140Y-83887779D01*
X162414206Y-83880714D01*
X162414208Y-83880710D01*
X165227139Y-81067781D01*
X165336631Y-80903914D01*
X165412051Y-80721836D01*
X165450500Y-80528540D01*
X165450500Y-80331460D01*
X165450500Y-80331457D01*
X165450499Y-80331455D01*
X165412051Y-80138164D01*
X165336631Y-79956086D01*
X165336629Y-79956083D01*
X165336627Y-79956079D01*
X165227139Y-79792219D01*
X165227136Y-79792215D01*
X165087784Y-79652863D01*
X165087780Y-79652860D01*
X164923920Y-79543372D01*
X164923910Y-79543367D01*
X164741836Y-79467949D01*
X164741828Y-79467947D01*
X164548543Y-79429500D01*
X164548540Y-79429500D01*
X164351460Y-79429500D01*
X164351457Y-79429500D01*
X164158171Y-79467947D01*
X164158163Y-79467949D01*
X163976089Y-79543367D01*
X163976079Y-79543372D01*
X163812219Y-79652860D01*
X163812215Y-79652863D01*
X161251899Y-82213181D01*
X161190576Y-82246666D01*
X161164218Y-82249500D01*
X157220200Y-82249500D01*
X157153161Y-82229815D01*
X157140634Y-82220506D01*
X156967820Y-82094951D01*
X156967115Y-82094591D01*
X156959054Y-82090485D01*
X156908259Y-82042512D01*
X156891463Y-81974692D01*
X156913999Y-81908556D01*
X156959054Y-81869515D01*
X156967816Y-81865051D01*
X156989789Y-81849086D01*
X157139786Y-81740109D01*
X157139788Y-81740106D01*
X157139792Y-81740104D01*
X157290104Y-81589792D01*
X157290106Y-81589788D01*
X157290109Y-81589786D01*
X157415048Y-81417820D01*
X157415047Y-81417820D01*
X157415051Y-81417816D01*
X157511557Y-81228412D01*
X157577246Y-81026243D01*
X157610500Y-80816287D01*
X157610500Y-80816285D01*
X157611262Y-80811475D01*
X157612321Y-80811642D01*
X157635361Y-80751172D01*
X157646416Y-80738503D01*
X161068101Y-77316819D01*
X161129424Y-77283334D01*
X161155782Y-77280500D01*
X164548543Y-77280500D01*
X164701873Y-77250000D01*
X164741835Y-77242051D01*
X164923914Y-77166632D01*
X165087782Y-77057139D01*
X165227139Y-76917782D01*
X165336632Y-76753914D01*
X165412051Y-76571835D01*
X165450500Y-76378541D01*
X165450500Y-76181459D01*
X165450500Y-76181456D01*
X165412052Y-75988170D01*
X165412051Y-75988169D01*
X165412051Y-75988165D01*
X165412049Y-75988160D01*
X165336635Y-75806092D01*
X165336628Y-75806079D01*
X165227139Y-75642218D01*
X165227136Y-75642214D01*
X165087785Y-75502863D01*
X165087781Y-75502860D01*
X164923920Y-75393371D01*
X164923907Y-75393364D01*
X164741839Y-75317950D01*
X164741829Y-75317947D01*
X164548543Y-75279500D01*
X164548541Y-75279500D01*
X160591459Y-75279500D01*
X160591455Y-75279500D01*
X160499230Y-75297845D01*
X160499227Y-75297845D01*
X160494812Y-75298724D01*
X160398164Y-75317949D01*
X160349359Y-75338165D01*
X160342263Y-75341104D01*
X160342260Y-75341105D01*
X160216082Y-75393369D01*
X160052219Y-75502859D01*
X159982540Y-75572538D01*
X159912861Y-75642218D01*
X159912858Y-75642221D01*
X157750756Y-77804322D01*
X157689433Y-77837807D01*
X157619741Y-77832823D01*
X157563808Y-77790951D01*
X157545144Y-77754959D01*
X157511557Y-77651588D01*
X157415051Y-77462184D01*
X157415049Y-77462181D01*
X157415048Y-77462179D01*
X157290109Y-77290213D01*
X157139786Y-77139890D01*
X156967820Y-77014951D01*
X156967115Y-77014591D01*
X156959054Y-77010485D01*
X156908259Y-76962512D01*
X156891463Y-76894692D01*
X156913999Y-76828556D01*
X156959054Y-76789515D01*
X156967816Y-76785051D01*
X156989789Y-76769086D01*
X157139786Y-76660109D01*
X157139788Y-76660106D01*
X157139792Y-76660104D01*
X157290104Y-76509792D01*
X157290106Y-76509788D01*
X157290109Y-76509786D01*
X157415048Y-76337820D01*
X157415047Y-76337820D01*
X157415051Y-76337816D01*
X157511557Y-76148412D01*
X157577246Y-75946243D01*
X157610500Y-75736287D01*
X157610500Y-75523713D01*
X157577246Y-75313757D01*
X157511557Y-75111588D01*
X157415051Y-74922184D01*
X157415049Y-74922181D01*
X157415048Y-74922179D01*
X157290109Y-74750213D01*
X157139786Y-74599890D01*
X156967820Y-74474951D01*
X156967115Y-74474591D01*
X156959054Y-74470485D01*
X156908259Y-74422512D01*
X156891463Y-74354692D01*
X156913999Y-74288556D01*
X156959054Y-74249515D01*
X156967816Y-74245051D01*
X156989789Y-74229086D01*
X157139786Y-74120109D01*
X157139788Y-74120106D01*
X157139792Y-74120104D01*
X157290104Y-73969792D01*
X157290106Y-73969788D01*
X157290109Y-73969786D01*
X157415048Y-73797820D01*
X157415047Y-73797820D01*
X157415051Y-73797816D01*
X157511557Y-73608412D01*
X157577246Y-73406243D01*
X157610500Y-73196287D01*
X157610500Y-72983713D01*
X157577246Y-72773757D01*
X157511557Y-72571588D01*
X157415051Y-72382184D01*
X157415049Y-72382181D01*
X157415048Y-72382179D01*
X157290109Y-72210213D01*
X157139786Y-72059890D01*
X156967817Y-71934949D01*
X156958504Y-71930204D01*
X156907707Y-71882230D01*
X156890912Y-71814409D01*
X156913449Y-71748274D01*
X156958507Y-71709232D01*
X156967555Y-71704622D01*
X157021716Y-71665270D01*
X157021717Y-71665270D01*
X156389409Y-71032962D01*
X156452993Y-71015925D01*
X156567007Y-70950099D01*
X156660099Y-70857007D01*
X156725925Y-70742993D01*
X156742962Y-70679408D01*
X157375270Y-71311717D01*
X157375270Y-71311716D01*
X157414622Y-71257554D01*
X157511095Y-71068217D01*
X157576757Y-70866130D01*
X157576757Y-70866127D01*
X157610000Y-70656246D01*
X157610000Y-70443753D01*
X157576757Y-70233872D01*
X157576757Y-70233869D01*
X157511095Y-70031782D01*
X157414624Y-69842449D01*
X157375270Y-69788282D01*
X157375269Y-69788282D01*
X156742962Y-70420590D01*
X156725925Y-70357007D01*
X156660099Y-70242993D01*
X156567007Y-70149901D01*
X156452993Y-70084075D01*
X156389407Y-70067036D01*
X157059627Y-69396818D01*
X157120950Y-69363333D01*
X157147308Y-69360499D01*
X157157871Y-69360499D01*
X157157872Y-69360499D01*
X157217483Y-69354091D01*
X157352331Y-69303796D01*
X157467546Y-69217546D01*
X157553796Y-69102331D01*
X157604091Y-68967483D01*
X157610500Y-68907873D01*
X157610499Y-67112128D01*
X157604091Y-67052517D01*
X157553796Y-66917669D01*
X157553795Y-66917668D01*
X157553793Y-66917664D01*
X157467547Y-66802455D01*
X157467544Y-66802452D01*
X157352335Y-66716206D01*
X157352328Y-66716202D01*
X157217482Y-66665908D01*
X157217483Y-66665908D01*
X157157883Y-66659501D01*
X157157881Y-66659500D01*
X157157873Y-66659500D01*
X157157865Y-66659500D01*
X155816300Y-66659500D01*
X155749261Y-66639815D01*
X155703506Y-66587011D01*
X155692300Y-66535500D01*
X155692300Y-63451738D01*
X155711985Y-63384699D01*
X155764789Y-63338944D01*
X155833947Y-63329000D01*
X155859633Y-63335556D01*
X155882517Y-63344091D01*
X155882516Y-63344091D01*
X155889444Y-63344835D01*
X155942127Y-63350500D01*
X157737872Y-63350499D01*
X157797483Y-63344091D01*
X157932331Y-63293796D01*
X158047546Y-63207546D01*
X158133796Y-63092331D01*
X158182810Y-62960916D01*
X158224681Y-62904984D01*
X158290145Y-62880566D01*
X158358418Y-62895417D01*
X158386673Y-62916569D01*
X158500213Y-63030109D01*
X158672179Y-63155048D01*
X158672181Y-63155049D01*
X158672184Y-63155051D01*
X158861588Y-63251557D01*
X159063757Y-63317246D01*
X159273713Y-63350500D01*
X159273714Y-63350500D01*
X159486286Y-63350500D01*
X159486287Y-63350500D01*
X159696243Y-63317246D01*
X159898412Y-63251557D01*
X160087816Y-63155051D01*
X160174138Y-63092335D01*
X160259786Y-63030109D01*
X160259788Y-63030106D01*
X160259792Y-63030104D01*
X160410104Y-62879792D01*
X160410106Y-62879788D01*
X160410109Y-62879786D01*
X160495890Y-62761717D01*
X160535051Y-62707816D01*
X160539793Y-62698508D01*
X160587763Y-62647711D01*
X160655583Y-62630911D01*
X160721719Y-62653445D01*
X160760763Y-62698500D01*
X160765373Y-62707547D01*
X160804728Y-62761716D01*
X161437037Y-62129408D01*
X161454075Y-62192993D01*
X161519901Y-62307007D01*
X161612993Y-62400099D01*
X161727007Y-62465925D01*
X161790590Y-62482962D01*
X161158282Y-63115269D01*
X161158282Y-63115270D01*
X161212449Y-63154624D01*
X161401782Y-63251095D01*
X161603870Y-63316757D01*
X161813754Y-63350000D01*
X162026246Y-63350000D01*
X162236127Y-63316757D01*
X162236130Y-63316757D01*
X162438217Y-63251095D01*
X162627554Y-63154622D01*
X162681716Y-63115270D01*
X162681717Y-63115270D01*
X162049408Y-62482962D01*
X162112993Y-62465925D01*
X162227007Y-62400099D01*
X162320099Y-62307007D01*
X162385925Y-62192993D01*
X162402962Y-62129408D01*
X163035270Y-62761717D01*
G37*
%TD.AperFunction*%
%TA.AperFunction,Conductor*%
G36*
X170606839Y-94430185D02*
G01*
X170619365Y-94439493D01*
X170792182Y-94565050D01*
X170800946Y-94569516D01*
X170851742Y-94617491D01*
X170868536Y-94685312D01*
X170845998Y-94751447D01*
X170800946Y-94790484D01*
X170792182Y-94794949D01*
X170616266Y-94922759D01*
X170615635Y-94921891D01*
X170556581Y-94948359D01*
X170539800Y-94949500D01*
X162132983Y-94949500D01*
X162065944Y-94929815D01*
X162020189Y-94877011D01*
X162010245Y-94807853D01*
X162039270Y-94744297D01*
X162045302Y-94737819D01*
X162336302Y-94446819D01*
X162397625Y-94413334D01*
X162423983Y-94410500D01*
X170539800Y-94410500D01*
X170606839Y-94430185D01*
G37*
%TD.AperFunction*%
%TA.AperFunction,Conductor*%
G36*
X152660803Y-57826169D02*
G01*
X152667281Y-57832201D01*
X153654981Y-58819901D01*
X153688466Y-58881224D01*
X153691300Y-58907582D01*
X153691300Y-86587017D01*
X153671615Y-86654056D01*
X153618811Y-86699811D01*
X153549653Y-86709755D01*
X153486097Y-86680730D01*
X153479619Y-86674698D01*
X152491919Y-85686998D01*
X152458434Y-85625675D01*
X152455600Y-85599317D01*
X152455600Y-57919882D01*
X152475285Y-57852843D01*
X152528089Y-57807088D01*
X152597247Y-57797144D01*
X152660803Y-57826169D01*
G37*
%TD.AperFunction*%
%TA.AperFunction,Conductor*%
G36*
X174071257Y-79190185D02*
G01*
X174091899Y-79206819D01*
X178613576Y-83728496D01*
X178647061Y-83789819D01*
X178649350Y-83805344D01*
X178680197Y-84000099D01*
X178682754Y-84016243D01*
X178746376Y-84212051D01*
X178748444Y-84218414D01*
X178844951Y-84407820D01*
X178969890Y-84579786D01*
X179120213Y-84730109D01*
X179292182Y-84855050D01*
X179300946Y-84859516D01*
X179351742Y-84907491D01*
X179368536Y-84975312D01*
X179345998Y-85041447D01*
X179300946Y-85080484D01*
X179292182Y-85084949D01*
X179116266Y-85212759D01*
X179115635Y-85211891D01*
X179056581Y-85238359D01*
X179039800Y-85239500D01*
X177495782Y-85239500D01*
X177428743Y-85219815D01*
X177408101Y-85203181D01*
X172886423Y-80681503D01*
X172852938Y-80620180D01*
X172850657Y-80604708D01*
X172850500Y-80603716D01*
X172850500Y-80603713D01*
X172817246Y-80393757D01*
X172751557Y-80191588D01*
X172655051Y-80002184D01*
X172655049Y-80002181D01*
X172655048Y-80002179D01*
X172530109Y-79830213D01*
X172379786Y-79679890D01*
X172207820Y-79554951D01*
X172207115Y-79554591D01*
X172199054Y-79550485D01*
X172148259Y-79502512D01*
X172131463Y-79434692D01*
X172153999Y-79368556D01*
X172199054Y-79329515D01*
X172207816Y-79325051D01*
X172222769Y-79314186D01*
X172383734Y-79197241D01*
X172384364Y-79198108D01*
X172443419Y-79171641D01*
X172460200Y-79170500D01*
X174004218Y-79170500D01*
X174071257Y-79190185D01*
G37*
%TD.AperFunction*%
%TA.AperFunction,Conductor*%
G36*
X199942539Y-34020185D02*
G01*
X199988294Y-34072989D01*
X199999500Y-34124500D01*
X199999500Y-122875500D01*
X199979815Y-122942539D01*
X199927011Y-122988294D01*
X199875500Y-122999500D01*
X127124500Y-122999500D01*
X127057461Y-122979815D01*
X127011706Y-122927011D01*
X127000500Y-122875500D01*
X127000500Y-120128711D01*
X127349500Y-120128711D01*
X127349500Y-120371288D01*
X127381161Y-120611785D01*
X127443947Y-120846104D01*
X127485367Y-120946100D01*
X127536776Y-121070212D01*
X127658064Y-121280289D01*
X127658066Y-121280292D01*
X127658067Y-121280293D01*
X127805733Y-121472736D01*
X127805739Y-121472743D01*
X127977256Y-121644260D01*
X127977262Y-121644265D01*
X128169711Y-121791936D01*
X128379788Y-121913224D01*
X128603900Y-122006054D01*
X128838211Y-122068838D01*
X129018586Y-122092584D01*
X129078711Y-122100500D01*
X129078712Y-122100500D01*
X129321289Y-122100500D01*
X129369388Y-122094167D01*
X129561789Y-122068838D01*
X129796100Y-122006054D01*
X130020212Y-121913224D01*
X130230289Y-121791936D01*
X130422738Y-121644265D01*
X130594265Y-121472738D01*
X130741936Y-121280289D01*
X130863224Y-121070212D01*
X130956054Y-120846100D01*
X131018838Y-120611789D01*
X131050500Y-120371288D01*
X131050500Y-120128712D01*
X131050500Y-120128711D01*
X151349500Y-120128711D01*
X151349500Y-120371288D01*
X151381161Y-120611785D01*
X151443947Y-120846104D01*
X151485367Y-120946100D01*
X151536776Y-121070212D01*
X151658064Y-121280289D01*
X151658066Y-121280292D01*
X151658067Y-121280293D01*
X151805733Y-121472736D01*
X151805739Y-121472743D01*
X151977256Y-121644260D01*
X151977262Y-121644265D01*
X152169711Y-121791936D01*
X152379788Y-121913224D01*
X152603900Y-122006054D01*
X152838211Y-122068838D01*
X153018586Y-122092584D01*
X153078711Y-122100500D01*
X153078712Y-122100500D01*
X153321289Y-122100500D01*
X153369388Y-122094167D01*
X153561789Y-122068838D01*
X153796100Y-122006054D01*
X154020212Y-121913224D01*
X154230289Y-121791936D01*
X154422738Y-121644265D01*
X154594265Y-121472738D01*
X154741936Y-121280289D01*
X154863224Y-121070212D01*
X154956054Y-120846100D01*
X155018838Y-120611789D01*
X155050500Y-120371288D01*
X155050500Y-120128712D01*
X155050500Y-120128711D01*
X171649500Y-120128711D01*
X171649500Y-120371288D01*
X171681161Y-120611785D01*
X171743947Y-120846104D01*
X171785367Y-120946100D01*
X171836776Y-121070212D01*
X171958064Y-121280289D01*
X171958066Y-121280292D01*
X171958067Y-121280293D01*
X172105733Y-121472736D01*
X172105739Y-121472743D01*
X172277256Y-121644260D01*
X172277262Y-121644265D01*
X172469711Y-121791936D01*
X172679788Y-121913224D01*
X172903900Y-122006054D01*
X173138211Y-122068838D01*
X173318586Y-122092584D01*
X173378711Y-122100500D01*
X173378712Y-122100500D01*
X173621289Y-122100500D01*
X173669388Y-122094167D01*
X173861789Y-122068838D01*
X174096100Y-122006054D01*
X174320212Y-121913224D01*
X174530289Y-121791936D01*
X174722738Y-121644265D01*
X174894265Y-121472738D01*
X175041936Y-121280289D01*
X175163224Y-121070212D01*
X175256054Y-120846100D01*
X175318838Y-120611789D01*
X175350500Y-120371288D01*
X175350500Y-120228711D01*
X195949500Y-120228711D01*
X195949500Y-120471288D01*
X195981161Y-120711785D01*
X196043947Y-120946104D01*
X196136773Y-121170205D01*
X196136776Y-121170212D01*
X196258064Y-121380289D01*
X196258066Y-121380292D01*
X196258067Y-121380293D01*
X196405733Y-121572736D01*
X196405739Y-121572743D01*
X196577256Y-121744260D01*
X196577262Y-121744265D01*
X196769711Y-121891936D01*
X196979788Y-122013224D01*
X197203900Y-122106054D01*
X197438211Y-122168838D01*
X197618586Y-122192584D01*
X197678711Y-122200500D01*
X197678712Y-122200500D01*
X197921289Y-122200500D01*
X197969388Y-122194167D01*
X198161789Y-122168838D01*
X198396100Y-122106054D01*
X198620212Y-122013224D01*
X198830289Y-121891936D01*
X199022738Y-121744265D01*
X199194265Y-121572738D01*
X199341936Y-121380289D01*
X199463224Y-121170212D01*
X199556054Y-120946100D01*
X199618838Y-120711789D01*
X199650500Y-120471288D01*
X199650500Y-120228712D01*
X199618838Y-119988211D01*
X199556054Y-119753900D01*
X199463224Y-119529788D01*
X199341936Y-119319711D01*
X199281018Y-119240321D01*
X199194266Y-119127263D01*
X199194260Y-119127256D01*
X199022743Y-118955739D01*
X199022736Y-118955733D01*
X198830293Y-118808067D01*
X198830292Y-118808066D01*
X198830289Y-118808064D01*
X198620212Y-118686776D01*
X198620205Y-118686773D01*
X198396104Y-118593947D01*
X198161785Y-118531161D01*
X197921289Y-118499500D01*
X197921288Y-118499500D01*
X197678712Y-118499500D01*
X197678711Y-118499500D01*
X197438214Y-118531161D01*
X197203895Y-118593947D01*
X196979794Y-118686773D01*
X196979785Y-118686777D01*
X196769706Y-118808067D01*
X196577263Y-118955733D01*
X196577256Y-118955739D01*
X196405739Y-119127256D01*
X196405733Y-119127263D01*
X196258067Y-119319706D01*
X196136777Y-119529785D01*
X196136773Y-119529794D01*
X196043947Y-119753895D01*
X195981161Y-119988214D01*
X195949500Y-120228711D01*
X175350500Y-120228711D01*
X175350500Y-120128712D01*
X175318838Y-119888211D01*
X175256054Y-119653900D01*
X175163224Y-119429788D01*
X175041936Y-119219711D01*
X174894265Y-119027262D01*
X174894260Y-119027256D01*
X174722743Y-118855739D01*
X174722736Y-118855733D01*
X174530293Y-118708067D01*
X174530292Y-118708066D01*
X174530289Y-118708064D01*
X174320212Y-118586776D01*
X174320205Y-118586773D01*
X174096104Y-118493947D01*
X173861785Y-118431161D01*
X173621289Y-118399500D01*
X173621288Y-118399500D01*
X173378712Y-118399500D01*
X173378711Y-118399500D01*
X173138214Y-118431161D01*
X172903895Y-118493947D01*
X172679794Y-118586773D01*
X172679785Y-118586777D01*
X172469706Y-118708067D01*
X172277263Y-118855733D01*
X172277256Y-118855739D01*
X172105739Y-119027256D01*
X172105733Y-119027263D01*
X171958067Y-119219706D01*
X171836777Y-119429785D01*
X171836773Y-119429794D01*
X171743947Y-119653895D01*
X171681161Y-119888214D01*
X171649500Y-120128711D01*
X155050500Y-120128711D01*
X155018838Y-119888211D01*
X154956054Y-119653900D01*
X154863224Y-119429788D01*
X154741936Y-119219711D01*
X154594265Y-119027262D01*
X154594260Y-119027256D01*
X154422743Y-118855739D01*
X154422736Y-118855733D01*
X154230293Y-118708067D01*
X154230292Y-118708066D01*
X154230289Y-118708064D01*
X154020212Y-118586776D01*
X154020205Y-118586773D01*
X153796104Y-118493947D01*
X153561785Y-118431161D01*
X153321289Y-118399500D01*
X153321288Y-118399500D01*
X153078712Y-118399500D01*
X153078711Y-118399500D01*
X152838214Y-118431161D01*
X152603895Y-118493947D01*
X152379794Y-118586773D01*
X152379785Y-118586777D01*
X152169706Y-118708067D01*
X151977263Y-118855733D01*
X151977256Y-118855739D01*
X151805739Y-119027256D01*
X151805733Y-119027263D01*
X151658067Y-119219706D01*
X151536777Y-119429785D01*
X151536773Y-119429794D01*
X151443947Y-119653895D01*
X151381161Y-119888214D01*
X151349500Y-120128711D01*
X131050500Y-120128711D01*
X131018838Y-119888211D01*
X130956054Y-119653900D01*
X130863224Y-119429788D01*
X130741936Y-119219711D01*
X130594265Y-119027262D01*
X130594260Y-119027256D01*
X130422743Y-118855739D01*
X130422736Y-118855733D01*
X130230293Y-118708067D01*
X130230292Y-118708066D01*
X130230289Y-118708064D01*
X130020212Y-118586776D01*
X130020205Y-118586773D01*
X129796104Y-118493947D01*
X129561785Y-118431161D01*
X129321289Y-118399500D01*
X129321288Y-118399500D01*
X129078712Y-118399500D01*
X129078711Y-118399500D01*
X128838214Y-118431161D01*
X128603895Y-118493947D01*
X128379794Y-118586773D01*
X128379785Y-118586777D01*
X128169706Y-118708067D01*
X127977263Y-118855733D01*
X127977256Y-118855739D01*
X127805739Y-119027256D01*
X127805733Y-119027263D01*
X127658067Y-119219706D01*
X127536777Y-119429785D01*
X127536773Y-119429794D01*
X127443947Y-119653895D01*
X127381161Y-119888214D01*
X127349500Y-120128711D01*
X127000500Y-120128711D01*
X127000500Y-107361143D01*
X144432099Y-107361143D01*
X144470547Y-107554429D01*
X144470550Y-107554439D01*
X144545964Y-107736507D01*
X144545971Y-107736520D01*
X144655459Y-107900380D01*
X144655460Y-107900381D01*
X144655461Y-107900382D01*
X144794818Y-108039739D01*
X144794819Y-108039739D01*
X144801886Y-108046806D01*
X144801885Y-108046806D01*
X144801889Y-108046809D01*
X145613576Y-108858496D01*
X145647061Y-108919819D01*
X145649350Y-108935344D01*
X145682753Y-109146239D01*
X145682754Y-109146243D01*
X145727369Y-109283554D01*
X145748444Y-109348414D01*
X145844951Y-109537820D01*
X145969890Y-109709786D01*
X146120213Y-109860109D01*
X146292179Y-109985048D01*
X146292181Y-109985049D01*
X146292184Y-109985051D01*
X146301493Y-109989794D01*
X146352290Y-110037766D01*
X146369087Y-110105587D01*
X146346552Y-110171722D01*
X146301505Y-110210760D01*
X146292446Y-110215376D01*
X146292440Y-110215380D01*
X146238282Y-110254727D01*
X146238282Y-110254728D01*
X146870591Y-110887037D01*
X146807007Y-110904075D01*
X146692993Y-110969901D01*
X146599901Y-111062993D01*
X146534075Y-111177007D01*
X146517037Y-111240591D01*
X145884728Y-110608282D01*
X145884727Y-110608282D01*
X145845380Y-110662439D01*
X145748904Y-110851782D01*
X145683242Y-111053869D01*
X145683242Y-111053872D01*
X145650000Y-111263753D01*
X145650000Y-111476246D01*
X145683242Y-111686127D01*
X145683242Y-111686130D01*
X145748904Y-111888217D01*
X145845375Y-112077550D01*
X145884728Y-112131716D01*
X146517037Y-111499408D01*
X146534075Y-111562993D01*
X146599901Y-111677007D01*
X146692993Y-111770099D01*
X146807007Y-111835925D01*
X146870590Y-111852962D01*
X146238282Y-112485269D01*
X146238282Y-112485270D01*
X146292452Y-112524626D01*
X146292451Y-112524626D01*
X146301495Y-112529234D01*
X146352292Y-112577208D01*
X146369087Y-112645029D01*
X146346550Y-112711164D01*
X146301499Y-112750202D01*
X146292182Y-112754949D01*
X146120213Y-112879890D01*
X145969890Y-113030213D01*
X145844951Y-113202179D01*
X145748444Y-113391585D01*
X145682753Y-113593760D01*
X145649500Y-113803713D01*
X145649500Y-114016286D01*
X145682753Y-114226239D01*
X145748444Y-114428414D01*
X145844951Y-114617820D01*
X145969890Y-114789786D01*
X146083430Y-114903326D01*
X146116915Y-114964649D01*
X146111931Y-115034341D01*
X146070059Y-115090274D01*
X146039083Y-115107189D01*
X145907669Y-115156203D01*
X145907664Y-115156206D01*
X145792455Y-115242452D01*
X145792452Y-115242455D01*
X145706206Y-115357664D01*
X145706202Y-115357671D01*
X145655908Y-115492517D01*
X145649501Y-115552116D01*
X145649500Y-115552135D01*
X145649500Y-117347870D01*
X145649501Y-117347876D01*
X145655908Y-117407483D01*
X145706202Y-117542328D01*
X145706206Y-117542335D01*
X145792452Y-117657544D01*
X145792455Y-117657547D01*
X145907664Y-117743793D01*
X145907671Y-117743797D01*
X146042517Y-117794091D01*
X146042516Y-117794091D01*
X146049444Y-117794835D01*
X146102127Y-117800500D01*
X147897872Y-117800499D01*
X147957483Y-117794091D01*
X148092331Y-117743796D01*
X148207546Y-117657546D01*
X148293796Y-117542331D01*
X148297960Y-117531165D01*
X148339829Y-117475234D01*
X148405293Y-117450816D01*
X148414141Y-117450500D01*
X155798543Y-117450500D01*
X155823799Y-117445475D01*
X155902646Y-117429792D01*
X155991836Y-117412051D01*
X156045165Y-117389961D01*
X156173914Y-117336632D01*
X156337782Y-117227139D01*
X156477139Y-117087782D01*
X156477140Y-117087779D01*
X156484206Y-117080714D01*
X156484209Y-117080710D01*
X169728101Y-103836818D01*
X169789424Y-103803333D01*
X169815782Y-103800499D01*
X170597871Y-103800499D01*
X170597872Y-103800499D01*
X170657483Y-103794091D01*
X170792331Y-103743796D01*
X170907546Y-103657546D01*
X170993796Y-103542331D01*
X170997960Y-103531165D01*
X171039829Y-103475234D01*
X171105293Y-103450816D01*
X171114141Y-103450500D01*
X176284218Y-103450500D01*
X176351257Y-103470185D01*
X176371899Y-103486819D01*
X177369735Y-104484655D01*
X177369764Y-104484686D01*
X177512217Y-104627139D01*
X177516188Y-104629792D01*
X177676086Y-104736632D01*
X177781038Y-104780104D01*
X177858164Y-104812051D01*
X177954812Y-104831275D01*
X178007044Y-104841665D01*
X178051458Y-104850500D01*
X178051459Y-104850500D01*
X178051460Y-104850500D01*
X178248540Y-104850500D01*
X178585859Y-104850500D01*
X178652898Y-104870185D01*
X178698653Y-104922989D01*
X178702030Y-104931140D01*
X178706204Y-104942331D01*
X178706205Y-104942332D01*
X178706206Y-104942335D01*
X178792452Y-105057544D01*
X178792455Y-105057547D01*
X178907664Y-105143793D01*
X178907671Y-105143797D01*
X179039082Y-105192810D01*
X179095016Y-105234681D01*
X179119433Y-105300145D01*
X179104582Y-105368418D01*
X179083431Y-105396673D01*
X178969889Y-105510215D01*
X178844951Y-105682179D01*
X178748444Y-105871585D01*
X178682753Y-106073760D01*
X178649500Y-106283713D01*
X178649500Y-106496286D01*
X178682753Y-106706239D01*
X178748444Y-106908414D01*
X178844951Y-107097820D01*
X178969890Y-107269786D01*
X179120213Y-107420109D01*
X179292179Y-107545048D01*
X179292181Y-107545049D01*
X179292184Y-107545051D01*
X179301493Y-107549794D01*
X179352290Y-107597766D01*
X179369087Y-107665587D01*
X179346552Y-107731722D01*
X179301505Y-107770760D01*
X179292446Y-107775376D01*
X179292440Y-107775380D01*
X179238282Y-107814727D01*
X179238282Y-107814728D01*
X179870591Y-108447037D01*
X179807007Y-108464075D01*
X179692993Y-108529901D01*
X179599901Y-108622993D01*
X179534075Y-108737007D01*
X179517037Y-108800591D01*
X178884728Y-108168282D01*
X178884727Y-108168282D01*
X178845380Y-108222439D01*
X178748904Y-108411782D01*
X178683242Y-108613869D01*
X178683242Y-108613872D01*
X178650000Y-108823753D01*
X178650000Y-109036246D01*
X178683242Y-109246127D01*
X178683242Y-109246130D01*
X178748904Y-109448217D01*
X178845375Y-109637550D01*
X178884728Y-109691716D01*
X179517037Y-109059408D01*
X179534075Y-109122993D01*
X179599901Y-109237007D01*
X179692993Y-109330099D01*
X179807007Y-109395925D01*
X179870590Y-109412962D01*
X179238282Y-110045269D01*
X179238282Y-110045270D01*
X179292452Y-110084626D01*
X179292451Y-110084626D01*
X179301495Y-110089234D01*
X179352292Y-110137208D01*
X179369087Y-110205029D01*
X179346550Y-110271164D01*
X179301499Y-110310202D01*
X179292182Y-110314949D01*
X179120213Y-110439890D01*
X178969890Y-110590213D01*
X178844951Y-110762179D01*
X178748444Y-110951585D01*
X178682753Y-111153760D01*
X178649500Y-111363713D01*
X178649500Y-111576286D01*
X178666897Y-111686130D01*
X178682754Y-111786243D01*
X178709968Y-111870000D01*
X178748444Y-111988414D01*
X178844951Y-112177820D01*
X178969890Y-112349786D01*
X179120213Y-112500109D01*
X179292182Y-112625050D01*
X179300946Y-112629516D01*
X179351742Y-112677491D01*
X179368536Y-112745312D01*
X179345998Y-112811447D01*
X179300946Y-112850484D01*
X179292182Y-112854949D01*
X179120213Y-112979890D01*
X178969890Y-113130213D01*
X178844951Y-113302179D01*
X178748444Y-113491585D01*
X178682753Y-113693760D01*
X178649500Y-113903713D01*
X178649500Y-114116286D01*
X178682753Y-114326239D01*
X178748444Y-114528414D01*
X178844951Y-114717820D01*
X178969890Y-114889786D01*
X179120213Y-115040109D01*
X179292182Y-115165050D01*
X179300946Y-115169516D01*
X179351742Y-115217491D01*
X179368536Y-115285312D01*
X179345998Y-115351447D01*
X179300946Y-115390484D01*
X179292182Y-115394949D01*
X179120213Y-115519890D01*
X178969890Y-115670213D01*
X178844951Y-115842179D01*
X178748444Y-116031585D01*
X178682753Y-116233760D01*
X178649500Y-116443713D01*
X178649500Y-116656286D01*
X178682753Y-116866239D01*
X178748444Y-117068414D01*
X178844951Y-117257820D01*
X178969890Y-117429786D01*
X179120213Y-117580109D01*
X179292179Y-117705048D01*
X179292181Y-117705049D01*
X179292184Y-117705051D01*
X179481588Y-117801557D01*
X179683757Y-117867246D01*
X179893713Y-117900500D01*
X179893714Y-117900500D01*
X180106286Y-117900500D01*
X180106287Y-117900500D01*
X180316243Y-117867246D01*
X180518412Y-117801557D01*
X180707816Y-117705051D01*
X180773200Y-117657547D01*
X180879786Y-117580109D01*
X180879788Y-117580106D01*
X180879792Y-117580104D01*
X181030104Y-117429792D01*
X181030106Y-117429788D01*
X181030109Y-117429786D01*
X181155048Y-117257820D01*
X181155047Y-117257820D01*
X181155051Y-117257816D01*
X181251557Y-117068412D01*
X181317246Y-116866243D01*
X181350500Y-116656287D01*
X181350500Y-116443713D01*
X181317246Y-116233757D01*
X181251557Y-116031588D01*
X181155051Y-115842184D01*
X181155049Y-115842181D01*
X181155048Y-115842179D01*
X181030109Y-115670213D01*
X180879786Y-115519890D01*
X180707820Y-115394951D01*
X180707115Y-115394591D01*
X180699054Y-115390485D01*
X180648259Y-115342512D01*
X180631463Y-115274692D01*
X180653999Y-115208556D01*
X180699054Y-115169515D01*
X180707816Y-115165051D01*
X180789219Y-115105909D01*
X180879786Y-115040109D01*
X180879788Y-115040106D01*
X180879792Y-115040104D01*
X181030104Y-114889792D01*
X181030106Y-114889788D01*
X181030109Y-114889786D01*
X181155048Y-114717820D01*
X181155047Y-114717820D01*
X181155051Y-114717816D01*
X181251557Y-114528412D01*
X181317246Y-114326243D01*
X181350500Y-114116287D01*
X181350500Y-113903713D01*
X181317246Y-113693757D01*
X181251557Y-113491588D01*
X181155051Y-113302184D01*
X181155049Y-113302181D01*
X181155048Y-113302179D01*
X181030109Y-113130213D01*
X180879786Y-112979890D01*
X180707820Y-112854951D01*
X180707115Y-112854591D01*
X180699054Y-112850485D01*
X180648259Y-112802512D01*
X180631463Y-112734692D01*
X180653999Y-112668556D01*
X180699054Y-112629515D01*
X180707816Y-112625051D01*
X180773667Y-112577208D01*
X180879786Y-112500109D01*
X180879788Y-112500106D01*
X180879792Y-112500104D01*
X181030104Y-112349792D01*
X181030106Y-112349788D01*
X181030109Y-112349786D01*
X181155048Y-112177820D01*
X181155047Y-112177820D01*
X181155051Y-112177816D01*
X181251557Y-111988412D01*
X181317246Y-111786243D01*
X181350500Y-111576287D01*
X181350500Y-111363713D01*
X181317246Y-111153757D01*
X181251557Y-110951588D01*
X181155051Y-110762184D01*
X181155049Y-110762181D01*
X181155048Y-110762179D01*
X181030109Y-110590213D01*
X180879786Y-110439890D01*
X180707817Y-110314949D01*
X180698504Y-110310204D01*
X180647707Y-110262230D01*
X180630912Y-110194409D01*
X180653449Y-110128274D01*
X180698507Y-110089232D01*
X180707555Y-110084622D01*
X180761716Y-110045270D01*
X180761717Y-110045270D01*
X180129408Y-109412962D01*
X180192993Y-109395925D01*
X180307007Y-109330099D01*
X180400099Y-109237007D01*
X180465925Y-109122993D01*
X180482962Y-109059408D01*
X181115270Y-109691717D01*
X181115270Y-109691716D01*
X181154622Y-109637554D01*
X181251095Y-109448217D01*
X181316757Y-109246130D01*
X181316757Y-109246127D01*
X181350000Y-109036246D01*
X181350000Y-108823753D01*
X181316757Y-108613872D01*
X181316757Y-108613869D01*
X181251095Y-108411782D01*
X181154624Y-108222449D01*
X181115270Y-108168282D01*
X181115269Y-108168282D01*
X180482962Y-108800590D01*
X180465925Y-108737007D01*
X180400099Y-108622993D01*
X180307007Y-108529901D01*
X180192993Y-108464075D01*
X180129409Y-108447037D01*
X180761716Y-107814728D01*
X180707547Y-107775373D01*
X180707547Y-107775372D01*
X180698500Y-107770763D01*
X180647706Y-107722788D01*
X180630912Y-107654966D01*
X180653451Y-107588832D01*
X180698508Y-107549793D01*
X180707816Y-107545051D01*
X180787007Y-107487515D01*
X180879786Y-107420109D01*
X180879788Y-107420106D01*
X180879792Y-107420104D01*
X181030104Y-107269792D01*
X181030106Y-107269788D01*
X181030109Y-107269786D01*
X181155048Y-107097820D01*
X181155047Y-107097820D01*
X181155051Y-107097816D01*
X181251557Y-106908412D01*
X181317246Y-106706243D01*
X181350500Y-106496287D01*
X181350500Y-106283713D01*
X181317246Y-106073757D01*
X181251557Y-105871588D01*
X181155051Y-105682184D01*
X181155049Y-105682181D01*
X181155048Y-105682179D01*
X181030109Y-105510213D01*
X180916569Y-105396673D01*
X180883084Y-105335350D01*
X180888068Y-105265658D01*
X180929940Y-105209725D01*
X180960915Y-105192810D01*
X181092331Y-105143796D01*
X181207546Y-105057546D01*
X181293796Y-104942331D01*
X181344091Y-104807483D01*
X181350500Y-104747873D01*
X181350499Y-102952128D01*
X181344091Y-102892517D01*
X181335772Y-102870213D01*
X181293797Y-102757671D01*
X181293793Y-102757664D01*
X181207547Y-102642455D01*
X181207544Y-102642452D01*
X181092335Y-102556206D01*
X181092328Y-102556202D01*
X180957482Y-102505908D01*
X180957483Y-102505908D01*
X180897883Y-102499501D01*
X180897881Y-102499500D01*
X180897873Y-102499500D01*
X180897864Y-102499500D01*
X179102129Y-102499500D01*
X179102123Y-102499501D01*
X179042516Y-102505908D01*
X178907671Y-102556202D01*
X178907664Y-102556206D01*
X178792455Y-102642452D01*
X178792452Y-102642455D01*
X178706205Y-102757665D01*
X178703080Y-102763390D01*
X178653676Y-102812796D01*
X178585404Y-102827649D01*
X178519939Y-102803234D01*
X178506566Y-102791646D01*
X177531479Y-101816559D01*
X177531459Y-101816537D01*
X177387785Y-101672863D01*
X177387781Y-101672860D01*
X177223920Y-101563371D01*
X177223911Y-101563366D01*
X177151315Y-101533296D01*
X177095165Y-101510038D01*
X177041836Y-101487949D01*
X177041832Y-101487948D01*
X177041828Y-101487946D01*
X176945188Y-101468724D01*
X176848544Y-101449500D01*
X176848541Y-101449500D01*
X171114141Y-101449500D01*
X171047102Y-101429815D01*
X171001347Y-101377011D01*
X170997969Y-101368859D01*
X170993796Y-101357669D01*
X170993793Y-101357665D01*
X170993793Y-101357664D01*
X170907547Y-101242455D01*
X170907544Y-101242452D01*
X170792335Y-101156206D01*
X170792328Y-101156202D01*
X170657482Y-101105908D01*
X170657483Y-101105908D01*
X170597883Y-101099501D01*
X170597881Y-101099500D01*
X170597873Y-101099500D01*
X170597864Y-101099500D01*
X168802129Y-101099500D01*
X168802123Y-101099501D01*
X168742516Y-101105908D01*
X168607671Y-101156202D01*
X168607664Y-101156206D01*
X168492455Y-101242452D01*
X168492452Y-101242455D01*
X168406206Y-101357664D01*
X168406203Y-101357669D01*
X168357189Y-101489083D01*
X168315317Y-101545016D01*
X168249853Y-101569433D01*
X168181580Y-101554581D01*
X168153326Y-101533430D01*
X168039786Y-101419890D01*
X167867820Y-101294951D01*
X167678414Y-101198444D01*
X167678413Y-101198443D01*
X167678412Y-101198443D01*
X167476243Y-101132754D01*
X167476241Y-101132753D01*
X167476240Y-101132753D01*
X167314957Y-101107208D01*
X167266287Y-101099500D01*
X167053713Y-101099500D01*
X167005042Y-101107208D01*
X166843760Y-101132753D01*
X166641585Y-101198444D01*
X166452179Y-101294951D01*
X166280213Y-101419890D01*
X166129890Y-101570213D01*
X166004949Y-101742182D01*
X166000202Y-101751499D01*
X165952227Y-101802293D01*
X165884405Y-101819087D01*
X165818271Y-101796548D01*
X165779234Y-101751495D01*
X165774626Y-101742452D01*
X165735270Y-101688282D01*
X165735269Y-101688282D01*
X165102962Y-102320590D01*
X165085925Y-102257007D01*
X165020099Y-102142993D01*
X164927007Y-102049901D01*
X164812993Y-101984075D01*
X164749408Y-101967037D01*
X165381716Y-101334728D01*
X165327550Y-101295375D01*
X165138217Y-101198904D01*
X165034643Y-101165251D01*
X164976967Y-101125813D01*
X164949769Y-101061455D01*
X164961684Y-100992608D01*
X164985277Y-100959642D01*
X165317701Y-100627219D01*
X165379024Y-100593734D01*
X165405382Y-100590900D01*
X170153342Y-100590900D01*
X170184366Y-100584728D01*
X170249988Y-100571675D01*
X170346636Y-100552451D01*
X170399965Y-100530361D01*
X170528714Y-100477032D01*
X170692582Y-100367539D01*
X170831939Y-100228182D01*
X170831940Y-100228179D01*
X170839006Y-100221114D01*
X170839009Y-100221110D01*
X171131408Y-99928711D01*
X195949500Y-99928711D01*
X195949500Y-100171288D01*
X195981161Y-100411785D01*
X196043947Y-100646104D01*
X196136773Y-100870205D01*
X196136776Y-100870212D01*
X196258064Y-101080289D01*
X196258066Y-101080292D01*
X196258067Y-101080293D01*
X196405733Y-101272736D01*
X196405739Y-101272743D01*
X196577256Y-101444260D01*
X196577263Y-101444266D01*
X196690321Y-101531018D01*
X196769711Y-101591936D01*
X196979788Y-101713224D01*
X197203900Y-101806054D01*
X197438211Y-101868838D01*
X197618586Y-101892584D01*
X197678711Y-101900500D01*
X197678712Y-101900500D01*
X197921289Y-101900500D01*
X197969388Y-101894167D01*
X198161789Y-101868838D01*
X198396100Y-101806054D01*
X198620212Y-101713224D01*
X198830289Y-101591936D01*
X199022738Y-101444265D01*
X199194265Y-101272738D01*
X199341936Y-101080289D01*
X199463224Y-100870212D01*
X199556054Y-100646100D01*
X199618838Y-100411789D01*
X199650500Y-100171288D01*
X199650500Y-99928712D01*
X199618838Y-99688211D01*
X199556054Y-99453900D01*
X199463224Y-99229788D01*
X199341936Y-99019711D01*
X199281018Y-98940321D01*
X199194266Y-98827263D01*
X199194260Y-98827256D01*
X199022743Y-98655739D01*
X199022736Y-98655733D01*
X198830293Y-98508067D01*
X198830292Y-98508066D01*
X198830289Y-98508064D01*
X198620212Y-98386776D01*
X198620205Y-98386773D01*
X198396104Y-98293947D01*
X198161785Y-98231161D01*
X197921289Y-98199500D01*
X197921288Y-98199500D01*
X197678712Y-98199500D01*
X197678711Y-98199500D01*
X197438214Y-98231161D01*
X197203895Y-98293947D01*
X196979794Y-98386773D01*
X196979785Y-98386777D01*
X196769706Y-98508067D01*
X196577263Y-98655733D01*
X196577256Y-98655739D01*
X196405739Y-98827256D01*
X196405733Y-98827263D01*
X196258067Y-99019706D01*
X196136777Y-99229785D01*
X196136773Y-99229794D01*
X196043947Y-99453895D01*
X195981161Y-99688214D01*
X195949500Y-99928711D01*
X171131408Y-99928711D01*
X173703378Y-97356741D01*
X173703382Y-97356739D01*
X173842739Y-97217382D01*
X173952232Y-97053514D01*
X173991867Y-96957825D01*
X174002699Y-96931675D01*
X174002699Y-96931673D01*
X174005561Y-96924765D01*
X174027651Y-96871436D01*
X174046875Y-96774788D01*
X174066100Y-96678141D01*
X174066100Y-92458711D01*
X195949500Y-92458711D01*
X195949500Y-92701288D01*
X195981161Y-92941785D01*
X196043947Y-93176104D01*
X196096805Y-93303713D01*
X196136776Y-93400212D01*
X196258064Y-93610289D01*
X196258066Y-93610292D01*
X196258067Y-93610293D01*
X196405733Y-93802736D01*
X196405739Y-93802743D01*
X196577256Y-93974260D01*
X196577262Y-93974265D01*
X196769711Y-94121936D01*
X196979788Y-94243224D01*
X197203900Y-94336054D01*
X197438211Y-94398838D01*
X197618586Y-94422584D01*
X197678711Y-94430500D01*
X197678712Y-94430500D01*
X197921289Y-94430500D01*
X197969388Y-94424167D01*
X198161789Y-94398838D01*
X198396100Y-94336054D01*
X198620212Y-94243224D01*
X198830289Y-94121936D01*
X199022738Y-93974265D01*
X199194265Y-93802738D01*
X199341936Y-93610289D01*
X199463224Y-93400212D01*
X199556054Y-93176100D01*
X199618838Y-92941789D01*
X199650500Y-92701288D01*
X199650500Y-92458712D01*
X199618838Y-92218211D01*
X199556054Y-91983900D01*
X199463224Y-91759788D01*
X199341936Y-91549711D01*
X199281018Y-91470321D01*
X199194266Y-91357263D01*
X199194260Y-91357256D01*
X199022743Y-91185739D01*
X199022736Y-91185733D01*
X198830293Y-91038067D01*
X198830292Y-91038066D01*
X198830289Y-91038064D01*
X198620212Y-90916776D01*
X198620205Y-90916773D01*
X198396104Y-90823947D01*
X198161785Y-90761161D01*
X197921289Y-90729500D01*
X197921288Y-90729500D01*
X197678712Y-90729500D01*
X197678711Y-90729500D01*
X197438214Y-90761161D01*
X197203895Y-90823947D01*
X196979794Y-90916773D01*
X196979785Y-90916777D01*
X196769706Y-91038067D01*
X196577263Y-91185733D01*
X196577256Y-91185739D01*
X196405739Y-91357256D01*
X196405733Y-91357263D01*
X196258067Y-91549706D01*
X196136777Y-91759785D01*
X196136773Y-91759794D01*
X196043947Y-91983895D01*
X195981161Y-92218214D01*
X195949500Y-92458711D01*
X174066100Y-92458711D01*
X174066100Y-89797059D01*
X174066100Y-89797056D01*
X174027652Y-89603770D01*
X174027651Y-89603769D01*
X174027651Y-89603765D01*
X174027649Y-89603760D01*
X173952235Y-89421692D01*
X173952228Y-89421679D01*
X173842740Y-89257819D01*
X173794707Y-89209786D01*
X173703382Y-89118461D01*
X173703381Y-89118460D01*
X172886423Y-88301502D01*
X172852938Y-88240179D01*
X172850655Y-88224697D01*
X172850500Y-88223718D01*
X172850500Y-88223713D01*
X172817246Y-88013757D01*
X172751557Y-87811588D01*
X172655051Y-87622184D01*
X172655049Y-87622181D01*
X172655048Y-87622179D01*
X172530109Y-87450213D01*
X172379786Y-87299890D01*
X172207820Y-87174951D01*
X172207115Y-87174591D01*
X172199054Y-87170485D01*
X172148259Y-87122512D01*
X172131463Y-87054692D01*
X172153999Y-86988556D01*
X172199054Y-86949515D01*
X172207816Y-86945051D01*
X172279672Y-86892845D01*
X172379786Y-86820109D01*
X172379788Y-86820106D01*
X172379792Y-86820104D01*
X172530104Y-86669792D01*
X172530106Y-86669788D01*
X172530109Y-86669786D01*
X172655048Y-86497820D01*
X172655047Y-86497820D01*
X172655051Y-86497816D01*
X172751557Y-86308412D01*
X172817246Y-86106243D01*
X172850500Y-85896287D01*
X172850500Y-85683713D01*
X172817246Y-85473757D01*
X172751557Y-85271588D01*
X172655051Y-85082184D01*
X172655049Y-85082181D01*
X172655048Y-85082179D01*
X172530109Y-84910213D01*
X172379786Y-84759890D01*
X172207820Y-84634951D01*
X172207115Y-84634591D01*
X172199054Y-84630485D01*
X172148259Y-84582512D01*
X172131463Y-84514692D01*
X172153999Y-84448556D01*
X172199054Y-84409515D01*
X172207816Y-84405051D01*
X172267462Y-84361716D01*
X172379786Y-84280109D01*
X172379788Y-84280106D01*
X172379792Y-84280104D01*
X172530104Y-84129792D01*
X172530106Y-84129788D01*
X172530109Y-84129786D01*
X172655048Y-83957820D01*
X172655047Y-83957820D01*
X172655051Y-83957816D01*
X172751557Y-83768412D01*
X172785146Y-83665035D01*
X172824581Y-83607364D01*
X172888939Y-83580165D01*
X172957786Y-83592079D01*
X172990756Y-83615676D01*
X176249735Y-86874655D01*
X176249764Y-86874686D01*
X176392214Y-87017136D01*
X176392218Y-87017139D01*
X176556079Y-87126628D01*
X176556092Y-87126635D01*
X176684833Y-87179961D01*
X176720294Y-87194649D01*
X176738164Y-87202051D01*
X176834812Y-87221275D01*
X176877935Y-87229853D01*
X176931458Y-87240500D01*
X176931459Y-87240500D01*
X176931460Y-87240500D01*
X177128540Y-87240500D01*
X179039800Y-87240500D01*
X179106839Y-87260185D01*
X179119365Y-87269493D01*
X179292182Y-87395050D01*
X179300946Y-87399516D01*
X179351742Y-87447491D01*
X179368536Y-87515312D01*
X179345998Y-87581447D01*
X179300946Y-87620484D01*
X179292182Y-87624949D01*
X179120213Y-87749890D01*
X178969890Y-87900213D01*
X178844951Y-88072179D01*
X178748444Y-88261585D01*
X178682753Y-88463760D01*
X178649500Y-88673713D01*
X178649500Y-88886286D01*
X178673500Y-89037820D01*
X178682754Y-89096243D01*
X178735253Y-89257819D01*
X178748444Y-89298414D01*
X178844951Y-89487820D01*
X178969890Y-89659786D01*
X179120213Y-89810109D01*
X179292179Y-89935048D01*
X179292181Y-89935049D01*
X179292184Y-89935051D01*
X179481588Y-90031557D01*
X179683757Y-90097246D01*
X179893713Y-90130500D01*
X179893714Y-90130500D01*
X180106286Y-90130500D01*
X180106287Y-90130500D01*
X180316243Y-90097246D01*
X180518412Y-90031557D01*
X180707816Y-89935051D01*
X180773200Y-89887547D01*
X180879786Y-89810109D01*
X180879788Y-89810106D01*
X180879792Y-89810104D01*
X181030104Y-89659792D01*
X181030106Y-89659788D01*
X181030109Y-89659786D01*
X181155048Y-89487820D01*
X181155047Y-89487820D01*
X181155051Y-89487816D01*
X181251557Y-89298412D01*
X181317246Y-89096243D01*
X181350500Y-88886287D01*
X181350500Y-88673713D01*
X181317246Y-88463757D01*
X181251557Y-88261588D01*
X181155051Y-88072184D01*
X181155049Y-88072181D01*
X181155048Y-88072179D01*
X181030109Y-87900213D01*
X180879786Y-87749890D01*
X180707820Y-87624951D01*
X180702389Y-87622184D01*
X180699054Y-87620485D01*
X180648259Y-87572512D01*
X180631463Y-87504692D01*
X180653999Y-87438556D01*
X180699054Y-87399515D01*
X180707816Y-87395051D01*
X180789219Y-87335909D01*
X180879786Y-87270109D01*
X180879788Y-87270106D01*
X180879792Y-87270104D01*
X181030104Y-87119792D01*
X181030106Y-87119788D01*
X181030109Y-87119786D01*
X181155048Y-86947820D01*
X181155047Y-86947820D01*
X181155051Y-86947816D01*
X181251557Y-86758412D01*
X181317246Y-86556243D01*
X181350500Y-86346287D01*
X181350500Y-86133713D01*
X181317246Y-85923757D01*
X181251557Y-85721588D01*
X181155051Y-85532184D01*
X181155049Y-85532181D01*
X181155048Y-85532179D01*
X181030109Y-85360213D01*
X180879786Y-85209890D01*
X180707820Y-85084951D01*
X180702389Y-85082184D01*
X180699054Y-85080485D01*
X180648259Y-85032512D01*
X180631463Y-84964692D01*
X180653999Y-84898556D01*
X180699054Y-84859515D01*
X180707816Y-84855051D01*
X180773667Y-84807208D01*
X180879786Y-84730109D01*
X180879788Y-84730106D01*
X180879792Y-84730104D01*
X181030104Y-84579792D01*
X181030106Y-84579788D01*
X181030109Y-84579786D01*
X181155048Y-84407820D01*
X181155047Y-84407820D01*
X181155051Y-84407816D01*
X181251557Y-84218412D01*
X181317246Y-84016243D01*
X181350500Y-83806287D01*
X181350500Y-83593713D01*
X181317246Y-83383757D01*
X181251557Y-83181588D01*
X181155051Y-82992184D01*
X181155049Y-82992181D01*
X181155048Y-82992179D01*
X181030109Y-82820213D01*
X180879786Y-82669890D01*
X180707817Y-82544949D01*
X180698504Y-82540204D01*
X180647707Y-82492230D01*
X180630912Y-82424409D01*
X180653449Y-82358274D01*
X180698507Y-82319232D01*
X180707555Y-82314622D01*
X180761716Y-82275270D01*
X180761717Y-82275270D01*
X180129408Y-81642962D01*
X180192993Y-81625925D01*
X180307007Y-81560099D01*
X180400099Y-81467007D01*
X180465925Y-81352993D01*
X180482962Y-81289408D01*
X181115270Y-81921717D01*
X181115270Y-81921716D01*
X181154622Y-81867554D01*
X181251095Y-81678217D01*
X181316757Y-81476130D01*
X181316757Y-81476127D01*
X181350000Y-81266246D01*
X181350000Y-81053753D01*
X181316757Y-80843872D01*
X181316757Y-80843869D01*
X181251095Y-80641782D01*
X181154624Y-80452449D01*
X181115270Y-80398282D01*
X181115269Y-80398282D01*
X180482962Y-81030590D01*
X180465925Y-80967007D01*
X180400099Y-80852993D01*
X180307007Y-80759901D01*
X180192993Y-80694075D01*
X180129409Y-80677037D01*
X180761716Y-80044728D01*
X180707547Y-80005373D01*
X180707547Y-80005372D01*
X180698500Y-80000763D01*
X180647706Y-79952788D01*
X180630912Y-79884966D01*
X180653451Y-79818832D01*
X180698508Y-79779793D01*
X180707816Y-79775051D01*
X180839310Y-79679516D01*
X180879786Y-79650109D01*
X180879788Y-79650106D01*
X180879792Y-79650104D01*
X181030104Y-79499792D01*
X181030106Y-79499788D01*
X181030109Y-79499786D01*
X181155048Y-79327820D01*
X181155047Y-79327820D01*
X181155051Y-79327816D01*
X181251557Y-79138412D01*
X181317246Y-78936243D01*
X181350500Y-78726287D01*
X181350500Y-78513713D01*
X181317246Y-78303757D01*
X181251557Y-78101588D01*
X181155051Y-77912184D01*
X181155049Y-77912181D01*
X181155048Y-77912179D01*
X181030109Y-77740213D01*
X180916569Y-77626673D01*
X180883084Y-77565350D01*
X180888068Y-77495658D01*
X180929940Y-77439725D01*
X180960915Y-77422810D01*
X181092331Y-77373796D01*
X181207546Y-77287546D01*
X181293796Y-77172331D01*
X181344091Y-77037483D01*
X181350500Y-76977873D01*
X181350499Y-75182128D01*
X181344091Y-75122517D01*
X181335772Y-75100213D01*
X181293797Y-74987671D01*
X181293793Y-74987664D01*
X181207547Y-74872455D01*
X181207544Y-74872452D01*
X181092335Y-74786206D01*
X181092328Y-74786202D01*
X180957482Y-74735908D01*
X180957483Y-74735908D01*
X180897883Y-74729501D01*
X180897881Y-74729500D01*
X180897873Y-74729500D01*
X180897864Y-74729500D01*
X179102129Y-74729500D01*
X179102123Y-74729501D01*
X179042516Y-74735908D01*
X178907671Y-74786202D01*
X178907664Y-74786206D01*
X178792455Y-74872452D01*
X178792452Y-74872455D01*
X178706206Y-74987664D01*
X178706202Y-74987671D01*
X178655908Y-75122517D01*
X178649501Y-75182116D01*
X178649501Y-75182123D01*
X178649500Y-75182135D01*
X178649500Y-76977870D01*
X178649501Y-76977876D01*
X178655908Y-77037483D01*
X178706202Y-77172328D01*
X178706206Y-77172335D01*
X178792452Y-77287544D01*
X178792455Y-77287547D01*
X178907664Y-77373793D01*
X178907671Y-77373797D01*
X179039082Y-77422810D01*
X179095016Y-77464681D01*
X179119433Y-77530145D01*
X179104582Y-77598418D01*
X179083431Y-77626673D01*
X178969889Y-77740215D01*
X178844951Y-77912179D01*
X178748444Y-78101585D01*
X178682753Y-78303760D01*
X178649500Y-78513713D01*
X178649500Y-78726286D01*
X178673500Y-78877820D01*
X178682754Y-78936243D01*
X178719648Y-79049792D01*
X178748444Y-79138414D01*
X178844951Y-79327820D01*
X178969890Y-79499786D01*
X179120213Y-79650109D01*
X179292179Y-79775048D01*
X179292181Y-79775049D01*
X179292184Y-79775051D01*
X179301493Y-79779794D01*
X179352290Y-79827766D01*
X179369087Y-79895587D01*
X179346552Y-79961722D01*
X179301505Y-80000760D01*
X179292446Y-80005376D01*
X179292440Y-80005380D01*
X179238282Y-80044727D01*
X179238282Y-80044728D01*
X179870591Y-80677037D01*
X179807007Y-80694075D01*
X179692993Y-80759901D01*
X179599901Y-80852993D01*
X179534075Y-80967007D01*
X179517037Y-81030591D01*
X178884728Y-80398282D01*
X178884727Y-80398282D01*
X178845380Y-80452439D01*
X178748905Y-80641781D01*
X178715251Y-80745357D01*
X178675813Y-80803032D01*
X178611454Y-80830230D01*
X178542608Y-80818315D01*
X178509639Y-80794719D01*
X175251479Y-77536559D01*
X175251459Y-77536537D01*
X175107785Y-77392863D01*
X175107781Y-77392860D01*
X174943920Y-77283371D01*
X174943911Y-77283366D01*
X174863357Y-77250000D01*
X174815165Y-77230038D01*
X174761836Y-77207949D01*
X174761832Y-77207948D01*
X174761828Y-77207946D01*
X174665188Y-77188724D01*
X174568544Y-77169500D01*
X174568541Y-77169500D01*
X172460200Y-77169500D01*
X172393161Y-77149815D01*
X172380634Y-77140506D01*
X172207820Y-77014951D01*
X172207115Y-77014591D01*
X172199054Y-77010485D01*
X172148259Y-76962512D01*
X172131463Y-76894692D01*
X172153999Y-76828556D01*
X172199054Y-76789515D01*
X172207816Y-76785051D01*
X172229789Y-76769086D01*
X172379786Y-76660109D01*
X172379788Y-76660106D01*
X172379792Y-76660104D01*
X172530104Y-76509792D01*
X172530106Y-76509788D01*
X172530109Y-76509786D01*
X172655048Y-76337820D01*
X172655047Y-76337820D01*
X172655051Y-76337816D01*
X172751557Y-76148412D01*
X172817246Y-75946243D01*
X172850500Y-75736287D01*
X172850500Y-75523713D01*
X172817246Y-75313757D01*
X172751557Y-75111588D01*
X172751555Y-75111585D01*
X172751555Y-75111583D01*
X172655048Y-74922179D01*
X172530109Y-74750213D01*
X172379786Y-74599890D01*
X172207820Y-74474951D01*
X172207115Y-74474591D01*
X172199054Y-74470485D01*
X172148259Y-74422512D01*
X172131463Y-74354692D01*
X172153999Y-74288556D01*
X172199054Y-74249515D01*
X172207816Y-74245051D01*
X172229789Y-74229086D01*
X172379786Y-74120109D01*
X172379788Y-74120106D01*
X172379792Y-74120104D01*
X172530104Y-73969792D01*
X172530106Y-73969788D01*
X172530109Y-73969786D01*
X172655048Y-73797820D01*
X172655047Y-73797820D01*
X172655051Y-73797816D01*
X172751557Y-73608412D01*
X172817246Y-73406243D01*
X172850500Y-73196287D01*
X172850500Y-72983713D01*
X172817246Y-72773757D01*
X172751557Y-72571588D01*
X172655051Y-72382184D01*
X172655049Y-72382181D01*
X172655048Y-72382179D01*
X172542696Y-72227538D01*
X172530109Y-72210214D01*
X172530105Y-72210209D01*
X172478607Y-72158711D01*
X195949500Y-72158711D01*
X195949500Y-72401288D01*
X195981161Y-72641785D01*
X196043947Y-72876104D01*
X196136773Y-73100205D01*
X196136776Y-73100212D01*
X196258064Y-73310289D01*
X196258066Y-73310292D01*
X196258067Y-73310293D01*
X196405733Y-73502736D01*
X196405739Y-73502743D01*
X196577256Y-73674260D01*
X196577262Y-73674265D01*
X196769711Y-73821936D01*
X196979788Y-73943224D01*
X197203900Y-74036054D01*
X197438211Y-74098838D01*
X197599745Y-74120104D01*
X197678711Y-74130500D01*
X197678712Y-74130500D01*
X197921289Y-74130500D01*
X197969388Y-74124167D01*
X198161789Y-74098838D01*
X198396100Y-74036054D01*
X198620212Y-73943224D01*
X198830289Y-73821936D01*
X199022738Y-73674265D01*
X199194265Y-73502738D01*
X199341936Y-73310289D01*
X199463224Y-73100212D01*
X199556054Y-72876100D01*
X199618838Y-72641789D01*
X199650500Y-72401288D01*
X199650500Y-72158712D01*
X199618838Y-71918211D01*
X199556054Y-71683900D01*
X199463224Y-71459788D01*
X199341936Y-71249711D01*
X199281018Y-71170321D01*
X199194266Y-71057263D01*
X199194260Y-71057256D01*
X199022743Y-70885739D01*
X199022736Y-70885733D01*
X198830293Y-70738067D01*
X198830292Y-70738066D01*
X198830289Y-70738064D01*
X198620212Y-70616776D01*
X198620205Y-70616773D01*
X198396104Y-70523947D01*
X198161785Y-70461161D01*
X197921289Y-70429500D01*
X197921288Y-70429500D01*
X197678712Y-70429500D01*
X197678711Y-70429500D01*
X197438214Y-70461161D01*
X197203895Y-70523947D01*
X196979794Y-70616773D01*
X196979785Y-70616777D01*
X196769706Y-70738067D01*
X196577263Y-70885733D01*
X196577256Y-70885739D01*
X196405739Y-71057256D01*
X196405733Y-71057263D01*
X196258067Y-71249706D01*
X196136777Y-71459785D01*
X196136773Y-71459794D01*
X196043947Y-71683895D01*
X195981161Y-71918214D01*
X195949500Y-72158711D01*
X172478607Y-72158711D01*
X172379786Y-72059890D01*
X172207820Y-71934951D01*
X172207115Y-71934591D01*
X172199054Y-71930485D01*
X172148259Y-71882512D01*
X172131463Y-71814692D01*
X172153999Y-71748556D01*
X172199054Y-71709515D01*
X172207816Y-71705051D01*
X172262570Y-71665270D01*
X172379786Y-71580109D01*
X172379788Y-71580106D01*
X172379792Y-71580104D01*
X172530104Y-71429792D01*
X172530106Y-71429788D01*
X172530109Y-71429786D01*
X172655048Y-71257820D01*
X172655047Y-71257820D01*
X172655051Y-71257816D01*
X172751557Y-71068412D01*
X172817246Y-70866243D01*
X172850500Y-70656287D01*
X172850500Y-70443713D01*
X172817246Y-70233757D01*
X172751557Y-70031588D01*
X172655051Y-69842184D01*
X172655049Y-69842181D01*
X172655048Y-69842179D01*
X172530109Y-69670213D01*
X172416569Y-69556673D01*
X172383084Y-69495350D01*
X172388068Y-69425658D01*
X172429940Y-69369725D01*
X172460915Y-69352810D01*
X172592331Y-69303796D01*
X172707546Y-69217546D01*
X172793796Y-69102331D01*
X172844091Y-68967483D01*
X172850500Y-68907873D01*
X172850499Y-67112128D01*
X172844091Y-67052517D01*
X172793796Y-66917669D01*
X172793795Y-66917668D01*
X172793793Y-66917664D01*
X172707547Y-66802455D01*
X172707544Y-66802452D01*
X172592335Y-66716206D01*
X172592328Y-66716202D01*
X172457482Y-66665908D01*
X172457483Y-66665908D01*
X172397883Y-66659501D01*
X172397881Y-66659500D01*
X172397873Y-66659500D01*
X172397864Y-66659500D01*
X170602129Y-66659500D01*
X170602118Y-66659501D01*
X170580389Y-66661837D01*
X170511630Y-66649429D01*
X170464036Y-66607438D01*
X170427140Y-66552219D01*
X170403759Y-66528838D01*
X170287782Y-66412861D01*
X170287781Y-66412860D01*
X168563632Y-64688711D01*
X195949500Y-64688711D01*
X195949500Y-64931288D01*
X195981161Y-65171785D01*
X196043947Y-65406104D01*
X196136773Y-65630205D01*
X196136776Y-65630212D01*
X196258064Y-65840289D01*
X196258066Y-65840292D01*
X196258067Y-65840293D01*
X196405733Y-66032736D01*
X196405739Y-66032743D01*
X196577256Y-66204260D01*
X196577262Y-66204265D01*
X196769711Y-66351936D01*
X196979788Y-66473224D01*
X197203900Y-66566054D01*
X197438211Y-66628838D01*
X197594618Y-66649429D01*
X197678711Y-66660500D01*
X197678712Y-66660500D01*
X197921289Y-66660500D01*
X197969388Y-66654167D01*
X198161789Y-66628838D01*
X198396100Y-66566054D01*
X198620212Y-66473224D01*
X198830289Y-66351936D01*
X199022738Y-66204265D01*
X199194265Y-66032738D01*
X199341936Y-65840289D01*
X199463224Y-65630212D01*
X199556054Y-65406100D01*
X199618838Y-65171789D01*
X199650500Y-64931288D01*
X199650500Y-64688712D01*
X199618838Y-64448211D01*
X199556054Y-64213900D01*
X199463224Y-63989788D01*
X199341936Y-63779711D01*
X199281018Y-63700321D01*
X199194266Y-63587263D01*
X199194260Y-63587256D01*
X199022743Y-63415739D01*
X199022736Y-63415733D01*
X198830293Y-63268067D01*
X198830292Y-63268066D01*
X198830289Y-63268064D01*
X198620212Y-63146776D01*
X198544150Y-63115270D01*
X198396104Y-63053947D01*
X198161785Y-62991161D01*
X197921289Y-62959500D01*
X197921288Y-62959500D01*
X197678712Y-62959500D01*
X197678711Y-62959500D01*
X197438214Y-62991161D01*
X197203895Y-63053947D01*
X196979794Y-63146773D01*
X196979785Y-63146777D01*
X196769706Y-63268067D01*
X196577263Y-63415733D01*
X196577256Y-63415739D01*
X196405739Y-63587256D01*
X196405733Y-63587263D01*
X196258067Y-63779706D01*
X196136777Y-63989785D01*
X196136773Y-63989794D01*
X196043947Y-64213895D01*
X195981161Y-64448214D01*
X195949500Y-64688711D01*
X168563632Y-64688711D01*
X167365677Y-63490756D01*
X167332192Y-63429433D01*
X167337176Y-63359741D01*
X167379048Y-63303808D01*
X167415036Y-63285146D01*
X167518412Y-63251557D01*
X167707816Y-63155051D01*
X167794138Y-63092335D01*
X167879786Y-63030109D01*
X167879788Y-63030106D01*
X167879792Y-63030104D01*
X168030104Y-62879792D01*
X168030106Y-62879788D01*
X168030109Y-62879786D01*
X168155048Y-62707820D01*
X168155047Y-62707820D01*
X168155051Y-62707816D01*
X168159514Y-62699054D01*
X168207488Y-62648259D01*
X168275308Y-62631463D01*
X168341444Y-62653999D01*
X168380486Y-62699056D01*
X168384951Y-62707820D01*
X168509890Y-62879786D01*
X168660213Y-63030109D01*
X168832179Y-63155048D01*
X168832181Y-63155049D01*
X168832184Y-63155051D01*
X169021588Y-63251557D01*
X169223757Y-63317246D01*
X169433713Y-63350500D01*
X169433714Y-63350500D01*
X169646286Y-63350500D01*
X169646287Y-63350500D01*
X169856243Y-63317246D01*
X170058412Y-63251557D01*
X170247816Y-63155051D01*
X170334138Y-63092335D01*
X170419786Y-63030109D01*
X170419788Y-63030106D01*
X170419792Y-63030104D01*
X170570104Y-62879792D01*
X170570106Y-62879788D01*
X170570109Y-62879786D01*
X170695048Y-62707820D01*
X170695047Y-62707820D01*
X170695051Y-62707816D01*
X170791557Y-62518412D01*
X170857246Y-62316243D01*
X170890500Y-62106287D01*
X170890500Y-61893713D01*
X170857246Y-61683757D01*
X170791557Y-61481588D01*
X170695051Y-61292184D01*
X170695049Y-61292181D01*
X170695048Y-61292179D01*
X170570109Y-61120213D01*
X170419786Y-60969890D01*
X170247820Y-60844951D01*
X170058414Y-60748444D01*
X170058413Y-60748443D01*
X170058412Y-60748443D01*
X169856243Y-60682754D01*
X169856241Y-60682753D01*
X169856240Y-60682753D01*
X169694957Y-60657208D01*
X169646287Y-60649500D01*
X169433713Y-60649500D01*
X169385042Y-60657208D01*
X169223760Y-60682753D01*
X169021585Y-60748444D01*
X168832179Y-60844951D01*
X168660213Y-60969890D01*
X168509890Y-61120213D01*
X168384949Y-61292182D01*
X168380484Y-61300946D01*
X168332509Y-61351742D01*
X168264688Y-61368536D01*
X168198553Y-61345998D01*
X168159516Y-61300946D01*
X168155050Y-61292182D01*
X168030109Y-61120213D01*
X167879786Y-60969890D01*
X167707820Y-60844951D01*
X167518414Y-60748444D01*
X167518413Y-60748443D01*
X167518412Y-60748443D01*
X167316243Y-60682754D01*
X167316241Y-60682753D01*
X167316240Y-60682753D01*
X167154957Y-60657208D01*
X167106287Y-60649500D01*
X166893713Y-60649500D01*
X166845042Y-60657208D01*
X166683760Y-60682753D01*
X166481585Y-60748444D01*
X166292179Y-60844951D01*
X166120213Y-60969890D01*
X165969890Y-61120213D01*
X165844949Y-61292182D01*
X165840484Y-61300946D01*
X165792509Y-61351742D01*
X165724688Y-61368536D01*
X165658553Y-61345998D01*
X165619516Y-61300946D01*
X165615050Y-61292182D01*
X165490109Y-61120213D01*
X165339786Y-60969890D01*
X165167820Y-60844951D01*
X164978414Y-60748444D01*
X164978413Y-60748443D01*
X164978412Y-60748443D01*
X164776243Y-60682754D01*
X164776241Y-60682753D01*
X164776240Y-60682753D01*
X164614957Y-60657208D01*
X164566287Y-60649500D01*
X164353713Y-60649500D01*
X164305042Y-60657208D01*
X164143760Y-60682753D01*
X163941585Y-60748444D01*
X163752179Y-60844951D01*
X163580213Y-60969890D01*
X163429890Y-61120213D01*
X163304949Y-61292182D01*
X163300202Y-61301499D01*
X163252227Y-61352293D01*
X163184405Y-61369087D01*
X163118271Y-61346548D01*
X163079234Y-61301495D01*
X163074626Y-61292452D01*
X163035270Y-61238282D01*
X163035269Y-61238282D01*
X162402962Y-61870590D01*
X162385925Y-61807007D01*
X162320099Y-61692993D01*
X162227007Y-61599901D01*
X162112993Y-61534075D01*
X162049409Y-61517037D01*
X162681716Y-60884728D01*
X162627550Y-60845375D01*
X162438217Y-60748904D01*
X162236129Y-60683242D01*
X162026246Y-60650000D01*
X161813754Y-60650000D01*
X161603872Y-60683242D01*
X161603869Y-60683242D01*
X161401782Y-60748904D01*
X161212439Y-60845380D01*
X161158282Y-60884727D01*
X161158282Y-60884728D01*
X161790591Y-61517037D01*
X161727007Y-61534075D01*
X161612993Y-61599901D01*
X161519901Y-61692993D01*
X161454075Y-61807007D01*
X161437037Y-61870591D01*
X160804728Y-61238282D01*
X160804727Y-61238282D01*
X160765380Y-61292440D01*
X160765376Y-61292446D01*
X160760760Y-61301505D01*
X160712781Y-61352297D01*
X160644959Y-61369087D01*
X160578826Y-61346543D01*
X160539794Y-61301493D01*
X160535051Y-61292184D01*
X160535049Y-61292181D01*
X160535048Y-61292179D01*
X160410109Y-61120213D01*
X160259786Y-60969890D01*
X160087820Y-60844951D01*
X159898414Y-60748444D01*
X159898413Y-60748443D01*
X159898412Y-60748443D01*
X159696243Y-60682754D01*
X159696241Y-60682753D01*
X159696240Y-60682753D01*
X159534957Y-60657208D01*
X159486287Y-60649500D01*
X159273713Y-60649500D01*
X159225042Y-60657208D01*
X159063760Y-60682753D01*
X158861585Y-60748444D01*
X158672179Y-60844951D01*
X158500215Y-60969889D01*
X158386673Y-61083431D01*
X158325350Y-61116915D01*
X158255658Y-61111931D01*
X158199725Y-61070059D01*
X158182810Y-61039082D01*
X158133797Y-60907671D01*
X158133793Y-60907664D01*
X158047547Y-60792455D01*
X158047544Y-60792452D01*
X157932335Y-60706206D01*
X157932328Y-60706202D01*
X157797482Y-60655908D01*
X157797483Y-60655908D01*
X157737883Y-60649501D01*
X157737881Y-60649500D01*
X157737873Y-60649500D01*
X157737864Y-60649500D01*
X155942129Y-60649500D01*
X155942123Y-60649501D01*
X155882515Y-60655909D01*
X155859630Y-60664444D01*
X155789938Y-60669426D01*
X155728616Y-60635939D01*
X155695133Y-60574615D01*
X155692300Y-60548261D01*
X155692300Y-58343256D01*
X155667586Y-58219015D01*
X155667586Y-58219014D01*
X155653852Y-58149970D01*
X155653851Y-58149964D01*
X155624111Y-58078165D01*
X155578432Y-57967886D01*
X155578431Y-57967885D01*
X155578428Y-57967879D01*
X155468939Y-57804018D01*
X155468936Y-57804014D01*
X155326486Y-57661564D01*
X155326455Y-57661535D01*
X148386423Y-50721503D01*
X148352938Y-50660180D01*
X148350657Y-50644708D01*
X148350500Y-50643716D01*
X148350500Y-50643713D01*
X148317246Y-50433757D01*
X148251557Y-50231588D01*
X148155051Y-50042184D01*
X148155049Y-50042181D01*
X148155048Y-50042179D01*
X148030109Y-49870213D01*
X147879786Y-49719890D01*
X147707820Y-49594951D01*
X147707115Y-49594591D01*
X147699054Y-49590485D01*
X147648259Y-49542512D01*
X147631463Y-49474692D01*
X147653999Y-49408556D01*
X147699054Y-49369515D01*
X147707816Y-49365051D01*
X147842108Y-49267483D01*
X147879786Y-49240109D01*
X147879788Y-49240106D01*
X147879792Y-49240104D01*
X148030104Y-49089792D01*
X148030106Y-49089788D01*
X148030109Y-49089786D01*
X148155048Y-48917820D01*
X148155047Y-48917820D01*
X148155051Y-48917816D01*
X148251557Y-48728412D01*
X148317246Y-48526243D01*
X148350500Y-48316287D01*
X148350500Y-48103713D01*
X148317246Y-47893757D01*
X148251557Y-47691588D01*
X148155051Y-47502184D01*
X148155049Y-47502181D01*
X148140162Y-47481690D01*
X148140161Y-47481689D01*
X148089628Y-47412135D01*
X178649500Y-47412135D01*
X178649500Y-49207870D01*
X178649501Y-49207876D01*
X178655908Y-49267483D01*
X178706202Y-49402328D01*
X178706206Y-49402335D01*
X178792452Y-49517544D01*
X178792455Y-49517547D01*
X178907664Y-49603793D01*
X178907671Y-49603797D01*
X179039082Y-49652810D01*
X179095016Y-49694681D01*
X179119433Y-49760145D01*
X179104582Y-49828418D01*
X179083431Y-49856673D01*
X178969889Y-49970215D01*
X178844951Y-50142179D01*
X178748444Y-50331585D01*
X178682753Y-50533760D01*
X178649500Y-50743713D01*
X178649500Y-50956286D01*
X178682753Y-51166239D01*
X178748444Y-51368414D01*
X178844951Y-51557820D01*
X178969890Y-51729786D01*
X179120213Y-51880109D01*
X179292179Y-52005048D01*
X179292181Y-52005049D01*
X179292184Y-52005051D01*
X179301493Y-52009794D01*
X179352290Y-52057766D01*
X179369087Y-52125587D01*
X179346552Y-52191722D01*
X179301505Y-52230760D01*
X179292446Y-52235376D01*
X179292440Y-52235380D01*
X179238282Y-52274727D01*
X179238282Y-52274728D01*
X179870591Y-52907037D01*
X179807007Y-52924075D01*
X179692993Y-52989901D01*
X179599901Y-53082993D01*
X179534075Y-53197007D01*
X179517037Y-53260591D01*
X178884728Y-52628282D01*
X178884727Y-52628282D01*
X178845380Y-52682439D01*
X178748904Y-52871782D01*
X178683242Y-53073869D01*
X178683242Y-53073872D01*
X178650000Y-53283753D01*
X178650000Y-53496246D01*
X178683242Y-53706127D01*
X178683242Y-53706130D01*
X178748904Y-53908217D01*
X178845375Y-54097550D01*
X178884728Y-54151716D01*
X179517037Y-53519408D01*
X179534075Y-53582993D01*
X179599901Y-53697007D01*
X179692993Y-53790099D01*
X179807007Y-53855925D01*
X179870590Y-53872962D01*
X179238282Y-54505269D01*
X179238282Y-54505270D01*
X179292452Y-54544626D01*
X179292451Y-54544626D01*
X179301495Y-54549234D01*
X179352292Y-54597208D01*
X179369087Y-54665029D01*
X179346550Y-54731164D01*
X179301499Y-54770202D01*
X179292182Y-54774949D01*
X179120213Y-54899890D01*
X178969890Y-55050213D01*
X178844951Y-55222179D01*
X178748444Y-55411585D01*
X178682753Y-55613760D01*
X178649500Y-55823713D01*
X178649500Y-56036286D01*
X178682500Y-56244644D01*
X178682754Y-56246243D01*
X178709968Y-56330000D01*
X178748444Y-56448414D01*
X178844951Y-56637820D01*
X178969890Y-56809786D01*
X179120213Y-56960109D01*
X179292182Y-57085050D01*
X179300946Y-57089516D01*
X179351742Y-57137491D01*
X179368536Y-57205312D01*
X179345998Y-57271447D01*
X179300946Y-57310484D01*
X179292182Y-57314949D01*
X179120213Y-57439890D01*
X178969890Y-57590213D01*
X178844951Y-57762179D01*
X178748444Y-57951585D01*
X178682753Y-58153760D01*
X178652740Y-58343256D01*
X178649500Y-58363713D01*
X178649500Y-58576287D01*
X178682754Y-58786243D01*
X178713615Y-58881224D01*
X178748444Y-58988414D01*
X178844951Y-59177820D01*
X178969890Y-59349786D01*
X179120213Y-59500109D01*
X179292182Y-59625050D01*
X179300946Y-59629516D01*
X179351742Y-59677491D01*
X179368536Y-59745312D01*
X179345998Y-59811447D01*
X179300946Y-59850484D01*
X179292182Y-59854949D01*
X179120213Y-59979890D01*
X178969890Y-60130213D01*
X178844951Y-60302179D01*
X178748444Y-60491585D01*
X178682753Y-60693760D01*
X178658807Y-60844949D01*
X178649500Y-60903713D01*
X178649500Y-61116287D01*
X178650121Y-61120208D01*
X178678833Y-61301492D01*
X178682754Y-61326243D01*
X178739211Y-61500000D01*
X178748444Y-61528414D01*
X178844951Y-61717820D01*
X178969890Y-61889786D01*
X179120213Y-62040109D01*
X179292179Y-62165048D01*
X179292181Y-62165049D01*
X179292184Y-62165051D01*
X179481588Y-62261557D01*
X179683757Y-62327246D01*
X179893713Y-62360500D01*
X179893714Y-62360500D01*
X180106286Y-62360500D01*
X180106287Y-62360500D01*
X180316243Y-62327246D01*
X180518412Y-62261557D01*
X180707816Y-62165051D01*
X180773200Y-62117547D01*
X180879786Y-62040109D01*
X180879788Y-62040106D01*
X180879792Y-62040104D01*
X181030104Y-61889792D01*
X181030106Y-61889788D01*
X181030109Y-61889786D01*
X181155048Y-61717820D01*
X181155047Y-61717820D01*
X181155051Y-61717816D01*
X181251557Y-61528412D01*
X181317246Y-61326243D01*
X181350500Y-61116287D01*
X181350500Y-60903713D01*
X181317246Y-60693757D01*
X181251557Y-60491588D01*
X181155051Y-60302184D01*
X181155049Y-60302181D01*
X181155048Y-60302179D01*
X181030109Y-60130213D01*
X180879786Y-59979890D01*
X180707820Y-59854951D01*
X180707115Y-59854591D01*
X180699054Y-59850485D01*
X180648259Y-59802512D01*
X180631463Y-59734692D01*
X180653999Y-59668556D01*
X180699054Y-59629515D01*
X180707816Y-59625051D01*
X180789219Y-59565909D01*
X180879786Y-59500109D01*
X180879788Y-59500106D01*
X180879792Y-59500104D01*
X181030104Y-59349792D01*
X181030106Y-59349788D01*
X181030109Y-59349786D01*
X181155048Y-59177820D01*
X181155047Y-59177820D01*
X181155051Y-59177816D01*
X181251557Y-58988412D01*
X181317246Y-58786243D01*
X181350500Y-58576287D01*
X181350500Y-58363713D01*
X181317246Y-58153757D01*
X181251557Y-57951588D01*
X181155051Y-57762184D01*
X181155049Y-57762181D01*
X181155048Y-57762179D01*
X181030109Y-57590213D01*
X180879786Y-57439890D01*
X180707820Y-57314951D01*
X180707115Y-57314591D01*
X180699054Y-57310485D01*
X180648259Y-57262512D01*
X180631463Y-57194692D01*
X180653999Y-57128556D01*
X180699054Y-57089515D01*
X180707816Y-57085051D01*
X180773667Y-57037208D01*
X180879786Y-56960109D01*
X180879788Y-56960106D01*
X180879792Y-56960104D01*
X181030104Y-56809792D01*
X181030106Y-56809788D01*
X181030109Y-56809786D01*
X181155048Y-56637820D01*
X181155047Y-56637820D01*
X181155051Y-56637816D01*
X181251557Y-56448412D01*
X181317246Y-56246243D01*
X181350500Y-56036287D01*
X181350500Y-55823713D01*
X181317246Y-55613757D01*
X181251557Y-55411588D01*
X181155051Y-55222184D01*
X181155049Y-55222181D01*
X181155048Y-55222179D01*
X181030109Y-55050213D01*
X180879786Y-54899890D01*
X180707817Y-54774949D01*
X180698504Y-54770204D01*
X180647707Y-54722230D01*
X180630912Y-54654409D01*
X180653449Y-54588274D01*
X180698507Y-54549232D01*
X180707555Y-54544622D01*
X180761716Y-54505270D01*
X180761717Y-54505270D01*
X180129408Y-53872962D01*
X180192993Y-53855925D01*
X180307007Y-53790099D01*
X180400099Y-53697007D01*
X180465925Y-53582993D01*
X180482962Y-53519409D01*
X181115270Y-54151717D01*
X181115270Y-54151716D01*
X181154622Y-54097554D01*
X181251095Y-53908217D01*
X181316757Y-53706130D01*
X181316757Y-53706127D01*
X181350000Y-53496246D01*
X181350000Y-53283753D01*
X181316757Y-53073872D01*
X181316757Y-53073869D01*
X181251095Y-52871782D01*
X181154624Y-52682449D01*
X181115270Y-52628282D01*
X181115269Y-52628282D01*
X180482962Y-53260590D01*
X180465925Y-53197007D01*
X180400099Y-53082993D01*
X180307007Y-52989901D01*
X180192993Y-52924075D01*
X180129409Y-52907037D01*
X180761716Y-52274728D01*
X180707547Y-52235373D01*
X180707547Y-52235372D01*
X180698500Y-52230763D01*
X180647706Y-52182788D01*
X180630912Y-52114966D01*
X180653451Y-52048832D01*
X180698508Y-52009793D01*
X180707816Y-52005051D01*
X180839310Y-51909516D01*
X180879786Y-51880109D01*
X180879788Y-51880106D01*
X180879792Y-51880104D01*
X181030104Y-51729792D01*
X181030106Y-51729788D01*
X181030109Y-51729786D01*
X181155048Y-51557820D01*
X181155047Y-51557820D01*
X181155051Y-51557816D01*
X181251557Y-51368412D01*
X181317246Y-51166243D01*
X181350500Y-50956287D01*
X181350500Y-50743713D01*
X181317246Y-50533757D01*
X181251557Y-50331588D01*
X181155051Y-50142184D01*
X181155049Y-50142181D01*
X181155048Y-50142179D01*
X181030109Y-49970213D01*
X180916569Y-49856673D01*
X180883084Y-49795350D01*
X180888068Y-49725658D01*
X180929940Y-49669725D01*
X180960915Y-49652810D01*
X181092331Y-49603796D01*
X181207546Y-49517546D01*
X181293796Y-49402331D01*
X181344091Y-49267483D01*
X181350500Y-49207873D01*
X181350499Y-47412128D01*
X181344091Y-47352517D01*
X181335772Y-47330213D01*
X181293797Y-47217671D01*
X181293793Y-47217664D01*
X181207547Y-47102455D01*
X181207544Y-47102452D01*
X181092335Y-47016206D01*
X181092328Y-47016202D01*
X180957482Y-46965908D01*
X180957483Y-46965908D01*
X180897883Y-46959501D01*
X180897881Y-46959500D01*
X180897873Y-46959500D01*
X180897864Y-46959500D01*
X179102129Y-46959500D01*
X179102123Y-46959501D01*
X179042516Y-46965908D01*
X178907671Y-47016202D01*
X178907664Y-47016206D01*
X178792455Y-47102452D01*
X178792452Y-47102455D01*
X178706206Y-47217664D01*
X178706202Y-47217671D01*
X178655908Y-47352517D01*
X178649501Y-47412116D01*
X178649501Y-47412123D01*
X178649500Y-47412135D01*
X148089628Y-47412135D01*
X148030109Y-47330214D01*
X148030105Y-47330209D01*
X147879786Y-47179890D01*
X147707820Y-47054951D01*
X147518414Y-46958444D01*
X147518413Y-46958443D01*
X147518412Y-46958443D01*
X147316243Y-46892754D01*
X147316241Y-46892753D01*
X147316240Y-46892753D01*
X147154957Y-46867208D01*
X147106287Y-46859500D01*
X146893713Y-46859500D01*
X146845042Y-46867208D01*
X146683760Y-46892753D01*
X146481585Y-46958444D01*
X146292179Y-47054951D01*
X146120213Y-47179890D01*
X145969890Y-47330213D01*
X145844951Y-47502179D01*
X145748444Y-47691585D01*
X145682753Y-47893760D01*
X145649500Y-48103713D01*
X145649500Y-48316286D01*
X145682753Y-48526239D01*
X145748444Y-48728414D01*
X145844951Y-48917820D01*
X145969890Y-49089786D01*
X146120213Y-49240109D01*
X146292182Y-49365050D01*
X146300946Y-49369516D01*
X146351742Y-49417491D01*
X146368536Y-49485312D01*
X146345998Y-49551447D01*
X146300946Y-49590484D01*
X146292182Y-49594949D01*
X146120213Y-49719890D01*
X145969890Y-49870213D01*
X145844951Y-50042179D01*
X145748444Y-50231585D01*
X145682753Y-50433760D01*
X145649500Y-50643713D01*
X145649500Y-50856286D01*
X145682753Y-51066239D01*
X145748444Y-51268414D01*
X145844951Y-51457820D01*
X145969890Y-51629786D01*
X146120213Y-51780109D01*
X146292182Y-51905050D01*
X146300946Y-51909516D01*
X146351742Y-51957491D01*
X146368536Y-52025312D01*
X146345998Y-52091447D01*
X146300946Y-52130484D01*
X146292182Y-52134949D01*
X146120213Y-52259890D01*
X145969890Y-52410213D01*
X145844951Y-52582179D01*
X145748444Y-52771585D01*
X145682753Y-52973760D01*
X145649500Y-53183713D01*
X145649500Y-53396286D01*
X145679071Y-53582993D01*
X145682754Y-53606243D01*
X145727369Y-53743554D01*
X145748444Y-53808414D01*
X145844951Y-53997820D01*
X145969890Y-54169786D01*
X146120213Y-54320109D01*
X146292179Y-54445048D01*
X146292181Y-54445049D01*
X146292184Y-54445051D01*
X146301493Y-54449794D01*
X146352290Y-54497766D01*
X146369087Y-54565587D01*
X146346552Y-54631722D01*
X146301505Y-54670760D01*
X146292446Y-54675376D01*
X146292440Y-54675380D01*
X146238282Y-54714727D01*
X146238282Y-54714728D01*
X146870591Y-55347037D01*
X146807007Y-55364075D01*
X146692993Y-55429901D01*
X146599901Y-55522993D01*
X146534075Y-55637007D01*
X146517037Y-55700591D01*
X145884728Y-55068282D01*
X145884727Y-55068282D01*
X145845380Y-55122439D01*
X145748904Y-55311782D01*
X145683242Y-55513869D01*
X145683242Y-55513872D01*
X145650000Y-55723753D01*
X145650000Y-55936246D01*
X145683242Y-56146127D01*
X145683242Y-56146130D01*
X145748904Y-56348217D01*
X145845375Y-56537550D01*
X145884728Y-56591716D01*
X146517037Y-55959408D01*
X146534075Y-56022993D01*
X146599901Y-56137007D01*
X146692993Y-56230099D01*
X146807007Y-56295925D01*
X146870590Y-56312962D01*
X146238282Y-56945269D01*
X146238282Y-56945270D01*
X146292452Y-56984626D01*
X146292451Y-56984626D01*
X146301495Y-56989234D01*
X146352292Y-57037208D01*
X146369087Y-57105029D01*
X146346550Y-57171164D01*
X146301499Y-57210202D01*
X146292182Y-57214949D01*
X146120213Y-57339890D01*
X145969890Y-57490213D01*
X145844951Y-57662179D01*
X145748444Y-57851585D01*
X145682753Y-58053760D01*
X145649500Y-58263713D01*
X145649500Y-58476286D01*
X145665338Y-58576287D01*
X145682754Y-58686243D01*
X145746107Y-58881224D01*
X145748444Y-58888414D01*
X145844951Y-59077820D01*
X145969890Y-59249786D01*
X146083430Y-59363326D01*
X146116915Y-59424649D01*
X146111931Y-59494341D01*
X146070059Y-59550274D01*
X146039083Y-59567189D01*
X145907669Y-59616203D01*
X145907664Y-59616206D01*
X145792455Y-59702452D01*
X145792452Y-59702455D01*
X145706206Y-59817664D01*
X145706202Y-59817671D01*
X145655908Y-59952517D01*
X145652965Y-59979896D01*
X145649501Y-60012123D01*
X145649500Y-60012135D01*
X145649500Y-61807870D01*
X145649501Y-61807876D01*
X145655908Y-61867483D01*
X145706202Y-62002328D01*
X145706206Y-62002335D01*
X145792452Y-62117544D01*
X145792455Y-62117547D01*
X145907664Y-62203793D01*
X145907671Y-62203797D01*
X146042517Y-62254091D01*
X146042516Y-62254091D01*
X146049444Y-62254835D01*
X146102127Y-62260500D01*
X147897872Y-62260499D01*
X147957483Y-62254091D01*
X148092331Y-62203796D01*
X148207546Y-62117546D01*
X148293796Y-62002331D01*
X148344091Y-61867483D01*
X148350500Y-61807873D01*
X148350499Y-60012128D01*
X148344091Y-59952517D01*
X148307701Y-59854951D01*
X148293797Y-59817671D01*
X148293793Y-59817664D01*
X148207547Y-59702455D01*
X148207544Y-59702452D01*
X148092335Y-59616206D01*
X148092328Y-59616202D01*
X147960917Y-59567189D01*
X147904983Y-59525318D01*
X147880566Y-59459853D01*
X147895418Y-59391580D01*
X147916563Y-59363332D01*
X148030104Y-59249792D01*
X148155051Y-59077816D01*
X148251557Y-58888412D01*
X148317246Y-58686243D01*
X148350500Y-58476287D01*
X148350500Y-58263713D01*
X148317246Y-58053757D01*
X148251557Y-57851588D01*
X148155051Y-57662184D01*
X148155049Y-57662181D01*
X148155048Y-57662179D01*
X148030109Y-57490213D01*
X147879786Y-57339890D01*
X147707817Y-57214949D01*
X147698504Y-57210204D01*
X147647707Y-57162230D01*
X147630912Y-57094409D01*
X147653449Y-57028274D01*
X147698507Y-56989232D01*
X147707555Y-56984622D01*
X147761716Y-56945270D01*
X147761717Y-56945270D01*
X147129408Y-56312962D01*
X147192993Y-56295925D01*
X147307007Y-56230099D01*
X147400099Y-56137007D01*
X147465925Y-56022993D01*
X147482962Y-55959408D01*
X148115270Y-56591717D01*
X148115270Y-56591716D01*
X148154622Y-56537554D01*
X148251096Y-56348215D01*
X148284748Y-56244644D01*
X148324185Y-56186968D01*
X148388543Y-56159769D01*
X148457390Y-56171683D01*
X148490360Y-56195280D01*
X150418281Y-58123201D01*
X150451766Y-58184524D01*
X150454600Y-58210882D01*
X150454600Y-86163641D01*
X150454600Y-86163643D01*
X150454599Y-86163643D01*
X150493047Y-86356929D01*
X150493050Y-86356939D01*
X150568464Y-86539007D01*
X150568471Y-86539020D01*
X150677959Y-86702880D01*
X150677960Y-86702881D01*
X150677961Y-86702882D01*
X150817318Y-86842239D01*
X150817319Y-86842239D01*
X150824386Y-86849306D01*
X150824385Y-86849306D01*
X150824389Y-86849309D01*
X154873576Y-90898496D01*
X154907061Y-90959819D01*
X154909350Y-90975344D01*
X154942753Y-91186239D01*
X155008444Y-91388414D01*
X155104951Y-91577820D01*
X155229890Y-91749786D01*
X155380213Y-91900109D01*
X155552182Y-92025050D01*
X155560946Y-92029516D01*
X155611742Y-92077491D01*
X155628536Y-92145312D01*
X155605998Y-92211447D01*
X155560946Y-92250484D01*
X155552182Y-92254949D01*
X155380213Y-92379890D01*
X155229890Y-92530213D01*
X155104951Y-92702179D01*
X155008444Y-92891585D01*
X154942753Y-93093760D01*
X154909500Y-93303713D01*
X154909500Y-93516286D01*
X154924388Y-93610289D01*
X154942754Y-93726243D01*
X154990849Y-93874265D01*
X155008444Y-93928414D01*
X155104951Y-94117820D01*
X155229890Y-94289786D01*
X155380213Y-94440109D01*
X155552182Y-94565050D01*
X155560946Y-94569516D01*
X155611742Y-94617491D01*
X155628536Y-94685312D01*
X155605998Y-94751447D01*
X155560946Y-94790484D01*
X155552182Y-94794949D01*
X155380213Y-94919890D01*
X155229890Y-95070213D01*
X155104951Y-95242179D01*
X155008444Y-95431585D01*
X154942753Y-95633760D01*
X154909500Y-95843713D01*
X154909500Y-96056286D01*
X154942753Y-96266239D01*
X155008444Y-96468414D01*
X155104951Y-96657820D01*
X155229890Y-96829786D01*
X155380213Y-96980109D01*
X155552179Y-97105048D01*
X155552181Y-97105049D01*
X155552184Y-97105051D01*
X155741588Y-97201557D01*
X155943757Y-97267246D01*
X156153713Y-97300500D01*
X156153714Y-97300500D01*
X156353418Y-97300500D01*
X156374663Y-97306738D01*
X156396752Y-97308318D01*
X156407535Y-97316390D01*
X156420457Y-97320185D01*
X156434956Y-97336918D01*
X156452685Y-97350190D01*
X156457392Y-97362810D01*
X156466212Y-97372989D01*
X156469363Y-97394906D01*
X156477102Y-97415654D01*
X156474239Y-97428814D01*
X156476156Y-97442147D01*
X156466956Y-97462290D01*
X156462250Y-97483927D01*
X156448981Y-97501652D01*
X156447131Y-97505703D01*
X156441099Y-97512181D01*
X156409099Y-97544181D01*
X156347776Y-97577666D01*
X156321418Y-97580500D01*
X149868154Y-97580500D01*
X149836091Y-97586876D01*
X149836092Y-97586877D01*
X149674870Y-97618946D01*
X149674864Y-97618948D01*
X149583825Y-97656658D01*
X149492784Y-97694368D01*
X149492783Y-97694368D01*
X149369745Y-97776579D01*
X149369746Y-97776580D01*
X149328918Y-97803859D01*
X149328915Y-97803862D01*
X145890327Y-101242452D01*
X144794820Y-102337959D01*
X144794818Y-102337961D01*
X144757090Y-102375689D01*
X144655459Y-102477319D01*
X144545971Y-102641179D01*
X144545964Y-102641192D01*
X144470550Y-102823260D01*
X144470547Y-102823270D01*
X144432100Y-103016556D01*
X144432100Y-103016559D01*
X144432100Y-107361141D01*
X144432100Y-107361143D01*
X144432099Y-107361143D01*
X127000500Y-107361143D01*
X127000500Y-99828711D01*
X127349500Y-99828711D01*
X127349500Y-100071288D01*
X127381161Y-100311785D01*
X127443947Y-100546104D01*
X127485367Y-100646100D01*
X127536776Y-100770212D01*
X127658064Y-100980289D01*
X127658066Y-100980292D01*
X127658067Y-100980293D01*
X127805733Y-101172736D01*
X127805739Y-101172743D01*
X127977256Y-101344260D01*
X127977263Y-101344266D01*
X128075819Y-101419890D01*
X128169711Y-101491936D01*
X128379788Y-101613224D01*
X128603900Y-101706054D01*
X128838211Y-101768838D01*
X129018586Y-101792584D01*
X129078711Y-101800500D01*
X129078712Y-101800500D01*
X129321289Y-101800500D01*
X129369388Y-101794167D01*
X129561789Y-101768838D01*
X129796100Y-101706054D01*
X130020212Y-101613224D01*
X130230289Y-101491936D01*
X130422738Y-101344265D01*
X130594265Y-101172738D01*
X130741936Y-100980289D01*
X130863224Y-100770212D01*
X130956054Y-100546100D01*
X131018838Y-100311789D01*
X131050500Y-100071288D01*
X131050500Y-99828712D01*
X131018838Y-99588211D01*
X130956054Y-99353900D01*
X130863224Y-99129788D01*
X130741936Y-98919711D01*
X130594265Y-98727262D01*
X130594260Y-98727256D01*
X130422743Y-98555739D01*
X130422736Y-98555733D01*
X130230293Y-98408067D01*
X130230292Y-98408066D01*
X130230289Y-98408064D01*
X130020212Y-98286776D01*
X130020205Y-98286773D01*
X129796104Y-98193947D01*
X129561785Y-98131161D01*
X129321289Y-98099500D01*
X129321288Y-98099500D01*
X129078712Y-98099500D01*
X129078711Y-98099500D01*
X128838214Y-98131161D01*
X128603895Y-98193947D01*
X128379794Y-98286773D01*
X128379785Y-98286777D01*
X128169706Y-98408067D01*
X127977263Y-98555733D01*
X127977256Y-98555739D01*
X127805739Y-98727256D01*
X127805733Y-98727263D01*
X127658067Y-98919706D01*
X127536777Y-99129785D01*
X127536773Y-99129794D01*
X127443947Y-99353895D01*
X127381161Y-99588214D01*
X127349500Y-99828711D01*
X127000500Y-99828711D01*
X127000500Y-92358711D01*
X127349500Y-92358711D01*
X127349500Y-92601288D01*
X127381161Y-92841785D01*
X127443947Y-93076104D01*
X127485367Y-93176100D01*
X127536776Y-93300212D01*
X127658064Y-93510289D01*
X127658066Y-93510292D01*
X127658067Y-93510293D01*
X127805733Y-93702736D01*
X127805739Y-93702743D01*
X127977256Y-93874260D01*
X127977262Y-93874265D01*
X128169711Y-94021936D01*
X128379788Y-94143224D01*
X128603900Y-94236054D01*
X128838211Y-94298838D01*
X129018586Y-94322584D01*
X129078711Y-94330500D01*
X129078712Y-94330500D01*
X129321289Y-94330500D01*
X129369388Y-94324167D01*
X129561789Y-94298838D01*
X129796100Y-94236054D01*
X130020212Y-94143224D01*
X130230289Y-94021936D01*
X130422738Y-93874265D01*
X130594265Y-93702738D01*
X130741936Y-93510289D01*
X130863224Y-93300212D01*
X130956054Y-93076100D01*
X131018838Y-92841789D01*
X131050500Y-92601288D01*
X131050500Y-92358712D01*
X131018838Y-92118211D01*
X130956054Y-91883900D01*
X130863224Y-91659788D01*
X130741936Y-91449711D01*
X130594265Y-91257262D01*
X130594260Y-91257256D01*
X130422743Y-91085739D01*
X130422736Y-91085733D01*
X130230293Y-90938067D01*
X130230292Y-90938066D01*
X130230289Y-90938064D01*
X130020212Y-90816776D01*
X130020205Y-90816773D01*
X129796104Y-90723947D01*
X129561785Y-90661161D01*
X129321289Y-90629500D01*
X129321288Y-90629500D01*
X129078712Y-90629500D01*
X129078711Y-90629500D01*
X128838214Y-90661161D01*
X128603895Y-90723947D01*
X128379794Y-90816773D01*
X128379785Y-90816777D01*
X128169706Y-90938067D01*
X127977263Y-91085733D01*
X127977256Y-91085739D01*
X127805739Y-91257256D01*
X127805733Y-91257263D01*
X127658067Y-91449706D01*
X127536777Y-91659785D01*
X127536773Y-91659794D01*
X127443947Y-91883895D01*
X127381161Y-92118214D01*
X127349500Y-92358711D01*
X127000500Y-92358711D01*
X127000500Y-75873713D01*
X145649500Y-75873713D01*
X145649500Y-76086287D01*
X145682754Y-76296243D01*
X145709494Y-76378541D01*
X145748444Y-76498414D01*
X145844951Y-76687820D01*
X145969890Y-76859786D01*
X146120213Y-77010109D01*
X146292182Y-77135050D01*
X146300946Y-77139516D01*
X146351742Y-77187491D01*
X146368536Y-77255312D01*
X146345998Y-77321447D01*
X146300946Y-77360484D01*
X146292182Y-77364949D01*
X146120213Y-77489890D01*
X145969890Y-77640213D01*
X145844951Y-77812179D01*
X145748444Y-78001585D01*
X145682753Y-78203760D01*
X145649500Y-78413713D01*
X145649500Y-78626286D01*
X145665338Y-78726287D01*
X145682754Y-78836243D01*
X145696263Y-78877820D01*
X145748444Y-79038414D01*
X145844951Y-79227820D01*
X145969890Y-79399786D01*
X146120213Y-79550109D01*
X146292182Y-79675050D01*
X146300946Y-79679516D01*
X146351742Y-79727491D01*
X146368536Y-79795312D01*
X146345998Y-79861447D01*
X146300946Y-79900484D01*
X146292182Y-79904949D01*
X146120213Y-80029890D01*
X145969890Y-80180213D01*
X145844951Y-80352179D01*
X145748444Y-80541585D01*
X145682753Y-80743760D01*
X145649500Y-80953713D01*
X145649500Y-81166286D01*
X145679071Y-81352993D01*
X145682754Y-81376243D01*
X145715209Y-81476130D01*
X145748444Y-81578414D01*
X145844951Y-81767820D01*
X145969890Y-81939786D01*
X146120213Y-82090109D01*
X146292179Y-82215048D01*
X146292181Y-82215049D01*
X146292184Y-82215051D01*
X146301493Y-82219794D01*
X146352290Y-82267766D01*
X146369087Y-82335587D01*
X146346552Y-82401722D01*
X146301505Y-82440760D01*
X146292446Y-82445376D01*
X146292440Y-82445380D01*
X146238282Y-82484727D01*
X146238282Y-82484728D01*
X146870591Y-83117037D01*
X146807007Y-83134075D01*
X146692993Y-83199901D01*
X146599901Y-83292993D01*
X146534075Y-83407007D01*
X146517037Y-83470591D01*
X145884728Y-82838282D01*
X145884727Y-82838282D01*
X145845380Y-82892439D01*
X145748904Y-83081782D01*
X145683242Y-83283869D01*
X145683242Y-83283872D01*
X145650000Y-83493753D01*
X145650000Y-83706246D01*
X145683242Y-83916127D01*
X145683242Y-83916130D01*
X145748904Y-84118217D01*
X145845375Y-84307550D01*
X145884728Y-84361716D01*
X146517037Y-83729408D01*
X146534075Y-83792993D01*
X146599901Y-83907007D01*
X146692993Y-84000099D01*
X146807007Y-84065925D01*
X146870590Y-84082962D01*
X146238282Y-84715269D01*
X146238282Y-84715270D01*
X146292452Y-84754626D01*
X146292451Y-84754626D01*
X146301495Y-84759234D01*
X146352292Y-84807208D01*
X146369087Y-84875029D01*
X146346550Y-84941164D01*
X146301499Y-84980202D01*
X146292182Y-84984949D01*
X146120213Y-85109890D01*
X145969890Y-85260213D01*
X145844951Y-85432179D01*
X145748444Y-85621585D01*
X145682753Y-85823760D01*
X145649500Y-86033713D01*
X145649500Y-86246286D01*
X145678245Y-86427779D01*
X145682754Y-86456243D01*
X145725245Y-86587017D01*
X145748444Y-86658414D01*
X145844951Y-86847820D01*
X145969890Y-87019786D01*
X146083430Y-87133326D01*
X146116915Y-87194649D01*
X146111931Y-87264341D01*
X146070059Y-87320274D01*
X146039083Y-87337189D01*
X145907669Y-87386203D01*
X145907664Y-87386206D01*
X145792455Y-87472452D01*
X145792452Y-87472455D01*
X145706206Y-87587664D01*
X145706202Y-87587671D01*
X145655908Y-87722517D01*
X145652965Y-87749896D01*
X145649501Y-87782123D01*
X145649500Y-87782135D01*
X145649500Y-89577870D01*
X145649501Y-89577876D01*
X145655908Y-89637483D01*
X145706202Y-89772328D01*
X145706206Y-89772335D01*
X145792452Y-89887544D01*
X145792455Y-89887547D01*
X145907664Y-89973793D01*
X145907671Y-89973797D01*
X146042517Y-90024091D01*
X146042516Y-90024091D01*
X146049444Y-90024835D01*
X146102127Y-90030500D01*
X147897872Y-90030499D01*
X147957483Y-90024091D01*
X148092331Y-89973796D01*
X148207546Y-89887546D01*
X148293796Y-89772331D01*
X148344091Y-89637483D01*
X148350500Y-89577873D01*
X148350499Y-87782128D01*
X148344091Y-87722517D01*
X148307701Y-87624951D01*
X148293797Y-87587671D01*
X148293793Y-87587664D01*
X148207547Y-87472455D01*
X148207544Y-87472452D01*
X148092335Y-87386206D01*
X148092328Y-87386202D01*
X147960917Y-87337189D01*
X147904983Y-87295318D01*
X147880566Y-87229853D01*
X147895418Y-87161580D01*
X147916563Y-87133332D01*
X148030104Y-87019792D01*
X148155051Y-86847816D01*
X148251557Y-86658412D01*
X148317246Y-86456243D01*
X148350500Y-86246287D01*
X148350500Y-86033713D01*
X148317246Y-85823757D01*
X148251557Y-85621588D01*
X148155051Y-85432184D01*
X148155049Y-85432181D01*
X148155048Y-85432179D01*
X148030109Y-85260213D01*
X147879786Y-85109890D01*
X147707817Y-84984949D01*
X147698504Y-84980204D01*
X147647707Y-84932230D01*
X147630912Y-84864409D01*
X147653449Y-84798274D01*
X147698507Y-84759232D01*
X147707555Y-84754622D01*
X147761716Y-84715270D01*
X147761717Y-84715270D01*
X147129408Y-84082962D01*
X147192993Y-84065925D01*
X147307007Y-84000099D01*
X147400099Y-83907007D01*
X147465925Y-83792993D01*
X147482962Y-83729408D01*
X148115270Y-84361717D01*
X148115270Y-84361716D01*
X148154622Y-84307554D01*
X148251095Y-84118217D01*
X148316757Y-83916130D01*
X148316757Y-83916127D01*
X148350000Y-83706246D01*
X148350000Y-83493753D01*
X148316757Y-83283872D01*
X148316757Y-83283869D01*
X148251095Y-83081782D01*
X148154624Y-82892449D01*
X148115270Y-82838282D01*
X148115269Y-82838282D01*
X147482962Y-83470590D01*
X147465925Y-83407007D01*
X147400099Y-83292993D01*
X147307007Y-83199901D01*
X147192993Y-83134075D01*
X147129409Y-83117037D01*
X147761716Y-82484728D01*
X147707547Y-82445373D01*
X147707547Y-82445372D01*
X147698500Y-82440763D01*
X147647706Y-82392788D01*
X147630912Y-82324966D01*
X147653451Y-82258832D01*
X147698508Y-82219793D01*
X147707816Y-82215051D01*
X147873121Y-82094951D01*
X147879786Y-82090109D01*
X147879788Y-82090106D01*
X147879792Y-82090104D01*
X148030104Y-81939792D01*
X148030106Y-81939788D01*
X148030109Y-81939786D01*
X148155048Y-81767820D01*
X148155047Y-81767820D01*
X148155051Y-81767816D01*
X148251557Y-81578412D01*
X148317246Y-81376243D01*
X148350500Y-81166287D01*
X148350500Y-80953713D01*
X148317246Y-80743757D01*
X148251557Y-80541588D01*
X148155051Y-80352184D01*
X148155049Y-80352181D01*
X148155048Y-80352179D01*
X148030109Y-80180213D01*
X147879786Y-80029890D01*
X147707820Y-79904951D01*
X147707115Y-79904591D01*
X147699054Y-79900485D01*
X147648259Y-79852512D01*
X147631463Y-79784692D01*
X147653999Y-79718556D01*
X147699054Y-79679515D01*
X147707816Y-79675051D01*
X147873121Y-79554951D01*
X147879786Y-79550109D01*
X147879788Y-79550106D01*
X147879792Y-79550104D01*
X148030104Y-79399792D01*
X148030106Y-79399788D01*
X148030109Y-79399786D01*
X148155048Y-79227820D01*
X148155047Y-79227820D01*
X148155051Y-79227816D01*
X148251557Y-79038412D01*
X148317246Y-78836243D01*
X148350500Y-78626287D01*
X148350500Y-78413713D01*
X148317246Y-78203757D01*
X148251557Y-78001588D01*
X148155051Y-77812184D01*
X148155049Y-77812181D01*
X148155048Y-77812179D01*
X148030109Y-77640213D01*
X147879786Y-77489890D01*
X147707820Y-77364951D01*
X147707115Y-77364591D01*
X147699054Y-77360485D01*
X147648259Y-77312512D01*
X147631463Y-77244692D01*
X147653999Y-77178556D01*
X147699054Y-77139515D01*
X147707816Y-77135051D01*
X147729789Y-77119086D01*
X147879786Y-77010109D01*
X147879788Y-77010106D01*
X147879792Y-77010104D01*
X148030104Y-76859792D01*
X148030106Y-76859788D01*
X148030109Y-76859786D01*
X148155048Y-76687820D01*
X148155047Y-76687820D01*
X148155051Y-76687816D01*
X148251557Y-76498412D01*
X148317246Y-76296243D01*
X148350500Y-76086287D01*
X148350500Y-75873713D01*
X148317246Y-75663757D01*
X148251557Y-75461588D01*
X148155051Y-75272184D01*
X148155049Y-75272181D01*
X148155048Y-75272179D01*
X148030109Y-75100213D01*
X147879786Y-74949890D01*
X147707820Y-74824951D01*
X147518414Y-74728444D01*
X147518413Y-74728443D01*
X147518412Y-74728443D01*
X147316243Y-74662754D01*
X147316241Y-74662753D01*
X147316240Y-74662753D01*
X147154957Y-74637208D01*
X147106287Y-74629500D01*
X146893713Y-74629500D01*
X146845042Y-74637208D01*
X146683760Y-74662753D01*
X146481585Y-74728444D01*
X146292179Y-74824951D01*
X146120213Y-74949890D01*
X145969890Y-75100213D01*
X145844951Y-75272179D01*
X145748444Y-75461585D01*
X145682753Y-75663760D01*
X145671266Y-75736286D01*
X145649500Y-75873713D01*
X127000500Y-75873713D01*
X127000500Y-72058711D01*
X127349500Y-72058711D01*
X127349500Y-72301288D01*
X127381161Y-72541785D01*
X127443947Y-72776104D01*
X127485367Y-72876100D01*
X127536776Y-73000212D01*
X127658064Y-73210289D01*
X127658066Y-73210292D01*
X127658067Y-73210293D01*
X127805733Y-73402736D01*
X127805739Y-73402743D01*
X127977256Y-73574260D01*
X127977262Y-73574265D01*
X128169711Y-73721936D01*
X128379788Y-73843224D01*
X128603900Y-73936054D01*
X128838211Y-73998838D01*
X129018586Y-74022584D01*
X129078711Y-74030500D01*
X129078712Y-74030500D01*
X129321289Y-74030500D01*
X129369388Y-74024167D01*
X129561789Y-73998838D01*
X129796100Y-73936054D01*
X130020212Y-73843224D01*
X130230289Y-73721936D01*
X130422738Y-73574265D01*
X130594265Y-73402738D01*
X130741936Y-73210289D01*
X130863224Y-73000212D01*
X130956054Y-72776100D01*
X131018838Y-72541789D01*
X131050500Y-72301288D01*
X131050500Y-72058712D01*
X131018838Y-71818211D01*
X130956054Y-71583900D01*
X130863224Y-71359788D01*
X130741936Y-71149711D01*
X130594265Y-70957262D01*
X130594260Y-70957256D01*
X130422743Y-70785739D01*
X130422736Y-70785733D01*
X130230293Y-70638067D01*
X130230292Y-70638066D01*
X130230289Y-70638064D01*
X130020212Y-70516776D01*
X129941504Y-70484174D01*
X129796104Y-70423947D01*
X129561785Y-70361161D01*
X129321289Y-70329500D01*
X129321288Y-70329500D01*
X129078712Y-70329500D01*
X129078711Y-70329500D01*
X128838214Y-70361161D01*
X128603895Y-70423947D01*
X128379794Y-70516773D01*
X128379785Y-70516777D01*
X128169706Y-70638067D01*
X127977263Y-70785733D01*
X127977256Y-70785739D01*
X127805739Y-70957256D01*
X127805733Y-70957263D01*
X127658067Y-71149706D01*
X127536777Y-71359785D01*
X127536773Y-71359794D01*
X127443947Y-71583895D01*
X127381161Y-71818214D01*
X127349500Y-72058711D01*
X127000500Y-72058711D01*
X127000500Y-64588711D01*
X127349500Y-64588711D01*
X127349500Y-64831288D01*
X127381161Y-65071785D01*
X127443947Y-65306104D01*
X127485367Y-65406100D01*
X127536776Y-65530212D01*
X127658064Y-65740289D01*
X127658066Y-65740292D01*
X127658067Y-65740293D01*
X127805733Y-65932736D01*
X127805739Y-65932743D01*
X127977256Y-66104260D01*
X127977262Y-66104265D01*
X128169711Y-66251936D01*
X128379788Y-66373224D01*
X128603900Y-66466054D01*
X128838211Y-66528838D01*
X129015803Y-66552218D01*
X129078711Y-66560500D01*
X129078712Y-66560500D01*
X129321289Y-66560500D01*
X129369388Y-66554167D01*
X129561789Y-66528838D01*
X129796100Y-66466054D01*
X130020212Y-66373224D01*
X130230289Y-66251936D01*
X130422738Y-66104265D01*
X130594265Y-65932738D01*
X130741936Y-65740289D01*
X130863224Y-65530212D01*
X130956054Y-65306100D01*
X131018838Y-65071789D01*
X131050500Y-64831288D01*
X131050500Y-64588712D01*
X131018838Y-64348211D01*
X130956054Y-64113900D01*
X130863224Y-63889788D01*
X130741936Y-63679711D01*
X130594265Y-63487262D01*
X130594260Y-63487256D01*
X130422743Y-63315739D01*
X130422736Y-63315733D01*
X130230293Y-63168067D01*
X130230292Y-63168066D01*
X130230289Y-63168064D01*
X130020212Y-63046776D01*
X130020205Y-63046773D01*
X129796104Y-62953947D01*
X129613373Y-62904984D01*
X129561789Y-62891162D01*
X129561788Y-62891161D01*
X129561785Y-62891161D01*
X129321289Y-62859500D01*
X129321288Y-62859500D01*
X129078712Y-62859500D01*
X129078711Y-62859500D01*
X128838214Y-62891161D01*
X128603895Y-62953947D01*
X128379794Y-63046773D01*
X128379785Y-63046777D01*
X128169706Y-63168067D01*
X127977263Y-63315733D01*
X127977256Y-63315739D01*
X127805739Y-63487256D01*
X127805733Y-63487263D01*
X127658067Y-63679706D01*
X127536777Y-63889785D01*
X127536773Y-63889794D01*
X127443947Y-64113895D01*
X127381161Y-64348214D01*
X127349500Y-64588711D01*
X127000500Y-64588711D01*
X127000500Y-44288711D01*
X127349500Y-44288711D01*
X127349500Y-44531288D01*
X127381161Y-44771785D01*
X127443947Y-45006104D01*
X127449788Y-45020205D01*
X127536776Y-45230212D01*
X127658064Y-45440289D01*
X127658066Y-45440292D01*
X127658067Y-45440293D01*
X127805733Y-45632736D01*
X127805739Y-45632743D01*
X127977256Y-45804260D01*
X127977262Y-45804265D01*
X128169711Y-45951936D01*
X128379788Y-46073224D01*
X128603900Y-46166054D01*
X128838211Y-46228838D01*
X129018586Y-46252584D01*
X129078711Y-46260500D01*
X129078712Y-46260500D01*
X129321289Y-46260500D01*
X129369388Y-46254167D01*
X129561789Y-46228838D01*
X129796100Y-46166054D01*
X130020212Y-46073224D01*
X130230289Y-45951936D01*
X130422738Y-45804265D01*
X130594265Y-45632738D01*
X130741936Y-45440289D01*
X130863224Y-45230212D01*
X130956054Y-45006100D01*
X131018838Y-44771789D01*
X131050500Y-44531288D01*
X131050500Y-44288712D01*
X131050500Y-44288711D01*
X131024450Y-44090838D01*
X131022853Y-44078711D01*
X151189500Y-44078711D01*
X151189500Y-44321288D01*
X151221161Y-44561785D01*
X151283947Y-44796104D01*
X151370932Y-45006104D01*
X151376776Y-45020212D01*
X151498064Y-45230289D01*
X151498066Y-45230292D01*
X151498067Y-45230293D01*
X151645733Y-45422736D01*
X151645739Y-45422743D01*
X151817256Y-45594260D01*
X151817263Y-45594266D01*
X151930321Y-45681018D01*
X152009711Y-45741936D01*
X152219788Y-45863224D01*
X152415269Y-45944195D01*
X152433948Y-45951932D01*
X152443900Y-45956054D01*
X152678211Y-46018838D01*
X152858586Y-46042584D01*
X152918711Y-46050500D01*
X152918712Y-46050500D01*
X153161289Y-46050500D01*
X153209388Y-46044167D01*
X153401789Y-46018838D01*
X153636100Y-45956054D01*
X153860212Y-45863224D01*
X154070289Y-45741936D01*
X154262738Y-45594265D01*
X154434265Y-45422738D01*
X154581936Y-45230289D01*
X154703224Y-45020212D01*
X154796054Y-44796100D01*
X154858838Y-44561789D01*
X154890500Y-44321288D01*
X154890500Y-44078712D01*
X154890500Y-44078711D01*
X171489500Y-44078711D01*
X171489500Y-44321288D01*
X171521161Y-44561785D01*
X171583947Y-44796104D01*
X171670932Y-45006104D01*
X171676776Y-45020212D01*
X171798064Y-45230289D01*
X171798066Y-45230292D01*
X171798067Y-45230293D01*
X171945733Y-45422736D01*
X171945739Y-45422743D01*
X172117256Y-45594260D01*
X172117263Y-45594266D01*
X172230321Y-45681018D01*
X172309711Y-45741936D01*
X172519788Y-45863224D01*
X172715269Y-45944195D01*
X172733948Y-45951932D01*
X172743900Y-45956054D01*
X172978211Y-46018838D01*
X173158586Y-46042584D01*
X173218711Y-46050500D01*
X173218712Y-46050500D01*
X173461289Y-46050500D01*
X173509388Y-46044167D01*
X173701789Y-46018838D01*
X173936100Y-45956054D01*
X174160212Y-45863224D01*
X174370289Y-45741936D01*
X174562738Y-45594265D01*
X174734265Y-45422738D01*
X174881936Y-45230289D01*
X175003224Y-45020212D01*
X175096054Y-44796100D01*
X175158838Y-44561789D01*
X175181624Y-44388711D01*
X195949500Y-44388711D01*
X195949500Y-44631288D01*
X195981161Y-44871785D01*
X196043947Y-45106104D01*
X196095388Y-45230293D01*
X196136776Y-45330212D01*
X196258064Y-45540289D01*
X196258066Y-45540292D01*
X196258067Y-45540293D01*
X196405733Y-45732736D01*
X196405739Y-45732743D01*
X196577256Y-45904260D01*
X196577262Y-45904265D01*
X196769711Y-46051936D01*
X196979788Y-46173224D01*
X197203900Y-46266054D01*
X197438211Y-46328838D01*
X197618586Y-46352584D01*
X197678711Y-46360500D01*
X197678712Y-46360500D01*
X197921289Y-46360500D01*
X197969388Y-46354167D01*
X198161789Y-46328838D01*
X198396100Y-46266054D01*
X198620212Y-46173224D01*
X198830289Y-46051936D01*
X199022738Y-45904265D01*
X199194265Y-45732738D01*
X199341936Y-45540289D01*
X199463224Y-45330212D01*
X199556054Y-45106100D01*
X199618838Y-44871789D01*
X199650500Y-44631288D01*
X199650500Y-44388712D01*
X199618838Y-44148211D01*
X199556054Y-43913900D01*
X199463224Y-43689788D01*
X199341936Y-43479711D01*
X199265260Y-43379785D01*
X199194266Y-43287263D01*
X199194260Y-43287256D01*
X199022743Y-43115739D01*
X199022736Y-43115733D01*
X198830293Y-42968067D01*
X198830292Y-42968066D01*
X198830289Y-42968064D01*
X198620212Y-42846776D01*
X198620205Y-42846773D01*
X198396104Y-42753947D01*
X198161785Y-42691161D01*
X197921289Y-42659500D01*
X197921288Y-42659500D01*
X197678712Y-42659500D01*
X197678711Y-42659500D01*
X197438214Y-42691161D01*
X197203895Y-42753947D01*
X196979794Y-42846773D01*
X196979785Y-42846777D01*
X196769706Y-42968067D01*
X196577263Y-43115733D01*
X196577256Y-43115739D01*
X196405739Y-43287256D01*
X196405733Y-43287263D01*
X196258067Y-43479706D01*
X196136777Y-43689785D01*
X196136773Y-43689794D01*
X196043947Y-43913895D01*
X195981161Y-44148214D01*
X195949500Y-44388711D01*
X175181624Y-44388711D01*
X175190500Y-44321288D01*
X175190500Y-44078712D01*
X175158838Y-43838211D01*
X175096054Y-43603900D01*
X175003224Y-43379788D01*
X174881936Y-43169711D01*
X174821018Y-43090321D01*
X174734266Y-42977263D01*
X174734260Y-42977256D01*
X174562743Y-42805739D01*
X174562736Y-42805733D01*
X174370293Y-42658067D01*
X174370292Y-42658066D01*
X174370289Y-42658064D01*
X174160212Y-42536776D01*
X174160205Y-42536773D01*
X173936104Y-42443947D01*
X173701785Y-42381161D01*
X173461289Y-42349500D01*
X173461288Y-42349500D01*
X173218712Y-42349500D01*
X173218711Y-42349500D01*
X172978214Y-42381161D01*
X172743895Y-42443947D01*
X172519794Y-42536773D01*
X172519785Y-42536777D01*
X172309706Y-42658067D01*
X172117263Y-42805733D01*
X172117256Y-42805739D01*
X171945739Y-42977256D01*
X171945733Y-42977263D01*
X171798067Y-43169706D01*
X171676777Y-43379785D01*
X171676773Y-43379794D01*
X171583947Y-43603895D01*
X171521161Y-43838214D01*
X171489500Y-44078711D01*
X154890500Y-44078711D01*
X154858838Y-43838211D01*
X154796054Y-43603900D01*
X154703224Y-43379788D01*
X154581936Y-43169711D01*
X154521018Y-43090321D01*
X154434266Y-42977263D01*
X154434260Y-42977256D01*
X154262743Y-42805739D01*
X154262736Y-42805733D01*
X154070293Y-42658067D01*
X154070292Y-42658066D01*
X154070289Y-42658064D01*
X153860212Y-42536776D01*
X153860205Y-42536773D01*
X153636104Y-42443947D01*
X153401785Y-42381161D01*
X153161289Y-42349500D01*
X153161288Y-42349500D01*
X152918712Y-42349500D01*
X152918711Y-42349500D01*
X152678214Y-42381161D01*
X152443895Y-42443947D01*
X152219794Y-42536773D01*
X152219785Y-42536777D01*
X152009706Y-42658067D01*
X151817263Y-42805733D01*
X151817256Y-42805739D01*
X151645739Y-42977256D01*
X151645733Y-42977263D01*
X151498067Y-43169706D01*
X151376777Y-43379785D01*
X151376773Y-43379794D01*
X151283947Y-43603895D01*
X151221161Y-43838214D01*
X151189500Y-44078711D01*
X131022853Y-44078711D01*
X131018838Y-44048214D01*
X131018838Y-44048211D01*
X130956054Y-43813900D01*
X130863224Y-43589788D01*
X130741936Y-43379711D01*
X130594265Y-43187262D01*
X130594260Y-43187256D01*
X130422743Y-43015739D01*
X130422736Y-43015733D01*
X130230293Y-42868067D01*
X130230292Y-42868066D01*
X130230289Y-42868064D01*
X130020212Y-42746776D01*
X130020205Y-42746773D01*
X129796104Y-42653947D01*
X129561785Y-42591161D01*
X129321289Y-42559500D01*
X129321288Y-42559500D01*
X129078712Y-42559500D01*
X129078711Y-42559500D01*
X128838214Y-42591161D01*
X128603895Y-42653947D01*
X128379794Y-42746773D01*
X128379785Y-42746777D01*
X128169706Y-42868067D01*
X127977263Y-43015733D01*
X127977256Y-43015739D01*
X127805739Y-43187256D01*
X127805733Y-43187263D01*
X127658067Y-43379706D01*
X127536777Y-43589785D01*
X127536773Y-43589794D01*
X127443947Y-43813895D01*
X127381161Y-44048214D01*
X127349500Y-44288711D01*
X127000500Y-44288711D01*
X127000500Y-37881902D01*
X131629500Y-37881902D01*
X131629500Y-38118097D01*
X131666446Y-38351368D01*
X131739433Y-38575996D01*
X131846657Y-38786433D01*
X131985483Y-38977510D01*
X132152490Y-39144517D01*
X132343567Y-39283343D01*
X132442991Y-39334002D01*
X132554003Y-39390566D01*
X132554005Y-39390566D01*
X132554008Y-39390568D01*
X132674412Y-39429689D01*
X132778631Y-39463553D01*
X133011903Y-39500500D01*
X133011908Y-39500500D01*
X133248097Y-39500500D01*
X133481368Y-39463553D01*
X133482870Y-39463065D01*
X133705992Y-39390568D01*
X133916433Y-39283343D01*
X134107510Y-39144517D01*
X134274517Y-38977510D01*
X134299682Y-38942872D01*
X134355011Y-38900207D01*
X134424625Y-38894228D01*
X134486420Y-38926833D01*
X134500315Y-38942870D01*
X134525483Y-38977510D01*
X134692490Y-39144517D01*
X134883567Y-39283343D01*
X134982991Y-39334002D01*
X135094003Y-39390566D01*
X135094005Y-39390566D01*
X135094008Y-39390568D01*
X135214412Y-39429689D01*
X135318631Y-39463553D01*
X135551903Y-39500500D01*
X135551908Y-39500500D01*
X135788097Y-39500500D01*
X136021368Y-39463553D01*
X136022870Y-39463065D01*
X136245992Y-39390568D01*
X136456433Y-39283343D01*
X136647510Y-39144517D01*
X136814517Y-38977510D01*
X136861370Y-38913022D01*
X136865713Y-38908199D01*
X136890150Y-38893142D01*
X136912877Y-38875618D01*
X136920393Y-38874509D01*
X136925199Y-38871549D01*
X136938730Y-38871806D01*
X136967594Y-38867551D01*
X136987340Y-38869105D01*
X137645387Y-38211058D01*
X137650889Y-38231591D01*
X137729881Y-38368408D01*
X137841592Y-38480119D01*
X137978409Y-38559111D01*
X137998940Y-38564612D01*
X137340893Y-39222658D01*
X137423828Y-39282914D01*
X137634197Y-39390102D01*
X137858752Y-39463065D01*
X137858751Y-39463065D01*
X138091948Y-39500000D01*
X138328052Y-39500000D01*
X138561247Y-39463065D01*
X138785802Y-39390102D01*
X138996163Y-39282918D01*
X138996169Y-39282914D01*
X139079104Y-39222658D01*
X139079105Y-39222658D01*
X138421058Y-38564612D01*
X138441591Y-38559111D01*
X138578408Y-38480119D01*
X138690119Y-38368408D01*
X138769111Y-38231591D01*
X138774612Y-38211058D01*
X139213181Y-38649627D01*
X139246666Y-38710950D01*
X139249500Y-38737306D01*
X139249500Y-38800000D01*
X139249501Y-38800019D01*
X139260000Y-38902796D01*
X139260001Y-38902799D01*
X139284759Y-38977512D01*
X139315186Y-39069334D01*
X139407288Y-39218656D01*
X139531344Y-39342712D01*
X139680666Y-39434814D01*
X139847203Y-39489999D01*
X139949991Y-39500500D01*
X141550008Y-39500499D01*
X141652797Y-39489999D01*
X141819334Y-39434814D01*
X141968656Y-39342712D01*
X142092712Y-39218656D01*
X142184814Y-39069334D01*
X142239999Y-38902797D01*
X142250500Y-38800009D01*
X142250499Y-37199992D01*
X142243440Y-37130893D01*
X142239999Y-37097203D01*
X142239998Y-37097200D01*
X142238209Y-37091800D01*
X142184814Y-36930666D01*
X142092712Y-36781344D01*
X141968656Y-36657288D01*
X141819334Y-36565186D01*
X141652797Y-36510001D01*
X141652795Y-36510000D01*
X141550010Y-36499500D01*
X139949998Y-36499500D01*
X139949981Y-36499501D01*
X139847203Y-36510000D01*
X139847200Y-36510001D01*
X139680668Y-36565185D01*
X139680663Y-36565187D01*
X139531342Y-36657289D01*
X139407289Y-36781342D01*
X139315187Y-36930663D01*
X139315186Y-36930666D01*
X139260001Y-37097203D01*
X139260001Y-37097204D01*
X139260000Y-37097204D01*
X139249500Y-37199983D01*
X139249500Y-37262691D01*
X139229815Y-37329730D01*
X139213181Y-37350372D01*
X138774612Y-37788940D01*
X138769111Y-37768409D01*
X138690119Y-37631592D01*
X138578408Y-37519881D01*
X138441591Y-37440889D01*
X138421059Y-37435387D01*
X139079105Y-36777340D01*
X139079104Y-36777338D01*
X138996174Y-36717087D01*
X138785802Y-36609897D01*
X138561247Y-36536934D01*
X138561248Y-36536934D01*
X138328052Y-36500000D01*
X138091948Y-36500000D01*
X137858752Y-36536934D01*
X137634197Y-36609897D01*
X137423830Y-36717084D01*
X137340894Y-36777340D01*
X137998941Y-37435387D01*
X137978409Y-37440889D01*
X137841592Y-37519881D01*
X137729881Y-37631592D01*
X137650889Y-37768409D01*
X137645387Y-37788940D01*
X136987340Y-37130893D01*
X136967593Y-37132448D01*
X136963860Y-37131663D01*
X136960222Y-37132808D01*
X136929936Y-37124537D01*
X136899215Y-37118084D01*
X136895429Y-37115114D01*
X136892821Y-37114402D01*
X136883431Y-37105701D01*
X136865712Y-37091800D01*
X136861370Y-37086978D01*
X136814517Y-37022490D01*
X136647510Y-36855483D01*
X136456433Y-36716657D01*
X136245996Y-36609433D01*
X136021368Y-36536446D01*
X135788097Y-36499500D01*
X135788092Y-36499500D01*
X135551908Y-36499500D01*
X135551903Y-36499500D01*
X135318631Y-36536446D01*
X135094003Y-36609433D01*
X134883566Y-36716657D01*
X134800047Y-36777338D01*
X134692490Y-36855483D01*
X134692488Y-36855485D01*
X134692487Y-36855485D01*
X134525484Y-37022488D01*
X134500318Y-37057127D01*
X134444987Y-37099792D01*
X134375374Y-37105771D01*
X134313579Y-37073165D01*
X134299682Y-37057127D01*
X134274517Y-37022490D01*
X134107510Y-36855483D01*
X133916433Y-36716657D01*
X133705996Y-36609433D01*
X133481368Y-36536446D01*
X133248097Y-36499500D01*
X133248092Y-36499500D01*
X133011908Y-36499500D01*
X133011903Y-36499500D01*
X132778631Y-36536446D01*
X132554003Y-36609433D01*
X132343566Y-36716657D01*
X132260047Y-36777338D01*
X132152490Y-36855483D01*
X132152488Y-36855485D01*
X132152487Y-36855485D01*
X131985485Y-37022487D01*
X131985485Y-37022488D01*
X131985483Y-37022490D01*
X131935126Y-37091800D01*
X131846657Y-37213566D01*
X131739433Y-37424003D01*
X131666446Y-37648631D01*
X131629500Y-37881902D01*
X127000500Y-37881902D01*
X127000500Y-34124500D01*
X127020185Y-34057461D01*
X127072989Y-34011706D01*
X127124500Y-34000500D01*
X199875500Y-34000500D01*
X199942539Y-34020185D01*
G37*
%TD.AperFunction*%
%TD*%
M02*
