M48
; DRILL file KiCad 10.0.3-10.0.3~ubuntu24.04.1 date 2026-06-19T11:09:33
; FORMAT={-:-/ absolute / metric / decimal}
; #@! TF.CreationDate,2026-06-19T11:09:33+02:00
; #@! TF.GenerationSoftware,Kicad,Pcbnew,10.0.3-10.0.3~ubuntu24.04.1
; #@! TF.FileFunction,Plated,1,2,PTH
FMAT,2
METRIC
; #@! TA.AperFunction,Plated,PTH,ViaDrill
T1C0.400
; #@! TA.AperFunction,Plated,PTH,ViaDrill
T2C0.600
; #@! TA.AperFunction,Plated,PTH,ComponentDrill
T3C1.000
; #@! TA.AperFunction,Plated,PTH,ComponentDrill
T4C1.200
%
G90
G05
T1
X122.0Y-47.5
X122.0Y-64.5
X122.5Y-73.0
X124.0Y-69.5
X124.0Y-89.0
X126.0Y-64.5
X126.5Y-47.5
X129.0Y-94.0
X130.0Y-44.5
X130.0Y-89.0
X133.5Y-96.0
X134.0Y-48.5
X138.5Y-76.5
X143.0Y-64.0
X144.0Y-55.5
X145.5Y-86.0
X146.0Y-51.5
X147.0Y-43.5
X149.0Y-80.0
X149.5Y-93.0
X151.6Y-69.0
X151.8Y-60.2
X152.2Y-64.5
X154.0Y-67.5
X154.5Y-60.0
X154.5Y-94.5
X156.0Y-65.2
X159.0Y-79.5
X161.6Y-60.646
X163.0Y-87.0
X164.0Y-67.0
X165.5Y-69.5
X167.5Y-75.5
X169.0Y-43.5
X169.0Y-61.5
X169.0Y-85.0
X171.0Y-95.0
X174.0Y-72.0
X175.5Y-77.0
X177.88Y-64.4
X180.0Y-83.0
X181.38Y-44.4
X181.88Y-63.9
X184.0Y-72.0
X184.0Y-93.5
X184.0Y-96.0
X185.88Y-55.9
X188.88Y-44.4
X188.88Y-64.4
X191.5Y-72.0
X192.0Y-89.5
X192.88Y-63.9
T2
X149.5Y-70.5
X151.0Y-77.5
T3
X123.11Y-44.5
X123.11Y-67.36
X125.65Y-44.5
X125.65Y-67.36
X135.12Y-89.475
X135.81Y-44.5
X135.81Y-67.36
X137.66Y-89.475
X138.18Y-94.5
X138.35Y-44.5
X138.35Y-67.36
X140.2Y-89.475
X140.72Y-94.5
X142.74Y-89.475
X143.26Y-94.5
X145.8Y-94.5
X148.34Y-94.5
X149.62Y-62.2
X150.88Y-94.5
X152.16Y-62.2
X154.7Y-62.2
X157.24Y-62.2
X159.78Y-62.2
X162.32Y-62.2
X174.35Y-89.09
X176.89Y-89.09
X178.8Y-44.04
X178.8Y-66.9
X179.43Y-80.2
X179.43Y-89.09
X181.34Y-66.9
X181.97Y-80.2
X181.97Y-89.09
X184.51Y-89.09
X187.05Y-89.09
X188.96Y-66.9
X191.5Y-44.04
X191.5Y-66.9
T4
X171.56Y-46.4
X174.1Y-46.4
X198.625Y-71.415
X198.625Y-73.955
M30
