%TF.GenerationSoftware,KiCad,Pcbnew,10.0.3-10.0.3~ubuntu24.04.1*%
%TF.CreationDate,2026-06-19T11:09:31+02:00*%
%TF.ProjectId,_V0_3-Power_Module,5f56305f-332d-4506-9f77-65725f4d6f64,rev?*%
%TF.SameCoordinates,Original*%
%TF.FileFunction,Legend,Bot*%
%TF.FilePolarity,Positive*%
%FSLAX46Y46*%
G04 Gerber Fmt 4.6, Leading zero omitted, Abs format (unit mm)*
G04 Created by KiCad (PCBNEW 10.0.3-10.0.3~ubuntu24.04.1) date 2026-06-19 11:09:31*
%MOMM*%
%LPD*%
G01*
G04 APERTURE LIST*
%ADD10C,0.100000*%
G04 APERTURE END LIST*
D10*
X147000000Y-50500000D02*
X169500000Y-50500000D01*
X169500000Y-59000000D01*
X147000000Y-59000000D01*
X147000000Y-50500000D01*
G36*
X147000000Y-50500000D02*
G01*
X169500000Y-50500000D01*
X169500000Y-59000000D01*
X147000000Y-59000000D01*
X147000000Y-50500000D01*
G37*
X169196115Y-48872419D02*
X169196115Y-47872419D01*
X169196115Y-47872419D02*
X168815163Y-47872419D01*
X168815163Y-47872419D02*
X168719925Y-47920038D01*
X168719925Y-47920038D02*
X168672306Y-47967657D01*
X168672306Y-47967657D02*
X168624687Y-48062895D01*
X168624687Y-48062895D02*
X168624687Y-48205752D01*
X168624687Y-48205752D02*
X168672306Y-48300990D01*
X168672306Y-48300990D02*
X168719925Y-48348609D01*
X168719925Y-48348609D02*
X168815163Y-48396228D01*
X168815163Y-48396228D02*
X169196115Y-48396228D01*
X168053258Y-48872419D02*
X168148496Y-48824800D01*
X168148496Y-48824800D02*
X168196115Y-48777180D01*
X168196115Y-48777180D02*
X168243734Y-48681942D01*
X168243734Y-48681942D02*
X168243734Y-48396228D01*
X168243734Y-48396228D02*
X168196115Y-48300990D01*
X168196115Y-48300990D02*
X168148496Y-48253371D01*
X168148496Y-48253371D02*
X168053258Y-48205752D01*
X168053258Y-48205752D02*
X167910401Y-48205752D01*
X167910401Y-48205752D02*
X167815163Y-48253371D01*
X167815163Y-48253371D02*
X167767544Y-48300990D01*
X167767544Y-48300990D02*
X167719925Y-48396228D01*
X167719925Y-48396228D02*
X167719925Y-48681942D01*
X167719925Y-48681942D02*
X167767544Y-48777180D01*
X167767544Y-48777180D02*
X167815163Y-48824800D01*
X167815163Y-48824800D02*
X167910401Y-48872419D01*
X167910401Y-48872419D02*
X168053258Y-48872419D01*
X167386591Y-48205752D02*
X167196115Y-48872419D01*
X167196115Y-48872419D02*
X167005639Y-48396228D01*
X167005639Y-48396228D02*
X166815163Y-48872419D01*
X166815163Y-48872419D02*
X166624687Y-48205752D01*
X165862782Y-48824800D02*
X165958020Y-48872419D01*
X165958020Y-48872419D02*
X166148496Y-48872419D01*
X166148496Y-48872419D02*
X166243734Y-48824800D01*
X166243734Y-48824800D02*
X166291353Y-48729561D01*
X166291353Y-48729561D02*
X166291353Y-48348609D01*
X166291353Y-48348609D02*
X166243734Y-48253371D01*
X166243734Y-48253371D02*
X166148496Y-48205752D01*
X166148496Y-48205752D02*
X165958020Y-48205752D01*
X165958020Y-48205752D02*
X165862782Y-48253371D01*
X165862782Y-48253371D02*
X165815163Y-48348609D01*
X165815163Y-48348609D02*
X165815163Y-48443847D01*
X165815163Y-48443847D02*
X166291353Y-48539085D01*
X165386591Y-48872419D02*
X165386591Y-48205752D01*
X165386591Y-48396228D02*
X165338972Y-48300990D01*
X165338972Y-48300990D02*
X165291353Y-48253371D01*
X165291353Y-48253371D02*
X165196115Y-48205752D01*
X165196115Y-48205752D02*
X165100877Y-48205752D01*
X165005639Y-48967657D02*
X164243734Y-48967657D01*
X164005638Y-48872419D02*
X164005638Y-47872419D01*
X164005638Y-47872419D02*
X163672305Y-48586704D01*
X163672305Y-48586704D02*
X163338972Y-47872419D01*
X163338972Y-47872419D02*
X163338972Y-48872419D01*
X162719924Y-48872419D02*
X162815162Y-48824800D01*
X162815162Y-48824800D02*
X162862781Y-48777180D01*
X162862781Y-48777180D02*
X162910400Y-48681942D01*
X162910400Y-48681942D02*
X162910400Y-48396228D01*
X162910400Y-48396228D02*
X162862781Y-48300990D01*
X162862781Y-48300990D02*
X162815162Y-48253371D01*
X162815162Y-48253371D02*
X162719924Y-48205752D01*
X162719924Y-48205752D02*
X162577067Y-48205752D01*
X162577067Y-48205752D02*
X162481829Y-48253371D01*
X162481829Y-48253371D02*
X162434210Y-48300990D01*
X162434210Y-48300990D02*
X162386591Y-48396228D01*
X162386591Y-48396228D02*
X162386591Y-48681942D01*
X162386591Y-48681942D02*
X162434210Y-48777180D01*
X162434210Y-48777180D02*
X162481829Y-48824800D01*
X162481829Y-48824800D02*
X162577067Y-48872419D01*
X162577067Y-48872419D02*
X162719924Y-48872419D01*
X161529448Y-48872419D02*
X161529448Y-47872419D01*
X161529448Y-48824800D02*
X161624686Y-48872419D01*
X161624686Y-48872419D02*
X161815162Y-48872419D01*
X161815162Y-48872419D02*
X161910400Y-48824800D01*
X161910400Y-48824800D02*
X161958019Y-48777180D01*
X161958019Y-48777180D02*
X162005638Y-48681942D01*
X162005638Y-48681942D02*
X162005638Y-48396228D01*
X162005638Y-48396228D02*
X161958019Y-48300990D01*
X161958019Y-48300990D02*
X161910400Y-48253371D01*
X161910400Y-48253371D02*
X161815162Y-48205752D01*
X161815162Y-48205752D02*
X161624686Y-48205752D01*
X161624686Y-48205752D02*
X161529448Y-48253371D01*
X160624686Y-48205752D02*
X160624686Y-48872419D01*
X161053257Y-48205752D02*
X161053257Y-48729561D01*
X161053257Y-48729561D02*
X161005638Y-48824800D01*
X161005638Y-48824800D02*
X160910400Y-48872419D01*
X160910400Y-48872419D02*
X160767543Y-48872419D01*
X160767543Y-48872419D02*
X160672305Y-48824800D01*
X160672305Y-48824800D02*
X160624686Y-48777180D01*
X160005638Y-48872419D02*
X160100876Y-48824800D01*
X160100876Y-48824800D02*
X160148495Y-48729561D01*
X160148495Y-48729561D02*
X160148495Y-47872419D01*
X159243733Y-48824800D02*
X159338971Y-48872419D01*
X159338971Y-48872419D02*
X159529447Y-48872419D01*
X159529447Y-48872419D02*
X159624685Y-48824800D01*
X159624685Y-48824800D02*
X159672304Y-48729561D01*
X159672304Y-48729561D02*
X159672304Y-48348609D01*
X159672304Y-48348609D02*
X159624685Y-48253371D01*
X159624685Y-48253371D02*
X159529447Y-48205752D01*
X159529447Y-48205752D02*
X159338971Y-48205752D01*
X159338971Y-48205752D02*
X159243733Y-48253371D01*
X159243733Y-48253371D02*
X159196114Y-48348609D01*
X159196114Y-48348609D02*
X159196114Y-48443847D01*
X159196114Y-48443847D02*
X159672304Y-48539085D01*
X159005638Y-48967657D02*
X158243733Y-48967657D01*
X158100875Y-48205752D02*
X157862780Y-48872419D01*
X157862780Y-48872419D02*
X157624685Y-48205752D01*
X157053256Y-47872419D02*
X156958018Y-47872419D01*
X156958018Y-47872419D02*
X156862780Y-47920038D01*
X156862780Y-47920038D02*
X156815161Y-47967657D01*
X156815161Y-47967657D02*
X156767542Y-48062895D01*
X156767542Y-48062895D02*
X156719923Y-48253371D01*
X156719923Y-48253371D02*
X156719923Y-48491466D01*
X156719923Y-48491466D02*
X156767542Y-48681942D01*
X156767542Y-48681942D02*
X156815161Y-48777180D01*
X156815161Y-48777180D02*
X156862780Y-48824800D01*
X156862780Y-48824800D02*
X156958018Y-48872419D01*
X156958018Y-48872419D02*
X157053256Y-48872419D01*
X157053256Y-48872419D02*
X157148494Y-48824800D01*
X157148494Y-48824800D02*
X157196113Y-48777180D01*
X157196113Y-48777180D02*
X157243732Y-48681942D01*
X157243732Y-48681942D02*
X157291351Y-48491466D01*
X157291351Y-48491466D02*
X157291351Y-48253371D01*
X157291351Y-48253371D02*
X157243732Y-48062895D01*
X157243732Y-48062895D02*
X157196113Y-47967657D01*
X157196113Y-47967657D02*
X157148494Y-47920038D01*
X157148494Y-47920038D02*
X157053256Y-47872419D01*
X156291351Y-48777180D02*
X156243732Y-48824800D01*
X156243732Y-48824800D02*
X156291351Y-48872419D01*
X156291351Y-48872419D02*
X156338970Y-48824800D01*
X156338970Y-48824800D02*
X156291351Y-48777180D01*
X156291351Y-48777180D02*
X156291351Y-48872419D01*
X155910399Y-47872419D02*
X155291352Y-47872419D01*
X155291352Y-47872419D02*
X155624685Y-48253371D01*
X155624685Y-48253371D02*
X155481828Y-48253371D01*
X155481828Y-48253371D02*
X155386590Y-48300990D01*
X155386590Y-48300990D02*
X155338971Y-48348609D01*
X155338971Y-48348609D02*
X155291352Y-48443847D01*
X155291352Y-48443847D02*
X155291352Y-48681942D01*
X155291352Y-48681942D02*
X155338971Y-48777180D01*
X155338971Y-48777180D02*
X155386590Y-48824800D01*
X155386590Y-48824800D02*
X155481828Y-48872419D01*
X155481828Y-48872419D02*
X155767542Y-48872419D01*
X155767542Y-48872419D02*
X155862780Y-48824800D01*
X155862780Y-48824800D02*
X155910399Y-48777180D01*
X139243734Y-92824800D02*
X139100877Y-92872419D01*
X139100877Y-92872419D02*
X138862782Y-92872419D01*
X138862782Y-92872419D02*
X138767544Y-92824800D01*
X138767544Y-92824800D02*
X138719925Y-92777180D01*
X138719925Y-92777180D02*
X138672306Y-92681942D01*
X138672306Y-92681942D02*
X138672306Y-92586704D01*
X138672306Y-92586704D02*
X138719925Y-92491466D01*
X138719925Y-92491466D02*
X138767544Y-92443847D01*
X138767544Y-92443847D02*
X138862782Y-92396228D01*
X138862782Y-92396228D02*
X139053258Y-92348609D01*
X139053258Y-92348609D02*
X139148496Y-92300990D01*
X139148496Y-92300990D02*
X139196115Y-92253371D01*
X139196115Y-92253371D02*
X139243734Y-92158133D01*
X139243734Y-92158133D02*
X139243734Y-92062895D01*
X139243734Y-92062895D02*
X139196115Y-91967657D01*
X139196115Y-91967657D02*
X139148496Y-91920038D01*
X139148496Y-91920038D02*
X139053258Y-91872419D01*
X139053258Y-91872419D02*
X138815163Y-91872419D01*
X138815163Y-91872419D02*
X138672306Y-91920038D01*
X137672306Y-92777180D02*
X137719925Y-92824800D01*
X137719925Y-92824800D02*
X137862782Y-92872419D01*
X137862782Y-92872419D02*
X137958020Y-92872419D01*
X137958020Y-92872419D02*
X138100877Y-92824800D01*
X138100877Y-92824800D02*
X138196115Y-92729561D01*
X138196115Y-92729561D02*
X138243734Y-92634323D01*
X138243734Y-92634323D02*
X138291353Y-92443847D01*
X138291353Y-92443847D02*
X138291353Y-92300990D01*
X138291353Y-92300990D02*
X138243734Y-92110514D01*
X138243734Y-92110514D02*
X138196115Y-92015276D01*
X138196115Y-92015276D02*
X138100877Y-91920038D01*
X138100877Y-91920038D02*
X137958020Y-91872419D01*
X137958020Y-91872419D02*
X137862782Y-91872419D01*
X137862782Y-91872419D02*
X137719925Y-91920038D01*
X137719925Y-91920038D02*
X137672306Y-91967657D01*
X136767544Y-92872419D02*
X137243734Y-92872419D01*
X137243734Y-92872419D02*
X137243734Y-91872419D01*
X142243734Y-92824800D02*
X142100877Y-92872419D01*
X142100877Y-92872419D02*
X141862782Y-92872419D01*
X141862782Y-92872419D02*
X141767544Y-92824800D01*
X141767544Y-92824800D02*
X141719925Y-92777180D01*
X141719925Y-92777180D02*
X141672306Y-92681942D01*
X141672306Y-92681942D02*
X141672306Y-92586704D01*
X141672306Y-92586704D02*
X141719925Y-92491466D01*
X141719925Y-92491466D02*
X141767544Y-92443847D01*
X141767544Y-92443847D02*
X141862782Y-92396228D01*
X141862782Y-92396228D02*
X142053258Y-92348609D01*
X142053258Y-92348609D02*
X142148496Y-92300990D01*
X142148496Y-92300990D02*
X142196115Y-92253371D01*
X142196115Y-92253371D02*
X142243734Y-92158133D01*
X142243734Y-92158133D02*
X142243734Y-92062895D01*
X142243734Y-92062895D02*
X142196115Y-91967657D01*
X142196115Y-91967657D02*
X142148496Y-91920038D01*
X142148496Y-91920038D02*
X142053258Y-91872419D01*
X142053258Y-91872419D02*
X141815163Y-91872419D01*
X141815163Y-91872419D02*
X141672306Y-91920038D01*
X141243734Y-92872419D02*
X141243734Y-91872419D01*
X141243734Y-91872419D02*
X141005639Y-91872419D01*
X141005639Y-91872419D02*
X140862782Y-91920038D01*
X140862782Y-91920038D02*
X140767544Y-92015276D01*
X140767544Y-92015276D02*
X140719925Y-92110514D01*
X140719925Y-92110514D02*
X140672306Y-92300990D01*
X140672306Y-92300990D02*
X140672306Y-92443847D01*
X140672306Y-92443847D02*
X140719925Y-92634323D01*
X140719925Y-92634323D02*
X140767544Y-92729561D01*
X140767544Y-92729561D02*
X140862782Y-92824800D01*
X140862782Y-92824800D02*
X141005639Y-92872419D01*
X141005639Y-92872419D02*
X141243734Y-92872419D01*
X140291353Y-92586704D02*
X139815163Y-92586704D01*
X140386591Y-92872419D02*
X140053258Y-91872419D01*
X140053258Y-91872419D02*
X139719925Y-92872419D01*
X145791353Y-91872419D02*
X145172306Y-91872419D01*
X145172306Y-91872419D02*
X145505639Y-92253371D01*
X145505639Y-92253371D02*
X145362782Y-92253371D01*
X145362782Y-92253371D02*
X145267544Y-92300990D01*
X145267544Y-92300990D02*
X145219925Y-92348609D01*
X145219925Y-92348609D02*
X145172306Y-92443847D01*
X145172306Y-92443847D02*
X145172306Y-92681942D01*
X145172306Y-92681942D02*
X145219925Y-92777180D01*
X145219925Y-92777180D02*
X145267544Y-92824800D01*
X145267544Y-92824800D02*
X145362782Y-92872419D01*
X145362782Y-92872419D02*
X145648496Y-92872419D01*
X145648496Y-92872419D02*
X145743734Y-92824800D01*
X145743734Y-92824800D02*
X145791353Y-92777180D01*
X144743734Y-92777180D02*
X144696115Y-92824800D01*
X144696115Y-92824800D02*
X144743734Y-92872419D01*
X144743734Y-92872419D02*
X144791353Y-92824800D01*
X144791353Y-92824800D02*
X144743734Y-92777180D01*
X144743734Y-92777180D02*
X144743734Y-92872419D01*
X144362782Y-91872419D02*
X143743735Y-91872419D01*
X143743735Y-91872419D02*
X144077068Y-92253371D01*
X144077068Y-92253371D02*
X143934211Y-92253371D01*
X143934211Y-92253371D02*
X143838973Y-92300990D01*
X143838973Y-92300990D02*
X143791354Y-92348609D01*
X143791354Y-92348609D02*
X143743735Y-92443847D01*
X143743735Y-92443847D02*
X143743735Y-92681942D01*
X143743735Y-92681942D02*
X143791354Y-92777180D01*
X143791354Y-92777180D02*
X143838973Y-92824800D01*
X143838973Y-92824800D02*
X143934211Y-92872419D01*
X143934211Y-92872419D02*
X144219925Y-92872419D01*
X144219925Y-92872419D02*
X144315163Y-92824800D01*
X144315163Y-92824800D02*
X144362782Y-92777180D01*
X143458020Y-91872419D02*
X143124687Y-92872419D01*
X143124687Y-92872419D02*
X142791354Y-91872419D01*
X150672306Y-91920038D02*
X150767544Y-91872419D01*
X150767544Y-91872419D02*
X150910401Y-91872419D01*
X150910401Y-91872419D02*
X151053258Y-91920038D01*
X151053258Y-91920038D02*
X151148496Y-92015276D01*
X151148496Y-92015276D02*
X151196115Y-92110514D01*
X151196115Y-92110514D02*
X151243734Y-92300990D01*
X151243734Y-92300990D02*
X151243734Y-92443847D01*
X151243734Y-92443847D02*
X151196115Y-92634323D01*
X151196115Y-92634323D02*
X151148496Y-92729561D01*
X151148496Y-92729561D02*
X151053258Y-92824800D01*
X151053258Y-92824800D02*
X150910401Y-92872419D01*
X150910401Y-92872419D02*
X150815163Y-92872419D01*
X150815163Y-92872419D02*
X150672306Y-92824800D01*
X150672306Y-92824800D02*
X150624687Y-92777180D01*
X150624687Y-92777180D02*
X150624687Y-92443847D01*
X150624687Y-92443847D02*
X150815163Y-92443847D01*
X150196115Y-92872419D02*
X150196115Y-91872419D01*
X150196115Y-91872419D02*
X149624687Y-92872419D01*
X149624687Y-92872419D02*
X149624687Y-91872419D01*
X149148496Y-92872419D02*
X149148496Y-91872419D01*
X149148496Y-91872419D02*
X148910401Y-91872419D01*
X148910401Y-91872419D02*
X148767544Y-91920038D01*
X148767544Y-91920038D02*
X148672306Y-92015276D01*
X148672306Y-92015276D02*
X148624687Y-92110514D01*
X148624687Y-92110514D02*
X148577068Y-92300990D01*
X148577068Y-92300990D02*
X148577068Y-92443847D01*
X148577068Y-92443847D02*
X148624687Y-92634323D01*
X148624687Y-92634323D02*
X148672306Y-92729561D01*
X148672306Y-92729561D02*
X148767544Y-92824800D01*
X148767544Y-92824800D02*
X148910401Y-92872419D01*
X148910401Y-92872419D02*
X149148496Y-92872419D01*
M02*
