%TF.GenerationSoftware,KiCad,Pcbnew,10.0.3-10.0.3~ubuntu24.04.1*%
%TF.CreationDate,2026-06-19T11:09:31+02:00*%
%TF.ProjectId,_V0_3-Power_Module,5f56305f-332d-4506-9f77-65725f4d6f64,rev?*%
%TF.SameCoordinates,Original*%
%TF.FileFunction,Legend,Top*%
%TF.FilePolarity,Positive*%
%FSLAX46Y46*%
G04 Gerber Fmt 4.6, Leading zero omitted, Abs format (unit mm)*
G04 Created by KiCad (PCBNEW 10.0.3-10.0.3~ubuntu24.04.1) date 2026-06-19 11:09:31*
%MOMM*%
%LPD*%
G01*
G04 APERTURE LIST*
%ADD10C,0.100000*%
%ADD11C,0.150000*%
%ADD12C,0.120000*%
G04 APERTURE END LIST*
D10*
X197637217Y-76848609D02*
X197780074Y-76896228D01*
X197780074Y-76896228D02*
X197827693Y-76943847D01*
X197827693Y-76943847D02*
X197875312Y-77039085D01*
X197875312Y-77039085D02*
X197875312Y-77181942D01*
X197875312Y-77181942D02*
X197827693Y-77277180D01*
X197827693Y-77277180D02*
X197780074Y-77324800D01*
X197780074Y-77324800D02*
X197684836Y-77372419D01*
X197684836Y-77372419D02*
X197303884Y-77372419D01*
X197303884Y-77372419D02*
X197303884Y-76372419D01*
X197303884Y-76372419D02*
X197637217Y-76372419D01*
X197637217Y-76372419D02*
X197732455Y-76420038D01*
X197732455Y-76420038D02*
X197780074Y-76467657D01*
X197780074Y-76467657D02*
X197827693Y-76562895D01*
X197827693Y-76562895D02*
X197827693Y-76658133D01*
X197827693Y-76658133D02*
X197780074Y-76753371D01*
X197780074Y-76753371D02*
X197732455Y-76800990D01*
X197732455Y-76800990D02*
X197637217Y-76848609D01*
X197637217Y-76848609D02*
X197303884Y-76848609D01*
X198256265Y-77086704D02*
X198732455Y-77086704D01*
X198161027Y-77372419D02*
X198494360Y-76372419D01*
X198494360Y-76372419D02*
X198827693Y-77372419D01*
X199018170Y-76372419D02*
X199589598Y-76372419D01*
X199303884Y-77372419D02*
X199303884Y-76372419D01*
X199922932Y-76991466D02*
X200684837Y-76991466D01*
X200303884Y-77372419D02*
X200303884Y-76610514D01*
X197637217Y-68348609D02*
X197780074Y-68396228D01*
X197780074Y-68396228D02*
X197827693Y-68443847D01*
X197827693Y-68443847D02*
X197875312Y-68539085D01*
X197875312Y-68539085D02*
X197875312Y-68681942D01*
X197875312Y-68681942D02*
X197827693Y-68777180D01*
X197827693Y-68777180D02*
X197780074Y-68824800D01*
X197780074Y-68824800D02*
X197684836Y-68872419D01*
X197684836Y-68872419D02*
X197303884Y-68872419D01*
X197303884Y-68872419D02*
X197303884Y-67872419D01*
X197303884Y-67872419D02*
X197637217Y-67872419D01*
X197637217Y-67872419D02*
X197732455Y-67920038D01*
X197732455Y-67920038D02*
X197780074Y-67967657D01*
X197780074Y-67967657D02*
X197827693Y-68062895D01*
X197827693Y-68062895D02*
X197827693Y-68158133D01*
X197827693Y-68158133D02*
X197780074Y-68253371D01*
X197780074Y-68253371D02*
X197732455Y-68300990D01*
X197732455Y-68300990D02*
X197637217Y-68348609D01*
X197637217Y-68348609D02*
X197303884Y-68348609D01*
X198256265Y-68586704D02*
X198732455Y-68586704D01*
X198161027Y-68872419D02*
X198494360Y-67872419D01*
X198494360Y-67872419D02*
X198827693Y-68872419D01*
X199018170Y-67872419D02*
X199589598Y-67872419D01*
X199303884Y-68872419D02*
X199303884Y-67872419D01*
X199922932Y-68491466D02*
X200684837Y-68491466D01*
X120700000Y-42500000D02*
X141000000Y-42500000D01*
X141000000Y-70000000D01*
X120700000Y-70000000D01*
X120700000Y-42500000D01*
X121000000Y-71000000D02*
X166000000Y-71000000D01*
X166000000Y-91000000D01*
X121000000Y-91000000D01*
X121000000Y-71000000D01*
X143445000Y-42700000D02*
X168445000Y-42700000D01*
X168445000Y-64700000D01*
X143445000Y-64700000D01*
X143445000Y-42700000D01*
X168000000Y-70680000D02*
X193400000Y-70680000D01*
X193400000Y-91000000D01*
X168000000Y-91000000D01*
X168000000Y-70680000D01*
X176840000Y-42400000D02*
X193840000Y-42400000D01*
X193840000Y-68900000D01*
X176840000Y-68900000D01*
X176840000Y-42400000D01*
X123327693Y-46920038D02*
X123232455Y-46872419D01*
X123232455Y-46872419D02*
X123089598Y-46872419D01*
X123089598Y-46872419D02*
X122946741Y-46920038D01*
X122946741Y-46920038D02*
X122851503Y-47015276D01*
X122851503Y-47015276D02*
X122803884Y-47110514D01*
X122803884Y-47110514D02*
X122756265Y-47300990D01*
X122756265Y-47300990D02*
X122756265Y-47443847D01*
X122756265Y-47443847D02*
X122803884Y-47634323D01*
X122803884Y-47634323D02*
X122851503Y-47729561D01*
X122851503Y-47729561D02*
X122946741Y-47824800D01*
X122946741Y-47824800D02*
X123089598Y-47872419D01*
X123089598Y-47872419D02*
X123184836Y-47872419D01*
X123184836Y-47872419D02*
X123327693Y-47824800D01*
X123327693Y-47824800D02*
X123375312Y-47777180D01*
X123375312Y-47777180D02*
X123375312Y-47443847D01*
X123375312Y-47443847D02*
X123184836Y-47443847D01*
X123803884Y-47872419D02*
X123803884Y-46872419D01*
X123803884Y-46872419D02*
X124375312Y-47872419D01*
X124375312Y-47872419D02*
X124375312Y-46872419D01*
X124851503Y-47872419D02*
X124851503Y-46872419D01*
X124851503Y-46872419D02*
X125089598Y-46872419D01*
X125089598Y-46872419D02*
X125232455Y-46920038D01*
X125232455Y-46920038D02*
X125327693Y-47015276D01*
X125327693Y-47015276D02*
X125375312Y-47110514D01*
X125375312Y-47110514D02*
X125422931Y-47300990D01*
X125422931Y-47300990D02*
X125422931Y-47443847D01*
X125422931Y-47443847D02*
X125375312Y-47634323D01*
X125375312Y-47634323D02*
X125327693Y-47729561D01*
X125327693Y-47729561D02*
X125232455Y-47824800D01*
X125232455Y-47824800D02*
X125089598Y-47872419D01*
X125089598Y-47872419D02*
X124851503Y-47872419D01*
X123327693Y-62920038D02*
X123232455Y-62872419D01*
X123232455Y-62872419D02*
X123089598Y-62872419D01*
X123089598Y-62872419D02*
X122946741Y-62920038D01*
X122946741Y-62920038D02*
X122851503Y-63015276D01*
X122851503Y-63015276D02*
X122803884Y-63110514D01*
X122803884Y-63110514D02*
X122756265Y-63300990D01*
X122756265Y-63300990D02*
X122756265Y-63443847D01*
X122756265Y-63443847D02*
X122803884Y-63634323D01*
X122803884Y-63634323D02*
X122851503Y-63729561D01*
X122851503Y-63729561D02*
X122946741Y-63824800D01*
X122946741Y-63824800D02*
X123089598Y-63872419D01*
X123089598Y-63872419D02*
X123184836Y-63872419D01*
X123184836Y-63872419D02*
X123327693Y-63824800D01*
X123327693Y-63824800D02*
X123375312Y-63777180D01*
X123375312Y-63777180D02*
X123375312Y-63443847D01*
X123375312Y-63443847D02*
X123184836Y-63443847D01*
X123803884Y-63872419D02*
X123803884Y-62872419D01*
X123803884Y-62872419D02*
X124375312Y-63872419D01*
X124375312Y-63872419D02*
X124375312Y-62872419D01*
X124851503Y-63872419D02*
X124851503Y-62872419D01*
X124851503Y-62872419D02*
X125089598Y-62872419D01*
X125089598Y-62872419D02*
X125232455Y-62920038D01*
X125232455Y-62920038D02*
X125327693Y-63015276D01*
X125327693Y-63015276D02*
X125375312Y-63110514D01*
X125375312Y-63110514D02*
X125422931Y-63300990D01*
X125422931Y-63300990D02*
X125422931Y-63443847D01*
X125422931Y-63443847D02*
X125375312Y-63634323D01*
X125375312Y-63634323D02*
X125327693Y-63729561D01*
X125327693Y-63729561D02*
X125232455Y-63824800D01*
X125232455Y-63824800D02*
X125089598Y-63872419D01*
X125089598Y-63872419D02*
X124851503Y-63872419D01*
X135708646Y-46872419D02*
X136327693Y-46872419D01*
X136327693Y-46872419D02*
X135994360Y-47253371D01*
X135994360Y-47253371D02*
X136137217Y-47253371D01*
X136137217Y-47253371D02*
X136232455Y-47300990D01*
X136232455Y-47300990D02*
X136280074Y-47348609D01*
X136280074Y-47348609D02*
X136327693Y-47443847D01*
X136327693Y-47443847D02*
X136327693Y-47681942D01*
X136327693Y-47681942D02*
X136280074Y-47777180D01*
X136280074Y-47777180D02*
X136232455Y-47824800D01*
X136232455Y-47824800D02*
X136137217Y-47872419D01*
X136137217Y-47872419D02*
X135851503Y-47872419D01*
X135851503Y-47872419D02*
X135756265Y-47824800D01*
X135756265Y-47824800D02*
X135708646Y-47777180D01*
X136756265Y-47777180D02*
X136803884Y-47824800D01*
X136803884Y-47824800D02*
X136756265Y-47872419D01*
X136756265Y-47872419D02*
X136708646Y-47824800D01*
X136708646Y-47824800D02*
X136756265Y-47777180D01*
X136756265Y-47777180D02*
X136756265Y-47872419D01*
X137137217Y-46872419D02*
X137756264Y-46872419D01*
X137756264Y-46872419D02*
X137422931Y-47253371D01*
X137422931Y-47253371D02*
X137565788Y-47253371D01*
X137565788Y-47253371D02*
X137661026Y-47300990D01*
X137661026Y-47300990D02*
X137708645Y-47348609D01*
X137708645Y-47348609D02*
X137756264Y-47443847D01*
X137756264Y-47443847D02*
X137756264Y-47681942D01*
X137756264Y-47681942D02*
X137708645Y-47777180D01*
X137708645Y-47777180D02*
X137661026Y-47824800D01*
X137661026Y-47824800D02*
X137565788Y-47872419D01*
X137565788Y-47872419D02*
X137280074Y-47872419D01*
X137280074Y-47872419D02*
X137184836Y-47824800D01*
X137184836Y-47824800D02*
X137137217Y-47777180D01*
X138041979Y-46872419D02*
X138375312Y-47872419D01*
X138375312Y-47872419D02*
X138708645Y-46872419D01*
X136161027Y-62872419D02*
X136494360Y-63872419D01*
X136494360Y-63872419D02*
X136827693Y-62872419D01*
X137161027Y-63872419D02*
X137161027Y-62872419D01*
X137637217Y-63872419D02*
X137637217Y-62872419D01*
X137637217Y-62872419D02*
X138208645Y-63872419D01*
X138208645Y-63872419D02*
X138208645Y-62872419D01*
X183041027Y-43272419D02*
X183612455Y-43272419D01*
X183326741Y-44272419D02*
X183326741Y-43272419D01*
X183945789Y-44272419D02*
X183945789Y-43272419D01*
X183945789Y-43272419D02*
X184326741Y-43272419D01*
X184326741Y-43272419D02*
X184421979Y-43320038D01*
X184421979Y-43320038D02*
X184469598Y-43367657D01*
X184469598Y-43367657D02*
X184517217Y-43462895D01*
X184517217Y-43462895D02*
X184517217Y-43605752D01*
X184517217Y-43605752D02*
X184469598Y-43700990D01*
X184469598Y-43700990D02*
X184421979Y-43748609D01*
X184421979Y-43748609D02*
X184326741Y-43796228D01*
X184326741Y-43796228D02*
X183945789Y-43796228D01*
X185374360Y-43605752D02*
X185374360Y-44272419D01*
X185136265Y-43224800D02*
X184898170Y-43939085D01*
X184898170Y-43939085D02*
X185517217Y-43939085D01*
X186088646Y-43272419D02*
X186183884Y-43272419D01*
X186183884Y-43272419D02*
X186279122Y-43320038D01*
X186279122Y-43320038D02*
X186326741Y-43367657D01*
X186326741Y-43367657D02*
X186374360Y-43462895D01*
X186374360Y-43462895D02*
X186421979Y-43653371D01*
X186421979Y-43653371D02*
X186421979Y-43891466D01*
X186421979Y-43891466D02*
X186374360Y-44081942D01*
X186374360Y-44081942D02*
X186326741Y-44177180D01*
X186326741Y-44177180D02*
X186279122Y-44224800D01*
X186279122Y-44224800D02*
X186183884Y-44272419D01*
X186183884Y-44272419D02*
X186088646Y-44272419D01*
X186088646Y-44272419D02*
X185993408Y-44224800D01*
X185993408Y-44224800D02*
X185945789Y-44177180D01*
X185945789Y-44177180D02*
X185898170Y-44081942D01*
X185898170Y-44081942D02*
X185850551Y-43891466D01*
X185850551Y-43891466D02*
X185850551Y-43653371D01*
X185850551Y-43653371D02*
X185898170Y-43462895D01*
X185898170Y-43462895D02*
X185945789Y-43367657D01*
X185945789Y-43367657D02*
X185993408Y-43320038D01*
X185993408Y-43320038D02*
X186088646Y-43272419D01*
X187326741Y-43272419D02*
X186850551Y-43272419D01*
X186850551Y-43272419D02*
X186802932Y-43748609D01*
X186802932Y-43748609D02*
X186850551Y-43700990D01*
X186850551Y-43700990D02*
X186945789Y-43653371D01*
X186945789Y-43653371D02*
X187183884Y-43653371D01*
X187183884Y-43653371D02*
X187279122Y-43700990D01*
X187279122Y-43700990D02*
X187326741Y-43748609D01*
X187326741Y-43748609D02*
X187374360Y-43843847D01*
X187374360Y-43843847D02*
X187374360Y-44081942D01*
X187374360Y-44081942D02*
X187326741Y-44177180D01*
X187326741Y-44177180D02*
X187279122Y-44224800D01*
X187279122Y-44224800D02*
X187183884Y-44272419D01*
X187183884Y-44272419D02*
X186945789Y-44272419D01*
X186945789Y-44272419D02*
X186850551Y-44224800D01*
X186850551Y-44224800D02*
X186802932Y-44177180D01*
X188231503Y-43272419D02*
X188041027Y-43272419D01*
X188041027Y-43272419D02*
X187945789Y-43320038D01*
X187945789Y-43320038D02*
X187898170Y-43367657D01*
X187898170Y-43367657D02*
X187802932Y-43510514D01*
X187802932Y-43510514D02*
X187755313Y-43700990D01*
X187755313Y-43700990D02*
X187755313Y-44081942D01*
X187755313Y-44081942D02*
X187802932Y-44177180D01*
X187802932Y-44177180D02*
X187850551Y-44224800D01*
X187850551Y-44224800D02*
X187945789Y-44272419D01*
X187945789Y-44272419D02*
X188136265Y-44272419D01*
X188136265Y-44272419D02*
X188231503Y-44224800D01*
X188231503Y-44224800D02*
X188279122Y-44177180D01*
X188279122Y-44177180D02*
X188326741Y-44081942D01*
X188326741Y-44081942D02*
X188326741Y-43843847D01*
X188326741Y-43843847D02*
X188279122Y-43748609D01*
X188279122Y-43748609D02*
X188231503Y-43700990D01*
X188231503Y-43700990D02*
X188136265Y-43653371D01*
X188136265Y-43653371D02*
X187945789Y-43653371D01*
X187945789Y-43653371D02*
X187850551Y-43700990D01*
X187850551Y-43700990D02*
X187802932Y-43748609D01*
X187802932Y-43748609D02*
X187755313Y-43843847D01*
X127207143Y-54372419D02*
X127778571Y-54372419D01*
X127492857Y-55372419D02*
X127492857Y-54372419D01*
X128111905Y-55372419D02*
X128111905Y-54372419D01*
X128111905Y-54372419D02*
X128492857Y-54372419D01*
X128492857Y-54372419D02*
X128588095Y-54420038D01*
X128588095Y-54420038D02*
X128635714Y-54467657D01*
X128635714Y-54467657D02*
X128683333Y-54562895D01*
X128683333Y-54562895D02*
X128683333Y-54705752D01*
X128683333Y-54705752D02*
X128635714Y-54800990D01*
X128635714Y-54800990D02*
X128588095Y-54848609D01*
X128588095Y-54848609D02*
X128492857Y-54896228D01*
X128492857Y-54896228D02*
X128111905Y-54896228D01*
X129064286Y-55324800D02*
X129207143Y-55372419D01*
X129207143Y-55372419D02*
X129445238Y-55372419D01*
X129445238Y-55372419D02*
X129540476Y-55324800D01*
X129540476Y-55324800D02*
X129588095Y-55277180D01*
X129588095Y-55277180D02*
X129635714Y-55181942D01*
X129635714Y-55181942D02*
X129635714Y-55086704D01*
X129635714Y-55086704D02*
X129588095Y-54991466D01*
X129588095Y-54991466D02*
X129540476Y-54943847D01*
X129540476Y-54943847D02*
X129445238Y-54896228D01*
X129445238Y-54896228D02*
X129254762Y-54848609D01*
X129254762Y-54848609D02*
X129159524Y-54800990D01*
X129159524Y-54800990D02*
X129111905Y-54753371D01*
X129111905Y-54753371D02*
X129064286Y-54658133D01*
X129064286Y-54658133D02*
X129064286Y-54562895D01*
X129064286Y-54562895D02*
X129111905Y-54467657D01*
X129111905Y-54467657D02*
X129159524Y-54420038D01*
X129159524Y-54420038D02*
X129254762Y-54372419D01*
X129254762Y-54372419D02*
X129492857Y-54372419D01*
X129492857Y-54372419D02*
X129635714Y-54420038D01*
X130492857Y-54372419D02*
X130302381Y-54372419D01*
X130302381Y-54372419D02*
X130207143Y-54420038D01*
X130207143Y-54420038D02*
X130159524Y-54467657D01*
X130159524Y-54467657D02*
X130064286Y-54610514D01*
X130064286Y-54610514D02*
X130016667Y-54800990D01*
X130016667Y-54800990D02*
X130016667Y-55181942D01*
X130016667Y-55181942D02*
X130064286Y-55277180D01*
X130064286Y-55277180D02*
X130111905Y-55324800D01*
X130111905Y-55324800D02*
X130207143Y-55372419D01*
X130207143Y-55372419D02*
X130397619Y-55372419D01*
X130397619Y-55372419D02*
X130492857Y-55324800D01*
X130492857Y-55324800D02*
X130540476Y-55277180D01*
X130540476Y-55277180D02*
X130588095Y-55181942D01*
X130588095Y-55181942D02*
X130588095Y-54943847D01*
X130588095Y-54943847D02*
X130540476Y-54848609D01*
X130540476Y-54848609D02*
X130492857Y-54800990D01*
X130492857Y-54800990D02*
X130397619Y-54753371D01*
X130397619Y-54753371D02*
X130207143Y-54753371D01*
X130207143Y-54753371D02*
X130111905Y-54800990D01*
X130111905Y-54800990D02*
X130064286Y-54848609D01*
X130064286Y-54848609D02*
X130016667Y-54943847D01*
X130921429Y-54372419D02*
X131540476Y-54372419D01*
X131540476Y-54372419D02*
X131207143Y-54753371D01*
X131207143Y-54753371D02*
X131350000Y-54753371D01*
X131350000Y-54753371D02*
X131445238Y-54800990D01*
X131445238Y-54800990D02*
X131492857Y-54848609D01*
X131492857Y-54848609D02*
X131540476Y-54943847D01*
X131540476Y-54943847D02*
X131540476Y-55181942D01*
X131540476Y-55181942D02*
X131492857Y-55277180D01*
X131492857Y-55277180D02*
X131445238Y-55324800D01*
X131445238Y-55324800D02*
X131350000Y-55372419D01*
X131350000Y-55372419D02*
X131064286Y-55372419D01*
X131064286Y-55372419D02*
X130969048Y-55324800D01*
X130969048Y-55324800D02*
X130921429Y-55277180D01*
X132159524Y-54372419D02*
X132254762Y-54372419D01*
X132254762Y-54372419D02*
X132350000Y-54420038D01*
X132350000Y-54420038D02*
X132397619Y-54467657D01*
X132397619Y-54467657D02*
X132445238Y-54562895D01*
X132445238Y-54562895D02*
X132492857Y-54753371D01*
X132492857Y-54753371D02*
X132492857Y-54991466D01*
X132492857Y-54991466D02*
X132445238Y-55181942D01*
X132445238Y-55181942D02*
X132397619Y-55277180D01*
X132397619Y-55277180D02*
X132350000Y-55324800D01*
X132350000Y-55324800D02*
X132254762Y-55372419D01*
X132254762Y-55372419D02*
X132159524Y-55372419D01*
X132159524Y-55372419D02*
X132064286Y-55324800D01*
X132064286Y-55324800D02*
X132016667Y-55277180D01*
X132016667Y-55277180D02*
X131969048Y-55181942D01*
X131969048Y-55181942D02*
X131921429Y-54991466D01*
X131921429Y-54991466D02*
X131921429Y-54753371D01*
X131921429Y-54753371D02*
X131969048Y-54562895D01*
X131969048Y-54562895D02*
X132016667Y-54467657D01*
X132016667Y-54467657D02*
X132064286Y-54420038D01*
X132064286Y-54420038D02*
X132159524Y-54372419D01*
X132873810Y-54467657D02*
X132921429Y-54420038D01*
X132921429Y-54420038D02*
X133016667Y-54372419D01*
X133016667Y-54372419D02*
X133254762Y-54372419D01*
X133254762Y-54372419D02*
X133350000Y-54420038D01*
X133350000Y-54420038D02*
X133397619Y-54467657D01*
X133397619Y-54467657D02*
X133445238Y-54562895D01*
X133445238Y-54562895D02*
X133445238Y-54658133D01*
X133445238Y-54658133D02*
X133397619Y-54800990D01*
X133397619Y-54800990D02*
X132826191Y-55372419D01*
X132826191Y-55372419D02*
X133445238Y-55372419D01*
X134064286Y-54372419D02*
X134159524Y-54372419D01*
X134159524Y-54372419D02*
X134254762Y-54420038D01*
X134254762Y-54420038D02*
X134302381Y-54467657D01*
X134302381Y-54467657D02*
X134350000Y-54562895D01*
X134350000Y-54562895D02*
X134397619Y-54753371D01*
X134397619Y-54753371D02*
X134397619Y-54991466D01*
X134397619Y-54991466D02*
X134350000Y-55181942D01*
X134350000Y-55181942D02*
X134302381Y-55277180D01*
X134302381Y-55277180D02*
X134254762Y-55324800D01*
X134254762Y-55324800D02*
X134159524Y-55372419D01*
X134159524Y-55372419D02*
X134064286Y-55372419D01*
X134064286Y-55372419D02*
X133969048Y-55324800D01*
X133969048Y-55324800D02*
X133921429Y-55277180D01*
X133921429Y-55277180D02*
X133873810Y-55181942D01*
X133873810Y-55181942D02*
X133826191Y-54991466D01*
X133826191Y-54991466D02*
X133826191Y-54753371D01*
X133826191Y-54753371D02*
X133873810Y-54562895D01*
X133873810Y-54562895D02*
X133921429Y-54467657D01*
X133921429Y-54467657D02*
X133969048Y-54420038D01*
X133969048Y-54420038D02*
X134064286Y-54372419D01*
X141380952Y-80777180D02*
X141333333Y-80824800D01*
X141333333Y-80824800D02*
X141190476Y-80872419D01*
X141190476Y-80872419D02*
X141095238Y-80872419D01*
X141095238Y-80872419D02*
X140952381Y-80824800D01*
X140952381Y-80824800D02*
X140857143Y-80729561D01*
X140857143Y-80729561D02*
X140809524Y-80634323D01*
X140809524Y-80634323D02*
X140761905Y-80443847D01*
X140761905Y-80443847D02*
X140761905Y-80300990D01*
X140761905Y-80300990D02*
X140809524Y-80110514D01*
X140809524Y-80110514D02*
X140857143Y-80015276D01*
X140857143Y-80015276D02*
X140952381Y-79920038D01*
X140952381Y-79920038D02*
X141095238Y-79872419D01*
X141095238Y-79872419D02*
X141190476Y-79872419D01*
X141190476Y-79872419D02*
X141333333Y-79920038D01*
X141333333Y-79920038D02*
X141380952Y-79967657D01*
X141809524Y-80872419D02*
X141809524Y-79872419D01*
X141809524Y-79872419D02*
X142380952Y-80872419D01*
X142380952Y-80872419D02*
X142380952Y-79872419D01*
X142761905Y-79872419D02*
X143380952Y-79872419D01*
X143380952Y-79872419D02*
X143047619Y-80253371D01*
X143047619Y-80253371D02*
X143190476Y-80253371D01*
X143190476Y-80253371D02*
X143285714Y-80300990D01*
X143285714Y-80300990D02*
X143333333Y-80348609D01*
X143333333Y-80348609D02*
X143380952Y-80443847D01*
X143380952Y-80443847D02*
X143380952Y-80681942D01*
X143380952Y-80681942D02*
X143333333Y-80777180D01*
X143333333Y-80777180D02*
X143285714Y-80824800D01*
X143285714Y-80824800D02*
X143190476Y-80872419D01*
X143190476Y-80872419D02*
X142904762Y-80872419D01*
X142904762Y-80872419D02*
X142809524Y-80824800D01*
X142809524Y-80824800D02*
X142761905Y-80777180D01*
X143714286Y-79872419D02*
X144380952Y-79872419D01*
X144380952Y-79872419D02*
X143952381Y-80872419D01*
X144809524Y-80872419D02*
X145000000Y-80872419D01*
X145000000Y-80872419D02*
X145095238Y-80824800D01*
X145095238Y-80824800D02*
X145142857Y-80777180D01*
X145142857Y-80777180D02*
X145238095Y-80634323D01*
X145238095Y-80634323D02*
X145285714Y-80443847D01*
X145285714Y-80443847D02*
X145285714Y-80062895D01*
X145285714Y-80062895D02*
X145238095Y-79967657D01*
X145238095Y-79967657D02*
X145190476Y-79920038D01*
X145190476Y-79920038D02*
X145095238Y-79872419D01*
X145095238Y-79872419D02*
X144904762Y-79872419D01*
X144904762Y-79872419D02*
X144809524Y-79920038D01*
X144809524Y-79920038D02*
X144761905Y-79967657D01*
X144761905Y-79967657D02*
X144714286Y-80062895D01*
X144714286Y-80062895D02*
X144714286Y-80300990D01*
X144714286Y-80300990D02*
X144761905Y-80396228D01*
X144761905Y-80396228D02*
X144809524Y-80443847D01*
X144809524Y-80443847D02*
X144904762Y-80491466D01*
X144904762Y-80491466D02*
X145095238Y-80491466D01*
X145095238Y-80491466D02*
X145190476Y-80443847D01*
X145190476Y-80443847D02*
X145238095Y-80396228D01*
X145238095Y-80396228D02*
X145285714Y-80300990D01*
X146238095Y-80872419D02*
X145666667Y-80872419D01*
X145952381Y-80872419D02*
X145952381Y-79872419D01*
X145952381Y-79872419D02*
X145857143Y-80015276D01*
X145857143Y-80015276D02*
X145761905Y-80110514D01*
X145761905Y-80110514D02*
X145666667Y-80158133D01*
X154064048Y-44572419D02*
X154064048Y-43572419D01*
X154540238Y-44572419D02*
X154540238Y-43572419D01*
X154540238Y-43572419D02*
X155111666Y-44572419D01*
X155111666Y-44572419D02*
X155111666Y-43572419D01*
X155540238Y-44286704D02*
X156016428Y-44286704D01*
X155445000Y-44572419D02*
X155778333Y-43572419D01*
X155778333Y-43572419D02*
X156111666Y-44572419D01*
X156397381Y-43667657D02*
X156445000Y-43620038D01*
X156445000Y-43620038D02*
X156540238Y-43572419D01*
X156540238Y-43572419D02*
X156778333Y-43572419D01*
X156778333Y-43572419D02*
X156873571Y-43620038D01*
X156873571Y-43620038D02*
X156921190Y-43667657D01*
X156921190Y-43667657D02*
X156968809Y-43762895D01*
X156968809Y-43762895D02*
X156968809Y-43858133D01*
X156968809Y-43858133D02*
X156921190Y-44000990D01*
X156921190Y-44000990D02*
X156349762Y-44572419D01*
X156349762Y-44572419D02*
X156968809Y-44572419D01*
X157921190Y-44572419D02*
X157349762Y-44572419D01*
X157635476Y-44572419D02*
X157635476Y-43572419D01*
X157635476Y-43572419D02*
X157540238Y-43715276D01*
X157540238Y-43715276D02*
X157445000Y-43810514D01*
X157445000Y-43810514D02*
X157349762Y-43858133D01*
X158397381Y-44572419D02*
X158587857Y-44572419D01*
X158587857Y-44572419D02*
X158683095Y-44524800D01*
X158683095Y-44524800D02*
X158730714Y-44477180D01*
X158730714Y-44477180D02*
X158825952Y-44334323D01*
X158825952Y-44334323D02*
X158873571Y-44143847D01*
X158873571Y-44143847D02*
X158873571Y-43762895D01*
X158873571Y-43762895D02*
X158825952Y-43667657D01*
X158825952Y-43667657D02*
X158778333Y-43620038D01*
X158778333Y-43620038D02*
X158683095Y-43572419D01*
X158683095Y-43572419D02*
X158492619Y-43572419D01*
X158492619Y-43572419D02*
X158397381Y-43620038D01*
X158397381Y-43620038D02*
X158349762Y-43667657D01*
X158349762Y-43667657D02*
X158302143Y-43762895D01*
X158302143Y-43762895D02*
X158302143Y-44000990D01*
X158302143Y-44000990D02*
X158349762Y-44096228D01*
X158349762Y-44096228D02*
X158397381Y-44143847D01*
X158397381Y-44143847D02*
X158492619Y-44191466D01*
X158492619Y-44191466D02*
X158683095Y-44191466D01*
X158683095Y-44191466D02*
X158778333Y-44143847D01*
X158778333Y-44143847D02*
X158825952Y-44096228D01*
X158825952Y-44096228D02*
X158873571Y-44000990D01*
X134372419Y-87338972D02*
X135372419Y-87005639D01*
X135372419Y-87005639D02*
X134372419Y-86672306D01*
X134991466Y-86338972D02*
X134991466Y-85577068D01*
X135372419Y-85958020D02*
X134610514Y-85958020D01*
X135324800Y-84386591D02*
X135372419Y-84243734D01*
X135372419Y-84243734D02*
X135372419Y-84005639D01*
X135372419Y-84005639D02*
X135324800Y-83910401D01*
X135324800Y-83910401D02*
X135277180Y-83862782D01*
X135277180Y-83862782D02*
X135181942Y-83815163D01*
X135181942Y-83815163D02*
X135086704Y-83815163D01*
X135086704Y-83815163D02*
X134991466Y-83862782D01*
X134991466Y-83862782D02*
X134943847Y-83910401D01*
X134943847Y-83910401D02*
X134896228Y-84005639D01*
X134896228Y-84005639D02*
X134848609Y-84196115D01*
X134848609Y-84196115D02*
X134800990Y-84291353D01*
X134800990Y-84291353D02*
X134753371Y-84338972D01*
X134753371Y-84338972D02*
X134658133Y-84386591D01*
X134658133Y-84386591D02*
X134562895Y-84386591D01*
X134562895Y-84386591D02*
X134467657Y-84338972D01*
X134467657Y-84338972D02*
X134420038Y-84291353D01*
X134420038Y-84291353D02*
X134372419Y-84196115D01*
X134372419Y-84196115D02*
X134372419Y-83958020D01*
X134372419Y-83958020D02*
X134420038Y-83815163D01*
X135372419Y-83243734D02*
X135324800Y-83338972D01*
X135324800Y-83338972D02*
X135277180Y-83386591D01*
X135277180Y-83386591D02*
X135181942Y-83434210D01*
X135181942Y-83434210D02*
X134896228Y-83434210D01*
X134896228Y-83434210D02*
X134800990Y-83386591D01*
X134800990Y-83386591D02*
X134753371Y-83338972D01*
X134753371Y-83338972D02*
X134705752Y-83243734D01*
X134705752Y-83243734D02*
X134705752Y-83100877D01*
X134705752Y-83100877D02*
X134753371Y-83005639D01*
X134753371Y-83005639D02*
X134800990Y-82958020D01*
X134800990Y-82958020D02*
X134896228Y-82910401D01*
X134896228Y-82910401D02*
X135181942Y-82910401D01*
X135181942Y-82910401D02*
X135277180Y-82958020D01*
X135277180Y-82958020D02*
X135324800Y-83005639D01*
X135324800Y-83005639D02*
X135372419Y-83100877D01*
X135372419Y-83100877D02*
X135372419Y-83243734D01*
X135372419Y-82338972D02*
X135324800Y-82434210D01*
X135324800Y-82434210D02*
X135229561Y-82481829D01*
X135229561Y-82481829D02*
X134372419Y-82481829D01*
X135372419Y-81529448D02*
X134848609Y-81529448D01*
X134848609Y-81529448D02*
X134753371Y-81577067D01*
X134753371Y-81577067D02*
X134705752Y-81672305D01*
X134705752Y-81672305D02*
X134705752Y-81862781D01*
X134705752Y-81862781D02*
X134753371Y-81958019D01*
X135324800Y-81529448D02*
X135372419Y-81624686D01*
X135372419Y-81624686D02*
X135372419Y-81862781D01*
X135372419Y-81862781D02*
X135324800Y-81958019D01*
X135324800Y-81958019D02*
X135229561Y-82005638D01*
X135229561Y-82005638D02*
X135134323Y-82005638D01*
X135134323Y-82005638D02*
X135039085Y-81958019D01*
X135039085Y-81958019D02*
X134991466Y-81862781D01*
X134991466Y-81862781D02*
X134991466Y-81624686D01*
X134991466Y-81624686D02*
X134943847Y-81529448D01*
X135372419Y-81053257D02*
X134705752Y-81053257D01*
X134896228Y-81053257D02*
X134800990Y-81005638D01*
X134800990Y-81005638D02*
X134753371Y-80958019D01*
X134753371Y-80958019D02*
X134705752Y-80862781D01*
X134705752Y-80862781D02*
X134705752Y-80767543D01*
X136920038Y-86672306D02*
X136872419Y-86767544D01*
X136872419Y-86767544D02*
X136872419Y-86910401D01*
X136872419Y-86910401D02*
X136920038Y-87053258D01*
X136920038Y-87053258D02*
X137015276Y-87148496D01*
X137015276Y-87148496D02*
X137110514Y-87196115D01*
X137110514Y-87196115D02*
X137300990Y-87243734D01*
X137300990Y-87243734D02*
X137443847Y-87243734D01*
X137443847Y-87243734D02*
X137634323Y-87196115D01*
X137634323Y-87196115D02*
X137729561Y-87148496D01*
X137729561Y-87148496D02*
X137824800Y-87053258D01*
X137824800Y-87053258D02*
X137872419Y-86910401D01*
X137872419Y-86910401D02*
X137872419Y-86815163D01*
X137872419Y-86815163D02*
X137824800Y-86672306D01*
X137824800Y-86672306D02*
X137777180Y-86624687D01*
X137777180Y-86624687D02*
X137443847Y-86624687D01*
X137443847Y-86624687D02*
X137443847Y-86815163D01*
X137872419Y-86196115D02*
X136872419Y-86196115D01*
X136872419Y-86196115D02*
X137872419Y-85624687D01*
X137872419Y-85624687D02*
X136872419Y-85624687D01*
X137872419Y-85148496D02*
X136872419Y-85148496D01*
X136872419Y-85148496D02*
X136872419Y-84910401D01*
X136872419Y-84910401D02*
X136920038Y-84767544D01*
X136920038Y-84767544D02*
X137015276Y-84672306D01*
X137015276Y-84672306D02*
X137110514Y-84624687D01*
X137110514Y-84624687D02*
X137300990Y-84577068D01*
X137300990Y-84577068D02*
X137443847Y-84577068D01*
X137443847Y-84577068D02*
X137634323Y-84624687D01*
X137634323Y-84624687D02*
X137729561Y-84672306D01*
X137729561Y-84672306D02*
X137824800Y-84767544D01*
X137824800Y-84767544D02*
X137872419Y-84910401D01*
X137872419Y-84910401D02*
X137872419Y-85148496D01*
X139420038Y-86672306D02*
X139372419Y-86767544D01*
X139372419Y-86767544D02*
X139372419Y-86910401D01*
X139372419Y-86910401D02*
X139420038Y-87053258D01*
X139420038Y-87053258D02*
X139515276Y-87148496D01*
X139515276Y-87148496D02*
X139610514Y-87196115D01*
X139610514Y-87196115D02*
X139800990Y-87243734D01*
X139800990Y-87243734D02*
X139943847Y-87243734D01*
X139943847Y-87243734D02*
X140134323Y-87196115D01*
X140134323Y-87196115D02*
X140229561Y-87148496D01*
X140229561Y-87148496D02*
X140324800Y-87053258D01*
X140324800Y-87053258D02*
X140372419Y-86910401D01*
X140372419Y-86910401D02*
X140372419Y-86815163D01*
X140372419Y-86815163D02*
X140324800Y-86672306D01*
X140324800Y-86672306D02*
X140277180Y-86624687D01*
X140277180Y-86624687D02*
X139943847Y-86624687D01*
X139943847Y-86624687D02*
X139943847Y-86815163D01*
X140372419Y-86196115D02*
X139372419Y-86196115D01*
X139372419Y-86196115D02*
X140372419Y-85624687D01*
X140372419Y-85624687D02*
X139372419Y-85624687D01*
X140372419Y-85148496D02*
X139372419Y-85148496D01*
X139372419Y-85148496D02*
X139372419Y-84910401D01*
X139372419Y-84910401D02*
X139420038Y-84767544D01*
X139420038Y-84767544D02*
X139515276Y-84672306D01*
X139515276Y-84672306D02*
X139610514Y-84624687D01*
X139610514Y-84624687D02*
X139800990Y-84577068D01*
X139800990Y-84577068D02*
X139943847Y-84577068D01*
X139943847Y-84577068D02*
X140134323Y-84624687D01*
X140134323Y-84624687D02*
X140229561Y-84672306D01*
X140229561Y-84672306D02*
X140324800Y-84767544D01*
X140324800Y-84767544D02*
X140372419Y-84910401D01*
X140372419Y-84910401D02*
X140372419Y-85148496D01*
X142848609Y-86862782D02*
X142896228Y-86719925D01*
X142896228Y-86719925D02*
X142943847Y-86672306D01*
X142943847Y-86672306D02*
X143039085Y-86624687D01*
X143039085Y-86624687D02*
X143181942Y-86624687D01*
X143181942Y-86624687D02*
X143277180Y-86672306D01*
X143277180Y-86672306D02*
X143324800Y-86719925D01*
X143324800Y-86719925D02*
X143372419Y-86815163D01*
X143372419Y-86815163D02*
X143372419Y-87196115D01*
X143372419Y-87196115D02*
X142372419Y-87196115D01*
X142372419Y-87196115D02*
X142372419Y-86862782D01*
X142372419Y-86862782D02*
X142420038Y-86767544D01*
X142420038Y-86767544D02*
X142467657Y-86719925D01*
X142467657Y-86719925D02*
X142562895Y-86672306D01*
X142562895Y-86672306D02*
X142658133Y-86672306D01*
X142658133Y-86672306D02*
X142753371Y-86719925D01*
X142753371Y-86719925D02*
X142800990Y-86767544D01*
X142800990Y-86767544D02*
X142848609Y-86862782D01*
X142848609Y-86862782D02*
X142848609Y-87196115D01*
X143086704Y-86243734D02*
X143086704Y-85767544D01*
X143372419Y-86338972D02*
X142372419Y-86005639D01*
X142372419Y-86005639D02*
X143372419Y-85672306D01*
X142372419Y-85481829D02*
X142372419Y-84910401D01*
X143372419Y-85196115D02*
X142372419Y-85196115D01*
X149317419Y-59491353D02*
X149317419Y-58872306D01*
X149317419Y-58872306D02*
X149698371Y-59205639D01*
X149698371Y-59205639D02*
X149698371Y-59062782D01*
X149698371Y-59062782D02*
X149745990Y-58967544D01*
X149745990Y-58967544D02*
X149793609Y-58919925D01*
X149793609Y-58919925D02*
X149888847Y-58872306D01*
X149888847Y-58872306D02*
X150126942Y-58872306D01*
X150126942Y-58872306D02*
X150222180Y-58919925D01*
X150222180Y-58919925D02*
X150269800Y-58967544D01*
X150269800Y-58967544D02*
X150317419Y-59062782D01*
X150317419Y-59062782D02*
X150317419Y-59348496D01*
X150317419Y-59348496D02*
X150269800Y-59443734D01*
X150269800Y-59443734D02*
X150222180Y-59491353D01*
X150222180Y-58443734D02*
X150269800Y-58396115D01*
X150269800Y-58396115D02*
X150317419Y-58443734D01*
X150317419Y-58443734D02*
X150269800Y-58491353D01*
X150269800Y-58491353D02*
X150222180Y-58443734D01*
X150222180Y-58443734D02*
X150317419Y-58443734D01*
X149317419Y-58062782D02*
X149317419Y-57443735D01*
X149317419Y-57443735D02*
X149698371Y-57777068D01*
X149698371Y-57777068D02*
X149698371Y-57634211D01*
X149698371Y-57634211D02*
X149745990Y-57538973D01*
X149745990Y-57538973D02*
X149793609Y-57491354D01*
X149793609Y-57491354D02*
X149888847Y-57443735D01*
X149888847Y-57443735D02*
X150126942Y-57443735D01*
X150126942Y-57443735D02*
X150222180Y-57491354D01*
X150222180Y-57491354D02*
X150269800Y-57538973D01*
X150269800Y-57538973D02*
X150317419Y-57634211D01*
X150317419Y-57634211D02*
X150317419Y-57919925D01*
X150317419Y-57919925D02*
X150269800Y-58015163D01*
X150269800Y-58015163D02*
X150222180Y-58062782D01*
X149317419Y-57158020D02*
X150317419Y-56824687D01*
X150317419Y-56824687D02*
X149317419Y-56491354D01*
X151865038Y-58872306D02*
X151817419Y-58967544D01*
X151817419Y-58967544D02*
X151817419Y-59110401D01*
X151817419Y-59110401D02*
X151865038Y-59253258D01*
X151865038Y-59253258D02*
X151960276Y-59348496D01*
X151960276Y-59348496D02*
X152055514Y-59396115D01*
X152055514Y-59396115D02*
X152245990Y-59443734D01*
X152245990Y-59443734D02*
X152388847Y-59443734D01*
X152388847Y-59443734D02*
X152579323Y-59396115D01*
X152579323Y-59396115D02*
X152674561Y-59348496D01*
X152674561Y-59348496D02*
X152769800Y-59253258D01*
X152769800Y-59253258D02*
X152817419Y-59110401D01*
X152817419Y-59110401D02*
X152817419Y-59015163D01*
X152817419Y-59015163D02*
X152769800Y-58872306D01*
X152769800Y-58872306D02*
X152722180Y-58824687D01*
X152722180Y-58824687D02*
X152388847Y-58824687D01*
X152388847Y-58824687D02*
X152388847Y-59015163D01*
X152817419Y-58396115D02*
X151817419Y-58396115D01*
X151817419Y-58396115D02*
X152817419Y-57824687D01*
X152817419Y-57824687D02*
X151817419Y-57824687D01*
X152817419Y-57348496D02*
X151817419Y-57348496D01*
X151817419Y-57348496D02*
X151817419Y-57110401D01*
X151817419Y-57110401D02*
X151865038Y-56967544D01*
X151865038Y-56967544D02*
X151960276Y-56872306D01*
X151960276Y-56872306D02*
X152055514Y-56824687D01*
X152055514Y-56824687D02*
X152245990Y-56777068D01*
X152245990Y-56777068D02*
X152388847Y-56777068D01*
X152388847Y-56777068D02*
X152579323Y-56824687D01*
X152579323Y-56824687D02*
X152674561Y-56872306D01*
X152674561Y-56872306D02*
X152769800Y-56967544D01*
X152769800Y-56967544D02*
X152817419Y-57110401D01*
X152817419Y-57110401D02*
X152817419Y-57348496D01*
X155269800Y-59443734D02*
X155317419Y-59300877D01*
X155317419Y-59300877D02*
X155317419Y-59062782D01*
X155317419Y-59062782D02*
X155269800Y-58967544D01*
X155269800Y-58967544D02*
X155222180Y-58919925D01*
X155222180Y-58919925D02*
X155126942Y-58872306D01*
X155126942Y-58872306D02*
X155031704Y-58872306D01*
X155031704Y-58872306D02*
X154936466Y-58919925D01*
X154936466Y-58919925D02*
X154888847Y-58967544D01*
X154888847Y-58967544D02*
X154841228Y-59062782D01*
X154841228Y-59062782D02*
X154793609Y-59253258D01*
X154793609Y-59253258D02*
X154745990Y-59348496D01*
X154745990Y-59348496D02*
X154698371Y-59396115D01*
X154698371Y-59396115D02*
X154603133Y-59443734D01*
X154603133Y-59443734D02*
X154507895Y-59443734D01*
X154507895Y-59443734D02*
X154412657Y-59396115D01*
X154412657Y-59396115D02*
X154365038Y-59348496D01*
X154365038Y-59348496D02*
X154317419Y-59253258D01*
X154317419Y-59253258D02*
X154317419Y-59015163D01*
X154317419Y-59015163D02*
X154365038Y-58872306D01*
X155222180Y-57872306D02*
X155269800Y-57919925D01*
X155269800Y-57919925D02*
X155317419Y-58062782D01*
X155317419Y-58062782D02*
X155317419Y-58158020D01*
X155317419Y-58158020D02*
X155269800Y-58300877D01*
X155269800Y-58300877D02*
X155174561Y-58396115D01*
X155174561Y-58396115D02*
X155079323Y-58443734D01*
X155079323Y-58443734D02*
X154888847Y-58491353D01*
X154888847Y-58491353D02*
X154745990Y-58491353D01*
X154745990Y-58491353D02*
X154555514Y-58443734D01*
X154555514Y-58443734D02*
X154460276Y-58396115D01*
X154460276Y-58396115D02*
X154365038Y-58300877D01*
X154365038Y-58300877D02*
X154317419Y-58158020D01*
X154317419Y-58158020D02*
X154317419Y-58062782D01*
X154317419Y-58062782D02*
X154365038Y-57919925D01*
X154365038Y-57919925D02*
X154412657Y-57872306D01*
X155317419Y-56967544D02*
X155317419Y-57443734D01*
X155317419Y-57443734D02*
X154317419Y-57443734D01*
X154936466Y-56634210D02*
X154936466Y-55872306D01*
X154365038Y-54872306D02*
X154317419Y-54967544D01*
X154317419Y-54967544D02*
X154317419Y-55110401D01*
X154317419Y-55110401D02*
X154365038Y-55253258D01*
X154365038Y-55253258D02*
X154460276Y-55348496D01*
X154460276Y-55348496D02*
X154555514Y-55396115D01*
X154555514Y-55396115D02*
X154745990Y-55443734D01*
X154745990Y-55443734D02*
X154888847Y-55443734D01*
X154888847Y-55443734D02*
X155079323Y-55396115D01*
X155079323Y-55396115D02*
X155174561Y-55348496D01*
X155174561Y-55348496D02*
X155269800Y-55253258D01*
X155269800Y-55253258D02*
X155317419Y-55110401D01*
X155317419Y-55110401D02*
X155317419Y-55015163D01*
X155317419Y-55015163D02*
X155269800Y-54872306D01*
X155269800Y-54872306D02*
X155222180Y-54824687D01*
X155222180Y-54824687D02*
X154888847Y-54824687D01*
X154888847Y-54824687D02*
X154888847Y-55015163D01*
X155317419Y-54396115D02*
X154317419Y-54396115D01*
X154317419Y-54396115D02*
X154317419Y-54015163D01*
X154317419Y-54015163D02*
X154365038Y-53919925D01*
X154365038Y-53919925D02*
X154412657Y-53872306D01*
X154412657Y-53872306D02*
X154507895Y-53824687D01*
X154507895Y-53824687D02*
X154650752Y-53824687D01*
X154650752Y-53824687D02*
X154745990Y-53872306D01*
X154745990Y-53872306D02*
X154793609Y-53919925D01*
X154793609Y-53919925D02*
X154841228Y-54015163D01*
X154841228Y-54015163D02*
X154841228Y-54396115D01*
X155317419Y-53396115D02*
X154317419Y-53396115D01*
X154317419Y-52729449D02*
X154317419Y-52538973D01*
X154317419Y-52538973D02*
X154365038Y-52443735D01*
X154365038Y-52443735D02*
X154460276Y-52348497D01*
X154460276Y-52348497D02*
X154650752Y-52300878D01*
X154650752Y-52300878D02*
X154984085Y-52300878D01*
X154984085Y-52300878D02*
X155174561Y-52348497D01*
X155174561Y-52348497D02*
X155269800Y-52443735D01*
X155269800Y-52443735D02*
X155317419Y-52538973D01*
X155317419Y-52538973D02*
X155317419Y-52729449D01*
X155317419Y-52729449D02*
X155269800Y-52824687D01*
X155269800Y-52824687D02*
X155174561Y-52919925D01*
X155174561Y-52919925D02*
X154984085Y-52967544D01*
X154984085Y-52967544D02*
X154650752Y-52967544D01*
X154650752Y-52967544D02*
X154460276Y-52919925D01*
X154460276Y-52919925D02*
X154365038Y-52824687D01*
X154365038Y-52824687D02*
X154317419Y-52729449D01*
X154412657Y-51919925D02*
X154365038Y-51872306D01*
X154365038Y-51872306D02*
X154317419Y-51777068D01*
X154317419Y-51777068D02*
X154317419Y-51538973D01*
X154317419Y-51538973D02*
X154365038Y-51443735D01*
X154365038Y-51443735D02*
X154412657Y-51396116D01*
X154412657Y-51396116D02*
X154507895Y-51348497D01*
X154507895Y-51348497D02*
X154603133Y-51348497D01*
X154603133Y-51348497D02*
X154745990Y-51396116D01*
X154745990Y-51396116D02*
X155317419Y-51967544D01*
X155317419Y-51967544D02*
X155317419Y-51348497D01*
X154412657Y-50967544D02*
X154365038Y-50919925D01*
X154365038Y-50919925D02*
X154317419Y-50824687D01*
X154317419Y-50824687D02*
X154317419Y-50586592D01*
X154317419Y-50586592D02*
X154365038Y-50491354D01*
X154365038Y-50491354D02*
X154412657Y-50443735D01*
X154412657Y-50443735D02*
X154507895Y-50396116D01*
X154507895Y-50396116D02*
X154603133Y-50396116D01*
X154603133Y-50396116D02*
X154745990Y-50443735D01*
X154745990Y-50443735D02*
X155317419Y-51015163D01*
X155317419Y-51015163D02*
X155317419Y-50396116D01*
X157769800Y-59443734D02*
X157817419Y-59300877D01*
X157817419Y-59300877D02*
X157817419Y-59062782D01*
X157817419Y-59062782D02*
X157769800Y-58967544D01*
X157769800Y-58967544D02*
X157722180Y-58919925D01*
X157722180Y-58919925D02*
X157626942Y-58872306D01*
X157626942Y-58872306D02*
X157531704Y-58872306D01*
X157531704Y-58872306D02*
X157436466Y-58919925D01*
X157436466Y-58919925D02*
X157388847Y-58967544D01*
X157388847Y-58967544D02*
X157341228Y-59062782D01*
X157341228Y-59062782D02*
X157293609Y-59253258D01*
X157293609Y-59253258D02*
X157245990Y-59348496D01*
X157245990Y-59348496D02*
X157198371Y-59396115D01*
X157198371Y-59396115D02*
X157103133Y-59443734D01*
X157103133Y-59443734D02*
X157007895Y-59443734D01*
X157007895Y-59443734D02*
X156912657Y-59396115D01*
X156912657Y-59396115D02*
X156865038Y-59348496D01*
X156865038Y-59348496D02*
X156817419Y-59253258D01*
X156817419Y-59253258D02*
X156817419Y-59015163D01*
X156817419Y-59015163D02*
X156865038Y-58872306D01*
X157817419Y-58443734D02*
X156817419Y-58443734D01*
X156817419Y-58443734D02*
X156817419Y-58205639D01*
X156817419Y-58205639D02*
X156865038Y-58062782D01*
X156865038Y-58062782D02*
X156960276Y-57967544D01*
X156960276Y-57967544D02*
X157055514Y-57919925D01*
X157055514Y-57919925D02*
X157245990Y-57872306D01*
X157245990Y-57872306D02*
X157388847Y-57872306D01*
X157388847Y-57872306D02*
X157579323Y-57919925D01*
X157579323Y-57919925D02*
X157674561Y-57967544D01*
X157674561Y-57967544D02*
X157769800Y-58062782D01*
X157769800Y-58062782D02*
X157817419Y-58205639D01*
X157817419Y-58205639D02*
X157817419Y-58443734D01*
X157531704Y-57491353D02*
X157531704Y-57015163D01*
X157817419Y-57586591D02*
X156817419Y-57253258D01*
X156817419Y-57253258D02*
X157817419Y-56919925D01*
X157436466Y-56586591D02*
X157436466Y-55824687D01*
X156865038Y-54824687D02*
X156817419Y-54919925D01*
X156817419Y-54919925D02*
X156817419Y-55062782D01*
X156817419Y-55062782D02*
X156865038Y-55205639D01*
X156865038Y-55205639D02*
X156960276Y-55300877D01*
X156960276Y-55300877D02*
X157055514Y-55348496D01*
X157055514Y-55348496D02*
X157245990Y-55396115D01*
X157245990Y-55396115D02*
X157388847Y-55396115D01*
X157388847Y-55396115D02*
X157579323Y-55348496D01*
X157579323Y-55348496D02*
X157674561Y-55300877D01*
X157674561Y-55300877D02*
X157769800Y-55205639D01*
X157769800Y-55205639D02*
X157817419Y-55062782D01*
X157817419Y-55062782D02*
X157817419Y-54967544D01*
X157817419Y-54967544D02*
X157769800Y-54824687D01*
X157769800Y-54824687D02*
X157722180Y-54777068D01*
X157722180Y-54777068D02*
X157388847Y-54777068D01*
X157388847Y-54777068D02*
X157388847Y-54967544D01*
X157817419Y-54348496D02*
X156817419Y-54348496D01*
X156817419Y-54348496D02*
X156817419Y-53967544D01*
X156817419Y-53967544D02*
X156865038Y-53872306D01*
X156865038Y-53872306D02*
X156912657Y-53824687D01*
X156912657Y-53824687D02*
X157007895Y-53777068D01*
X157007895Y-53777068D02*
X157150752Y-53777068D01*
X157150752Y-53777068D02*
X157245990Y-53824687D01*
X157245990Y-53824687D02*
X157293609Y-53872306D01*
X157293609Y-53872306D02*
X157341228Y-53967544D01*
X157341228Y-53967544D02*
X157341228Y-54348496D01*
X157817419Y-53348496D02*
X156817419Y-53348496D01*
X156817419Y-52681830D02*
X156817419Y-52491354D01*
X156817419Y-52491354D02*
X156865038Y-52396116D01*
X156865038Y-52396116D02*
X156960276Y-52300878D01*
X156960276Y-52300878D02*
X157150752Y-52253259D01*
X157150752Y-52253259D02*
X157484085Y-52253259D01*
X157484085Y-52253259D02*
X157674561Y-52300878D01*
X157674561Y-52300878D02*
X157769800Y-52396116D01*
X157769800Y-52396116D02*
X157817419Y-52491354D01*
X157817419Y-52491354D02*
X157817419Y-52681830D01*
X157817419Y-52681830D02*
X157769800Y-52777068D01*
X157769800Y-52777068D02*
X157674561Y-52872306D01*
X157674561Y-52872306D02*
X157484085Y-52919925D01*
X157484085Y-52919925D02*
X157150752Y-52919925D01*
X157150752Y-52919925D02*
X156960276Y-52872306D01*
X156960276Y-52872306D02*
X156865038Y-52777068D01*
X156865038Y-52777068D02*
X156817419Y-52681830D01*
X156912657Y-51872306D02*
X156865038Y-51824687D01*
X156865038Y-51824687D02*
X156817419Y-51729449D01*
X156817419Y-51729449D02*
X156817419Y-51491354D01*
X156817419Y-51491354D02*
X156865038Y-51396116D01*
X156865038Y-51396116D02*
X156912657Y-51348497D01*
X156912657Y-51348497D02*
X157007895Y-51300878D01*
X157007895Y-51300878D02*
X157103133Y-51300878D01*
X157103133Y-51300878D02*
X157245990Y-51348497D01*
X157245990Y-51348497D02*
X157817419Y-51919925D01*
X157817419Y-51919925D02*
X157817419Y-51300878D01*
X157817419Y-50348497D02*
X157817419Y-50919925D01*
X157817419Y-50634211D02*
X156817419Y-50634211D01*
X156817419Y-50634211D02*
X156960276Y-50729449D01*
X156960276Y-50729449D02*
X157055514Y-50824687D01*
X157055514Y-50824687D02*
X157103133Y-50919925D01*
X160269800Y-59443734D02*
X160317419Y-59300877D01*
X160317419Y-59300877D02*
X160317419Y-59062782D01*
X160317419Y-59062782D02*
X160269800Y-58967544D01*
X160269800Y-58967544D02*
X160222180Y-58919925D01*
X160222180Y-58919925D02*
X160126942Y-58872306D01*
X160126942Y-58872306D02*
X160031704Y-58872306D01*
X160031704Y-58872306D02*
X159936466Y-58919925D01*
X159936466Y-58919925D02*
X159888847Y-58967544D01*
X159888847Y-58967544D02*
X159841228Y-59062782D01*
X159841228Y-59062782D02*
X159793609Y-59253258D01*
X159793609Y-59253258D02*
X159745990Y-59348496D01*
X159745990Y-59348496D02*
X159698371Y-59396115D01*
X159698371Y-59396115D02*
X159603133Y-59443734D01*
X159603133Y-59443734D02*
X159507895Y-59443734D01*
X159507895Y-59443734D02*
X159412657Y-59396115D01*
X159412657Y-59396115D02*
X159365038Y-59348496D01*
X159365038Y-59348496D02*
X159317419Y-59253258D01*
X159317419Y-59253258D02*
X159317419Y-59015163D01*
X159317419Y-59015163D02*
X159365038Y-58872306D01*
X160317419Y-58300877D02*
X160269800Y-58396115D01*
X160269800Y-58396115D02*
X160222180Y-58443734D01*
X160222180Y-58443734D02*
X160126942Y-58491353D01*
X160126942Y-58491353D02*
X159841228Y-58491353D01*
X159841228Y-58491353D02*
X159745990Y-58443734D01*
X159745990Y-58443734D02*
X159698371Y-58396115D01*
X159698371Y-58396115D02*
X159650752Y-58300877D01*
X159650752Y-58300877D02*
X159650752Y-58158020D01*
X159650752Y-58158020D02*
X159698371Y-58062782D01*
X159698371Y-58062782D02*
X159745990Y-58015163D01*
X159745990Y-58015163D02*
X159841228Y-57967544D01*
X159841228Y-57967544D02*
X160126942Y-57967544D01*
X160126942Y-57967544D02*
X160222180Y-58015163D01*
X160222180Y-58015163D02*
X160269800Y-58062782D01*
X160269800Y-58062782D02*
X160317419Y-58158020D01*
X160317419Y-58158020D02*
X160317419Y-58300877D01*
X160317419Y-57396115D02*
X160269800Y-57491353D01*
X160269800Y-57491353D02*
X160174561Y-57538972D01*
X160174561Y-57538972D02*
X159317419Y-57538972D01*
X160317419Y-56586591D02*
X159793609Y-56586591D01*
X159793609Y-56586591D02*
X159698371Y-56634210D01*
X159698371Y-56634210D02*
X159650752Y-56729448D01*
X159650752Y-56729448D02*
X159650752Y-56919924D01*
X159650752Y-56919924D02*
X159698371Y-57015162D01*
X160269800Y-56586591D02*
X160317419Y-56681829D01*
X160317419Y-56681829D02*
X160317419Y-56919924D01*
X160317419Y-56919924D02*
X160269800Y-57015162D01*
X160269800Y-57015162D02*
X160174561Y-57062781D01*
X160174561Y-57062781D02*
X160079323Y-57062781D01*
X160079323Y-57062781D02*
X159984085Y-57015162D01*
X159984085Y-57015162D02*
X159936466Y-56919924D01*
X159936466Y-56919924D02*
X159936466Y-56681829D01*
X159936466Y-56681829D02*
X159888847Y-56586591D01*
X160317419Y-56110400D02*
X159650752Y-56110400D01*
X159841228Y-56110400D02*
X159745990Y-56062781D01*
X159745990Y-56062781D02*
X159698371Y-56015162D01*
X159698371Y-56015162D02*
X159650752Y-55919924D01*
X159650752Y-55919924D02*
X159650752Y-55824686D01*
X160412657Y-55729448D02*
X160412657Y-54967543D01*
X159317419Y-54538971D02*
X159317419Y-54348495D01*
X159317419Y-54348495D02*
X159365038Y-54253257D01*
X159365038Y-54253257D02*
X159460276Y-54158019D01*
X159460276Y-54158019D02*
X159650752Y-54110400D01*
X159650752Y-54110400D02*
X159984085Y-54110400D01*
X159984085Y-54110400D02*
X160174561Y-54158019D01*
X160174561Y-54158019D02*
X160269800Y-54253257D01*
X160269800Y-54253257D02*
X160317419Y-54348495D01*
X160317419Y-54348495D02*
X160317419Y-54538971D01*
X160317419Y-54538971D02*
X160269800Y-54634209D01*
X160269800Y-54634209D02*
X160174561Y-54729447D01*
X160174561Y-54729447D02*
X159984085Y-54777066D01*
X159984085Y-54777066D02*
X159650752Y-54777066D01*
X159650752Y-54777066D02*
X159460276Y-54729447D01*
X159460276Y-54729447D02*
X159365038Y-54634209D01*
X159365038Y-54634209D02*
X159317419Y-54538971D01*
X159650752Y-53253257D02*
X160317419Y-53253257D01*
X159650752Y-53681828D02*
X160174561Y-53681828D01*
X160174561Y-53681828D02*
X160269800Y-53634209D01*
X160269800Y-53634209D02*
X160317419Y-53538971D01*
X160317419Y-53538971D02*
X160317419Y-53396114D01*
X160317419Y-53396114D02*
X160269800Y-53300876D01*
X160269800Y-53300876D02*
X160222180Y-53253257D01*
X159650752Y-52919923D02*
X159650752Y-52538971D01*
X159317419Y-52777066D02*
X160174561Y-52777066D01*
X160174561Y-52777066D02*
X160269800Y-52729447D01*
X160269800Y-52729447D02*
X160317419Y-52634209D01*
X160317419Y-52634209D02*
X160317419Y-52538971D01*
X162769800Y-59443734D02*
X162817419Y-59300877D01*
X162817419Y-59300877D02*
X162817419Y-59062782D01*
X162817419Y-59062782D02*
X162769800Y-58967544D01*
X162769800Y-58967544D02*
X162722180Y-58919925D01*
X162722180Y-58919925D02*
X162626942Y-58872306D01*
X162626942Y-58872306D02*
X162531704Y-58872306D01*
X162531704Y-58872306D02*
X162436466Y-58919925D01*
X162436466Y-58919925D02*
X162388847Y-58967544D01*
X162388847Y-58967544D02*
X162341228Y-59062782D01*
X162341228Y-59062782D02*
X162293609Y-59253258D01*
X162293609Y-59253258D02*
X162245990Y-59348496D01*
X162245990Y-59348496D02*
X162198371Y-59396115D01*
X162198371Y-59396115D02*
X162103133Y-59443734D01*
X162103133Y-59443734D02*
X162007895Y-59443734D01*
X162007895Y-59443734D02*
X161912657Y-59396115D01*
X161912657Y-59396115D02*
X161865038Y-59348496D01*
X161865038Y-59348496D02*
X161817419Y-59253258D01*
X161817419Y-59253258D02*
X161817419Y-59015163D01*
X161817419Y-59015163D02*
X161865038Y-58872306D01*
X162817419Y-58300877D02*
X162769800Y-58396115D01*
X162769800Y-58396115D02*
X162722180Y-58443734D01*
X162722180Y-58443734D02*
X162626942Y-58491353D01*
X162626942Y-58491353D02*
X162341228Y-58491353D01*
X162341228Y-58491353D02*
X162245990Y-58443734D01*
X162245990Y-58443734D02*
X162198371Y-58396115D01*
X162198371Y-58396115D02*
X162150752Y-58300877D01*
X162150752Y-58300877D02*
X162150752Y-58158020D01*
X162150752Y-58158020D02*
X162198371Y-58062782D01*
X162198371Y-58062782D02*
X162245990Y-58015163D01*
X162245990Y-58015163D02*
X162341228Y-57967544D01*
X162341228Y-57967544D02*
X162626942Y-57967544D01*
X162626942Y-57967544D02*
X162722180Y-58015163D01*
X162722180Y-58015163D02*
X162769800Y-58062782D01*
X162769800Y-58062782D02*
X162817419Y-58158020D01*
X162817419Y-58158020D02*
X162817419Y-58300877D01*
X162817419Y-57396115D02*
X162769800Y-57491353D01*
X162769800Y-57491353D02*
X162674561Y-57538972D01*
X162674561Y-57538972D02*
X161817419Y-57538972D01*
X162817419Y-56586591D02*
X162293609Y-56586591D01*
X162293609Y-56586591D02*
X162198371Y-56634210D01*
X162198371Y-56634210D02*
X162150752Y-56729448D01*
X162150752Y-56729448D02*
X162150752Y-56919924D01*
X162150752Y-56919924D02*
X162198371Y-57015162D01*
X162769800Y-56586591D02*
X162817419Y-56681829D01*
X162817419Y-56681829D02*
X162817419Y-56919924D01*
X162817419Y-56919924D02*
X162769800Y-57015162D01*
X162769800Y-57015162D02*
X162674561Y-57062781D01*
X162674561Y-57062781D02*
X162579323Y-57062781D01*
X162579323Y-57062781D02*
X162484085Y-57015162D01*
X162484085Y-57015162D02*
X162436466Y-56919924D01*
X162436466Y-56919924D02*
X162436466Y-56681829D01*
X162436466Y-56681829D02*
X162388847Y-56586591D01*
X162817419Y-56110400D02*
X162150752Y-56110400D01*
X162341228Y-56110400D02*
X162245990Y-56062781D01*
X162245990Y-56062781D02*
X162198371Y-56015162D01*
X162198371Y-56015162D02*
X162150752Y-55919924D01*
X162150752Y-55919924D02*
X162150752Y-55824686D01*
X162912657Y-55729448D02*
X162912657Y-54967543D01*
X162817419Y-54729447D02*
X161817419Y-54729447D01*
X162150752Y-54253257D02*
X162817419Y-54253257D01*
X162245990Y-54253257D02*
X162198371Y-54205638D01*
X162198371Y-54205638D02*
X162150752Y-54110400D01*
X162150752Y-54110400D02*
X162150752Y-53967543D01*
X162150752Y-53967543D02*
X162198371Y-53872305D01*
X162198371Y-53872305D02*
X162293609Y-53824686D01*
X162293609Y-53824686D02*
X162817419Y-53824686D01*
X179348609Y-75862782D02*
X179396228Y-75719925D01*
X179396228Y-75719925D02*
X179443847Y-75672306D01*
X179443847Y-75672306D02*
X179539085Y-75624687D01*
X179539085Y-75624687D02*
X179681942Y-75624687D01*
X179681942Y-75624687D02*
X179777180Y-75672306D01*
X179777180Y-75672306D02*
X179824800Y-75719925D01*
X179824800Y-75719925D02*
X179872419Y-75815163D01*
X179872419Y-75815163D02*
X179872419Y-76196115D01*
X179872419Y-76196115D02*
X178872419Y-76196115D01*
X178872419Y-76196115D02*
X178872419Y-75862782D01*
X178872419Y-75862782D02*
X178920038Y-75767544D01*
X178920038Y-75767544D02*
X178967657Y-75719925D01*
X178967657Y-75719925D02*
X179062895Y-75672306D01*
X179062895Y-75672306D02*
X179158133Y-75672306D01*
X179158133Y-75672306D02*
X179253371Y-75719925D01*
X179253371Y-75719925D02*
X179300990Y-75767544D01*
X179300990Y-75767544D02*
X179348609Y-75862782D01*
X179348609Y-75862782D02*
X179348609Y-76196115D01*
X179586704Y-75243734D02*
X179586704Y-74767544D01*
X179872419Y-75338972D02*
X178872419Y-75005639D01*
X178872419Y-75005639D02*
X179872419Y-74672306D01*
X178872419Y-74481829D02*
X178872419Y-73910401D01*
X179872419Y-74196115D02*
X178872419Y-74196115D01*
X179491466Y-73577067D02*
X179491466Y-72815163D01*
X179872419Y-73196115D02*
X179110514Y-73196115D01*
X181848609Y-75862782D02*
X181896228Y-75719925D01*
X181896228Y-75719925D02*
X181943847Y-75672306D01*
X181943847Y-75672306D02*
X182039085Y-75624687D01*
X182039085Y-75624687D02*
X182181942Y-75624687D01*
X182181942Y-75624687D02*
X182277180Y-75672306D01*
X182277180Y-75672306D02*
X182324800Y-75719925D01*
X182324800Y-75719925D02*
X182372419Y-75815163D01*
X182372419Y-75815163D02*
X182372419Y-76196115D01*
X182372419Y-76196115D02*
X181372419Y-76196115D01*
X181372419Y-76196115D02*
X181372419Y-75862782D01*
X181372419Y-75862782D02*
X181420038Y-75767544D01*
X181420038Y-75767544D02*
X181467657Y-75719925D01*
X181467657Y-75719925D02*
X181562895Y-75672306D01*
X181562895Y-75672306D02*
X181658133Y-75672306D01*
X181658133Y-75672306D02*
X181753371Y-75719925D01*
X181753371Y-75719925D02*
X181800990Y-75767544D01*
X181800990Y-75767544D02*
X181848609Y-75862782D01*
X181848609Y-75862782D02*
X181848609Y-76196115D01*
X182086704Y-75243734D02*
X182086704Y-74767544D01*
X182372419Y-75338972D02*
X181372419Y-75005639D01*
X181372419Y-75005639D02*
X182372419Y-74672306D01*
X181372419Y-74481829D02*
X181372419Y-73910401D01*
X182372419Y-74196115D02*
X181372419Y-74196115D01*
X181991466Y-73577067D02*
X181991466Y-72815163D01*
D11*
X154836779Y-95869819D02*
X154836779Y-94869819D01*
X154836779Y-94869819D02*
X155217731Y-94869819D01*
X155217731Y-94869819D02*
X155312969Y-94917438D01*
X155312969Y-94917438D02*
X155360588Y-94965057D01*
X155360588Y-94965057D02*
X155408207Y-95060295D01*
X155408207Y-95060295D02*
X155408207Y-95203152D01*
X155408207Y-95203152D02*
X155360588Y-95298390D01*
X155360588Y-95298390D02*
X155312969Y-95346009D01*
X155312969Y-95346009D02*
X155217731Y-95393628D01*
X155217731Y-95393628D02*
X154836779Y-95393628D01*
X155979636Y-95869819D02*
X155884398Y-95822200D01*
X155884398Y-95822200D02*
X155836779Y-95774580D01*
X155836779Y-95774580D02*
X155789160Y-95679342D01*
X155789160Y-95679342D02*
X155789160Y-95393628D01*
X155789160Y-95393628D02*
X155836779Y-95298390D01*
X155836779Y-95298390D02*
X155884398Y-95250771D01*
X155884398Y-95250771D02*
X155979636Y-95203152D01*
X155979636Y-95203152D02*
X156122493Y-95203152D01*
X156122493Y-95203152D02*
X156217731Y-95250771D01*
X156217731Y-95250771D02*
X156265350Y-95298390D01*
X156265350Y-95298390D02*
X156312969Y-95393628D01*
X156312969Y-95393628D02*
X156312969Y-95679342D01*
X156312969Y-95679342D02*
X156265350Y-95774580D01*
X156265350Y-95774580D02*
X156217731Y-95822200D01*
X156217731Y-95822200D02*
X156122493Y-95869819D01*
X156122493Y-95869819D02*
X155979636Y-95869819D01*
X156646303Y-95203152D02*
X156836779Y-95869819D01*
X156836779Y-95869819D02*
X157027255Y-95393628D01*
X157027255Y-95393628D02*
X157217731Y-95869819D01*
X157217731Y-95869819D02*
X157408207Y-95203152D01*
X158170112Y-95822200D02*
X158074874Y-95869819D01*
X158074874Y-95869819D02*
X157884398Y-95869819D01*
X157884398Y-95869819D02*
X157789160Y-95822200D01*
X157789160Y-95822200D02*
X157741541Y-95726961D01*
X157741541Y-95726961D02*
X157741541Y-95346009D01*
X157741541Y-95346009D02*
X157789160Y-95250771D01*
X157789160Y-95250771D02*
X157884398Y-95203152D01*
X157884398Y-95203152D02*
X158074874Y-95203152D01*
X158074874Y-95203152D02*
X158170112Y-95250771D01*
X158170112Y-95250771D02*
X158217731Y-95346009D01*
X158217731Y-95346009D02*
X158217731Y-95441247D01*
X158217731Y-95441247D02*
X157741541Y-95536485D01*
X158646303Y-95869819D02*
X158646303Y-95203152D01*
X158646303Y-95393628D02*
X158693922Y-95298390D01*
X158693922Y-95298390D02*
X158741541Y-95250771D01*
X158741541Y-95250771D02*
X158836779Y-95203152D01*
X158836779Y-95203152D02*
X158932017Y-95203152D01*
X159884399Y-95203152D02*
X160265351Y-95203152D01*
X160027256Y-94869819D02*
X160027256Y-95726961D01*
X160027256Y-95726961D02*
X160074875Y-95822200D01*
X160074875Y-95822200D02*
X160170113Y-95869819D01*
X160170113Y-95869819D02*
X160265351Y-95869819D01*
X160741542Y-95869819D02*
X160646304Y-95822200D01*
X160646304Y-95822200D02*
X160598685Y-95774580D01*
X160598685Y-95774580D02*
X160551066Y-95679342D01*
X160551066Y-95679342D02*
X160551066Y-95393628D01*
X160551066Y-95393628D02*
X160598685Y-95298390D01*
X160598685Y-95298390D02*
X160646304Y-95250771D01*
X160646304Y-95250771D02*
X160741542Y-95203152D01*
X160741542Y-95203152D02*
X160884399Y-95203152D01*
X160884399Y-95203152D02*
X160979637Y-95250771D01*
X160979637Y-95250771D02*
X161027256Y-95298390D01*
X161027256Y-95298390D02*
X161074875Y-95393628D01*
X161074875Y-95393628D02*
X161074875Y-95679342D01*
X161074875Y-95679342D02*
X161027256Y-95774580D01*
X161027256Y-95774580D02*
X160979637Y-95822200D01*
X160979637Y-95822200D02*
X160884399Y-95869819D01*
X160884399Y-95869819D02*
X160741542Y-95869819D01*
X162265352Y-95869819D02*
X162265352Y-94869819D01*
X162265352Y-95346009D02*
X162836780Y-95346009D01*
X162836780Y-95869819D02*
X162836780Y-94869819D01*
X163312971Y-95869819D02*
X163312971Y-95203152D01*
X163312971Y-94869819D02*
X163265352Y-94917438D01*
X163265352Y-94917438D02*
X163312971Y-94965057D01*
X163312971Y-94965057D02*
X163360590Y-94917438D01*
X163360590Y-94917438D02*
X163312971Y-94869819D01*
X163312971Y-94869819D02*
X163312971Y-94965057D01*
X163693923Y-95203152D02*
X163932018Y-95869819D01*
X163932018Y-95869819D02*
X164170113Y-95203152D01*
X164932018Y-95822200D02*
X164836780Y-95869819D01*
X164836780Y-95869819D02*
X164646304Y-95869819D01*
X164646304Y-95869819D02*
X164551066Y-95822200D01*
X164551066Y-95822200D02*
X164503447Y-95726961D01*
X164503447Y-95726961D02*
X164503447Y-95346009D01*
X164503447Y-95346009D02*
X164551066Y-95250771D01*
X164551066Y-95250771D02*
X164646304Y-95203152D01*
X164646304Y-95203152D02*
X164836780Y-95203152D01*
X164836780Y-95203152D02*
X164932018Y-95250771D01*
X164932018Y-95250771D02*
X164979637Y-95346009D01*
X164979637Y-95346009D02*
X164979637Y-95441247D01*
X164979637Y-95441247D02*
X164503447Y-95536485D01*
X165360590Y-95822200D02*
X165503447Y-95869819D01*
X165503447Y-95869819D02*
X165741542Y-95869819D01*
X165741542Y-95869819D02*
X165836780Y-95822200D01*
X165836780Y-95822200D02*
X165884399Y-95774580D01*
X165884399Y-95774580D02*
X165932018Y-95679342D01*
X165932018Y-95679342D02*
X165932018Y-95584104D01*
X165932018Y-95584104D02*
X165884399Y-95488866D01*
X165884399Y-95488866D02*
X165836780Y-95441247D01*
X165836780Y-95441247D02*
X165741542Y-95393628D01*
X165741542Y-95393628D02*
X165551066Y-95346009D01*
X165551066Y-95346009D02*
X165455828Y-95298390D01*
X165455828Y-95298390D02*
X165408209Y-95250771D01*
X165408209Y-95250771D02*
X165360590Y-95155533D01*
X165360590Y-95155533D02*
X165360590Y-95060295D01*
X165360590Y-95060295D02*
X165408209Y-94965057D01*
X165408209Y-94965057D02*
X165455828Y-94917438D01*
X165455828Y-94917438D02*
X165551066Y-94869819D01*
X165551066Y-94869819D02*
X165789161Y-94869819D01*
X165789161Y-94869819D02*
X165932018Y-94917438D01*
X166789161Y-95822200D02*
X166693923Y-95869819D01*
X166693923Y-95869819D02*
X166503447Y-95869819D01*
X166503447Y-95869819D02*
X166408209Y-95822200D01*
X166408209Y-95822200D02*
X166360590Y-95774580D01*
X166360590Y-95774580D02*
X166312971Y-95679342D01*
X166312971Y-95679342D02*
X166312971Y-95393628D01*
X166312971Y-95393628D02*
X166360590Y-95298390D01*
X166360590Y-95298390D02*
X166408209Y-95250771D01*
X166408209Y-95250771D02*
X166503447Y-95203152D01*
X166503447Y-95203152D02*
X166693923Y-95203152D01*
X166693923Y-95203152D02*
X166789161Y-95250771D01*
X167646304Y-95869819D02*
X167646304Y-95346009D01*
X167646304Y-95346009D02*
X167598685Y-95250771D01*
X167598685Y-95250771D02*
X167503447Y-95203152D01*
X167503447Y-95203152D02*
X167312971Y-95203152D01*
X167312971Y-95203152D02*
X167217733Y-95250771D01*
X167646304Y-95822200D02*
X167551066Y-95869819D01*
X167551066Y-95869819D02*
X167312971Y-95869819D01*
X167312971Y-95869819D02*
X167217733Y-95822200D01*
X167217733Y-95822200D02*
X167170114Y-95726961D01*
X167170114Y-95726961D02*
X167170114Y-95631723D01*
X167170114Y-95631723D02*
X167217733Y-95536485D01*
X167217733Y-95536485D02*
X167312971Y-95488866D01*
X167312971Y-95488866D02*
X167551066Y-95488866D01*
X167551066Y-95488866D02*
X167646304Y-95441247D01*
X168265352Y-95869819D02*
X168170114Y-95822200D01*
X168170114Y-95822200D02*
X168122495Y-95726961D01*
X168122495Y-95726961D02*
X168122495Y-94869819D01*
X169027257Y-95822200D02*
X168932019Y-95869819D01*
X168932019Y-95869819D02*
X168741543Y-95869819D01*
X168741543Y-95869819D02*
X168646305Y-95822200D01*
X168646305Y-95822200D02*
X168598686Y-95726961D01*
X168598686Y-95726961D02*
X168598686Y-95346009D01*
X168598686Y-95346009D02*
X168646305Y-95250771D01*
X168646305Y-95250771D02*
X168741543Y-95203152D01*
X168741543Y-95203152D02*
X168932019Y-95203152D01*
X168932019Y-95203152D02*
X169027257Y-95250771D01*
X169027257Y-95250771D02*
X169074876Y-95346009D01*
X169074876Y-95346009D02*
X169074876Y-95441247D01*
X169074876Y-95441247D02*
X168598686Y-95536485D01*
X171722200Y-60610839D02*
X171769819Y-60467982D01*
X171769819Y-60467982D02*
X171769819Y-60229887D01*
X171769819Y-60229887D02*
X171722200Y-60134649D01*
X171722200Y-60134649D02*
X171674580Y-60087030D01*
X171674580Y-60087030D02*
X171579342Y-60039411D01*
X171579342Y-60039411D02*
X171484104Y-60039411D01*
X171484104Y-60039411D02*
X171388866Y-60087030D01*
X171388866Y-60087030D02*
X171341247Y-60134649D01*
X171341247Y-60134649D02*
X171293628Y-60229887D01*
X171293628Y-60229887D02*
X171246009Y-60420363D01*
X171246009Y-60420363D02*
X171198390Y-60515601D01*
X171198390Y-60515601D02*
X171150771Y-60563220D01*
X171150771Y-60563220D02*
X171055533Y-60610839D01*
X171055533Y-60610839D02*
X170960295Y-60610839D01*
X170960295Y-60610839D02*
X170865057Y-60563220D01*
X170865057Y-60563220D02*
X170817438Y-60515601D01*
X170817438Y-60515601D02*
X170769819Y-60420363D01*
X170769819Y-60420363D02*
X170769819Y-60182268D01*
X170769819Y-60182268D02*
X170817438Y-60039411D01*
X171769819Y-59467982D02*
X171722200Y-59563220D01*
X171722200Y-59563220D02*
X171674580Y-59610839D01*
X171674580Y-59610839D02*
X171579342Y-59658458D01*
X171579342Y-59658458D02*
X171293628Y-59658458D01*
X171293628Y-59658458D02*
X171198390Y-59610839D01*
X171198390Y-59610839D02*
X171150771Y-59563220D01*
X171150771Y-59563220D02*
X171103152Y-59467982D01*
X171103152Y-59467982D02*
X171103152Y-59325125D01*
X171103152Y-59325125D02*
X171150771Y-59229887D01*
X171150771Y-59229887D02*
X171198390Y-59182268D01*
X171198390Y-59182268D02*
X171293628Y-59134649D01*
X171293628Y-59134649D02*
X171579342Y-59134649D01*
X171579342Y-59134649D02*
X171674580Y-59182268D01*
X171674580Y-59182268D02*
X171722200Y-59229887D01*
X171722200Y-59229887D02*
X171769819Y-59325125D01*
X171769819Y-59325125D02*
X171769819Y-59467982D01*
X171769819Y-58563220D02*
X171722200Y-58658458D01*
X171722200Y-58658458D02*
X171626961Y-58706077D01*
X171626961Y-58706077D02*
X170769819Y-58706077D01*
X171769819Y-57753696D02*
X171246009Y-57753696D01*
X171246009Y-57753696D02*
X171150771Y-57801315D01*
X171150771Y-57801315D02*
X171103152Y-57896553D01*
X171103152Y-57896553D02*
X171103152Y-58087029D01*
X171103152Y-58087029D02*
X171150771Y-58182267D01*
X171722200Y-57753696D02*
X171769819Y-57848934D01*
X171769819Y-57848934D02*
X171769819Y-58087029D01*
X171769819Y-58087029D02*
X171722200Y-58182267D01*
X171722200Y-58182267D02*
X171626961Y-58229886D01*
X171626961Y-58229886D02*
X171531723Y-58229886D01*
X171531723Y-58229886D02*
X171436485Y-58182267D01*
X171436485Y-58182267D02*
X171388866Y-58087029D01*
X171388866Y-58087029D02*
X171388866Y-57848934D01*
X171388866Y-57848934D02*
X171341247Y-57753696D01*
X171769819Y-57277505D02*
X171103152Y-57277505D01*
X171293628Y-57277505D02*
X171198390Y-57229886D01*
X171198390Y-57229886D02*
X171150771Y-57182267D01*
X171150771Y-57182267D02*
X171103152Y-57087029D01*
X171103152Y-57087029D02*
X171103152Y-56991791D01*
X171769819Y-55896552D02*
X170769819Y-55896552D01*
X170769819Y-55896552D02*
X170769819Y-55515600D01*
X170769819Y-55515600D02*
X170817438Y-55420362D01*
X170817438Y-55420362D02*
X170865057Y-55372743D01*
X170865057Y-55372743D02*
X170960295Y-55325124D01*
X170960295Y-55325124D02*
X171103152Y-55325124D01*
X171103152Y-55325124D02*
X171198390Y-55372743D01*
X171198390Y-55372743D02*
X171246009Y-55420362D01*
X171246009Y-55420362D02*
X171293628Y-55515600D01*
X171293628Y-55515600D02*
X171293628Y-55896552D01*
X171769819Y-54467981D02*
X171246009Y-54467981D01*
X171246009Y-54467981D02*
X171150771Y-54515600D01*
X171150771Y-54515600D02*
X171103152Y-54610838D01*
X171103152Y-54610838D02*
X171103152Y-54801314D01*
X171103152Y-54801314D02*
X171150771Y-54896552D01*
X171722200Y-54467981D02*
X171769819Y-54563219D01*
X171769819Y-54563219D02*
X171769819Y-54801314D01*
X171769819Y-54801314D02*
X171722200Y-54896552D01*
X171722200Y-54896552D02*
X171626961Y-54944171D01*
X171626961Y-54944171D02*
X171531723Y-54944171D01*
X171531723Y-54944171D02*
X171436485Y-54896552D01*
X171436485Y-54896552D02*
X171388866Y-54801314D01*
X171388866Y-54801314D02*
X171388866Y-54563219D01*
X171388866Y-54563219D02*
X171341247Y-54467981D01*
X171103152Y-53991790D02*
X171769819Y-53991790D01*
X171198390Y-53991790D02*
X171150771Y-53944171D01*
X171150771Y-53944171D02*
X171103152Y-53848933D01*
X171103152Y-53848933D02*
X171103152Y-53706076D01*
X171103152Y-53706076D02*
X171150771Y-53610838D01*
X171150771Y-53610838D02*
X171246009Y-53563219D01*
X171246009Y-53563219D02*
X171769819Y-53563219D01*
X171722200Y-52706076D02*
X171769819Y-52801314D01*
X171769819Y-52801314D02*
X171769819Y-52991790D01*
X171769819Y-52991790D02*
X171722200Y-53087028D01*
X171722200Y-53087028D02*
X171626961Y-53134647D01*
X171626961Y-53134647D02*
X171246009Y-53134647D01*
X171246009Y-53134647D02*
X171150771Y-53087028D01*
X171150771Y-53087028D02*
X171103152Y-52991790D01*
X171103152Y-52991790D02*
X171103152Y-52801314D01*
X171103152Y-52801314D02*
X171150771Y-52706076D01*
X171150771Y-52706076D02*
X171246009Y-52658457D01*
X171246009Y-52658457D02*
X171341247Y-52658457D01*
X171341247Y-52658457D02*
X171436485Y-53134647D01*
X171769819Y-52087028D02*
X171722200Y-52182266D01*
X171722200Y-52182266D02*
X171626961Y-52229885D01*
X171626961Y-52229885D02*
X170769819Y-52229885D01*
X171388866Y-50944170D02*
X171388866Y-50182266D01*
X174422200Y-60510839D02*
X174469819Y-60367982D01*
X174469819Y-60367982D02*
X174469819Y-60129887D01*
X174469819Y-60129887D02*
X174422200Y-60034649D01*
X174422200Y-60034649D02*
X174374580Y-59987030D01*
X174374580Y-59987030D02*
X174279342Y-59939411D01*
X174279342Y-59939411D02*
X174184104Y-59939411D01*
X174184104Y-59939411D02*
X174088866Y-59987030D01*
X174088866Y-59987030D02*
X174041247Y-60034649D01*
X174041247Y-60034649D02*
X173993628Y-60129887D01*
X173993628Y-60129887D02*
X173946009Y-60320363D01*
X173946009Y-60320363D02*
X173898390Y-60415601D01*
X173898390Y-60415601D02*
X173850771Y-60463220D01*
X173850771Y-60463220D02*
X173755533Y-60510839D01*
X173755533Y-60510839D02*
X173660295Y-60510839D01*
X173660295Y-60510839D02*
X173565057Y-60463220D01*
X173565057Y-60463220D02*
X173517438Y-60415601D01*
X173517438Y-60415601D02*
X173469819Y-60320363D01*
X173469819Y-60320363D02*
X173469819Y-60082268D01*
X173469819Y-60082268D02*
X173517438Y-59939411D01*
X174469819Y-59367982D02*
X174422200Y-59463220D01*
X174422200Y-59463220D02*
X174374580Y-59510839D01*
X174374580Y-59510839D02*
X174279342Y-59558458D01*
X174279342Y-59558458D02*
X173993628Y-59558458D01*
X173993628Y-59558458D02*
X173898390Y-59510839D01*
X173898390Y-59510839D02*
X173850771Y-59463220D01*
X173850771Y-59463220D02*
X173803152Y-59367982D01*
X173803152Y-59367982D02*
X173803152Y-59225125D01*
X173803152Y-59225125D02*
X173850771Y-59129887D01*
X173850771Y-59129887D02*
X173898390Y-59082268D01*
X173898390Y-59082268D02*
X173993628Y-59034649D01*
X173993628Y-59034649D02*
X174279342Y-59034649D01*
X174279342Y-59034649D02*
X174374580Y-59082268D01*
X174374580Y-59082268D02*
X174422200Y-59129887D01*
X174422200Y-59129887D02*
X174469819Y-59225125D01*
X174469819Y-59225125D02*
X174469819Y-59367982D01*
X174469819Y-58463220D02*
X174422200Y-58558458D01*
X174422200Y-58558458D02*
X174326961Y-58606077D01*
X174326961Y-58606077D02*
X173469819Y-58606077D01*
X174469819Y-57653696D02*
X173946009Y-57653696D01*
X173946009Y-57653696D02*
X173850771Y-57701315D01*
X173850771Y-57701315D02*
X173803152Y-57796553D01*
X173803152Y-57796553D02*
X173803152Y-57987029D01*
X173803152Y-57987029D02*
X173850771Y-58082267D01*
X174422200Y-57653696D02*
X174469819Y-57748934D01*
X174469819Y-57748934D02*
X174469819Y-57987029D01*
X174469819Y-57987029D02*
X174422200Y-58082267D01*
X174422200Y-58082267D02*
X174326961Y-58129886D01*
X174326961Y-58129886D02*
X174231723Y-58129886D01*
X174231723Y-58129886D02*
X174136485Y-58082267D01*
X174136485Y-58082267D02*
X174088866Y-57987029D01*
X174088866Y-57987029D02*
X174088866Y-57748934D01*
X174088866Y-57748934D02*
X174041247Y-57653696D01*
X174469819Y-57177505D02*
X173803152Y-57177505D01*
X173993628Y-57177505D02*
X173898390Y-57129886D01*
X173898390Y-57129886D02*
X173850771Y-57082267D01*
X173850771Y-57082267D02*
X173803152Y-56987029D01*
X173803152Y-56987029D02*
X173803152Y-56891791D01*
X174469819Y-55796552D02*
X173469819Y-55796552D01*
X173469819Y-55796552D02*
X173469819Y-55415600D01*
X173469819Y-55415600D02*
X173517438Y-55320362D01*
X173517438Y-55320362D02*
X173565057Y-55272743D01*
X173565057Y-55272743D02*
X173660295Y-55225124D01*
X173660295Y-55225124D02*
X173803152Y-55225124D01*
X173803152Y-55225124D02*
X173898390Y-55272743D01*
X173898390Y-55272743D02*
X173946009Y-55320362D01*
X173946009Y-55320362D02*
X173993628Y-55415600D01*
X173993628Y-55415600D02*
X173993628Y-55796552D01*
X174469819Y-54367981D02*
X173946009Y-54367981D01*
X173946009Y-54367981D02*
X173850771Y-54415600D01*
X173850771Y-54415600D02*
X173803152Y-54510838D01*
X173803152Y-54510838D02*
X173803152Y-54701314D01*
X173803152Y-54701314D02*
X173850771Y-54796552D01*
X174422200Y-54367981D02*
X174469819Y-54463219D01*
X174469819Y-54463219D02*
X174469819Y-54701314D01*
X174469819Y-54701314D02*
X174422200Y-54796552D01*
X174422200Y-54796552D02*
X174326961Y-54844171D01*
X174326961Y-54844171D02*
X174231723Y-54844171D01*
X174231723Y-54844171D02*
X174136485Y-54796552D01*
X174136485Y-54796552D02*
X174088866Y-54701314D01*
X174088866Y-54701314D02*
X174088866Y-54463219D01*
X174088866Y-54463219D02*
X174041247Y-54367981D01*
X173803152Y-53891790D02*
X174469819Y-53891790D01*
X173898390Y-53891790D02*
X173850771Y-53844171D01*
X173850771Y-53844171D02*
X173803152Y-53748933D01*
X173803152Y-53748933D02*
X173803152Y-53606076D01*
X173803152Y-53606076D02*
X173850771Y-53510838D01*
X173850771Y-53510838D02*
X173946009Y-53463219D01*
X173946009Y-53463219D02*
X174469819Y-53463219D01*
X174422200Y-52606076D02*
X174469819Y-52701314D01*
X174469819Y-52701314D02*
X174469819Y-52891790D01*
X174469819Y-52891790D02*
X174422200Y-52987028D01*
X174422200Y-52987028D02*
X174326961Y-53034647D01*
X174326961Y-53034647D02*
X173946009Y-53034647D01*
X173946009Y-53034647D02*
X173850771Y-52987028D01*
X173850771Y-52987028D02*
X173803152Y-52891790D01*
X173803152Y-52891790D02*
X173803152Y-52701314D01*
X173803152Y-52701314D02*
X173850771Y-52606076D01*
X173850771Y-52606076D02*
X173946009Y-52558457D01*
X173946009Y-52558457D02*
X174041247Y-52558457D01*
X174041247Y-52558457D02*
X174136485Y-53034647D01*
X174469819Y-51987028D02*
X174422200Y-52082266D01*
X174422200Y-52082266D02*
X174326961Y-52129885D01*
X174326961Y-52129885D02*
X173469819Y-52129885D01*
X174088866Y-50844170D02*
X174088866Y-50082266D01*
X174469819Y-50463218D02*
X173707914Y-50463218D01*
X132494819Y-68169523D02*
X133209104Y-68169523D01*
X133209104Y-68169523D02*
X133351961Y-68217142D01*
X133351961Y-68217142D02*
X133447200Y-68312380D01*
X133447200Y-68312380D02*
X133494819Y-68455237D01*
X133494819Y-68455237D02*
X133494819Y-68550475D01*
X133494819Y-67169523D02*
X133494819Y-67740951D01*
X133494819Y-67455237D02*
X132494819Y-67455237D01*
X132494819Y-67455237D02*
X132637676Y-67550475D01*
X132637676Y-67550475D02*
X132732914Y-67645713D01*
X132732914Y-67645713D02*
X132780533Y-67740951D01*
X133494819Y-66693332D02*
X133494819Y-66502856D01*
X133494819Y-66502856D02*
X133447200Y-66407618D01*
X133447200Y-66407618D02*
X133399580Y-66359999D01*
X133399580Y-66359999D02*
X133256723Y-66264761D01*
X133256723Y-66264761D02*
X133066247Y-66217142D01*
X133066247Y-66217142D02*
X132685295Y-66217142D01*
X132685295Y-66217142D02*
X132590057Y-66264761D01*
X132590057Y-66264761D02*
X132542438Y-66312380D01*
X132542438Y-66312380D02*
X132494819Y-66407618D01*
X132494819Y-66407618D02*
X132494819Y-66598094D01*
X132494819Y-66598094D02*
X132542438Y-66693332D01*
X132542438Y-66693332D02*
X132590057Y-66740951D01*
X132590057Y-66740951D02*
X132685295Y-66788570D01*
X132685295Y-66788570D02*
X132923390Y-66788570D01*
X132923390Y-66788570D02*
X133018628Y-66740951D01*
X133018628Y-66740951D02*
X133066247Y-66693332D01*
X133066247Y-66693332D02*
X133113866Y-66598094D01*
X133113866Y-66598094D02*
X133113866Y-66407618D01*
X133113866Y-66407618D02*
X133066247Y-66312380D01*
X133066247Y-66312380D02*
X133018628Y-66264761D01*
X133018628Y-66264761D02*
X132923390Y-66217142D01*
X118954819Y-45309523D02*
X119669104Y-45309523D01*
X119669104Y-45309523D02*
X119811961Y-45357142D01*
X119811961Y-45357142D02*
X119907200Y-45452380D01*
X119907200Y-45452380D02*
X119954819Y-45595237D01*
X119954819Y-45595237D02*
X119954819Y-45690475D01*
X119954819Y-44309523D02*
X119954819Y-44880951D01*
X119954819Y-44595237D02*
X118954819Y-44595237D01*
X118954819Y-44595237D02*
X119097676Y-44690475D01*
X119097676Y-44690475D02*
X119192914Y-44785713D01*
X119192914Y-44785713D02*
X119240533Y-44880951D01*
X119383390Y-43738094D02*
X119335771Y-43833332D01*
X119335771Y-43833332D02*
X119288152Y-43880951D01*
X119288152Y-43880951D02*
X119192914Y-43928570D01*
X119192914Y-43928570D02*
X119145295Y-43928570D01*
X119145295Y-43928570D02*
X119050057Y-43880951D01*
X119050057Y-43880951D02*
X119002438Y-43833332D01*
X119002438Y-43833332D02*
X118954819Y-43738094D01*
X118954819Y-43738094D02*
X118954819Y-43547618D01*
X118954819Y-43547618D02*
X119002438Y-43452380D01*
X119002438Y-43452380D02*
X119050057Y-43404761D01*
X119050057Y-43404761D02*
X119145295Y-43357142D01*
X119145295Y-43357142D02*
X119192914Y-43357142D01*
X119192914Y-43357142D02*
X119288152Y-43404761D01*
X119288152Y-43404761D02*
X119335771Y-43452380D01*
X119335771Y-43452380D02*
X119383390Y-43547618D01*
X119383390Y-43547618D02*
X119383390Y-43738094D01*
X119383390Y-43738094D02*
X119431009Y-43833332D01*
X119431009Y-43833332D02*
X119478628Y-43880951D01*
X119478628Y-43880951D02*
X119573866Y-43928570D01*
X119573866Y-43928570D02*
X119764342Y-43928570D01*
X119764342Y-43928570D02*
X119859580Y-43880951D01*
X119859580Y-43880951D02*
X119907200Y-43833332D01*
X119907200Y-43833332D02*
X119954819Y-43738094D01*
X119954819Y-43738094D02*
X119954819Y-43547618D01*
X119954819Y-43547618D02*
X119907200Y-43452380D01*
X119907200Y-43452380D02*
X119859580Y-43404761D01*
X119859580Y-43404761D02*
X119764342Y-43357142D01*
X119764342Y-43357142D02*
X119573866Y-43357142D01*
X119573866Y-43357142D02*
X119478628Y-43404761D01*
X119478628Y-43404761D02*
X119431009Y-43452380D01*
X119431009Y-43452380D02*
X119383390Y-43547618D01*
X146304819Y-63009523D02*
X147019104Y-63009523D01*
X147019104Y-63009523D02*
X147161961Y-63057142D01*
X147161961Y-63057142D02*
X147257200Y-63152380D01*
X147257200Y-63152380D02*
X147304819Y-63295237D01*
X147304819Y-63295237D02*
X147304819Y-63390475D01*
X147304819Y-62009523D02*
X147304819Y-62580951D01*
X147304819Y-62295237D02*
X146304819Y-62295237D01*
X146304819Y-62295237D02*
X146447676Y-62390475D01*
X146447676Y-62390475D02*
X146542914Y-62485713D01*
X146542914Y-62485713D02*
X146590533Y-62580951D01*
X146304819Y-61152380D02*
X146304819Y-61342856D01*
X146304819Y-61342856D02*
X146352438Y-61438094D01*
X146352438Y-61438094D02*
X146400057Y-61485713D01*
X146400057Y-61485713D02*
X146542914Y-61580951D01*
X146542914Y-61580951D02*
X146733390Y-61628570D01*
X146733390Y-61628570D02*
X147114342Y-61628570D01*
X147114342Y-61628570D02*
X147209580Y-61580951D01*
X147209580Y-61580951D02*
X147257200Y-61533332D01*
X147257200Y-61533332D02*
X147304819Y-61438094D01*
X147304819Y-61438094D02*
X147304819Y-61247618D01*
X147304819Y-61247618D02*
X147257200Y-61152380D01*
X147257200Y-61152380D02*
X147209580Y-61104761D01*
X147209580Y-61104761D02*
X147114342Y-61057142D01*
X147114342Y-61057142D02*
X146876247Y-61057142D01*
X146876247Y-61057142D02*
X146781009Y-61104761D01*
X146781009Y-61104761D02*
X146733390Y-61152380D01*
X146733390Y-61152380D02*
X146685771Y-61247618D01*
X146685771Y-61247618D02*
X146685771Y-61438094D01*
X146685771Y-61438094D02*
X146733390Y-61533332D01*
X146733390Y-61533332D02*
X146781009Y-61580951D01*
X146781009Y-61580951D02*
X146876247Y-61628570D01*
X171034819Y-89899523D02*
X171749104Y-89899523D01*
X171749104Y-89899523D02*
X171891961Y-89947142D01*
X171891961Y-89947142D02*
X171987200Y-90042380D01*
X171987200Y-90042380D02*
X172034819Y-90185237D01*
X172034819Y-90185237D02*
X172034819Y-90280475D01*
X171130057Y-89470951D02*
X171082438Y-89423332D01*
X171082438Y-89423332D02*
X171034819Y-89328094D01*
X171034819Y-89328094D02*
X171034819Y-89089999D01*
X171034819Y-89089999D02*
X171082438Y-88994761D01*
X171082438Y-88994761D02*
X171130057Y-88947142D01*
X171130057Y-88947142D02*
X171225295Y-88899523D01*
X171225295Y-88899523D02*
X171320533Y-88899523D01*
X171320533Y-88899523D02*
X171463390Y-88947142D01*
X171463390Y-88947142D02*
X172034819Y-89518570D01*
X172034819Y-89518570D02*
X172034819Y-88899523D01*
X172034819Y-87947142D02*
X172034819Y-88518570D01*
X172034819Y-88232856D02*
X171034819Y-88232856D01*
X171034819Y-88232856D02*
X171177676Y-88328094D01*
X171177676Y-88328094D02*
X171272914Y-88423332D01*
X171272914Y-88423332D02*
X171320533Y-88518570D01*
X119454819Y-67943333D02*
X120169104Y-67943333D01*
X120169104Y-67943333D02*
X120311961Y-67990952D01*
X120311961Y-67990952D02*
X120407200Y-68086190D01*
X120407200Y-68086190D02*
X120454819Y-68229047D01*
X120454819Y-68229047D02*
X120454819Y-68324285D01*
X119454819Y-67038571D02*
X119454819Y-67229047D01*
X119454819Y-67229047D02*
X119502438Y-67324285D01*
X119502438Y-67324285D02*
X119550057Y-67371904D01*
X119550057Y-67371904D02*
X119692914Y-67467142D01*
X119692914Y-67467142D02*
X119883390Y-67514761D01*
X119883390Y-67514761D02*
X120264342Y-67514761D01*
X120264342Y-67514761D02*
X120359580Y-67467142D01*
X120359580Y-67467142D02*
X120407200Y-67419523D01*
X120407200Y-67419523D02*
X120454819Y-67324285D01*
X120454819Y-67324285D02*
X120454819Y-67133809D01*
X120454819Y-67133809D02*
X120407200Y-67038571D01*
X120407200Y-67038571D02*
X120359580Y-66990952D01*
X120359580Y-66990952D02*
X120264342Y-66943333D01*
X120264342Y-66943333D02*
X120026247Y-66943333D01*
X120026247Y-66943333D02*
X119931009Y-66990952D01*
X119931009Y-66990952D02*
X119883390Y-67038571D01*
X119883390Y-67038571D02*
X119835771Y-67133809D01*
X119835771Y-67133809D02*
X119835771Y-67324285D01*
X119835771Y-67324285D02*
X119883390Y-67419523D01*
X119883390Y-67419523D02*
X119931009Y-67467142D01*
X119931009Y-67467142D02*
X120026247Y-67514761D01*
X152834819Y-95309523D02*
X153549104Y-95309523D01*
X153549104Y-95309523D02*
X153691961Y-95357142D01*
X153691961Y-95357142D02*
X153787200Y-95452380D01*
X153787200Y-95452380D02*
X153834819Y-95595237D01*
X153834819Y-95595237D02*
X153834819Y-95690475D01*
X152930057Y-94880951D02*
X152882438Y-94833332D01*
X152882438Y-94833332D02*
X152834819Y-94738094D01*
X152834819Y-94738094D02*
X152834819Y-94499999D01*
X152834819Y-94499999D02*
X152882438Y-94404761D01*
X152882438Y-94404761D02*
X152930057Y-94357142D01*
X152930057Y-94357142D02*
X153025295Y-94309523D01*
X153025295Y-94309523D02*
X153120533Y-94309523D01*
X153120533Y-94309523D02*
X153263390Y-94357142D01*
X153263390Y-94357142D02*
X153834819Y-94928570D01*
X153834819Y-94928570D02*
X153834819Y-94309523D01*
X152834819Y-93690475D02*
X152834819Y-93595237D01*
X152834819Y-93595237D02*
X152882438Y-93499999D01*
X152882438Y-93499999D02*
X152930057Y-93452380D01*
X152930057Y-93452380D02*
X153025295Y-93404761D01*
X153025295Y-93404761D02*
X153215771Y-93357142D01*
X153215771Y-93357142D02*
X153453866Y-93357142D01*
X153453866Y-93357142D02*
X153644342Y-93404761D01*
X153644342Y-93404761D02*
X153739580Y-93452380D01*
X153739580Y-93452380D02*
X153787200Y-93499999D01*
X153787200Y-93499999D02*
X153834819Y-93595237D01*
X153834819Y-93595237D02*
X153834819Y-93690475D01*
X153834819Y-93690475D02*
X153787200Y-93785713D01*
X153787200Y-93785713D02*
X153739580Y-93833332D01*
X153739580Y-93833332D02*
X153644342Y-93880951D01*
X153644342Y-93880951D02*
X153453866Y-93928570D01*
X153453866Y-93928570D02*
X153215771Y-93928570D01*
X153215771Y-93928570D02*
X153025295Y-93880951D01*
X153025295Y-93880951D02*
X152930057Y-93833332D01*
X152930057Y-93833332D02*
X152882438Y-93785713D01*
X152882438Y-93785713D02*
X152834819Y-93690475D01*
X176393820Y-85652511D02*
X176393820Y-84652511D01*
X176393820Y-84652511D02*
X176727153Y-85366796D01*
X176727153Y-85366796D02*
X177060486Y-84652511D01*
X177060486Y-84652511D02*
X177060486Y-85652511D01*
X177489058Y-85366796D02*
X177965248Y-85366796D01*
X177393820Y-85652511D02*
X177727153Y-84652511D01*
X177727153Y-84652511D02*
X178060486Y-85652511D01*
X178298582Y-84652511D02*
X178965248Y-85652511D01*
X178965248Y-84652511D02*
X178298582Y-85652511D01*
X179870010Y-85652511D02*
X179298582Y-85652511D01*
X179584296Y-85652511D02*
X179584296Y-84652511D01*
X179584296Y-84652511D02*
X179489058Y-84795368D01*
X179489058Y-84795368D02*
X179393820Y-84890606D01*
X179393820Y-84890606D02*
X179298582Y-84938225D01*
X180203344Y-84652511D02*
X180870010Y-84652511D01*
X180870010Y-84652511D02*
X180441439Y-85652511D01*
X181441439Y-84652511D02*
X181536677Y-84652511D01*
X181536677Y-84652511D02*
X181631915Y-84700130D01*
X181631915Y-84700130D02*
X181679534Y-84747749D01*
X181679534Y-84747749D02*
X181727153Y-84842987D01*
X181727153Y-84842987D02*
X181774772Y-85033463D01*
X181774772Y-85033463D02*
X181774772Y-85271558D01*
X181774772Y-85271558D02*
X181727153Y-85462034D01*
X181727153Y-85462034D02*
X181679534Y-85557272D01*
X181679534Y-85557272D02*
X181631915Y-85604892D01*
X181631915Y-85604892D02*
X181536677Y-85652511D01*
X181536677Y-85652511D02*
X181441439Y-85652511D01*
X181441439Y-85652511D02*
X181346201Y-85604892D01*
X181346201Y-85604892D02*
X181298582Y-85557272D01*
X181298582Y-85557272D02*
X181250963Y-85462034D01*
X181250963Y-85462034D02*
X181203344Y-85271558D01*
X181203344Y-85271558D02*
X181203344Y-85033463D01*
X181203344Y-85033463D02*
X181250963Y-84842987D01*
X181250963Y-84842987D02*
X181298582Y-84747749D01*
X181298582Y-84747749D02*
X181346201Y-84700130D01*
X181346201Y-84700130D02*
X181441439Y-84652511D01*
X182631915Y-84985844D02*
X182631915Y-85652511D01*
X182393820Y-84604892D02*
X182155725Y-85319177D01*
X182155725Y-85319177D02*
X182774772Y-85319177D01*
X183298582Y-85081082D02*
X183203344Y-85033463D01*
X183203344Y-85033463D02*
X183155725Y-84985844D01*
X183155725Y-84985844D02*
X183108106Y-84890606D01*
X183108106Y-84890606D02*
X183108106Y-84842987D01*
X183108106Y-84842987D02*
X183155725Y-84747749D01*
X183155725Y-84747749D02*
X183203344Y-84700130D01*
X183203344Y-84700130D02*
X183298582Y-84652511D01*
X183298582Y-84652511D02*
X183489058Y-84652511D01*
X183489058Y-84652511D02*
X183584296Y-84700130D01*
X183584296Y-84700130D02*
X183631915Y-84747749D01*
X183631915Y-84747749D02*
X183679534Y-84842987D01*
X183679534Y-84842987D02*
X183679534Y-84890606D01*
X183679534Y-84890606D02*
X183631915Y-84985844D01*
X183631915Y-84985844D02*
X183584296Y-85033463D01*
X183584296Y-85033463D02*
X183489058Y-85081082D01*
X183489058Y-85081082D02*
X183298582Y-85081082D01*
X183298582Y-85081082D02*
X183203344Y-85128701D01*
X183203344Y-85128701D02*
X183155725Y-85176320D01*
X183155725Y-85176320D02*
X183108106Y-85271558D01*
X183108106Y-85271558D02*
X183108106Y-85462034D01*
X183108106Y-85462034D02*
X183155725Y-85557272D01*
X183155725Y-85557272D02*
X183203344Y-85604892D01*
X183203344Y-85604892D02*
X183298582Y-85652511D01*
X183298582Y-85652511D02*
X183489058Y-85652511D01*
X183489058Y-85652511D02*
X183584296Y-85604892D01*
X183584296Y-85604892D02*
X183631915Y-85557272D01*
X183631915Y-85557272D02*
X183679534Y-85462034D01*
X183679534Y-85462034D02*
X183679534Y-85271558D01*
X183679534Y-85271558D02*
X183631915Y-85176320D01*
X183631915Y-85176320D02*
X183584296Y-85128701D01*
X183584296Y-85128701D02*
X183489058Y-85081082D01*
X144964819Y-90284523D02*
X145679104Y-90284523D01*
X145679104Y-90284523D02*
X145821961Y-90332142D01*
X145821961Y-90332142D02*
X145917200Y-90427380D01*
X145917200Y-90427380D02*
X145964819Y-90570237D01*
X145964819Y-90570237D02*
X145964819Y-90665475D01*
X145964819Y-89284523D02*
X145964819Y-89855951D01*
X145964819Y-89570237D02*
X144964819Y-89570237D01*
X144964819Y-89570237D02*
X145107676Y-89665475D01*
X145107676Y-89665475D02*
X145202914Y-89760713D01*
X145202914Y-89760713D02*
X145250533Y-89855951D01*
X144964819Y-88951189D02*
X144964819Y-88284523D01*
X144964819Y-88284523D02*
X145964819Y-88713094D01*
X132494819Y-45309523D02*
X133209104Y-45309523D01*
X133209104Y-45309523D02*
X133351961Y-45357142D01*
X133351961Y-45357142D02*
X133447200Y-45452380D01*
X133447200Y-45452380D02*
X133494819Y-45595237D01*
X133494819Y-45595237D02*
X133494819Y-45690475D01*
X132590057Y-44880951D02*
X132542438Y-44833332D01*
X132542438Y-44833332D02*
X132494819Y-44738094D01*
X132494819Y-44738094D02*
X132494819Y-44499999D01*
X132494819Y-44499999D02*
X132542438Y-44404761D01*
X132542438Y-44404761D02*
X132590057Y-44357142D01*
X132590057Y-44357142D02*
X132685295Y-44309523D01*
X132685295Y-44309523D02*
X132780533Y-44309523D01*
X132780533Y-44309523D02*
X132923390Y-44357142D01*
X132923390Y-44357142D02*
X133494819Y-44928570D01*
X133494819Y-44928570D02*
X133494819Y-44309523D01*
X132494819Y-43976189D02*
X132494819Y-43357142D01*
X132494819Y-43357142D02*
X132875771Y-43690475D01*
X132875771Y-43690475D02*
X132875771Y-43547618D01*
X132875771Y-43547618D02*
X132923390Y-43452380D01*
X132923390Y-43452380D02*
X132971009Y-43404761D01*
X132971009Y-43404761D02*
X133066247Y-43357142D01*
X133066247Y-43357142D02*
X133304342Y-43357142D01*
X133304342Y-43357142D02*
X133399580Y-43404761D01*
X133399580Y-43404761D02*
X133447200Y-43452380D01*
X133447200Y-43452380D02*
X133494819Y-43547618D01*
X133494819Y-43547618D02*
X133494819Y-43833332D01*
X133494819Y-43833332D02*
X133447200Y-43928570D01*
X133447200Y-43928570D02*
X133399580Y-43976189D01*
%TO.C,Bat_Connector1*%
D12*
X195405000Y-75595000D02*
X195405000Y-69775000D01*
X197125000Y-75595000D02*
X197125000Y-69775000D01*
X200225000Y-75595000D02*
X200225000Y-69775000D01*
X201225000Y-75595000D02*
X201225000Y-69775000D01*
X202145000Y-75595000D02*
X195405000Y-75595000D01*
X202145000Y-74255000D02*
X202145000Y-75595000D01*
X195405000Y-69775000D02*
X202145000Y-69775000D01*
X202145000Y-69775000D02*
X202145000Y-73655000D01*
X202145000Y-73955000D02*
X202755000Y-73515000D01*
X202755000Y-74395000D01*
X202145000Y-73955000D01*
G36*
X202755000Y-74395000D02*
G01*
X202145000Y-73955000D01*
X202755000Y-73515000D01*
X202755000Y-74395000D01*
G37*
%TO.C,J19*%
X134480000Y-66030000D02*
X135810000Y-66030000D01*
X134480000Y-67360000D02*
X134480000Y-66030000D01*
X137080000Y-66030000D02*
X139680000Y-66030000D01*
X137080000Y-68690000D02*
X137080000Y-66030000D01*
X137080000Y-68690000D02*
X139680000Y-68690000D01*
X139680000Y-68690000D02*
X139680000Y-66030000D01*
%TO.C,J18*%
X121780000Y-43170000D02*
X123110000Y-43170000D01*
X121780000Y-44500000D02*
X121780000Y-43170000D01*
X124380000Y-43170000D02*
X126980000Y-43170000D01*
X124380000Y-45830000D02*
X124380000Y-43170000D01*
X124380000Y-45830000D02*
X126980000Y-45830000D01*
X126980000Y-45830000D02*
X126980000Y-43170000D01*
%TO.C,J16*%
X148290000Y-60870000D02*
X149620000Y-60870000D01*
X148290000Y-62200000D02*
X148290000Y-60870000D01*
X150890000Y-60870000D02*
X163650000Y-60870000D01*
X150890000Y-63530000D02*
X150890000Y-60870000D01*
X150890000Y-63530000D02*
X163650000Y-63530000D01*
X163650000Y-63530000D02*
X163650000Y-60870000D01*
%TO.C,J21*%
X173020000Y-87760000D02*
X174350000Y-87760000D01*
X173020000Y-89090000D02*
X173020000Y-87760000D01*
X175620000Y-87760000D02*
X188380000Y-87760000D01*
X175620000Y-90420000D02*
X175620000Y-87760000D01*
X175620000Y-90420000D02*
X188380000Y-90420000D01*
X188380000Y-90420000D02*
X188380000Y-87760000D01*
%TO.C,J6*%
X121780000Y-66030000D02*
X123110000Y-66030000D01*
X121780000Y-67360000D02*
X121780000Y-66030000D01*
X124380000Y-66030000D02*
X126980000Y-66030000D01*
X124380000Y-68690000D02*
X124380000Y-66030000D01*
X124380000Y-68690000D02*
X126980000Y-68690000D01*
X126980000Y-68690000D02*
X126980000Y-66030000D01*
%TO.C,TP4056+1*%
X187630000Y-65570000D02*
X187630000Y-68230000D01*
X190230000Y-65570000D02*
X187630000Y-65570000D01*
X190230000Y-65570000D02*
X190230000Y-68230000D01*
X190230000Y-68230000D02*
X187630000Y-68230000D01*
X192830000Y-66900000D02*
X192830000Y-68230000D01*
X192830000Y-68230000D02*
X191500000Y-68230000D01*
%TO.C,J20*%
X136800000Y-93120000D02*
X136800000Y-95880000D01*
X149610000Y-93120000D02*
X136800000Y-93120000D01*
X149610000Y-93120000D02*
X149610000Y-95880000D01*
X149610000Y-95880000D02*
X136800000Y-95880000D01*
X150880000Y-93120000D02*
X152260000Y-93120000D01*
X152260000Y-93120000D02*
X152260000Y-94500000D01*
%TO.C,MAX17048*%
X178100000Y-78870000D02*
X179430000Y-78870000D01*
X178100000Y-80200000D02*
X178100000Y-78870000D01*
X180700000Y-78870000D02*
X183300000Y-78870000D01*
X180700000Y-81530000D02*
X180700000Y-78870000D01*
X180700000Y-81530000D02*
X183300000Y-81530000D01*
X183300000Y-81530000D02*
X183300000Y-78870000D01*
%TO.C,INA219-Solar+1*%
X169920000Y-42880000D02*
X173800000Y-42880000D01*
X169920000Y-49620000D02*
X169920000Y-42880000D01*
X174400000Y-42880000D02*
X175740000Y-42880000D01*
X175740000Y-42880000D02*
X175740000Y-49620000D01*
X175740000Y-43800000D02*
X169920000Y-43800000D01*
X175740000Y-44800000D02*
X169920000Y-44800000D01*
X175740000Y-47900000D02*
X169920000Y-47900000D01*
X175740000Y-49620000D02*
X169920000Y-49620000D01*
X174100000Y-42880000D02*
X173660000Y-42270000D01*
X174540000Y-42270000D01*
X174100000Y-42880000D01*
G36*
X174100000Y-42880000D02*
G01*
X173660000Y-42270000D01*
X174540000Y-42270000D01*
X174100000Y-42880000D01*
G37*
%TO.C,J17*%
X133790000Y-88145000D02*
X133790000Y-90805000D01*
X141470000Y-88145000D02*
X133790000Y-88145000D01*
X141470000Y-88145000D02*
X141470000Y-90805000D01*
X141470000Y-90805000D02*
X133790000Y-90805000D01*
X144070000Y-89475000D02*
X144070000Y-90805000D01*
X144070000Y-90805000D02*
X142740000Y-90805000D01*
%TO.C,TP4056-1*%
X177470000Y-65570000D02*
X177470000Y-68230000D01*
X180070000Y-65570000D02*
X177470000Y-65570000D01*
X180070000Y-65570000D02*
X180070000Y-68230000D01*
X180070000Y-68230000D02*
X177470000Y-68230000D01*
X182670000Y-66900000D02*
X182670000Y-68230000D01*
X182670000Y-68230000D02*
X181340000Y-68230000D01*
%TO.C,J23*%
X134480000Y-43170000D02*
X135810000Y-43170000D01*
X134480000Y-44500000D02*
X134480000Y-43170000D01*
X137080000Y-43170000D02*
X139680000Y-43170000D01*
X137080000Y-45830000D02*
X137080000Y-43170000D01*
X137080000Y-45830000D02*
X139680000Y-45830000D01*
X139680000Y-45830000D02*
X139680000Y-43170000D01*
%TO.C,stabilizer_usb_2*%
X190120000Y-42660000D02*
X191500000Y-42660000D01*
X190120000Y-44040000D02*
X190120000Y-42660000D01*
X190120000Y-45310000D02*
X190120000Y-45420000D01*
X190120000Y-45310000D02*
X192880000Y-45310000D01*
X190120000Y-45420000D02*
X192880000Y-45420000D01*
X192880000Y-45310000D02*
X192880000Y-45420000D01*
%TO.C,stabilizer_usb_1*%
X177420000Y-42660000D02*
X178800000Y-42660000D01*
X177420000Y-44040000D02*
X177420000Y-42660000D01*
X177420000Y-45310000D02*
X177420000Y-45420000D01*
X177420000Y-45310000D02*
X180180000Y-45310000D01*
X177420000Y-45420000D02*
X180180000Y-45420000D01*
X180180000Y-45310000D02*
X180180000Y-45420000D01*
%TD*%
M02*
