%TF.GenerationSoftware,KiCad,Pcbnew,10.0.3-10.0.3~ubuntu24.04.1*%
%TF.CreationDate,2026-06-16T11:24:29+02:00*%
%TF.ProjectId,_V0_3-Power_Module,5f56305f-332d-4506-9f77-65725f4d6f64,rev?*%
%TF.SameCoordinates,Original*%
%TF.FileFunction,Copper,L2,Bot*%
%TF.FilePolarity,Positive*%
%FSLAX46Y46*%
G04 Gerber Fmt 4.6, Leading zero omitted, Abs format (unit mm)*
G04 Created by KiCad (PCBNEW 10.0.3-10.0.3~ubuntu24.04.1) date 2026-06-16 11:24:29*
%MOMM*%
%LPD*%
G01*
G04 APERTURE LIST*
G04 Aperture macros list*
%AMRoundRect*
0 Rectangle with rounded corners*
0 $1 Rounding radius*
0 $2 $3 $4 $5 $6 $7 $8 $9 X,Y pos of 4 corners*
0 Add a 4 corners polygon primitive as box body*
4,1,4,$2,$3,$4,$5,$6,$7,$8,$9,$2,$3,0*
0 Add four circle primitives for the rounded corners*
1,1,$1+$1,$2,$3*
1,1,$1+$1,$4,$5*
1,1,$1+$1,$6,$7*
1,1,$1+$1,$8,$9*
0 Add four rect primitives between the rounded corners*
20,1,$1+$1,$2,$3,$4,$5,0*
20,1,$1+$1,$4,$5,$6,$7,0*
20,1,$1+$1,$6,$7,$8,$9,0*
20,1,$1+$1,$8,$9,$2,$3,0*%
G04 Aperture macros list end*
%TA.AperFunction,ComponentPad*%
%ADD10R,1.700000X1.700000*%
%TD*%
%TA.AperFunction,ComponentPad*%
%ADD11C,1.700000*%
%TD*%
%TA.AperFunction,ComponentPad*%
%ADD12RoundRect,0.250000X0.750000X0.750000X-0.750000X0.750000X-0.750000X-0.750000X0.750000X-0.750000X0*%
%TD*%
%TA.AperFunction,ComponentPad*%
%ADD13C,2.000000*%
%TD*%
%TA.AperFunction,ViaPad*%
%ADD14C,0.600000*%
%TD*%
%TA.AperFunction,Conductor*%
%ADD15C,2.000000*%
%TD*%
%TA.AperFunction,Conductor*%
%ADD16C,0.250000*%
%TD*%
G04 APERTURE END LIST*
D10*
%TO.P,J16,1,Pin_1_1*%
%TO.N,/3.3V*%
X149620000Y-62200000D03*
D11*
%TO.P,J16,2,Pin_2_2*%
%TO.N,/BATneg*%
X152160000Y-62200000D03*
%TO.P,J16,3,Pin_3_3*%
%TO.N,/SCL*%
X154700000Y-62200000D03*
%TO.P,J16,4,Pin_4_4*%
%TO.N,/SDA*%
X157240000Y-62200000D03*
%TO.P,J16,5,Pin_5_5*%
%TO.N,/Solarpos*%
X159780000Y-62200000D03*
%TO.P,J16,6,Pin_6_6*%
%TO.N,/Solar_Pos_In*%
X162320000Y-62200000D03*
%TD*%
D12*
%TO.P,INA219-Solar+1,1,Pin_1_1*%
%TO.N,/Solar_Pos_In*%
X174100000Y-46400000D03*
D13*
%TO.P,INA219-Solar+1,2,Pin_2_2*%
%TO.N,/BATneg*%
X171560000Y-46400000D03*
%TD*%
D10*
%TO.P,J19,1,Pin_1_1*%
%TO.N,/BATpos*%
X135810000Y-67360000D03*
D11*
%TO.P,J19,2,Pin_2_2*%
X138350000Y-67360000D03*
%TD*%
D10*
%TO.P,J18,1,Pin_1_1*%
%TO.N,/BATneg*%
X123110000Y-44500000D03*
D11*
%TO.P,J18,2,Pin_2_2*%
X125650000Y-44500000D03*
%TD*%
D10*
%TO.P,J21,1,Pin_1_1*%
%TO.N,/3.3V*%
X174350000Y-89090000D03*
D11*
%TO.P,J21,2,Pin_2_2*%
%TO.N,/BATneg*%
X176890000Y-89090000D03*
%TO.P,J21,3,Pin_3_3*%
%TO.N,/SCL*%
X179430000Y-89090000D03*
%TO.P,J21,4,Pin_4_4*%
%TO.N,/SDA*%
X181970000Y-89090000D03*
%TO.P,J21,5,Pin_5_5*%
%TO.N,unconnected-(J21-Pin_5-Pad5)*%
X184510000Y-89090000D03*
%TO.P,J21,6,Pin_6_6*%
%TO.N,unconnected-(J21-Pin_6-Pad6)*%
X187050000Y-89090000D03*
%TD*%
D10*
%TO.P,J6,1,Pin_1_1*%
%TO.N,/BATneg*%
X123110000Y-67360000D03*
D11*
%TO.P,J6,2,Pin_2_2*%
X125650000Y-67360000D03*
%TD*%
D10*
%TO.P,TP4056+1,1,Pin_1_1*%
%TO.N,unconnected-(TP4056+1-Pin_1-Pad1)*%
X191500000Y-66900000D03*
D11*
%TO.P,TP4056+1,2,Pin_2_2*%
%TO.N,/BATpos*%
X188960000Y-66900000D03*
%TD*%
D10*
%TO.P,J20,1,Pin_1_1*%
%TO.N,/BATneg*%
X150880000Y-95150000D03*
D11*
%TO.P,J20,2,Pin_2_2*%
X148340000Y-95150000D03*
%TO.P,J20,3,Pin_3_3*%
%TO.N,/3.3V*%
X145800000Y-95150000D03*
%TO.P,J20,4,Pin_4_4*%
X143260000Y-95150000D03*
%TO.P,J20,5,Pin_5_5*%
%TO.N,/SDA*%
X140720000Y-95150000D03*
%TO.P,J20,6,Pin_6_6*%
%TO.N,/SCL*%
X138180000Y-95150000D03*
%TD*%
D10*
%TO.P,MAX17048,1,Pin_1_1*%
%TO.N,/BATpos*%
X179430000Y-80200000D03*
D11*
%TO.P,MAX17048,2,Pin_2_2*%
%TO.N,/BATneg*%
X181970000Y-80200000D03*
%TD*%
D10*
%TO.P,J17,1,Pin_1_1*%
%TO.N,/BATpos*%
X142740000Y-89475000D03*
D11*
%TO.P,J17,2,Pin_2_2*%
%TO.N,/BATneg*%
X140200000Y-89475000D03*
%TO.P,J17,3,Pin_3_3*%
X137660000Y-89475000D03*
%TO.P,J17,4,Pin_4_4*%
%TO.N,/Solarpos*%
X135120000Y-89475000D03*
%TD*%
D10*
%TO.P,TP4056-1,1,Pin_1_1*%
%TO.N,/BATneg*%
X181340000Y-66900000D03*
D11*
%TO.P,TP4056-1,2,Pin_2_2*%
%TO.N,unconnected-(TP4056-1-Pin_2-Pad2)*%
X178800000Y-66900000D03*
%TD*%
D10*
%TO.P,J23,1,Pin_1_1*%
%TO.N,/3.3V*%
X135810000Y-44500000D03*
D11*
%TO.P,J23,2,Pin_2_2*%
X138350000Y-44500000D03*
%TD*%
D10*
%TO.P,stabilizer_usb_2,1*%
%TO.N,N/C*%
X191500000Y-44040000D03*
%TD*%
%TO.P,stabilizer_usb_1,1*%
%TO.N,N/C*%
X178800000Y-44040000D03*
%TD*%
D14*
%TO.N,/BATneg*%
X151800000Y-60200000D03*
%TO.N,/SCL*%
X161600000Y-60645800D03*
%TO.N,/BATneg*%
X154500000Y-60000000D03*
X152200000Y-64500000D03*
X147000000Y-43500000D03*
X144000000Y-55500000D03*
X156000000Y-65200000D03*
X146000000Y-51500000D03*
X169000000Y-61500000D03*
X169000000Y-43500000D03*
X143000000Y-64000000D03*
X184000000Y-96000000D03*
X167500000Y-75500000D03*
X164000000Y-67000000D03*
X122500000Y-73000000D03*
X185880000Y-55900000D03*
X124000000Y-89000000D03*
X191500000Y-72000000D03*
X170000000Y-96500000D03*
X126500000Y-47500000D03*
X188880000Y-44400000D03*
X163000000Y-87000000D03*
X124000000Y-69500000D03*
X188880000Y-64400000D03*
X181380000Y-44400000D03*
X192000000Y-89500000D03*
X180000000Y-83000000D03*
X133500000Y-96000000D03*
X134000000Y-48500000D03*
X151600000Y-69000000D03*
X177880000Y-64400000D03*
X181880000Y-63900000D03*
X130000000Y-44500000D03*
X122000000Y-47500000D03*
X129000000Y-94000000D03*
X192880000Y-63900000D03*
X126000000Y-64500000D03*
X154000000Y-67500000D03*
X130000000Y-89000000D03*
X175500000Y-77000000D03*
X159000000Y-79500000D03*
X134500000Y-97000000D03*
X145500000Y-86000000D03*
X165500000Y-69500000D03*
X122000000Y-64500000D03*
X184000000Y-93500000D03*
X184000000Y-72000000D03*
X154500000Y-97000000D03*
X169000000Y-85000000D03*
X138500000Y-76500000D03*
X174000000Y-72000000D03*
X154500000Y-94500000D03*
X149000000Y-80000000D03*
%TD*%
%TO.N,/Solarpos*%
D15*
X159780000Y-62200000D02*
X159780000Y-63982742D01*
X159780000Y-63982742D02*
X135120000Y-88642742D01*
X135120000Y-88642742D02*
X135120000Y-89475000D01*
%TO.N,/SCL*%
D16*
X161718100Y-60527700D02*
X161600000Y-60645800D01*
X165126100Y-60527700D02*
X161718100Y-60527700D01*
%TO.N,/SDA*%
X157300000Y-60020800D02*
X157240000Y-60080800D01*
X157240000Y-60080800D02*
X157240000Y-62200000D01*
%TO.N,/SCL*%
X165126100Y-60527700D02*
X176730000Y-72131600D01*
X176730000Y-72131600D02*
X176730000Y-86390000D01*
X176730000Y-86390000D02*
X179430000Y-89090000D01*
%TO.N,/3.3V*%
D15*
X145800000Y-94640300D02*
X144118200Y-92958500D01*
X144118200Y-92958500D02*
X135313800Y-92958500D01*
X135313800Y-92958500D02*
X132793000Y-90437700D01*
X132793000Y-90437700D02*
X132793000Y-87643200D01*
X132793000Y-87643200D02*
X149620000Y-70816200D01*
X149620000Y-70816200D02*
X149620000Y-62200000D01*
X149620000Y-62200000D02*
X149620000Y-57793300D01*
X149620000Y-57793300D02*
X138350000Y-46523300D01*
X138350000Y-46523300D02*
X138350000Y-44500000D01*
%TO.N,/BATpos*%
X188960000Y-66900000D02*
X185680000Y-66900000D01*
X185680000Y-66900000D02*
X179430000Y-73150000D01*
X179430000Y-73150000D02*
X179430000Y-80200000D01*
%TO.N,/SDA*%
D16*
X165271600Y-60020800D02*
X157300000Y-60020800D01*
%TO.N,/3.3V*%
D15*
X145800000Y-94640300D02*
X151350300Y-89090000D01*
X145800000Y-95150000D02*
X145800000Y-94640300D01*
X151350300Y-89090000D02*
X174350000Y-89090000D01*
%TO.N,/SDA*%
D16*
X177751800Y-84871800D02*
X177751800Y-72501000D01*
X181970000Y-89090000D02*
X177751800Y-84871800D01*
X177751800Y-72501000D02*
X165271600Y-60020800D01*
%TD*%
%TA.AperFunction,Conductor*%
%TO.N,/BATneg*%
G36*
X164882687Y-61172885D02*
G01*
X164903329Y-61189519D01*
X170251629Y-66537819D01*
X170285114Y-66599142D01*
X170280130Y-66668834D01*
X170238258Y-66724767D01*
X170172794Y-66749184D01*
X170163948Y-66749500D01*
X169978711Y-66749500D01*
X169738214Y-66781161D01*
X169503895Y-66843947D01*
X169279794Y-66936773D01*
X169279785Y-66936777D01*
X169069706Y-67058067D01*
X168877263Y-67205733D01*
X168877256Y-67205739D01*
X168705739Y-67377256D01*
X168705733Y-67377263D01*
X168558067Y-67569706D01*
X168558064Y-67569710D01*
X168558064Y-67569711D01*
X168541817Y-67597851D01*
X168436777Y-67779785D01*
X168436773Y-67779794D01*
X168343947Y-68003895D01*
X168281161Y-68238214D01*
X168249500Y-68478711D01*
X168249500Y-68721288D01*
X168281161Y-68961785D01*
X168343947Y-69196104D01*
X168436773Y-69420205D01*
X168436776Y-69420212D01*
X168558064Y-69630289D01*
X168558066Y-69630292D01*
X168558067Y-69630293D01*
X168705733Y-69822736D01*
X168705739Y-69822743D01*
X168877256Y-69994260D01*
X168877262Y-69994265D01*
X169069711Y-70141936D01*
X169279788Y-70263224D01*
X169503900Y-70356054D01*
X169738211Y-70418838D01*
X169918586Y-70442584D01*
X169978711Y-70450500D01*
X169978712Y-70450500D01*
X170221289Y-70450500D01*
X170269388Y-70444167D01*
X170461789Y-70418838D01*
X170696100Y-70356054D01*
X170920212Y-70263224D01*
X171130289Y-70141936D01*
X171322738Y-69994265D01*
X171494265Y-69822738D01*
X171641936Y-69630289D01*
X171763224Y-69420212D01*
X171856054Y-69196100D01*
X171918838Y-68961789D01*
X171950500Y-68721288D01*
X171950500Y-68536052D01*
X171970185Y-68469013D01*
X172022989Y-68423258D01*
X172092147Y-68413314D01*
X172155703Y-68442339D01*
X172162181Y-68448371D01*
X176068181Y-72354371D01*
X176101666Y-72415694D01*
X176104500Y-72442052D01*
X176104500Y-86451611D01*
X176128535Y-86572444D01*
X176128540Y-86572461D01*
X176175685Y-86686280D01*
X176175687Y-86686283D01*
X176175688Y-86686286D01*
X176209915Y-86737509D01*
X176244142Y-86788733D01*
X176331267Y-86875858D01*
X176331269Y-86875859D01*
X176341232Y-86885822D01*
X176983729Y-87528319D01*
X177017214Y-87589642D01*
X177012230Y-87659334D01*
X176970358Y-87715267D01*
X176904894Y-87739684D01*
X176896048Y-87740000D01*
X176783754Y-87740000D01*
X176573872Y-87773242D01*
X176573869Y-87773242D01*
X176371782Y-87838904D01*
X176182439Y-87935380D01*
X176128282Y-87974727D01*
X176128282Y-87974728D01*
X176760591Y-88607037D01*
X176697007Y-88624075D01*
X176582993Y-88689901D01*
X176489901Y-88782993D01*
X176424075Y-88897007D01*
X176407037Y-88960591D01*
X175736818Y-88290372D01*
X175703333Y-88229049D01*
X175700499Y-88202691D01*
X175700499Y-88192129D01*
X175700498Y-88192123D01*
X175699324Y-88181204D01*
X175694091Y-88132517D01*
X175693491Y-88130909D01*
X175643797Y-87997671D01*
X175643793Y-87997664D01*
X175557547Y-87882455D01*
X175557544Y-87882452D01*
X175442335Y-87796206D01*
X175442328Y-87796202D01*
X175307482Y-87745908D01*
X175307483Y-87745908D01*
X175247883Y-87739501D01*
X175247881Y-87739500D01*
X175247873Y-87739500D01*
X175247865Y-87739500D01*
X175034400Y-87739500D01*
X174978105Y-87725985D01*
X174925996Y-87699433D01*
X174701368Y-87626446D01*
X174468097Y-87589500D01*
X174468092Y-87589500D01*
X151232208Y-87589500D01*
X151232203Y-87589500D01*
X150998931Y-87626446D01*
X150774303Y-87699433D01*
X150563863Y-87806659D01*
X150372796Y-87945476D01*
X150372791Y-87945480D01*
X145887680Y-92430591D01*
X145826357Y-92464076D01*
X145756665Y-92459092D01*
X145712318Y-92430591D01*
X145095711Y-91813984D01*
X144904634Y-91675157D01*
X144694196Y-91567933D01*
X144469568Y-91494946D01*
X144236297Y-91458000D01*
X144236292Y-91458000D01*
X135986690Y-91458000D01*
X135919651Y-91438315D01*
X135899009Y-91421681D01*
X135572570Y-91095242D01*
X135539085Y-91033919D01*
X135544069Y-90964227D01*
X135585941Y-90908294D01*
X135621928Y-90889632D01*
X135695992Y-90865568D01*
X135906433Y-90758343D01*
X136097510Y-90619517D01*
X136264517Y-90452510D01*
X136387526Y-90283203D01*
X136387838Y-90282782D01*
X136415264Y-90262035D01*
X136442488Y-90241043D01*
X136443144Y-90240946D01*
X136443561Y-90240631D01*
X136447142Y-90240356D01*
X136497206Y-90232976D01*
X136544728Y-90236716D01*
X137177037Y-89604408D01*
X137194075Y-89667993D01*
X137259901Y-89782007D01*
X137352993Y-89875099D01*
X137467007Y-89940925D01*
X137530590Y-89957962D01*
X136898282Y-90590269D01*
X136898282Y-90590270D01*
X136952449Y-90629624D01*
X137141782Y-90726095D01*
X137343870Y-90791757D01*
X137553754Y-90825000D01*
X137766246Y-90825000D01*
X137976127Y-90791757D01*
X137976130Y-90791757D01*
X138178217Y-90726095D01*
X138367554Y-90629622D01*
X138421716Y-90590270D01*
X138421717Y-90590270D01*
X137789408Y-89957962D01*
X137852993Y-89940925D01*
X137967007Y-89875099D01*
X138060099Y-89782007D01*
X138125925Y-89667993D01*
X138142962Y-89604408D01*
X138775270Y-90236717D01*
X138775270Y-90236716D01*
X138814622Y-90182554D01*
X138819514Y-90172954D01*
X138867488Y-90122157D01*
X138935308Y-90105361D01*
X139001444Y-90127897D01*
X139040486Y-90172954D01*
X139045375Y-90182550D01*
X139084728Y-90236716D01*
X139717037Y-89604408D01*
X139734075Y-89667993D01*
X139799901Y-89782007D01*
X139892993Y-89875099D01*
X140007007Y-89940925D01*
X140070590Y-89957962D01*
X139438282Y-90590269D01*
X139438282Y-90590270D01*
X139492449Y-90629624D01*
X139681782Y-90726095D01*
X139883870Y-90791757D01*
X140093754Y-90825000D01*
X140306246Y-90825000D01*
X140516127Y-90791757D01*
X140516130Y-90791757D01*
X140718217Y-90726095D01*
X140907554Y-90629622D01*
X140961716Y-90590270D01*
X140961717Y-90590270D01*
X140329408Y-89957962D01*
X140392993Y-89940925D01*
X140507007Y-89875099D01*
X140600099Y-89782007D01*
X140665925Y-89667993D01*
X140682962Y-89604408D01*
X141353181Y-90274628D01*
X141386666Y-90335951D01*
X141389500Y-90362300D01*
X141389500Y-90372865D01*
X141389501Y-90372876D01*
X141395908Y-90432483D01*
X141446202Y-90567328D01*
X141446206Y-90567335D01*
X141532452Y-90682544D01*
X141532455Y-90682547D01*
X141647664Y-90768793D01*
X141647671Y-90768797D01*
X141782517Y-90819091D01*
X141782516Y-90819091D01*
X141789444Y-90819835D01*
X141842127Y-90825500D01*
X143637872Y-90825499D01*
X143697483Y-90819091D01*
X143832331Y-90768796D01*
X143947546Y-90682546D01*
X144033796Y-90567331D01*
X144084091Y-90432483D01*
X144090500Y-90372873D01*
X144090499Y-88577128D01*
X144084091Y-88517517D01*
X144082782Y-88514008D01*
X144033797Y-88382671D01*
X144033793Y-88382664D01*
X143947547Y-88267455D01*
X143947544Y-88267452D01*
X143832335Y-88181206D01*
X143832328Y-88181202D01*
X143697482Y-88130908D01*
X143697483Y-88130908D01*
X143637883Y-88124501D01*
X143637881Y-88124500D01*
X143637873Y-88124500D01*
X143637864Y-88124500D01*
X141842129Y-88124500D01*
X141842123Y-88124501D01*
X141782516Y-88130908D01*
X141647671Y-88181202D01*
X141647664Y-88181206D01*
X141532455Y-88267452D01*
X141532452Y-88267455D01*
X141446206Y-88382664D01*
X141446202Y-88382671D01*
X141395908Y-88517517D01*
X141389501Y-88577116D01*
X141389501Y-88577123D01*
X141389500Y-88577135D01*
X141389500Y-88587690D01*
X141369815Y-88654729D01*
X141353181Y-88675371D01*
X140682962Y-89345590D01*
X140665925Y-89282007D01*
X140600099Y-89167993D01*
X140507007Y-89074901D01*
X140392993Y-89009075D01*
X140329409Y-88992037D01*
X140961716Y-88359728D01*
X140907550Y-88320375D01*
X140718217Y-88223904D01*
X140516129Y-88158242D01*
X140306246Y-88125000D01*
X140093754Y-88125000D01*
X139883872Y-88158242D01*
X139883869Y-88158242D01*
X139681782Y-88223904D01*
X139492439Y-88320380D01*
X139438282Y-88359727D01*
X139438282Y-88359728D01*
X140070591Y-88992037D01*
X140007007Y-89009075D01*
X139892993Y-89074901D01*
X139799901Y-89167993D01*
X139734075Y-89282007D01*
X139717037Y-89345591D01*
X139084728Y-88713282D01*
X139084727Y-88713282D01*
X139045380Y-88767440D01*
X139040483Y-88777051D01*
X138992506Y-88827845D01*
X138924684Y-88844638D01*
X138858550Y-88822098D01*
X138819516Y-88777048D01*
X138814626Y-88767452D01*
X138775270Y-88713282D01*
X138775269Y-88713282D01*
X138142962Y-89345590D01*
X138125925Y-89282007D01*
X138060099Y-89167993D01*
X137967007Y-89074901D01*
X137852993Y-89009075D01*
X137789408Y-88992037D01*
X138421716Y-88359728D01*
X138367550Y-88320375D01*
X138178216Y-88223904D01*
X137980184Y-88159559D01*
X137922508Y-88120121D01*
X137895310Y-88055763D01*
X137907225Y-87986916D01*
X137930818Y-87953950D01*
X160924517Y-64960252D01*
X161063343Y-64769176D01*
X161170568Y-64558735D01*
X161194282Y-64485750D01*
X161243553Y-64334110D01*
X161280500Y-64100839D01*
X161280500Y-63357433D01*
X161300185Y-63290394D01*
X161352989Y-63244639D01*
X161422147Y-63234695D01*
X161477385Y-63257115D01*
X161557430Y-63315270D01*
X161612184Y-63355051D01*
X161801588Y-63451557D01*
X162003757Y-63517246D01*
X162213713Y-63550500D01*
X162213714Y-63550500D01*
X162426286Y-63550500D01*
X162426287Y-63550500D01*
X162636243Y-63517246D01*
X162838412Y-63451557D01*
X163027816Y-63355051D01*
X163082570Y-63315270D01*
X163199786Y-63230109D01*
X163199788Y-63230106D01*
X163199792Y-63230104D01*
X163350104Y-63079792D01*
X163350106Y-63079788D01*
X163350109Y-63079786D01*
X163475048Y-62907820D01*
X163475050Y-62907817D01*
X163475051Y-62907816D01*
X163571557Y-62718412D01*
X163637246Y-62516243D01*
X163670500Y-62306287D01*
X163670500Y-62093713D01*
X163637246Y-61883757D01*
X163571557Y-61681588D01*
X163475051Y-61492184D01*
X163371811Y-61350085D01*
X163348332Y-61284278D01*
X163364158Y-61216225D01*
X163414264Y-61167530D01*
X163472130Y-61153200D01*
X164815648Y-61153200D01*
X164882687Y-61172885D01*
G37*
%TD.AperFunction*%
%TA.AperFunction,Conductor*%
G36*
X153275270Y-62961717D02*
G01*
X153275270Y-62961716D01*
X153314622Y-62907555D01*
X153319232Y-62898507D01*
X153367205Y-62847709D01*
X153435025Y-62830912D01*
X153501161Y-62853447D01*
X153540204Y-62898504D01*
X153544949Y-62907817D01*
X153669890Y-63079786D01*
X153820213Y-63230109D01*
X153992179Y-63355048D01*
X153992181Y-63355049D01*
X153992184Y-63355051D01*
X154181588Y-63451557D01*
X154383757Y-63517246D01*
X154593713Y-63550500D01*
X154593714Y-63550500D01*
X154806286Y-63550500D01*
X154806287Y-63550500D01*
X155016243Y-63517246D01*
X155218412Y-63451557D01*
X155407816Y-63355051D01*
X155462570Y-63315270D01*
X155579786Y-63230109D01*
X155579788Y-63230106D01*
X155579792Y-63230104D01*
X155730104Y-63079792D01*
X155730106Y-63079788D01*
X155730109Y-63079786D01*
X155855048Y-62907820D01*
X155855050Y-62907817D01*
X155855051Y-62907816D01*
X155859514Y-62899054D01*
X155907488Y-62848259D01*
X155975308Y-62831463D01*
X156041444Y-62853999D01*
X156080486Y-62899056D01*
X156084951Y-62907820D01*
X156209890Y-63079786D01*
X156360213Y-63230109D01*
X156532179Y-63355048D01*
X156532181Y-63355049D01*
X156532184Y-63355051D01*
X156721588Y-63451557D01*
X156923757Y-63517246D01*
X157133713Y-63550500D01*
X157133714Y-63550500D01*
X157346286Y-63550500D01*
X157346287Y-63550500D01*
X157556243Y-63517246D01*
X157758412Y-63451557D01*
X157939063Y-63359510D01*
X158007730Y-63346615D01*
X158072470Y-63372891D01*
X158112728Y-63429997D01*
X158115720Y-63499803D01*
X158083037Y-63557677D01*
X151332181Y-70308534D01*
X151270858Y-70342019D01*
X151201166Y-70337035D01*
X151145233Y-70295163D01*
X151120816Y-70229699D01*
X151120500Y-70220853D01*
X151120500Y-63356814D01*
X151140185Y-63289775D01*
X151192989Y-63244020D01*
X151262147Y-63234076D01*
X151317385Y-63256496D01*
X151452442Y-63354620D01*
X151641782Y-63451095D01*
X151843870Y-63516757D01*
X152053754Y-63550000D01*
X152266246Y-63550000D01*
X152476127Y-63516757D01*
X152476130Y-63516757D01*
X152678217Y-63451095D01*
X152867554Y-63354622D01*
X152921716Y-63315270D01*
X152921717Y-63315270D01*
X152289409Y-62682962D01*
X152352993Y-62665925D01*
X152467007Y-62600099D01*
X152560099Y-62507007D01*
X152625925Y-62392993D01*
X152642962Y-62329408D01*
X153275270Y-62961717D01*
G37*
%TD.AperFunction*%
%TA.AperFunction,Conductor*%
G36*
X177746179Y-42520185D02*
G01*
X177791934Y-42572989D01*
X177801878Y-42642147D01*
X177772853Y-42705703D01*
X177722473Y-42740682D01*
X177707671Y-42746202D01*
X177707664Y-42746206D01*
X177592455Y-42832452D01*
X177592452Y-42832455D01*
X177506206Y-42947664D01*
X177506202Y-42947671D01*
X177455908Y-43082517D01*
X177449501Y-43142116D01*
X177449501Y-43142123D01*
X177449500Y-43142135D01*
X177449500Y-44937870D01*
X177449501Y-44937876D01*
X177455908Y-44997483D01*
X177506202Y-45132328D01*
X177506206Y-45132335D01*
X177592452Y-45247544D01*
X177592455Y-45247547D01*
X177707664Y-45333793D01*
X177707671Y-45333797D01*
X177842517Y-45384091D01*
X177842516Y-45384091D01*
X177849444Y-45384835D01*
X177902127Y-45390500D01*
X179697872Y-45390499D01*
X179757483Y-45384091D01*
X179892331Y-45333796D01*
X180007546Y-45247546D01*
X180093796Y-45132331D01*
X180144091Y-44997483D01*
X180150500Y-44937873D01*
X180150499Y-43142128D01*
X180144091Y-43082517D01*
X180093796Y-42947669D01*
X180093795Y-42947668D01*
X180093793Y-42947664D01*
X180007547Y-42832455D01*
X180007544Y-42832452D01*
X179892335Y-42746206D01*
X179892328Y-42746202D01*
X179877527Y-42740682D01*
X179821593Y-42698811D01*
X179797176Y-42633346D01*
X179812028Y-42565073D01*
X179861433Y-42515668D01*
X179920860Y-42500500D01*
X190379140Y-42500500D01*
X190446179Y-42520185D01*
X190491934Y-42572989D01*
X190501878Y-42642147D01*
X190472853Y-42705703D01*
X190422473Y-42740682D01*
X190407671Y-42746202D01*
X190407664Y-42746206D01*
X190292455Y-42832452D01*
X190292452Y-42832455D01*
X190206206Y-42947664D01*
X190206202Y-42947671D01*
X190155908Y-43082517D01*
X190149501Y-43142116D01*
X190149501Y-43142123D01*
X190149500Y-43142135D01*
X190149500Y-44937870D01*
X190149501Y-44937876D01*
X190155908Y-44997483D01*
X190206202Y-45132328D01*
X190206206Y-45132335D01*
X190292452Y-45247544D01*
X190292455Y-45247547D01*
X190407664Y-45333793D01*
X190407671Y-45333797D01*
X190542517Y-45384091D01*
X190542516Y-45384091D01*
X190549444Y-45384835D01*
X190602127Y-45390500D01*
X192397872Y-45390499D01*
X192457483Y-45384091D01*
X192592331Y-45333796D01*
X192707546Y-45247546D01*
X192793796Y-45132331D01*
X192844091Y-44997483D01*
X192850500Y-44937873D01*
X192850499Y-43142128D01*
X192844091Y-43082517D01*
X192793796Y-42947669D01*
X192793795Y-42947668D01*
X192793793Y-42947664D01*
X192707547Y-42832455D01*
X192707544Y-42832452D01*
X192592335Y-42746206D01*
X192592328Y-42746202D01*
X192577527Y-42740682D01*
X192521593Y-42698811D01*
X192497176Y-42633346D01*
X192512028Y-42565073D01*
X192561433Y-42515668D01*
X192620860Y-42500500D01*
X193875500Y-42500500D01*
X193942539Y-42520185D01*
X193988294Y-42572989D01*
X193999500Y-42624500D01*
X193999500Y-97375500D01*
X193979815Y-97442539D01*
X193927011Y-97488294D01*
X193875500Y-97499500D01*
X119124500Y-97499500D01*
X119057461Y-97479815D01*
X119011706Y-97427011D01*
X119000500Y-97375500D01*
X119000500Y-93878711D01*
X122529500Y-93878711D01*
X122529500Y-94121288D01*
X122561161Y-94361785D01*
X122623947Y-94596104D01*
X122687652Y-94749901D01*
X122716776Y-94820212D01*
X122838064Y-95030289D01*
X122838066Y-95030292D01*
X122838067Y-95030293D01*
X122985733Y-95222736D01*
X122985739Y-95222743D01*
X123157256Y-95394260D01*
X123157263Y-95394266D01*
X123251066Y-95466243D01*
X123349711Y-95541936D01*
X123559788Y-95663224D01*
X123783900Y-95756054D01*
X124018211Y-95818838D01*
X124198586Y-95842584D01*
X124258711Y-95850500D01*
X124258712Y-95850500D01*
X124501289Y-95850500D01*
X124549388Y-95844167D01*
X124741789Y-95818838D01*
X124976100Y-95756054D01*
X125200212Y-95663224D01*
X125410289Y-95541936D01*
X125602738Y-95394265D01*
X125774265Y-95222738D01*
X125921936Y-95030289D01*
X126043224Y-94820212D01*
X126136054Y-94596100D01*
X126198838Y-94361789D01*
X126230500Y-94121288D01*
X126230500Y-93878712D01*
X126198838Y-93638211D01*
X126136054Y-93403900D01*
X126043224Y-93179788D01*
X125921936Y-92969711D01*
X125774265Y-92777262D01*
X125774260Y-92777256D01*
X125602743Y-92605739D01*
X125602736Y-92605733D01*
X125410293Y-92458067D01*
X125410292Y-92458066D01*
X125410289Y-92458064D01*
X125200212Y-92336776D01*
X125200205Y-92336773D01*
X124976104Y-92243947D01*
X124741785Y-92181161D01*
X124501289Y-92149500D01*
X124501288Y-92149500D01*
X124258712Y-92149500D01*
X124258711Y-92149500D01*
X124018214Y-92181161D01*
X123783895Y-92243947D01*
X123559794Y-92336773D01*
X123559785Y-92336777D01*
X123349706Y-92458067D01*
X123157263Y-92605733D01*
X123157256Y-92605739D01*
X122985739Y-92777256D01*
X122985733Y-92777263D01*
X122838067Y-92969706D01*
X122716777Y-93179785D01*
X122716773Y-93179794D01*
X122623947Y-93403895D01*
X122561161Y-93638214D01*
X122529500Y-93878711D01*
X119000500Y-93878711D01*
X119000500Y-87525102D01*
X131292500Y-87525102D01*
X131292500Y-90555797D01*
X131329446Y-90789068D01*
X131402433Y-91013696D01*
X131509657Y-91224134D01*
X131648484Y-91415211D01*
X131648485Y-91415212D01*
X134336291Y-94103019D01*
X134336296Y-94103023D01*
X134502955Y-94224106D01*
X134527367Y-94241843D01*
X134661459Y-94310166D01*
X134737803Y-94349066D01*
X134737805Y-94349066D01*
X134737808Y-94349068D01*
X134858212Y-94388189D01*
X134962431Y-94422053D01*
X135195703Y-94459000D01*
X135195708Y-94459000D01*
X135195709Y-94459000D01*
X135431892Y-94459000D01*
X136814352Y-94459000D01*
X136881391Y-94478685D01*
X136927146Y-94531489D01*
X136937090Y-94600647D01*
X136929880Y-94626931D01*
X136929949Y-94626954D01*
X136929469Y-94628429D01*
X136928917Y-94630444D01*
X136928443Y-94631587D01*
X136862753Y-94833760D01*
X136834688Y-95010957D01*
X136829500Y-95043713D01*
X136829500Y-95256287D01*
X136862754Y-95466243D01*
X136926757Y-95663224D01*
X136928444Y-95668414D01*
X137024951Y-95857820D01*
X137149890Y-96029786D01*
X137300213Y-96180109D01*
X137472179Y-96305048D01*
X137472181Y-96305049D01*
X137472184Y-96305051D01*
X137661588Y-96401557D01*
X137863757Y-96467246D01*
X138073713Y-96500500D01*
X138073714Y-96500500D01*
X138286286Y-96500500D01*
X138286287Y-96500500D01*
X138496243Y-96467246D01*
X138698412Y-96401557D01*
X138887816Y-96305051D01*
X138974471Y-96242093D01*
X139059786Y-96180109D01*
X139059788Y-96180106D01*
X139059792Y-96180104D01*
X139210104Y-96029792D01*
X139210106Y-96029788D01*
X139210109Y-96029786D01*
X139335048Y-95857820D01*
X139335047Y-95857820D01*
X139335051Y-95857816D01*
X139339514Y-95849054D01*
X139387488Y-95798259D01*
X139455308Y-95781463D01*
X139521444Y-95803999D01*
X139560484Y-95849054D01*
X139564591Y-95857115D01*
X139564951Y-95857820D01*
X139689890Y-96029786D01*
X139840213Y-96180109D01*
X140012179Y-96305048D01*
X140012181Y-96305049D01*
X140012184Y-96305051D01*
X140201588Y-96401557D01*
X140403757Y-96467246D01*
X140613713Y-96500500D01*
X140613714Y-96500500D01*
X140826286Y-96500500D01*
X140826287Y-96500500D01*
X141036243Y-96467246D01*
X141238412Y-96401557D01*
X141427816Y-96305051D01*
X141514471Y-96242093D01*
X141599786Y-96180109D01*
X141599788Y-96180106D01*
X141599792Y-96180104D01*
X141750104Y-96029792D01*
X141750106Y-96029788D01*
X141750109Y-96029786D01*
X141875048Y-95857820D01*
X141875047Y-95857820D01*
X141875051Y-95857816D01*
X141879514Y-95849054D01*
X141927488Y-95798259D01*
X141995308Y-95781463D01*
X142061444Y-95803999D01*
X142100484Y-95849054D01*
X142104591Y-95857115D01*
X142104951Y-95857820D01*
X142229890Y-96029786D01*
X142380213Y-96180109D01*
X142552179Y-96305048D01*
X142552181Y-96305049D01*
X142552184Y-96305051D01*
X142741588Y-96401557D01*
X142943757Y-96467246D01*
X143153713Y-96500500D01*
X143153714Y-96500500D01*
X143366286Y-96500500D01*
X143366287Y-96500500D01*
X143576243Y-96467246D01*
X143778412Y-96401557D01*
X143967816Y-96305051D01*
X144054471Y-96242093D01*
X144139786Y-96180109D01*
X144139788Y-96180106D01*
X144139792Y-96180104D01*
X144290104Y-96029792D01*
X144336976Y-95965278D01*
X144392306Y-95922611D01*
X144461919Y-95916632D01*
X144523714Y-95949237D01*
X144537611Y-95965274D01*
X144655483Y-96127510D01*
X144822490Y-96294517D01*
X145013567Y-96433343D01*
X145112991Y-96484002D01*
X145224003Y-96540566D01*
X145224005Y-96540566D01*
X145224008Y-96540568D01*
X145344412Y-96579689D01*
X145448631Y-96613553D01*
X145681903Y-96650500D01*
X145681908Y-96650500D01*
X145918097Y-96650500D01*
X146151368Y-96613553D01*
X146375992Y-96540568D01*
X146586433Y-96433343D01*
X146777510Y-96294517D01*
X146944517Y-96127510D01*
X147067526Y-95958203D01*
X147067838Y-95957782D01*
X147095264Y-95937035D01*
X147122488Y-95916043D01*
X147123144Y-95915946D01*
X147123561Y-95915631D01*
X147127142Y-95915356D01*
X147177206Y-95907976D01*
X147224728Y-95911716D01*
X147857037Y-95279408D01*
X147874075Y-95342993D01*
X147939901Y-95457007D01*
X148032993Y-95550099D01*
X148147007Y-95615925D01*
X148210590Y-95632962D01*
X147578282Y-96265269D01*
X147578282Y-96265270D01*
X147632449Y-96304624D01*
X147821782Y-96401095D01*
X148023870Y-96466757D01*
X148233754Y-96500000D01*
X148446246Y-96500000D01*
X148656127Y-96466757D01*
X148656130Y-96466757D01*
X148858217Y-96401095D01*
X149047554Y-96304622D01*
X149101716Y-96265270D01*
X149101717Y-96265270D01*
X148469408Y-95632962D01*
X148532993Y-95615925D01*
X148647007Y-95550099D01*
X148740099Y-95457007D01*
X148805925Y-95342993D01*
X148822962Y-95279408D01*
X149492356Y-95948803D01*
X149525841Y-96010126D01*
X149524926Y-96024831D01*
X149527497Y-96024555D01*
X149536401Y-96107373D01*
X149536403Y-96107380D01*
X149586645Y-96242086D01*
X149586649Y-96242093D01*
X149672809Y-96357187D01*
X149672812Y-96357190D01*
X149787906Y-96443350D01*
X149787913Y-96443354D01*
X149922620Y-96493596D01*
X149922627Y-96493598D01*
X149982155Y-96499999D01*
X149982172Y-96500000D01*
X150630000Y-96500000D01*
X150630000Y-95583012D01*
X150687007Y-95615925D01*
X150814174Y-95650000D01*
X150945826Y-95650000D01*
X151072993Y-95615925D01*
X151130000Y-95583012D01*
X151130000Y-96500000D01*
X151777828Y-96500000D01*
X151777844Y-96499999D01*
X151837372Y-96493598D01*
X151837379Y-96493596D01*
X151972086Y-96443354D01*
X151972093Y-96443350D01*
X152087187Y-96357190D01*
X152087190Y-96357187D01*
X152173350Y-96242093D01*
X152173354Y-96242086D01*
X152223596Y-96107379D01*
X152223598Y-96107372D01*
X152229999Y-96047844D01*
X152230000Y-96047827D01*
X152230000Y-95400000D01*
X151313012Y-95400000D01*
X151345925Y-95342993D01*
X151380000Y-95215826D01*
X151380000Y-95084174D01*
X151345925Y-94957007D01*
X151313012Y-94900000D01*
X152230000Y-94900000D01*
X152230000Y-94252172D01*
X152229999Y-94252155D01*
X152223598Y-94192627D01*
X152223596Y-94192620D01*
X152173354Y-94057913D01*
X152173353Y-94057911D01*
X152091795Y-93948964D01*
X152087186Y-93942809D01*
X152001564Y-93878711D01*
X188569500Y-93878711D01*
X188569500Y-94121288D01*
X188601161Y-94361785D01*
X188663947Y-94596104D01*
X188727652Y-94749901D01*
X188756776Y-94820212D01*
X188878064Y-95030289D01*
X188878066Y-95030292D01*
X188878067Y-95030293D01*
X189025733Y-95222736D01*
X189025739Y-95222743D01*
X189197256Y-95394260D01*
X189197263Y-95394266D01*
X189291066Y-95466243D01*
X189389711Y-95541936D01*
X189599788Y-95663224D01*
X189823900Y-95756054D01*
X190058211Y-95818838D01*
X190238586Y-95842584D01*
X190298711Y-95850500D01*
X190298712Y-95850500D01*
X190541289Y-95850500D01*
X190589388Y-95844167D01*
X190781789Y-95818838D01*
X191016100Y-95756054D01*
X191240212Y-95663224D01*
X191450289Y-95541936D01*
X191642738Y-95394265D01*
X191814265Y-95222738D01*
X191961936Y-95030289D01*
X192083224Y-94820212D01*
X192176054Y-94596100D01*
X192238838Y-94361789D01*
X192270500Y-94121288D01*
X192270500Y-93878712D01*
X192238838Y-93638211D01*
X192176054Y-93403900D01*
X192083224Y-93179788D01*
X191961936Y-92969711D01*
X191814265Y-92777262D01*
X191814260Y-92777256D01*
X191642743Y-92605739D01*
X191642736Y-92605733D01*
X191450293Y-92458067D01*
X191450292Y-92458066D01*
X191450289Y-92458064D01*
X191240212Y-92336776D01*
X191240205Y-92336773D01*
X191016104Y-92243947D01*
X190781785Y-92181161D01*
X190541289Y-92149500D01*
X190541288Y-92149500D01*
X190298712Y-92149500D01*
X190298711Y-92149500D01*
X190058214Y-92181161D01*
X189823895Y-92243947D01*
X189599794Y-92336773D01*
X189599785Y-92336777D01*
X189389706Y-92458067D01*
X189197263Y-92605733D01*
X189197256Y-92605739D01*
X189025739Y-92777256D01*
X189025733Y-92777263D01*
X188878067Y-92969706D01*
X188756777Y-93179785D01*
X188756773Y-93179794D01*
X188663947Y-93403895D01*
X188601161Y-93638214D01*
X188569500Y-93878711D01*
X152001564Y-93878711D01*
X151972093Y-93856649D01*
X151972086Y-93856645D01*
X151837379Y-93806403D01*
X151837372Y-93806401D01*
X151777844Y-93800000D01*
X151130000Y-93800000D01*
X151130000Y-94716988D01*
X151072993Y-94684075D01*
X150945826Y-94650000D01*
X150814174Y-94650000D01*
X150687007Y-94684075D01*
X150630000Y-94716988D01*
X150630000Y-93800000D01*
X149982155Y-93800000D01*
X149922627Y-93806401D01*
X149922620Y-93806403D01*
X149787913Y-93856645D01*
X149787906Y-93856649D01*
X149672812Y-93942809D01*
X149672809Y-93942812D01*
X149586649Y-94057906D01*
X149586645Y-94057913D01*
X149536403Y-94192619D01*
X149536401Y-94192626D01*
X149527497Y-94275444D01*
X149524434Y-94275114D01*
X149525336Y-94292094D01*
X149492356Y-94351195D01*
X148822962Y-95020590D01*
X148805925Y-94957007D01*
X148740099Y-94842993D01*
X148647007Y-94749901D01*
X148532993Y-94684075D01*
X148469408Y-94667037D01*
X149101716Y-94034728D01*
X149047550Y-93995375D01*
X148881242Y-93910636D01*
X148830446Y-93862661D01*
X148813651Y-93794840D01*
X148836189Y-93728705D01*
X148849848Y-93712478D01*
X151935509Y-90626819D01*
X151996832Y-90593334D01*
X152023190Y-90590500D01*
X174468097Y-90590500D01*
X174701368Y-90553553D01*
X174925992Y-90480568D01*
X174978107Y-90454014D01*
X175034401Y-90440499D01*
X175247871Y-90440499D01*
X175247872Y-90440499D01*
X175307483Y-90434091D01*
X175442331Y-90383796D01*
X175557546Y-90297546D01*
X175643796Y-90182331D01*
X175694091Y-90047483D01*
X175700500Y-89987873D01*
X175700499Y-89963979D01*
X175703330Y-89950963D01*
X175713940Y-89931525D01*
X175720179Y-89910275D01*
X175736803Y-89889643D01*
X175736808Y-89889636D01*
X175736811Y-89889634D01*
X175736818Y-89889626D01*
X176407037Y-89219408D01*
X176424075Y-89282993D01*
X176489901Y-89397007D01*
X176582993Y-89490099D01*
X176697007Y-89555925D01*
X176760590Y-89572962D01*
X176128282Y-90205269D01*
X176128282Y-90205270D01*
X176182449Y-90244624D01*
X176371782Y-90341095D01*
X176573870Y-90406757D01*
X176783754Y-90440000D01*
X176996246Y-90440000D01*
X177206127Y-90406757D01*
X177206130Y-90406757D01*
X177408217Y-90341095D01*
X177597554Y-90244622D01*
X177651716Y-90205270D01*
X177651717Y-90205270D01*
X177019408Y-89572962D01*
X177082993Y-89555925D01*
X177197007Y-89490099D01*
X177290099Y-89397007D01*
X177355925Y-89282993D01*
X177372962Y-89219408D01*
X178005270Y-89851717D01*
X178005270Y-89851716D01*
X178044622Y-89797555D01*
X178049232Y-89788507D01*
X178097205Y-89737709D01*
X178165025Y-89720912D01*
X178231161Y-89743447D01*
X178270204Y-89788504D01*
X178274949Y-89797817D01*
X178399890Y-89969786D01*
X178550213Y-90120109D01*
X178722179Y-90245048D01*
X178722181Y-90245049D01*
X178722184Y-90245051D01*
X178911588Y-90341557D01*
X179113757Y-90407246D01*
X179323713Y-90440500D01*
X179323714Y-90440500D01*
X179536286Y-90440500D01*
X179536287Y-90440500D01*
X179746243Y-90407246D01*
X179948412Y-90341557D01*
X180137816Y-90245051D01*
X180192572Y-90205269D01*
X180309786Y-90120109D01*
X180309788Y-90120106D01*
X180309792Y-90120104D01*
X180460104Y-89969792D01*
X180460106Y-89969788D01*
X180460109Y-89969786D01*
X180585048Y-89797820D01*
X180585050Y-89797817D01*
X180585051Y-89797816D01*
X180589514Y-89789054D01*
X180637488Y-89738259D01*
X180705308Y-89721463D01*
X180771444Y-89743999D01*
X180810486Y-89789056D01*
X180814951Y-89797820D01*
X180939890Y-89969786D01*
X181090213Y-90120109D01*
X181262179Y-90245048D01*
X181262181Y-90245049D01*
X181262184Y-90245051D01*
X181451588Y-90341557D01*
X181653757Y-90407246D01*
X181863713Y-90440500D01*
X181863714Y-90440500D01*
X182076286Y-90440500D01*
X182076287Y-90440500D01*
X182286243Y-90407246D01*
X182488412Y-90341557D01*
X182677816Y-90245051D01*
X182732572Y-90205269D01*
X182849786Y-90120109D01*
X182849788Y-90120106D01*
X182849792Y-90120104D01*
X183000104Y-89969792D01*
X183000106Y-89969788D01*
X183000109Y-89969786D01*
X183125048Y-89797820D01*
X183125050Y-89797817D01*
X183125051Y-89797816D01*
X183129514Y-89789054D01*
X183177488Y-89738259D01*
X183245308Y-89721463D01*
X183311444Y-89743999D01*
X183350486Y-89789056D01*
X183354951Y-89797820D01*
X183479890Y-89969786D01*
X183630213Y-90120109D01*
X183802179Y-90245048D01*
X183802181Y-90245049D01*
X183802184Y-90245051D01*
X183991588Y-90341557D01*
X184193757Y-90407246D01*
X184403713Y-90440500D01*
X184403714Y-90440500D01*
X184616286Y-90440500D01*
X184616287Y-90440500D01*
X184826243Y-90407246D01*
X185028412Y-90341557D01*
X185217816Y-90245051D01*
X185272572Y-90205269D01*
X185389786Y-90120109D01*
X185389788Y-90120106D01*
X185389792Y-90120104D01*
X185540104Y-89969792D01*
X185540106Y-89969788D01*
X185540109Y-89969786D01*
X185665048Y-89797820D01*
X185665050Y-89797817D01*
X185665051Y-89797816D01*
X185669514Y-89789054D01*
X185717488Y-89738259D01*
X185785308Y-89721463D01*
X185851444Y-89743999D01*
X185890486Y-89789056D01*
X185894951Y-89797820D01*
X186019890Y-89969786D01*
X186170213Y-90120109D01*
X186342179Y-90245048D01*
X186342181Y-90245049D01*
X186342184Y-90245051D01*
X186531588Y-90341557D01*
X186733757Y-90407246D01*
X186943713Y-90440500D01*
X186943714Y-90440500D01*
X187156286Y-90440500D01*
X187156287Y-90440500D01*
X187366243Y-90407246D01*
X187568412Y-90341557D01*
X187757816Y-90245051D01*
X187812572Y-90205269D01*
X187929786Y-90120109D01*
X187929788Y-90120106D01*
X187929792Y-90120104D01*
X188080104Y-89969792D01*
X188080106Y-89969788D01*
X188080109Y-89969786D01*
X188205048Y-89797820D01*
X188205050Y-89797817D01*
X188205051Y-89797816D01*
X188301557Y-89608412D01*
X188367246Y-89406243D01*
X188400500Y-89196287D01*
X188400500Y-88983713D01*
X188367246Y-88773757D01*
X188301557Y-88571588D01*
X188205051Y-88382184D01*
X188205049Y-88382181D01*
X188205048Y-88382179D01*
X188080109Y-88210213D01*
X187929786Y-88059890D01*
X187757820Y-87934951D01*
X187568414Y-87838444D01*
X187568413Y-87838443D01*
X187568412Y-87838443D01*
X187366243Y-87772754D01*
X187366241Y-87772753D01*
X187366240Y-87772753D01*
X187204957Y-87747208D01*
X187156287Y-87739500D01*
X186943713Y-87739500D01*
X186895042Y-87747208D01*
X186733760Y-87772753D01*
X186531585Y-87838444D01*
X186342179Y-87934951D01*
X186170213Y-88059890D01*
X186019890Y-88210213D01*
X185894949Y-88382182D01*
X185890484Y-88390946D01*
X185842509Y-88441742D01*
X185774688Y-88458536D01*
X185708553Y-88435998D01*
X185669516Y-88390946D01*
X185665050Y-88382182D01*
X185540109Y-88210213D01*
X185389786Y-88059890D01*
X185217820Y-87934951D01*
X185028414Y-87838444D01*
X185028413Y-87838443D01*
X185028412Y-87838443D01*
X184826243Y-87772754D01*
X184826241Y-87772753D01*
X184826240Y-87772753D01*
X184664957Y-87747208D01*
X184616287Y-87739500D01*
X184403713Y-87739500D01*
X184355042Y-87747208D01*
X184193760Y-87772753D01*
X183991585Y-87838444D01*
X183802179Y-87934951D01*
X183630213Y-88059890D01*
X183479890Y-88210213D01*
X183354949Y-88382182D01*
X183350484Y-88390946D01*
X183302509Y-88441742D01*
X183234688Y-88458536D01*
X183168553Y-88435998D01*
X183129516Y-88390946D01*
X183125050Y-88382182D01*
X183000109Y-88210213D01*
X182849786Y-88059890D01*
X182677820Y-87934951D01*
X182488414Y-87838444D01*
X182488413Y-87838443D01*
X182488412Y-87838443D01*
X182286243Y-87772754D01*
X182286241Y-87772753D01*
X182286240Y-87772753D01*
X182124957Y-87747208D01*
X182076287Y-87739500D01*
X181863713Y-87739500D01*
X181823255Y-87745908D01*
X181653753Y-87772754D01*
X181638160Y-87777821D01*
X181568319Y-87779816D01*
X181512162Y-87747571D01*
X178413619Y-84649028D01*
X178380134Y-84587705D01*
X178377300Y-84561347D01*
X178377300Y-81671899D01*
X178380037Y-81662577D01*
X178378757Y-81652947D01*
X178389719Y-81629603D01*
X178396985Y-81604860D01*
X178404327Y-81598497D01*
X178408457Y-81589704D01*
X178430300Y-81575992D01*
X178449789Y-81559105D01*
X178460981Y-81556732D01*
X178467633Y-81552557D01*
X178489260Y-81550737D01*
X178502620Y-81547906D01*
X178508591Y-81547969D01*
X178532127Y-81550500D01*
X178746272Y-81550499D01*
X178746919Y-81550506D01*
X178751679Y-81551958D01*
X178801893Y-81564014D01*
X178854008Y-81590568D01*
X179035059Y-81649395D01*
X179078631Y-81663553D01*
X179311903Y-81700500D01*
X179311908Y-81700500D01*
X179548097Y-81700500D01*
X179781368Y-81663553D01*
X179784372Y-81662577D01*
X180005992Y-81590568D01*
X180058107Y-81564014D01*
X180114401Y-81550499D01*
X180327871Y-81550499D01*
X180327872Y-81550499D01*
X180387483Y-81544091D01*
X180522331Y-81493796D01*
X180637546Y-81407546D01*
X180723796Y-81292331D01*
X180774091Y-81157483D01*
X180780500Y-81097873D01*
X180780499Y-81073979D01*
X180783330Y-81060963D01*
X180793940Y-81041525D01*
X180800179Y-81020275D01*
X180816803Y-80999643D01*
X180816808Y-80999636D01*
X180816811Y-80999634D01*
X180816818Y-80999626D01*
X181487037Y-80329408D01*
X181504075Y-80392993D01*
X181569901Y-80507007D01*
X181662993Y-80600099D01*
X181777007Y-80665925D01*
X181840590Y-80682962D01*
X181208282Y-81315269D01*
X181208282Y-81315270D01*
X181262449Y-81354624D01*
X181451782Y-81451095D01*
X181653870Y-81516757D01*
X181863754Y-81550000D01*
X182076246Y-81550000D01*
X182286127Y-81516757D01*
X182286130Y-81516757D01*
X182488217Y-81451095D01*
X182677554Y-81354622D01*
X182731716Y-81315270D01*
X182731717Y-81315270D01*
X182099408Y-80682962D01*
X182162993Y-80665925D01*
X182277007Y-80600099D01*
X182370099Y-80507007D01*
X182435925Y-80392993D01*
X182452962Y-80329409D01*
X183085270Y-80961717D01*
X183085270Y-80961716D01*
X183124622Y-80907554D01*
X183221095Y-80718217D01*
X183286757Y-80516130D01*
X183286757Y-80516127D01*
X183320000Y-80306246D01*
X183320000Y-80093753D01*
X183286757Y-79883872D01*
X183286757Y-79883869D01*
X183221095Y-79681782D01*
X183124624Y-79492449D01*
X183085270Y-79438282D01*
X183085269Y-79438282D01*
X182452962Y-80070590D01*
X182435925Y-80007007D01*
X182370099Y-79892993D01*
X182277007Y-79799901D01*
X182162993Y-79734075D01*
X182099408Y-79717037D01*
X182731716Y-79084728D01*
X182677550Y-79045375D01*
X182488217Y-78948904D01*
X182286129Y-78883242D01*
X182076246Y-78850000D01*
X181863754Y-78850000D01*
X181653872Y-78883242D01*
X181653869Y-78883242D01*
X181451782Y-78948904D01*
X181262442Y-79045379D01*
X181127385Y-79143503D01*
X181061579Y-79166983D01*
X180993525Y-79151157D01*
X180944830Y-79101051D01*
X180930500Y-79043185D01*
X180930500Y-73822889D01*
X180950185Y-73755850D01*
X180966819Y-73735208D01*
X186265209Y-68436819D01*
X186326532Y-68403334D01*
X186352890Y-68400500D01*
X189078097Y-68400500D01*
X189311368Y-68363553D01*
X189535992Y-68290568D01*
X189746433Y-68183343D01*
X189937510Y-68044517D01*
X190012610Y-67969416D01*
X190073929Y-67935934D01*
X190143621Y-67940918D01*
X190199555Y-67982789D01*
X190202562Y-67987467D01*
X190292452Y-68107544D01*
X190292455Y-68107547D01*
X190407664Y-68193793D01*
X190407671Y-68193797D01*
X190542517Y-68244091D01*
X190542516Y-68244091D01*
X190549444Y-68244835D01*
X190602127Y-68250500D01*
X192397872Y-68250499D01*
X192457483Y-68244091D01*
X192592331Y-68193796D01*
X192707546Y-68107546D01*
X192793796Y-67992331D01*
X192844091Y-67857483D01*
X192850500Y-67797873D01*
X192850499Y-66002128D01*
X192844091Y-65942517D01*
X192836621Y-65922490D01*
X192793797Y-65807671D01*
X192793793Y-65807664D01*
X192707547Y-65692455D01*
X192707544Y-65692452D01*
X192592335Y-65606206D01*
X192592328Y-65606202D01*
X192457482Y-65555908D01*
X192457483Y-65555908D01*
X192397883Y-65549501D01*
X192397881Y-65549500D01*
X192397873Y-65549500D01*
X192397864Y-65549500D01*
X190602129Y-65549500D01*
X190602123Y-65549501D01*
X190542516Y-65555908D01*
X190407671Y-65606202D01*
X190407664Y-65606206D01*
X190292455Y-65692452D01*
X190292452Y-65692455D01*
X190200888Y-65814769D01*
X190198485Y-65812970D01*
X190159677Y-65851752D01*
X190091399Y-65866580D01*
X190025943Y-65842140D01*
X190012607Y-65830580D01*
X189937512Y-65755485D01*
X189937510Y-65755483D01*
X189746433Y-65616657D01*
X189726791Y-65606649D01*
X189535996Y-65509433D01*
X189311368Y-65436446D01*
X189078097Y-65399500D01*
X189078092Y-65399500D01*
X185798092Y-65399500D01*
X185561908Y-65399500D01*
X185561903Y-65399500D01*
X185328631Y-65436446D01*
X185104003Y-65509433D01*
X184893563Y-65616659D01*
X184702496Y-65755476D01*
X184702491Y-65755480D01*
X182901681Y-67556291D01*
X182840358Y-67589776D01*
X182770666Y-67584792D01*
X182714733Y-67542920D01*
X182690316Y-67477456D01*
X182690000Y-67468610D01*
X182690000Y-67150000D01*
X181773012Y-67150000D01*
X181805925Y-67092993D01*
X181840000Y-66965826D01*
X181840000Y-66834174D01*
X181805925Y-66707007D01*
X181773012Y-66650000D01*
X182690000Y-66650000D01*
X182690000Y-66002172D01*
X182689999Y-66002155D01*
X182683598Y-65942627D01*
X182683596Y-65942620D01*
X182633354Y-65807913D01*
X182633350Y-65807906D01*
X182547190Y-65692812D01*
X182547187Y-65692809D01*
X182432093Y-65606649D01*
X182432086Y-65606645D01*
X182297379Y-65556403D01*
X182297372Y-65556401D01*
X182237844Y-65550000D01*
X181590000Y-65550000D01*
X181590000Y-66466988D01*
X181532993Y-66434075D01*
X181405826Y-66400000D01*
X181274174Y-66400000D01*
X181147007Y-66434075D01*
X181090000Y-66466988D01*
X181090000Y-65550000D01*
X180442155Y-65550000D01*
X180382627Y-65556401D01*
X180382620Y-65556403D01*
X180247913Y-65606645D01*
X180247906Y-65606649D01*
X180132812Y-65692809D01*
X180132809Y-65692812D01*
X180046649Y-65807906D01*
X180046646Y-65807912D01*
X179997577Y-65939471D01*
X179955705Y-65995404D01*
X179890241Y-66019821D01*
X179821968Y-66004969D01*
X179793714Y-65983818D01*
X179679786Y-65869890D01*
X179507820Y-65744951D01*
X179318414Y-65648444D01*
X179318413Y-65648443D01*
X179318412Y-65648443D01*
X179116243Y-65582754D01*
X179116241Y-65582753D01*
X179116240Y-65582753D01*
X178954957Y-65557208D01*
X178906287Y-65549500D01*
X178693713Y-65549500D01*
X178645042Y-65557208D01*
X178483760Y-65582753D01*
X178281585Y-65648444D01*
X178092179Y-65744951D01*
X177920213Y-65869890D01*
X177769890Y-66020213D01*
X177644951Y-66192179D01*
X177548444Y-66381585D01*
X177482753Y-66583760D01*
X177460420Y-66724767D01*
X177449500Y-66793713D01*
X177449500Y-67006287D01*
X177455453Y-67043872D01*
X177481089Y-67205735D01*
X177482754Y-67216243D01*
X177535072Y-67377262D01*
X177548444Y-67418414D01*
X177644951Y-67607820D01*
X177769890Y-67779786D01*
X177920213Y-67930109D01*
X178092179Y-68055048D01*
X178092181Y-68055049D01*
X178092184Y-68055051D01*
X178281588Y-68151557D01*
X178483757Y-68217246D01*
X178693713Y-68250500D01*
X178693714Y-68250500D01*
X178906286Y-68250500D01*
X178906287Y-68250500D01*
X179116243Y-68217246D01*
X179318412Y-68151557D01*
X179507816Y-68055051D01*
X179679792Y-67930104D01*
X179793717Y-67816178D01*
X179855036Y-67782696D01*
X179924728Y-67787680D01*
X179980662Y-67829551D01*
X179997577Y-67860528D01*
X180046646Y-67992088D01*
X180046649Y-67992093D01*
X180132809Y-68107187D01*
X180132812Y-68107190D01*
X180247906Y-68193350D01*
X180247913Y-68193354D01*
X180382620Y-68243596D01*
X180382627Y-68243598D01*
X180442155Y-68249999D01*
X180442172Y-68250000D01*
X181090000Y-68250000D01*
X181090000Y-67333012D01*
X181147007Y-67365925D01*
X181274174Y-67400000D01*
X181405826Y-67400000D01*
X181532993Y-67365925D01*
X181590000Y-67333012D01*
X181590000Y-68250000D01*
X181908610Y-68250000D01*
X181975649Y-68269685D01*
X182021404Y-68322489D01*
X182031348Y-68391647D01*
X182002323Y-68455203D01*
X181996291Y-68461681D01*
X178384363Y-72073609D01*
X178376418Y-72077946D01*
X178370994Y-72085194D01*
X178346231Y-72094430D01*
X178323040Y-72107094D01*
X178314011Y-72106448D01*
X178305530Y-72109612D01*
X178279708Y-72103995D01*
X178253348Y-72102110D01*
X178244294Y-72096291D01*
X178237257Y-72094761D01*
X178209013Y-72073618D01*
X178209002Y-72073611D01*
X178209000Y-72073609D01*
X178150533Y-72015142D01*
X178150529Y-72015139D01*
X165757460Y-59622070D01*
X165757458Y-59622067D01*
X165670333Y-59534942D01*
X165619109Y-59500715D01*
X165567886Y-59466488D01*
X165567883Y-59466486D01*
X165567880Y-59466485D01*
X165494203Y-59435968D01*
X165494201Y-59435967D01*
X165487392Y-59433147D01*
X165454052Y-59419337D01*
X165393629Y-59407318D01*
X165388906Y-59406378D01*
X165388904Y-59406378D01*
X165333210Y-59395300D01*
X165333207Y-59395300D01*
X165333206Y-59395300D01*
X157361607Y-59395300D01*
X157238393Y-59395300D01*
X157238389Y-59395300D01*
X157187535Y-59405415D01*
X157187530Y-59405416D01*
X157177971Y-59407318D01*
X157117548Y-59419337D01*
X157070397Y-59438867D01*
X157003715Y-59466488D01*
X157003714Y-59466489D01*
X156981347Y-59481433D01*
X156981344Y-59481435D01*
X156901268Y-59534940D01*
X156844001Y-59592208D01*
X156841267Y-59594942D01*
X156754142Y-59682067D01*
X156725780Y-59724514D01*
X156721161Y-59731427D01*
X156685687Y-59784514D01*
X156669811Y-59822844D01*
X156660510Y-59845300D01*
X156638538Y-59898344D01*
X156638535Y-59898356D01*
X156614500Y-60019189D01*
X156614500Y-60927019D01*
X156594815Y-60994058D01*
X156546797Y-61037503D01*
X156532180Y-61044950D01*
X156360213Y-61169890D01*
X156209890Y-61320213D01*
X156084949Y-61492182D01*
X156080484Y-61500946D01*
X156032509Y-61551742D01*
X155964688Y-61568536D01*
X155898553Y-61545998D01*
X155859516Y-61500946D01*
X155855050Y-61492182D01*
X155730109Y-61320213D01*
X155579786Y-61169890D01*
X155407820Y-61044951D01*
X155218414Y-60948444D01*
X155218413Y-60948443D01*
X155218412Y-60948443D01*
X155016243Y-60882754D01*
X155016241Y-60882753D01*
X155016240Y-60882753D01*
X154818933Y-60851503D01*
X154806287Y-60849500D01*
X154593713Y-60849500D01*
X154581067Y-60851503D01*
X154383760Y-60882753D01*
X154181585Y-60948444D01*
X153992179Y-61044951D01*
X153820213Y-61169890D01*
X153669890Y-61320213D01*
X153544949Y-61492182D01*
X153540202Y-61501499D01*
X153492227Y-61552293D01*
X153424405Y-61569087D01*
X153358271Y-61546548D01*
X153319234Y-61501495D01*
X153314626Y-61492452D01*
X153275270Y-61438282D01*
X153275269Y-61438282D01*
X152642962Y-62070590D01*
X152625925Y-62007007D01*
X152560099Y-61892993D01*
X152467007Y-61799901D01*
X152352993Y-61734075D01*
X152289407Y-61717036D01*
X152921716Y-61084728D01*
X152867550Y-61045375D01*
X152678217Y-60948904D01*
X152476129Y-60883242D01*
X152266246Y-60850000D01*
X152053754Y-60850000D01*
X151843872Y-60883242D01*
X151843869Y-60883242D01*
X151641782Y-60948904D01*
X151452442Y-61045379D01*
X151317385Y-61143503D01*
X151251579Y-61166983D01*
X151183525Y-61151157D01*
X151134830Y-61101051D01*
X151120500Y-61043185D01*
X151120500Y-57675202D01*
X151083553Y-57441931D01*
X151010566Y-57217303D01*
X150903342Y-57006866D01*
X150764517Y-56815790D01*
X150597510Y-56648783D01*
X140230674Y-46281947D01*
X170060000Y-46281947D01*
X170060000Y-46518052D01*
X170096934Y-46751247D01*
X170169897Y-46975802D01*
X170277087Y-47186174D01*
X170337338Y-47269104D01*
X170337340Y-47269105D01*
X170995387Y-46611058D01*
X171000889Y-46631591D01*
X171079881Y-46768408D01*
X171191592Y-46880119D01*
X171328409Y-46959111D01*
X171348940Y-46964612D01*
X170690893Y-47622658D01*
X170773828Y-47682914D01*
X170984197Y-47790102D01*
X171208752Y-47863065D01*
X171208751Y-47863065D01*
X171441948Y-47900000D01*
X171678052Y-47900000D01*
X171911247Y-47863065D01*
X172135802Y-47790102D01*
X172346163Y-47682918D01*
X172346169Y-47682914D01*
X172429104Y-47622658D01*
X172429105Y-47622658D01*
X171771058Y-46964612D01*
X171791591Y-46959111D01*
X171928408Y-46880119D01*
X172040119Y-46768408D01*
X172119111Y-46631591D01*
X172124612Y-46611058D01*
X172563181Y-47049627D01*
X172596666Y-47110950D01*
X172599500Y-47137306D01*
X172599500Y-47200000D01*
X172599501Y-47200019D01*
X172610000Y-47302796D01*
X172610001Y-47302799D01*
X172665185Y-47469331D01*
X172665186Y-47469334D01*
X172757288Y-47618656D01*
X172881344Y-47742712D01*
X173030666Y-47834814D01*
X173197203Y-47889999D01*
X173299991Y-47900500D01*
X174900008Y-47900499D01*
X175002797Y-47889999D01*
X175169334Y-47834814D01*
X175318656Y-47742712D01*
X175442712Y-47618656D01*
X175534814Y-47469334D01*
X175589999Y-47302797D01*
X175600500Y-47200009D01*
X175600499Y-45599992D01*
X175599716Y-45592331D01*
X175589999Y-45497203D01*
X175589998Y-45497200D01*
X175576837Y-45457483D01*
X175534814Y-45330666D01*
X175442712Y-45181344D01*
X175318656Y-45057288D01*
X175169334Y-44965186D01*
X175002797Y-44910001D01*
X175002795Y-44910000D01*
X174900010Y-44899500D01*
X173299998Y-44899500D01*
X173299981Y-44899501D01*
X173197203Y-44910000D01*
X173197200Y-44910001D01*
X173030668Y-44965185D01*
X173030663Y-44965187D01*
X172881342Y-45057289D01*
X172757289Y-45181342D01*
X172665187Y-45330663D01*
X172665185Y-45330668D01*
X172655885Y-45358734D01*
X172610001Y-45497203D01*
X172610001Y-45497204D01*
X172610000Y-45497204D01*
X172599500Y-45599983D01*
X172599500Y-45662691D01*
X172579815Y-45729730D01*
X172563181Y-45750372D01*
X172124612Y-46188940D01*
X172119111Y-46168409D01*
X172040119Y-46031592D01*
X171928408Y-45919881D01*
X171791591Y-45840889D01*
X171771059Y-45835387D01*
X172429105Y-45177340D01*
X172429104Y-45177338D01*
X172346174Y-45117087D01*
X172135802Y-45009897D01*
X171911247Y-44936934D01*
X171911248Y-44936934D01*
X171678052Y-44900000D01*
X171441948Y-44900000D01*
X171208752Y-44936934D01*
X170984197Y-45009897D01*
X170773830Y-45117084D01*
X170690894Y-45177340D01*
X171348941Y-45835387D01*
X171328409Y-45840889D01*
X171191592Y-45919881D01*
X171079881Y-46031592D01*
X171000889Y-46168409D01*
X170995387Y-46188941D01*
X170337340Y-45530894D01*
X170277084Y-45613830D01*
X170169897Y-45824197D01*
X170096934Y-46048752D01*
X170060000Y-46281947D01*
X140230674Y-46281947D01*
X139886819Y-45938092D01*
X139853334Y-45876769D01*
X139850500Y-45850411D01*
X139850500Y-44381902D01*
X139813553Y-44148631D01*
X139740566Y-43924003D01*
X139633342Y-43713566D01*
X139624355Y-43701196D01*
X139494517Y-43522490D01*
X139327510Y-43355483D01*
X139136433Y-43216657D01*
X139116791Y-43206649D01*
X138925996Y-43109433D01*
X138701368Y-43036446D01*
X138468097Y-42999500D01*
X138468092Y-42999500D01*
X138231908Y-42999500D01*
X138231903Y-42999500D01*
X137998631Y-43036446D01*
X137774003Y-43109433D01*
X137563566Y-43216657D01*
X137372491Y-43355482D01*
X137297392Y-43430581D01*
X137236068Y-43464065D01*
X137166377Y-43459080D01*
X137110443Y-43417209D01*
X137107437Y-43412531D01*
X137017547Y-43292455D01*
X137017544Y-43292452D01*
X136902335Y-43206206D01*
X136902328Y-43206202D01*
X136767482Y-43155908D01*
X136767483Y-43155908D01*
X136707883Y-43149501D01*
X136707881Y-43149500D01*
X136707873Y-43149500D01*
X136707864Y-43149500D01*
X134912129Y-43149500D01*
X134912123Y-43149501D01*
X134852516Y-43155908D01*
X134717671Y-43206202D01*
X134717664Y-43206206D01*
X134602455Y-43292452D01*
X134602452Y-43292455D01*
X134516206Y-43407664D01*
X134516202Y-43407671D01*
X134465908Y-43542517D01*
X134459501Y-43602116D01*
X134459500Y-43602135D01*
X134459500Y-45397870D01*
X134459501Y-45397876D01*
X134465908Y-45457483D01*
X134516202Y-45592328D01*
X134516206Y-45592335D01*
X134602452Y-45707544D01*
X134602455Y-45707547D01*
X134717664Y-45793793D01*
X134717671Y-45793797D01*
X134852517Y-45844091D01*
X134852516Y-45844091D01*
X134859444Y-45844835D01*
X134912127Y-45850500D01*
X136707872Y-45850499D01*
X136712233Y-45850030D01*
X136780994Y-45862429D01*
X136832136Y-45910034D01*
X136849500Y-45973318D01*
X136849500Y-46641397D01*
X136886446Y-46874668D01*
X136959433Y-47099296D01*
X137066657Y-47309734D01*
X137205484Y-47500811D01*
X148083181Y-58378508D01*
X148116666Y-58439831D01*
X148119500Y-58466189D01*
X148119500Y-70143310D01*
X148099815Y-70210349D01*
X148083181Y-70230991D01*
X131648484Y-86665688D01*
X131509657Y-86856765D01*
X131402433Y-87067203D01*
X131329446Y-87291831D01*
X131292500Y-87525102D01*
X119000500Y-87525102D01*
X119000500Y-66462155D01*
X121760000Y-66462155D01*
X121760000Y-67110000D01*
X122676988Y-67110000D01*
X122644075Y-67167007D01*
X122610000Y-67294174D01*
X122610000Y-67425826D01*
X122644075Y-67552993D01*
X122676988Y-67610000D01*
X121760000Y-67610000D01*
X121760000Y-68257844D01*
X121766401Y-68317372D01*
X121766403Y-68317379D01*
X121816645Y-68452086D01*
X121816649Y-68452093D01*
X121902809Y-68567187D01*
X121902812Y-68567190D01*
X122017906Y-68653350D01*
X122017913Y-68653354D01*
X122152620Y-68703596D01*
X122152627Y-68703598D01*
X122212155Y-68709999D01*
X122212172Y-68710000D01*
X122860000Y-68710000D01*
X122860000Y-67793012D01*
X122917007Y-67825925D01*
X123044174Y-67860000D01*
X123175826Y-67860000D01*
X123302993Y-67825925D01*
X123360000Y-67793012D01*
X123360000Y-68710000D01*
X124007828Y-68710000D01*
X124007844Y-68709999D01*
X124067372Y-68703598D01*
X124067379Y-68703596D01*
X124202086Y-68653354D01*
X124202093Y-68653350D01*
X124317187Y-68567190D01*
X124317190Y-68567187D01*
X124403350Y-68452093D01*
X124403354Y-68452086D01*
X124425529Y-68392632D01*
X124464319Y-68219390D01*
X124464682Y-68218734D01*
X124464642Y-68217984D01*
X124497642Y-68158802D01*
X125167037Y-67489408D01*
X125184075Y-67552993D01*
X125249901Y-67667007D01*
X125342993Y-67760099D01*
X125457007Y-67825925D01*
X125520590Y-67842962D01*
X124888282Y-68475269D01*
X124888282Y-68475270D01*
X124942449Y-68514624D01*
X125131782Y-68611095D01*
X125333870Y-68676757D01*
X125543754Y-68710000D01*
X125756246Y-68710000D01*
X125966127Y-68676757D01*
X125966130Y-68676757D01*
X126168217Y-68611095D01*
X126357554Y-68514622D01*
X126411716Y-68475270D01*
X126411717Y-68475270D01*
X125779408Y-67842962D01*
X125842993Y-67825925D01*
X125957007Y-67760099D01*
X126050099Y-67667007D01*
X126115925Y-67552993D01*
X126132962Y-67489409D01*
X126765270Y-68121717D01*
X126765270Y-68121716D01*
X126804622Y-68067554D01*
X126901095Y-67878217D01*
X126966757Y-67676130D01*
X126966757Y-67676127D01*
X127000000Y-67466246D01*
X127000000Y-67253753D01*
X126966757Y-67043872D01*
X126966757Y-67043869D01*
X126901095Y-66841782D01*
X126804624Y-66652449D01*
X126765270Y-66598282D01*
X126765269Y-66598282D01*
X126132962Y-67230590D01*
X126115925Y-67167007D01*
X126050099Y-67052993D01*
X125957007Y-66959901D01*
X125842993Y-66894075D01*
X125779409Y-66877037D01*
X126194310Y-66462135D01*
X134459500Y-66462135D01*
X134459500Y-68257870D01*
X134459501Y-68257876D01*
X134465908Y-68317483D01*
X134516202Y-68452328D01*
X134516206Y-68452335D01*
X134602452Y-68567544D01*
X134602455Y-68567547D01*
X134717664Y-68653793D01*
X134717671Y-68653797D01*
X134852517Y-68704091D01*
X134852516Y-68704091D01*
X134859444Y-68704835D01*
X134912127Y-68710500D01*
X136707872Y-68710499D01*
X136767483Y-68704091D01*
X136902331Y-68653796D01*
X137017546Y-68567546D01*
X137103796Y-68452331D01*
X137152810Y-68320916D01*
X137194681Y-68264984D01*
X137260145Y-68240566D01*
X137328418Y-68255417D01*
X137356673Y-68276569D01*
X137470213Y-68390109D01*
X137642179Y-68515048D01*
X137642181Y-68515049D01*
X137642184Y-68515051D01*
X137831588Y-68611557D01*
X138033757Y-68677246D01*
X138243713Y-68710500D01*
X138243714Y-68710500D01*
X138456286Y-68710500D01*
X138456287Y-68710500D01*
X138666243Y-68677246D01*
X138868412Y-68611557D01*
X139057816Y-68515051D01*
X139107834Y-68478711D01*
X142849500Y-68478711D01*
X142849500Y-68721288D01*
X142881161Y-68961785D01*
X142943947Y-69196104D01*
X143036773Y-69420205D01*
X143036776Y-69420212D01*
X143158064Y-69630289D01*
X143158066Y-69630292D01*
X143158067Y-69630293D01*
X143305733Y-69822736D01*
X143305739Y-69822743D01*
X143477256Y-69994260D01*
X143477262Y-69994265D01*
X143669711Y-70141936D01*
X143879788Y-70263224D01*
X144103900Y-70356054D01*
X144338211Y-70418838D01*
X144518586Y-70442584D01*
X144578711Y-70450500D01*
X144578712Y-70450500D01*
X144821289Y-70450500D01*
X144869388Y-70444167D01*
X145061789Y-70418838D01*
X145296100Y-70356054D01*
X145520212Y-70263224D01*
X145730289Y-70141936D01*
X145922738Y-69994265D01*
X146094265Y-69822738D01*
X146241936Y-69630289D01*
X146363224Y-69420212D01*
X146456054Y-69196100D01*
X146518838Y-68961789D01*
X146550500Y-68721288D01*
X146550500Y-68478712D01*
X146547027Y-68452335D01*
X146540203Y-68400500D01*
X146518838Y-68238211D01*
X146456054Y-68003900D01*
X146454523Y-68000205D01*
X146404075Y-67878412D01*
X146363224Y-67779788D01*
X146241936Y-67569711D01*
X146162545Y-67466246D01*
X146094266Y-67377263D01*
X146094260Y-67377256D01*
X145922743Y-67205739D01*
X145922736Y-67205733D01*
X145730293Y-67058067D01*
X145730292Y-67058066D01*
X145730289Y-67058064D01*
X145520212Y-66936776D01*
X145520205Y-66936773D01*
X145296104Y-66843947D01*
X145178944Y-66812554D01*
X145061789Y-66781162D01*
X145061788Y-66781161D01*
X145061785Y-66781161D01*
X144821289Y-66749500D01*
X144821288Y-66749500D01*
X144578712Y-66749500D01*
X144578711Y-66749500D01*
X144338214Y-66781161D01*
X144103895Y-66843947D01*
X143879794Y-66936773D01*
X143879785Y-66936777D01*
X143669706Y-67058067D01*
X143477263Y-67205733D01*
X143477256Y-67205739D01*
X143305739Y-67377256D01*
X143305733Y-67377263D01*
X143158067Y-67569706D01*
X143158064Y-67569710D01*
X143158064Y-67569711D01*
X143141817Y-67597851D01*
X143036777Y-67779785D01*
X143036773Y-67779794D01*
X142943947Y-68003895D01*
X142881161Y-68238214D01*
X142849500Y-68478711D01*
X139107834Y-68478711D01*
X139112572Y-68475269D01*
X139229786Y-68390109D01*
X139229788Y-68390106D01*
X139229792Y-68390104D01*
X139380104Y-68239792D01*
X139380106Y-68239788D01*
X139380109Y-68239786D01*
X139505048Y-68067820D01*
X139505047Y-68067820D01*
X139505051Y-68067816D01*
X139601557Y-67878412D01*
X139667246Y-67676243D01*
X139700500Y-67466287D01*
X139700500Y-67253713D01*
X139667246Y-67043757D01*
X139601557Y-66841588D01*
X139505051Y-66652184D01*
X139505049Y-66652181D01*
X139505048Y-66652179D01*
X139380109Y-66480213D01*
X139229786Y-66329890D01*
X139057820Y-66204951D01*
X138868414Y-66108444D01*
X138868413Y-66108443D01*
X138868412Y-66108443D01*
X138666243Y-66042754D01*
X138666241Y-66042753D01*
X138666240Y-66042753D01*
X138504957Y-66017208D01*
X138456287Y-66009500D01*
X138243713Y-66009500D01*
X138195042Y-66017208D01*
X138033760Y-66042753D01*
X137831585Y-66108444D01*
X137642179Y-66204951D01*
X137470215Y-66329889D01*
X137356673Y-66443431D01*
X137295350Y-66476915D01*
X137225658Y-66471931D01*
X137169725Y-66430059D01*
X137152810Y-66399082D01*
X137103797Y-66267671D01*
X137103793Y-66267664D01*
X137017547Y-66152455D01*
X137017544Y-66152452D01*
X136902335Y-66066206D01*
X136902328Y-66066202D01*
X136767482Y-66015908D01*
X136767483Y-66015908D01*
X136707883Y-66009501D01*
X136707881Y-66009500D01*
X136707873Y-66009500D01*
X136707864Y-66009500D01*
X134912129Y-66009500D01*
X134912123Y-66009501D01*
X134852516Y-66015908D01*
X134717671Y-66066202D01*
X134717664Y-66066206D01*
X134602455Y-66152452D01*
X134602452Y-66152455D01*
X134516206Y-66267664D01*
X134516202Y-66267671D01*
X134465908Y-66402517D01*
X134459501Y-66462116D01*
X134459500Y-66462135D01*
X126194310Y-66462135D01*
X126285320Y-66371125D01*
X126411716Y-66244728D01*
X126357550Y-66205375D01*
X126168217Y-66108904D01*
X125966129Y-66043242D01*
X125756246Y-66010000D01*
X125543754Y-66010000D01*
X125333872Y-66043242D01*
X125333869Y-66043242D01*
X125131782Y-66108904D01*
X124942439Y-66205380D01*
X124888282Y-66244727D01*
X124888282Y-66244728D01*
X125520591Y-66877037D01*
X125457007Y-66894075D01*
X125342993Y-66959901D01*
X125249901Y-67052993D01*
X125184075Y-67167007D01*
X125167037Y-67230591D01*
X124497642Y-66561196D01*
X124464319Y-66500609D01*
X124425527Y-66327364D01*
X124403354Y-66267913D01*
X124403350Y-66267906D01*
X124317190Y-66152812D01*
X124317187Y-66152809D01*
X124202093Y-66066649D01*
X124202086Y-66066645D01*
X124067379Y-66016403D01*
X124067372Y-66016401D01*
X124007844Y-66010000D01*
X123360000Y-66010000D01*
X123360000Y-66926988D01*
X123302993Y-66894075D01*
X123175826Y-66860000D01*
X123044174Y-66860000D01*
X122917007Y-66894075D01*
X122860000Y-66926988D01*
X122860000Y-66010000D01*
X122212155Y-66010000D01*
X122152627Y-66016401D01*
X122152620Y-66016403D01*
X122017913Y-66066645D01*
X122017906Y-66066649D01*
X121902812Y-66152809D01*
X121902809Y-66152812D01*
X121816649Y-66267906D01*
X121816645Y-66267913D01*
X121766403Y-66402620D01*
X121766401Y-66402627D01*
X121760000Y-66462155D01*
X119000500Y-66462155D01*
X119000500Y-43602155D01*
X121760000Y-43602155D01*
X121760000Y-44250000D01*
X122676988Y-44250000D01*
X122644075Y-44307007D01*
X122610000Y-44434174D01*
X122610000Y-44565826D01*
X122644075Y-44692993D01*
X122676988Y-44750000D01*
X121760000Y-44750000D01*
X121760000Y-45397844D01*
X121766401Y-45457372D01*
X121766403Y-45457379D01*
X121816645Y-45592086D01*
X121816649Y-45592093D01*
X121902809Y-45707187D01*
X121902812Y-45707190D01*
X122017906Y-45793350D01*
X122017913Y-45793354D01*
X122152620Y-45843596D01*
X122152627Y-45843598D01*
X122212155Y-45849999D01*
X122212172Y-45850000D01*
X122860000Y-45850000D01*
X122860000Y-44933012D01*
X122917007Y-44965925D01*
X123044174Y-45000000D01*
X123175826Y-45000000D01*
X123302993Y-44965925D01*
X123360000Y-44933012D01*
X123360000Y-45850000D01*
X124007828Y-45850000D01*
X124007844Y-45849999D01*
X124067372Y-45843598D01*
X124067379Y-45843596D01*
X124202086Y-45793354D01*
X124202093Y-45793350D01*
X124317187Y-45707190D01*
X124317190Y-45707187D01*
X124403350Y-45592093D01*
X124403354Y-45592086D01*
X124425529Y-45532632D01*
X124464319Y-45359390D01*
X124464682Y-45358734D01*
X124464642Y-45357984D01*
X124497642Y-45298802D01*
X125167037Y-44629408D01*
X125184075Y-44692993D01*
X125249901Y-44807007D01*
X125342993Y-44900099D01*
X125457007Y-44965925D01*
X125520590Y-44982962D01*
X124888282Y-45615269D01*
X124888282Y-45615270D01*
X124942449Y-45654624D01*
X125131782Y-45751095D01*
X125333870Y-45816757D01*
X125543754Y-45850000D01*
X125756246Y-45850000D01*
X125966127Y-45816757D01*
X125966130Y-45816757D01*
X126168217Y-45751095D01*
X126357554Y-45654622D01*
X126411716Y-45615270D01*
X126411717Y-45615270D01*
X125779408Y-44982962D01*
X125842993Y-44965925D01*
X125957007Y-44900099D01*
X126050099Y-44807007D01*
X126115925Y-44692993D01*
X126132962Y-44629408D01*
X126765270Y-45261717D01*
X126765270Y-45261716D01*
X126804622Y-45207554D01*
X126901095Y-45018217D01*
X126966757Y-44816130D01*
X126966757Y-44816127D01*
X127000000Y-44606246D01*
X127000000Y-44393753D01*
X126966757Y-44183872D01*
X126966757Y-44183869D01*
X126901095Y-43981782D01*
X126804624Y-43792449D01*
X126765270Y-43738282D01*
X126765269Y-43738282D01*
X126132962Y-44370590D01*
X126115925Y-44307007D01*
X126050099Y-44192993D01*
X125957007Y-44099901D01*
X125842993Y-44034075D01*
X125779409Y-44017037D01*
X126411716Y-43384728D01*
X126357550Y-43345375D01*
X126168217Y-43248904D01*
X125966129Y-43183242D01*
X125756246Y-43150000D01*
X125543754Y-43150000D01*
X125333872Y-43183242D01*
X125333869Y-43183242D01*
X125131782Y-43248904D01*
X124942439Y-43345380D01*
X124888282Y-43384727D01*
X124888282Y-43384728D01*
X125520591Y-44017037D01*
X125457007Y-44034075D01*
X125342993Y-44099901D01*
X125249901Y-44192993D01*
X125184075Y-44307007D01*
X125167037Y-44370591D01*
X124497642Y-43701196D01*
X124464319Y-43640609D01*
X124425527Y-43467364D01*
X124403354Y-43407913D01*
X124403350Y-43407906D01*
X124317190Y-43292812D01*
X124317187Y-43292809D01*
X124202093Y-43206649D01*
X124202086Y-43206645D01*
X124067379Y-43156403D01*
X124067372Y-43156401D01*
X124007844Y-43150000D01*
X123360000Y-43150000D01*
X123360000Y-44066988D01*
X123302993Y-44034075D01*
X123175826Y-44000000D01*
X123044174Y-44000000D01*
X122917007Y-44034075D01*
X122860000Y-44066988D01*
X122860000Y-43150000D01*
X122212155Y-43150000D01*
X122152627Y-43156401D01*
X122152620Y-43156403D01*
X122017913Y-43206645D01*
X122017906Y-43206649D01*
X121902812Y-43292809D01*
X121902809Y-43292812D01*
X121816649Y-43407906D01*
X121816645Y-43407913D01*
X121766403Y-43542620D01*
X121766401Y-43542627D01*
X121760000Y-43602155D01*
X119000500Y-43602155D01*
X119000500Y-42624500D01*
X119020185Y-42557461D01*
X119072989Y-42511706D01*
X119124500Y-42500500D01*
X177679140Y-42500500D01*
X177746179Y-42520185D01*
G37*
%TD.AperFunction*%
%TD*%
M02*
