%TF.GenerationSoftware,KiCad,Pcbnew,10.0.3-10.0.3~ubuntu24.04.1*%
%TF.CreationDate,2026-06-16T11:24:29+02:00*%
%TF.ProjectId,_V0_3-Power_Module,5f56305f-332d-4506-9f77-65725f4d6f64,rev?*%
%TF.SameCoordinates,Original*%
%TF.FileFunction,Soldermask,Bot*%
%TF.FilePolarity,Negative*%
%FSLAX46Y46*%
G04 Gerber Fmt 4.6, Leading zero omitted, Abs format (unit mm)*
G04 Created by KiCad (PCBNEW 10.0.3-10.0.3~ubuntu24.04.1) date 2026-06-16 11:24:29*
%MOMM*%
%LPD*%
G01*
G04 APERTURE LIST*
G04 Aperture macros list*
%AMRoundRect*
0 Rectangle with rounded corners*
0 $1 Rounding radius*
0 $2 $3 $4 $5 $6 $7 $8 $9 X,Y pos of 4 corners*
0 Add a 4 corners polygon primitive as box body*
4,1,4,$2,$3,$4,$5,$6,$7,$8,$9,$2,$3,0*
0 Add four circle primitives for the rounded corners*
1,1,$1+$1,$2,$3*
1,1,$1+$1,$4,$5*
1,1,$1+$1,$6,$7*
1,1,$1+$1,$8,$9*
0 Add four rect primitives between the rounded corners*
20,1,$1+$1,$2,$3,$4,$5,0*
20,1,$1+$1,$4,$5,$6,$7,0*
20,1,$1+$1,$6,$7,$8,$9,0*
20,1,$1+$1,$8,$9,$2,$3,0*%
G04 Aperture macros list end*
%ADD10R,1.700000X1.700000*%
%ADD11C,1.700000*%
%ADD12RoundRect,0.250000X0.750000X0.750000X-0.750000X0.750000X-0.750000X-0.750000X0.750000X-0.750000X0*%
%ADD13C,2.000000*%
%ADD14C,3.200000*%
G04 APERTURE END LIST*
D10*
%TO.C,J16*%
X149620000Y-62200000D03*
D11*
X152160000Y-62200000D03*
X154700000Y-62200000D03*
X157240000Y-62200000D03*
X159780000Y-62200000D03*
X162320000Y-62200000D03*
%TD*%
D12*
%TO.C,INA219-Solar+1*%
X174100000Y-46400000D03*
D13*
X171560000Y-46400000D03*
%TD*%
D10*
%TO.C,J19*%
X135810000Y-67360000D03*
D11*
X138350000Y-67360000D03*
%TD*%
D10*
%TO.C,J18*%
X123110000Y-44500000D03*
D11*
X125650000Y-44500000D03*
%TD*%
D10*
%TO.C,J21*%
X174350000Y-89090000D03*
D11*
X176890000Y-89090000D03*
X179430000Y-89090000D03*
X181970000Y-89090000D03*
X184510000Y-89090000D03*
X187050000Y-89090000D03*
%TD*%
D10*
%TO.C,J6*%
X123110000Y-67360000D03*
D11*
X125650000Y-67360000D03*
%TD*%
D10*
%TO.C,TP4056+1*%
X191500000Y-66900000D03*
D11*
X188960000Y-66900000D03*
%TD*%
D10*
%TO.C,J20*%
X150880000Y-95150000D03*
D11*
X148340000Y-95150000D03*
X145800000Y-95150000D03*
X143260000Y-95150000D03*
X140720000Y-95150000D03*
X138180000Y-95150000D03*
%TD*%
D10*
%TO.C,MAX17048*%
X179430000Y-80200000D03*
D11*
X181970000Y-80200000D03*
%TD*%
D10*
%TO.C,J17*%
X142740000Y-89475000D03*
D11*
X140200000Y-89475000D03*
X137660000Y-89475000D03*
X135120000Y-89475000D03*
%TD*%
D10*
%TO.C,TP4056-1*%
X181340000Y-66900000D03*
D11*
X178800000Y-66900000D03*
%TD*%
D10*
%TO.C,J23*%
X135810000Y-44500000D03*
D11*
X138350000Y-44500000D03*
%TD*%
D14*
%TO.C,m3-br*%
X190420000Y-94000000D03*
%TD*%
%TO.C,m3-tl*%
X144700000Y-68600000D03*
%TD*%
D10*
%TO.C,stabilizer_usb_2*%
X191500000Y-44040000D03*
%TD*%
%TO.C,stabilizer_usb_1*%
X178800000Y-44040000D03*
%TD*%
D14*
%TO.C,m3-tr*%
X170100000Y-68600000D03*
%TD*%
%TO.C,m3-bl*%
X124380000Y-94000000D03*
%TD*%
M02*
